<svg width="32" height="32" viewBox="0 0 32 32" fill="none" xmlns="http://www.w3.org/2000/svg">
<path d="M19.2 10.6667C19.2 9.53508 19.6495 8.44983 20.4497 7.64968C21.2498 6.84952 22.3351 6.4 23.4667 6.4H25.6C27.2974 6.4 28.9252 5.72572 30.1255 4.52548C31.3257 3.32525 32 1.69739 32 0H22.2815C19.7668 0 17.3552 0.998939 15.5771 2.77706C13.7989 4.55518 12.8 6.96684 12.8 9.48148V12.8H9.6C7.05392 12.8 4.61212 13.8114 2.81177 15.6118C1.01143 17.4121 0 19.8539 0 22.4C0 24.9461 1.01143 27.3879 2.81177 29.1882C4.61212 30.9886 7.05392 32 9.6 32C12.1461 32 14.5879 30.9886 16.3882 29.1882C18.1886 27.3879 19.2 24.9461 19.2 22.4V19.2H25.6C27.2974 19.2 28.9252 18.5257 30.1255 17.3255C31.3257 16.1252 32 14.4974 32 12.8H19.2V10.6667ZM12.8 22.4C12.8 23.0329 12.6123 23.6516 12.2607 24.1778C11.9091 24.7041 11.4093 25.1142 10.8246 25.3564C10.2399 25.5986 9.59645 25.662 8.97571 25.5385C8.35497 25.415 7.78479 25.1103 7.33726 24.6627C6.88973 24.2152 6.58496 23.645 6.46149 23.0243C6.33801 22.4035 6.40138 21.7601 6.64359 21.1754C6.88579 20.5907 7.29594 20.0909 7.82218 19.7393C8.34841 19.3877 8.9671 19.2 9.6 19.2H12.8V22.4Z" fill="white"/>
</svg>
