<svg width="1293" height="1292" viewBox="0 0 1293 1292" fill="none" xmlns="http://www.w3.org/2000/svg">
<path d="M648.356 1271.92C647.505 1272.41 646.457 1272.41 645.606 1271.92L119.465 968.149C118.614 967.658 118.09 966.75 118.09 965.768L118.09 358.232C118.09 357.25 118.614 356.342 119.465 355.85L645.606 52.0827C646.457 51.5913 647.506 51.5913 648.356 52.0826L1174.5 355.851C1175.35 356.342 1175.87 357.25 1175.87 358.232L1175.87 965.768C1175.87 966.75 1175.35 967.658 1174.5 968.15L648.356 1271.92Z" stroke="url(#paint0_linear_347_1076)" stroke-opacity="0.5" stroke-width="0.5"/>
<path d="M648.357 1290.92C647.506 1291.41 646.458 1291.41 645.607 1290.92L89.1544 969.649C88.3036 969.158 87.7794 968.25 87.7794 967.268L87.7795 324.732C87.7795 323.75 88.3037 322.842 89.1545 322.35L645.607 1.08259C646.458 0.591252 647.506 0.591252 648.357 1.08259L1204.81 322.351C1205.66 322.842 1206.18 323.75 1206.18 324.732L1206.18 967.268C1206.18 968.25 1205.66 969.158 1204.81 969.65L648.357 1290.92Z" stroke="url(#paint1_linear_347_1076)" stroke-opacity="0.5" stroke-width="0.5"/>
<defs>
<linearGradient id="paint0_linear_347_1076" x1="646.982" y1="51.0001" x2="646.982" y2="329" gradientUnits="userSpaceOnUse">
<stop stop-color="#3AFFD8"/>
<stop offset="1" stop-color="white" stop-opacity="0"/>
</linearGradient>
<linearGradient id="paint1_linear_347_1076" x1="646.982" y1="2.97982e-05" x2="646.982" y2="813.579" gradientUnits="userSpaceOnUse">
<stop stop-color="#3AFFD8"/>
<stop offset="1" stop-color="white" stop-opacity="0"/>
</linearGradient>
</defs>
</svg>
