<svg width="961" height="961" viewBox="0 0 961 961" fill="none" xmlns="http://www.w3.org/2000/svg">
<path d="M852.894 628.326L959.113 755.973L795.389 728.215L852.894 628.326ZM755.973 1.58931L728.213 165.313L628.327 107.809L755.973 1.58931ZM1.58916 204.729L165.314 232.488L107.808 332.377L1.58916 204.729ZM231.81 793.406C94.4241 684.609 44.0373 497.459 108.236 334.388L275.536 535.503L231.81 793.406ZM204.729 959.113L232.489 795.389L332.375 852.894L204.729 959.113ZM793.44 728.855C684.657 866.263 497.508 916.667 334.431 852.485L535.504 685.166L793.44 728.855ZM425.198 275.536L167.268 231.848C276.052 94.4444 463.197 44.041 626.27 108.218L425.198 275.536ZM728.893 167.296C866.284 276.094 916.672 463.247 852.47 626.319L685.167 425.199L728.893 167.296Z" stroke="#272727" stroke-opacity="0.5"/>
</svg>
