<svg width="351" height="351" viewBox="0 0 351 351" fill="none" xmlns="http://www.w3.org/2000/svg">
<mask id="path-1-inside-1_311_798" fill="white">
<path d="M250.781 175.589C250.781 216.688 217.464 250.005 176.365 250.005C135.266 250.005 101.949 216.688 101.949 175.589C101.949 134.49 135.266 101.172 176.365 101.172C217.464 101.172 250.781 134.49 250.781 175.589Z"/>
</mask>
<path d="M249.781 175.589C249.781 216.135 216.912 249.005 176.365 249.005V251.005C218.016 251.005 251.781 217.24 251.781 175.589H249.781ZM176.365 249.005C135.818 249.005 102.949 216.135 102.949 175.589H100.949C100.949 217.24 134.714 251.005 176.365 251.005V249.005ZM102.949 175.589C102.949 135.042 135.818 102.172 176.365 102.172V100.172C134.714 100.172 100.949 133.937 100.949 175.589H102.949ZM176.365 102.172C216.912 102.172 249.781 135.042 249.781 175.589H251.781C251.781 133.937 218.016 100.172 176.365 100.172V102.172Z" fill="white" mask="url(#path-1-inside-1_311_798)"/>
<path d="M42.4344 215.982L128.29 150.563L128.473 150.424L128.486 150.194L134.711 42.4345L200.13 128.29L200.27 128.473L200.499 128.486L308.259 134.711L222.403 200.131L222.22 200.27L222.207 200.499L215.982 308.259L150.563 222.403L150.423 222.22L150.194 222.207L42.4344 215.982Z" stroke="white"/>
</svg>
