<svg width="222" height="46" viewBox="0 0 222 46" fill="none" xmlns="http://www.w3.org/2000/svg">
<path d="M62.026 32.1338C61.3158 32.1338 60.6747 31.9562 60.1026 31.6011C59.5305 31.246 59.0669 30.7824 58.7118 30.2103C58.3567 29.6382 58.1791 28.9971 58.1791 28.2869V18.8175C58.1791 18.1073 58.3567 17.4661 58.7118 16.894C59.0669 16.3219 59.5305 15.8583 60.1026 15.5032C60.6747 15.1481 61.3158 14.9706 62.026 14.9706H71.7913C72.5015 14.9706 73.1427 15.1481 73.7148 15.5032C74.3066 15.8386 74.7702 16.3022 75.1056 16.894C75.4607 17.4859 75.6382 18.127 75.6382 18.8175V25.1501H61.375V28.1981C61.375 28.3954 61.4441 28.5729 61.5822 28.7307C61.74 28.8688 61.9175 28.9379 62.1148 28.9379H75.6382V32.1338H62.026ZM61.375 22.1614H72.4127V18.9063C72.4127 18.709 72.3437 18.5413 72.2056 18.4032C72.0675 18.2454 71.8998 18.1665 71.7025 18.1665H62.1148C61.9175 18.1665 61.74 18.2454 61.5822 18.4032C61.4441 18.5413 61.375 18.709 61.375 18.9063V22.1614ZM78.7567 32.1338V14.9706H100.684C101.414 14.9706 102.065 15.1481 102.637 15.5032C103.209 15.8583 103.663 16.3219 103.998 16.894C104.354 17.4661 104.531 18.1073 104.531 18.8175V32.1338H101.365V18.9063C101.365 18.709 101.286 18.5413 101.128 18.4032C100.99 18.2454 100.822 18.1665 100.625 18.1665H94.026C93.809 18.1665 93.6315 18.2454 93.4934 18.4032C93.3553 18.5413 93.2862 18.709 93.2862 18.9063V32.1338H90.0607V18.9063C90.0607 18.709 89.9818 18.5413 89.824 18.4032C89.6859 18.2454 89.5182 18.1665 89.321 18.1665H82.6924C82.4951 18.1665 82.3274 18.2454 82.1893 18.4032C82.0512 18.5413 81.9822 18.709 81.9822 18.9063V32.1338H78.7567ZM107.077 38.9399V14.9706H120.689C121.399 14.9706 122.04 15.1481 122.613 15.5032C123.204 15.8583 123.668 16.3219 124.003 16.894C124.359 17.4661 124.536 18.1073 124.536 18.8175V28.2869C124.536 28.9971 124.359 29.6382 124.003 30.2103C123.668 30.7824 123.204 31.246 122.613 31.6011C122.04 31.9562 121.399 32.1338 120.689 32.1338H110.273V38.9399H107.077ZM111.013 28.9379H120.6C120.798 28.9379 120.965 28.8688 121.103 28.7307C121.261 28.5729 121.34 28.3954 121.34 28.1981V18.9063C121.34 18.709 121.261 18.5413 121.103 18.4032C120.965 18.2454 120.798 18.1665 120.6 18.1665H111.013C110.815 18.1665 110.638 18.2454 110.48 18.4032C110.342 18.5413 110.273 18.709 110.273 18.9063V28.1981C110.273 28.3954 110.342 28.5729 110.48 28.7307C110.638 28.8688 110.815 28.9379 111.013 28.9379ZM126.669 32.1338V18.8175C126.669 18.1073 126.846 17.4661 127.201 16.894C127.556 16.3219 128.02 15.8583 128.592 15.5032C129.184 15.1481 129.825 14.9706 130.515 14.9706H140.103V18.1665H130.604C130.407 18.1665 130.229 18.2454 130.072 18.4032C129.933 18.5413 129.864 18.709 129.864 18.9063V32.1338H126.669ZM145.889 32.1338C145.178 32.1338 144.537 31.9562 143.965 31.6011C143.393 31.246 142.929 30.7824 142.574 30.2103C142.219 29.6382 142.042 28.9971 142.042 28.2869V18.8175C142.042 18.1073 142.219 17.4661 142.574 16.894C142.929 16.3219 143.393 15.8583 143.965 15.5032C144.537 15.1481 145.178 14.9706 145.889 14.9706H155.654C156.364 14.9706 157.005 15.1481 157.577 15.5032C158.169 15.8386 158.633 16.3022 158.968 16.894C159.323 17.4859 159.501 18.127 159.501 18.8175V25.1501H145.238V28.1981C145.238 28.3954 145.307 28.5729 145.445 28.7307C145.603 28.8688 145.78 28.9379 145.977 28.9379H159.501V32.1338H145.889ZM145.238 22.1614H156.275V18.9063C156.275 18.709 156.206 18.5413 156.068 18.4032C155.93 18.2454 155.762 18.1665 155.565 18.1665H145.977C145.78 18.1665 145.603 18.2454 145.445 18.4032C145.307 18.5413 145.238 18.709 145.238 18.9063V22.1614ZM166.173 32.1338C165.463 32.1338 164.822 31.9562 164.25 31.6011C163.677 31.246 163.214 30.7824 162.859 30.2103C162.504 29.6382 162.326 28.9971 162.326 28.2869V27.843H165.522V28.1981C165.522 28.3954 165.591 28.5729 165.729 28.7307C165.887 28.8688 166.065 28.9379 166.262 28.9379H175.85C176.047 28.9379 176.215 28.8688 176.353 28.7307C176.491 28.5729 176.56 28.3954 176.56 28.1981V25.8899C176.56 25.6927 176.491 25.525 176.353 25.3869C176.215 25.229 176.047 25.1501 175.85 25.1501H166.173C165.463 25.1501 164.822 24.9824 164.25 24.6471C163.677 24.292 163.214 23.8284 162.859 23.2563C162.504 22.6644 162.326 22.0134 162.326 21.3032V18.8175C162.326 18.1073 162.504 17.4661 162.859 16.894C163.214 16.3219 163.677 15.8583 164.25 15.5032C164.822 15.1481 165.463 14.9706 166.173 14.9706H175.938C176.649 14.9706 177.29 15.1481 177.862 15.5032C178.454 15.8583 178.917 16.3219 179.253 16.894C179.608 17.4661 179.785 18.1073 179.785 18.8175V19.2614H176.56V18.9063C176.56 18.709 176.491 18.5413 176.353 18.4032C176.215 18.2454 176.047 18.1665 175.85 18.1665H166.262C166.065 18.1665 165.887 18.2454 165.729 18.4032C165.591 18.5413 165.522 18.709 165.522 18.9063V21.2144C165.522 21.4117 165.591 21.5893 165.729 21.7471C165.887 21.8852 166.065 21.9542 166.262 21.9542H175.938C176.649 21.9542 177.29 22.1318 177.862 22.4869C178.454 22.8223 178.917 23.2859 179.253 23.8777C179.608 24.4498 179.785 25.091 179.785 25.8012V28.2869C179.785 28.9971 179.608 29.6382 179.253 30.2103C178.917 30.7824 178.454 31.246 177.862 31.6011C177.29 31.9562 176.649 32.1338 175.938 32.1338H166.173ZM186.057 32.1338C185.347 32.1338 184.706 31.9562 184.134 31.6011C183.562 31.246 183.098 30.7824 182.743 30.2103C182.388 29.6382 182.21 28.9971 182.21 28.2869V18.8175C182.21 18.1073 182.388 17.4661 182.743 16.894C183.098 16.3219 183.562 15.8583 184.134 15.5032C184.706 15.1481 185.347 14.9706 186.057 14.9706H195.822C196.533 14.9706 197.174 15.1481 197.746 15.5032C198.338 15.8386 198.801 16.3022 199.137 16.894C199.492 17.4859 199.669 18.127 199.669 18.8175V25.1501H185.406V28.1981C185.406 28.3954 185.475 28.5729 185.613 28.7307C185.771 28.8688 185.949 28.9379 186.146 28.9379H199.669V32.1338H186.057ZM185.406 22.1614H196.444V18.9063C196.444 18.709 196.375 18.5413 196.237 18.4032C196.099 18.2454 195.931 18.1665 195.734 18.1665H186.146C185.949 18.1665 185.771 18.2454 185.613 18.4032C185.475 18.5413 185.406 18.709 185.406 18.9063V22.1614ZM202.031 32.1338V31.5715L208.748 23.4042L202.031 15.5328V14.9706H205.759L210.82 20.9185L215.909 14.9706H219.608V15.5328L212.921 23.4042L219.638 31.5715V32.1338H215.909L210.82 25.8899L205.759 32.1338H202.031Z" fill="white"/>
<path d="M25.427 6.55872L29.2121 16.7879L39.4522 20.5789V25.4211L29.2121 29.2121L25.427 39.4413C32.6619 38.3826 38.3827 32.6618 39.4414 25.4269L46 23L39.4414 20.5731C38.3827 13.3382 32.6619 7.61741 25.427 6.55872Z" fill="white"/>
<path d="M25.4229 39.4522H20.5771L23 46L25.4229 39.4522Z" fill="white"/>
<path d="M20.573 39.4412L16.7879 29.2121L6.54785 25.4211V20.5789L16.7879 16.7879L20.573 6.55875C13.3384 7.61753 7.61759 13.3382 6.55881 20.573L0 23L6.55881 25.427C7.61759 32.6618 13.3384 38.3825 20.573 39.4412Z" fill="white"/>
<path d="M23 0L25.4229 6.54785H20.5771L23 0Z" fill="white"/>
</svg>
