<svg width="1071" height="1071" viewBox="0 0 1071 1071" fill="none" xmlns="http://www.w3.org/2000/svg">
<path fill-rule="evenodd" clip-rule="evenodd" d="M381.943 884.53L402.528 1070.8L508.026 916.186C651.645 926.754 795.118 855.045 869.518 720.822C875.174 710.62 880.312 700.27 884.94 689.803L1070.8 669.264L916.371 563.892C926.776 420.407 855.076 277.132 720.978 202.801C710.742 197.127 700.358 191.974 689.857 187.334L669.263 0.98693L563.556 155.913C420.236 145.707 277.203 217.397 202.957 351.341C197.386 361.391 192.318 371.583 187.744 381.889L0.986769 402.528L156.097 508.362C145.729 651.816 217.428 795.047 351.497 869.363C361.513 874.915 371.672 879.968 381.943 884.53ZM381.943 884.53C422.783 902.67 465.411 913.05 508.026 916.186L644.348 716.391L884.94 689.803C902.98 649.009 913.286 606.442 916.371 563.892L716.391 427.443L689.857 187.334C648.936 169.253 606.233 158.952 563.556 155.913L427.443 355.4L187.744 381.889C169.562 422.855 159.187 465.618 156.097 508.362L355.4 644.348L381.943 884.53Z" fill="#272727"/>
</svg>
