<svg width="160" height="24" viewBox="0 0 160 24" fill="none" xmlns="http://www.w3.org/2000/svg">
<path d="M3.81217 16.8033C3.10839 16.8033 2.47302 16.6295 1.90609 16.2818C1.33915 15.9342 0.879732 15.4803 0.527839 14.9202C0.175946 14.3601 0 13.7323 0 13.037L0 3.76626C0 3.07095 0.175946 2.44324 0.527839 1.88313C0.879732 1.32302 1.33915 0.869136 1.90609 0.521481C2.47302 0.173827 3.10839 0 3.81217 0L13.4892 0C14.193 0 14.8284 0.173827 15.3953 0.521481C15.9818 0.849822 16.4412 1.3037 16.7735 1.88313C17.1254 2.46255 17.3014 3.09026 17.3014 3.76626V9.96609L3.16703 9.96609L3.16703 12.9501C3.16703 13.1433 3.23546 13.3171 3.3723 13.4716C3.5287 13.6068 3.70465 13.6744 3.90014 13.6744L17.3014 13.6744V16.8033L3.81217 16.8033ZM3.16703 7.04L14.105 7.04L14.105 3.85317C14.105 3.66003 14.0366 3.49586 13.8998 3.36066C13.7629 3.20615 13.5967 3.12889 13.4012 3.12889L3.90014 3.12889C3.70465 3.12889 3.5287 3.20615 3.3723 3.36066C3.23546 3.49586 3.16703 3.66003 3.16703 3.85317L3.16703 7.04Z" fill="#272727"/>
<path d="M20.3917 16.8033L20.3917 0L42.121 0C42.8444 0 43.4895 0.173827 44.0564 0.521481C44.6234 0.869136 45.073 1.32302 45.4054 1.88313C45.7573 2.44324 45.9332 3.07095 45.9332 3.76626V16.8033H42.7955V3.85317C42.7955 3.66003 42.7173 3.49586 42.5609 3.36066C42.4241 3.20615 42.2579 3.12889 42.0624 3.12889L35.5231 3.12889C35.308 3.12889 35.1321 3.20615 34.9952 3.36066C34.8584 3.49586 34.7899 3.66003 34.7899 3.85317V16.8033L31.5936 16.8033L31.5936 3.85317C31.5936 3.66003 31.5154 3.49586 31.359 3.36066C31.2221 3.20615 31.056 3.12889 30.8605 3.12889L24.2918 3.12889C24.0963 3.12889 23.9301 3.20615 23.7933 3.36066C23.6565 3.49586 23.588 3.66003 23.588 3.85317L23.588 16.8033H20.3917Z" fill="#272727"/>
<path d="M48.456 23.4667L48.456 0L61.9452 0C62.649 0 63.2844 0.173827 63.8513 0.521481C64.4378 0.869136 64.8972 1.32302 65.2296 1.88313C65.5815 2.44324 65.7574 3.07095 65.7574 3.76626V13.037C65.7574 13.7323 65.5815 14.3601 65.2296 14.9202C64.8972 15.4803 64.4378 15.9342 63.8513 16.2818C63.2844 16.6295 62.649 16.8033 61.9452 16.8033L51.6231 16.8033L51.6231 23.4667H48.456ZM52.3562 13.6744L61.8573 13.6744C62.0528 13.6744 62.2189 13.6068 62.3558 13.4716C62.5122 13.3171 62.5904 13.1433 62.5904 12.9501V3.85317C62.5904 3.66003 62.5122 3.49586 62.3558 3.36066C62.2189 3.20615 62.0528 3.12889 61.8573 3.12889L52.3562 3.12889C52.1607 3.12889 51.9847 3.20615 51.8283 3.36066C51.6915 3.49586 51.6231 3.66003 51.6231 3.85317V12.9501C51.6231 13.1433 51.6915 13.3171 51.8283 13.4716C51.9847 13.6068 52.1607 13.6744 52.3562 13.6744Z" fill="#272727"/>
<path d="M67.8706 16.8033V3.76626C67.8706 3.07095 68.0465 2.44324 68.3984 1.88313C68.7503 1.32302 69.2097 0.869136 69.7767 0.521481C70.3632 0.173827 70.9985 0 71.6828 0L81.1839 0V3.12889L71.7707 3.12889C71.5752 3.12889 71.3993 3.20615 71.2429 3.36066C71.1061 3.49586 71.0376 3.66003 71.0376 3.85317V16.8033H67.8706Z" fill="#272727"/>
<path d="M86.917 16.8033C86.2132 16.8033 85.5779 16.6295 85.0109 16.2818C84.444 15.9342 83.9846 15.4803 83.6327 14.9202C83.2808 14.3601 83.1048 13.7323 83.1048 13.037V3.76626C83.1048 3.07095 83.2808 2.44324 83.6327 1.88313C83.9846 1.32302 84.444 0.869136 85.0109 0.521481C85.5779 0.173827 86.2132 0 86.917 0L96.5941 0C97.2978 0 97.9332 0.173827 98.5001 0.521481C99.0866 0.849822 99.546 1.3037 99.8784 1.88313C100.23 2.46255 100.406 3.09026 100.406 3.76626V9.96609L86.2719 9.96609V12.9501C86.2719 13.1433 86.3403 13.3171 86.4771 13.4716C86.6335 13.6068 86.8095 13.6744 87.005 13.6744L100.406 13.6744V16.8033L86.917 16.8033ZM86.2719 7.04L97.2099 7.04V3.85317C97.2099 3.66003 97.1414 3.49586 97.0046 3.36066C96.8678 3.20615 96.7016 3.12889 96.5061 3.12889L87.005 3.12889C86.8095 3.12889 86.6335 3.20615 86.4771 3.36066C86.3403 3.49586 86.2719 3.66003 86.2719 3.85317V7.04Z" fill="#272727"/>
<path d="M107.018 16.8033C106.314 16.8033 105.679 16.6295 105.112 16.2818C104.545 15.9342 104.086 15.4803 103.734 14.9202C103.382 14.3601 103.206 13.7323 103.206 13.037V12.6025L106.373 12.6025V12.9501C106.373 13.1433 106.441 13.3171 106.578 13.4716C106.735 13.6068 106.911 13.6744 107.106 13.6744L116.607 13.6744C116.803 13.6744 116.969 13.6068 117.106 13.4716C117.243 13.3171 117.311 13.1433 117.311 12.9501V10.6904C117.311 10.4972 117.243 10.3331 117.106 10.1979C116.969 10.0434 116.803 9.96609 116.607 9.96609L107.018 9.96609C106.314 9.96609 105.679 9.80192 105.112 9.47358C104.545 9.12593 104.086 8.67205 103.734 8.11194C103.382 7.53251 103.206 6.89515 103.206 6.19984V3.76626C103.206 3.07095 103.382 2.44324 103.734 1.88313C104.086 1.32302 104.545 0.869136 105.112 0.521481C105.679 0.173827 106.314 0 107.018 0L116.695 0C117.399 0 118.034 0.173827 118.601 0.521481C119.188 0.869136 119.647 1.32302 119.98 1.88313C120.331 2.44324 120.507 3.07095 120.507 3.76626V4.20082L117.311 4.20082V3.85317C117.311 3.66003 117.243 3.49586 117.106 3.36066C116.969 3.20615 116.803 3.12889 116.607 3.12889L107.106 3.12889C106.911 3.12889 106.735 3.20615 106.578 3.36066C106.441 3.49586 106.373 3.66003 106.373 3.85317V6.11292C106.373 6.30607 106.441 6.47989 106.578 6.63441C106.735 6.7696 106.911 6.8372 107.106 6.8372L116.695 6.8372C117.399 6.8372 118.034 7.01103 118.601 7.35869C119.188 7.68703 119.647 8.14091 119.98 8.72033C120.331 9.28044 120.507 9.90815 120.507 10.6035V13.037C120.507 13.7323 120.331 14.3601 119.98 14.9202C119.647 15.4803 119.188 15.9342 118.601 16.2818C118.034 16.6295 117.399 16.8033 116.695 16.8033H107.018Z" fill="#272727"/>
<path d="M126.723 16.8033C126.019 16.8033 125.383 16.6295 124.816 16.2818C124.25 15.9342 123.79 15.4803 123.438 14.9202C123.086 14.3601 122.91 13.7323 122.91 13.037V3.76626C122.91 3.07095 123.086 2.44324 123.438 1.88313C123.79 1.32302 124.25 0.869136 124.816 0.521481C125.383 0.173827 126.019 0 126.723 0L136.4 0C137.103 0 137.739 0.173827 138.306 0.521481C138.892 0.849822 139.352 1.3037 139.684 1.88313C140.036 2.46255 140.212 3.09026 140.212 3.76626V9.96609L126.077 9.96609V12.9501C126.077 13.1433 126.146 13.3171 126.283 13.4716C126.439 13.6068 126.615 13.6744 126.811 13.6744L140.212 13.6744V16.8033H126.723ZM126.077 7.04L137.015 7.04V3.85317C137.015 3.66003 136.947 3.49586 136.81 3.36066C136.673 3.20615 136.507 3.12889 136.312 3.12889L126.811 3.12889C126.615 3.12889 126.439 3.20615 126.283 3.36066C126.146 3.49586 126.077 3.66003 126.077 3.85317V7.04Z" fill="#272727"/>
<path d="M142.552 16.8033V16.2528L149.209 8.25679L142.552 0.550453V0L146.247 0L151.261 5.82321L156.305 0L159.971 0V0.550453L153.343 8.25679L160 16.2528V16.8033H156.305L151.261 10.6904L146.247 16.8033L142.552 16.8033Z" fill="#272727"/>
</svg>
