<svg width="16" height="16" viewBox="0 0 16 16" fill="none" xmlns="http://www.w3.org/2000/svg">
<path d="M15.7639 10.8816C15.9408 10.4604 15.4355 10.1016 15.0117 10.2888C14.1646 10.6607 13.2493 10.8519 12.3241 10.8504C8.69708 10.8504 5.75732 7.96964 5.75732 4.41545C5.75599 3.21542 6.09692 2.0399 6.74013 1.0268C6.98626 0.638534 6.69073 0.101203 6.24006 0.215602C2.76555 1.1022 0.200195 4.19792 0.200195 7.88038C0.200195 12.2544 3.81856 15.8 8.28281 15.8C11.6628 15.8 14.5575 13.7676 15.7639 10.8816Z" fill="#272727"/>
<path d="M11.3518 0.284802C10.9143 -0.00740749 10.3927 0.514278 10.684 0.951767L11.204 1.73182C11.415 2.0481 11.5276 2.41977 11.5276 2.79995C11.5276 3.18013 11.415 3.5518 11.204 3.86808L10.684 4.64814C10.3927 5.08563 10.9152 5.60731 11.3526 5.3151L12.1318 4.79507C12.448 4.58411 12.8197 4.47153 13.1998 4.47153C13.58 4.47153 13.9516 4.58411 14.2679 4.79507L15.0479 5.3151C15.4853 5.60731 16.007 5.08563 15.7148 4.64814L15.1948 3.86808C14.9838 3.5518 14.8713 3.18013 14.8713 2.79995C14.8713 2.41977 14.9838 2.0481 15.1948 1.73182L15.7148 0.951767C16.007 0.514278 15.4853 -0.00740749 15.047 0.284802L14.2679 0.804836C13.9516 1.0158 13.58 1.12837 13.1998 1.12837C12.8197 1.12837 12.448 1.0158 12.1318 0.804836L11.3518 0.284802Z" fill="#272727"/>
</svg>
