<svg width="1041" height="1041" viewBox="0 0 1041 1041" fill="none" xmlns="http://www.w3.org/2000/svg">
<path fill-rule="evenodd" clip-rule="evenodd" d="M883.58 532.123L1040.83 447.432L866.539 409.411C824.604 278.732 710.018 177.556 564.852 159.732C553.818 158.377 542.838 157.532 531.937 157.179L447.432 0.275243L409.456 174.357C278.954 216.388 177.95 330.896 160.142 475.926C158.783 486.996 157.937 498.011 157.586 508.947L0.275308 593.672L174.911 631.769C217.06 762.055 331.472 862.849 476.336 880.636C487.206 881.971 498.021 882.811 508.761 883.173L593.672 1040.83L631.814 865.985C762.277 823.932 863.243 709.442 881.047 564.442C882.377 553.609 883.216 542.828 883.58 532.123ZM883.58 532.123C885.029 489.56 878.982 448.186 866.539 409.411L641.325 360.281L531.937 157.179C489.45 155.802 448.156 161.893 409.456 174.357L360.281 399.779L157.586 508.947C156.217 551.561 162.361 592.972 174.911 631.769L399.779 680.823L508.761 883.173C551.451 884.614 592.942 878.515 631.814 865.985L680.823 641.325L883.58 532.123Z" fill="#272727"/>
</svg>
