<svg width="1440" height="9142" viewBox="0 0 1440 9142" fill="none" xmlns="http://www.w3.org/2000/svg">
  <circle opacity="0.7" cx="720" cy="8188" r="980" fill="url(#paint0_linear_496_4153)"/>
  <circle opacity="0.1" cx="500" cy="8100" r="979.5" stroke="url(#paint1_linear_496_4153)"/>
  <circle opacity="0.7" r="980" transform="matrix(-1 0 0 1 720 7285)" fill="url(#paint2_linear_496_4153)"/>
  <circle opacity="0.1" r="979" transform="matrix(-1 0 0 1 530 7205)" stroke="url(#paint3_linear_496_4153)" stroke-width="2"/>
  <circle opacity="0.7" cx="720" cy="6469" r="980" fill="url(#paint4_linear_496_4153)"/>
  <circle opacity="0.1" cx="500" cy="6381" r="979.5" stroke="url(#paint5_linear_496_4153)"/>
  <circle opacity="0.4" r="980" transform="matrix(-1 0 0 1 720 5325)" fill="url(#paint6_linear_496_4153)"/>
  <circle opacity="0.1" r="979" transform="matrix(-1 0 0 1 530 5262)" stroke="url(#paint7_linear_496_4153)" stroke-width="2"/>
  <circle opacity="0.7" r="980" transform="matrix(-1 0 0 1 728 4259)" fill="url(#paint8_linear_496_4153)"/>
  <circle opacity="0.1" r="979" transform="matrix(-1 0 0 1 530 4105)" stroke="url(#paint9_linear_496_4153)" stroke-width="2"/>
  <circle opacity="0.7" cx="728" cy="3241" r="980" fill="url(#paint10_linear_496_4153)"/>
  <circle opacity="0.1" cx="430" cy="3126" r="979.5" stroke="url(#paint11_linear_496_4153)"/>
  <path opacity="0.7" d="M-6.71106 2498.5C172.607 2696.57 431.772 2821 720 2821C1008.23 2821 1267.39 2696.57 1446.71 2498.5V1183.5C1267.39 985.429 1008.23 861 720 861C431.772 861 172.607 985.429 -6.71106 1183.5V2498.5Z" fill="url(#paint12_linear_496_4153)"/>
  <path opacity="0.1" d="M-0.334717 2308.5C168.753 2602.8 486.231 2801 850 2801C1076.95 2801 1285.88 2723.86 1452 2594.36" stroke="url(#paint13_linear_496_4153)" stroke-width="2"/>
  <path opacity="0.1" d="M145.884 -3.5C82.5463 126.195 47 271.946 47 426C47 967.239 485.761 1406 1027 1406C1176.71 1406 1318.59 1372.43 1445.5 1312.4" stroke="url(#paint14_linear_496_4153)" stroke-width="2"/>
  <circle opacity="0.7" cx="1027" cy="242" r="980" fill="url(#paint15_linear_496_4153)"/>
  <mask id="mask0_496_4153" style="mask-type:alpha" maskUnits="userSpaceOnUse" x="47" y="7" width="1396" height="1215">
  <path d="M1443 1129.58C1316.72 1188.87 1175.73 1222 1027 1222C485.761 1222 47 783.239 47 242C47 160.995 56.8281 82.2865 75.3569 7.00017L1443 7V1129.58Z" fill="#C4C4C4"/>
  </mask>
  <g mask="url(#mask0_496_4153)">
  <path opacity="0.05" d="M408.783 174.392C251.482 174.392 145.878 286.716 -1.5 396.117L-3.5 1414H1440.5V448.704C946.087 376.357 660.485 174.392 408.783 174.392Z" fill="#EB1E1E"/>
  <path opacity="0.05" d="M1440.5 8.20996C1021.01 178.961 760.25 754.419 372.669 754.419C235.458 754.419 116.206 716.074 0 662.5L-2.5 1416H1442.5L1440.5 8.20996Z" fill="#EB1E1E"/>
  <path opacity="0.05" d="M998.069 802.265C610.003 802.265 461.483 1121.12 142.886 1121.12C98.8552 1121.12 52.3998 1114.48 4 1103.04V1416H1440V908.322C1307.4 852.641 1171.67 802.265 998.069 802.265Z" fill="#EB1E1E"/>
  </g>
  <defs>
  <linearGradient id="paint0_linear_496_4153" x1="636" y1="8591.5" x2="-453.5" y2="9681" gradientUnits="userSpaceOnUse">
  <stop stop-color="#911EEB" stop-opacity="0"/>
  <stop offset="0.0001" stop-color="#EB1E1E" stop-opacity="0"/>
  <stop offset="1" stop-color="#EB1E1E"/>
  </linearGradient>
  <linearGradient id="paint1_linear_496_4153" x1="500" y1="7780" x2="500" y2="9080" gradientUnits="userSpaceOnUse">
  <stop stop-color="white" stop-opacity="0"/>
  <stop offset="1" stop-color="white"/>
  </linearGradient>
  <linearGradient id="paint2_linear_496_4153" x1="896" y1="1383.5" x2="-193.5" y2="2473" gradientUnits="userSpaceOnUse">
  <stop stop-color="#EB1E1E" stop-opacity="0"/>
  <stop offset="1" stop-color="#EB1E1E"/>
  </linearGradient>
  <linearGradient id="paint3_linear_496_4153" x1="980" y1="845" x2="980" y2="1960" gradientUnits="userSpaceOnUse">
  <stop stop-color="white" stop-opacity="0"/>
  <stop offset="1" stop-color="white"/>
  </linearGradient>
  <linearGradient id="paint4_linear_496_4153" x1="636" y1="6872.5" x2="-453.5" y2="7962" gradientUnits="userSpaceOnUse">
  <stop stop-color="#EB1E1E" stop-opacity="0"/>
  <stop offset="1" stop-color="#EB1E1E"/>
  </linearGradient>
  <linearGradient id="paint5_linear_496_4153" x1="500" y1="6061" x2="500" y2="7361" gradientUnits="userSpaceOnUse">
  <stop stop-color="white" stop-opacity="0"/>
  <stop offset="1" stop-color="white"/>
  </linearGradient>
  <linearGradient id="paint6_linear_496_4153" x1="896" y1="1383.5" x2="-193.5" y2="2473" gradientUnits="userSpaceOnUse">
  <stop stop-color="#EB1E1E" stop-opacity="0"/>
  <stop offset="1" stop-color="#EB1E1E"/>
  </linearGradient>
  <linearGradient id="paint7_linear_496_4153" x1="980" y1="845" x2="980" y2="1960" gradientUnits="userSpaceOnUse">
  <stop stop-color="white" stop-opacity="0"/>
  <stop offset="1" stop-color="white"/>
  </linearGradient>
  <linearGradient id="paint8_linear_496_4153" x1="896" y1="1383.5" x2="-193.5" y2="2473" gradientUnits="userSpaceOnUse">
  <stop stop-color="#EB1E1E" stop-opacity="0"/>
  <stop offset="1" stop-color="#EB1E1E"/>
  </linearGradient>
  <linearGradient id="paint9_linear_496_4153" x1="980" y1="845" x2="980" y2="1960" gradientUnits="userSpaceOnUse">
  <stop stop-color="white" stop-opacity="0"/>
  <stop offset="1" stop-color="white"/>
  </linearGradient>
  <linearGradient id="paint10_linear_496_4153" x1="644" y1="3644.5" x2="-445.5" y2="4734" gradientUnits="userSpaceOnUse">
  <stop stop-color="#EB1E1E" stop-opacity="0"/>
  <stop offset="1" stop-color="#EB1E1E"/>
  </linearGradient>
  <linearGradient id="paint11_linear_496_4153" x1="430" y1="2806" x2="430" y2="4106" gradientUnits="userSpaceOnUse">
  <stop stop-color="white" stop-opacity="0"/>
  <stop offset="1" stop-color="white"/>
  </linearGradient>
  <linearGradient id="paint12_linear_496_4153" x1="804" y1="2244.5" x2="1893.5" y2="3334" gradientUnits="userSpaceOnUse">
  <stop stop-color="#EB1E1E" stop-opacity="0"/>
  <stop offset="1" stop-color="#EB1E1E"/>
  </linearGradient>
  <linearGradient id="paint13_linear_496_4153" x1="850" y1="1439" x2="850" y2="2801" gradientUnits="userSpaceOnUse">
  <stop stop-color="white" stop-opacity="0"/>
  <stop offset="1" stop-color="white"/>
  </linearGradient>
  <linearGradient id="paint14_linear_496_4153" x1="1027" y1="-554" x2="1027" y2="1406" gradientUnits="userSpaceOnUse">
  <stop stop-color="white" stop-opacity="0"/>
  <stop offset="1" stop-color="white"/>
  </linearGradient>
  <linearGradient id="paint15_linear_496_4153" x1="943" y1="645.5" x2="-146.5" y2="1735" gradientUnits="userSpaceOnUse">
  <stop stop-color="#EB1E81" stop-opacity="0"/>
  <stop offset="0.0001" stop-color="#EB1E1E" stop-opacity="0"/>
  <stop offset="1" stop-color="#EB1E1E"/>
  </linearGradient>
  </defs>
  </svg>
  