<svg width="50" height="50" viewBox="0 0 50 50" fill="none" xmlns="http://www.w3.org/2000/svg">
<g filter="url(#filter0_b_496_5002)">
<circle cx="25" cy="25" r="25" fill="url(#paint0_linear_496_5002)" fill-opacity="0.1"/>
</g>
<g opacity="0.5">
<path d="M30 15H20C17.2502 15 15 17.2493 15 20V30C15 32.7498 17.2502 35 20 35H30C32.7498 35 35 32.7498 35 30V20C35 17.2493 32.7498 15 30 15ZM25 29.1665C22.6985 29.1665 20.8333 27.3005 20.8333 25C20.8333 22.6985 22.6985 20.8333 25 20.8333C27.3005 20.8333 29.1667 22.6985 29.1667 25C29.1667 27.3005 27.3005 29.1665 25 29.1665ZM30.4167 20.8333C29.7257 20.8333 29.1667 20.2735 29.1667 19.5833C29.1667 18.893 29.7257 18.3333 30.4167 18.3333C31.1078 18.3333 31.6667 18.893 31.6667 19.5833C31.6667 20.2735 31.1078 20.8333 30.4167 20.8333Z" fill="white"/>
</g>
<defs>
<filter id="filter0_b_496_5002" x="-40" y="-40" width="130" height="130" filterUnits="userSpaceOnUse" color-interpolation-filters="sRGB">
<feFlood flood-opacity="0" result="BackgroundImageFix"/>
<feGaussianBlur in="BackgroundImage" stdDeviation="20"/>
<feComposite in2="SourceAlpha" operator="in" result="effect1_backgroundBlur_496_5002"/>
<feBlend mode="normal" in="SourceGraphic" in2="effect1_backgroundBlur_496_5002" result="shape"/>
</filter>
<linearGradient id="paint0_linear_496_5002" x1="25" y1="0" x2="25" y2="50" gradientUnits="userSpaceOnUse">
<stop stop-color="white"/>
<stop offset="1" stop-color="white" stop-opacity="0"/>
</linearGradient>
</defs>
</svg>
