<svg width="50" height="50" viewBox="0 0 50 50" fill="none" xmlns="http://www.w3.org/2000/svg">
<g filter="url(#filter0_b_496_5008)">
<circle cx="25" cy="25" r="25" fill="url(#paint0_linear_496_5008)" fill-opacity="0.1"/>
</g>
<g opacity="0.5">
<path d="M34.5002 34.5002V27.1752C34.5002 23.5752 33.7252 20.8252 29.5252 20.8252C27.5002 20.8252 26.1502 21.9252 25.6002 22.9752H25.5502V21.1502H21.5752V34.5002H25.7252V27.8752C25.7252 26.1252 26.0502 24.4502 28.2002 24.4502C30.3252 24.4502 30.3502 26.4252 30.3502 27.9752V34.4752H34.5002V34.5002Z" fill="white"/>
<path d="M14.8252 21.1499H18.9752V34.4999H14.8252V21.1499Z" fill="white"/>
<path d="M16.9 14.5C15.575 14.5 14.5 15.575 14.5 16.9C14.5 18.225 15.575 19.325 16.9 19.325C18.225 19.325 19.3 18.225 19.3 16.9C19.3 15.575 18.225 14.5 16.9 14.5Z" fill="white"/>
</g>
<defs>
<filter id="filter0_b_496_5008" x="-40" y="-40" width="130" height="130" filterUnits="userSpaceOnUse" color-interpolation-filters="sRGB">
<feFlood flood-opacity="0" result="BackgroundImageFix"/>
<feGaussianBlur in="BackgroundImage" stdDeviation="20"/>
<feComposite in2="SourceAlpha" operator="in" result="effect1_backgroundBlur_496_5008"/>
<feBlend mode="normal" in="SourceGraphic" in2="effect1_backgroundBlur_496_5008" result="shape"/>
</filter>
<linearGradient id="paint0_linear_496_5008" x1="25" y1="0" x2="25" y2="50" gradientUnits="userSpaceOnUse">
<stop stop-color="white"/>
<stop offset="1" stop-color="white" stop-opacity="0"/>
</linearGradient>
</defs>
</svg>
