<svg width="230" height="94" viewBox="0 0 230 94" fill="none" xmlns="http://www.w3.org/2000/svg">
<g clip-path="url(#clip0_496_4199)">
<path d="M59.2397 91.9799L51.7928 90.333C43.3387 88.4685 37.5094 79.8299 38.0587 69.7307C38.0587 69.5132 38.0893 69.2956 38.0893 69.0781L45.5362 70.7251C45.5362 70.9426 45.5057 71.1601 45.5057 71.3776C44.9563 81.4768 50.7857 90.1155 59.2397 91.9799Z" fill="#570F06"/>
<path d="M53.8375 77.064L46.3906 75.4171C49.9004 76.1939 53.3187 74.951 56.0655 72.4961L63.5124 74.143C60.7656 76.5979 57.3779 77.8409 53.8375 77.064Z" fill="#570F06"/>
<path d="M63.5124 74.1432L56.0654 72.4962C57.4083 71.2843 58.5986 69.7928 59.5752 68.1147L67.0222 69.7617C66.0455 71.4397 64.8552 72.9313 63.5124 74.1432Z" fill="#570F06"/>
<path d="M67.0225 69.7616L59.5756 68.1147C61.6204 64.5722 62.6886 60.1907 62.2613 55.7782C60.949 42.4162 45.4447 29.8621 47.4591 16.438L54.906 18.0849C52.9222 31.5091 68.3959 44.0942 69.7083 57.4251C70.1355 61.8066 69.0368 66.2191 67.0225 69.7616Z" fill="#570F06"/>
<path d="M31.7409 72.1854L24.2939 70.5385C27.1323 71.1599 30.6116 70.6006 34.5792 68.27L42.0262 69.917C38.0585 72.2476 34.5792 72.838 31.7409 72.1854Z" fill="#570F06"/>
<path d="M12.2996 81.6634L4.85273 80.0164C1.43447 79.2706 -0.640905 75.3863 0.21366 71.3467L7.66058 72.9936C6.80602 77.0333 8.88139 80.8865 12.2996 81.6634Z" fill="#570F06"/>
<path d="M14.0615 6.04178L0.196289 71.3418L7.65389 72.9833L21.5191 7.68328L14.0615 6.04178Z" fill="#570F06"/>
<path d="M21.5167 7.70614L14.0698 6.05919C14.2529 5.15804 14.5887 4.31903 15.0159 3.57324L22.4629 5.22018C22.0356 5.96597 21.6999 6.7739 21.5167 7.70614Z" fill="#570F06"/>
<path d="M22.463 5.22004L15.0161 3.5731C15.4434 2.82731 15.9622 2.20582 16.5421 1.64648L23.989 3.29343C23.4092 3.82169 22.8903 4.47425 22.463 5.22004Z" fill="#570F06"/>
<path d="M23.9889 3.29364L16.542 1.6467C18.007 0.341578 19.9297 -0.27991 21.822 0.124057L29.2689 1.771C27.3767 1.36703 25.4844 1.98852 23.9889 3.29364Z" fill="#570F06"/>
<path d="M66.1981 9.91245C79.9017 12.9267 88.2337 28.4328 84.8154 44.5293L75.5983 87.9402C74.7438 91.9799 71.2645 94.6212 67.8462 93.8754L59.2395 91.9799C50.7854 90.1154 44.9561 81.4767 45.5054 71.3776C45.5054 71.16 45.536 70.9425 45.536 70.725C48.1912 74.4539 51.0601 76.4427 53.868 77.0952C62.7188 79.0529 70.7761 68.239 69.7079 57.4562C68.3956 44.0943 52.8913 31.5402 54.9056 18.1161C51.2737 31.1984 32.046 36.1081 25.4537 47.73C20.1127 57.1144 23.0731 70.321 31.8019 72.2476C34.6403 72.8691 38.1196 72.3098 42.0872 69.9792C42.0261 70.1967 41.9346 70.3832 41.843 70.6007C38.2416 80.0162 29.4213 85.4543 20.9672 83.5898L12.3605 81.6943C8.94228 80.9485 6.86691 77.0642 7.72147 73.0245L21.5166 7.70617C22.3712 3.6665 25.8505 1.02518 29.2687 1.77097L66.1981 9.91245Z" fill="#DE1C1C"/>
<path d="M95.406 36.2018V35.891C95.406 35.4249 95.5586 35.0209 95.8943 34.7102C96.2301 34.3684 96.6268 34.213 97.0541 34.213H97.2677L97.2983 34.3995C97.9087 36.1396 98.7937 37.3515 99.9535 38.0352C101.113 38.7188 102.609 39.0606 104.379 39.0606C104.959 39.0606 105.539 38.9985 106.119 38.8742C106.698 38.7499 107.217 38.5634 107.706 38.2837C108.163 38.0041 108.56 37.6312 108.865 37.1961C109.171 36.73 109.323 36.1707 109.323 35.4871C109.323 34.8034 109.201 34.213 108.957 33.6847C108.713 33.1565 108.408 32.6593 107.98 32.2553C107.584 31.8514 107.126 31.4474 106.607 31.1056C106.088 30.7637 105.569 30.4219 105.081 30.1112L100.167 27.1591C99.4347 26.7241 98.7937 26.289 98.2139 25.7918C97.634 25.3257 97.1151 24.7975 96.6879 24.2071C96.2606 23.6166 95.9554 22.9952 95.7112 22.2804C95.4976 21.5657 95.3755 20.7889 95.3755 19.8877C95.3755 18.738 95.5891 17.6814 96.0164 16.7492C96.4437 15.817 97.0236 15.0401 97.7561 14.4186C98.4885 13.7661 99.3431 13.2999 100.32 12.9581C101.296 12.6163 102.334 12.4609 103.402 12.4609C104.532 12.4609 105.539 12.5542 106.393 12.7406C107.248 12.9271 107.95 13.1446 108.53 13.3932C109.11 13.6418 109.598 13.9525 109.964 14.2322C110.33 14.5429 110.636 14.8226 110.88 15.0712C111.307 15.5373 111.643 15.9723 111.887 16.4385C112.131 16.8735 112.284 17.3707 112.284 17.899C112.284 18.3029 112.131 18.6447 111.826 18.9555C111.521 19.2662 111.185 19.4216 110.788 19.4216H110.3L110.208 19.2352C109.598 17.6504 108.743 16.4695 107.645 15.7548C106.546 15.009 105.111 14.6672 103.402 14.6672C102.853 14.6672 102.334 14.7604 101.815 14.978C101.296 15.1955 100.808 15.4752 100.411 15.848C100.015 16.2209 99.6788 16.656 99.4042 17.1532C99.16 17.6504 99.0074 18.2097 99.0074 18.769C99.0074 19.7945 99.3126 20.6335 99.9535 21.3482C100.625 22.0318 101.724 22.8398 103.28 23.8342L108.194 26.8173C108.896 27.2213 109.537 27.6252 110.147 28.0914C110.758 28.5264 111.307 29.0236 111.765 29.5829C112.223 30.1423 112.589 30.7327 112.864 31.4163C113.138 32.0999 113.26 32.8768 113.26 33.7469C113.26 35.0209 113.047 36.1396 112.589 37.0718C112.131 38.0041 111.521 38.7809 110.727 39.4024C109.934 40.0239 109.049 40.49 108.011 40.7697C106.973 41.0494 105.874 41.2047 104.684 41.2047C103.952 41.2047 103.067 41.1426 101.998 41.0183C100.93 40.894 99.8925 40.6454 98.9158 40.2725C97.9087 39.8996 97.0846 39.4024 96.3521 38.7499C95.7723 38.0973 95.406 37.2583 95.406 36.2018Z" fill="white"/>
<path d="M115.519 45.7728V23.306C115.488 22.6534 115.244 22.1251 114.817 21.659C114.39 21.1929 113.84 20.9443 113.169 20.8822H115.794C116.343 20.8822 116.801 20.9132 117.198 21.0065C117.594 21.0686 117.93 21.1929 118.235 21.3483C118.693 21.5969 119.059 22.0319 119.365 22.6223C120.128 21.7833 120.921 21.224 121.837 20.9443C122.722 20.6646 123.698 20.5093 124.797 20.5093C126.171 20.5093 127.361 20.82 128.307 21.4415C129.253 22.063 130.016 22.8399 130.596 23.8342C131.176 24.8286 131.603 25.9162 131.847 27.1281C132.091 28.34 132.244 29.5519 132.244 30.7328C132.244 32.0068 132.091 33.2809 131.817 34.4928C131.542 35.7047 131.084 36.8233 130.474 37.7866C129.863 38.7499 129.039 39.5268 128.063 40.1172C127.056 40.7076 125.865 40.9873 124.4 40.9873C123.576 40.9873 122.783 40.8941 122.02 40.7076C121.226 40.5212 120.463 40.2726 119.731 39.9308V45.8038C119.731 46.4875 119.944 47.0468 120.402 47.5129C120.86 47.979 121.409 48.2276 122.081 48.2898H113.23C113.901 48.2276 114.451 47.979 114.909 47.5129C115.305 47.0157 115.519 46.4564 115.519 45.7728ZM119.67 37.6313C120.036 37.7866 120.372 37.942 120.677 38.0663C120.982 38.1906 121.287 38.3149 121.562 38.4081C122.081 38.6256 122.6 38.7189 123.18 38.7189C124.187 38.7189 125.011 38.4392 125.652 37.9109C126.262 37.3827 126.75 36.699 127.086 35.8911C127.422 35.0832 127.636 34.2131 127.727 33.2809C127.819 32.3486 127.88 31.4785 127.88 30.6706C127.88 29.9559 127.819 29.148 127.727 28.2157C127.636 27.2835 127.422 26.4134 127.117 25.5744C126.811 24.7354 126.384 24.0518 125.804 23.4924C125.224 22.9331 124.492 22.6534 123.546 22.6534C121.898 22.6534 120.585 23.3992 119.67 24.8908V37.6313Z" fill="white"/>
<path d="M133.282 34.9588C133.282 33.6226 133.648 32.535 134.35 31.7582C135.052 30.9813 135.968 30.3909 137.005 29.9559C138.043 29.5519 139.172 29.2722 140.393 29.1479C141.583 29.0236 142.682 28.9615 143.689 28.9615H144.635C144.635 28.2468 144.605 27.532 144.513 26.7863C144.452 26.0405 144.269 25.3568 143.994 24.7354C143.72 24.1139 143.323 23.6167 142.835 23.2127C142.316 22.8087 141.614 22.6223 140.729 22.6223C140.027 22.6223 139.355 22.7466 138.714 22.9641C138.073 23.1816 137.555 23.6167 137.188 24.2692L137.097 24.3935H136.425C135.754 24.3935 135.327 24.0828 135.082 23.4613C134.838 22.8709 134.93 22.3737 135.357 21.9387C135.693 21.5968 136.12 21.3482 136.639 21.1307C137.158 20.9443 137.707 20.7889 138.287 20.6646C138.867 20.5714 139.416 20.4782 139.996 20.4471C140.576 20.416 141.064 20.416 141.522 20.416C142.926 20.416 144.116 20.6335 145.032 21.0375C145.978 21.4415 146.711 22.0319 147.26 22.8087C147.809 23.5856 148.206 24.4868 148.42 25.5744C148.633 26.662 148.755 27.8739 148.755 29.179V37.942C148.755 38.6256 148.969 39.1849 149.427 39.6511C149.885 40.1172 150.434 40.3658 151.106 40.3968H148.45C147.779 40.3968 147.168 40.2415 146.589 39.9307C146.009 39.62 145.49 39.216 145.063 38.6878C144.177 39.4646 143.292 39.9929 142.377 40.3036C141.461 40.6144 140.423 40.8008 139.294 40.8008C138.379 40.8008 137.494 40.6144 136.639 40.2104C135.51 39.7754 134.655 39.0917 134.075 38.1284C133.556 37.2894 133.282 36.2018 133.282 34.9588ZM138.592 37.6312C139.355 38.2527 140.179 38.5635 141.125 38.5635C141.919 38.5635 142.59 38.377 143.17 37.973C143.72 37.538 144.208 36.9787 144.666 36.3261V31.2299H143.72C143.14 31.2299 142.499 31.292 141.797 31.3853C141.095 31.4785 140.423 31.696 139.813 31.9446C139.203 32.2243 138.684 32.5972 138.257 33.0944C137.829 33.5916 137.616 34.213 137.616 34.9899C137.616 36.0775 137.951 36.9787 138.592 37.6312Z" fill="white"/>
<path d="M151.289 30.7014C151.289 29.4274 151.441 28.1533 151.716 26.9725C151.991 25.7606 152.448 24.673 153.059 23.7097C153.669 22.7464 154.493 21.9695 155.47 21.3791C156.477 20.7887 157.667 20.509 159.132 20.509C160.841 20.509 162.398 20.8508 163.832 21.5656V15.4128C163.771 14.7913 163.527 14.2941 163.1 13.8591C162.673 13.4551 162.154 13.2376 161.543 13.2065H164.168C165.206 13.2065 165.999 13.3308 166.457 13.6105C167.006 13.8591 167.403 14.3874 167.678 15.1642C167.892 15.8168 167.983 16.8733 167.983 18.3338V38.035C167.983 38.7186 168.197 39.278 168.655 39.7441C169.112 40.2102 169.662 40.4588 170.333 40.4899H167.678C167.006 40.4899 166.396 40.3345 165.816 40.0237C165.236 39.713 164.717 39.309 164.29 38.7808C163.436 39.5887 162.612 40.117 161.726 40.4277C160.872 40.7384 159.865 40.8938 158.735 40.8938C157.362 40.8938 156.172 40.5831 155.226 39.9616C154.28 39.3401 153.517 38.5322 152.937 37.5378C152.357 36.5434 151.929 35.4247 151.685 34.2439C151.411 33.0941 151.289 31.8822 151.289 30.7014ZM159.926 38.7497C160.445 38.7497 160.872 38.7186 161.238 38.6254C161.604 38.5322 161.91 38.4079 162.215 38.2214C162.489 38.035 162.764 37.8175 163.008 37.5378C163.252 37.2581 163.527 36.9163 163.832 36.5123V23.7718C163.466 23.6165 163.13 23.4611 162.825 23.3368C162.52 23.2125 162.215 23.0882 161.94 22.995C161.421 22.7775 160.902 22.6842 160.353 22.6842C159.315 22.6842 158.522 22.9639 157.881 23.4922C157.271 24.0204 156.782 24.7041 156.446 25.4809C156.111 26.2889 155.867 27.1589 155.775 28.0912C155.683 29.0545 155.622 29.9246 155.622 30.7014C155.622 31.4161 155.683 32.2241 155.775 33.1563C155.867 34.0885 156.08 34.9586 156.385 35.7976C156.691 36.6366 157.118 37.3203 157.698 37.8796C158.247 38.47 159.01 38.7497 159.926 38.7497Z" fill="white"/>
<path d="M178.818 20.5093C181.686 20.5093 183.762 21.3483 185.105 22.9952C186.417 24.6422 187.089 26.8795 187.089 29.7073L186.997 31.6028H174.911C174.942 32.4108 175.033 33.2187 175.216 34.0888C175.399 34.9589 175.674 35.7047 176.071 36.4194C176.468 37.103 176.986 37.6623 177.627 38.1285C178.268 38.5635 179.062 38.781 180.008 38.781C181.229 38.781 182.266 38.5013 183.09 37.942C183.914 37.3827 184.677 36.6369 185.379 35.6425L186.783 36.3261L186.661 36.5437C185.776 38.0042 184.769 39.1228 183.579 39.8375C182.419 40.5833 180.954 40.9251 179.245 40.9251C177.78 40.9251 176.498 40.6455 175.399 40.0861C174.331 39.5268 173.416 38.781 172.683 37.8488C171.951 36.9166 171.432 35.829 171.096 34.586C170.76 33.343 170.577 32.0379 170.577 30.7017C170.577 29.4276 170.76 28.1536 171.096 26.9417C171.432 25.7298 171.951 24.6422 172.622 23.6789C173.293 22.7156 174.148 21.9698 175.186 21.3794C176.223 20.7889 177.444 20.5093 178.818 20.5093ZM174.911 29.4276H182.724C182.724 28.7751 182.694 28.0604 182.602 27.2835C182.511 26.4756 182.327 25.7608 182.053 25.0772C181.778 24.3936 181.381 23.8342 180.893 23.3681C180.374 22.902 179.703 22.6845 178.848 22.6845C178.085 22.6845 177.475 22.9331 176.986 23.3992C176.498 23.8653 176.101 24.4557 175.827 25.1704C175.552 25.8851 175.338 26.5999 175.186 27.3767C175.033 28.1225 174.942 28.8061 174.911 29.4276Z" fill="white"/>
<path d="M195.055 20.5093C198.076 20.5093 200.121 21.0686 201.25 22.2184C201.616 22.5913 201.708 23.0263 201.555 23.5546C201.342 24.0828 201.006 24.3625 200.518 24.4246L200.121 24.4557L199.999 24.3625C199.48 23.7099 198.87 23.2749 198.168 23.0263C197.466 22.7777 196.703 22.6534 195.879 22.6534C195.482 22.6534 195.055 22.6845 194.627 22.7777C194.169 22.8399 193.773 22.9952 193.406 23.1817C193.04 23.3681 192.735 23.6478 192.491 23.9585C192.247 24.2693 192.125 24.7043 192.125 25.2326C192.125 26.5066 193.132 27.5632 195.146 28.4022L197.527 29.4276C198.229 29.7073 198.87 30.018 199.51 30.3599C200.151 30.7017 200.701 31.1056 201.22 31.5718C201.738 32.0379 202.135 32.5661 202.44 33.1876C202.746 33.8091 202.898 34.5238 202.898 35.3939C202.898 36.4194 202.685 37.2584 202.257 37.9731C201.83 38.6878 201.25 39.2471 200.548 39.6822C199.846 40.1172 199.053 40.459 198.198 40.6455C197.344 40.8319 196.489 40.9562 195.634 40.9562C192.491 40.9562 190.385 40.3969 189.286 39.2471C188.92 38.8742 188.828 38.4081 188.981 37.8799C189.195 37.3516 189.561 37.0719 190.049 37.0098L190.446 36.9166L190.538 37.0408C191.056 37.7245 191.697 38.1595 192.491 38.4081C193.284 38.6256 194.078 38.7499 194.871 38.7499C195.299 38.7499 195.726 38.7189 196.214 38.6567C196.672 38.5946 197.13 38.4703 197.557 38.2838C197.984 38.0974 198.32 37.8488 198.595 37.507C198.87 37.1651 198.992 36.7301 198.992 36.1708C198.992 35.7047 198.87 35.3007 198.656 34.9589C198.442 34.617 198.137 34.3063 197.801 34.0266C197.466 33.747 197.099 33.4984 196.703 33.2808C196.306 33.0633 195.94 32.908 195.573 32.7837L193.193 31.7582C192.521 31.5096 191.911 31.2299 191.301 30.8881C190.69 30.5463 190.171 30.1423 189.713 29.7073C189.256 29.2412 188.889 28.7129 188.645 28.0914C188.371 27.4699 188.249 26.7863 188.249 26.0094C188.249 25.0151 188.432 24.1761 188.828 23.4924C189.225 22.7777 189.744 22.2184 190.385 21.7833C191.026 21.3483 191.758 21.0065 192.582 20.82C193.376 20.6025 194.23 20.5093 195.055 20.5093Z" fill="white"/>
<path d="M97.6645 79.1155V56.6487C97.634 55.9962 97.3898 55.4679 96.9625 55.0018C96.5353 54.5357 95.9859 54.2871 95.3145 54.2249H97.9392C98.4886 54.2249 98.9464 54.256 99.3431 54.3492C99.7399 54.4114 100.076 54.5357 100.381 54.6911C100.839 54.9397 101.205 55.3747 101.51 55.9651C102.273 55.1261 103.067 54.5668 103.982 54.2871C104.867 54.0074 105.844 53.8521 106.943 53.8521C108.316 53.8521 109.506 54.1628 110.452 54.7843C111.399 55.4058 112.162 56.1826 112.741 57.177C113.321 58.1714 113.749 59.259 113.993 60.4709C114.237 61.6828 114.39 62.8947 114.39 64.0755C114.39 65.3496 114.237 66.6236 113.962 67.8355C113.688 69.0474 113.23 70.1661 112.619 71.1294C112.009 72.0927 111.185 72.8696 110.208 73.46C109.201 74.0504 108.011 74.3301 106.546 74.3301C105.722 74.3301 104.928 74.2368 104.165 74.0504C103.372 73.8639 102.609 73.6153 101.876 73.2735V79.1466C101.876 79.8302 102.09 80.3896 102.548 80.8557C103.006 81.3218 103.555 81.5704 104.226 81.6325H95.3755C96.0469 81.5704 96.5963 81.3218 97.0541 80.8557C97.4509 80.3585 97.6645 79.7991 97.6645 79.1155ZM101.815 70.974C102.181 71.1294 102.517 71.2848 102.822 71.4091C103.128 71.5334 103.433 71.6577 103.707 71.7509C104.226 71.9684 104.745 72.0616 105.325 72.0616C106.332 72.0616 107.156 71.782 107.797 71.2537C108.408 70.7254 108.896 70.0418 109.232 69.2339C109.567 68.4259 109.781 67.5558 109.873 66.6236C109.964 65.6914 110.025 64.8213 110.025 64.0134C110.025 63.2987 109.964 62.4907 109.873 61.5585C109.781 60.6263 109.567 59.7562 109.262 58.9172C108.957 58.0782 108.53 57.3945 107.95 56.8352C107.37 56.2758 106.637 55.9962 105.691 55.9962C104.043 55.9962 102.731 56.742 101.815 58.2335V70.974Z" fill="white"/>
<path d="M115.427 68.3016C115.427 66.9654 115.793 65.8778 116.495 65.1009C117.228 64.3241 118.113 63.7337 119.151 63.2986C120.188 62.8947 121.318 62.615 122.538 62.4907C123.729 62.3664 124.827 62.3042 125.835 62.3042H126.781C126.781 61.5895 126.75 60.8748 126.659 60.129C126.598 59.3833 126.414 58.6996 126.14 58.0781C125.865 57.4566 125.468 56.9594 124.98 56.5555C124.461 56.1515 123.759 55.9651 122.874 55.9651C122.172 55.9651 121.501 56.0894 120.86 56.3069C120.219 56.5244 119.7 56.9594 119.334 57.612L119.242 57.7363H118.571C117.899 57.7363 117.472 57.4256 117.228 56.8041C116.984 56.2137 117.075 55.7165 117.503 55.2814C117.838 54.9396 118.266 54.691 118.784 54.4735C119.303 54.2871 119.853 54.1317 120.433 54.0074C121.012 53.9142 121.562 53.8209 122.142 53.7899C122.722 53.7588 123.21 53.7588 123.668 53.7588C125.072 53.7588 126.262 53.9763 127.177 54.3803C128.124 54.7842 128.856 55.3747 129.405 56.1515C129.955 56.9284 130.352 57.8295 130.565 58.9171C130.779 60.0047 130.901 61.2166 130.901 62.5218V71.2847C130.901 71.9684 131.115 72.5277 131.572 72.9938C132.03 73.4599 132.58 73.7085 133.251 73.7396H130.626C129.955 73.7396 129.344 73.5842 128.765 73.2735C128.185 72.9628 127.666 72.5588 127.239 72.0305C126.353 72.8074 125.468 73.3356 124.553 73.6464C123.637 73.9571 122.599 74.1436 121.47 74.1436C120.555 74.1436 119.67 73.9571 118.815 73.5532C117.686 73.1181 116.831 72.4345 116.251 71.4712C115.702 70.6322 115.427 69.5446 115.427 68.3016ZM120.738 70.974C121.501 71.5955 122.325 71.9062 123.271 71.9062C124.064 71.9062 124.736 71.7198 125.316 71.3158C125.865 70.8808 126.353 70.3214 126.811 69.6689V64.5727H125.865C125.285 64.5727 124.644 64.6348 123.942 64.728C123.24 64.8213 122.569 65.0388 121.959 65.2874C121.348 65.5671 120.829 65.9399 120.402 66.4371C119.975 66.9343 119.761 67.5558 119.761 68.3327C119.731 69.4203 120.066 70.3214 120.738 70.974Z" fill="white"/>
<path d="M136.669 71.4093V56.6178C136.639 55.9653 136.395 55.437 135.937 55.002C135.479 54.5669 134.93 54.3183 134.319 54.2562H136.944C137.493 54.2562 137.951 54.2873 138.348 54.3805C138.745 54.4426 139.08 54.5669 139.386 54.7223C139.843 54.9709 140.21 55.4059 140.515 55.9964C141.125 55.2506 141.827 54.7223 142.682 54.3805C143.536 54.0387 144.422 53.8833 145.337 53.8833C146.497 53.8833 147.351 54.1008 147.87 54.5359H147.901C148.42 54.9709 148.664 55.5302 148.664 56.1828C148.664 56.9286 148.389 57.4879 147.809 57.923L147.443 58.2026L147.26 57.9851C146.985 57.519 146.558 57.2393 145.948 57.084C145.337 56.9597 144.818 56.8664 144.33 56.8664C143.628 56.8664 142.987 57.0218 142.346 57.3326C141.705 57.6433 141.217 58.1094 140.82 58.6998V71.4403C140.82 72.124 141.034 72.6833 141.492 73.1494C141.949 73.6155 142.499 73.8641 143.17 73.8952H134.319C134.991 73.8641 135.54 73.6155 135.998 73.1494C136.425 72.6522 136.669 72.0618 136.669 71.4093Z" fill="white"/>
<path d="M149.274 56.4313V54.225H152.082V52.112C152.082 51.2419 152.356 50.465 152.936 49.7192L153.119 49.5017C153.852 48.6006 154.768 48.1655 155.927 48.1655H158.583C157.911 48.1966 157.362 48.4452 156.904 48.9113C156.446 49.3774 156.233 49.9678 156.233 50.6204V54.194H161.024V56.4002H156.233V68.7057C156.233 70.9431 157.057 72.0617 158.705 72.0617C159.315 72.0617 159.803 71.9996 160.231 71.9064C160.627 71.8131 161.085 71.5956 161.604 71.2849L161.818 71.1606L161.94 71.4402C162.092 71.751 162.123 72.0307 162.001 72.3414C161.909 72.6211 161.696 72.8697 161.451 73.0872C160.841 73.5533 160.17 73.864 159.376 74.0194C158.583 74.1748 157.85 74.268 157.118 74.268C155.378 74.268 154.096 73.7708 153.272 72.7764C152.448 71.7821 152.051 70.4148 152.051 68.7057V56.4002H149.274V56.4313Z" fill="white"/>
<path d="M164.9 71.4401V56.5866C164.87 55.934 164.626 55.4058 164.168 54.9707C163.71 54.5357 163.161 54.2871 162.55 54.2249H165.175C165.694 54.2249 166.152 54.256 166.518 54.3492C166.915 54.4114 167.25 54.5357 167.556 54.6911C168.044 54.9707 168.41 55.3436 168.685 55.7787C170.211 54.5046 171.951 53.8521 173.934 53.8521C176.406 53.8521 178.207 54.5046 179.336 55.8097C180.466 57.1149 181.015 58.9793 181.015 61.4342V71.4091C181.015 72.0927 181.229 72.652 181.686 73.1182C182.144 73.5843 182.694 73.8329 183.365 73.8639H174.514C175.186 73.8329 175.735 73.5843 176.193 73.1182C176.651 72.652 176.864 72.0616 176.864 71.4091V61.4342C176.864 60.7195 176.803 60.0669 176.651 59.4454C176.529 58.8239 176.284 58.2646 175.949 57.7985C175.613 57.3324 175.186 56.9595 174.697 56.6798C174.178 56.4001 173.538 56.2759 172.744 56.2759C171.462 56.2759 170.211 56.9284 169.051 58.2646V71.4401C169.051 72.1238 169.265 72.6831 169.723 73.1492C170.18 73.6153 170.73 73.8639 171.401 73.895H162.55C163.191 73.8639 163.71 73.6153 164.168 73.1492C164.626 72.6831 164.87 72.1238 164.9 71.4401Z" fill="white"/>
<path d="M191.697 53.8521C194.566 53.8521 196.641 54.6911 197.984 56.338C199.297 57.9849 199.968 60.2223 199.968 63.0501L199.876 64.9456H187.79C187.821 65.7535 187.912 66.5615 188.096 67.4316C188.279 68.3016 188.553 69.0474 188.95 69.7621C189.347 70.4458 189.866 71.0051 190.507 71.4712C191.148 71.9063 191.941 72.1238 192.887 72.1238C194.108 72.1238 195.146 71.8441 195.97 71.2848C196.794 70.7254 197.557 69.9797 198.259 68.9853L199.663 69.6689L199.541 69.8864C198.656 71.3469 197.648 72.4656 196.458 73.1803C195.298 73.9261 193.833 74.2679 192.124 74.2679C190.659 74.2679 189.377 73.9882 188.279 73.4289C187.211 72.8696 186.295 72.1238 185.562 71.1916C184.83 70.2593 184.311 69.1717 183.975 67.9287C183.64 66.6858 183.457 65.3806 183.457 64.0444C183.457 62.7704 183.64 61.4963 183.975 60.2844C184.311 59.0725 184.83 57.9849 185.501 57.0216C186.173 56.0583 187.027 55.3125 188.065 54.7221C189.103 54.1317 190.324 53.8521 191.697 53.8521ZM187.79 62.7704H195.604C195.604 62.1178 195.573 61.4031 195.481 60.6263C195.39 59.8183 195.207 59.1036 194.932 58.42C194.657 57.7363 194.261 57.177 193.772 56.7109C193.254 56.2448 192.582 56.0273 191.728 56.0273C190.965 56.0273 190.354 56.2759 189.866 56.742C189.377 57.2081 188.981 57.7985 188.706 58.5132C188.431 59.2279 188.218 59.9426 188.065 60.7195C187.882 61.4653 187.821 62.1489 187.79 62.7704Z" fill="white"/>
<path d="M202.532 71.4093V56.6178C202.501 55.9653 202.257 55.437 201.799 55.002C201.341 54.5669 200.792 54.3183 200.182 54.2562H202.806C203.356 54.2562 203.814 54.2873 204.21 54.3805C204.607 54.4426 204.943 54.5669 205.248 54.7223C205.706 54.9709 206.072 55.4059 206.377 55.9964C206.988 55.2506 207.69 54.7223 208.544 54.3805C209.399 54.0387 210.284 53.8833 211.199 53.8833C212.359 53.8833 213.214 54.1008 213.733 54.5359H213.763C214.282 54.9709 214.526 55.5302 214.526 56.1828C214.526 56.9286 214.251 57.4879 213.672 57.923L213.305 58.2026L213.122 57.9851C212.848 57.519 212.42 57.2393 211.81 57.084C211.199 56.9597 210.681 56.8664 210.192 56.8664C209.49 56.8664 208.849 57.0218 208.208 57.3326C207.568 57.6433 207.079 58.1094 206.682 58.6998V71.4403C206.682 72.124 206.896 72.6833 207.354 73.1494C207.812 73.6155 208.361 73.8641 209.032 73.8952H200.182C200.853 73.8641 201.402 73.6155 201.86 73.1494C202.318 72.6522 202.532 72.0618 202.532 71.4093Z" fill="white"/>
<path d="M222.156 53.8521C225.178 53.8521 227.222 54.4114 228.352 55.5611C228.718 55.934 228.81 56.3691 228.657 56.8973C228.443 57.4256 228.108 57.7053 227.619 57.7674L227.222 57.7985L227.1 57.7053C226.582 57.0527 225.971 56.6177 225.269 56.3691C224.567 56.1205 223.804 55.9962 222.98 55.9962C222.583 55.9962 222.156 56.0273 221.729 56.1205C221.271 56.1826 220.874 56.338 220.508 56.5244C220.142 56.7109 219.837 56.9906 219.592 57.3013C219.348 57.612 219.226 58.0471 219.226 58.5754C219.226 59.8494 220.233 60.9059 222.248 61.7449L224.628 62.7704C225.33 63.0501 225.971 63.3608 226.612 63.7026C227.253 64.0444 227.802 64.4484 228.321 64.9145C228.84 65.3806 229.237 65.9089 229.542 66.5304C229.847 67.1519 230 67.8666 230 68.7367C230 69.7621 229.786 70.6011 229.359 71.3158C228.932 72.0306 228.352 72.5899 227.65 73.0249C226.948 73.46 226.154 73.8018 225.3 73.9882C224.445 74.1747 223.591 74.299 222.736 74.299C219.592 74.299 217.487 73.7396 216.388 72.5899C216.022 72.217 215.93 71.7509 216.083 71.2226C216.296 70.6944 216.662 70.4147 217.151 70.3525L217.548 70.2593L217.639 70.3836C218.158 71.0672 218.799 71.5023 219.592 71.7509C220.386 71.9684 221.179 72.0927 221.973 72.0927C222.4 72.0927 222.828 72.0616 223.316 71.9995C223.774 71.9373 224.231 71.813 224.659 71.6266C225.086 71.4401 225.422 71.1915 225.696 70.8497C225.971 70.5079 226.093 70.0729 226.093 69.5135C226.093 69.0474 225.971 68.6434 225.757 68.3016C225.544 67.9598 225.239 67.6491 224.903 67.3694C224.567 67.0897 224.201 66.8411 223.804 66.6236C223.407 66.4061 223.041 66.2507 222.675 66.1264L220.294 65.101C219.623 64.8524 219.013 64.5727 218.402 64.2309C217.792 63.8891 217.273 63.4851 216.815 63.0501C216.357 62.5839 215.991 62.0557 215.747 61.4342C215.472 60.8127 215.35 60.1291 215.35 59.3522C215.35 58.3578 215.533 57.5188 215.93 56.8352C216.327 56.1205 216.846 55.5611 217.487 55.1261C218.127 54.6911 218.86 54.3492 219.684 54.1628C220.477 53.9453 221.302 53.8521 222.156 53.8521Z" fill="white"/>
</g>
<defs>
<clipPath id="clip0_496_4199">
<rect width="230" height="94" fill="white"/>
</clipPath>
</defs>
</svg>
