<svg width="130" height="105" viewBox="0 0 130 105" fill="none" xmlns="http://www.w3.org/2000/svg">
<rect width="5" height="5" fill="#483B3B"/>
<rect y="25" width="5" height="5" fill="#483B3B"/>
<rect y="50" width="5" height="5" fill="#483B3B"/>
<rect y="75" width="5" height="5" fill="#483B3B"/>
<rect y="100" width="5" height="5" fill="#483B3B"/>
<rect x="25" width="5" height="5" fill="#EB1E1E"/>
<rect x="25" y="25" width="5" height="5" fill="#483B3B"/>
<rect x="25" y="50" width="5" height="5" fill="#483B3B"/>
<rect x="25" y="75" width="5" height="5" fill="#EB1E1E"/>
<rect x="25" y="100" width="5" height="5" fill="#483B3B"/>
<rect x="50" width="5" height="5" fill="#483B3B"/>
<rect x="50" y="25" width="5" height="5" fill="#483B3B"/>
<rect x="50" y="50" width="5" height="5" fill="#483B3B"/>
<rect x="50" y="75" width="5" height="5" fill="#483B3B"/>
<rect x="50" y="100" width="5" height="5" fill="#483B3B"/>
<rect x="75" width="5" height="5" fill="#483B3B"/>
<rect x="75" y="25" width="5" height="5" fill="#483B3B"/>
<rect x="75" y="50" width="5" height="5" fill="#483B3B"/>
<rect x="75" y="75" width="5" height="5" fill="#483B3B"/>
<rect x="75" y="100" width="5" height="5" fill="#483B3B"/>
<rect x="100" width="5" height="5" fill="#483B3B"/>
<rect x="100" y="25" width="5" height="5" fill="#EB1E1E"/>
<rect x="100" y="50" width="5" height="5" fill="#483B3B"/>
<rect x="100" y="75" width="5" height="5" fill="#483B3B"/>
<rect x="100" y="100" width="5" height="5" fill="#EB1E1E"/>
<rect x="125" width="5" height="5" fill="#483B3B"/>
<rect x="125" y="25" width="5" height="5" fill="#483B3B"/>
<rect x="125" y="50" width="5" height="5" fill="#483B3B"/>
<rect x="125" y="75" width="5" height="5" fill="#483B3B"/>
<rect x="125" y="100" width="5" height="5" fill="#483B3B"/>
</svg>
