<svg width="424" height="58" viewBox="0 0 424 58" fill="none" xmlns="http://www.w3.org/2000/svg">
<path fill-rule="evenodd" clip-rule="evenodd" d="M201.135 0.148007C174.787 1.36124 124.196 12.5141 76.6085 27.6002C72.771 28.8169 67.7154 30.4206 65.3739 31.1642C33.7995 41.1915 16.8185 47.515 4.93236 53.6723C0.293545 56.0755 -0.104986 56.3668 0.0177661 57.2647C0.197046 58.575 0.951773 58.3726 9.55935 54.7062C18.4664 50.9124 26.4498 48.1576 48.3446 41.3231C121.522 18.4806 155.701 10.1065 194.039 5.62742C201.552 4.74958 213.552 4.90246 213.552 5.87584C213.552 7.17605 206.026 11.6103 188.599 20.5768C167.161 31.6079 154.11 38.9253 152.955 40.5626C150.98 43.3603 153.152 45.3791 157.852 45.1145C160.538 44.9633 161.148 44.8489 173.462 42.1867C208.818 34.5432 231.414 30.6639 262.038 26.9799C308.674 21.3694 338.388 19.2996 394.251 17.7698C414.324 17.2203 415.363 17.1436 419.068 15.9404C420.496 15.4766 422.201 15.0234 422.858 14.933C424.398 14.7215 424.379 14.4511 422.811 14.2516C422.128 14.1647 420.558 13.7496 419.322 13.3292C416.275 12.2926 414.255 12.2385 396.853 12.7265C338.515 14.3624 307.819 16.4544 263.339 21.8258C239.946 24.6507 229.522 26.1856 212.488 29.3137C200.843 31.4521 170.105 37.6775 165.799 38.7695C163.45 39.3653 173.648 33.7445 191.56 24.571C214.218 12.9669 218.729 9.8152 218.75 5.57548C218.774 0.794564 214.656 -0.474291 201.135 0.148007Z" fill="#EB1E1E"/>
</svg>
