<svg width="880" height="120" viewBox="0 0 880 120" fill="none" xmlns="http://www.w3.org/2000/svg">
<path fill-rule="evenodd" clip-rule="evenodd" d="M417.45 0.304202C362.766 2.81435 257.766 25.8892 158.999 57.1018C151.034 59.6191 140.541 62.9372 135.682 64.4756C70.15 85.2218 34.9064 98.3048 10.237 111.044C0.609244 116.016 -0.217896 116.619 0.036873 118.477C0.408964 121.188 1.97538 120.769 19.8402 113.183C38.3264 105.334 54.8957 99.6344 100.338 85.494C252.215 38.2336 323.153 20.908 402.723 11.6409C418.316 9.82471 443.221 10.141 443.221 12.1549C443.221 14.845 427.6 24.0193 391.433 42.5707C346.938 65.3936 319.852 80.533 317.453 83.9206C313.354 89.7089 317.862 93.8857 327.618 93.3383C333.192 93.0255 334.458 92.7888 360.016 87.2808C433.396 71.4667 480.294 63.4406 543.853 55.8184C640.643 44.2105 702.314 39.9282 818.257 36.7632C859.919 35.6262 862.073 35.4675 869.763 32.9782C872.727 32.0186 876.267 31.0809 877.63 30.8938C880.826 30.4564 880.786 29.8967 877.532 29.4841C876.114 29.3042 872.856 28.4455 870.291 27.5757C863.967 25.431 859.774 25.319 823.657 26.3287C702.578 29.7133 638.869 34.0416 546.552 45.1548C498.001 50.9993 476.366 54.175 441.012 60.6471C416.843 65.0712 353.049 77.9514 344.112 80.2107C339.236 81.4434 360.401 69.8142 397.578 50.8346C444.604 26.826 453.966 20.3053 454.01 11.5335C454.059 1.64191 445.512 -0.983313 417.45 0.304202Z" fill="white"/>
</svg>
