<svg xmlns="http://www.w3.org/2000/svg" width="15.969" height="23.062" viewBox="0 0 15.969 23.062">
  <metadata><?xpacket begin="﻿" id="W5M0MpCehiHzreSzNTczkc9d"?>
<x:xmpmeta xmlns:x="adobe:ns:meta/" x:xmptk="Adobe XMP Core 5.6-c142 79.160924, 2017/07/13-01:06:39        ">
   <rdf:RDF xmlns:rdf="http://www.w3.org/1999/02/22-rdf-syntax-ns#">
      <rdf:Description rdf:about=""/>
   </rdf:RDF>
</x:xmpmeta>
                                                                                                    
                                                                                                    
                                                                                                    
                                                                                                    
                                                                                                    
                                                                                                    
                                                                                                    
                                                                                                    
                                                                                                    
                                                                                                    
                                                                                                    
                                                                                                    
                                                                                                    
                                                                                                    
                                                                                                    
                                                                                                    
                                                                                                    
                                                                                                    
                                                                                                    
                                                                                                    
                           
<?xpacket end="w"?></metadata>
<defs>
    <style>
      .cls-1 {
        fill: #fff;
        fill-rule: evenodd;
      }
    </style>
  </defs>
  <path id="Архивировать" class="cls-1" d="M424.292,695.153H410.86a1.267,1.267,0,1,1,0-2.533h3.017c0-.014,0-0.027,0-0.041A2.127,2.127,0,0,1,416,690.454h3.156a2.128,2.128,0,0,1,2.126,2.125c0,0.014,0,.027,0,0.041h3.017A1.267,1.267,0,1,1,424.292,695.153Zm-5.138-3.394H416a0.821,0.821,0,0,0-.821.82,0.271,0.271,0,0,0,.009.041h4.781c0-.014.008-0.026,0.008-0.041A0.821,0.821,0,0,0,419.154,691.759Zm-8.27,3.794h13.631a0.77,0.77,0,0,1,.765.843l-1.611,16.448a0.768,0.768,0,0,1-.764.694H412.494a0.768,0.768,0,0,1-.765-0.694l-1.61-16.448A0.77,0.77,0,0,1,410.884,695.553ZM422.208,712l1.46-14.911h-2.141L420.63,712h1.578Zm-4.249,0h2.055l0.9-14.911h-2.951V712Zm-0.615,0V697.09h-3.258L415.276,712h2.068Zm-4.153,0h1.469l-1.191-14.911h-1.738Z" transform="translate(-409.594 -690.469)"/>
</svg>
