<svg xmlns="http://www.w3.org/2000/svg" width="25.406" height="22.187" viewBox="0 0 25.406 22.187">
  <metadata><?xpacket begin="﻿" id="W5M0MpCehiHzreSzNTczkc9d"?>
<x:xmpmeta xmlns:x="adobe:ns:meta/" x:xmptk="Adobe XMP Core 5.6-c142 79.160924, 2017/07/13-01:06:39        ">
   <rdf:RDF xmlns:rdf="http://www.w3.org/1999/02/22-rdf-syntax-ns#">
      <rdf:Description rdf:about=""/>
   </rdf:RDF>
</x:xmpmeta>
                                                                                                    
                                                                                                    
                                                                                                    
                                                                                                    
                                                                                                    
                                                                                                    
                                                                                                    
                                                                                                    
                                                                                                    
                                                                                                    
                                                                                                    
                                                                                                    
                                                                                                    
                                                                                                    
                                                                                                    
                                                                                                    
                                                                                                    
                                                                                                    
                                                                                                    
                                                                                                    
                           
<?xpacket end="w"?></metadata>
<defs>
    <style>
      .cls-1 {
        fill: #fff;
        fill-rule: evenodd;
      }
    </style>
  </defs>
  <path id="Изменить" class="cls-1" d="M430.2,631.819l0.189,0.077v0.293a5.762,5.762,0,0,1-.1.94l-0.039.2-0.2.039c-0.261.049-.58,0.092-0.948,0.129-0.043.13-.091,0.257-0.145,0.383,0.25,0.271.459,0.515,0.623,0.726l0.126,0.164-0.105.178a5.642,5.642,0,0,1-.6.837l-0.136.155-0.195-.068c-0.256-.091-0.553-0.212-0.886-0.363-0.1.091-.207,0.177-0.316,0.259,0.081,0.362.14,0.678,0.176,0.942l0.028,0.2-0.181.1a5.606,5.606,0,0,1-.939.422l-0.2.068-0.135-.157c-0.173-.2-0.37-0.455-0.587-0.758-0.134.028-.268,0.049-0.4,0.065-0.108.347-.214,0.649-0.317,0.9l-0.077.19h-0.3a5.8,5.8,0,0,1-.934-0.1l-0.2-.039-0.038-.2c-0.049-.257-0.091-0.569-0.131-0.949-0.129-.043-0.256-0.091-0.382-0.145-0.278.257-.517,0.462-0.727,0.623l-0.164.127-0.178-.106a5.772,5.772,0,0,1-.836-0.6l-0.156-.135,0.068-.2c0.088-.249.21-0.547,0.363-0.888-0.09-.1-0.176-0.207-0.258-0.316-0.364.082-.681,0.141-0.942,0.177l-0.2.028-0.1-.181a5.74,5.74,0,0,1-.423-0.94l-0.067-.2,0.157-.135c0.2-.172.455-0.369,0.758-0.587-0.028-.133-0.05-0.268-0.066-0.4-0.351-.11-0.654-0.216-0.9-0.318l-0.194-.079,0.006-.291a5.729,5.729,0,0,1,.1-0.941l0.04-.2,0.2-.038c0.261-.049.58-0.092,0.948-0.129,0.042-.128.091-0.256,0.145-0.383-0.255-.277-0.46-0.516-0.623-0.727l-0.126-.164,0.106-.178a5.709,5.709,0,0,1,.6-0.835l0.136-.157,0.2,0.069c0.255,0.09.553,0.212,0.887,0.362,0.1-.091.207-0.177,0.315-0.257-0.081-.363-0.14-0.68-0.175-0.943l-0.028-.205,0.18-.1a5.7,5.7,0,0,1,.939-0.424l0.2-.067,0.135,0.157c0.176,0.2.372,0.459,0.588,0.758,0.133-.028.267-0.049,0.4-0.065,0.111-.355.217-0.658,0.318-0.9l0.078-.189h0.284a6.027,6.027,0,0,1,.948.1l0.205,0.039,0.038,0.205c0.049,0.261.092,0.579,0.13,0.948,0.13,0.044.258,0.092,0.382,0.146,0.271-.25.515-0.459,0.727-0.623l0.165-.127,0.178,0.106a5.807,5.807,0,0,1,.835.6l0.157,0.136-0.07.2c-0.089.254-.211,0.551-0.362,0.886,0.09,0.1.176,0.208,0.258,0.317,0.368-.083.678-0.141,0.942-0.177l0.206-.028,0.1,0.181a5.767,5.767,0,0,1,.422.94l0.067,0.2-0.157.135c-0.2.175-.458,0.372-0.757,0.587,0.027,0.134.049,0.268,0.065,0.4C429.656,631.612,429.96,631.719,430.2,631.819Zm-1.486-1.1c0.277-.194.517-0.374,0.716-0.535q-0.092-.231-0.207-0.459c-0.249.042-.543,0.1-0.877,0.181l-0.2.048-0.118-.174a3.871,3.871,0,0,0-.456-0.558l-0.147-.151,0.088-.191c0.143-.307.262-0.582,0.354-0.822-0.13-.1-0.267-0.2-0.408-0.3-0.2.163-.422,0.362-0.668,0.593l-0.153.145-0.19-.093a3.982,3.982,0,0,0-.674-0.255l-0.2-.057-0.018-.21c-0.031-.339-0.067-0.637-0.106-0.888-0.167-.025-0.335-0.042-0.5-0.051-0.09.238-.184,0.523-0.282,0.849l-0.061.2-0.209.015a4.086,4.086,0,0,0-.714.114l-0.2.051-0.121-.171c-0.194-.277-0.373-0.517-0.535-0.717q-0.234.093-.459,0.207c0.042,0.251.1,0.545,0.18,0.877l0.049,0.205-0.175.118a4.039,4.039,0,0,0-.558.455l-0.151.147-0.19-.088c-0.306-.142-0.582-0.261-0.822-0.354-0.105.132-.2,0.268-0.3,0.409,0.159,0.194.359,0.418,0.593,0.667l0.144,0.153-0.091.189a3.93,3.93,0,0,0-.256.674l-0.057.2-0.21.019c-0.339.03-.636,0.066-0.888,0.105-0.025.165-.041,0.332-0.05,0.5,0.239,0.09.524,0.185,0.848,0.282l0.2,0.061,0.015,0.21a4.087,4.087,0,0,0,.115.711l0.052,0.2-0.172.121c-0.28.2-.52,0.377-0.717,0.536a4.959,4.959,0,0,0,.207.459c0.25-.042.544-0.1,0.877-0.18l0.2-.048,0.118,0.174a4.033,4.033,0,0,0,.456.557l0.147,0.151-0.088.191c-0.144.31-.263,0.586-0.354,0.822,0.132,0.1.269,0.2,0.409,0.295,0.194-.159.418-0.358,0.668-0.594l0.153-.144,0.189,0.092a4.124,4.124,0,0,0,.674.257l0.2,0.057,0.019,0.208c0.033,0.35.068,0.643,0.106,0.888,0.166,0.025.334,0.042,0.5,0.051,0.092-.243.186-0.528,0.283-0.849l0.06-.2,0.211-.014a4.082,4.082,0,0,0,.711-0.114l0.2-.052,0.121,0.172c0.2,0.279.376,0.519,0.535,0.717a4.959,4.959,0,0,0,.459-0.207c-0.042-.252-0.1-0.546-0.179-0.877l-0.049-.2,0.174-.118a4.046,4.046,0,0,0,.557-0.456l0.151-.148,0.191,0.089c0.305,0.142.581,0.261,0.822,0.353a4.6,4.6,0,0,0,.3-0.408c-0.162-.2-0.36-0.421-0.593-0.668L428.224,634l0.092-.189a4.008,4.008,0,0,0,.256-0.675l0.057-.2,0.209-.019c0.339-.03.637-0.066,0.888-0.105,0.025-.167.042-0.335,0.051-0.5-0.237-.089-0.522-0.184-0.849-0.283l-0.2-.06-0.015-.21a4.243,4.243,0,0,0-.114-0.712l-0.053-.2Zm-4.036,4.251h0l-0.075,0a2.925,2.925,0,0,1,.074-5.85h0.077A2.926,2.926,0,0,1,424.682,634.968Zm0.019-3.717h0a0.8,0.8,0,0,0-.809.769,0.789,0.789,0,0,0,.77.812h0.02A0.791,0.791,0,0,0,424.7,631.251Zm-4.63-5.9q0.894,0.569,1.455,1a8.3,8.3,0,0,1-.558,1.416q-0.708-.063-1.751-0.255a6.877,6.877,0,0,1-.718.973q0.492,0.939.758,1.6a8.425,8.425,0,0,1-1.189.95q-0.582-.408-1.39-1.1a6.734,6.734,0,0,1-1.108.482q-0.045,1.06-.143,1.763l-0.121.03a8.527,8.527,0,0,1-1.384.2q-0.3-.642-0.655-1.642a6.778,6.778,0,0,1-1.2-.137q-0.569.9-1,1.456a8.466,8.466,0,0,1-1.416-.557q0.062-.709.256-1.752a6.764,6.764,0,0,1-.973-0.718q-0.942.492-1.6,0.758a8.306,8.306,0,0,1-.949-1.189q0.408-.582,1.1-1.389a6.786,6.786,0,0,1-.483-1.109q-1.059-.045-1.763-0.142c-0.009-.041-0.02-0.081-0.029-0.122a8.5,8.5,0,0,1-.2-1.384q0.644-.3,1.643-0.654a6.86,6.86,0,0,1,.136-1.2q-0.9-.569-1.455-1a8.348,8.348,0,0,1,.557-1.416q0.708,0.061,1.752.255a6.8,6.8,0,0,1,.718-0.973q-0.493-.94-0.758-1.6a8.306,8.306,0,0,1,1.189-.949q0.581,0.407,1.389,1.1a6.766,6.766,0,0,1,1.11-.482q0.043-1.06.142-1.762l0.121-.03a8.626,8.626,0,0,1,1.384-.2q0.3,0.644.655,1.643a6.86,6.86,0,0,1,1.2.136q0.569-.9,1-1.456a8.612,8.612,0,0,1,1.418.558c-0.043.472-.127,1.056-0.257,1.752a6.758,6.758,0,0,1,.973.717q0.94-.492,1.6-0.758a8.49,8.49,0,0,1,.949,1.189q-0.408.582-1.1,1.389a6.842,6.842,0,0,1,.482,1.11q1.06,0.043,1.763.142l0.03,0.122a8.388,8.388,0,0,1,.2,1.384q-0.642.3-1.643,0.654A6.87,6.87,0,0,1,420.071,625.348Zm-1.447-2.549a5.333,5.333,0,1,0-5.2,6.521,5.4,5.4,0,0,0,1.193-.135A5.334,5.334,0,0,0,418.624,622.8Zm-4.214,5.494a4.471,4.471,0,0,1-.989.112,4.418,4.418,0,0,1-.98-8.724,4.471,4.471,0,0,1,.989-0.112A4.418,4.418,0,0,1,414.41,628.293Zm1.842-4.952a2.9,2.9,0,1,0-2.181,3.473A2.9,2.9,0,0,0,416.252,623.341Z" transform="translate(-405 -615.563)"/>
</svg>
