<svg xmlns="http://www.w3.org/2000/svg" width="17.094" height="20.57" viewBox="0 0 17.094 20.57">
  <metadata><?xpacket begin="﻿" id="W5M0MpCehiHzreSzNTczkc9d"?>
<x:xmpmeta xmlns:x="adobe:ns:meta/" x:xmptk="Adobe XMP Core 5.6-c142 79.160924, 2017/07/13-01:06:39        ">
   <rdf:RDF xmlns:rdf="http://www.w3.org/1999/02/22-rdf-syntax-ns#">
      <rdf:Description rdf:about=""/>
   </rdf:RDF>
</x:xmpmeta>
                                                                                                    
                                                                                                    
                                                                                                    
                                                                                                    
                                                                                                    
                                                                                                    
                                                                                                    
                                                                                                    
                                                                                                    
                                                                                                    
                                                                                                    
                                                                                                    
                                                                                                    
                                                                                                    
                                                                                                    
                                                                                                    
                                                                                                    
                                                                                                    
                                                                                                    
                                                                                                    
                           
<?xpacket end="w"?></metadata>
<defs>
    <style>
      .cls-1 {
        fill: #fff;
        fill-rule: evenodd;
      }
    </style>
  </defs>
  <path id="Остановить" class="cls-1" d="M421.785,1404.92H419.98a2.94,2.94,0,0,1-2.936-2.94v-14.69a2.94,2.94,0,0,1,2.936-2.94h1.805a2.94,2.94,0,0,1,2.935,2.94v14.69A2.94,2.94,0,0,1,421.785,1404.92Zm-1.313-19.59a2.589,2.589,0,0,0-2.488,2.68v13.39a2.615,2.615,0,0,0,2.307,2.67,2.837,2.837,0,0,1-1.127-2.29v-13.84a2.749,2.749,0,0,1,1.726-2.61h-0.418Zm-8.115,19.59h-1.8a2.94,2.94,0,0,1-2.936-2.94v-14.69a2.94,2.94,0,0,1,2.936-2.94h1.8a2.941,2.941,0,0,1,2.937,2.94v14.69A2.941,2.941,0,0,1,412.357,1404.92Zm-1.312-19.59a2.589,2.589,0,0,0-2.487,2.68v13.39a2.614,2.614,0,0,0,2.306,2.67,2.834,2.834,0,0,1-1.127-2.29v-13.84a2.749,2.749,0,0,1,1.726-2.61h-0.418Z" transform="translate(-407.625 -1384.34)"/>
</svg>
