<svg width="411" height="790" viewBox="0 0 411 790" fill="none" xmlns="http://www.w3.org/2000/svg">
<path d="M213.692 722.808C124.412 688.554 60.9728 601.451 60.9728 499.408C60.9728 397.056 124.797 309.735 214.505 275.699" stroke="url(#paint0_linear_327_14)"/>
<path d="M236.746 747.163C98.9277 693.917 0.999977 558.522 0.999984 399.904C0.999991 240.805 99.522 105.07 238 52.1628" stroke="url(#paint1_linear_327_14)"/>
<path d="M259.908 45.4009C347.379 79.1781 409.531 165.068 409.531 265.691C409.531 366.618 347.001 452.724 259.112 486.286" stroke="url(#paint2_linear_327_14)"/>
<path d="M256 76.5222C316.157 76.5222 364.924 125.729 364.924 186.428C364.924 233.365 335.765 273.429 294.728 289.185" stroke="url(#paint3_linear_327_14)"/>
<path d="M233.177 509.108C173.02 509.108 124.253 459.902 124.253 399.202C124.253 352.266 153.412 312.202 194.449 296.446" stroke="url(#paint4_linear_327_14)"/>
<path d="M256 521.557C316.157 521.557 364.924 570.764 364.924 631.463C364.924 678.399 335.765 718.463 294.728 734.219" stroke="url(#paint5_linear_327_14)"/>
<path d="M305.993 182.429C308.068 182.429 309.143 183.754 309.143 185.454C309.143 187.604 307.218 189.204 304.868 191.129L299.193 195.779L299.718 198.354H311.643V195.979H302.243L306.418 192.654C308.968 190.629 311.693 188.379 311.693 185.354C311.693 182.754 309.793 180.379 305.793 180.379C303.343 180.379 300.918 181.979 299.368 183.754L301.068 185.279C302.318 183.829 304.118 182.429 305.993 182.429ZM322.639 180.379C318.664 180.379 314.939 183.654 314.939 189.429V189.779C314.939 195.554 318.664 198.829 322.639 198.829C326.614 198.829 330.339 195.554 330.339 189.779V189.429C330.339 183.654 326.614 180.379 322.639 180.379ZM322.639 182.429C325.364 182.429 327.814 184.954 327.814 189.379V189.829C327.814 194.254 325.364 196.779 322.639 196.779C319.914 196.779 317.464 194.254 317.464 189.829V189.379C317.464 184.954 319.914 182.429 322.639 182.429ZM337.56 180.579C335.56 180.579 333.71 182.204 333.71 185.104V185.279C333.71 188.154 335.56 189.804 337.56 189.804C339.535 189.804 341.41 188.154 341.41 185.279V185.104C341.41 182.204 339.535 180.579 337.56 180.579ZM345.61 193.929V194.104C345.61 196.979 347.46 198.629 349.46 198.629C351.435 198.629 353.31 196.979 353.31 194.104V193.929C353.31 191.029 351.435 189.404 349.46 189.404C347.46 189.404 345.61 191.029 345.61 193.929ZM337.485 198.354L352.185 180.854H349.535L334.835 198.354H337.485ZM349.46 191.154C350.535 191.154 351.51 192.154 351.51 193.929V194.104C351.51 195.879 350.535 196.879 349.46 196.879C348.36 196.879 347.385 195.879 347.385 194.104V193.929C347.385 192.154 348.36 191.154 349.46 191.154ZM337.56 182.329C338.635 182.329 339.61 183.329 339.61 185.104V185.279C339.61 187.054 338.635 188.054 337.56 188.054C336.46 188.054 335.485 187.054 335.485 185.279V185.104C335.485 183.329 336.46 182.329 337.56 182.329Z" fill="white"/>
<path d="M142.993 386.217C145.068 386.217 146.143 387.542 146.143 389.242C146.143 391.392 144.218 392.992 141.868 394.917L136.193 399.567L136.718 402.142H148.643V399.767H139.243L143.418 396.442C145.968 394.417 148.693 392.167 148.693 389.142C148.693 386.542 146.793 384.167 142.793 384.167C140.343 384.167 137.918 385.767 136.368 387.542L138.068 389.067C139.318 387.617 141.118 386.217 142.993 386.217ZM159.639 384.167C155.664 384.167 151.939 387.442 151.939 393.217V393.567C151.939 399.342 155.664 402.617 159.639 402.617C163.614 402.617 167.339 399.342 167.339 393.567V393.217C167.339 387.442 163.614 384.167 159.639 384.167ZM159.639 386.217C162.364 386.217 164.814 388.742 164.814 393.167V393.617C164.814 398.042 162.364 400.567 159.639 400.567C156.914 400.567 154.464 398.042 154.464 393.617V393.167C154.464 388.742 156.914 386.217 159.639 386.217ZM174.56 384.367C172.56 384.367 170.71 385.992 170.71 388.892V389.067C170.71 391.942 172.56 393.592 174.56 393.592C176.535 393.592 178.41 391.942 178.41 389.067V388.892C178.41 385.992 176.535 384.367 174.56 384.367ZM182.61 397.717V397.892C182.61 400.767 184.46 402.417 186.46 402.417C188.435 402.417 190.31 400.767 190.31 397.892V397.717C190.31 394.817 188.435 393.192 186.46 393.192C184.46 393.192 182.61 394.817 182.61 397.717ZM174.485 402.142L189.185 384.642H186.535L171.835 402.142H174.485ZM186.46 394.942C187.535 394.942 188.51 395.942 188.51 397.717V397.892C188.51 399.667 187.535 400.667 186.46 400.667C185.36 400.667 184.385 399.667 184.385 397.892V397.717C184.385 395.942 185.36 394.942 186.46 394.942ZM174.56 386.117C175.635 386.117 176.61 387.117 176.61 388.892V389.067C176.61 390.842 175.635 391.842 174.56 391.842C173.46 391.842 172.485 390.842 172.485 389.067V388.892C172.485 387.117 173.46 386.117 174.56 386.117Z" fill="white"/>
<path d="M8.41724 403.555C10.2672 405.33 12.3922 406.605 15.2172 406.605C19.0172 406.605 21.2672 403.93 21.2672 401.005C21.2672 397.555 18.3922 395.48 14.9922 395.48C14.2672 395.48 13.2922 395.53 12.5672 395.605L12.8422 390.88H21.0172V388.63H10.6172L10.0672 397.605H14.3922C17.1422 397.605 18.8172 398.905 18.8172 401.055C18.8172 403.08 17.3922 404.48 15.2172 404.48C13.1172 404.48 11.3672 403.305 9.99224 401.955L8.41724 403.555ZM27.7174 388.355C25.7174 388.355 23.8674 389.98 23.8674 392.88V393.055C23.8674 395.93 25.7174 397.58 27.7174 397.58C29.6924 397.58 31.5674 395.93 31.5674 393.055V392.88C31.5674 389.98 29.6924 388.355 27.7174 388.355ZM35.7674 401.705V401.88C35.7674 404.755 37.6174 406.405 39.6174 406.405C41.5924 406.405 43.4674 404.755 43.4674 401.88V401.705C43.4674 398.805 41.5924 397.18 39.6174 397.18C37.6174 397.18 35.7674 398.805 35.7674 401.705ZM27.6424 406.13L42.3424 388.63H39.6924L24.9924 406.13H27.6424ZM39.6174 398.93C40.6924 398.93 41.6674 399.93 41.6674 401.705V401.88C41.6674 403.655 40.6924 404.655 39.6174 404.655C38.5174 404.655 37.5424 403.655 37.5424 401.88V401.705C37.5424 399.93 38.5174 398.93 39.6174 398.93ZM27.7174 390.105C28.7924 390.105 29.7674 391.105 29.7674 392.88V393.055C29.7674 394.83 28.7924 395.83 27.7174 395.83C26.6174 395.83 25.6424 394.83 25.6424 393.055V392.88C25.6424 391.105 26.6174 390.105 27.7174 390.105Z" fill="white"/>
<path d="M74.0925 493.53L77.5675 492.93V508.205H80.0175V490.58H79.1925L74.0925 491.48V493.53ZM91.9781 490.23C88.0031 490.23 84.2781 493.505 84.2781 499.28V499.63C84.2781 505.405 88.0031 508.68 91.9781 508.68C95.9531 508.68 99.6781 505.405 99.6781 499.63V499.28C99.6781 493.505 95.9531 490.23 91.9781 490.23ZM91.9781 492.28C94.7031 492.28 97.1531 494.805 97.1531 499.23V499.68C97.1531 504.105 94.7031 506.63 91.9781 506.63C89.2531 506.63 86.8031 504.105 86.8031 499.68V499.23C86.8031 494.805 89.2531 492.28 91.9781 492.28ZM106.9 490.43C104.9 490.43 103.05 492.055 103.05 494.955V495.13C103.05 498.005 104.9 499.655 106.9 499.655C108.875 499.655 110.75 498.005 110.75 495.13V494.955C110.75 492.055 108.875 490.43 106.9 490.43ZM114.95 503.78V503.955C114.95 506.83 116.8 508.48 118.8 508.48C120.775 508.48 122.65 506.83 122.65 503.955V503.78C122.65 500.88 120.775 499.255 118.8 499.255C116.8 499.255 114.95 500.88 114.95 503.78ZM106.825 508.205L121.525 490.705H118.875L104.175 508.205H106.825ZM118.8 501.005C119.875 501.005 120.85 502.005 120.85 503.78V503.955C120.85 505.73 119.875 506.73 118.8 506.73C117.7 506.73 116.725 505.73 116.725 503.955V503.78C116.725 502.005 117.7 501.005 118.8 501.005ZM106.9 492.18C107.975 492.18 108.95 493.18 108.95 494.955V495.13C108.95 496.905 107.975 497.905 106.9 497.905C105.8 497.905 104.825 496.905 104.825 495.13V494.955C104.825 493.18 105.8 492.18 106.9 492.18Z" fill="white"/>
<path d="M305.993 624.429C308.068 624.429 309.143 625.754 309.143 627.454C309.143 629.604 307.218 631.204 304.868 633.129L299.193 637.779L299.718 640.354H311.643V637.979H302.243L306.418 634.654C308.968 632.629 311.693 630.379 311.693 627.354C311.693 624.754 309.793 622.379 305.793 622.379C303.343 622.379 300.918 623.979 299.368 625.754L301.068 627.279C302.318 625.829 304.118 624.429 305.993 624.429ZM322.639 622.379C318.664 622.379 314.939 625.654 314.939 631.429V631.779C314.939 637.554 318.664 640.829 322.639 640.829C326.614 640.829 330.339 637.554 330.339 631.779V631.429C330.339 625.654 326.614 622.379 322.639 622.379ZM322.639 624.429C325.364 624.429 327.814 626.954 327.814 631.379V631.829C327.814 636.254 325.364 638.779 322.639 638.779C319.914 638.779 317.464 636.254 317.464 631.829V631.379C317.464 626.954 319.914 624.429 322.639 624.429ZM337.56 622.579C335.56 622.579 333.71 624.204 333.71 627.104V627.279C333.71 630.154 335.56 631.804 337.56 631.804C339.535 631.804 341.41 630.154 341.41 627.279V627.104C341.41 624.204 339.535 622.579 337.56 622.579ZM345.61 635.929V636.104C345.61 638.979 347.46 640.629 349.46 640.629C351.435 640.629 353.31 638.979 353.31 636.104V635.929C353.31 633.029 351.435 631.404 349.46 631.404C347.46 631.404 345.61 633.029 345.61 635.929ZM337.485 640.354L352.185 622.854H349.535L334.835 640.354H337.485ZM349.46 633.154C350.535 633.154 351.51 634.154 351.51 635.929V636.104C351.51 637.879 350.535 638.879 349.46 638.879C348.36 638.879 347.385 637.879 347.385 636.104V635.929C347.385 634.154 348.36 633.154 349.46 633.154ZM337.56 624.329C338.635 624.329 339.61 625.329 339.61 627.104V627.279C339.61 629.054 338.635 630.054 337.56 630.054C336.46 630.054 335.485 629.054 335.485 627.279V627.104C335.485 625.329 336.46 624.329 337.56 624.329Z" fill="white"/>
<path d="M352.574 266.049L356.049 265.449V280.724H358.499V263.099H357.674L352.574 263.999V266.049ZM370.46 262.749C366.485 262.749 362.76 266.024 362.76 271.799V272.149C362.76 277.924 366.485 281.199 370.46 281.199C374.435 281.199 378.16 277.924 378.16 272.149V271.799C378.16 266.024 374.435 262.749 370.46 262.749ZM370.46 264.799C373.185 264.799 375.635 267.324 375.635 271.749V272.199C375.635 276.624 373.185 279.149 370.46 279.149C367.735 279.149 365.285 276.624 365.285 272.199V271.749C365.285 267.324 367.735 264.799 370.46 264.799ZM385.381 262.949C383.381 262.949 381.531 264.574 381.531 267.474V267.649C381.531 270.524 383.381 272.174 385.381 272.174C387.356 272.174 389.231 270.524 389.231 267.649V267.474C389.231 264.574 387.356 262.949 385.381 262.949ZM393.431 276.299V276.474C393.431 279.349 395.281 280.999 397.281 280.999C399.256 280.999 401.131 279.349 401.131 276.474V276.299C401.131 273.399 399.256 271.774 397.281 271.774C395.281 271.774 393.431 273.399 393.431 276.299ZM385.306 280.724L400.006 263.224H397.356L382.656 280.724H385.306ZM397.281 273.524C398.356 273.524 399.331 274.524 399.331 276.299V276.474C399.331 278.249 398.356 279.249 397.281 279.249C396.181 279.249 395.206 278.249 395.206 276.474V276.299C395.206 274.524 396.181 273.524 397.281 273.524ZM385.381 264.699C386.456 264.699 387.431 265.699 387.431 267.474V267.649C387.431 269.424 386.456 270.424 385.381 270.424C384.281 270.424 383.306 269.424 383.306 267.649V267.474C383.306 265.699 384.281 264.699 385.381 264.699Z" fill="white"/>
<ellipse cx="241.038" cy="58.7132" rx="56.7133" ry="56.0614" transform="rotate(90 241.038 58.7132)" fill="url(#paint6_radial_327_14)"/>
<g filter="url(#filter0_f_327_14)">
<path d="M240.531 102.163C216.231 102.163 196.531 82.4634 196.531 58.1628C196.531 33.8623 216.231 14.1628 240.531 14.1628C264.832 14.1628 284.531 33.8623 284.531 58.1628C284.531 82.4634 264.832 102.163 240.531 102.163Z" fill="url(#paint7_radial_327_14)"/>
</g>
<path d="M233.26 46.8L239.56 45.7V74H246.31V38.7H244.81L233.26 40.75V46.8Z" fill="white"/>
<ellipse cx="241.038" cy="282.958" rx="56.7133" ry="56.0614" transform="rotate(90 241.038 282.958)" fill="url(#paint8_radial_327_14)"/>
<g filter="url(#filter1_f_327_14)">
<path d="M240.531 327.163C216.231 327.163 196.531 307.463 196.531 283.163C196.531 258.862 216.231 239.163 240.531 239.163C264.832 239.163 284.531 258.862 284.531 283.163C284.531 307.463 264.832 327.163 240.531 327.163Z" fill="url(#paint9_radial_327_14)"/>
</g>
<path d="M243.15 266C246.9 266 248.8 267.9 248.8 270.35C248.8 273.7 245.65 276.75 241.45 279.8L228.55 289.05L230 296H255.3V289.4H237.95L245.55 284.15C250.6 280.6 255.7 276.2 255.7 270.2C255.7 264.85 251.45 260 242.6 260C237 260 231.65 263.5 228.25 267.35L233.05 271.7C235.55 268.75 239.2 266 243.15 266Z" fill="white"/>
<ellipse cx="241.038" cy="507.204" rx="56.7133" ry="56.0614" transform="rotate(90 241.038 507.204)" fill="url(#paint10_radial_327_14)"/>
<g filter="url(#filter2_f_327_14)">
<path d="M240.531 550.163C216.231 550.163 196.531 530.463 196.531 506.163C196.531 481.862 216.231 462.163 240.531 462.163C264.832 462.163 284.531 481.862 284.531 506.163C284.531 530.463 264.832 550.163 240.531 550.163Z" fill="url(#paint11_radial_327_14)"/>
</g>
<path d="M236.95 505H241.75C246.25 505 249.35 507.1 249.35 509.95C249.35 512.45 246.95 514.9 243.15 514.9C238.8 514.9 235.3 512.5 232.5 509.8L228 514.4C232.2 518.2 236.9 521 243.15 521C251.25 521 256.15 516.05 256.15 510.35C256.15 506.4 253.85 503.4 250.4 501.6C253.2 499.8 255.05 497.05 255.05 493.8C255.05 488.85 250.9 484 242.15 484C236.55 484 231.3 487.5 227.9 491.35L232.7 495.7C235.2 492.75 238.75 490 242.7 490C246.1 490 248.25 491.8 248.25 494.05C248.25 496.95 245.8 498.85 241.75 498.85H236.95V505Z" fill="white"/>
<ellipse cx="241.038" cy="731.45" rx="56.7133" ry="56.0614" transform="rotate(90 241.038 731.45)" fill="url(#paint12_radial_327_14)"/>
<g filter="url(#filter3_f_327_14)">
<path d="M240.531 775.163C216.231 775.163 196.531 755.463 196.531 731.163C196.531 706.862 216.231 687.163 240.531 687.163C264.832 687.163 284.531 706.862 284.531 731.163C284.531 755.463 264.832 775.163 240.531 775.163Z" fill="url(#paint13_radial_327_14)"/>
</g>
<path d="M224.5 737.45H242.55V745H249.25V737.45H254.1V731.45H249.25V709.75H241.55C241.55 709.8 241.55 709.9 241.6 709.95L241.55 709.75L224.5 731.3V737.45ZM231.75 731.45L242.55 717.8V731.45H231.75Z" fill="white"/>
<rect x="246.031" y="153.663" width="40" height="10" rx="5" transform="rotate(90 246.031 153.663)" stroke="white" stroke-opacity="0.2"/>
<rect x="246.031" y="375.663" width="40" height="10" rx="5" transform="rotate(90 246.031 375.663)" stroke="white" stroke-opacity="0.2"/>
<rect x="246.031" y="602.663" width="40" height="10" rx="5" transform="rotate(90 246.031 602.663)" stroke="white" stroke-opacity="0.2"/>
<defs>
<filter id="filter0_f_327_14" x="182.531" y="0.162842" width="116" height="116" filterUnits="userSpaceOnUse" color-interpolation-filters="sRGB">
<feFlood flood-opacity="0" result="BackgroundImageFix"/>
<feBlend mode="normal" in="SourceGraphic" in2="BackgroundImageFix" result="shape"/>
<feGaussianBlur stdDeviation="7" result="effect1_foregroundBlur_327_14"/>
</filter>
<filter id="filter1_f_327_14" x="182.531" y="225.163" width="116" height="116" filterUnits="userSpaceOnUse" color-interpolation-filters="sRGB">
<feFlood flood-opacity="0" result="BackgroundImageFix"/>
<feBlend mode="normal" in="SourceGraphic" in2="BackgroundImageFix" result="shape"/>
<feGaussianBlur stdDeviation="7" result="effect1_foregroundBlur_327_14"/>
</filter>
<filter id="filter2_f_327_14" x="182.531" y="448.163" width="116" height="116" filterUnits="userSpaceOnUse" color-interpolation-filters="sRGB">
<feFlood flood-opacity="0" result="BackgroundImageFix"/>
<feBlend mode="normal" in="SourceGraphic" in2="BackgroundImageFix" result="shape"/>
<feGaussianBlur stdDeviation="7" result="effect1_foregroundBlur_327_14"/>
</filter>
<filter id="filter3_f_327_14" x="182.531" y="673.163" width="116" height="116" filterUnits="userSpaceOnUse" color-interpolation-filters="sRGB">
<feFlood flood-opacity="0" result="BackgroundImageFix"/>
<feBlend mode="normal" in="SourceGraphic" in2="BackgroundImageFix" result="shape"/>
<feGaussianBlur stdDeviation="7" result="effect1_foregroundBlur_327_14"/>
</filter>
<linearGradient id="paint0_linear_327_14" x1="219.384" y1="499.253" x2="55.4868" y2="499.253" gradientUnits="userSpaceOnUse">
<stop stop-color="#282236"/>
<stop offset="0.510417" stop-color="#7000FF"/>
<stop offset="1" stop-color="#FF679E"/>
</linearGradient>
<linearGradient id="paint1_linear_327_14" x1="245.531" y1="399.663" x2="-7.46853" y2="399.663" gradientUnits="userSpaceOnUse">
<stop stop-color="#282236"/>
<stop offset="0.510417" stop-color="#7000FF"/>
<stop offset="1" stop-color="#FF679E"/>
</linearGradient>
<linearGradient id="paint2_linear_327_14" x1="259.112" y1="265.844" x2="409.531" y2="265.844" gradientUnits="userSpaceOnUse">
<stop stop-color="#282236"/>
<stop offset="0.640625" stop-color="#2C41FF"/>
<stop offset="1" stop-color="#50B5FF"/>
</linearGradient>
<linearGradient id="paint3_linear_327_14" x1="256" y1="182.853" x2="364.924" y2="182.853" gradientUnits="userSpaceOnUse">
<stop stop-color="#282236"/>
<stop offset="0.703125" stop-color="#07BD9C"/>
<stop offset="1" stop-color="#70FFEE"/>
</linearGradient>
<linearGradient id="paint4_linear_327_14" x1="233.178" y1="402.777" x2="124.253" y2="402.777" gradientUnits="userSpaceOnUse">
<stop stop-color="#282236"/>
<stop offset="0.640625" stop-color="#2C41FF"/>
<stop offset="1" stop-color="#50B5FF"/>
</linearGradient>
<linearGradient id="paint5_linear_327_14" x1="252.538" y1="627.888" x2="368.816" y2="627.888" gradientUnits="userSpaceOnUse">
<stop stop-color="#282236"/>
<stop offset="0.510417" stop-color="#7000FF"/>
<stop offset="1" stop-color="#FF679E"/>
</linearGradient>
<radialGradient id="paint6_radial_327_14" cx="0" cy="0" r="1" gradientUnits="userSpaceOnUse" gradientTransform="translate(241.038 58.7133) rotate(90) scale(60.0065 60.7043)">
<stop stop-color="#282236"/>
<stop offset="0.8125" stop-color="#282236"/>
<stop offset="1" stop-color="#282236" stop-opacity="0"/>
</radialGradient>
<radialGradient id="paint7_radial_327_14" cx="0" cy="0" r="1" gradientUnits="userSpaceOnUse" gradientTransform="translate(174.809 79.373) rotate(-26.2425) scale(134.475 198.308)">
<stop stop-color="#00FFF0"/>
<stop offset="0.333333" stop-color="#0033B6"/>
<stop offset="0.70793" stop-color="#0C53BD"/>
<stop offset="0.994792" stop-color="#12F4CC"/>
</radialGradient>
<radialGradient id="paint8_radial_327_14" cx="0" cy="0" r="1" gradientUnits="userSpaceOnUse" gradientTransform="translate(241.038 282.959) rotate(90) scale(60.0065 60.7043)">
<stop stop-color="#282236"/>
<stop offset="0.8125" stop-color="#282236"/>
<stop offset="1" stop-color="#282236" stop-opacity="0"/>
</radialGradient>
<radialGradient id="paint9_radial_327_14" cx="0" cy="0" r="1" gradientUnits="userSpaceOnUse" gradientTransform="translate(174.809 304.373) rotate(-26.2425) scale(134.475 198.308)">
<stop stop-color="#00FFF0"/>
<stop offset="0.333333" stop-color="#0033B6"/>
<stop offset="0.70793" stop-color="#0C53BD"/>
<stop offset="0.994792" stop-color="#12F4CC"/>
</radialGradient>
<radialGradient id="paint10_radial_327_14" cx="0" cy="0" r="1" gradientUnits="userSpaceOnUse" gradientTransform="translate(241.038 507.204) rotate(90) scale(60.0065 60.7043)">
<stop stop-color="#282236"/>
<stop offset="0.8125" stop-color="#282236"/>
<stop offset="1" stop-color="#282236" stop-opacity="0"/>
</radialGradient>
<radialGradient id="paint11_radial_327_14" cx="0" cy="0" r="1" gradientUnits="userSpaceOnUse" gradientTransform="translate(174.809 527.373) rotate(-26.2425) scale(134.475 198.308)">
<stop stop-color="#00FFF0"/>
<stop offset="0.333333" stop-color="#0033B6"/>
<stop offset="0.70793" stop-color="#0C53BD"/>
<stop offset="0.994792" stop-color="#12F4CC"/>
</radialGradient>
<radialGradient id="paint12_radial_327_14" cx="0" cy="0" r="1" gradientUnits="userSpaceOnUse" gradientTransform="translate(241.038 731.45) rotate(90) scale(60.0065 60.7043)">
<stop stop-color="#282236"/>
<stop offset="0.8125" stop-color="#282236"/>
<stop offset="1" stop-color="#282236" stop-opacity="0"/>
</radialGradient>
<radialGradient id="paint13_radial_327_14" cx="0" cy="0" r="1" gradientUnits="userSpaceOnUse" gradientTransform="translate(174.809 752.373) rotate(-26.2425) scale(134.475 198.308)">
<stop stop-color="#00FFF0"/>
<stop offset="0.333333" stop-color="#0033B6"/>
<stop offset="0.70793" stop-color="#0C53BD"/>
<stop offset="0.994792" stop-color="#12F4CC"/>
</radialGradient>
</defs>
</svg>
