<svg width="789" height="411" viewBox="0 0 789 411" fill="none" xmlns="http://www.w3.org/2000/svg">
<path d="M722.645 196.839C688.391 286.12 601.288 349.559 499.245 349.559C396.894 349.559 309.572 285.735 275.536 196.027" stroke="url(#paint0_linear_327_14)"/>
<path d="M747 173.785C693.754 311.604 558.359 409.531 399.741 409.531C240.642 409.531 104.907 311.009 52 172.531" stroke="url(#paint1_linear_327_14)"/>
<path d="M45.2381 150.624C79.0153 63.153 164.906 1.00001 265.528 1.00002C366.455 1.00003 452.561 63.5302 486.123 151.42" stroke="url(#paint2_linear_327_14)"/>
<path d="M76.3594 154.532C76.3594 94.3745 125.566 45.6073 186.266 45.6073C233.202 45.6073 273.266 74.7663 289.022 115.803" stroke="url(#paint3_linear_327_14)"/>
<path d="M508.946 177.354C508.946 237.512 459.739 286.279 399.039 286.279C352.103 286.279 312.039 257.12 296.283 216.083" stroke="url(#paint4_linear_327_14)"/>
<path d="M521.394 154.532C521.394 94.3745 570.601 45.6073 631.3 45.6073C678.236 45.6073 718.301 74.7663 734.056 115.803" stroke="url(#paint5_linear_327_14)"/>
<path d="M162.55 64.075C164.625 64.075 165.7 65.4 165.7 67.1C165.7 69.25 163.775 70.85 161.425 72.775L155.75 77.425L156.275 80H168.2V77.625H158.8L162.975 74.3C165.525 72.275 168.25 70.025 168.25 67C168.25 64.4 166.35 62.025 162.35 62.025C159.9 62.025 157.475 63.625 155.925 65.4L157.625 66.925C158.875 65.475 160.675 64.075 162.55 64.075ZM179.196 62.025C175.221 62.025 171.496 65.3 171.496 71.075V71.425C171.496 77.2 175.221 80.475 179.196 80.475C183.171 80.475 186.896 77.2 186.896 71.425V71.075C186.896 65.3 183.171 62.025 179.196 62.025ZM179.196 64.075C181.921 64.075 184.371 66.6 184.371 71.025V71.475C184.371 75.9 181.921 78.425 179.196 78.425C176.471 78.425 174.021 75.9 174.021 71.475V71.025C174.021 66.6 176.471 64.075 179.196 64.075ZM194.118 62.225C192.118 62.225 190.268 63.85 190.268 66.75V66.925C190.268 69.8 192.118 71.45 194.118 71.45C196.093 71.45 197.968 69.8 197.968 66.925V66.75C197.968 63.85 196.093 62.225 194.118 62.225ZM202.168 75.575V75.75C202.168 78.625 204.018 80.275 206.018 80.275C207.993 80.275 209.868 78.625 209.868 75.75V75.575C209.868 72.675 207.993 71.05 206.018 71.05C204.018 71.05 202.168 72.675 202.168 75.575ZM194.043 80L208.743 62.5H206.093L191.393 80H194.043ZM206.018 72.8C207.093 72.8 208.068 73.8 208.068 75.575V75.75C208.068 77.525 207.093 78.525 206.018 78.525C204.918 78.525 203.943 77.525 203.943 75.75V75.575C203.943 73.8 204.918 72.8 206.018 72.8ZM194.118 63.975C195.193 63.975 196.168 64.975 196.168 66.75V66.925C196.168 68.7 195.193 69.7 194.118 69.7C193.018 69.7 192.043 68.7 192.043 66.925V66.75C192.043 64.975 193.018 63.975 194.118 63.975Z" fill="white"/>
<path d="M373.338 256.075C375.413 256.075 376.488 257.4 376.488 259.1C376.488 261.25 374.563 262.85 372.213 264.775L366.538 269.425L367.063 272H378.988V269.625H369.588L373.763 266.3C376.313 264.275 379.038 262.025 379.038 259C379.038 256.4 377.138 254.025 373.138 254.025C370.688 254.025 368.263 255.625 366.713 257.4L368.413 258.925C369.663 257.475 371.463 256.075 373.338 256.075ZM389.984 254.025C386.009 254.025 382.284 257.3 382.284 263.075V263.425C382.284 269.2 386.009 272.475 389.984 272.475C393.959 272.475 397.684 269.2 397.684 263.425V263.075C397.684 257.3 393.959 254.025 389.984 254.025ZM389.984 256.075C392.709 256.075 395.159 258.6 395.159 263.025V263.475C395.159 267.9 392.709 270.425 389.984 270.425C387.259 270.425 384.809 267.9 384.809 263.475V263.025C384.809 258.6 387.259 256.075 389.984 256.075ZM404.905 254.225C402.905 254.225 401.055 255.85 401.055 258.75V258.925C401.055 261.8 402.905 263.45 404.905 263.45C406.88 263.45 408.755 261.8 408.755 258.925V258.75C408.755 255.85 406.88 254.225 404.905 254.225ZM412.955 267.575V267.75C412.955 270.625 414.805 272.275 416.805 272.275C418.78 272.275 420.655 270.625 420.655 267.75V267.575C420.655 264.675 418.78 263.05 416.805 263.05C414.805 263.05 412.955 264.675 412.955 267.575ZM404.83 272L419.53 254.5H416.88L402.18 272H404.83ZM416.805 264.8C417.88 264.8 418.855 265.8 418.855 267.575V267.75C418.855 269.525 417.88 270.525 416.805 270.525C415.705 270.525 414.73 269.525 414.73 267.75V267.575C414.73 265.8 415.705 264.8 416.805 264.8ZM404.905 255.975C405.98 255.975 406.955 256.975 406.955 258.75V258.925C406.955 260.7 405.98 261.7 404.905 261.7C403.805 261.7 402.83 260.7 402.83 258.925V258.75C402.83 256.975 403.805 255.975 404.905 255.975Z" fill="white"/>
<path d="M375.75 396.425C377.6 398.2 379.725 399.475 382.55 399.475C386.35 399.475 388.6 396.8 388.6 393.875C388.6 390.425 385.725 388.35 382.325 388.35C381.6 388.35 380.625 388.4 379.9 388.475L380.175 383.75H388.35V381.5H377.95L377.4 390.475H381.725C384.475 390.475 386.15 391.775 386.15 393.925C386.15 395.95 384.725 397.35 382.55 397.35C380.45 397.35 378.7 396.175 377.325 394.825L375.75 396.425ZM395.05 381.225C393.05 381.225 391.2 382.85 391.2 385.75V385.925C391.2 388.8 393.05 390.45 395.05 390.45C397.025 390.45 398.9 388.8 398.9 385.925V385.75C398.9 382.85 397.025 381.225 395.05 381.225ZM403.1 394.575V394.75C403.1 397.625 404.95 399.275 406.95 399.275C408.925 399.275 410.8 397.625 410.8 394.75V394.575C410.8 391.675 408.925 390.05 406.95 390.05C404.95 390.05 403.1 391.675 403.1 394.575ZM394.975 399L409.675 381.5H407.025L392.325 399H394.975ZM406.95 391.8C408.025 391.8 409 392.8 409 394.575V394.75C409 396.525 408.025 397.525 406.95 397.525C405.85 397.525 404.875 396.525 404.875 394.75V394.575C404.875 392.8 405.85 391.8 406.95 391.8ZM395.05 382.975C396.125 382.975 397.1 383.975 397.1 385.75V385.925C397.1 387.7 396.125 388.7 395.05 388.7C393.95 388.7 392.975 387.7 392.975 385.925V385.75C392.975 383.975 393.95 382.975 395.05 382.975Z" fill="white"/>
<path d="M479.5 325.325L482.975 324.725V340H485.425V322.375H484.6L479.5 323.275V325.325ZM497.386 322.025C493.411 322.025 489.686 325.3 489.686 331.075V331.425C489.686 337.2 493.411 340.475 497.386 340.475C501.361 340.475 505.086 337.2 505.086 331.425V331.075C505.086 325.3 501.361 322.025 497.386 322.025ZM497.386 324.075C500.111 324.075 502.561 326.6 502.561 331.025V331.475C502.561 335.9 500.111 338.425 497.386 338.425C494.661 338.425 492.211 335.9 492.211 331.475V331.025C492.211 326.6 494.661 324.075 497.386 324.075ZM512.307 322.225C510.307 322.225 508.457 323.85 508.457 326.75V326.925C508.457 329.8 510.307 331.45 512.307 331.45C514.282 331.45 516.157 329.8 516.157 326.925V326.75C516.157 323.85 514.282 322.225 512.307 322.225ZM520.357 335.575V335.75C520.357 338.625 522.207 340.275 524.207 340.275C526.182 340.275 528.057 338.625 528.057 335.75V335.575C528.057 332.675 526.182 331.05 524.207 331.05C522.207 331.05 520.357 332.675 520.357 335.575ZM512.232 340L526.932 322.5H524.282L509.582 340H512.232ZM524.207 332.8C525.282 332.8 526.257 333.8 526.257 335.575V335.75C526.257 337.525 525.282 338.525 524.207 338.525C523.107 338.525 522.132 337.525 522.132 335.75V335.575C522.132 333.8 523.107 332.8 524.207 332.8ZM512.307 323.975C513.382 323.975 514.357 324.975 514.357 326.75V326.925C514.357 328.7 513.382 329.7 512.307 329.7C511.207 329.7 510.232 328.7 510.232 326.925V326.75C510.232 324.975 511.207 323.975 512.307 323.975Z" fill="white"/>
<path d="M612.55 63.075C614.625 63.075 615.7 64.4 615.7 66.1C615.7 68.25 613.775 69.85 611.425 71.775L605.75 76.425L606.275 79H618.2V76.625H608.8L612.975 73.3C615.525 71.275 618.25 69.025 618.25 66C618.25 63.4 616.35 61.025 612.35 61.025C609.9 61.025 607.475 62.625 605.925 64.4L607.625 65.925C608.875 64.475 610.675 63.075 612.55 63.075ZM629.196 61.025C625.221 61.025 621.496 64.3 621.496 70.075V70.425C621.496 76.2 625.221 79.475 629.196 79.475C633.171 79.475 636.896 76.2 636.896 70.425V70.075C636.896 64.3 633.171 61.025 629.196 61.025ZM629.196 63.075C631.921 63.075 634.371 65.6 634.371 70.025V70.475C634.371 74.9 631.921 77.425 629.196 77.425C626.471 77.425 624.021 74.9 624.021 70.475V70.025C624.021 65.6 626.471 63.075 629.196 63.075ZM644.118 61.225C642.118 61.225 640.268 62.85 640.268 65.75V65.925C640.268 68.8 642.118 70.45 644.118 70.45C646.093 70.45 647.968 68.8 647.968 65.925V65.75C647.968 62.85 646.093 61.225 644.118 61.225ZM652.168 74.575V74.75C652.168 77.625 654.018 79.275 656.018 79.275C657.993 79.275 659.868 77.625 659.868 74.75V74.575C659.868 71.675 657.993 70.05 656.018 70.05C654.018 70.05 652.168 71.675 652.168 74.575ZM644.043 79L658.743 61.5H656.093L641.393 79H644.043ZM656.018 71.8C657.093 71.8 658.068 72.8 658.068 74.575V74.75C658.068 76.525 657.093 77.525 656.018 77.525C654.918 77.525 653.943 76.525 653.943 74.75V74.575C653.943 72.8 654.918 71.8 656.018 71.8ZM644.118 62.975C645.193 62.975 646.168 63.975 646.168 65.75V65.925C646.168 67.7 645.193 68.7 644.118 68.7C643.018 68.7 642.043 67.7 642.043 65.925V65.75C642.043 63.975 643.018 62.975 644.118 62.975Z" fill="white"/>
<path d="M243.5 17.325L246.975 16.725V32H249.425V14.375H248.6L243.5 15.275V17.325ZM261.386 14.025C257.411 14.025 253.686 17.3 253.686 23.075V23.425C253.686 29.2 257.411 32.475 261.386 32.475C265.361 32.475 269.086 29.2 269.086 23.425V23.075C269.086 17.3 265.361 14.025 261.386 14.025ZM261.386 16.075C264.111 16.075 266.561 18.6 266.561 23.025V23.475C266.561 27.9 264.111 30.425 261.386 30.425C258.661 30.425 256.211 27.9 256.211 23.475V23.025C256.211 18.6 258.661 16.075 261.386 16.075ZM276.307 14.225C274.307 14.225 272.457 15.85 272.457 18.75V18.925C272.457 21.8 274.307 23.45 276.307 23.45C278.282 23.45 280.157 21.8 280.157 18.925V18.75C280.157 15.85 278.282 14.225 276.307 14.225ZM284.357 27.575V27.75C284.357 30.625 286.207 32.275 288.207 32.275C290.182 32.275 292.057 30.625 292.057 27.75V27.575C292.057 24.675 290.182 23.05 288.207 23.05C286.207 23.05 284.357 24.675 284.357 27.575ZM276.232 32L290.932 14.5H288.282L273.582 32H276.232ZM288.207 24.8C289.282 24.8 290.257 25.8 290.257 27.575V27.75C290.257 29.525 289.282 30.525 288.207 30.525C287.107 30.525 286.132 29.525 286.132 27.75V27.575C286.132 25.8 287.107 24.8 288.207 24.8ZM276.307 15.975C277.382 15.975 278.357 16.975 278.357 18.75V18.925C278.357 20.7 277.382 21.7 276.307 21.7C275.207 21.7 274.232 20.7 274.232 18.925V18.75C274.232 16.975 275.207 15.975 276.307 15.975Z" fill="white"/>
<ellipse cx="58.5504" cy="169.493" rx="56.7133" ry="56.0614" fill="url(#paint6_radial_327_14)"/>
<g filter="url(#filter0_f_327_14)">
<path d="M102 170C102 194.301 82.3005 214 58 214C33.6995 214 14 194.301 14 170C14 145.699 33.6995 126 58 126C82.3005 126 102 145.699 102 170Z" fill="url(#paint7_radial_327_14)"/>
</g>
<path d="M48.4685 160.307L54.7685 159.207V187.507H61.5185V152.207H60.0185L48.4685 154.257V160.307Z" fill="white"/>
<ellipse cx="282.796" cy="169.493" rx="56.7133" ry="56.0614" fill="url(#paint8_radial_327_14)"/>
<g filter="url(#filter1_f_327_14)">
<path d="M327 170C327 194.301 307.301 214 283 214C258.699 214 239 194.301 239 170C239 145.699 258.699 126 283 126C307.301 126 327 145.699 327 170Z" fill="url(#paint9_radial_327_14)"/>
</g>
<path d="M283.952 157.507C287.702 157.507 289.602 159.407 289.602 161.857C289.602 165.207 286.452 168.257 282.252 171.307L269.352 180.557L270.802 187.507H296.102V180.907H278.752L286.352 175.657C291.402 172.107 296.502 167.707 296.502 161.707C296.502 156.357 292.252 151.507 283.402 151.507C277.802 151.507 272.452 155.007 269.052 158.857L273.852 163.207C276.352 160.257 280.002 157.507 283.952 157.507Z" fill="white"/>
<ellipse cx="507.041" cy="169.493" rx="56.7133" ry="56.0614" fill="url(#paint10_radial_327_14)"/>
<g filter="url(#filter2_f_327_14)">
<path d="M550 170C550 194.301 530.301 214 506 214C481.699 214 462 194.301 462 170C462 145.699 481.699 126 506 126C530.301 126 550 145.699 550 170Z" fill="url(#paint11_radial_327_14)"/>
</g>
<path d="M501.998 172.507H506.798C511.298 172.507 514.398 174.607 514.398 177.457C514.398 179.957 511.998 182.407 508.198 182.407C503.848 182.407 500.348 180.007 497.548 177.307L493.048 181.907C497.248 185.707 501.948 188.507 508.198 188.507C516.298 188.507 521.198 183.557 521.198 177.857C521.198 173.907 518.898 170.907 515.448 169.107C518.248 167.307 520.098 164.557 520.098 161.307C520.098 156.357 515.948 151.507 507.198 151.507C501.598 151.507 496.348 155.007 492.948 158.857L497.748 163.207C500.248 160.257 503.798 157.507 507.748 157.507C511.148 157.507 513.298 159.307 513.298 161.557C513.298 164.457 510.848 166.357 506.798 166.357H501.998V172.507Z" fill="white"/>
<ellipse cx="731.287" cy="169.493" rx="56.7133" ry="56.0614" fill="url(#paint12_radial_327_14)"/>
<g filter="url(#filter3_f_327_14)">
<path d="M775 170C775 194.301 755.301 214 731 214C706.699 214 687 194.301 687 170C687 145.699 706.699 126 731 126C755.301 126 775 145.699 775 170Z" fill="url(#paint13_radial_327_14)"/>
</g>
<path d="M713.882 179.957H731.932V187.507H738.632V179.957H743.482V173.957H738.632V152.257H730.932C730.932 152.307 730.932 152.407 730.982 152.457L730.932 152.257L713.882 173.807V179.957ZM721.132 173.957L731.932 160.307V173.957H721.132Z" fill="white"/>
<rect x="153.5" y="164.5" width="40" height="10" rx="5" stroke="white" stroke-opacity="0.2"/>
<rect x="375.5" y="164.5" width="40" height="10" rx="5" stroke="white" stroke-opacity="0.2"/>
<rect x="602.5" y="164.5" width="40" height="10" rx="5" stroke="white" stroke-opacity="0.2"/>
<defs>
<filter id="filter0_f_327_14" x="0" y="112" width="116" height="116" filterUnits="userSpaceOnUse" color-interpolation-filters="sRGB">
<feFlood flood-opacity="0" result="BackgroundImageFix"/>
<feBlend mode="normal" in="SourceGraphic" in2="BackgroundImageFix" result="shape"/>
<feGaussianBlur stdDeviation="7" result="effect1_foregroundBlur_327_14"/>
</filter>
<filter id="filter1_f_327_14" x="225" y="112" width="116" height="116" filterUnits="userSpaceOnUse" color-interpolation-filters="sRGB">
<feFlood flood-opacity="0" result="BackgroundImageFix"/>
<feBlend mode="normal" in="SourceGraphic" in2="BackgroundImageFix" result="shape"/>
<feGaussianBlur stdDeviation="7" result="effect1_foregroundBlur_327_14"/>
</filter>
<filter id="filter2_f_327_14" x="448" y="112" width="116" height="116" filterUnits="userSpaceOnUse" color-interpolation-filters="sRGB">
<feFlood flood-opacity="0" result="BackgroundImageFix"/>
<feBlend mode="normal" in="SourceGraphic" in2="BackgroundImageFix" result="shape"/>
<feGaussianBlur stdDeviation="7" result="effect1_foregroundBlur_327_14"/>
</filter>
<filter id="filter3_f_327_14" x="673" y="112" width="116" height="116" filterUnits="userSpaceOnUse" color-interpolation-filters="sRGB">
<feFlood flood-opacity="0" result="BackgroundImageFix"/>
<feBlend mode="normal" in="SourceGraphic" in2="BackgroundImageFix" result="shape"/>
<feGaussianBlur stdDeviation="7" result="effect1_foregroundBlur_327_14"/>
</filter>
<linearGradient id="paint0_linear_327_14" x1="499.091" y1="191.148" x2="499.091" y2="355.045" gradientUnits="userSpaceOnUse">
<stop stop-color="#282236"/>
<stop offset="0.510417" stop-color="#7000FF"/>
<stop offset="1" stop-color="#FF679E"/>
</linearGradient>
<linearGradient id="paint1_linear_327_14" x1="399.5" y1="165" x2="399.5" y2="418" gradientUnits="userSpaceOnUse">
<stop stop-color="#282236"/>
<stop offset="0.510417" stop-color="#7000FF"/>
<stop offset="1" stop-color="#FF679E"/>
</linearGradient>
<linearGradient id="paint2_linear_327_14" x1="265.681" y1="151.42" x2="265.681" y2="1.00003" gradientUnits="userSpaceOnUse">
<stop stop-color="#282236"/>
<stop offset="0.640625" stop-color="#2C41FF"/>
<stop offset="1" stop-color="#50B5FF"/>
</linearGradient>
<linearGradient id="paint3_linear_327_14" x1="182.691" y1="154.532" x2="182.691" y2="45.6073" gradientUnits="userSpaceOnUse">
<stop stop-color="#282236"/>
<stop offset="0.703125" stop-color="#07BD9C"/>
<stop offset="1" stop-color="#70FFEE"/>
</linearGradient>
<linearGradient id="paint4_linear_327_14" x1="402.614" y1="177.354" x2="402.614" y2="286.279" gradientUnits="userSpaceOnUse">
<stop stop-color="#282236"/>
<stop offset="0.640625" stop-color="#2C41FF"/>
<stop offset="1" stop-color="#50B5FF"/>
</linearGradient>
<linearGradient id="paint5_linear_327_14" x1="627.725" y1="157.993" x2="627.725" y2="41.7152" gradientUnits="userSpaceOnUse">
<stop stop-color="#282236"/>
<stop offset="0.510417" stop-color="#7000FF"/>
<stop offset="1" stop-color="#FF679E"/>
</linearGradient>
<radialGradient id="paint6_radial_327_14" cx="0" cy="0" r="1" gradientUnits="userSpaceOnUse" gradientTransform="translate(58.5504 169.494) rotate(90) scale(60.0065 60.7043)">
<stop stop-color="#282236"/>
<stop offset="0.8125" stop-color="#282236"/>
<stop offset="1" stop-color="#282236" stop-opacity="0"/>
</radialGradient>
<radialGradient id="paint7_radial_327_14" cx="0" cy="0" r="1" gradientUnits="userSpaceOnUse" gradientTransform="translate(79.2101 235.722) rotate(-116.243) scale(134.475 198.308)">
<stop stop-color="#00FFF0"/>
<stop offset="0.333333" stop-color="#0033B6"/>
<stop offset="0.70793" stop-color="#0C53BD"/>
<stop offset="0.994792" stop-color="#12F4CC"/>
</radialGradient>
<radialGradient id="paint8_radial_327_14" cx="0" cy="0" r="1" gradientUnits="userSpaceOnUse" gradientTransform="translate(282.796 169.494) rotate(90) scale(60.0065 60.7043)">
<stop stop-color="#282236"/>
<stop offset="0.8125" stop-color="#282236"/>
<stop offset="1" stop-color="#282236" stop-opacity="0"/>
</radialGradient>
<radialGradient id="paint9_radial_327_14" cx="0" cy="0" r="1" gradientUnits="userSpaceOnUse" gradientTransform="translate(304.21 235.722) rotate(-116.243) scale(134.475 198.308)">
<stop stop-color="#00FFF0"/>
<stop offset="0.333333" stop-color="#0033B6"/>
<stop offset="0.70793" stop-color="#0C53BD"/>
<stop offset="0.994792" stop-color="#12F4CC"/>
</radialGradient>
<radialGradient id="paint10_radial_327_14" cx="0" cy="0" r="1" gradientUnits="userSpaceOnUse" gradientTransform="translate(507.041 169.494) rotate(90) scale(60.0065 60.7043)">
<stop stop-color="#282236"/>
<stop offset="0.8125" stop-color="#282236"/>
<stop offset="1" stop-color="#282236" stop-opacity="0"/>
</radialGradient>
<radialGradient id="paint11_radial_327_14" cx="0" cy="0" r="1" gradientUnits="userSpaceOnUse" gradientTransform="translate(527.21 235.722) rotate(-116.243) scale(134.475 198.308)">
<stop stop-color="#00FFF0"/>
<stop offset="0.333333" stop-color="#0033B6"/>
<stop offset="0.70793" stop-color="#0C53BD"/>
<stop offset="0.994792" stop-color="#12F4CC"/>
</radialGradient>
<radialGradient id="paint12_radial_327_14" cx="0" cy="0" r="1" gradientUnits="userSpaceOnUse" gradientTransform="translate(731.287 169.494) rotate(90) scale(60.0065 60.7043)">
<stop stop-color="#282236"/>
<stop offset="0.8125" stop-color="#282236"/>
<stop offset="1" stop-color="#282236" stop-opacity="0"/>
</radialGradient>
<radialGradient id="paint13_radial_327_14" cx="0" cy="0" r="1" gradientUnits="userSpaceOnUse" gradientTransform="translate(752.21 235.722) rotate(-116.243) scale(134.475 198.308)">
<stop stop-color="#00FFF0"/>
<stop offset="0.333333" stop-color="#0033B6"/>
<stop offset="0.70793" stop-color="#0C53BD"/>
<stop offset="0.994792" stop-color="#12F4CC"/>
</radialGradient>
</defs>
</svg>
