<svg width="1337" height="612" viewBox="0 0 1337 612" fill="none" xmlns="http://www.w3.org/2000/svg">
<path d="M1032.23 610.701C1031.46 611.148 1030.51 611.148 1029.73 610.701L767.728 459.433C766.955 458.986 766.478 458.161 766.478 457.268L766.478 154.732C766.478 153.839 766.955 153.014 767.728 152.567L1029.73 1.29905C1030.51 0.852512 1031.46 0.852512 1032.23 1.29905L1294.24 152.567C1295.01 153.014 1295.49 153.839 1295.49 154.732L1295.49 457.268C1295.49 458.161 1295.01 458.986 1294.24 459.433L1032.23 610.701Z" stroke="url(#paint0_linear_347_1071)" stroke-opacity="0.3"/>
<path d="M305.735 610.701C306.508 611.148 307.461 611.148 308.235 610.701L570.239 459.433C571.012 458.986 571.489 458.161 571.489 457.268L571.489 154.732C571.489 153.839 571.012 153.014 570.239 152.567L308.235 1.29905C307.461 0.852512 306.508 0.852512 305.735 1.29905L43.731 152.567C42.9575 153.014 42.481 153.839 42.481 154.732L42.4811 457.268C42.4811 458.161 42.9576 458.986 43.7311 459.433L305.735 610.701Z" stroke="url(#paint1_linear_347_1071)" stroke-opacity="0.3"/>
<defs>
<linearGradient id="paint0_linear_347_1071" x1="1292.48" y1="316" x2="1010.48" y2="306" gradientUnits="userSpaceOnUse">
<stop stop-color="#3AFFD8"/>
<stop offset="1" stop-color="white" stop-opacity="0"/>
</linearGradient>
<linearGradient id="paint1_linear_347_1071" x1="45.4849" y1="316" x2="327.485" y2="306" gradientUnits="userSpaceOnUse">
<stop stop-color="#3AFFD8"/>
<stop offset="1" stop-color="white" stop-opacity="0"/>
</linearGradient>
</defs>
</svg>
