<svg width="148" height="148" viewBox="0 0 148 148" fill="none" xmlns="http://www.w3.org/2000/svg">
<path d="M88.9154 66.1621L97.7096 61.213L112.157 69.5543L127.351 60.7809V43.234L112.157 34.4605L96.9636 43.234V59.8366L88.2168 64.7591L74.2249 56.6813V48.6745L88.9598 40.1674V22.6265L73.7632 13.853L58.5695 22.6265V40.1733L72.6591 48.3074V57.0069L59.1822 64.7887L51.0363 60.1001V43.2399L35.8426 34.4665L20.6489 43.2399V60.7868L35.8426 69.5602L50.0684 61.3462L58.5251 66.2154V81.415L50.098 86.225L35.8426 77.9962L20.6489 86.7697V104.317L35.8426 113.09L51.0363 104.317V87.4919L58.9602 82.969L72.6591 90.8722V99.696L58.5695 107.83V125.374L73.7632 134.147L88.9568 125.374V107.83L74.222 99.323V91.1949L88.2849 83.0756L96.9636 88.1194V104.864L112.157 113.638L127.351 104.864V87.3173L112.157 78.5438L97.8309 86.8141L88.9124 81.6311V66.1621H88.9154ZM100.089 45.8802L111.157 52.2176V65.3689L100.089 58.9782V45.8802ZM112.72 65.6205V52.2945L124.222 45.8092V58.9782L112.72 65.6205ZM123.322 44.5216L112.006 50.9004L100.927 44.5571L112.154 38.0747L123.322 44.5216ZM74.3285 45.007V31.6278L85.8311 25.1425V38.3648L74.3285 45.007ZM84.8839 23.8845L73.6152 30.2366L62.5832 23.92L73.7632 17.4642L84.8839 23.8845ZM61.6952 25.2135L72.7627 31.5509V44.7554L61.6952 38.3648V25.2135ZM73.7188 60.0053L85.0467 66.5469L73.5116 73.0382L62.3168 66.5913L73.7188 60.0053ZM47.1261 44.5897L35.7449 51.004L24.5502 44.5926L35.8426 38.0717L47.1261 44.5897ZM23.7747 45.9542L34.8954 52.3212V65.3985L23.7747 58.9782V45.9542ZM36.4583 65.5909V52.4011L47.9105 45.9453V58.9812L36.4583 65.5909ZM47.3304 88.2319L35.958 94.6433L24.5591 88.1165L35.8456 81.5985L47.3304 88.2319ZM23.7747 89.4721L35.1056 95.9605V109.047L23.7747 102.505V89.4721ZM36.6684 108.993V96.0374L47.9105 89.7001V102.502L36.6684 108.993ZM61.6538 68.0121L72.662 74.3495V87.264L61.6538 80.9089V68.0121ZM73.8253 115.414L62.7105 109.05L73.7661 102.668L84.9668 109.135L73.8253 115.414ZM61.6952 110.272L72.9728 116.731V130.083L61.6952 123.571V110.272ZM74.5387 130.089V116.805L85.834 110.438V123.565L74.5387 130.089ZM74.222 87.5837V74.4265L85.7867 67.9204V80.9059L74.222 87.5837ZM100.089 89.8599L111.474 96.3778V109.63L100.089 103.059V89.8599ZM113.036 109.517V96.4548L124.225 90.147V103.056L113.036 109.517ZM123.55 88.7351L112.32 95.0636L101.01 88.5901L112.154 82.155L123.55 88.7351Z" fill="url(#paint0_linear_761_129)"/>
<defs>
<linearGradient id="paint0_linear_761_129" x1="40.9123" y1="29.4055" x2="118.904" y2="133.985" gradientUnits="userSpaceOnUse">
<stop stop-color="#00C8A0"/>
<stop offset="1" stop-color="#002420"/>
</linearGradient>
</defs>
</svg>
