<?xml version="1.0" encoding="utf-8"?>
<!-- Generator: Adobe Illustrator 23.0.3, SVG Export Plug-In . SVG Version: 6.00 Build 0)  -->
<svg version="1.1" id="Layer_1" xmlns="http://www.w3.org/2000/svg" xmlns:xlink="http://www.w3.org/1999/xlink" x="0px" y="0px"
	 viewBox="0 0 500 500" style="enable-background:new 0 0 500 500;" xml:space="preserve">
<style type="text/css">
	.st0{fill:none;stroke:#002420;stroke-width:10;stroke-miterlimit:10;}
	.st1{fill:none;stroke:#002420;stroke-width:5;stroke-miterlimit:10;}
	.st2{fill:url(#SVGID_1_);}
	.st3{fill:url(#SVGID_2_);}
	.st4{fill:url(#SVGID_3_);}
	.st5{fill:url(#SVGID_4_);}
	.st6{fill:url(#SVGID_5_);}
	.st7{fill:url(#SVGID_6_);}
	.st8{fill:url(#SVGID_7_);}
	.st9{fill:url(#SVGID_8_);}
	.st10{fill:url(#SVGID_9_);}
	.st11{fill:url(#SVGID_10_);}
	.st12{fill:url(#SVGID_11_);}
	.st13{fill:url(#SVGID_12_);}
	.st14{fill:url(#SVGID_13_);}
	.st15{fill:none;stroke:url(#SVGID_14_);stroke-width:5;stroke-linecap:round;stroke-miterlimit:10;}
	.st16{fill:none;stroke:url(#SVGID_15_);stroke-width:5;stroke-linecap:round;stroke-miterlimit:10;}
	.st17{fill:none;stroke:url(#SVGID_16_);stroke-width:5;stroke-linecap:round;stroke-miterlimit:10;}
	.st18{fill:none;stroke:url(#SVGID_17_);stroke-width:5;stroke-linecap:round;stroke-miterlimit:10;}
	.st19{fill:none;stroke:url(#SVGID_18_);stroke-width:5;stroke-linecap:round;stroke-miterlimit:10;}
	.st20{fill:none;stroke:url(#SVGID_19_);stroke-width:5;stroke-miterlimit:10;}
	.st21{fill:none;stroke:url(#SVGID_20_);stroke-width:5;stroke-miterlimit:10;}
	.st22{fill:none;stroke:url(#SVGID_21_);stroke-width:5;stroke-linecap:round;stroke-miterlimit:10;}
	.st23{fill:none;stroke:url(#SVGID_22_);stroke-width:5;stroke-linecap:round;stroke-miterlimit:10;}
	.st24{fill:none;stroke:url(#SVGID_23_);stroke-width:5;stroke-linecap:round;stroke-miterlimit:10;}
	.st25{fill:none;stroke:url(#SVGID_24_);stroke-width:5;stroke-linecap:round;stroke-miterlimit:10;}
	.st26{fill:none;stroke:url(#SVGID_25_);stroke-width:5;stroke-linecap:round;stroke-miterlimit:10;}
	.st27{fill:none;stroke:url(#SVGID_26_);stroke-width:5;stroke-linecap:round;stroke-miterlimit:10;}
	.st28{fill:none;stroke:url(#SVGID_27_);stroke-width:5;stroke-linecap:round;stroke-miterlimit:10;}
	.st29{fill:none;stroke:url(#SVGID_28_);stroke-width:5;stroke-linecap:round;stroke-miterlimit:10;}
	.st30{fill:none;stroke:url(#SVGID_29_);stroke-width:5;stroke-linecap:round;stroke-miterlimit:10;}
	.st31{fill:none;stroke:url(#SVGID_30_);stroke-width:5;stroke-linecap:round;stroke-miterlimit:10;}
	.st32{fill:none;stroke:url(#SVGID_31_);stroke-width:5;stroke-linecap:round;stroke-miterlimit:10;}
	.st33{fill:none;stroke:url(#SVGID_32_);stroke-width:5;stroke-linecap:round;stroke-miterlimit:10;}
	.st34{fill:none;stroke:url(#SVGID_33_);stroke-width:5;stroke-linecap:round;stroke-miterlimit:10;}
	.st35{fill:none;stroke:url(#SVGID_34_);stroke-width:5;stroke-linecap:round;stroke-miterlimit:10;}
	.st36{fill:none;stroke:url(#SVGID_35_);stroke-width:5;stroke-linecap:round;stroke-miterlimit:10;}
	.st37{fill:none;stroke:url(#SVGID_36_);stroke-width:5;stroke-linecap:round;stroke-miterlimit:10;}
	.st38{fill:none;stroke:url(#SVGID_37_);stroke-width:5;stroke-linecap:round;stroke-miterlimit:10;}
	.st39{fill:none;stroke:url(#SVGID_38_);stroke-width:5;stroke-linecap:round;stroke-miterlimit:10;}
	.st40{fill:none;stroke:url(#SVGID_39_);stroke-width:5;stroke-linecap:round;stroke-miterlimit:10;}
	.st41{fill:none;stroke:url(#SVGID_40_);stroke-width:5;stroke-linecap:round;stroke-miterlimit:10;}
	.st42{fill:none;stroke:url(#SVGID_41_);stroke-width:5;stroke-linecap:round;stroke-miterlimit:10;}
	.st43{fill:url(#SVGID_42_);}
	.st44{fill:url(#SVGID_43_);}
	.st45{fill:url(#SVGID_44_);}
	.st46{fill:url(#SVGID_45_);}
	.st47{fill:url(#SVGID_46_);}
	.st48{fill:url(#SVGID_47_);}
	.st49{fill:url(#SVGID_48_);}
	.st50{fill:url(#SVGID_49_);}
	.st51{fill:url(#SVGID_50_);}
	.st52{fill:url(#SVGID_51_);}
</style>
<line class="st0" x1="80.34" y1="137.55" x2="80.53" y2="137.55"/>
<g>
	<linearGradient id="SVGID_1_" gradientUnits="userSpaceOnUse" x1="109.574" y1="54.5767" x2="442.9283" y2="449.1594">
		<stop  offset="0" style="stop-color:#00C8A0"/>
		<stop  offset="1" style="stop-color:#002420"/>
	</linearGradient>
	<path class="st2" d="M407.69,144.65h-86.07V135c0-27.38-22.28-49.66-49.66-49.66H122.75c-26.87,0-48.8,21.45-49.62,48.12
		c-13.5,3.33-23.54,15.53-23.54,30.04v102.05c0,17.06,13.88,30.94,30.94,30.94h37.5v22.69l21.13-22.69h9.45v57.23l40.79-40.74
		c8.55,16.62,25.24,28.38,44.76,29.99v63.81l59.27-63.62h114.25c30.6,0,55.49-24.89,55.49-55.49v-87.51
		C463.18,169.54,438.29,144.65,407.69,144.65z M84.34,135c0-21.18,17.23-38.41,38.41-38.41h149.19c21.18,0,38.41,17.23,38.41,38.41
		v9.65h-61.02h-10.58H136.43c-2.98,0-5.42,2.44-5.42,5.42c0,2.98,2.44,5.42,5.42,5.42h69.43c-10.8,7.98-18.61,19.78-21.42,33.38
		h-49.28c-2.98,0-5.42,2.44-5.42,5.42c0,2.98,2.44,5.42,5.42,5.42h48.14c0,0.14-0.01,0.28-0.01,0.42v0.32v50.25h-16.87l-33.31,35.77
		h-3.82v-35.77h-6.53c-21.18,0-38.41-17.23-38.41-38.41V135z M80.53,286.47c-11.54,0-20.94-9.39-20.94-20.94V163.49
		c0-8.92,5.62-16.54,13.5-19.55v68.35c0,25.79,19.76,47.06,44.94,49.44v24.74H80.53z M158.61,329.58v-43.11h-10.14l22.83-24.52
		h11.98v25.7c0,5.26,0.74,10.35,2.12,15.17L158.61,329.58z M451.93,287.65c0,24.39-19.85,44.24-44.24,44.24H288.54l-43.12,46.28
		v-46.28h-6.66c-24.38,0-44.22-19.85-44.22-44.24v-25.7v-61.5c0-24.4,19.84-44.24,44.22-44.24l168.93-0.32
		c24.4,0,44.24,19.85,44.24,44.24V287.65z"/>
	<linearGradient id="SVGID_2_" gradientUnits="userSpaceOnUse" x1="159.9396" y1="12.0264" x2="493.294" y2="406.6091">
		<stop  offset="0" style="stop-color:#00C8A0"/>
		<stop  offset="1" style="stop-color:#002420"/>
	</linearGradient>
	<path class="st3" d="M389.37,204.18H264.35c-2.98,0-5.42,2.44-5.42,5.42c0,2.98,2.44,5.42,5.42,5.42h125.02
		c2.98,0,5.42-2.44,5.42-5.42C394.79,206.62,392.35,204.18,389.37,204.18z"/>
	<linearGradient id="SVGID_3_" gradientUnits="userSpaceOnUse" x1="142.7728" y1="26.5295" x2="476.1271" y2="421.1121">
		<stop  offset="0" style="stop-color:#00C8A0"/>
		<stop  offset="1" style="stop-color:#002420"/>
	</linearGradient>
	<path class="st4" d="M389.16,238.63H263.92c-2.98,0-5.42,2.44-5.42,5.42c0,2.98,2.44,5.42,5.42,5.42h125.24
		c2.98,0,5.42-2.44,5.42-5.42C394.58,241.07,392.14,238.63,389.16,238.63z"/>
	<linearGradient id="SVGID_4_" gradientUnits="userSpaceOnUse" x1="125.854" y1="40.8229" x2="459.2084" y2="435.4055">
		<stop  offset="0" style="stop-color:#00C8A0"/>
		<stop  offset="1" style="stop-color:#002420"/>
	</linearGradient>
	<path class="st5" d="M389.16,273.07H264.13c-2.98,0-5.42,2.44-5.42,5.42c0,2.98,2.44,5.42,5.42,5.42h125.02
		c2.98,0,5.42-2.44,5.42-5.42C394.58,275.51,392.14,273.07,389.16,273.07z"/>
</g>
</svg>
