<?xml version="1.0" encoding="utf-8"?>
<!-- Generator: Adobe Illustrator 23.0.3, SVG Export Plug-In . SVG Version: 6.00 Build 0)  -->
<svg version="1.1" id="Layer_1" xmlns="http://www.w3.org/2000/svg" xmlns:xlink="http://www.w3.org/1999/xlink" x="0px" y="0px"
	 viewBox="0 0 500 500" style="enable-background:new 0 0 500 500;" xml:space="preserve">
<style type="text/css">
	.st0{fill:none;stroke:#002420;stroke-width:10;stroke-miterlimit:10;}
	.st1{fill:none;stroke:#002420;stroke-width:5;stroke-miterlimit:10;}
	.st2{fill:url(#SVGID_1_);}
	.st3{fill:url(#SVGID_2_);}
	.st4{fill:url(#SVGID_3_);}
	.st5{fill:url(#SVGID_4_);}
	.st6{fill:url(#SVGID_5_);}
	.st7{fill:url(#SVGID_6_);}
	.st8{fill:url(#SVGID_7_);}
	.st9{fill:url(#SVGID_8_);}
	.st10{fill:url(#SVGID_9_);}
	.st11{fill:url(#SVGID_10_);}
	.st12{fill:url(#SVGID_11_);}
	.st13{fill:url(#SVGID_12_);}
	.st14{fill:url(#SVGID_13_);}
	.st15{fill:none;stroke:url(#SVGID_14_);stroke-width:5;stroke-linecap:round;stroke-miterlimit:10;}
	.st16{fill:none;stroke:url(#SVGID_15_);stroke-width:5;stroke-linecap:round;stroke-miterlimit:10;}
	.st17{fill:none;stroke:url(#SVGID_16_);stroke-width:5;stroke-linecap:round;stroke-miterlimit:10;}
	.st18{fill:none;stroke:url(#SVGID_17_);stroke-width:5;stroke-linecap:round;stroke-miterlimit:10;}
	.st19{fill:none;stroke:url(#SVGID_18_);stroke-width:5;stroke-linecap:round;stroke-miterlimit:10;}
	.st20{fill:none;stroke:url(#SVGID_19_);stroke-width:5;stroke-miterlimit:10;}
	.st21{fill:none;stroke:url(#SVGID_20_);stroke-width:5;stroke-miterlimit:10;}
	.st22{fill:none;stroke:url(#SVGID_21_);stroke-width:5;stroke-linecap:round;stroke-miterlimit:10;}
	.st23{fill:none;stroke:url(#SVGID_22_);stroke-width:5;stroke-linecap:round;stroke-miterlimit:10;}
	.st24{fill:none;stroke:url(#SVGID_23_);stroke-width:5;stroke-linecap:round;stroke-miterlimit:10;}
	.st25{fill:none;stroke:url(#SVGID_24_);stroke-width:5;stroke-linecap:round;stroke-miterlimit:10;}
	.st26{fill:none;stroke:url(#SVGID_25_);stroke-width:5;stroke-linecap:round;stroke-miterlimit:10;}
	.st27{fill:none;stroke:url(#SVGID_26_);stroke-width:5;stroke-linecap:round;stroke-miterlimit:10;}
	.st28{fill:none;stroke:url(#SVGID_27_);stroke-width:5;stroke-linecap:round;stroke-miterlimit:10;}
	.st29{fill:none;stroke:url(#SVGID_28_);stroke-width:5;stroke-linecap:round;stroke-miterlimit:10;}
	.st30{fill:none;stroke:url(#SVGID_29_);stroke-width:5;stroke-linecap:round;stroke-miterlimit:10;}
	.st31{fill:none;stroke:url(#SVGID_30_);stroke-width:5;stroke-linecap:round;stroke-miterlimit:10;}
	.st32{fill:none;stroke:url(#SVGID_31_);stroke-width:5;stroke-linecap:round;stroke-miterlimit:10;}
	.st33{fill:none;stroke:url(#SVGID_32_);stroke-width:5;stroke-linecap:round;stroke-miterlimit:10;}
	.st34{fill:none;stroke:url(#SVGID_33_);stroke-width:5;stroke-linecap:round;stroke-miterlimit:10;}
	.st35{fill:none;stroke:url(#SVGID_34_);stroke-width:5;stroke-linecap:round;stroke-miterlimit:10;}
	.st36{fill:none;stroke:url(#SVGID_35_);stroke-width:5;stroke-linecap:round;stroke-miterlimit:10;}
	.st37{fill:none;stroke:url(#SVGID_36_);stroke-width:5;stroke-linecap:round;stroke-miterlimit:10;}
	.st38{fill:none;stroke:url(#SVGID_37_);stroke-width:5;stroke-linecap:round;stroke-miterlimit:10;}
	.st39{fill:none;stroke:url(#SVGID_38_);stroke-width:5;stroke-linecap:round;stroke-miterlimit:10;}
	.st40{fill:none;stroke:url(#SVGID_39_);stroke-width:5;stroke-linecap:round;stroke-miterlimit:10;}
	.st41{fill:none;stroke:url(#SVGID_40_);stroke-width:5;stroke-linecap:round;stroke-miterlimit:10;}
	.st42{fill:none;stroke:url(#SVGID_41_);stroke-width:5;stroke-linecap:round;stroke-miterlimit:10;}
	.st43{fill:url(#SVGID_42_);}
	.st44{fill:url(#SVGID_43_);}
	.st45{fill:url(#SVGID_44_);}
	.st46{fill:url(#SVGID_45_);}
	.st47{fill:url(#SVGID_46_);}
	.st48{fill:url(#SVGID_47_);}
	.st49{fill:url(#SVGID_48_);}
	.st50{fill:url(#SVGID_49_);}
	.st51{fill:url(#SVGID_50_);}
	.st52{fill:url(#SVGID_51_);}
</style>
<g>
	<linearGradient id="SVGID_1_" gradientUnits="userSpaceOnUse" x1="126.5125" y1="60.1935" x2="381.6306" y2="425.0124">
		<stop  offset="0" style="stop-color:#00C8A0"/>
		<stop  offset="1" style="stop-color:#002420"/>
	</linearGradient>
	<path class="st2" d="M169.63,138.61c9.24,0,16.76-7.52,16.76-16.76s-7.52-16.76-16.76-16.76c-9.24,0-16.76,7.52-16.76,16.76
		S160.39,138.61,169.63,138.61z M169.63,116.84c2.76,0,5.01,2.25,5.01,5.01s-2.24,5.01-5.01,5.01c-2.76,0-5.01-2.25-5.01-5.01
		S166.87,116.84,169.63,116.84z"/>
	<linearGradient id="SVGID_2_" gradientUnits="userSpaceOnUse" x1="235.4841" y1="-16.0104" x2="490.6022" y2="348.8085">
		<stop  offset="0" style="stop-color:#00C8A0"/>
		<stop  offset="1" style="stop-color:#002420"/>
	</linearGradient>
	<path class="st3" d="M331.89,105.09c-9.24,0-16.76,7.52-16.76,16.76s7.52,16.76,16.76,16.76c9.24,0,16.76-7.52,16.76-16.76
		S341.13,105.09,331.89,105.09z M331.89,126.86c-2.76,0-5.01-2.25-5.01-5.01s2.24-5.01,5.01-5.01c2.76,0,5.01,2.25,5.01,5.01
		S334.65,126.86,331.89,126.86z"/>
	<linearGradient id="SVGID_3_" gradientUnits="userSpaceOnUse" x1="112.5542" y1="69.9546" x2="367.6723" y2="434.7735">
		<stop  offset="0" style="stop-color:#00C8A0"/>
		<stop  offset="1" style="stop-color:#002420"/>
	</linearGradient>
	<path class="st4" d="M329.54,363.48c-9.24,0-16.76,7.52-16.76,16.76S320.3,397,329.54,397s16.76-7.52,16.76-16.76
		S338.78,363.48,329.54,363.48z M329.54,385.25c-2.76,0-5.01-2.24-5.01-5.01c0-2.76,2.24-5.01,5.01-5.01c2.76,0,5.01,2.24,5.01,5.01
		C334.54,383,332.3,385.25,329.54,385.25z"/>
	<linearGradient id="SVGID_4_" gradientUnits="userSpaceOnUse" x1="120.3042" y1="64.535" x2="375.4223" y2="429.3539">
		<stop  offset="0" style="stop-color:#00C8A0"/>
		<stop  offset="1" style="stop-color:#002420"/>
	</linearGradient>
	<path class="st5" d="M342.73,74.22H157.27c-18.79,0-34.08,15.29-34.08,34.08v283.4c0,18.79,15.29,34.08,34.08,34.08h185.45
		c18.79,0,34.08-15.29,34.08-34.08V108.3C376.81,89.51,361.52,74.22,342.73,74.22z M365.06,391.7c0,12.31-10.02,22.33-22.33,22.33
		H157.27c-12.31,0-22.33-10.02-22.33-22.33V108.3c0-12.31,10.02-22.33,22.33-22.33h185.45c12.31,0,22.33,10.02,22.33,22.33V391.7z"
		/>
	<linearGradient id="SVGID_5_" gradientUnits="userSpaceOnUse" x1="130.0046" y1="57.7515" x2="385.1227" y2="422.5703">
		<stop  offset="0" style="stop-color:#00C8A0"/>
		<stop  offset="1" style="stop-color:#002420"/>
	</linearGradient>
	<path class="st6" d="M250,206.14c-12.79,0-23.2,10.41-23.2,23.2c0,12.79,10.41,23.2,23.2,23.2c12.79,0,23.2-10.41,23.2-23.2
		C273.2,216.55,262.79,206.14,250,206.14z M250,240.79c-6.31,0-11.45-5.13-11.45-11.45s5.13-11.45,11.45-11.45
		c6.31,0,11.45,5.13,11.45,11.45S256.31,240.79,250,240.79z"/>
	<linearGradient id="SVGID_6_" gradientUnits="userSpaceOnUse" x1="99.3859" y1="79.1632" x2="354.504" y2="443.9821">
		<stop  offset="0" style="stop-color:#00C8A0"/>
		<stop  offset="1" style="stop-color:#002420"/>
	</linearGradient>
	<path class="st7" d="M295.97,324.75h-46.97l2.42-8.27c47.41-0.76,85.74-39.54,85.74-87.13c0-48.06-39.1-87.16-87.16-87.16
		s-87.17,39.1-87.17,87.16c0,28.07,13.6,54.26,36.02,70.54l-29.42,19.97c-11.88,8.07-19.05,21.34-19.15,35.51
		c-0.11,14.24,6.57,27.14,18.33,35.38c7.59,5.32,16.35,8.05,25.28,8.05c5,0,10.05-0.85,14.99-2.59
		c13.62-4.78,23.72-15.36,27.71-29.02l1.96-6.71h57.41c9.85,0,17.87-8.02,17.87-17.87S305.83,324.75,295.97,324.75z M174.59,229.34
		c0-41.58,33.83-75.41,75.41-75.41s75.41,33.83,75.41,75.41c0,39.94-31.21,72.7-70.51,75.24l15.57-53.3l-61.18,41.53
		C187.78,278.99,174.59,255.07,174.59,229.34z M225.33,363.89c-2.92,9.98-10.32,17.72-20.32,21.23c-10.14,3.56-20.94,2.1-29.63-4
		c-8.55-6-13.41-15.35-13.33-25.67c0.08-10.46,5.18-19.89,14-25.88l73.98-50.21L225.33,363.89z M295.97,348.73H242l3.57-12.23h50.4
		c3.37,0,6.12,2.75,6.12,6.12S299.35,348.73,295.97,348.73z"/>
</g>
</svg>
