<?xml version="1.0" encoding="utf-8"?>
<!-- Generator: Adobe Illustrator 23.0.3, SVG Export Plug-In . SVG Version: 6.00 Build 0)  -->
<svg version="1.1" id="Layer_1" xmlns="http://www.w3.org/2000/svg" xmlns:xlink="http://www.w3.org/1999/xlink" x="0px" y="0px"
	 viewBox="0 0 500 500" style="enable-background:new 0 0 500 500;" xml:space="preserve">
<style type="text/css">
	.st0{fill:none;stroke:#002420;stroke-width:10;stroke-miterlimit:10;}
	.st1{fill:none;stroke:#002420;stroke-width:5;stroke-miterlimit:10;}
	.st2{fill:url(#SVGID_1_);}
	.st3{fill:url(#SVGID_2_);}
	.st4{fill:url(#SVGID_3_);}
	.st5{fill:url(#SVGID_4_);}
	.st6{fill:url(#SVGID_5_);}
	.st7{fill:url(#SVGID_6_);}
	.st8{fill:url(#SVGID_7_);}
	.st9{fill:url(#SVGID_8_);}
	.st10{fill:url(#SVGID_9_);}
	.st11{fill:url(#SVGID_10_);}
	.st12{fill:url(#SVGID_11_);}
	.st13{fill:url(#SVGID_12_);}
	.st14{fill:url(#SVGID_13_);}
	.st15{fill:none;stroke:url(#SVGID_14_);stroke-width:5;stroke-linecap:round;stroke-miterlimit:10;}
	.st16{fill:none;stroke:url(#SVGID_15_);stroke-width:5;stroke-linecap:round;stroke-miterlimit:10;}
	.st17{fill:none;stroke:url(#SVGID_16_);stroke-width:5;stroke-linecap:round;stroke-miterlimit:10;}
	.st18{fill:none;stroke:url(#SVGID_17_);stroke-width:5;stroke-linecap:round;stroke-miterlimit:10;}
	.st19{fill:none;stroke:url(#SVGID_18_);stroke-width:5;stroke-linecap:round;stroke-miterlimit:10;}
	.st20{fill:none;stroke:url(#SVGID_19_);stroke-width:5;stroke-miterlimit:10;}
	.st21{fill:none;stroke:url(#SVGID_20_);stroke-width:5;stroke-miterlimit:10;}
	.st22{fill:none;stroke:url(#SVGID_21_);stroke-width:5;stroke-linecap:round;stroke-miterlimit:10;}
	.st23{fill:none;stroke:url(#SVGID_22_);stroke-width:5;stroke-linecap:round;stroke-miterlimit:10;}
	.st24{fill:none;stroke:url(#SVGID_23_);stroke-width:5;stroke-linecap:round;stroke-miterlimit:10;}
	.st25{fill:none;stroke:url(#SVGID_24_);stroke-width:5;stroke-linecap:round;stroke-miterlimit:10;}
	.st26{fill:none;stroke:url(#SVGID_25_);stroke-width:5;stroke-linecap:round;stroke-miterlimit:10;}
	.st27{fill:none;stroke:url(#SVGID_26_);stroke-width:5;stroke-linecap:round;stroke-miterlimit:10;}
	.st28{fill:none;stroke:url(#SVGID_27_);stroke-width:5;stroke-linecap:round;stroke-miterlimit:10;}
	.st29{fill:none;stroke:url(#SVGID_28_);stroke-width:5;stroke-linecap:round;stroke-miterlimit:10;}
	.st30{fill:none;stroke:url(#SVGID_29_);stroke-width:5;stroke-linecap:round;stroke-miterlimit:10;}
	.st31{fill:none;stroke:url(#SVGID_30_);stroke-width:5;stroke-linecap:round;stroke-miterlimit:10;}
	.st32{fill:none;stroke:url(#SVGID_31_);stroke-width:5;stroke-linecap:round;stroke-miterlimit:10;}
	.st33{fill:none;stroke:url(#SVGID_32_);stroke-width:5;stroke-linecap:round;stroke-miterlimit:10;}
	.st34{fill:none;stroke:url(#SVGID_33_);stroke-width:5;stroke-linecap:round;stroke-miterlimit:10;}
	.st35{fill:none;stroke:url(#SVGID_34_);stroke-width:5;stroke-linecap:round;stroke-miterlimit:10;}
	.st36{fill:none;stroke:url(#SVGID_35_);stroke-width:5;stroke-linecap:round;stroke-miterlimit:10;}
	.st37{fill:none;stroke:url(#SVGID_36_);stroke-width:5;stroke-linecap:round;stroke-miterlimit:10;}
	.st38{fill:none;stroke:url(#SVGID_37_);stroke-width:5;stroke-linecap:round;stroke-miterlimit:10;}
	.st39{fill:none;stroke:url(#SVGID_38_);stroke-width:5;stroke-linecap:round;stroke-miterlimit:10;}
	.st40{fill:none;stroke:url(#SVGID_39_);stroke-width:5;stroke-linecap:round;stroke-miterlimit:10;}
	.st41{fill:none;stroke:url(#SVGID_40_);stroke-width:5;stroke-linecap:round;stroke-miterlimit:10;}
	.st42{fill:none;stroke:url(#SVGID_41_);stroke-width:5;stroke-linecap:round;stroke-miterlimit:10;}
	.st43{fill:url(#SVGID_42_);}
	.st44{fill:url(#SVGID_43_);}
	.st45{fill:url(#SVGID_44_);}
	.st46{fill:url(#SVGID_45_);}
	.st47{fill:url(#SVGID_46_);}
	.st48{fill:url(#SVGID_47_);}
	.st49{fill:url(#SVGID_48_);}
	.st50{fill:url(#SVGID_49_);}
	.st51{fill:url(#SVGID_50_);}
	.st52{fill:url(#SVGID_51_);}
</style>
<g>
	<linearGradient id="SVGID_1_" gradientUnits="userSpaceOnUse" x1="93.1063" y1="76.9074" x2="477.4843" y2="436.3405">
		<stop  offset="0" style="stop-color:#00C8A0"/>
		<stop  offset="1" style="stop-color:#002420"/>
	</linearGradient>
	<path class="st2" d="M403.78,110.07l-307.55,0c-12.8,0-23.21,10.41-23.21,23.21l0,180.69c0,12.8,10.41,23.21,23.21,23.21h132.94
		v18.99h-60.08c-9.31,0-16.88,7.58-16.88,16.89c0,9.31,7.58,16.88,16.88,16.88l161.83,0v-0.15h56.3c14.16,0,25.67-11.52,25.67-25.67
		V335.3c8.35-3.57,14.1-11.87,14.1-21.34V133.28C426.98,120.48,416.57,110.07,403.78,110.07z M261.99,355.57h-23.97v-17.98l23.97,0
		L261.99,355.57z M270.84,337.17h8.1v18.99h-8.1L270.84,337.17z M245.56,230.04h33.38v33.72c-9.91-6.57-21.46-10.4-33.38-11.01
		V230.04z M278.94,221.19h-33.38v-20.1c11.96-0.61,23.48-4.42,33.38-10.99V221.19z M279.39,178.69
		c-9.54,8.07-21.39,12.8-33.84,13.53v-27.6c12.51,0.73,24.37,5.47,33.93,13.59C279.45,178.37,279.42,178.53,279.39,178.69z
		 M236.7,192.06c-11.83-1.13-23.04-5.91-32.05-13.62c8.79-7.55,19.87-12.51,32.05-13.65V192.06z M198.38,184.71
		c10.69,9.34,24.14,15.05,38.33,16.22v20.25h-52.19C184.75,207.28,189.93,194.57,198.38,184.71z M236.7,230.04v22.85
		c-11.93,0.98-23.4,5.18-33.14,12.11c-9.87-8.91-16.64-21.17-18.53-34.96H236.7z M236.7,261.78v17.82
		c-9.41-0.89-18.17-4.05-25.72-8.93C218.7,265.71,227.54,262.65,236.7,261.78z M245.56,261.62c9.9,0.59,19.5,3.73,27.81,9.07
		c-8.31,5.35-17.88,8.48-27.81,9.06V261.62z M161.05,373.05c0-4.43,3.6-8.03,8.03-8.03h109.88c0.22,6.15,2.6,11.75,6.41,16.06
		l-116.29,0C164.66,381.08,161.05,377.47,161.05,373.05z M404.03,364.11c0,9.28-7.55,16.82-16.82,16.82h-82.6
		c-9.28,0-16.82-7.55-16.82-16.82V183.47c0-9.28,7.55-16.82,16.82-16.82h82.6c9.28,0,16.82,7.55,16.82,16.82V364.11z M418.13,313.96
		c0,4.42-2.03,8.42-5.24,11.07V183.47c0-14.16-11.52-25.67-25.67-25.67h-82.6c-9.08,0-17.06,4.74-21.63,11.87
		c-11.64-9.06-25.92-14-40.82-14c-36.68,0-66.53,29.85-66.53,66.53c0,36.68,29.84,66.53,66.53,66.53c13.15,0,25.93-3.9,36.78-11.09
		v50.69H96.22c-7.91,0-14.35-6.44-14.35-14.35l0-180.69c0-7.91,6.44-14.35,14.35-14.35l307.55,0c7.91,0,14.35,6.44,14.35,14.35
		V313.96z"/>
	<linearGradient id="SVGID_2_" gradientUnits="userSpaceOnUse" x1="71.9912" y1="99.4879" x2="456.3691" y2="458.921">
		<stop  offset="0" style="stop-color:#00C8A0"/>
		<stop  offset="1" style="stop-color:#002420"/>
	</linearGradient>
	<path class="st3" d="M345.91,337.01c-10.27,0-18.62,8.35-18.62,18.62s8.35,18.62,18.62,18.62s18.62-8.35,18.62-18.62
		S356.18,337.01,345.91,337.01z M345.91,365.4c-5.39,0-9.77-4.38-9.77-9.77s4.38-9.77,9.77-9.77s9.77,4.38,9.77,9.77
		S351.3,365.4,345.91,365.4z"/>
	<linearGradient id="SVGID_3_" gradientUnits="userSpaceOnUse" x1="155.714" y1="9.9547" x2="540.092" y2="369.3877">
		<stop  offset="0" style="stop-color:#00C8A0"/>
		<stop  offset="1" style="stop-color:#002420"/>
	</linearGradient>
	<path class="st4" d="M371.35,176.88h-50.86c-6.03,0-10.93,4.9-10.93,10.93c0,6.03,4.9,10.93,10.93,10.93h50.86
		c6.03,0,10.93-4.9,10.93-10.93C382.28,181.78,377.37,176.88,371.35,176.88z M371.35,189.89h-50.86c-1.13,0-2.08-0.95-2.08-2.08
		c0-1.13,0.95-2.08,2.08-2.08h50.86c1.13,0,2.08,0.95,2.08,2.08C373.43,188.94,372.47,189.89,371.35,189.89z"/>
</g>
</svg>
