<svg width="148" height="148" viewBox="0 0 148 148" fill="none" xmlns="http://www.w3.org/2000/svg">
<path d="M112.646 60.544L103.707 69.4862V57.809H119.383L78.1441 16.5732L36.9083 57.809H52.5845V71.0905L43.888 62.397L21.9751 84.3099H30.272V116.494H32.0717V82.5102H26.3174L43.888 64.9396L52.5845 73.6361V126.922H56.1809V54.2126H45.5929L78.1441 21.6615L110.695 54.2126H100.107V126.922H103.707V72.0288L112.646 63.0896L130.841 81.2848H124.865V116.494H126.661V83.0844H135.183L112.646 60.544Z" fill="url(#paint0_linear_761_131)"/>
<path d="M85.2984 84.0644C84.5495 83.5079 83.7089 83.055 82.7735 82.7028C81.8381 82.3535 80.8939 82.0338 79.9408 81.7378L80.6364 73.5031C81.1514 73.6215 81.6221 73.7754 82.0483 73.9619C82.4716 74.1454 82.8593 74.3289 83.2116 74.5095C83.5638 74.6871 83.8746 74.841 84.144 74.9653C84.4163 75.0926 84.6531 75.1518 84.8514 75.1518C85.1149 75.1518 85.3428 75.0867 85.5263 74.9535C85.7128 74.8203 85.8992 74.619 86.0857 74.3586L87.2786 72.547C86.5238 71.8307 85.6358 71.1913 84.6146 70.6201C83.5934 70.0517 82.3828 69.6521 80.9768 69.4301L81.3142 65.5229H79.5057C79.1209 65.5229 78.8101 65.6502 78.5733 65.9048C78.3335 66.1593 78.2003 66.4494 78.1766 66.7691L77.9576 69.2999C76.5013 69.2999 75.2077 69.5456 74.0829 70.0369C72.9552 70.5283 72.008 71.1558 71.2384 71.9136C70.4688 72.6713 69.8856 73.5327 69.4801 74.4947C69.0746 75.4597 68.8733 76.4483 68.8733 77.4577C68.8733 78.8133 69.0983 79.947 69.5482 80.8498C69.9981 81.7556 70.5931 82.5045 71.3272 83.0965C72.0613 83.6885 72.8901 84.165 73.8106 84.5232C74.7312 84.8813 75.6606 85.1921 76.6019 85.4585L75.8471 94.3652C75.1041 94.232 74.4618 94.0248 73.9201 93.7465C73.3755 93.4683 72.893 93.1901 72.4697 92.9118C72.0465 92.6336 71.6676 92.3938 71.3361 92.1866C71.0045 91.9824 70.6908 91.8788 70.4007 91.8788C70.1639 91.8788 69.936 91.9409 69.714 92.0653C69.4949 92.1925 69.3203 92.3524 69.1871 92.5537L67.6775 94.8033C68.6306 95.7445 69.788 96.5319 71.1466 97.1683C72.5053 97.8047 73.9586 98.231 75.5097 98.4411L75.1515 102.695H76.9601C77.3449 102.695 77.6557 102.564 77.8954 102.307C78.1322 102.049 78.2654 101.765 78.2921 101.463L78.5288 98.5418C80.0118 98.4352 81.332 98.1244 82.4834 97.6064C83.6378 97.0884 84.6087 96.4165 85.3961 95.5877C86.1834 94.7589 86.7843 93.8058 87.1957 92.7254C87.6072 91.6479 87.8114 90.4906 87.8114 89.2562C87.8114 88.0101 87.5776 86.9741 87.1158 86.1482C86.6541 85.3165 86.0473 84.6209 85.2984 84.0644ZM76.9808 80.7847C76.4746 80.6012 76.0129 80.394 75.5866 80.1601C75.1633 79.9263 74.7963 79.6629 74.4855 79.3639C74.1747 79.0649 73.932 78.7246 73.7603 78.3398C73.5886 77.955 73.5028 77.511 73.5028 77.0078C73.5028 76.5697 73.5797 76.1582 73.7337 75.7646C73.8846 75.3738 74.1273 75.0216 74.4589 74.6989C74.7904 74.3822 75.2137 74.1129 75.7317 73.8938C76.2467 73.6777 76.8713 73.5179 77.5994 73.4291L76.9808 80.7847ZM82.0779 93.0065C81.3557 93.7673 80.293 94.2438 78.887 94.4274L79.5619 86.3584C80.0799 86.5301 80.5565 86.7195 80.9945 86.9356C81.4326 87.1458 81.8144 87.3973 82.1371 87.6904C82.4627 87.9834 82.7143 88.3179 82.8919 88.6968C83.0725 89.0727 83.1613 89.5167 83.1613 90.0169C83.1613 91.2453 82.8001 92.2429 82.0779 93.0065Z" fill="url(#paint1_linear_761_131)"/>
<path d="M47.7597 89.8423C47.3926 89.57 46.9782 89.345 46.5194 89.1733C46.0606 89.0017 45.5959 88.8448 45.1282 88.6997L45.4686 84.6564C45.7232 84.7156 45.9541 84.7896 46.1613 84.8813C46.3685 84.9731 46.5609 85.0619 46.7326 85.1507C46.9042 85.2395 47.0582 85.3135 47.1914 85.3757C47.3246 85.4378 47.44 85.4674 47.5377 85.4674C47.6679 85.4674 47.7774 85.4349 47.8692 85.3697C47.961 85.3046 48.0527 85.2069 48.1445 85.0767L48.7306 84.1857C48.3606 83.8335 47.9225 83.5197 47.4222 83.2385C46.922 82.9603 46.327 82.762 45.6374 82.6525L45.8031 80.7344H44.9151C44.7257 80.7344 44.5747 80.7965 44.4563 80.9209C44.3379 81.0452 44.2728 81.1873 44.261 81.3441L44.1544 82.5873C43.4381 82.5873 42.8046 82.7087 42.2511 82.9485C41.6976 83.1912 41.2329 83.499 40.854 83.869C40.4781 84.242 40.188 84.6623 39.9897 85.1359C39.7914 85.6095 39.6907 86.0949 39.6907 86.5922C39.6907 87.2582 39.8002 87.8147 40.0222 88.2587C40.2442 88.7027 40.5343 89.0697 40.8954 89.3628C41.2566 89.6529 41.6621 89.8867 42.115 90.0643C42.5678 90.2419 43.0237 90.3929 43.4854 90.5231L43.1154 94.898C42.7514 94.8329 42.4346 94.7322 42.1682 94.5931C41.9018 94.4569 41.665 94.3208 41.4549 94.1846C41.2477 94.0485 41.0612 93.9301 40.8984 93.8294C40.7356 93.7288 40.5817 93.6785 40.4396 93.6785C40.3242 93.6785 40.2117 93.7081 40.1022 93.7702C39.9956 93.8324 39.9098 93.9123 39.8446 94.01L39.1017 95.1141C39.5694 95.5758 40.1377 95.9636 40.8037 96.2744C41.4697 96.5881 42.186 96.7953 42.9467 96.8989L42.7721 98.9887H43.6601C43.8495 98.9887 44.0005 98.9265 44.1189 98.7993C44.2343 98.672 44.2994 98.5329 44.3142 98.3849L44.4297 96.9493C45.1578 96.896 45.8061 96.745 46.3714 96.4905C46.9368 96.2359 47.4134 95.9044 47.8011 95.4989C48.1889 95.0933 48.4819 94.6227 48.6832 94.0929C48.8845 93.563 48.9851 92.9947 48.9851 92.3909C48.9851 91.7781 48.8697 91.272 48.6447 90.8635C48.4257 90.458 48.1267 90.1176 47.7597 89.8423ZM43.6749 88.2321C43.4262 88.1403 43.1983 88.0397 42.9911 87.9242C42.7839 87.8088 42.6034 87.6785 42.4494 87.5335C42.2955 87.3885 42.1771 87.2197 42.0913 87.0303C42.0054 86.8409 41.964 86.6248 41.964 86.3761C41.964 86.163 42.0025 85.9588 42.0765 85.7664C42.1505 85.574 42.2689 85.4023 42.4317 85.2425C42.5945 85.0856 42.8017 84.9553 43.0562 84.8458C43.3108 84.7393 43.6157 84.6623 43.9738 84.6179L43.6749 88.2321ZM46.179 94.232C45.8238 94.6049 45.3029 94.8388 44.6102 94.9305L44.9418 90.9671C45.1963 91.05 45.4302 91.1447 45.6462 91.2513C45.8594 91.3549 46.0488 91.4792 46.2057 91.6213C46.3655 91.7663 46.4898 91.9291 46.5757 92.1156C46.6645 92.2991 46.7089 92.5181 46.7089 92.7638C46.7089 93.3677 46.5342 93.859 46.179 94.232Z" fill="url(#paint2_linear_761_131)"/>
<path d="M116.162 89.8423C115.795 89.57 115.381 89.345 114.922 89.1733C114.463 89.0017 113.999 88.8448 113.531 88.6997L113.871 84.6564C114.126 84.7156 114.357 84.7896 114.564 84.8813C114.771 84.9731 114.963 85.0619 115.135 85.1507C115.307 85.2395 115.461 85.3135 115.594 85.3757C115.727 85.4378 115.843 85.4674 115.94 85.4674C116.071 85.4674 116.18 85.4349 116.272 85.3697C116.364 85.3046 116.455 85.2069 116.547 85.0767L117.133 84.1857C116.763 83.8335 116.325 83.5197 115.825 83.2385C115.325 82.9603 114.73 82.762 114.04 82.6525L114.206 80.7344H113.318C113.128 80.7344 112.977 80.7965 112.859 80.9209C112.741 81.0452 112.675 81.1873 112.664 81.3441L112.557 82.5873C111.841 82.5873 111.207 82.7087 110.654 82.9485C110.1 83.1912 109.635 83.499 109.257 83.869C108.881 84.242 108.591 84.6623 108.392 85.1359C108.194 85.6095 108.093 86.0949 108.093 86.5922C108.093 87.2582 108.203 87.8147 108.425 88.2587C108.647 88.7027 108.937 89.0697 109.298 89.3628C109.659 89.6529 110.065 89.8867 110.518 90.0643C110.97 90.2419 111.426 90.3929 111.888 90.5231L111.518 94.898C111.154 94.8329 110.837 94.7322 110.571 94.5931C110.304 94.454 110.068 94.3208 109.857 94.1846C109.65 94.0485 109.464 93.9301 109.301 93.8294C109.138 93.7288 108.984 93.6785 108.842 93.6785C108.727 93.6785 108.614 93.7081 108.505 93.7702C108.398 93.8324 108.312 93.9123 108.247 94.01L107.504 95.1141C107.972 95.5758 108.54 95.9636 109.206 96.2744C109.872 96.5881 110.589 96.7953 111.349 96.8989L111.175 98.9887H112.063C112.252 98.9887 112.403 98.9265 112.521 98.7993C112.637 98.672 112.702 98.5329 112.717 98.3849L112.832 96.9493C113.56 96.896 114.209 96.745 114.774 96.4905C115.339 96.2359 115.816 95.9044 116.204 95.4989C116.591 95.0933 116.885 94.6227 117.086 94.0929C117.287 93.563 117.388 92.9947 117.388 92.3909C117.388 91.7781 117.272 91.272 117.047 90.8635C116.828 90.458 116.529 90.1176 116.162 89.8423ZM112.077 88.2321C111.829 88.1403 111.601 88.0397 111.394 87.9242C111.187 87.8088 111.006 87.6785 110.852 87.5335C110.698 87.3885 110.58 87.2197 110.494 87.0303C110.408 86.8409 110.367 86.6248 110.367 86.3761C110.367 86.163 110.405 85.9588 110.479 85.7664C110.553 85.574 110.671 85.4023 110.834 85.2425C110.997 85.0856 111.204 84.9553 111.459 84.8458C111.713 84.7393 112.018 84.6623 112.376 84.6179L112.077 88.2321ZM114.582 94.232C114.226 94.6049 113.705 94.8388 113.013 94.9305L113.344 90.9671C113.599 91.05 113.833 91.1447 114.049 91.2513C114.262 91.3549 114.451 91.4792 114.608 91.6213C114.768 91.7663 114.892 91.9291 114.978 92.1156C115.067 92.2991 115.111 92.5181 115.111 92.7638C115.111 93.3677 114.934 93.859 114.582 94.232Z" fill="url(#paint3_linear_761_131)"/>
<defs>
<linearGradient id="paint0_linear_761_131" x1="26.155" y1="39.2077" x2="131.08" y2="141.413" gradientUnits="userSpaceOnUse">
<stop stop-color="#00C8A0"/>
<stop offset="1" stop-color="#002420"/>
</linearGradient>
<linearGradient id="paint1_linear_761_131" x1="29.0665" y1="36.2188" x2="133.991" y2="138.424" gradientUnits="userSpaceOnUse">
<stop stop-color="#00C8A0"/>
<stop offset="1" stop-color="#002420"/>
</linearGradient>
<linearGradient id="paint2_linear_761_131" x1="9.66428" y1="56.1374" x2="114.589" y2="158.343" gradientUnits="userSpaceOnUse">
<stop stop-color="#00C8A0"/>
<stop offset="1" stop-color="#002420"/>
</linearGradient>
<linearGradient id="paint3_linear_761_131" x1="42.9672" y1="21.9483" x2="147.892" y2="124.153" gradientUnits="userSpaceOnUse">
<stop stop-color="#00C8A0"/>
<stop offset="1" stop-color="#002420"/>
</linearGradient>
</defs>
</svg>
