<svg width="148" height="148" viewBox="0 0 148 148" fill="none" xmlns="http://www.w3.org/2000/svg">
<path d="M45.9421 64.3298C51.5721 64.3298 58.5162 60.3042 60.7688 54.3072C64.2172 57.8651 69.042 60.0822 74.3759 60.0822C79.6151 60.0822 84.3659 57.945 87.7995 54.4966C89.83 59.9075 96.2325 64.3268 102.286 64.3268C110.58 64.3268 117.328 57.578 117.328 49.2811C117.328 40.9842 110.58 34.2384 102.286 34.2384C98.8314 34.2384 95.5843 35.3987 92.9765 37.4589C91.2656 28.7535 83.5756 22.1646 74.3759 22.1646C65.046 22.1646 57.273 28.94 55.7101 37.8289C53.0313 35.5319 49.6037 34.2384 45.9421 34.2384C37.6482 34.2384 30.8994 40.9872 30.8994 49.2811C30.8994 57.575 37.6482 64.3298 45.9421 64.3298ZM102.286 35.9996C109.612 35.9996 115.57 41.9581 115.57 49.2841C115.57 56.6101 109.612 62.5686 102.286 62.5686C96.6351 62.5686 90.6411 58.2588 89.1996 53.1587L88.9568 53.2268C91.6889 49.9412 93.3347 45.7202 93.3347 41.1234C93.3347 40.5846 93.308 40.0548 93.2636 39.5279C95.682 37.2813 98.8699 35.9996 102.286 35.9996ZM74.3759 26.273C82.5662 26.273 89.2292 32.936 89.2292 41.1263C89.2292 49.3166 82.5662 55.9796 74.3759 55.9796C66.1856 55.9796 59.5226 49.3166 59.5226 41.1263C59.5226 32.936 66.1885 26.273 74.3759 26.273ZM45.9421 35.9996C49.5948 35.9996 52.981 37.4648 55.4526 40.0104C55.4319 40.3804 55.4171 40.7504 55.4171 41.1263C55.4171 45.5071 56.9149 49.5446 59.422 52.7591C57.8739 58.5814 51.2553 62.5715 45.9421 62.5715C38.6161 62.5715 32.6577 56.613 32.6577 49.287C32.6577 41.961 38.6191 35.9996 45.9421 35.9996Z" fill="url(#paint0_linear_762_6)"/>
<path d="M102.383 67.8818C99.2044 67.8818 96.0816 68.5803 93.2252 69.9005C88.3086 64.9484 81.5036 61.8789 73.9911 61.8789C66.4816 61.8789 59.6795 64.9484 54.7629 69.8946C51.9095 68.5803 48.7926 67.8847 45.6195 67.8847C33.5545 67.8847 23.7362 77.7001 23.7362 89.768V109.772C23.7362 115.298 28.2324 119.791 33.7558 119.791H48.1325C50.0003 123.379 53.7447 125.839 58.0604 125.839H89.9129C94.2286 125.839 97.976 123.379 99.8408 119.791H114.241C119.767 119.791 124.261 115.295 124.261 109.772V89.768C124.264 77.7001 114.448 67.8818 102.383 67.8818ZM33.7558 118.027C29.2004 118.027 25.4944 114.321 25.4944 109.766V89.7621C25.4944 78.668 34.5224 69.64 45.6165 69.64C48.3427 69.64 51.0244 70.1906 53.5049 71.2473C49.3757 76.007 46.8656 82.2111 46.8656 88.9955V100.889C43.956 98.4793 41.5968 95.3891 40.0488 91.7986L44.2549 90.9876L36.5944 82.146L32.7672 93.1987L37.1124 92.361C39.143 97.393 42.5766 101.587 46.8656 104.559V114.635C46.8656 115.816 47.0521 116.953 47.3925 118.021H33.7558V118.027ZM89.9159 121.727H58.0604C54.1532 121.727 50.9741 118.548 50.9741 114.641V106.915C54.4817 108.531 58.3623 109.419 62.3997 109.419H66.1204V106.486H62.3997C58.3179 106.486 54.4166 105.468 50.9741 103.639V88.9984C50.9741 76.3089 61.2986 65.9844 73.9881 65.9844C86.6776 65.9844 97.0021 76.3089 97.0021 88.9984V103.645C93.5656 105.468 89.6702 106.486 85.5913 106.486H81.8706V109.419H85.5913C89.6228 109.419 93.5004 108.534 97.0021 106.921V114.641C97.0021 118.548 93.8231 121.727 89.9159 121.727ZM122.505 109.766C122.505 114.321 118.8 118.027 114.244 118.027H100.581C100.921 116.959 101.108 115.822 101.108 114.641V104.574C105.406 101.602 108.842 97.4019 110.876 92.3669L115.221 93.2046L111.394 82.1519L103.733 90.9905L107.939 91.8015C106.388 95.3979 104.023 98.4941 101.108 100.904V88.9984C101.108 82.22 98.6005 76.0188 94.4743 71.2591C96.9607 70.1965 99.6484 69.643 102.38 69.643C113.475 69.643 122.503 78.671 122.503 89.7651V109.766H122.505Z" fill="url(#paint1_linear_762_6)"/>
<defs>
<linearGradient id="paint0_linear_762_6" x1="50.6342" y1="20.1544" x2="131.519" y2="120.505" gradientUnits="userSpaceOnUse">
<stop stop-color="#00C8A0"/>
<stop offset="1" stop-color="#002420"/>
</linearGradient>
<linearGradient id="paint1_linear_762_6" x1="26.921" y1="39.2678" x2="107.806" y2="139.619" gradientUnits="userSpaceOnUse">
<stop stop-color="#00C8A0"/>
<stop offset="1" stop-color="#002420"/>
</linearGradient>
</defs>
</svg>
