<svg width="184" height="94" viewBox="0 0 184 94" fill="none" xmlns="http://www.w3.org/2000/svg">
<path d="M0.128194 33.062V32.6152C0.128194 31.9769 0.363215 31.4238 0.833259 30.9557C1.3033 30.4876 1.85881 30.2536 2.49978 30.2536H2.82026L2.88436 30.5089C3.73898 32.9343 4.99955 34.6151 6.66607 35.5512C8.33259 36.4873 10.4264 36.9554 12.9476 36.9554C13.7595 36.9554 14.5713 36.8703 15.3832 36.7001C16.2379 36.5299 16.9857 36.2533 17.6266 35.8703C18.3103 35.4874 18.8658 34.9767 19.2931 34.3385C19.7205 33.7002 19.9341 32.913 19.9341 31.9769C19.9341 31.0408 19.7632 30.2111 19.4213 29.4877C19.0795 28.7218 18.6094 28.0622 18.0112 27.5091C17.4557 26.9134 16.8147 26.3815 16.0883 25.9134C15.3619 25.4028 14.6354 24.9348 13.909 24.5093L6.92246 20.4244C5.89691 19.8287 4.95682 19.2117 4.1022 18.5734C3.2903 17.8926 2.58524 17.148 1.987 16.3395C1.38876 15.531 0.918721 14.6375 0.576872 13.6588C0.277753 12.6801 0.128194 11.5738 0.128194 10.3398C0.128194 8.72291 0.427312 7.27619 1.02555 5.99966C1.62379 4.72314 2.43568 3.63809 3.46123 2.74453C4.52951 1.85096 5.74735 1.17015 7.11475 0.70209C8.52488 0.23403 9.99911 0 11.5374 0C13.1612 0 14.5713 0.127653 15.7678 0.38296C16.9643 0.638264 17.9685 0.957394 18.7804 1.34035C19.635 1.68076 20.3187 2.06372 20.8315 2.48922C21.387 2.91473 21.8357 3.29769 22.1775 3.63809C22.7757 4.27636 23.2458 4.91462 23.5876 5.55288C23.9722 6.14859 24.1645 6.80813 24.1645 7.53149C24.1645 8.08465 23.9509 8.57399 23.5235 8.99949C23.0962 9.425 22.6048 9.63775 22.0493 9.63775H21.3442L21.2161 9.38245C20.3614 7.16981 19.1436 5.55288 17.5625 4.53166C15.9815 3.51044 13.9731 2.99983 11.5374 2.99983C10.7683 2.99983 9.99911 3.14876 9.22995 3.44661C8.50351 3.74447 7.84118 4.1487 7.24294 4.65931C6.68744 5.16992 6.21739 5.78691 5.83281 6.51027C5.49096 7.19108 5.32004 7.93572 5.32004 8.74419C5.32004 10.1484 5.76872 11.3398 6.66607 12.3185C7.60616 13.2546 9.18721 14.4034 11.4092 15.7651L18.3958 19.9138C19.3786 20.4669 20.2973 21.0626 21.152 21.7009C22.0493 22.2966 22.8185 22.9774 23.4594 23.7433C24.1431 24.5093 24.6773 25.3603 25.0619 26.2964C25.4464 27.2325 25.6387 28.3176 25.6387 29.5515C25.6387 31.3387 25.3183 32.8918 24.6773 34.2108C24.0363 35.4874 23.1603 36.5511 22.0493 37.4021C20.9383 38.2957 19.635 38.934 18.1394 39.3169C16.6865 39.7424 15.1269 39.9552 13.4603 39.9552C12.4348 39.9552 11.1529 39.8701 9.61453 39.6999C8.11893 39.5297 6.66607 39.1893 5.25594 38.6787C3.84581 38.1681 2.62797 37.466 1.60242 36.5724C0.619603 35.6788 0.128194 34.5087 0.128194 33.062Z" fill="white"/>
<path d="M30.9998 1.08505H31.4485C32.6023 1.08505 33.6064 1.25525 34.4611 1.59566C35.3584 1.89351 36.0208 2.63815 36.4481 3.82957C36.5763 4.29763 36.6831 4.91462 36.7686 5.68053C36.854 6.4039 36.8967 7.25491 36.8967 8.23358V35.615C36.8967 36.5511 37.2172 37.3383 37.8582 37.9766C38.4992 38.6574 39.2897 39.0191 40.2298 39.0616H27.6668C28.6069 39.0191 29.3974 38.6574 30.0384 37.9766C30.6794 37.3383 30.9998 36.5511 30.9998 35.615V4.46783C30.9998 3.53172 30.6794 2.74453 30.0384 2.10626C29.3974 1.468 28.6069 1.1276 27.6668 1.08505H30.9998Z" fill="white"/>
<path d="M55.266 11.2334C57.3598 11.2334 59.1973 11.6164 60.7783 12.3823C62.3594 13.1482 63.6841 14.1694 64.7523 15.4459C65.8633 16.7225 66.6966 18.233 67.2521 19.9776C67.8076 21.6796 68.0854 23.488 68.0854 25.4028C68.0854 27.3602 67.7862 29.2111 67.188 30.9557C66.6325 32.6577 65.7992 34.1683 64.6882 35.4874C63.62 36.7639 62.2739 37.7638 60.6501 38.4872C59.0691 39.2531 57.2744 39.6361 55.266 39.6361C53.1722 39.6361 51.3134 39.2531 49.6896 38.4872C48.1085 37.7213 46.7625 36.7001 45.6515 35.4235C44.5832 34.1045 43.7713 32.5939 43.2158 30.8919C42.6603 29.1473 42.3825 27.3176 42.3825 25.4028C42.3825 23.4029 42.6603 21.552 43.2158 19.8499C43.814 18.1054 44.6687 16.5948 45.7797 15.3183C46.8907 14.0418 48.2367 13.0418 49.8178 12.3185C51.3988 11.5951 53.2149 11.2334 55.266 11.2334ZM55.266 36.5724C56.5479 36.5724 57.6162 36.1894 58.4708 35.4235C59.3255 34.6151 60.0092 33.6364 60.5219 32.4875C61.0347 31.3387 61.3979 30.126 61.6116 28.8494C61.8252 27.5729 61.9321 26.424 61.9321 25.4028C61.9321 24.4242 61.8252 23.2966 61.6116 22.02C61.3979 20.701 61.0347 19.467 60.5219 18.3181C60.0092 17.1692 59.3255 16.2119 58.4708 15.4459C57.6162 14.6375 56.5479 14.2332 55.266 14.2332C53.9841 14.2332 52.8944 14.6375 51.9971 15.4459C51.1424 16.2119 50.4587 17.1692 49.946 18.3181C49.4332 19.4244 49.07 20.6371 48.8563 21.9562C48.6427 23.2327 48.5358 24.3816 48.5358 25.4028C48.5358 26.424 48.6427 27.5729 48.8563 28.8494C49.07 30.126 49.4332 31.3387 49.946 32.4875C50.4587 33.6364 51.1424 34.6151 51.9971 35.4235C52.8944 36.1894 53.9841 36.5724 55.266 36.5724Z" fill="white"/>
<path d="M69.6527 14.8077V11.744H73.6267V8.80801C73.6267 7.61659 74.0327 6.51027 74.8446 5.48905L75.101 5.16992C76.1265 3.93595 77.4512 3.31896 79.075 3.31896H82.8567C81.9166 3.36151 81.1261 3.7232 80.4851 4.40401C79.8441 5.04227 79.5237 5.82946 79.5237 6.76558V11.744H86.3179V14.8077H79.5237V31.9131C79.5237 35.0193 80.6988 36.5724 83.049 36.5724C83.9036 36.5724 84.6087 36.4873 85.1642 36.3171C85.7624 36.1894 86.4247 35.9129 87.1512 35.4874L87.4717 35.2959L87.6639 35.6788C87.8776 36.1043 87.899 36.5086 87.728 36.8915C87.5998 37.317 87.3435 37.6787 86.9589 37.9766C86.1043 38.6148 85.1214 39.0404 84.0104 39.2531C82.8994 39.5084 81.8311 39.6361 80.8056 39.6361C78.3272 39.6361 76.5111 38.934 75.3574 37.5298C74.2036 36.1682 73.6267 34.2959 73.6267 31.9131V14.8077H69.6527Z" fill="white"/>
<path d="M101.185 11.2334C105.244 11.2334 108.214 12.3823 110.094 14.68C111.975 16.9778 112.915 20.084 112.915 23.9986L112.786 26.6155H95.6085C95.6512 27.7218 95.8007 28.8707 96.0571 30.0621C96.3135 31.2536 96.7195 32.3386 97.275 33.3173C97.8305 34.2534 98.5569 35.0406 99.4543 35.6788C100.394 36.2745 101.527 36.5724 102.851 36.5724C104.603 36.5724 106.056 36.1894 107.21 35.4235C108.406 34.6576 109.496 33.5938 110.479 32.2322L112.466 33.1896L112.274 33.5087C111.034 35.5512 109.582 37.083 107.915 38.1042C106.249 39.1255 104.197 39.6361 101.762 39.6361C99.6679 39.6361 97.8518 39.2318 96.3135 38.4234C94.7752 37.6574 93.4933 36.6362 92.4677 35.3597C91.4422 34.0406 90.673 32.5301 90.1602 30.828C89.6902 29.0835 89.4552 27.2751 89.4552 25.4028C89.4552 23.6157 89.6902 21.8711 90.1602 20.1691C90.673 18.467 91.3994 16.9565 92.3395 15.6374C93.3223 14.3183 94.5402 13.2546 95.993 12.4461C97.4886 11.6376 99.2192 11.2334 101.185 11.2334ZM95.6085 23.6157H106.697C106.697 22.7221 106.633 21.7222 106.505 20.6159C106.377 19.5095 106.12 18.4883 105.736 17.5522C105.351 16.6161 104.796 15.8289 104.069 15.1906C103.343 14.5524 102.381 14.2332 101.185 14.2332C100.117 14.2332 99.2192 14.5736 98.4928 15.2545C97.8091 15.8927 97.2536 16.7012 96.8263 17.6799C96.4417 18.6585 96.1426 19.6797 95.9289 20.7435C95.758 21.8073 95.6512 22.7647 95.6085 23.6157Z" fill="white"/>
<path d="M118.507 35.615V15.063C118.464 14.1694 118.122 13.4248 117.481 12.8291C116.841 12.1908 116.071 11.8291 115.174 11.744H118.892C119.661 11.744 120.323 11.8078 120.879 11.9355C121.434 12.0206 121.926 12.1695 122.353 12.3823C122.994 12.7227 123.528 13.3184 123.955 14.1694C124.81 13.1482 125.835 12.4036 127.032 11.9355C128.228 11.4674 129.489 11.2334 130.814 11.2334C132.48 11.2334 133.677 11.5313 134.403 12.127H134.467C135.194 12.7227 135.557 13.4886 135.557 14.4247C135.557 15.4459 135.151 16.2544 134.339 16.8501L133.826 17.2331L133.57 16.9139C133.185 16.2757 132.566 15.8714 131.711 15.7012C130.856 15.4885 130.087 15.3821 129.404 15.3821C128.421 15.3821 127.481 15.5949 126.583 16.0204C125.686 16.4459 124.959 17.0841 124.404 17.9352V35.615C124.404 36.5511 124.724 37.3383 125.365 37.9766C126.006 38.6574 126.797 39.0191 127.737 39.0616H115.174C116.114 39.0191 116.905 38.6574 117.546 37.9766C118.187 37.3383 118.507 36.5511 118.507 35.615Z" fill="white"/>
<path d="M140.165 35.615V15.063C140.122 14.1694 139.78 13.4248 139.139 12.8291C138.498 12.1908 137.729 11.8291 136.832 11.744H140.549C141.318 11.744 141.981 11.8078 142.536 11.9355C143.092 12.0206 143.583 12.1695 144.011 12.3823C144.652 12.7227 145.186 13.3184 145.613 14.1694C146.468 13.1482 147.493 12.4036 148.69 11.9355C149.886 11.4674 151.147 11.2334 152.471 11.2334C154.138 11.2334 155.334 11.5313 156.061 12.127H156.125C156.851 12.7227 157.215 13.4886 157.215 14.4247C157.215 15.4459 156.809 16.2544 155.997 16.8501L155.484 17.2331L155.228 16.9139C154.843 16.2757 154.223 15.8714 153.369 15.7012C152.514 15.4885 151.745 15.3821 151.061 15.3821C150.078 15.3821 149.138 15.5949 148.241 16.0204C147.344 16.4459 146.617 17.0841 146.062 17.9352V35.615C146.062 36.5511 146.382 37.3383 147.023 37.9766C147.664 38.6574 148.455 39.0191 149.395 39.0616H136.832C137.772 39.0191 138.562 38.6574 139.203 37.9766C139.844 37.3383 140.165 36.5511 140.165 35.615Z" fill="white"/>
<path d="M158.618 31.3387C158.618 29.4664 159.13 27.9984 160.156 26.9347C161.182 25.8283 162.442 24.9986 163.938 24.4454C165.433 23.8497 167.036 23.4668 168.745 23.2966C170.454 23.1264 172.014 23.0413 173.424 23.0413H174.77C174.77 22.0626 174.706 21.0626 174.578 20.0414C174.492 18.9777 174.257 18.0203 173.873 17.1692C173.488 16.3182 172.933 15.6161 172.206 15.063C171.48 14.5098 170.476 14.2332 169.194 14.2332C168.211 14.2332 167.249 14.4034 166.309 14.7438C165.412 15.0417 164.707 15.6374 164.194 16.531L164.066 16.7225H163.104C162.164 16.7225 161.523 16.297 161.182 15.4459C160.84 14.6375 160.968 13.9354 161.566 13.3397C162.036 12.8716 162.634 12.5099 163.361 12.2546C164.13 11.9568 164.921 11.744 165.732 11.6164C166.544 11.4462 167.356 11.3398 168.168 11.2972C168.98 11.2547 169.706 11.2334 170.347 11.2334C172.356 11.2334 174.022 11.5313 175.347 12.127C176.672 12.6801 177.719 13.4886 178.488 14.5524C179.3 15.6161 179.855 16.9139 180.154 18.4458C180.496 19.935 180.667 21.5945 180.667 23.4242V35.615C180.667 36.5511 180.987 37.3383 181.628 37.9766C182.269 38.6574 183.06 39.0191 184 39.0616H180.218C179.278 39.0616 178.381 38.8489 177.526 38.4234C176.714 37.9979 176.009 37.4234 175.411 36.7001C174.172 37.7638 172.89 38.5085 171.565 38.934C170.283 39.402 168.83 39.6361 167.207 39.6361C165.925 39.6361 164.664 39.3595 163.425 38.8063C161.801 38.2106 160.583 37.2532 159.771 35.9341C159.002 34.5725 158.618 33.0407 158.618 31.3387ZM166.181 35.0406C167.249 35.8916 168.446 36.3171 169.77 36.3171C170.882 36.3171 171.843 36.0405 172.655 35.4874C173.424 34.8916 174.129 34.1257 174.77 33.1896V26.1049H173.424C172.612 26.1049 171.693 26.19 170.668 26.3602C169.685 26.4879 168.745 26.7432 167.848 27.1261C166.993 27.5091 166.267 28.041 165.668 28.7218C165.07 29.4026 164.771 30.2749 164.771 31.3387C164.771 32.8705 165.241 34.1045 166.181 35.0406Z" fill="white"/>
<path d="M17.9471 53.7895C19.4854 53.7895 20.9383 53.8959 22.3057 54.1086C23.6731 54.2788 24.9123 54.598 26.0233 55.066C26.8779 55.3639 27.6471 55.7894 28.3308 56.3426C29.0572 56.8532 29.6982 57.3851 30.2537 57.9382C30.8092 58.4914 31.2365 59.0233 31.5356 59.5339C31.8775 60.0445 32.0912 60.47 32.1766 60.8104C32.3903 61.4912 32.2621 62.1082 31.792 62.6614C31.4075 63.2571 30.8306 63.5549 30.0614 63.5549H29.805L29.7409 63.2996C27.9035 58.9594 24.5491 56.7893 19.6777 56.7893C15.7037 56.7893 12.4989 58.1722 10.0632 60.938C7.67026 63.7889 6.47378 68.2993 6.47378 74.4692C6.47378 76.5542 6.73017 78.5966 7.24294 80.5965C7.75572 82.5539 8.54625 84.3197 9.61453 85.8941C10.6828 87.4259 12.0502 88.6599 13.7167 89.596C15.3832 90.5321 17.3702 91.0002 19.6777 91.0002C22.5835 91.0002 24.9978 90.3194 26.9207 88.9577C28.8436 87.5536 30.5528 85.66 32.0484 83.2772L33.9072 84.4899C32.1553 87.8514 29.9973 90.2768 27.4334 91.7661C24.9123 93.2554 21.7502 94 17.9471 94C15.0841 94 12.5416 93.4681 10.3196 92.4044C8.09757 91.3831 6.21739 89.979 4.67907 88.1918C3.14075 86.4047 1.96564 84.341 1.15374 82.0007C0.384581 79.6178 0 77.1073 0 74.4692C0 71.9161 0.405947 69.4056 1.21784 66.9377C2.07246 64.4272 3.26894 62.2146 4.80726 60.2998C6.38832 58.3424 8.28986 56.7681 10.5119 55.5766C12.7339 54.3852 15.2123 53.7895 17.9471 53.7895Z" fill="white"/>
<path d="M35.9323 85.192C35.9323 83.3198 36.4451 81.8518 37.4706 80.788C38.4962 79.6817 39.7567 78.8519 41.2523 78.2988C42.7479 77.7031 44.3503 77.3201 46.0596 77.1499C47.7688 76.9797 49.3285 76.8946 50.7387 76.8946H52.0847C52.0847 75.9159 52.0206 74.916 51.8924 73.8948C51.8069 72.831 51.5719 71.8736 51.1873 71.0226C50.8028 70.1716 50.2472 69.4695 49.5208 68.9163C48.7944 68.3632 47.7902 68.0866 46.5083 68.0866C45.5255 68.0866 44.564 68.2568 43.6239 68.5972C42.7266 68.895 42.0215 69.4908 41.5087 70.3843L41.3805 70.5758H40.4191C39.479 70.5758 38.838 70.1503 38.4962 69.2993C38.1543 68.4908 38.2825 67.7887 38.8807 67.193C39.3508 66.725 39.949 66.3633 40.6755 66.108C41.4446 65.8101 42.2351 65.5974 43.047 65.4697C43.8589 65.2995 44.6708 65.1931 45.4827 65.1506C46.2946 65.108 47.021 65.0868 47.662 65.0868C49.6704 65.0868 51.3369 65.3846 52.6616 65.9803C53.9862 66.5335 55.0331 67.3419 55.8023 68.4057C56.6142 69.4695 57.1697 70.7673 57.4688 72.2991C57.8107 73.7884 57.9816 75.4479 57.9816 77.2775V89.4684C57.9816 90.4045 58.3021 91.1917 58.9431 91.8299C59.584 92.5107 60.3745 92.8724 61.3146 92.915H57.5329C56.5928 92.915 55.6955 92.7022 54.8409 92.2767C54.029 91.8512 53.3239 91.2768 52.7257 90.5534C51.4865 91.6172 50.2045 92.3618 48.8798 92.7873C47.5979 93.2554 46.1451 93.4894 44.5213 93.4894C43.2393 93.4894 41.9788 93.2128 40.7396 92.6597C39.1158 92.0639 37.8979 91.1066 37.086 89.7875C36.3169 88.4258 35.9323 86.894 35.9323 85.192ZM43.4957 88.8939C44.564 89.7449 45.7605 90.1704 47.0851 90.1704C48.1961 90.1704 49.1576 89.8939 49.9695 89.3407C50.7387 88.745 51.4437 87.9791 52.0847 87.043V79.9582H50.7387C49.9268 79.9582 49.008 80.0434 47.9825 80.2136C46.9997 80.3412 46.0596 80.5965 45.1622 80.9795C44.3076 81.3624 43.5812 81.8943 42.9829 82.5751C42.3847 83.2559 42.0856 84.1282 42.0856 85.192C42.0856 86.7238 42.5556 87.9578 43.4957 88.8939Z" fill="white"/>
<path d="M73.2196 65.0868C77.4927 65.0868 80.4198 65.8739 82.0009 67.4483C82.5137 67.9589 82.6632 68.5759 82.4496 69.2993C82.1505 70.0226 81.659 70.4269 80.9753 70.512L80.3985 70.5758L80.2062 70.4481C79.4797 69.5546 78.6038 68.9376 77.5782 68.5972C76.5954 68.2568 75.5271 68.0866 74.3734 68.0866C73.8179 68.0866 73.2196 68.1504 72.5787 68.2781C71.9377 68.3632 71.3608 68.5546 70.848 68.8525C70.3353 69.1078 69.908 69.4695 69.5661 69.9375C69.2243 70.3631 69.0533 70.9375 69.0533 71.6608C69.0533 73.448 70.4848 74.916 73.3478 76.0648L76.745 77.469C77.7278 77.852 78.6679 78.2988 79.5652 78.8094C80.4626 79.2774 81.2745 79.8306 82.0009 80.4689C82.7273 81.1071 83.3042 81.8518 83.7315 82.7028C84.1588 83.5538 84.3725 84.575 84.3725 85.7664C84.3725 87.1706 84.052 88.362 83.411 89.3407C82.8128 90.3194 82.0009 91.1065 80.9753 91.7023C79.9925 92.3405 78.8815 92.7873 77.6423 93.0426C76.4458 93.3405 75.2494 93.4894 74.0529 93.4894C69.6088 93.4894 66.5963 92.7022 65.0152 91.1278C64.5024 90.6172 64.3529 89.979 64.5666 89.2131C64.8657 88.4897 65.3784 88.0854 66.1049 88.0004L66.6817 87.8727L66.8099 88.0642C67.5364 89.0003 68.4551 89.6385 69.5661 89.979C70.6771 90.2768 71.8095 90.4257 72.9632 90.4257C73.5615 90.4257 74.1811 90.3832 74.822 90.2981C75.5057 90.213 76.1467 90.0428 76.745 89.7875C77.3432 89.5322 77.8346 89.1705 78.2192 88.7024C78.6038 88.2344 78.7961 87.6174 78.7961 86.8515C78.7961 86.2132 78.6251 85.66 78.2833 85.192C77.9842 84.6814 77.5782 84.2346 77.0654 83.8516C76.5954 83.4687 76.0826 83.1283 75.5271 82.8304C74.9716 82.5326 74.4375 82.2985 73.9247 82.1283L70.5275 80.7242C69.5875 80.3838 68.6901 79.9795 67.8355 79.5115C66.9809 79.0434 66.2331 78.4902 65.5921 77.852C64.9511 77.2137 64.4384 76.4691 64.0538 75.6181C63.6692 74.7671 63.4769 73.8097 63.4769 72.7459C63.4769 71.3843 63.7547 70.2141 64.3102 69.2354C64.8657 68.2568 65.5921 67.4696 66.4895 66.8739C67.4295 66.2356 68.4765 65.7888 69.6302 65.5335C70.8267 65.2357 72.0231 65.0868 73.2196 65.0868Z" fill="white"/>
<path d="M89.9013 89.4684V69.044C89.9013 68.1078 89.5808 67.3207 88.9399 66.6824C88.2989 66.0441 87.5084 65.6825 86.5683 65.5974H90.35C91.5465 65.5974 92.5507 65.7463 93.3626 66.0441C94.2172 66.342 94.8795 67.1079 95.3496 68.3419C95.6487 69.278 95.7982 70.746 95.7982 72.7459V89.4684C95.7982 90.4045 96.1187 91.1917 96.7597 91.8299C97.4007 92.5107 98.1912 92.8724 99.1313 92.915H86.5683C87.5084 92.8724 88.2989 92.5107 88.9399 91.8299C89.5808 91.1917 89.9013 90.4045 89.9013 89.4684ZM89.5167 59.3424C89.5167 58.5765 89.7731 57.9382 90.2859 57.4276C90.8414 56.8744 91.5037 56.5979 92.2729 56.5979C93.0421 56.5979 93.7044 56.8744 94.2599 57.4276C94.8154 57.9382 95.0932 58.5765 95.0932 59.3424C95.0932 60.1083 94.8154 60.7678 94.2599 61.321C93.7044 61.8742 93.0421 62.1507 92.2729 62.1507C91.5037 62.1507 90.8414 61.8742 90.2859 61.321C89.7731 60.7678 89.5167 60.1083 89.5167 59.3424Z" fill="white"/>
<path d="M104.361 89.5322V68.9163C104.318 68.0228 103.976 67.2781 103.335 66.6824C102.694 66.0441 101.925 65.6825 101.028 65.5974H104.745C105.472 65.5974 106.113 65.6612 106.668 65.7888C107.224 65.8739 107.715 66.0229 108.142 66.2356C108.826 66.6186 109.36 67.1292 109.745 67.7674C111.924 65.9803 114.403 65.0868 117.18 65.0868C120.684 65.0868 123.227 66.0016 124.808 67.8313C126.431 69.6184 127.243 72.214 127.243 75.6181V89.4684C127.243 90.4045 127.564 91.1917 128.205 91.8299C128.846 92.5107 129.636 92.8724 130.576 92.915H118.013C118.953 92.8724 119.744 92.5107 120.385 91.8299C121.026 91.1917 121.346 90.4045 121.346 89.4684V75.6181C121.346 74.6394 121.24 73.7246 121.026 72.8736C120.855 71.98 120.534 71.2141 120.064 70.5758C119.594 69.895 118.996 69.3631 118.27 68.9801C117.543 68.5972 116.625 68.4057 115.514 68.4057C113.676 68.4057 111.924 69.3205 110.258 71.1502V89.4684C110.258 90.4045 110.578 91.1917 111.219 91.8299C111.86 92.5107 112.651 92.8724 113.591 92.915H101.028C101.925 92.8724 102.694 92.532 103.335 91.8937C103.976 91.2555 104.318 90.4683 104.361 89.5322Z" fill="white"/>
<path d="M145.653 65.0868C147.746 65.0868 149.584 65.4697 151.165 66.2356C152.746 67.0015 154.071 68.0228 155.139 69.2993C156.25 70.5758 157.083 72.0863 157.639 73.8309C158.194 75.533 158.472 77.3414 158.472 79.2562C158.472 81.2135 158.173 83.0645 157.575 84.809C157.019 86.5111 156.186 88.0216 155.075 89.3407C154.007 90.6172 152.66 91.6172 151.037 92.3405C149.456 93.1064 147.661 93.4894 145.653 93.4894C143.559 93.4894 141.7 93.1064 140.076 92.3405C138.495 91.5746 137.149 90.5534 136.038 89.2769C134.97 87.9578 134.158 86.4472 133.602 84.7452C133.047 83.0006 132.769 81.1709 132.769 79.2562C132.769 77.2563 133.047 75.4053 133.602 73.7033C134.201 71.9587 135.055 70.4481 136.166 69.1716C137.277 67.8951 138.623 66.8952 140.204 66.1718C141.785 65.4484 143.601 65.0868 145.653 65.0868ZM145.653 90.4257C146.934 90.4257 148.003 90.0428 148.857 89.2769C149.712 88.4684 150.396 87.4897 150.908 86.3409C151.421 85.192 151.784 83.9793 151.998 82.7028C152.212 81.4263 152.319 80.2774 152.319 79.2562C152.319 78.2775 152.212 77.1499 151.998 75.8734C151.784 74.5543 151.421 73.3203 150.908 72.1714C150.396 71.0226 149.712 70.0652 148.857 69.2993C148.003 68.4908 146.934 68.0866 145.653 68.0866C144.371 68.0866 143.281 68.4908 142.384 69.2993C141.529 70.0652 140.845 71.0226 140.333 72.1714C139.82 73.2778 139.457 74.4905 139.243 75.8095C139.029 77.0861 138.922 78.2349 138.922 79.2562C138.922 80.2774 139.029 81.4263 139.243 82.7028C139.457 83.9793 139.82 85.192 140.333 86.3409C140.845 87.4897 141.529 88.4684 142.384 89.2769C143.281 90.0428 144.371 90.4257 145.653 90.4257Z" fill="white"/>
</svg>
