<svg width="367" height="4826" viewBox="0 0 367 4826" fill="none" xmlns="http://www.w3.org/2000/svg">
<path d="M-3.2561 1.5C70.7439 93 -38.7562 405 92.7438 541.5C168.315 619.944 311.244 651 348.744 785C374.43 876.786 351.244 994 191.244 1053.5C90.5105 1090.96 6.2439 1153 19.7439 1305C33.2439 1457 142.763 1463.22 214.244 1498.5C291.244 1536.5 358 1580.85 358 1697.5C358 1817.5 316.659 1826.5 215 1887C133.5 1935.5 100 1927.5 42 2008.5C-9.10411 2079.87 -12.4451 2296.5 107.5 2377C227.445 2457.5 197 2424 274 2481.5C327.621 2521.54 373.92 2584 364.5 2699.5C355.08 2815 283 2858.5 183 2911.5C99.0794 2955.98 11 3034.5 11 3211C11 3387.5 124.129 3398.14 276.5 3527C364 3601 421.5 3728.5 212.5 3866C83.5532 3950.83 -41 4003.5 29.5 4243.5C100 4483.5 392.039 4382 339.5 4638C286.961 4894 -3 4810 -1.5 4815" stroke="url(#paint0_linear_510_342)" stroke-width="2"/>
<defs>
<linearGradient id="paint0_linear_510_342" x1="0.2431" y1="-35" x2="0.243111" y2="4853" gradientUnits="userSpaceOnUse">
<stop stop-color="#D553EA" stop-opacity="0"/>
<stop offset="0.115324" stop-color="#5374EA"/>
<stop offset="0.53125" stop-color="#8470FA"/>
<stop offset="0.884348" stop-color="#5653EA"/>
<stop offset="1" stop-color="#7517A2" stop-opacity="0"/>
</linearGradient>
</defs>
</svg>
