<svg width="433" height="3007" viewBox="0 0 433 3007" fill="none" xmlns="http://www.w3.org/2000/svg">
<path d="M23.7438 1C97.7438 92.5 -11.7562 404.5 119.744 541C195.315 619.444 338.244 650.5 375.744 784.5C401.43 876.286 378.244 993.5 218.244 1053C117.51 1090.46 33.2438 1152.5 46.7438 1304.5C60.2438 1456.5 169.763 1462.72 241.244 1498C318.244 1536 388.744 1592.85 388.744 1709.5C388.744 1829.5 342.903 1872.5 241.244 1933C159.744 1981.5 69.2438 1996.5 34.2438 2077C-0.75618 2157.5 -35.7012 2275 84.2438 2355.5C204.189 2436 196.556 2403.69 305.744 2473C389.244 2526 441.744 2567.5 430.244 2708.5C418.744 2849.5 314.244 2910.5 196.744 2927.5C102.744 2941.1 64.2438 2953 26.2438 3005.5" stroke="url(#paint0_linear_416_72)" stroke-width="2"/>
<defs>
<linearGradient id="paint0_linear_416_72" x1="27.2444" y1="-35.5" x2="20.2451" y2="3346.5" gradientUnits="userSpaceOnUse">
<stop stop-color="#D553EA" stop-opacity="0"/>
<stop offset="0.177083" stop-color="#5374EA"/>
<stop offset="0.5" stop-color="#8470FA"/>
<stop offset="0.75" stop-color="#5653EA"/>
<stop offset="1" stop-color="#7517A2" stop-opacity="0"/>
</linearGradient>
</defs>
</svg>
