<svg width="100" height="40" viewBox="0 0 100 40" fill="none" xmlns="http://www.w3.org/2000/svg">
<path d="M26.9412 21.3542C27.4767 21.5156 28.6469 21.8682 28.8329 21.0153C29.0235 20.1432 27.8886 19.8526 27.3349 19.7108C27.273 19.695 27.2184 19.681 27.1736 19.6683L26.8133 21.3163C26.85 21.3267 26.8931 21.3397 26.9412 21.3542Z" fill="#FFD02A"/>
<path d="M27.4461 18.946C27.8925 19.0819 28.8663 19.3784 29.0359 18.6032C29.2091 17.8102 28.2627 17.5712 27.8005 17.4545C27.7485 17.4413 27.7026 17.4298 27.6652 17.4191L27.3385 18.9139C27.3693 18.9226 27.4056 18.9337 27.4461 18.946Z" fill="#FFD02A"/>
<path fill-rule="evenodd" clip-rule="evenodd" d="M25.8849 26.2075C29.338 27.1191 32.8351 24.8944 33.6959 21.2389C34.5567 17.5833 32.4556 13.8803 29.0027 12.9689C25.5505 12.0575 22.0535 14.2824 21.193 17.9383C20.3318 21.5935 22.4331 25.2961 25.8849 26.2075ZM29.0168 16.895C29.8453 17.2206 30.4512 17.7087 30.3322 18.6166C30.246 19.2813 29.9231 19.603 29.4943 19.7158C30.0831 20.0655 30.3826 20.6018 30.0973 21.5315C29.7431 22.6861 28.9017 22.7836 27.7827 22.542L27.5112 23.7837L26.855 23.5971L27.123 22.3721C26.9529 22.3239 26.7791 22.2727 26.6001 22.2173L26.3311 23.448L25.6757 23.2615L25.9472 22.0175C25.886 21.9996 25.8243 21.9812 25.7623 21.9627C25.669 21.935 25.5748 21.907 25.4794 21.8797L24.6255 21.6368L24.9513 20.7799C24.9513 20.7799 25.4348 20.9266 25.4282 20.9157C25.614 20.9681 25.6964 20.83 25.7289 20.7379L26.1581 18.775C26.1741 18.7795 26.1899 18.784 26.2051 18.7883C26.2127 18.7905 26.2201 18.7926 26.2274 18.7947C26.2012 18.7827 26.1775 18.775 26.1592 18.7697L26.4653 17.3686C26.4733 17.2095 26.4253 17.0088 26.1595 16.9332C26.1698 16.9253 25.683 16.798 25.683 16.798L25.8575 15.9983L26.7625 16.2561L26.7617 16.26C26.8978 16.2986 27.038 16.3352 27.1807 16.3723L27.4497 15.1429L28.1055 15.3294L27.842 16.5348C28.018 16.5807 28.1952 16.627 28.3677 16.676L28.6294 15.4785L29.2856 15.6651L29.0168 16.895Z" fill="#FFD02A"/>
<path fill-rule="evenodd" clip-rule="evenodd" d="M39.2421 16.8936C39.7271 16.8936 40.1461 16.9928 40.4982 17.1874C40.852 17.384 41.1439 17.6489 41.3781 17.982C41.6091 18.3167 41.781 18.708 41.8921 19.1564C42.0023 19.6061 42.0577 20.0895 42.0577 20.607C42.0577 21.402 41.93 22.153 41.6723 22.8609C41.4145 23.5699 41.0649 24.1849 40.62 24.7094C40.1756 25.2333 39.6508 25.6464 39.0456 25.9515C38.4414 26.2568 37.7845 26.4095 37.0791 26.4095C36.9879 26.4095 36.8276 26.4065 36.601 26.4012C36.3745 26.3959 36.1142 26.3692 35.8226 26.3242C35.5292 26.2775 35.219 26.2084 34.8913 26.1159C34.5639 26.0251 34.2529 25.8978 33.96 25.7361L36.5788 13.1819L38.9243 12.7672L37.9867 17.2222C38.1874 17.119 38.3896 17.039 38.5915 16.9808C38.7935 16.9235 39.0103 16.8936 39.2421 16.8936ZM37.2746 24.2866C37.6278 24.2866 37.9607 24.1874 38.2734 23.9927C38.587 23.7979 38.8576 23.5347 39.0843 23.207C39.311 22.8778 39.4904 22.5069 39.6213 22.0926C39.7521 21.6783 39.8183 21.2461 39.8183 20.7964C39.8183 20.2439 39.7373 19.813 39.576 19.5014C39.4148 19.1912 39.1163 19.0351 38.6829 19.0351C38.5408 19.0351 38.3579 19.066 38.131 19.1212C37.9033 19.1799 37.6996 19.3016 37.517 19.4848L36.5186 24.216C36.5788 24.2282 36.6321 24.2397 36.6775 24.2505C36.722 24.2623 36.7711 24.2706 36.8201 24.2763C36.8719 24.283 36.9311 24.2864 37.0027 24.2864L37.2746 24.2866Z" fill="white"/>
<path d="M44.49 26.1687H42.2497L44.1416 17.0856H46.3973L44.49 26.1687Z" fill="white"/>
<path d="M45.5802 15.9789C45.2675 15.9789 44.984 15.8728 44.7324 15.6599C44.4788 15.4484 44.3532 15.1228 44.3532 14.684C44.3532 14.4426 44.3962 14.2162 44.4814 14.0025C44.5679 13.7893 44.681 13.6057 44.8227 13.4496C44.9641 13.2948 45.1281 13.1711 45.3142 13.0779C45.5015 12.9862 45.7007 12.9404 45.913 12.9404C46.2255 12.9404 46.5075 13.0466 46.76 13.2594C47.0116 13.4733 47.1381 13.7989 47.1381 14.2353C47.1381 14.4776 47.0953 14.7049 47.0094 14.9181C46.9239 15.1313 46.8109 15.3149 46.6692 15.471C46.5288 15.626 46.3634 15.7493 46.1777 15.8416C45.9902 15.9348 45.7917 15.9789 45.5802 15.9789Z" fill="white"/>
<path d="M50.7069 14.4089L48.3604 14.8236L46.8763 21.9726C46.7554 22.5599 46.6853 23.1175 46.6645 23.648C46.6445 24.1772 46.7161 24.647 46.8763 25.0545C47.0387 25.4634 47.3101 25.7865 47.694 26.023C48.0784 26.2577 48.618 26.3756 49.314 26.3756C49.798 26.3756 50.2169 26.3309 50.5707 26.2379C50.9239 26.1462 51.2517 26.0372 51.5545 25.9106L51.3874 23.9412C51.1553 24.0344 50.926 24.1056 50.6996 24.1568C50.472 24.2088 50.2365 24.235 49.9948 24.235C49.7014 24.235 49.4777 24.1883 49.3215 24.0956C49.1645 24.0043 49.0562 23.8753 48.9961 23.7079C48.9355 23.5409 48.9099 23.3426 48.9209 23.1117C48.9307 22.8818 48.9654 22.6345 49.0267 22.3697L49.6921 19.1925H52.1899L52.6437 17.0862H50.1307L50.7069 14.4089Z" fill="white"/>
<path d="M52.5451 22.5422C52.5451 21.7599 52.6561 21.0221 52.878 20.3314C53.0994 19.6401 53.4185 19.0356 53.8324 18.5168C54.2449 18.0006 54.7475 17.5916 55.339 17.2914C55.9277 16.9929 56.5869 16.8423 57.3134 16.8423C57.7681 16.8423 58.1742 16.8914 58.5316 16.9897C58.8904 17.0888 59.215 17.217 59.5086 17.3777L58.736 19.3821C58.5342 19.2887 58.3247 19.2064 58.108 19.1318C57.8912 19.0557 57.6266 19.019 57.3136 19.019C56.5658 19.019 55.9746 19.313 55.5347 19.8992C55.0964 20.4858 54.8757 21.2754 54.8757 22.2659C54.8757 22.8529 54.9867 23.3276 55.2095 23.6907C55.4311 24.0538 55.8406 24.2344 56.4351 24.2344C56.7286 24.2344 57.0117 24.1995 57.2829 24.1312C57.5561 24.0621 57.7974 23.9751 58.0099 23.8724L58.1772 25.9271C57.8939 26.0524 57.5814 26.1657 57.2386 26.2648C56.8951 26.3606 56.4862 26.4102 56.012 26.4102C55.3861 26.4102 54.8562 26.3058 54.4228 26.1C53.9892 25.891 53.631 25.6136 53.3487 25.2622C53.065 24.9099 52.8613 24.4986 52.7354 24.0265C52.6094 23.5549 52.5451 23.0593 52.5451 22.5422Z" fill="white"/>
<path fill-rule="evenodd" clip-rule="evenodd" d="M61.1043 26.1333C61.4983 26.3173 61.9627 26.4102 62.4974 26.4102C63.2342 26.4102 63.8831 26.2341 64.4427 25.8831C65.003 25.5322 65.4695 25.0803 65.8425 24.5283C66.2163 23.9749 66.4994 23.3523 66.6903 22.6638C66.8809 21.9718 66.977 21.2801 66.977 20.5903C66.977 20.0382 66.9119 19.5335 66.7802 19.0798C66.6493 18.6243 66.4548 18.2313 66.1987 17.8965C65.9399 17.5635 65.6124 17.3031 65.2149 17.1195C64.8155 16.9355 64.3535 16.8423 63.8285 16.8423C63.1131 16.8423 62.4761 17.0184 61.9224 17.3686C61.368 17.721 60.8972 18.1731 60.5156 18.726C60.131 19.2781 59.8403 19.8992 59.6445 20.5905C59.4477 21.2803 59.3503 21.972 59.3503 22.664C59.3503 23.2156 59.4139 23.719 59.546 24.1737C59.6781 24.6285 59.871 25.0232 60.1287 25.3562C60.3861 25.691 60.7115 25.9492 61.1043 26.1333ZM62.74 19.3465C62.9914 19.1292 63.285 19.0192 63.6171 19.0192C64.0408 19.0192 64.3339 19.1808 64.4954 19.5022C64.657 19.8248 64.7381 20.2747 64.7381 20.8496C64.7381 21.2061 64.695 21.5842 64.6103 21.9806C64.5238 22.378 64.3946 22.7441 64.2231 23.0772C64.0509 23.4111 63.8388 23.6877 63.588 23.9058C63.3351 24.1255 63.043 24.2346 62.7098 24.2346C62.2857 24.2346 61.9939 24.073 61.8315 23.7517C61.6714 23.4286 61.5899 22.9798 61.5899 22.4034C61.5899 22.0462 61.6319 21.6703 61.7177 21.2726C61.8042 20.8758 61.9323 20.5108 62.105 20.176C62.2758 19.8427 62.4877 19.5664 62.74 19.3465Z" fill="white"/>
<path d="M69.4178 26.1687H67.1756L69.0675 17.0856H71.3243L69.4178 26.1687Z" fill="white"/>
<path d="M70.5063 15.9789C70.1938 15.9789 69.9104 15.8728 69.6593 15.6599C69.4069 15.4484 69.2802 15.1228 69.2802 14.684C69.2802 14.4426 69.3238 14.2162 69.4092 14.0025C69.4946 13.7893 69.6084 13.6057 69.7501 13.4496C69.8908 13.2948 70.0562 13.1711 70.242 13.0779C70.4281 12.9862 70.6274 12.9404 70.8389 12.9404C71.1522 12.9404 71.4351 13.0466 71.6871 13.2594C71.9392 13.4733 72.0665 13.7989 72.0665 14.2353C72.0665 14.4776 72.0212 14.7049 71.9366 14.9181C71.8519 15.1313 71.7381 15.3149 71.597 15.471C71.4549 15.626 71.2916 15.7493 71.1054 15.8416C70.9178 15.9348 70.7189 15.9789 70.5063 15.9789Z" fill="white"/>
<path d="M73.5049 17.3008C73.2985 17.3749 73.1088 17.4431 72.9388 17.4998L71.1063 26.1687H73.3623L74.8307 19.1408C75.1341 19.0717 75.4312 19.0359 75.7234 19.0359C76.0263 19.0359 76.2496 19.1022 76.3975 19.2342C76.5431 19.3683 76.6369 19.5415 76.6767 19.753C76.7184 19.9671 76.7204 20.2144 76.6848 20.4951C76.6494 20.7782 76.6016 21.068 76.5407 21.3678L75.5419 26.1689H77.797L78.8275 21.2646C79.1191 19.9068 79.0413 18.8355 78.592 18.0527C78.1423 17.2699 77.3279 16.8774 76.1463 16.8774C75.7443 16.8774 75.3825 16.8974 75.0649 16.9386C74.7474 16.9789 74.4586 17.0309 74.2028 17.0951C73.9441 17.1573 73.7121 17.2266 73.5049 17.3008Z" fill="white"/>
</svg>
