<svg width="100" height="40" viewBox="0 0 100 40" fill="none" xmlns="http://www.w3.org/2000/svg">
<path d="M60.6304 17.0701C61.7554 17.0701 62.6663 16.1592 62.6663 15.0359C62.6663 13.9127 61.7548 13 60.6304 13C59.506 13 58.5962 13.9121 58.5962 15.0359C58.5962 15.3031 58.6487 15.5677 58.7509 15.8146C58.8531 16.0614 59.0029 16.2857 59.1918 16.4747C59.3807 16.6636 59.605 16.8135 59.8518 16.9158C60.0987 17.0181 60.3632 17.0707 60.6304 17.0707M45.0368 18.1672C44.9448 18.4045 44.2836 20.2666 42.6841 22.2018V13.9252L38.4231 14.7673V29.7714H42.6847V25.1338C43.9195 26.9841 44.5291 29.7714 44.5291 29.7714H49.6335C49.1294 27.672 46.9203 23.8024 46.9203 23.8024C48.2328 22.1095 49.2444 20.2035 49.911 18.1678L45.0368 18.1672ZM56.2395 18.0107C52.4232 18.1334 50.4851 19.8456 50.4851 23.2497V29.7708H54.6495V24.4536C54.6495 22.4158 54.9164 21.5476 57.3348 21.4587V18.0724C56.928 17.9858 56.2395 18.013 56.2395 18.013M31.2768 19.8218C30.7549 19.788 29.5463 19.7092 29.5463 18.6215C29.5463 17.3091 31.2857 17.3091 31.9387 17.3091C33.0862 17.3091 34.5718 17.6471 35.6334 17.9656C35.9949 18.116 36.3603 18.2568 36.7293 18.3879L36.7768 18.4009V14.8046L36.7127 14.7857C35.4602 14.3468 34.0043 13.9257 31.3041 13.9257C26.6487 13.9257 25 16.6372 25 18.9607C25 20.2998 25.5741 23.4519 30.905 23.8154C31.3569 23.8433 32.556 23.9121 32.556 25.0371C32.556 25.9652 31.574 26.5126 29.9229 26.5126C28.1141 26.5126 26.3569 26.0512 25.2912 25.6136V29.316C26.8877 29.7341 28.687 29.9434 30.7965 29.9434C35.3481 29.9434 37.3864 27.3779 37.3864 24.8349C37.3864 21.9515 35.1056 20.0786 31.278 19.8218M58.5678 29.7732H62.6978V18.1815H58.5666L58.5678 29.7732ZM70.475 14.6653V29.7732H74.6062V13.9269L70.475 14.6653ZM64.4479 14.6653L68.5743 13.9269V29.7732H64.4479V14.6641V14.6653Z" fill="#5F0068"/>
</svg>
