<svg width="100" height="40" viewBox="0 0 100 40" fill="none" xmlns="http://www.w3.org/2000/svg">
<path fill-rule="evenodd" clip-rule="evenodd" d="M44.7381 16.6592C44.4138 16.4752 43.9962 16.5865 43.8069 16.9086C43.6176 17.2307 43.7283 17.6416 44.0526 17.8256C44.377 18.0096 44.7946 17.8983 44.9838 17.5762C45.1732 17.2541 45.0624 16.8431 44.7381 16.6592ZM59.8927 25.2364C59.5461 25.2364 59.2209 25.0691 59.0182 24.7867L57.4096 22.5427H56.6107V24.5722C56.6107 24.939 56.3147 25.2364 55.949 25.2364C55.5837 25.2364 55.2876 24.939 55.2876 24.5722V17.3158C55.2876 16.9489 55.5837 16.6516 55.949 16.6516C56.3147 16.6516 56.6107 16.9489 56.6107 17.3158V21.3598H57.4214L58.8486 19.3527C59.045 19.0762 59.363 18.912 59.7015 18.912C60.1284 18.912 60.376 19.3972 60.1267 19.7452L58.5421 21.9571L60.3252 24.3737C60.5888 24.7306 60.335 25.2364 59.8927 25.2364ZM37.6963 17.038H39.3266C40.9479 17.038 42.1758 18.1975 42.1758 19.9202C42.1758 21.6311 40.9598 22.7906 39.3266 22.7906H37.61V24.5542C37.61 24.931 37.3058 25.2364 36.9305 25.2364C36.5552 25.2364 36.2509 24.931 36.2509 24.5542V18.4892C36.2509 17.6877 36.898 17.038 37.6963 17.038ZM37.61 21.514H39.267C40.1611 21.514 40.781 20.8225 40.781 19.9202C40.781 19.0062 40.1611 18.3146 39.267 18.3146H37.61V21.514ZM44.4014 25.2364C44.036 25.2364 43.7398 24.939 43.7398 24.5722V19.5762C43.7398 19.2094 44.036 18.912 44.4014 18.912C44.7668 18.912 45.063 19.2094 45.063 19.5762V24.5722C45.063 24.939 44.7668 25.2364 44.4014 25.2364ZM50.2797 25.4004C51.8653 25.4004 53.141 24.4166 53.4864 22.9409C53.5167 22.7934 53.4046 22.6552 53.2545 22.6552H52.6005C52.4086 22.6552 52.2334 22.7665 52.1512 22.9409C51.8057 23.7139 51.1263 24.1589 50.2797 24.1589C49.1353 24.1589 48.2531 23.2454 48.2531 22.0742C48.2531 20.903 49.1234 20.0012 50.2797 20.0012C51.1141 20.0012 51.8294 20.4462 52.1634 21.1724C52.2654 21.3974 52.4894 21.5417 52.7356 21.5417H53.1706C53.3649 21.5417 53.5112 21.364 53.4746 21.1724C53.1169 19.7201 51.8771 18.7597 50.2797 18.7597C48.3604 18.7597 46.906 20.1886 46.906 22.0742C46.906 23.9598 48.3604 25.4004 50.2797 25.4004ZM64.5823 25.4004C66.1557 25.4004 67.1929 24.604 67.1929 23.3742C67.1929 21.82 65.8754 21.6067 64.792 21.4312L64.7847 21.4301L64.77 21.4276C64.0018 21.2998 63.3544 21.1923 63.3544 20.6336C63.3544 20.1768 63.8074 19.8607 64.5346 19.8607C65.3095 19.8607 65.7862 20.1886 65.8099 20.7859C65.8099 20.8863 65.8876 20.9695 65.9875 20.9761L66.8025 21.0298C66.9428 21.039 67.0619 20.9271 67.0619 20.7859C67.0379 19.5678 66.0603 18.7597 64.5701 18.7597C63.0681 18.7597 62.0787 19.5444 62.0787 20.6805C62.0787 22.1445 63.3425 22.3787 64.4151 22.5661C65.2022 22.695 65.8935 22.8238 65.8935 23.4328C65.8935 23.9598 65.345 24.2526 64.63 24.2526C63.8548 24.2526 63.2826 23.9013 63.2471 23.2337C63.2471 23.1171 63.1569 23.0206 63.0409 23.0131L62.2476 22.9623C62.0916 22.9523 61.9596 23.0767 61.9596 23.2337C61.9951 24.5454 63.0204 25.4004 64.5823 25.4004ZM71.9692 18.7597C73.9484 18.7597 75.2596 20.2588 75.2596 22.0976C75.2596 22.2382 75.2477 22.3787 75.2237 22.5192H70.0023C70.1691 23.5499 70.9203 24.1824 71.9692 24.1824C72.6219 24.1824 73.1641 23.9333 73.5259 23.5051C73.6538 23.3534 73.8293 23.2454 74.0274 23.2454H74.6672C74.8751 23.2454 75.0207 23.4607 74.9235 23.6449C74.3437 24.7422 73.2616 25.4004 71.9692 25.4004C70.0858 25.4004 68.667 23.9716 68.667 22.0742C68.667 20.1886 70.0858 18.7597 71.9692 18.7597ZM73.9244 21.4652C73.6858 20.5048 72.9586 19.9426 71.9692 19.9426C70.9798 19.9426 70.2527 20.5282 70.0381 21.4652H73.9244ZM76.9382 24.5722C76.9382 24.939 77.2346 25.2364 77.5999 25.2364C77.9652 25.2364 78.2616 24.939 78.2616 24.5722V17.3158C78.2616 16.9489 77.9652 16.6516 77.5999 16.6516C77.2346 16.6516 76.9382 16.9489 76.9382 17.3158V24.5722ZM81.1591 25.2364C80.7938 25.2364 80.4974 24.939 80.4974 24.5722V17.3158C80.4974 16.9489 80.7938 16.6516 81.1591 16.6516C81.5244 16.6516 81.8208 16.9489 81.8208 17.3158V24.5722C81.8208 24.939 81.5244 25.2364 81.1591 25.2364Z" fill="white"/>
<path d="M22.0973 14.8797C22.666 13.912 23.9255 13.5805 24.9105 14.1392L30.5158 17.3186C31.5008 17.8773 31.8383 19.1147 31.2696 20.0825L28.0334 25.5894C27.4647 26.5571 26.2051 26.8887 25.2201 26.33L19.6148 23.1505C18.6298 22.5918 18.2923 21.3544 18.861 20.3867L22.0973 14.8797Z" fill="#2F2C5B"/>
</svg>
