<svg width="100" height="40" viewBox="0 0 100 40" fill="none" xmlns="http://www.w3.org/2000/svg">
<rect x="32.36" y="2.36" width="35.28" height="35.28" rx="3.96" fill="#FDB913" stroke="white" stroke-width="0.72"/>
<path fill-rule="evenodd" clip-rule="evenodd" d="M64.8567 7.46401H64.4041V8.74369H64.6085V8.18801H64.776C64.9164 8.18801 64.9593 8.24905 64.9627 8.38858C64.964 8.42167 64.9645 8.45213 64.9651 8.48109C64.966 8.53344 64.9669 8.5809 64.9715 8.63012C64.972 8.67048 64.984 8.70986 65.006 8.74369H65.2373C65.2187 8.73181 65.2034 8.71546 65.1928 8.69616C65.1822 8.67685 65.1766 8.65519 65.1765 8.63316C65.174 8.58193 65.1726 8.52114 65.1712 8.4625C65.1705 8.43155 65.1698 8.4012 65.169 8.37317C65.1625 8.19328 65.0956 8.12332 64.9684 8.11034V8.1079C65.1082 8.0862 65.182 7.95864 65.182 7.79275C65.1873 7.74866 65.1825 7.70395 65.1681 7.66194C65.1537 7.61994 65.13 7.58172 65.0987 7.55013C65.0675 7.51853 65.0295 7.49439 64.9875 7.47948C64.9456 7.46457 64.9009 7.45928 64.8567 7.46401ZM64.8543 8.0232C64.8281 8.03278 64.8001 8.03642 64.7723 8.03388H64.6085V7.61814H64.7831C64.9178 7.61814 64.977 7.68993 64.977 7.82642C64.9799 7.85411 64.9767 7.88212 64.9676 7.90842C64.9584 7.93472 64.9435 7.95867 64.9239 7.97852C64.9043 7.99836 64.8805 8.01363 64.8543 8.0232Z" fill="#231F20"/>
<path fill-rule="evenodd" clip-rule="evenodd" d="M64.7865 9.13597C64.5787 9.13615 64.3756 9.07483 64.2028 8.95977C64.0299 8.8447 63.8952 8.68106 63.8156 8.48955C63.736 8.29805 63.7151 8.08728 63.7556 7.88391C63.796 7.68055 63.896 7.49373 64.0429 7.3471C64.1898 7.20047 64.3769 7.1006 64.5807 7.06015C64.7844 7.0197 64.9956 7.04047 65.1876 7.11984C65.3795 7.19921 65.5435 7.33361 65.6589 7.50604C65.7742 7.67847 65.8358 7.88117 65.8357 8.0885C65.8354 8.36615 65.7248 8.63237 65.5281 8.82874C65.3314 9.0251 65.0647 9.1356 64.7865 9.13597ZM64.7865 7.17183C64.6048 7.17179 64.4273 7.2255 64.2763 7.32617C64.1252 7.42684 64.0075 7.56995 63.9379 7.73739C63.8684 7.90484 63.8502 8.08911 63.8856 8.26689C63.921 8.44468 64.0084 8.60799 64.1368 8.73619C64.2652 8.86439 64.4288 8.95171 64.6069 8.98711C64.785 9.02251 64.9697 9.0044 65.1375 8.93508C65.3053 8.86575 65.4488 8.74831 65.5497 8.59763C65.6506 8.44694 65.7045 8.26976 65.7046 8.0885C65.7044 7.84552 65.6076 7.61253 65.4355 7.44068C65.2634 7.26882 65.0299 7.17214 64.7865 7.17183Z" fill="#231F20"/>
<path d="M60.9064 13.7353C60.8428 11.8738 61.3267 10.3964 63.4078 9.9259C64.7341 9.62515 65.2379 9.96951 65.4929 10.3023C65.7382 10.6199 65.8329 11.0482 65.8329 11.6481L65.8343 11.7582L64.2062 12.1444L64.205 11.9182C64.2062 11.2068 64.008 10.9363 63.4903 11.0657C62.8745 11.22 62.6258 11.8032 62.6258 12.9629C62.6258 13.2639 62.6268 13.3843 62.6273 13.449C62.6275 13.4728 62.6276 13.489 62.6276 13.5039C62.6276 14.6824 62.789 15.2219 63.4986 15.0736C64.1141 14.9467 64.1985 14.4072 64.2084 13.9343C64.2096 13.8601 64.2127 13.6224 64.2127 13.6224L65.8384 13.2391C65.8384 13.2391 65.84 13.3589 65.84 13.4922C65.8359 15.0375 65.0198 16.0114 63.4909 16.3665C61.3844 16.8593 60.9719 15.6445 60.9064 13.7353Z" fill="#231F20"/>
<path d="M51.7374 18.9583L51.7345 12.8461L53.3332 12.4675V13.2687C53.3332 13.2687 53.7473 12.215 54.7083 11.9704C54.8518 11.9242 55.0045 11.914 55.1529 11.9406V13.5001C54.8651 13.5039 54.5807 13.563 54.3153 13.6741C53.7246 13.9069 53.4273 14.415 53.4273 15.1905L53.4283 18.5655L51.7374 18.9583Z" fill="#231F20"/>
<path d="M43.3098 20.9459C43.3098 20.9459 43.0499 20.557 43.0499 19.1818V16.1383L42.2273 16.3336V15.0799L43.0518 14.8856V13.5189L44.7516 13.1182V14.4849L45.9528 14.2001V15.4524L44.7516 15.737C44.7516 15.737 44.7498 18.2304 44.7516 18.836C44.7516 20.2451 45.1264 20.5156 45.1264 20.5156L43.3098 20.9459Z" fill="#231F20"/>
<path fill-rule="evenodd" clip-rule="evenodd" d="M46.6184 14.8219C46.2855 15.4303 46.1305 16.2231 46.1305 17.3097C46.1305 19.0915 46.6708 20.3266 48.6972 19.8466C50.8365 19.3418 51.0074 17.8869 51.0208 17.3004C51.023 17.1592 51.0193 17.0335 51.0193 17.0335L49.4802 17.4016C49.4802 17.4016 49.4768 17.5811 49.4694 17.6516C49.4247 18.0893 49.2673 18.4432 48.7011 18.5624C48.0457 18.7011 47.8289 18.2114 47.8289 17.1793V17.1264L51.1144 16.3557C51.1144 16.3557 51.112 16.0984 51.122 15.5701C51.148 14.0929 50.4749 12.9912 48.6101 13.4145C47.6639 13.6295 47.0144 14.1 46.6184 14.8219ZM47.836 16.0923C47.8484 15.2093 48.1339 14.6763 48.6783 14.553C49.2823 14.4151 49.4888 14.767 49.4916 15.4336C49.492 15.5715 49.4916 15.6595 49.4888 15.6995L47.836 16.0923Z" fill="#231F20"/>
<path fill-rule="evenodd" clip-rule="evenodd" d="M57.3603 13.9613C56.1093 14.4778 55.2782 14.9256 55.2782 16.3416C55.2782 17.3828 55.9285 18.1422 57.1565 17.8533C58.3258 17.5791 58.6649 16.7265 58.6649 16.7265C58.7176 16.9172 58.787 17.103 58.8724 17.2816L60.4209 16.9159C60.4209 16.9159 60.1774 16.7241 60.1774 15.4148V12.7076C60.1754 11.5644 59.6159 10.8294 57.9378 11.2153C56.6462 11.5137 55.898 12.0833 55.6458 12.93C55.563 13.2328 55.5263 13.5464 55.5369 13.8601L57.1142 13.4883C57.1121 13.3837 57.1156 13.2789 57.1248 13.1746C57.1309 12.9846 57.2013 12.8022 57.3243 12.6571C57.4474 12.5119 57.6159 12.4125 57.8027 12.375C58.3627 12.2324 58.5206 12.523 58.5143 12.8627C58.5097 13.2663 58.4853 13.4969 57.3603 13.9613ZM57.6797 14.8895C57.967 14.7517 58.2426 14.5907 58.5036 14.4081V15.2596C58.5036 15.908 58.1557 16.3746 57.6545 16.5008C57.1874 16.616 56.9303 16.344 56.9303 15.9299C56.9303 15.4517 57.1636 15.1412 57.6797 14.8895Z" fill="#231F20"/>
<path d="M34.4217 25.2307C34.245 25.2304 34.0716 25.1827 33.9198 25.0924C33.768 25.0021 33.6433 24.8726 33.559 24.7176C33.4747 24.5626 33.4339 24.3878 33.4407 24.2115C33.4476 24.0353 33.502 23.8641 33.5981 23.7161L33.6091 23.7019L33.6276 23.6971L35.9397 23.1523V24.9048L35.9037 24.9131C35.3793 25.039 34.7523 25.1824 34.6233 25.2098C34.557 25.2238 34.4895 25.2308 34.4217 25.2307Z" fill="#231F20"/>
<path d="M33.7279 27.186C33.912 27.3695 34.1615 27.4725 34.4217 27.4724C34.4894 27.4727 34.5569 27.4664 34.6233 27.4536C34.7523 27.4278 35.3793 27.2828 35.9037 27.1573L35.9397 27.148V25.3955L33.6276 25.9401L33.6091 25.9447L33.5981 25.9612C33.4944 26.1195 33.4395 26.3047 33.44 26.4939C33.4403 26.7536 33.5438 27.0025 33.7279 27.186Z" fill="#231F20"/>
<path d="M34.4217 29.7185C34.1615 29.7184 33.9119 29.6151 33.7279 29.4315C33.5438 29.2479 33.4403 28.9989 33.44 28.7392C33.4393 28.55 33.4943 28.3647 33.5981 28.2064L33.6091 28.1888L35.9397 27.6406V29.393L35.9038 29.4023C35.3498 29.5354 34.7347 29.6741 34.6233 29.6986C34.5569 29.7119 34.4894 29.7186 34.4217 29.7185Z" fill="#231F20"/>
<path d="M34.1482 13.278L34.1488 23.0833L35.9395 22.6606V12.8556L34.1482 13.278Z" fill="#231F20"/>
<path d="M38.6106 22.2491C38.6106 21.9566 38.4942 21.6761 38.2869 21.4692C38.0797 21.2624 37.7985 21.1462 37.5054 21.1462C37.2123 21.1462 36.9312 21.2624 36.724 21.4692C36.5167 21.6761 36.4003 21.9566 36.4003 22.2491L36.4021 31.4135C36.4031 32.205 36.7184 32.9637 37.279 33.5235C37.8395 34.0833 38.5996 34.3985 39.3926 34.4C40.2292 34.4 42.521 34.396 42.521 34.396L42.522 30.5727C42.5226 28.4839 42.523 26.3577 42.523 26.3092C42.5233 26.0715 42.4648 25.8375 42.3527 25.6278C42.2406 25.4181 42.0783 25.2393 41.8803 25.1072L39.092 23.2173L39.0914 27.509C39.0914 27.5719 39.0664 27.6323 39.0218 27.6768C38.9772 27.7213 38.9167 27.7463 38.8536 27.7463C38.7906 27.7463 38.7301 27.7213 38.6855 27.6768C38.6409 27.6323 38.6159 27.5719 38.6159 27.509L38.6152 26.8882C38.6138 25.5935 38.6106 22.6896 38.6106 22.2491Z" fill="#231F20"/>
<path d="M39.1714 15.8529C39.4466 15.6406 39.7644 15.49 40.1032 15.4116C41.3794 15.1128 41.7897 15.8561 41.7897 16.9194V21.305L40.0908 21.7025L40.0896 17.5568C40.0896 16.9084 39.785 16.7782 39.4202 16.8581C38.9354 16.9648 38.596 17.5085 38.596 18.1891V21.0306C38.3678 20.8298 38.0884 20.6958 37.7887 20.6435C37.489 20.5912 37.1807 20.6226 36.8977 20.7343L36.8959 16.3335L38.5088 15.9526V16.6418C38.6702 16.3343 38.8962 16.0652 39.1714 15.8529Z" fill="#231F20"/>
</svg>
