<svg width="100" height="40" viewBox="0 0 100 40" fill="none" xmlns="http://www.w3.org/2000/svg">
<path fill-rule="evenodd" clip-rule="evenodd" d="M78.7453 22.4773C79.1194 22.946 79.7038 23.2273 80.3116 23.2038C80.4752 23.2038 80.6623 23.1804 80.8259 23.157C80.9428 23.1335 81.083 23.0866 81.1999 23.0398C81.2934 22.9929 81.387 22.9226 81.4805 22.8523C81.5506 22.782 81.6207 22.7117 81.6675 22.6413C81.7142 22.5945 81.761 22.5242 81.8078 22.4304L81.948 23.1335H83V16.1024L81.7844 16.1727V17.8133C81.7844 18.0946 81.8078 18.3992 81.8311 18.6805C81.5506 18.1649 81.0363 17.9071 80.3116 17.9071C79.7038 17.8836 79.1194 18.1649 78.7453 18.6336C78.3479 19.1727 78.1609 19.8523 78.1843 20.532C78.1375 21.2117 78.3479 21.9148 78.7453 22.4773ZM81.8311 20.6258C81.8078 21.7273 81.4103 22.2898 80.5921 22.2898C80.2415 22.2898 79.9142 22.1257 79.7038 21.8445C79.47 21.4695 79.3531 21.0008 79.3765 20.5554C79.3531 20.1101 79.47 19.6414 79.7038 19.2664C79.8908 18.9852 80.2181 18.8211 80.5688 18.8445C80.9428 18.8211 81.2934 18.9852 81.5038 19.2664C81.7142 19.5477 81.8311 19.993 81.8311 20.6258Z" fill="white"/>
<path d="M43.5624 23.2038C42.5806 23.2038 41.7858 22.8991 41.2013 22.2663C40.6169 21.6335 40.3364 20.7898 40.3364 19.6882C40.3364 18.657 40.6403 17.8133 41.2481 17.1805C41.8793 16.5477 42.7442 16.1961 43.6326 16.243C44.3339 16.2195 45.0352 16.407 45.643 16.8055L45.2456 17.7664C44.7781 17.4617 44.217 17.2976 43.656 17.2742C43.0949 17.2508 42.5338 17.5086 42.1832 17.9539C41.8091 18.4695 41.6221 19.1023 41.6455 19.7351C41.6455 20.5085 41.8091 21.1179 42.1598 21.5632C42.5338 22.0085 43.0715 22.2428 43.656 22.2194C44.2404 22.2194 44.8248 22.0788 45.3391 21.7975L45.5028 22.7819C44.9183 23.0631 44.2404 23.2272 43.5624 23.2038Z" fill="white"/>
<path fill-rule="evenodd" clip-rule="evenodd" d="M48.6822 23.2036C48.0042 23.227 47.3497 22.9692 46.9055 22.477C46.4613 21.938 46.2276 21.2583 46.2509 20.5552C46.2509 19.7349 46.4613 19.0787 46.9055 18.6099C47.3263 18.1412 47.9341 17.9068 48.7289 17.9068C49.4069 17.8599 50.0615 18.1412 50.5056 18.6334C50.9498 19.1724 51.1836 19.8521 51.1602 20.5552C51.1836 21.2583 50.9498 21.938 50.5056 22.477C50.0381 22.9692 49.3601 23.2504 48.6822 23.2036ZM48.7289 22.2895C49.103 22.313 49.4536 22.1489 49.664 21.8442C49.8978 21.4458 49.9913 21.0005 49.9679 20.5552C49.9913 20.1099 49.8744 19.6411 49.6407 19.2427C49.2199 18.7271 48.4718 18.6334 47.9575 19.0552C47.8874 19.1021 47.8172 19.1724 47.7705 19.2427C47.5367 19.6411 47.4432 20.0865 47.4666 20.5552C47.4432 21.0005 47.5601 21.4458 47.7939 21.8208C47.9809 22.1255 48.3549 22.313 48.7289 22.2895Z" fill="white"/>
<path d="M52.1653 16.243V17.2743H53.3809V16.243H52.1653Z" fill="white"/>
<path d="M52.1653 18.0242V23.1101H53.3809V18.0242H52.1653Z" fill="white"/>
<path d="M54.6435 18.0242H55.6253L55.7656 18.657C56.2098 18.1883 56.841 17.907 57.4955 17.8836C57.9865 17.8367 58.4774 18.0242 58.828 18.3992C59.1319 18.7508 59.2722 19.2429 59.2722 19.8757V23.0866H58.0566V20.0398C58.08 19.7117 58.0098 19.407 57.8462 19.1258C57.6825 18.9148 57.4254 18.7976 57.1449 18.8211C56.8877 18.8211 56.6306 18.8914 56.4202 19.032C56.2098 19.1492 56.0461 19.3367 55.9526 19.5476C55.8825 19.9226 55.8591 20.2976 55.8591 20.6726V23.1569H54.6435V18.0242Z" fill="white"/>
<path d="M60.2541 22.8289C60.8151 23.1101 61.423 23.2273 62.0541 23.2039C62.5918 23.2273 63.1061 23.0867 63.5503 22.8523C63.901 22.5711 64.088 22.1258 64.0646 21.6805C64.088 21.3289 63.9711 21.0008 63.7373 20.743C63.4334 20.4618 63.0828 20.2508 62.7087 20.1336L62.5451 20.0633L62.4282 20.0164C62.171 19.9227 61.9139 19.8055 61.6567 19.6649C61.5165 19.5711 61.4463 19.4305 61.4463 19.2899C61.4463 19.1258 61.5165 18.9852 61.6567 18.9149C61.8204 18.8212 62.0308 18.7977 62.2178 18.7977C62.6853 18.7977 63.1763 18.9149 63.5971 19.1258L63.901 18.2821C63.3633 18.0243 62.7788 17.8837 62.1944 17.9071C61.7035 17.8837 61.2126 18.0009 60.7918 18.2821C60.4645 18.5399 60.2775 18.9383 60.3008 19.3602C60.2775 19.6883 60.3944 20.0164 60.6048 20.2743C60.8853 20.5555 61.2359 20.7664 61.61 20.8836L61.8671 20.9774C62.1477 21.0711 62.4048 21.1883 62.662 21.3524C62.8022 21.4461 62.8724 21.6102 62.8724 21.7742C62.8724 21.9617 62.7788 22.1258 62.6386 22.2195C62.4516 22.3133 62.2178 22.3601 62.0074 22.3601C61.7035 22.3367 61.423 22.2898 61.1424 22.2195C60.8853 22.1492 60.6281 22.032 60.371 21.9148L60.2541 22.8289Z" fill="white"/>
<path fill-rule="evenodd" clip-rule="evenodd" d="M65.0697 23.1101V16.3133H67.3373C67.8049 16.3133 68.2724 16.3836 68.7166 16.5243C69.0673 16.6414 69.3946 16.8758 69.6049 17.2039C69.8387 17.5555 69.9556 17.9539 69.9322 18.3758C69.9322 18.6805 69.8855 18.9617 69.8153 19.243C69.7218 19.5008 69.5816 19.7351 69.3946 19.9226C69.1608 20.157 68.9036 20.2976 68.5997 20.3914C68.2023 20.5086 67.7815 20.5554 67.3373 20.5554C66.9165 20.5554 66.5659 20.5554 66.3087 20.5086V23.1101H65.0697ZM67.1971 19.6179C67.4308 19.6179 67.6412 19.5945 67.875 19.5476C68.0387 19.5008 68.1789 19.4539 68.3192 19.3601C68.4127 19.2898 68.5062 19.1961 68.5763 19.0789C68.6465 18.9851 68.6699 18.868 68.6932 18.7508C68.7166 18.6336 68.7166 18.5164 68.7166 18.3993C68.74 18.0712 68.5997 17.7664 68.3659 17.5555C68.062 17.3446 67.7114 17.2508 67.3373 17.2742H66.3087V19.6414C66.3555 19.6179 66.636 19.6179 67.1971 19.6179Z" fill="white"/>
<path fill-rule="evenodd" clip-rule="evenodd" d="M70.8438 22.8052C71.1711 23.0864 71.5685 23.2271 71.9893 23.2036C72.2932 23.2036 72.5971 23.1568 72.8776 23.0161C73.1582 22.8755 73.4153 22.688 73.6257 22.4771C73.6257 22.4771 73.6725 22.5943 73.7192 22.7818C73.766 22.9693 73.8127 23.0864 73.8127 23.0864H74.7011V19.7584C74.7011 19.0787 74.5374 18.61 74.2335 18.3053C73.9296 18.0006 73.4153 17.86 72.7374 17.86C72.0828 17.8366 71.4048 17.9772 70.797 18.235L70.9373 18.6569C71.0542 18.9381 71.1009 19.0787 71.1009 19.0787C71.5685 18.8678 72.0828 18.7506 72.6205 18.7272C72.8542 18.7037 73.088 18.774 73.275 18.9381C73.4387 19.1256 73.5088 19.3834 73.4854 19.6178V19.899L73.1581 19.9225L72.7841 19.9693C72.7374 19.981 72.6848 19.9869 72.6322 19.9928C72.5796 19.9986 72.527 20.0045 72.4802 20.0162C71.9192 20.0396 71.3815 20.2037 70.9139 20.5084C70.5633 20.7896 70.3762 21.2349 70.3996 21.6802C70.3762 22.1021 70.5399 22.524 70.8438 22.8052ZM73.0413 22.1255C72.8309 22.2662 72.5737 22.3365 72.3166 22.3365C72.1295 22.3599 71.9191 22.2896 71.7555 22.149C71.6152 22.0318 71.5685 21.8443 71.5685 21.6568C71.5685 21.399 71.6854 21.1177 71.9192 20.9771C72.2464 20.8131 72.6205 20.7193 72.9945 20.6959L73.2517 20.6724L73.4854 20.649V21.6334C73.3919 21.8443 73.2283 22.0083 73.0413 22.1255Z" fill="white"/>
<path d="M75.9404 17.2743V16.243H77.1561V17.2743H75.9404Z" fill="white"/>
<path d="M75.9404 23.1101V18.0242H77.1561V23.1101H75.9404Z" fill="white"/>
<path fill-rule="evenodd" clip-rule="evenodd" d="M21.9051 18.7977H25.0861L26.2042 23.1335H21.9285C19.9648 23.1335 16.2478 21.9383 16.2478 17.4384C16.2478 12.9385 19.9648 11.7432 21.9285 11.7432H25.0377L26.1832 16.0556H21.9051C21.5077 16.079 20.5493 16.2196 20.5493 17.4384C20.5259 17.7899 20.6428 18.1415 20.8765 18.3993C21.1571 18.6336 21.5311 18.7743 21.9051 18.7977Z" fill="#001D6D"/>
<path d="M27.4457 27.7976H31.7939L31.2094 25.6648H32.3549C34.3186 25.6648 38.0122 24.4695 38.0122 19.9696C38.0122 15.4697 34.3186 14.2979 32.3549 14.2979H23.8456L25.0612 18.7978H32.2614C32.6822 18.7978 33.7576 18.6806 33.8277 19.9228C33.8744 21.0712 32.7991 21.1415 32.3783 21.1649H25.669L27.4457 27.7976Z" fill="#0C98FA"/>
</svg>
