<svg width="100" height="40" viewBox="0 0 100 40" fill="none" xmlns="http://www.w3.org/2000/svg">
<g clip-path="url(#clip0_12_477)">
<g clip-path="url(#clip1_12_477)">
<path fill-rule="evenodd" clip-rule="evenodd" d="M45.1703 29.7523C45.2698 29.7523 45.3653 29.7137 45.4363 29.6449C45.5073 29.5762 45.548 29.4826 45.5498 29.3845V17.3398C45.5498 16.3766 45.9376 15.4528 46.628 14.7717C47.3184 14.0906 48.2547 13.708 49.2311 13.708H52.8258C53.7987 13.7132 54.73 14.0981 55.416 14.7787C56.1021 15.4592 56.4872 16.38 56.4872 17.3398V19.9011C56.4854 20.8638 56.097 21.7865 55.407 22.4672C54.717 23.148 53.7817 23.5312 52.8059 23.5329H47.7532C47.6544 23.5329 47.5595 23.5716 47.4896 23.6406C47.4197 23.7096 47.3804 23.8031 47.3804 23.9007C47.3804 23.9982 47.4197 24.0918 47.4896 24.1607C47.5595 24.2297 47.6544 24.2684 47.7532 24.2684H52.8325C54.0072 24.2684 55.1339 23.8085 55.9651 22.9897C56.7964 22.1708 57.2643 21.06 57.2661 19.9011V17.3398C57.2661 16.1826 56.8006 15.0728 55.9718 14.2539C55.143 13.4351 54.0188 12.9742 52.8458 12.9724H49.251C48.0764 12.9724 46.9497 13.4324 46.1184 14.2512C45.2871 15.0701 44.8193 16.1809 44.8175 17.3398V29.3582C44.8139 29.4071 44.8202 29.4561 44.8361 29.5025C44.8519 29.5489 44.877 29.5917 44.9099 29.6284C44.9428 29.6651 44.9827 29.695 45.0275 29.7163C45.0722 29.7375 45.1207 29.7498 45.1703 29.7523Z" fill="white"/>
<path fill-rule="evenodd" clip-rule="evenodd" d="M60.6981 24.3389C60.7934 24.3372 60.8841 24.297 60.9509 24.2269C61.0177 24.1569 61.0551 24.0626 61.055 23.9644V14.9895C61.0559 14.7249 61.006 14.4628 60.9084 14.2181C60.8108 13.9734 60.6672 13.751 60.486 13.5636C60.3049 13.3762 60.0896 13.2276 59.8525 13.1261C59.6155 13.0247 59.3613 12.9724 59.1047 12.9724H57.5813C57.4941 12.9844 57.414 13.0287 57.356 13.097C57.298 13.1652 57.2661 13.2529 57.2661 13.3437C57.2661 13.4344 57.298 13.5221 57.356 13.5904C57.414 13.6586 57.4941 13.7029 57.5813 13.7149H59.0792C59.2413 13.7149 59.4017 13.7479 59.5514 13.812C59.7011 13.8762 59.837 13.9702 59.9513 14.0886C60.0656 14.207 60.1561 14.3476 60.2175 14.5022C60.279 14.6568 60.3102 14.8224 60.3093 14.9895V23.9644C60.3101 24.0156 60.3209 24.0661 60.341 24.1129C60.3612 24.1597 60.3903 24.2018 60.4265 24.2368C60.4628 24.2717 60.5056 24.2988 60.5522 24.3163C60.5989 24.3339 60.6485 24.3416 60.6981 24.3389Z" fill="white"/>
<path d="M60.75 11.7594L60.1033 11.1144C60.062 11.0752 60.0291 11.028 60.0066 10.9757C59.9841 10.9234 59.9725 10.8671 59.9725 10.8102C59.9725 10.7533 59.9841 10.697 60.0066 10.6447C60.0291 10.5924 60.062 10.5452 60.1033 10.506L60.75 9.86106C60.7884 9.81819 60.8354 9.78388 60.8879 9.76039C60.9405 9.7369 60.9974 9.72476 61.0551 9.72476C61.1127 9.72476 61.1696 9.7369 61.2222 9.76039C61.2747 9.78388 61.3217 9.81819 61.3601 9.86106L62.0068 10.506C62.0481 10.5452 62.081 10.5924 62.1035 10.6447C62.126 10.697 62.1376 10.7533 62.1376 10.8102C62.1376 10.8671 62.126 10.9234 62.1035 10.9757C62.081 11.028 62.0481 11.0752 62.0068 11.1144L61.3601 11.7594C61.3208 11.8006 61.2734 11.8335 61.221 11.8559C61.1686 11.8783 61.1121 11.8899 61.0551 11.8899C60.998 11.8899 60.9415 11.8783 60.8891 11.8559C60.8367 11.8335 60.7893 11.8006 60.75 11.7594Z" fill="#32BCAD"/>
<path fill-rule="evenodd" clip-rule="evenodd" d="M72.5953 17.4272C72.4431 17.575 72.2389 17.6578 72.0262 17.6578C71.8136 17.6578 71.6094 17.575 71.4572 17.4272L67.9456 13.9252C67.6415 13.6228 67.2805 13.383 66.8832 13.2195C66.486 13.0561 66.0603 12.9721 65.6304 12.9724H64.1236C64.0276 12.9724 63.9355 13.0104 63.8675 13.078C63.7996 13.1456 63.7615 13.2373 63.7615 13.3329C63.7615 13.4292 63.7994 13.5215 63.8671 13.5902C63.9349 13.6588 64.027 13.6982 64.1236 13.6999H65.6304C65.9642 13.6997 66.2948 13.765 66.6033 13.892C66.9118 14.019 67.1921 14.2053 67.4282 14.4402L70.9463 17.9422C71.2334 18.226 71.6216 18.3853 72.0262 18.3853C72.4309 18.3853 72.8191 18.226 73.1062 17.9422L76.6113 14.4531C76.8482 14.2174 77.1296 14.0307 77.4392 13.9036C77.7489 13.7766 78.0807 13.7117 78.4156 13.7128H79.6379C79.7292 13.7115 79.8167 13.6766 79.8836 13.6147C79.9505 13.5529 79.992 13.4685 80 13.378C80 13.2824 79.9619 13.1907 79.8939 13.1231C79.826 13.0555 79.7339 13.0175 79.6379 13.0175H78.4156C77.5589 13.014 76.7349 13.3444 76.1198 13.9381L72.5953 17.4272Z" fill="white"/>
<path fill-rule="evenodd" clip-rule="evenodd" d="M63.7615 23.972C63.7615 24.0683 63.7994 24.1608 63.8671 24.2296C63.9349 24.2983 64.027 24.3378 64.1236 24.3394H65.6304C66.4993 24.3377 67.332 23.9923 67.9456 23.3789L71.4572 19.8785C71.5317 19.8037 71.6204 19.7443 71.718 19.7037C71.8157 19.6632 71.9204 19.6423 72.0262 19.6423C72.132 19.6423 72.2368 19.6632 72.3345 19.7037C72.4321 19.7443 72.5208 19.8037 72.5953 19.8785L76.1198 23.3596C76.7354 23.9739 77.5704 24.3194 78.4415 24.3201H79.6637C79.7525 24.3124 79.8355 24.2729 79.8974 24.2089C79.9592 24.1449 79.9956 24.0607 80 23.972C80 23.8763 79.9619 23.7844 79.8939 23.7167C79.826 23.649 79.7339 23.611 79.6379 23.611H78.4156C78.0803 23.6108 77.7483 23.5447 77.4387 23.4164C77.1291 23.288 76.8479 23.1001 76.6113 22.8632L73.1062 19.3757C72.9649 19.2334 72.7967 19.1205 72.6113 19.0434C72.426 18.9663 72.2271 18.9266 72.0262 18.9266C71.8254 18.9266 71.6265 18.9663 71.4412 19.0434C71.2558 19.1205 71.0876 19.2334 70.9463 19.3757L67.4282 22.8761C66.952 23.3529 66.3054 23.6218 65.6304 23.6239H64.1236C64.0298 23.6238 63.9396 23.6601 63.872 23.725C63.8045 23.79 63.7648 23.8785 63.7615 23.972Z" fill="white"/>
<path d="M35.822 26.1636C35.4539 26.1649 35.0891 26.0906 34.7486 25.945C34.4081 25.7994 34.0985 25.5854 33.8376 25.3152L30.9734 22.3355C30.8735 22.2322 30.7385 22.1743 30.5977 22.1743C30.4569 22.1743 30.3219 22.2322 30.222 22.3355L27.3578 25.3218C27.0973 25.5949 26.787 25.8112 26.4452 25.9581C26.1034 26.1049 25.7368 26.1793 25.367 26.177H24.789L28.4174 29.9517C28.6864 30.2317 29.0058 30.4538 29.3573 30.6053C29.7088 30.7569 30.0856 30.8349 30.4661 30.8349C30.8466 30.8349 31.2233 30.7569 31.5748 30.6053C31.9263 30.4538 32.2457 30.2317 32.5147 29.9517L36.156 26.1636H35.822Z" fill="#32BCAD"/>
<path d="M25.3663 15.9872C25.7369 15.989 26.1034 16.0671 26.4448 16.217C26.7861 16.367 27.0954 16.5858 27.3549 16.8608L30.2223 19.8483C30.3221 19.9513 30.457 20.0092 30.5976 20.0092C30.7382 20.0092 30.8731 19.9513 30.9728 19.8483L33.8274 16.8608C34.0869 16.589 34.3957 16.3736 34.736 16.227C35.0763 16.0805 35.4412 16.0058 35.8096 16.0073H36.156L32.5188 12.2329C32.2506 11.9526 31.9317 11.7302 31.5805 11.5785C31.2293 11.4267 30.8528 11.3486 30.4725 11.3486C30.0922 11.3486 29.7156 11.4267 29.3644 11.5785C29.0133 11.7302 28.6944 11.9526 28.4262 12.2329L24.789 15.9872H25.3663Z" fill="#32BCAD"/>
<path d="M39.6278 18.9823L37.3976 16.7615C37.3475 16.7817 37.2942 16.7928 37.2402 16.7942H36.2038C35.6723 16.797 35.1632 17.0088 34.787 17.3838L31.8615 20.2991C31.7324 20.4306 31.5783 20.5348 31.4082 20.6057C31.238 20.6766 31.0554 20.7127 30.871 20.7118C30.6873 20.7125 30.5052 20.6769 30.3353 20.6072C30.1653 20.5375 30.0108 20.435 29.8805 20.3056L26.9419 17.3511C26.5665 16.9748 26.0569 16.7628 25.5251 16.7615H24.2788C24.2269 16.7722 24.1733 16.7722 24.1214 16.7615L21.8649 18.9823C21.311 19.5384 21 20.2909 21 21.0754C21 21.8598 21.311 22.6123 21.8649 23.1684L24.1214 25.422C24.1712 25.4121 24.2224 25.4121 24.2722 25.422H25.5251C26.0568 25.42 26.5661 25.2081 26.9419 24.8324L29.8805 21.9041C30.1462 21.6525 30.4984 21.5123 30.8645 21.5123C31.2306 21.5123 31.5827 21.6525 31.8484 21.9041L34.7739 24.7931C35.1512 25.1658 35.6601 25.3752 36.1907 25.3762H37.214C37.268 25.3776 37.3213 25.3887 37.3714 25.4089L39.6147 23.1684C40.1704 22.6141 40.4838 21.8625 40.4862 21.0781C40.4887 20.2936 40.1801 19.5401 39.6278 18.9823Z" fill="#32BCAD"/>
<path d="M48.1038 28.2599C47.9389 28.2685 47.7752 28.3 47.6159 28.3536V29.1395C47.7367 29.1949 47.8647 29.2218 47.9934 29.2188C48.3187 29.2188 48.4756 29.0818 48.4756 28.7285C48.4756 28.3753 48.3478 28.2599 48.1038 28.2599ZM47.5229 29.7523V28.1662H47.6159V28.2311C47.7813 28.177 47.9505 28.1432 48.1212 28.1301C48.2418 28.1191 48.3615 28.1626 48.4581 28.2527C48.5103 28.3158 48.5504 28.3926 48.5755 28.4774C48.6007 28.5622 48.6102 28.653 48.6034 28.743C48.6094 28.8438 48.5931 28.9448 48.5562 29.035C48.5194 29.1253 48.4634 29.2013 48.3943 29.2548C48.2767 29.3254 48.1472 29.36 48.0167 29.3558C47.8848 29.356 47.7536 29.3317 47.6275 29.2837V29.7523H47.5229Z" fill="white"/>
<path d="M49.6878 28.2364C49.3888 28.2364 49.2553 28.3506 49.2553 28.6617C49.2553 28.9728 49.3888 29.0998 49.6878 29.0998C49.9868 29.0998 50.1203 28.9918 50.1203 28.6808C50.1203 28.3697 49.9868 28.2364 49.6878 28.2364ZM50.0723 29.0998C49.9576 29.1851 49.8225 29.223 49.6878 29.2077C49.5534 29.2199 49.419 29.1822 49.3034 29.0998C49.2495 29.0486 49.2072 28.9824 49.1802 28.9071C49.1532 28.8318 49.1423 28.7496 49.1485 28.6681C49.1436 28.5867 49.1552 28.505 49.1821 28.43C49.209 28.3549 49.2506 28.2885 49.3034 28.2364C49.4227 28.1654 49.5544 28.1284 49.6878 28.1284C49.8213 28.1284 49.9529 28.1654 50.0723 28.2364C50.1261 28.2875 50.1684 28.3537 50.1955 28.429C50.2225 28.5043 50.2334 28.5865 50.2271 28.6681C50.2344 28.7497 50.2239 28.8323 50.1968 28.9078C50.1697 28.9833 50.1269 29.0494 50.0723 29.0998Z" fill="white"/>
<path d="M52.3339 29.211L51.8716 28.31L51.3872 29.211H51.2624L50.7706 28.1284H50.9248L51.3872 29.0362L51.8275 28.1284H51.9523L52.3927 29.0362L52.789 28.1284H52.9358L52.4514 29.211H52.3339Z" fill="white"/>
<path d="M53.4727 28.2376C53.1703 28.2376 53.0656 28.3834 53.0482 28.5926H53.8914C53.8624 28.3834 53.7751 28.2376 53.4727 28.2376ZM53.4727 29.2076C53.3352 29.2233 53.1971 29.1851 53.0831 29.0998C53.0312 29.044 52.9913 28.9765 52.9661 28.902C52.941 28.8274 52.9313 28.7478 52.9377 28.6687C52.9336 28.586 52.9472 28.5034 52.9775 28.4275C53.0078 28.3515 53.0539 28.2843 53.1122 28.2312C53.2224 28.1587 53.3499 28.1234 53.4785 28.1298C53.6092 28.1209 53.7393 28.1563 53.8507 28.2312C53.912 28.2881 53.959 28.361 53.9875 28.443C54.016 28.525 54.0249 28.6136 54.0136 28.7004H53.0424C53.0424 28.9096 53.1122 29.0998 53.4785 29.0998C53.6405 29.0944 53.8019 29.0753 53.9612 29.0427V29.1505C53.7979 29.1823 53.6327 29.2014 53.4669 29.2076H53.4727Z" fill="white"/>
<path d="M54.5596 29.211V28.1611H54.6451V28.2198C54.7928 28.1663 54.9461 28.1356 55.1009 28.1284V28.2458C54.9538 28.2506 54.808 28.2791 54.6679 28.3306V29.211H54.5596Z" fill="white"/>
<path d="M55.6372 28.2379C55.3352 28.2379 55.2364 28.3837 55.2132 28.5928H56.0554C56.0496 28.3837 55.9393 28.2379 55.6372 28.2379ZM55.6372 29.2076C55.4999 29.2233 55.3619 29.1851 55.248 29.0998C55.1962 29.0441 55.1564 28.9766 55.1312 28.9021C55.1061 28.8276 55.0964 28.7479 55.1028 28.6689C55.1 28.5864 55.1142 28.5043 55.1444 28.4286C55.1746 28.3529 55.2199 28.2856 55.2771 28.2316C55.3872 28.159 55.5145 28.1238 55.643 28.1302C55.7737 28.12 55.9039 28.1555 56.0148 28.2316C56.0773 28.2872 56.1252 28.3599 56.1538 28.4422C56.1823 28.5246 56.1905 28.6137 56.1774 28.7006H55.2132C55.2132 28.9097 55.2771 29.0998 55.643 29.0998C55.8049 29.0948 55.9661 29.0757 56.1251 29.0428V29.1505C55.9621 29.1827 55.7971 29.2018 55.6314 29.2076H55.6372Z" fill="white"/>
<path d="M57.7091 28.2076C57.5883 28.1566 57.4614 28.1304 57.3336 28.1301C57.01 28.1301 56.854 28.264 56.854 28.6095C56.854 28.955 56.9811 29.089 57.2238 29.089C57.3876 29.077 57.5501 29.0464 57.7091 28.9973V28.2076ZM57.7091 29.1806V29.1101C57.5428 29.1636 57.3724 29.1966 57.2007 29.2088C57.0833 29.2212 56.9663 29.1811 56.8714 29.096C56.8194 29.033 56.7795 28.9566 56.7545 28.8725C56.7295 28.7884 56.7201 28.6986 56.7269 28.6095C56.722 28.512 56.7387 28.4147 56.7753 28.3279C56.8119 28.241 56.8671 28.1678 56.9349 28.116C57.0504 28.0415 57.1799 28.005 57.3105 28.0102C57.4414 28.0134 57.5715 28.0371 57.6976 28.0807V27.5872H57.8073V29.2018L57.7091 29.1806Z" fill="white"/>
<path d="M59.4761 28.1378C59.3129 28.1462 59.151 28.177 58.9933 28.2295V28.9989C59.1129 29.0527 59.2396 29.079 59.3669 29.0766C59.6887 29.0766 59.8439 28.9425 59.8439 28.5966C59.8439 28.2507 59.7175 28.1378 59.4761 28.1378ZM59.752 29.1119C59.6356 29.1809 59.5076 29.2148 59.3784 29.2107C59.2377 29.2101 59.0979 29.1815 58.9646 29.126V29.1825H58.8899V27.5872H59.0048V28.1307C59.1665 28.0778 59.3321 28.0447 59.4991 28.0319C59.6165 28.0221 59.7328 28.0647 59.8267 28.1519C59.8783 28.2137 59.918 28.2888 59.9428 28.3719C59.9677 28.4549 59.9771 28.5438 59.9704 28.6319C59.972 28.7285 59.9526 28.8239 59.9142 28.9083C59.8758 28.9927 59.8198 29.063 59.752 29.1119Z" fill="white"/>
<path d="M60.5373 29.7523V29.6235H60.6785C60.7421 29.6293 60.8055 29.6092 60.8587 29.5665C60.9119 29.5238 60.952 29.4608 60.9727 29.3875L61.0139 29.2945L60.5138 28.1428H60.6432L61.0668 29.1228L61.4728 28.1284H61.5963L61.0668 29.4232C61.0375 29.5216 60.9826 29.6056 60.9103 29.6624C60.8381 29.7193 60.7525 29.7458 60.6667 29.738L60.5373 29.7523Z" fill="white"/>
<path d="M63.4611 29.0683H63.0036V29.4863H63.4685C63.7858 29.4863 63.9039 29.4863 63.9039 29.2736C63.9039 29.061 63.7415 29.0683 63.4611 29.0683ZM63.3799 28.3936H63.0036V28.819H63.3799C63.6972 28.819 63.8227 28.819 63.8227 28.6063C63.8227 28.3936 63.6603 28.3936 63.3799 28.3936ZM64.1179 29.6329C63.886 29.7338 63.6314 29.7717 63.3799 29.7429H62.6789V28.137H63.3652C63.599 28.1105 63.8358 28.1459 64.0514 28.2396C64.1059 28.2733 64.1498 28.3212 64.1785 28.3782C64.2071 28.4351 64.2194 28.4989 64.2138 28.5623C64.2199 28.6409 64.1982 28.7191 64.1523 28.7834C64.1065 28.8477 64.0395 28.894 63.9629 28.9143C64.1695 28.9656 64.3023 29.0683 64.3023 29.2956C64.3058 29.3659 64.2879 29.4357 64.2511 29.4958C64.2143 29.5559 64.1602 29.6037 64.0957 29.6329H64.1179Z" fill="white"/>
<path d="M65.122 28.7533H64.7945C64.6082 28.7533 64.546 28.7913 64.546 28.8864C64.546 28.9816 64.5969 29.0259 64.7437 29.0259C64.871 29.0194 64.9977 29.0003 65.122 28.9689V28.7533ZM65.1785 29.1845V29.121C65.0165 29.1722 64.8497 29.202 64.6816 29.2098C64.5853 29.2169 64.4892 29.1927 64.4049 29.1401C64.3716 29.1109 64.3451 29.0732 64.3274 29.0302C64.3097 28.9872 64.3014 28.9401 64.3032 28.8928C64.3001 28.8343 64.313 28.7762 64.3403 28.7263C64.3676 28.6764 64.4078 28.6371 64.4557 28.6138C64.5658 28.5684 64.6831 28.5489 64.8002 28.5567C64.9093 28.5506 65.0186 28.5506 65.1277 28.5567C65.1277 28.3919 65.0373 28.3411 64.7776 28.3411H64.4444V28.1319C64.5743 28.1319 64.7154 28.1319 64.834 28.1319C64.9804 28.1171 65.1275 28.1501 65.2576 28.227C65.3038 28.2677 65.3397 28.3214 65.3615 28.3826C65.3833 28.4438 65.3903 28.5105 65.3818 28.5757V29.2098L65.1785 29.1845Z" fill="white"/>
<path d="M66.77 29.2045V28.6285C66.77 28.4344 66.6873 28.3696 66.5385 28.3696C66.4156 28.3763 66.2937 28.398 66.1747 28.4344V29.2045H65.9266V28.1625H66.1306V28.2273C66.285 28.1741 66.444 28.1416 66.6046 28.1302C66.714 28.1195 66.8227 28.1589 66.9078 28.2402C66.9444 28.2816 66.9724 28.3323 66.9896 28.3884C67.0068 28.4445 67.0128 28.5045 67.0071 28.5638V29.211L66.77 29.2045Z" fill="white"/>
<path d="M68.1159 29.2088C67.9767 29.2206 67.8377 29.1847 67.7231 29.1073C67.6622 29.0517 67.6153 28.9833 67.5858 28.9074C67.5563 28.8316 67.545 28.7502 67.5529 28.6695C67.5489 28.5849 67.5665 28.5007 67.6042 28.4243C67.6419 28.3479 67.6985 28.2817 67.7689 28.2317C67.9106 28.1553 68.0719 28.12 68.2337 28.1301H68.6068V28.3839C68.4956 28.3778 68.3842 28.3778 68.273 28.3839C67.9915 28.3839 67.8606 28.4664 67.8606 28.7012C67.8606 28.936 67.9588 29.0185 68.1879 29.0185C68.3374 29.0126 68.4862 28.9957 68.633 28.9677V29.1771C68.462 29.2032 68.2889 29.2138 68.1159 29.2088Z" fill="white"/>
<path d="M69.4478 28.3475C69.1237 28.3475 68.9805 28.4303 68.9805 28.6659C68.9805 28.9014 69.1237 29.0033 69.4478 29.0033C69.7719 29.0033 69.9076 28.9142 69.9076 28.685C69.9076 28.4558 69.7719 28.3475 69.4478 28.3475ZM70.0282 29.1115C69.8432 29.1772 69.6446 29.211 69.444 29.211C69.2434 29.211 69.0448 29.1772 68.8599 29.1115C68.7884 29.0561 68.7313 28.9887 68.6922 28.9136C68.6532 28.8385 68.633 28.7574 68.633 28.6754C68.633 28.5934 68.6532 28.5123 68.6922 28.4372C68.7313 28.3622 68.7884 28.2947 68.8599 28.2393C69.0391 28.1554 69.2435 28.1178 69.4478 28.131C69.6496 28.1187 69.8513 28.1563 70.0282 28.2393C70.1066 28.2891 70.1686 28.355 70.2081 28.4308C70.2477 28.5066 70.2636 28.5897 70.2543 28.6722C70.2635 28.7556 70.2476 28.8396 70.2081 28.9164C70.1685 28.9932 70.1066 29.0604 70.0282 29.1115Z" fill="white"/>
<path d="M71.6303 29.2091C71.4268 29.2223 71.2249 29.167 71.0585 29.0527C70.9667 28.9701 70.8958 28.8681 70.8513 28.7547C70.8068 28.6412 70.7899 28.5193 70.8019 28.3985C70.7962 28.2704 70.8234 28.1429 70.8809 28.0275C70.9385 27.912 71.0247 27.8123 71.1318 27.7371C71.3379 27.6279 71.572 27.5786 71.8062 27.5949C71.9942 27.5846 72.1827 27.5846 72.3707 27.5949V27.8722C72.1948 27.8722 71.9895 27.8722 71.8209 27.8722C71.3664 27.8722 71.1758 28.0429 71.1758 28.3985C71.1758 28.754 71.3517 28.9318 71.6889 28.9318C71.9359 28.9246 72.1814 28.8937 72.422 28.8394V29.1167C72.1614 29.1702 71.8965 29.2011 71.6303 29.2091Z" fill="white"/>
<path d="M72.9687 28.3143C72.769 28.3143 72.6881 28.3968 72.6719 28.5553H73.2602C73.2548 28.3841 73.1684 28.3143 72.9687 28.3143ZM72.9309 29.2085C72.8018 29.2215 72.6726 29.1836 72.5639 29.1007C72.5145 29.0458 72.4762 28.9785 72.4519 28.9039C72.4276 28.8292 72.4179 28.7491 72.4236 28.6695C72.4202 28.5877 72.4331 28.5062 72.4612 28.4314C72.4893 28.3565 72.5318 28.2904 72.5855 28.2382C72.7007 28.1568 72.8346 28.1191 72.9687 28.1304C73.1002 28.1222 73.2311 28.1574 73.3465 28.2319C73.4064 28.2943 73.4518 28.3737 73.4782 28.4625C73.5047 28.5513 73.5114 28.6465 73.4977 28.7392H72.6719C72.6719 28.8978 72.7474 28.9992 72.9903 28.9992C73.146 28.9938 73.3012 28.9747 73.4545 28.9422V29.1451C73.2817 29.1825 73.1066 29.2037 72.9309 29.2085Z" fill="white"/>
<path d="M74.8888 29.2045V28.6283C74.8888 28.4341 74.8062 28.3694 74.6574 28.3694C74.5346 28.3756 74.4127 28.3973 74.2938 28.4341V29.2045H74.0459V28.1622H74.2497V28.2269C74.406 28.1739 74.5667 28.1413 74.729 28.1298C74.8382 28.1204 74.9464 28.1597 75.0321 28.2399C75.0677 28.2819 75.0946 28.3329 75.1108 28.389C75.1271 28.4451 75.1322 28.5048 75.1257 28.5636V29.211L74.8888 29.2045Z" fill="white"/>
<path d="M76.4362 29.7422C76.3567 29.7501 76.2764 29.7381 76.2031 29.7074C76.1297 29.6768 76.0658 29.6285 76.0174 29.5671C75.9498 29.457 75.9194 29.3293 75.9305 29.2017V28.7526H75.6697V28.5014H75.9305V28.1284H76.2466V28.5014H76.7523V28.7526H76.2466V29.1485C76.2288 29.2262 76.2288 29.3067 76.2466 29.3844C76.2693 29.4228 76.303 29.4539 76.3436 29.4742C76.3843 29.4944 76.4302 29.5029 76.4757 29.4986C76.5598 29.507 76.6445 29.507 76.7286 29.4986V29.7498C76.6311 29.7548 76.5333 29.7523 76.4362 29.7422Z" fill="white"/>
<path d="M76.7523 29.2045V28.1609H76.912V28.2257C77.0268 28.1699 77.1462 28.1372 77.267 28.1284H77.2936V28.3877H77.2226C77.1282 28.3866 77.0342 28.4041 76.9431 28.4396V29.211L76.7523 29.2045Z" fill="white"/>
<path d="M78.6733 28.7098H78.3346C78.1452 28.7098 78.0821 28.7479 78.0821 28.8431C78.0821 28.9382 78.1395 28.9826 78.283 28.9826C78.4143 28.9757 78.5449 28.9566 78.6733 28.9255V28.7098ZM78.725 29.1412V29.0778C78.5603 29.129 78.3908 29.1588 78.2198 29.1666C78.1219 29.1737 78.0243 29.1494 77.9385 29.0968C77.9048 29.0676 77.8778 29.0299 77.8598 28.9869C77.8418 28.9439 77.8334 28.8967 77.8352 28.8494C77.8325 28.7902 77.8464 28.7315 77.8753 28.6815C77.9041 28.6314 77.9462 28.5926 77.9959 28.5703C78.1059 28.5248 78.2232 28.5053 78.3404 28.5132C78.438 28.5132 78.57 28.5132 78.6791 28.5132C78.6791 28.3482 78.5815 28.2975 78.3232 28.2975L77.9558 28.3419V28.1325C78.0878 28.1325 78.2313 28.1325 78.3519 28.1325C78.5007 28.1162 78.6506 28.1493 78.7824 28.2277C78.8305 28.2676 78.868 28.321 78.8912 28.3823C78.9144 28.4437 78.9224 28.5107 78.9144 28.5766V29.211L78.725 29.1412Z" fill="white"/>
<path d="M79.4587 27.5872H80V29.211H79.4587V27.5872Z" fill="white"/>
</g>
</g>
<defs>
<clipPath id="clip0_12_477">
<rect width="100" height="40" fill="white"/>
</clipPath>
<clipPath id="clip1_12_477">
<rect width="59" height="42.7615" fill="white" transform="translate(21 -1.10092)"/>
</clipPath>
</defs>
</svg>
