<svg width="131" height="131" viewBox="0 0 131 131" fill="none" xmlns="http://www.w3.org/2000/svg">
<circle cx="65.9445" cy="65.9441" r="62.5" fill="url(#paint0_radial_14_283)" stroke="url(#paint1_linear_14_283)" stroke-width="5"/>
<path fill-rule="evenodd" clip-rule="evenodd" d="M42.6939 89.113C42.5398 95.1548 42.4268 99.1931 42.4268 99.1931C42.4268 99.1931 45.0358 99.9094 47.6756 100.563C50.3154 101.093 52.986 101.591 52.986 101.591C52.986 101.591 53.0784 96.4628 53.1503 91.3553C53.212 86.2271 53.2428 81.0884 53.2428 81.0884L59.0565 81.4517C62.0044 81.5244 64.5723 80.5694 66.7704 78.5658C68.9891 76.5103 70.6942 73.6555 71.9062 69.9287C73.1388 66.2538 73.7448 61.8937 73.7756 56.8796C73.7859 51.8967 73.2312 47.547 72.05 43.7787C70.8688 39.9584 69.1842 37.0309 66.9964 34.9028C64.788 32.8162 62.2201 31.83 59.2927 31.9546C59.2927 31.9546 55.0198 32.3075 50.7571 32.8681C46.5663 33.5948 42.3857 34.5083 42.3857 34.5083C42.3857 34.5083 42.5193 38.557 42.6631 44.6195C42.735 47.6508 42.7863 51.1804 42.8377 54.9591C42.8788 58.769 42.8993 62.8073 42.9096 66.8767C42.9096 70.9253 42.889 74.9739 42.848 78.7734C42.7966 82.5418 42.7452 86.0817 42.6939 89.113ZM53.2941 66.5548L56.9816 66.5652C58.2039 66.6067 59.2516 66.2019 60.1144 65.4544C60.9978 64.6136 61.6655 63.5132 62.1277 62.0183C62.6002 60.5442 62.8364 58.8105 62.8364 56.8277C62.8261 54.7723 62.6002 53.0698 62.1071 51.6164C61.6449 50.1838 60.967 49.0938 60.0836 48.3671C59.2003 47.6301 58.132 47.246 56.8994 47.2979L53.1914 47.547C53.1914 47.547 53.2428 52.2808 53.2736 57.025L53.2941 66.5548Z" fill="url(#paint2_radial_14_283)"/>
<path d="M31.2103 55.9557C31.087 54.0871 30.594 52.7376 29.7723 51.8552C28.9506 51.0039 27.7385 50.7859 26.1156 51.1908C25.0884 51.4814 24.2564 51.8863 23.6196 52.3638C22.993 52.8829 22.5206 53.4642 22.233 54.1182C21.9248 54.7723 21.781 55.4263 21.781 56.1426C21.7605 56.7654 21.8529 57.2637 22.0275 57.7101C22.2227 58.1357 22.5206 58.5095 22.9314 58.8417C23.332 59.1531 23.8456 59.4334 24.4927 59.6618C25.1295 59.9005 25.8794 60.0978 26.7627 60.2535L29.8031 60.9698C31.8574 61.4888 33.6549 62.3193 35.1443 63.4197C36.6337 64.5513 37.8457 65.932 38.801 67.5929C39.746 69.202 40.4342 71.1018 40.8656 73.1884C41.3278 75.275 41.5332 77.5484 41.5127 79.9776C41.451 84.1612 40.7423 87.5974 39.4481 90.1823C38.1333 92.6841 36.2844 94.2724 33.9631 94.916C32.8127 95.2379 31.539 95.269 30.2037 95.0614C28.8376 94.8434 27.3995 94.3866 25.8691 93.7014C24.2873 92.9852 22.8287 92.1547 21.4934 91.2204C20.1581 90.3068 18.9358 89.2895 17.8265 88.1891C15.6078 86.1025 13.9438 83.7875 12.7318 81.1922C11.5505 78.763 10.9445 76.012 10.9445 72.8458C10.9445 72.8458 13.1426 73.043 15.3921 73.2506C17.6724 73.479 19.9732 73.7489 19.9732 73.7489C20.0143 75.2127 20.2916 76.4792 20.7538 77.5484C21.2263 78.6384 21.9248 79.5935 22.8082 80.3098C23.7121 81.0884 24.7803 81.6386 26.054 81.9396C27.1222 82.2096 28.0158 82.2407 28.7451 82.0123C29.4641 81.7735 30.0291 81.3272 30.4297 80.7147C30.8302 80.071 31.0254 79.2613 31.0562 78.3582C31.0562 77.4758 30.8816 76.7076 30.5221 76.012C30.1831 75.2957 29.6079 74.621 28.7759 74.0396C27.9748 73.4271 26.9168 72.8562 25.5301 72.2956L21.9043 70.9253C20.3122 70.3647 18.8947 69.7107 17.6416 68.9529C16.409 68.2366 15.3305 67.458 14.4368 66.5548C12.6599 64.8938 11.7868 62.6411 11.797 59.6099C11.7868 57.1495 12.3414 54.7723 13.5021 52.3431C14.6628 49.7997 16.2652 47.3705 18.3503 45.0763C20.4662 42.7094 22.9314 40.7993 25.7664 39.4497C28.704 38.1625 31.313 37.8925 33.583 38.6919C35.853 39.647 37.63 41.5363 38.9448 44.2977C40.239 47.1837 40.9169 50.7236 40.9991 54.8864C40.9991 54.8864 38.5236 55.1148 36.079 55.3536C33.6344 55.6443 31.2103 55.9557 31.2103 55.9557Z" fill="url(#paint3_radial_14_283)"/>
<path d="M85.7934 99.8679C85.7934 99.8679 85.6599 95.7673 85.5366 89.6009C85.4853 86.5177 85.4339 82.9051 85.3928 79.0433C85.362 75.1816 85.3312 71.0499 85.3312 66.9182C85.3365 64.7926 85.3472 62.6642 85.3578 60.5701C85.3678 58.604 85.3776 56.6681 85.3825 54.793C85.4544 50.9209 85.5161 47.3186 85.5674 44.2354C85.7112 38.0587 85.8242 33.927 85.8242 33.927C85.8242 33.927 83.1844 33.3872 80.5241 32.9408C77.8535 32.5774 75.2034 32.266 75.2034 32.266C75.2034 32.266 75.1418 36.6157 75.0596 43.1662C75.0185 46.4155 74.9877 50.215 74.9672 54.3051C74.9466 58.3849 74.9364 62.7346 74.9364 67.1154C74.9285 70.4505 74.9387 73.7978 74.9486 77.0123C74.9516 77.99 74.9545 78.9559 74.9569 79.905C74.9756 81.7672 74.9879 83.5695 74.9996 85.2865C75.0137 87.35 75.0269 89.2913 75.0494 91.0647C75.1213 97.6048 75.1726 101.944 75.1726 101.944C75.1726 101.944 77.8329 101.56 80.483 101.082C83.1536 100.522 85.7934 99.8679 85.7934 99.8679Z" fill="url(#paint4_radial_14_283)"/>
<path d="M120.944 66.8766C120.937 73.3581 119.402 86.3205 119.402 86.3205C119.402 86.3205 117.533 87.234 115.622 88.1579C113.681 89.0715 111.729 90.0058 111.729 90.0058C108.055 80.5174 103.415 72.9357 98.109 65.2053H97.8933C97.8933 65.2053 97.883 67.1258 97.8933 69.991C97.9036 72.8665 97.9447 76.6972 97.996 80.5174C98.0679 84.3377 98.1604 88.1579 98.2528 90.992C98.3453 93.8364 98.4172 95.7569 98.4172 95.7569C98.4172 95.7569 95.8698 96.7016 93.2916 97.6255C90.7032 98.4768 88.1045 99.245 88.1045 99.245C88.1045 99.245 87.9915 95.2067 87.8477 89.1441C87.7655 86.1129 87.7244 82.5833 87.6834 78.7734C87.632 74.9947 87.6115 70.9357 87.6115 66.8766C87.632 62.8072 87.6526 58.7586 87.6936 54.9591C87.739 51.5957 87.7923 48.4507 87.8395 45.667C87.8458 45.2975 87.852 44.9344 87.858 44.578C88.0223 38.505 88.1456 34.446 88.1456 34.446C88.1456 34.446 90.354 35.0274 92.5521 35.6191C94.7399 36.2731 96.9175 36.9998 96.9175 36.9998C96.9175 36.9998 97.6673 39.1902 98.828 42.4499C101.008 48.4891 103.898 53.7359 106.838 59.0718C108.388 61.8849 109.951 64.7228 111.431 67.7146L111.729 67.725C111.68 63.9622 111.302 60.2237 110.925 56.4881C110.46 51.8833 109.995 47.2829 110.147 42.6471C110.147 42.6471 112.51 43.8928 114.841 45.2424C117.142 46.6438 119.402 48.0868 119.402 48.0868C119.402 48.0868 120.951 60.6133 120.944 66.8766Z" fill="url(#paint5_radial_14_283)"/>
<circle opacity="0.5" cx="80.9445" cy="40.9441" r="27" fill="url(#paint6_radial_14_283)"/>
<path opacity="0.5" d="M96.6432 103.277C89.4275 107.615 76.9773 113.444 67.9445 113.444C41.4349 113.444 19.9445 91.9537 19.9445 65.4441C19.9445 52.579 29.0058 37.5624 37.2458 28.9441C23.2847 37.3384 13.9445 52.6336 13.9445 70.1104C13.9445 96.6201 35.4349 118.11 61.9445 118.11C75.5891 118.11 87.904 112.417 96.6432 103.277Z" fill="url(#paint7_radial_14_283)"/>
<circle opacity="0.5" cx="83.9445" cy="35.9441" r="11" fill="url(#paint8_radial_14_283)"/>
<defs>
<radialGradient id="paint0_radial_14_283" cx="0" cy="0" r="1" gradientUnits="userSpaceOnUse" gradientTransform="translate(65.9445 65.9441) rotate(90) scale(67.5)">
<stop stop-color="#FF0000"/>
<stop offset="0.293152" stop-color="#FF2E00"/>
<stop offset="0.627816" stop-color="#D3003F"/>
<stop offset="1" stop-color="#9B0041"/>
</radialGradient>
<linearGradient id="paint1_linear_14_283" x1="44.4445" y1="5.94409" x2="82.9445" y2="132.444" gradientUnits="userSpaceOnUse">
<stop stop-color="#FFB72A"/>
<stop offset="0.186263" stop-color="#FFE24C"/>
<stop offset="0.361626" stop-color="#D64000"/>
<stop offset="0.607155" stop-color="#FFF73F"/>
<stop offset="0.815205" stop-color="#FFC122"/>
<stop offset="1" stop-color="#EB6300"/>
</linearGradient>
<radialGradient id="paint2_radial_14_283" cx="0" cy="0" r="1" gradientUnits="userSpaceOnUse" gradientTransform="translate(68.1269 67.2039) rotate(-180) scale(72.6838 44.3655)">
<stop stop-color="#FFE600"/>
<stop offset="0.639949" stop-color="#FFCB11"/>
<stop offset="1" stop-color="#FF4D00"/>
</radialGradient>
<radialGradient id="paint3_radial_14_283" cx="0" cy="0" r="1" gradientUnits="userSpaceOnUse" gradientTransform="translate(68.1269 67.2039) rotate(-180) scale(72.6838 44.3655)">
<stop stop-color="#FFE600"/>
<stop offset="0.639949" stop-color="#FFCB11"/>
<stop offset="1" stop-color="#FF4D00"/>
</radialGradient>
<radialGradient id="paint4_radial_14_283" cx="0" cy="0" r="1" gradientUnits="userSpaceOnUse" gradientTransform="translate(68.1269 67.2039) rotate(-180) scale(72.6838 44.3655)">
<stop stop-color="#FFE600"/>
<stop offset="0.639949" stop-color="#FFCB11"/>
<stop offset="1" stop-color="#FF4D00"/>
</radialGradient>
<radialGradient id="paint5_radial_14_283" cx="0" cy="0" r="1" gradientUnits="userSpaceOnUse" gradientTransform="translate(68.1269 67.2039) rotate(-180) scale(72.6838 44.3655)">
<stop stop-color="#FFE600"/>
<stop offset="0.639949" stop-color="#FFCB11"/>
<stop offset="1" stop-color="#FF4D00"/>
</radialGradient>
<radialGradient id="paint6_radial_14_283" cx="0" cy="0" r="1" gradientUnits="userSpaceOnUse" gradientTransform="translate(104.686 6.96133) rotate(110.249) scale(68.5972)">
<stop stop-color="#FFC2C2"/>
<stop offset="1" stop-color="#FFB0B0" stop-opacity="0"/>
</radialGradient>
<radialGradient id="paint7_radial_14_283" cx="0" cy="0" r="1" gradientUnits="userSpaceOnUse" gradientTransform="translate(5.94451 108.444) rotate(-80.6705) scale(70.9384 92.2199)">
<stop stop-color="white"/>
<stop offset="1" stop-color="white" stop-opacity="0"/>
</radialGradient>
<radialGradient id="paint8_radial_14_283" cx="0" cy="0" r="1" gradientUnits="userSpaceOnUse" gradientTransform="translate(93.6169 22.0993) rotate(110.249) scale(27.947)">
<stop stop-color="white"/>
<stop offset="1" stop-color="white" stop-opacity="0"/>
</radialGradient>
</defs>
</svg>
