<svg width="597" height="597" viewBox="0 0 597 597" fill="none" xmlns="http://www.w3.org/2000/svg">
<g opacity="0.2">
<path d="M595.981 262.44C595.981 263.787 594.862 264.879 593.481 264.879C592.101 264.879 590.981 263.787 590.981 262.44C590.981 261.092 592.101 260 593.481 260C594.862 260 595.981 261.092 595.981 262.44Z" fill="#00C8A0"/>
<path d="M595.981 326.48C595.981 327.827 594.862 328.92 593.481 328.92C592.101 328.92 590.981 327.827 590.981 326.48C590.981 325.133 592.101 324.04 593.481 324.04C594.862 324.04 595.981 325.133 595.981 326.48Z" fill="#00C8A0"/>
<path d="M595.981 390.52C595.981 391.867 594.862 392.96 593.481 392.96C592.101 392.96 590.981 391.867 590.981 390.52C590.981 389.173 592.101 388.081 593.481 388.081C594.862 388.081 595.981 389.173 595.981 390.52Z" fill="#00C8A0"/>
<path d="M595.981 454.56C595.981 455.908 594.862 457 593.481 457C592.101 457 590.981 455.908 590.981 454.56C590.981 453.213 592.101 452.121 593.481 452.121C594.862 452.121 595.981 453.213 595.981 454.56Z" fill="#00C8A0"/>
</g>
<path opacity="0.1" fill-rule="evenodd" clip-rule="evenodd" d="M595.373 0.174724C595.952 0.178799 596.417 0.65122 596.413 1.22991L594.866 221.002C594.862 221.581 594.389 222.047 593.811 222.043V222.043C593.232 222.038 592.766 221.566 592.77 220.987L594.318 1.21515C594.322 0.636464 594.794 0.170648 595.373 0.174724V0.174724Z" fill="url(#paint0_radial_447_10)"/>
<path opacity="0.5" d="M280.733 36.299L40.3794 175.067C39.6059 175.514 39.1294 176.339 39.1294 177.232V454.768C39.1294 455.661 39.6059 456.486 40.3794 456.933L280.733 595.701C281.506 596.148 282.459 596.148 283.233 595.701L523.586 456.933C524.359 456.486 524.836 455.661 524.836 454.768V177.232C524.836 176.339 524.359 175.514 523.586 175.067L283.233 36.299C282.459 35.8525 281.506 35.8525 280.733 36.299Z" stroke="url(#paint1_linear_447_10)"/>
<defs>
<radialGradient id="paint0_radial_447_10" cx="0" cy="0" r="1" gradientUnits="userSpaceOnUse" gradientTransform="translate(594.983 120.5) rotate(-90.0002) scale(120.5 47830.4)">
<stop stop-color="#3AFFD8"/>
<stop offset="1" stop-color="#00C8A0" stop-opacity="0"/>
</radialGradient>
<linearGradient id="paint1_linear_447_10" x1="494.569" y1="426.196" x2="19.7704" y2="258.82" gradientUnits="userSpaceOnUse">
<stop stop-color="#3AFFD8"/>
<stop offset="1" stop-color="white" stop-opacity="0"/>
</linearGradient>
</defs>
</svg>
