<svg width="7" height="457" viewBox="0 0 7 457" fill="none" xmlns="http://www.w3.org/2000/svg">
<g opacity="0.2">
<path d="M5.98145 262.44C5.98145 263.787 4.86216 264.879 3.48145 264.879C2.10073 264.879 0.981445 263.787 0.981445 262.44C0.981445 261.092 2.10073 260 3.48145 260C4.86216 260 5.98145 261.092 5.98145 262.44Z" fill="#00C8A0"/>
<path d="M5.98145 326.48C5.98145 327.827 4.86216 328.92 3.48145 328.92C2.10073 328.92 0.981445 327.827 0.981445 326.48C0.981445 325.133 2.10073 324.04 3.48145 324.04C4.86216 324.04 5.98145 325.133 5.98145 326.48Z" fill="#00C8A0"/>
<path d="M5.98145 390.52C5.98145 391.867 4.86216 392.96 3.48145 392.96C2.10073 392.96 0.981445 391.867 0.981445 390.52C0.981445 389.173 2.10073 388.081 3.48145 388.081C4.86216 388.081 5.98145 389.173 5.98145 390.52Z" fill="#00C8A0"/>
<path d="M5.98145 454.56C5.98145 455.908 4.86216 457 3.48145 457C2.10073 457 0.981445 455.908 0.981445 454.56C0.981445 453.213 2.10073 452.121 3.48145 452.121C4.86216 452.121 5.98145 453.213 5.98145 454.56Z" fill="#00C8A0"/>
</g>
<path opacity="0.1" fill-rule="evenodd" clip-rule="evenodd" d="M5.37295 0.17473C5.95164 0.178806 6.41746 0.651214 6.41338 1.2299L4.86569 221.002C4.86161 221.581 4.38919 222.047 3.8105 222.043C3.23181 222.038 2.766 221.566 2.77007 220.987L4.31777 1.21515C4.32184 0.636471 4.79426 0.170655 5.37295 0.17473Z" fill="url(#paint0_radial_598_10)"/>
<defs>
<radialGradient id="paint0_radial_598_10" cx="0" cy="0" r="1" gradientUnits="userSpaceOnUse" gradientTransform="translate(4.98319 120.5) rotate(-90.0002) scale(120.5 47830.4)">
<stop stop-color="#3AFFD8"/>
<stop offset="1" stop-color="#00C8A0" stop-opacity="0"/>
</radialGradient>
</defs>
</svg>
