<svg width="22" height="110" viewBox="0 0 22 110" fill="none" xmlns="http://www.w3.org/2000/svg">
<path opacity="0.3" fill-rule="evenodd" clip-rule="evenodd" d="M21.4844 0C21.2082 0 20.9844 0.223858 20.9844 0.499999L20.9844 109.5C20.9844 109.776 21.2082 110 21.4844 110V110C21.7605 110 21.9844 109.776 21.9844 109.5L21.9844 0.499998C21.9844 0.223857 21.7605 0 21.4844 0V0ZM15.5344 4.41409C15.5344 4.15175 15.3217 3.93909 15.0594 3.93909L1.45938 3.93909C1.19704 3.93909 0.984375 4.15175 0.984375 4.41409V4.41409C0.984375 4.67642 1.19704 4.88909 1.45938 4.88909L15.0594 4.88909C15.3217 4.88909 15.5344 4.67642 15.5344 4.41409V4.41409ZM0.984375 9.16018C0.984375 8.89785 1.19704 8.68518 1.45938 8.68518H15.0594C15.3217 8.68518 15.5344 8.89785 15.5344 9.16018V9.16018C15.5344 9.42252 15.3217 9.63518 15.0594 9.63518H1.45938C1.19704 9.63518 0.984375 9.42252 0.984375 9.16018V9.16018ZM5.79438 15.0355C5.54771 15.5955 5.42438 16.2322 5.42438 16.9455C5.42438 17.6588 5.54771 18.2988 5.79438 18.8655C6.03438 19.4255 6.37771 19.9022 6.82438 20.2955C7.27104 20.6822 7.81104 20.9788 8.44438 21.1855C9.07104 21.3855 9.77438 21.4855 10.5544 21.4855C11.3344 21.4855 12.0377 21.3855 12.6644 21.1855C13.291 20.9788 13.8277 20.6822 14.2744 20.2955C14.721 19.9022 15.0644 19.4255 15.3044 18.8655C15.5444 18.2988 15.6644 17.6588 15.6644 16.9455C15.6644 16.2322 15.5444 15.5955 15.3044 15.0355C15.0644 14.4688 14.721 13.9922 14.2744 13.6055C13.8277 13.2188 13.291 12.9255 12.6644 12.7255C12.0377 12.5188 11.3344 12.4155 10.5544 12.4155C9.77438 12.4155 9.07104 12.5188 8.44438 12.7255C7.81104 12.9255 7.27104 13.2188 6.82438 13.6055C6.37771 13.9922 6.03438 14.4688 5.79438 15.0355ZM14.6144 15.3955C14.8144 15.8355 14.9144 16.3522 14.9144 16.9455C14.9144 17.5388 14.8144 18.0588 14.6144 18.5055C14.4077 18.9455 14.1144 19.3155 13.7344 19.6155C13.3544 19.9088 12.8977 20.1322 12.3644 20.2855C11.8244 20.4322 11.221 20.5055 10.5544 20.5055C9.89438 20.5055 9.29438 20.4322 8.75438 20.2855C8.21438 20.1322 7.75438 19.9088 7.37438 19.6155C6.98771 19.3155 6.69104 18.9455 6.48438 18.5055C6.27771 18.0588 6.17438 17.5388 6.17438 16.9455C6.17438 16.3522 6.27771 15.8355 6.48438 15.3955C6.69104 14.9488 6.98771 14.5788 7.37438 14.2855C7.75438 13.9855 8.21438 13.7622 8.75438 13.6155C9.29438 13.4688 9.89438 13.3955 10.5544 13.3955C11.221 13.3955 11.8244 13.4688 12.3644 13.6155C12.8977 13.7622 13.3544 13.9855 13.7344 14.2855C14.1144 14.5788 14.4077 14.9488 14.6144 15.3955ZM15.5344 28.2097C15.5344 28.472 15.3217 28.6847 15.0594 28.6847L6.08438 28.6847C5.80823 28.6847 5.58438 28.4609 5.58438 28.1847V28.1847C5.58438 28.0714 5.60771 27.9914 5.65438 27.9447C5.70104 27.8914 5.78104 27.8614 5.89438 27.8547V27.8547C6.37337 27.8365 6.57117 26.9938 6.24087 26.6465C6.19372 26.5969 6.14822 26.5463 6.10438 26.4947C5.64438 25.9614 5.41438 25.3047 5.41438 24.5247C5.41438 24.2247 5.44771 23.948 5.51438 23.6947C5.52195 23.6627 5.53001 23.6309 5.53854 23.5994C5.64276 23.2139 6.05257 23.0275 6.44438 23.1047V23.1047C6.55104 23.1247 6.60438 23.1914 6.60438 23.3047C6.60438 23.3447 6.59104 23.4014 6.56438 23.4747C6.53771 23.548 6.50771 23.6414 6.47438 23.7547C6.44104 23.8614 6.41104 23.9947 6.38438 24.1547C6.35771 24.3147 6.34438 24.498 6.34438 24.7047C6.34438 25.458 6.57771 26.078 7.04438 26.5647C7.42504 26.9563 7.94323 27.2879 8.59893 27.5597C8.90312 27.6858 9.23239 27.7347 9.56169 27.7347H15.0594C15.3217 27.7347 15.5344 27.9474 15.5344 28.2097V28.2097ZM7.00438 31.3363C6.98408 31.3109 6.96185 31.2855 6.93768 31.2602C6.92237 31.2441 6.90539 31.2297 6.88749 31.2165V31.2165C6.70864 31.085 6.45761 31.1058 6.32134 31.2811C6.08464 31.5855 5.88899 31.9272 5.73438 32.3063C5.52771 32.8063 5.42438 33.3796 5.42438 34.0263C5.42438 34.7463 5.55104 35.3863 5.80438 35.9463C6.05104 36.4996 6.40104 36.9696 6.85438 37.3563C7.30771 37.7363 7.84771 38.0263 8.47438 38.2263C9.10104 38.4263 9.79438 38.5263 10.5544 38.5263C11.361 38.5263 12.081 38.4229 12.7144 38.2163C13.3477 38.0029 13.8844 37.7096 14.3244 37.3363C14.7577 36.9563 15.091 36.5063 15.3244 35.9863C15.551 35.4596 15.6644 34.8796 15.6644 34.2463C15.6644 33.8729 15.6277 33.5163 15.5544 33.1763C15.4877 32.8296 15.391 32.5096 15.2644 32.2163C15.1377 31.9229 14.9877 31.6596 14.8144 31.4263C14.7325 31.3161 14.6477 31.2148 14.5599 31.1225C14.3933 30.9473 14.122 30.9538 13.9344 31.1063V31.1063C13.8677 31.1529 13.8344 31.2196 13.8344 31.3063C13.8344 31.3796 13.891 31.4796 14.0044 31.6063C14.1177 31.7263 14.241 31.8929 14.3744 32.1063C14.5077 32.3129 14.631 32.5796 14.7444 32.9063C14.8577 33.2263 14.9144 33.6263 14.9144 34.1063C14.9144 34.6263 14.8177 35.0996 14.6244 35.5263C14.431 35.9529 14.151 36.3163 13.7844 36.6163C13.411 36.9163 12.9544 37.1496 12.4144 37.3163C11.8744 37.4763 11.2544 37.5563 10.5544 37.5563C9.88104 37.5563 9.27438 37.4763 8.73438 37.3163C8.19438 37.1563 7.73438 36.9263 7.35438 36.6263C6.97438 36.3196 6.68438 35.9463 6.48438 35.5063C6.27771 35.0596 6.17438 34.5496 6.17438 33.9763C6.17438 33.5629 6.22104 33.2129 6.31438 32.9263C6.40104 32.6329 6.49771 32.3896 6.60438 32.1963C6.71104 32.0029 6.81104 31.8496 6.90438 31.7363C6.99104 31.6163 7.03438 31.5229 7.03438 31.4563C7.03438 31.4029 7.02438 31.3629 7.00438 31.3363ZM6.95438 41.12C6.95438 41.02 6.90771 40.9467 6.81438 40.9V40.9C6.62352 40.7786 6.37049 40.8099 6.2337 40.9901C5.99782 41.3008 5.81471 41.6341 5.68438 41.99C5.51104 42.4567 5.42438 42.9934 5.42438 43.6C5.42438 44.1067 5.49771 44.5634 5.64438 44.97C5.79104 45.3767 5.98771 45.7234 6.23438 46.01C6.48104 46.29 6.76771 46.5067 7.09438 46.66C7.42104 46.8134 7.76104 46.89 8.11438 46.89C8.52771 46.89 8.87438 46.81 9.15438 46.65C9.42771 46.49 9.66104 46.28 9.85438 46.02C10.0477 45.76 10.2077 45.4667 10.3344 45.14C10.461 44.8067 10.5777 44.4667 10.6844 44.12C10.791 43.7667 10.8977 43.4267 11.0044 43.1C11.111 42.7667 11.241 42.47 11.3944 42.21C11.5477 41.95 11.7344 41.74 11.9544 41.58C12.1744 41.42 12.451 41.34 12.7844 41.34C13.0844 41.34 13.371 41.3967 13.6444 41.51C13.911 41.6167 14.1444 41.7767 14.3444 41.99C14.5444 42.2034 14.7044 42.47 14.8244 42.79C14.9377 43.11 14.9944 43.48 14.9944 43.9C14.9944 44.3467 14.941 44.7234 14.8344 45.03C14.7277 45.33 14.6144 45.5834 14.4944 45.79C14.3677 45.99 14.251 46.1534 14.1444 46.28C14.0377 46.4067 13.9844 46.5134 13.9844 46.6C13.9844 46.6734 13.9977 46.73 14.0244 46.77C14.051 46.81 14.091 46.8467 14.1444 46.88V46.88C14.3393 47.0119 14.6036 46.9812 14.7464 46.7942C14.9894 46.4757 15.1954 46.1277 15.3644 45.75C15.5844 45.2434 15.6944 44.64 15.6944 43.94C15.6944 43.3867 15.6144 42.8934 15.4544 42.46C15.2944 42.0267 15.0777 41.6634 14.8044 41.37C14.531 41.07 14.2077 40.8434 13.8344 40.69C13.461 40.53 13.0577 40.45 12.6244 40.45C12.2244 40.45 11.8844 40.53 11.6044 40.69C11.3244 40.85 11.0877 41.06 10.8944 41.32C10.701 41.58 10.541 41.8767 10.4144 42.21C10.281 42.5367 10.161 42.8734 10.0544 43.22C9.94771 43.5667 9.84104 43.9067 9.73438 44.24C9.62771 44.5667 9.50104 44.86 9.35438 45.12C9.20771 45.38 9.03104 45.59 8.82438 45.75C8.61771 45.91 8.35771 45.99 8.04438 45.99C7.79104 45.99 7.55104 45.9334 7.32438 45.82C7.09104 45.7 6.88771 45.5367 6.71438 45.33C6.54104 45.1167 6.40438 44.8634 6.30438 44.57C6.19771 44.27 6.14438 43.94 6.14438 43.58C6.14438 43.18 6.18771 42.8434 6.27438 42.57C6.35438 42.29 6.44771 42.0567 6.55438 41.87C6.65438 41.6767 6.74771 41.5234 6.83438 41.41C6.91438 41.29 6.95438 41.1934 6.95438 41.12Z" fill="url(#paint0_linear_347_743)"/>
<defs>
<linearGradient id="paint0_linear_347_743" x1="11.5094" y1="0" x2="11.5094" y2="89" gradientUnits="userSpaceOnUse">
<stop stop-color="#3AFFD8"/>
<stop offset="1" stop-color="#3AFFD8" stop-opacity="0"/>
</linearGradient>
</defs>
</svg>
