<svg width="136" height="121" viewBox="0 0 136 121" fill="none" xmlns="http://www.w3.org/2000/svg">
<path d="M40 95.4792V73.9792C40 63.762 31.7173 55.4792 21.5 55.4792V55.4792C11.2827 55.4792 3 63.762 3 73.9792V95.4792" stroke="white" stroke-width="6" stroke-linecap="round"/>
<path d="M131 95.4792V73.9792C131 63.762 122.717 55.4792 112.5 55.4792V55.4792C102.283 55.4792 94 63.762 94 73.9792V95.4792" stroke="white" stroke-width="6" stroke-linecap="round"/>
<ellipse cx="21.5" cy="32.4792" rx="13.5" ry="14" stroke="white" stroke-width="6" stroke-linecap="round"/>
<ellipse cx="112.5" cy="32.4792" rx="13.5" ry="14" stroke="white" stroke-width="6" stroke-linecap="round"/>
<circle cx="68.5" cy="21.9792" r="21.5" fill="#0044A9"/>
<path d="M37 79.4792C37 62.9107 50.4315 49.4792 67 49.4792C83.5685 49.4792 97 62.9107 97 79.4792V105.12C97 109.737 93.2575 113.479 88.6408 113.479H45.3592C40.7425 113.479 37 109.737 37 105.12V79.4792Z" fill="#0044A9"/>
<circle cx="68.5" cy="25.9792" r="21.5" fill="#0066FF"/>
<path d="M37 84.4792C37 67.9107 50.4315 54.4792 67 54.4792C83.5685 54.4792 97 67.9107 97 84.4792V110.12C97 114.737 93.2575 118.479 88.6408 118.479H45.3592C40.7425 118.479 37 114.737 37 110.12V84.4792Z" fill="#0066FF"/>
</svg>
