<svg width="138" height="135" viewBox="0 0 138 135" fill="none" xmlns="http://www.w3.org/2000/svg">
<path fill-rule="evenodd" clip-rule="evenodd" d="M29.0133 27.4876C28.7018 20.7628 33.8999 15.0421 40.6236 14.7099L84.593 12.5377C91.3168 12.2055 97.02 17.3877 97.3316 24.1125L100.652 95.7765C100.974 102.737 95.4071 108.569 88.44 108.569L88.1073 108.569L88.1259 102.473H88.4586C91.9422 102.473 94.7257 99.5575 94.5644 96.0772L91.2443 24.4132C91.0886 21.0508 88.2369 18.4597 84.8751 18.6258L40.9057 20.798C37.5438 20.9641 34.9447 23.8245 35.1005 27.1868L35.5831 37.6037L29.4959 37.9044L29.0133 27.4876Z" fill="white"/>
<path fill-rule="evenodd" clip-rule="evenodd" d="M72.2357 7.66232C74.6506 1.37838 81.658 -1.64645 87.8872 0.906155L128.878 17.7033C135.107 20.2559 138.199 27.4193 135.785 33.7032L110.02 100.749C107.605 107.033 100.597 110.058 94.3682 107.506L92.843 106.881L95.0292 101.191L96.5544 101.816C99.6691 103.093 103.173 101.58 104.38 98.4384L130.145 31.3923C131.352 28.2503 129.806 24.6686 126.692 23.3923L85.701 6.59519C82.5864 5.31888 79.0827 6.8313 77.8752 9.97327L74.6342 18.4073L68.9946 16.0964L72.2357 7.66232Z" fill="white"/>
<path fill-rule="evenodd" clip-rule="evenodd" d="M3.96329 58.058C1.34446 51.8563 4.24893 44.7059 10.4506 42.0871L51.0017 24.9633C57.2033 22.3445 64.3538 25.2489 66.9726 31.4506L93.9508 95.338C96.5696 101.54 93.6651 108.69 87.4634 111.309L46.9124 128.433C40.7107 131.052 33.5603 128.147 30.9415 121.945L3.96329 58.058Z" fill="#0044A9"/>
<path fill-rule="evenodd" clip-rule="evenodd" d="M1.59976 62.6928C-1.01907 56.4911 1.88541 49.3407 8.08709 46.7218L48.6381 29.5981C54.8398 26.9792 61.9903 29.8837 64.6091 36.0854L91.5872 99.9727C94.2061 106.174 91.3016 113.325 85.0999 115.944L44.5489 133.067C38.3472 135.686 31.1968 132.782 28.5779 126.58L1.59976 62.6928Z" fill="#0066FF"/>
<path d="M59.8342 71.7942C56.3238 66.0953 50.9601 62.6187 46.6065 64.5257C36.3 69.0404 48.9445 88.0324 43.8357 90.2703C41.3479 91.36 38.5588 88.4728 36.7794 84.6528C35.731 82.4021 34.8383 79.7487 34.191 77.1772C33.4293 74.1517 30.5844 71.8233 27.3969 72.2043C27.4312 75.3783 28.7936 80.4849 30.4252 84.6764L29.9322 84.8839C26.589 86.291 25.0804 90.0794 26.5808 93.3003L33.3313 90.456C36.9958 96.0261 42.4246 99.4128 46.9559 97.428C57.4401 92.8355 44.6386 73.8509 49.9695 71.5157C51.9686 70.6401 54.8112 73.8718 56.0924 76.6222C56.9549 78.4738 57.667 80.6646 58.1961 82.8631C58.9878 86.152 61.9852 88.696 65.4598 88.464C65.0701 85.4457 63.9807 81.3847 62.6072 77.6321L63.0907 77.4225C66.4287 75.9752 67.9181 72.173 66.4129 68.9416L59.8342 71.7942Z" fill="white"/>
</svg>
