<svg width="26" height="26" viewBox="0 0 26 26" fill="none" xmlns="http://www.w3.org/2000/svg">
<path fill-rule="evenodd" clip-rule="evenodd" d="M8 0C3.58172 0 0 3.58172 0 7.99999V17.72C0 22.1383 3.58172 25.72 7.99999 25.72H17.72C22.1383 25.72 25.72 22.1383 25.72 17.72V8C25.72 3.58172 22.1383 0 17.72 0H8ZM10.4393 6.39237L10.2922 6.04905C8.53506 6.27586 7.62626 6.61222 6.17229 7.66757C4.51083 11.1844 3.90132 13.1596 3.71997 16.6921C5.48169 18.4253 6.63619 19.0004 9.06602 19.1444L9.70362 18.3106C7.9769 17.6314 7.25496 17.0534 6.17229 15.8583C10.096 18.5068 15.7854 18.6049 19.2677 15.8583C18.2873 17.1504 17.4615 17.6315 15.7854 18.3106L16.472 19.1444C18.9686 18.8891 20.0897 18.3082 21.72 16.6921C21.4726 12.7189 20.8842 10.8045 19.3657 7.71662C17.982 6.677 17.0733 6.2953 15.1968 6L15.0006 6.39237C16.7169 6.86309 17.5702 7.30593 18.8753 8.45232C14.0396 6.36224 11.3432 6.2985 6.56466 8.45232C7.94211 7.37629 8.76081 6.86595 10.4393 6.39237ZM10.0469 15.0245C10.8325 15.0245 11.4693 14.2999 11.4693 13.406C11.4693 12.5121 10.8325 11.7875 10.0469 11.7875C9.2614 11.7875 8.6246 12.5121 8.6246 13.406C8.6246 14.2999 9.2614 15.0245 10.0469 15.0245ZM16.8644 13.406C16.8644 14.2999 16.2276 15.0245 15.442 15.0245C14.6565 15.0245 14.0197 14.2999 14.0197 13.406C14.0197 12.5121 14.6565 11.7875 15.442 11.7875C16.2276 11.7875 16.8644 12.5121 16.8644 13.406Z" fill="#584B5E"/>
</svg>
