<svg width="26" height="26" viewBox="0 0 26 26" fill="none" xmlns="http://www.w3.org/2000/svg">
<path fill-rule="evenodd" clip-rule="evenodd" d="M8 0C3.58172 0 0 3.58172 0 7.99999V17.72C0 22.1383 3.58172 25.72 7.99999 25.72H17.72C22.1383 25.72 25.72 22.1383 25.72 17.72V8C25.72 3.58172 22.1383 0 17.72 0H8ZM9.51431 18.7823L9.80719 15.2757L16.7076 9.01677C16.812 8.92204 16.8159 8.75944 16.7161 8.65987C16.6347 8.57865 16.5079 8.56425 16.4103 8.62512L8.1883 13.7523C7.78382 14.0045 7.29059 14.0644 6.8392 13.9107C5.87397 13.5819 4.21404 13.0097 3.21826 12.666C2.93494 12.5683 2.92461 12.1737 3.20388 12.065C6.10826 10.9342 15.95 7.1026 18.5113 6.10878C19.1023 5.89435 20.2199 5.85146 19.962 7.39536C19.7041 8.93927 18.2427 15.7582 17.5442 18.9746C17.4367 19.5107 16.9317 20.422 15.7711 19.7787C14.6106 19.1355 12.9235 17.688 12.225 17.0448L10.0624 19.0483C10.002 19.1043 9.92253 19.1355 9.84003 19.1355C9.64881 19.1355 9.49843 18.9724 9.51431 18.7823Z" fill="#BAB9BB"/>
</svg>
