<svg width="200" height="40" viewBox="0 0 200 40" fill="none" xmlns="http://www.w3.org/2000/svg">
<path d="M4.99745 22.0273H19.1249V18.7529H4.99745V9.80734H26.3091L23.2571 6.53296H0.758667V34.4868H23.7356L26.7876 31.2124H4.99745V22.0273Z" fill="white"/>
<path d="M63.918 6.43374H58.6644L48.1347 17.6433L31.402 0.268555H25.84L44.8603 20.3527L31.6711 34.5859H36.9341L47.9254 22.7364L64.2694 39.6846H69.7921L51.1045 20.3096L63.918 6.43374Z" fill="white"/>
<path d="M83.2635 5.49634C73.7879 5.49634 65.9719 10.7803 65.9719 20.0945C65.9719 28.3216 72.8272 35.2576 83.2635 35.2576C93.6997 35.2576 100.555 28.3216 100.555 20.0945C100.553 10.7803 92.7372 5.49634 83.2635 5.49634ZM83.2635 31.9533C76.3203 31.9533 70.3827 27.154 70.3827 20.0159C70.3827 12.8777 76.453 8.8044 83.2635 8.8044C90.0758 8.8044 96.1443 12.8777 96.1443 20.0159C96.1443 27.154 90.2047 31.9533 83.2635 31.9533Z" fill="white"/>
<path d="M115.686 6.29907H102.032L105.887 10.2489H115.262C121.725 10.2489 128.012 13.1285 128.012 20.0795C128.012 27.0699 121.725 30.638 115.262 30.638H105.887L101.607 34.5878H115.684C125.683 34.5878 132.632 28.1626 132.632 20.1619C132.636 11.0273 124.9 6.29907 115.686 6.29907Z" fill="white"/>
<path d="M164.486 20.2853C164.486 26.9238 159.737 30.9167 153.553 30.9167C147.37 30.9167 142.62 26.9238 142.62 20.2853V6.19421H138.229V20.1955C138.229 29.6144 145.309 34.6832 153.553 34.6832C161.797 34.6832 168.876 29.6144 168.876 20.1955V6.19421H164.486V20.2853Z" fill="white"/>
<path d="M187.966 17.8454C182.942 16.8575 178.537 16.1989 178.537 13.0742C178.537 10.3854 182.262 9.09438 185.884 9.09438C189.867 9.09438 193.623 9.96443 197.243 11.1507L198.421 7.45906C194.982 6.42997 190.003 5.64038 185.884 5.64038C179.774 5.64038 173.981 8.6472 173.981 13.1153C173.981 18.968 180.679 20.4462 186.607 21.6325C191.268 22.5811 195.432 23.279 195.432 26.2858C195.432 29.925 191.224 31.1225 186.652 31.1225C182.669 31.1225 178.189 30.2132 174.614 28.9072L173.528 32.4566C177.104 33.8805 182.49 34.8291 186.97 34.8291C193.805 34.8291 199.823 31.5061 199.823 26.2858C199.824 20.7456 193.67 18.9531 187.966 17.8454Z" fill="white"/>
</svg>
