<svg width="121" height="31" viewBox="0 0 121 31" fill="none" xmlns="http://www.w3.org/2000/svg">
<mask id="path-1-outside-1_29_268" maskUnits="userSpaceOnUse" x="-0.5" y="25" width="117" height="6" fill="black">
<rect fill="white" x="-0.5" y="25" width="117" height="6"/>
<path d="M56.8803 30C56.5743 30 56.284 29.9512 56.0094 29.8535C55.7386 29.7521 55.5287 29.6225 55.3796 29.4648L55.515 29.2507C55.6562 29.3897 55.8485 29.508 56.0917 29.6056C56.3389 29.6995 56.5998 29.7465 56.8745 29.7465C57.1491 29.7465 57.3727 29.7127 57.5454 29.6451C57.7219 29.5737 57.8514 29.4798 57.9338 29.3634C58.0201 29.2469 58.0633 29.1174 58.0633 28.9746C58.0633 28.8056 58.0162 28.6704 57.922 28.569C57.8279 28.4676 57.7043 28.3869 57.5513 28.3268C57.3982 28.2667 57.2315 28.216 57.051 28.1746C56.8705 28.1333 56.6881 28.0901 56.5037 28.0451C56.3193 27.9962 56.1506 27.9343 55.9976 27.8592C55.8446 27.784 55.721 27.6826 55.6268 27.5549C55.5366 27.4235 55.4915 27.2545 55.4915 27.0479C55.4915 26.8601 55.5425 26.6873 55.6445 26.5296C55.7465 26.3718 55.9054 26.2441 56.1212 26.1465C56.3369 26.0488 56.6136 26 56.951 26C57.1785 26 57.4021 26.0319 57.6219 26.0958C57.8455 26.1596 58.0358 26.246 58.1927 26.3549L58.0809 26.5859C57.9083 26.4732 57.7219 26.3906 57.5218 26.338C57.3257 26.2817 57.1354 26.2535 56.951 26.2535C56.6881 26.2535 56.4704 26.2892 56.2977 26.3606C56.1251 26.4319 55.9976 26.5277 55.9152 26.6479C55.8328 26.7643 55.7916 26.8958 55.7916 27.0423C55.7916 27.2113 55.8367 27.3465 55.927 27.4479C56.0211 27.5493 56.1447 27.63 56.2977 27.6901C56.4507 27.7502 56.6194 27.8009 56.8038 27.8423C56.9882 27.8836 57.1707 27.9286 57.3512 27.9775C57.5316 28.0225 57.6984 28.0826 57.8514 28.1577C58.0044 28.2329 58.128 28.3343 58.2222 28.462C58.3163 28.5897 58.3634 28.7549 58.3634 28.9577C58.3634 29.1418 58.3104 29.3146 58.2045 29.4761C58.0986 29.6338 57.9357 29.7615 57.716 29.8592C57.5003 29.953 57.2217 30 56.8803 30Z"/>
<path d="M97.0809 29.8535C97.3438 29.9512 97.6282 30 97.9343 30C98.2246 30 98.4953 29.9549 98.7464 29.8648C99.0014 29.7709 99.2192 29.6319 99.3997 29.4479L99.2113 29.262C99.0348 29.431 98.8386 29.5531 98.6228 29.6282C98.411 29.6995 98.1854 29.7352 97.946 29.7352C97.6832 29.7352 97.438 29.692 97.2104 29.6056C96.9868 29.5193 96.7906 29.3972 96.6219 29.2394C96.4571 29.0817 96.3276 28.8977 96.2335 28.6873C96.1432 28.477 96.0981 28.2479 96.0981 28C96.0981 27.7521 96.1432 27.523 96.2335 27.3127C96.3276 27.1023 96.4571 26.9183 96.6219 26.7606C96.7906 26.6028 96.9868 26.4808 97.2104 26.3944C97.438 26.308 97.6832 26.2648 97.946 26.2648C98.1854 26.2648 98.411 26.3023 98.6228 26.3775C98.8386 26.4488 99.0348 26.5671 99.2113 26.7324L99.3997 26.5465C99.2192 26.3624 99.0014 26.2254 98.7464 26.1352C98.4953 26.0451 98.2246 26 97.9343 26C97.6282 26 97.3458 26.0507 97.0868 26.1521C96.8279 26.2498 96.6003 26.3887 96.4041 26.569C96.2119 26.7493 96.0628 26.9615 95.9569 27.2056C95.851 27.446 95.798 27.7108 95.798 28C95.798 28.2892 95.851 28.5559 95.9569 28.8C96.0628 29.0404 96.2119 29.2507 96.4041 29.431C96.5964 29.6113 96.822 29.7521 97.0809 29.8535Z"/>
<path d="M113.146 29.8535C113.421 29.9512 113.711 30 114.017 30C114.358 30 114.637 29.953 114.853 29.8592C115.072 29.7615 115.235 29.6338 115.341 29.4761C115.447 29.3146 115.5 29.1418 115.5 28.9577C115.5 28.7549 115.453 28.5897 115.359 28.462C115.265 28.3343 115.141 28.2329 114.988 28.1577C114.835 28.0826 114.668 28.0225 114.488 27.9775C114.307 27.9286 114.125 27.8836 113.94 27.8423C113.756 27.8009 113.587 27.7502 113.434 27.6901C113.281 27.63 113.158 27.5493 113.064 27.4479C112.973 27.3465 112.928 27.2113 112.928 27.0423C112.928 26.8958 112.969 26.7643 113.052 26.6479C113.134 26.5277 113.262 26.4319 113.434 26.3606C113.607 26.2892 113.825 26.2535 114.088 26.2535C114.272 26.2535 114.462 26.2817 114.658 26.338C114.859 26.3906 115.045 26.4732 115.217 26.5859L115.329 26.3549C115.172 26.246 114.982 26.1596 114.758 26.0958C114.539 26.0319 114.315 26 114.088 26C113.75 26 113.474 26.0488 113.258 26.1465C113.042 26.2441 112.883 26.3718 112.781 26.5296C112.679 26.6873 112.628 26.8601 112.628 27.0479C112.628 27.2545 112.673 27.4235 112.763 27.5549C112.858 27.6826 112.981 27.784 113.134 27.8592C113.287 27.9343 113.456 27.9962 113.64 28.0451C113.825 28.0901 114.007 28.1333 114.188 28.1746C114.368 28.216 114.535 28.2667 114.688 28.3268C114.841 28.3869 114.964 28.4676 115.059 28.569C115.153 28.6704 115.2 28.8056 115.2 28.9746C115.2 29.1174 115.157 29.2469 115.07 29.3634C114.988 29.4798 114.859 29.5737 114.682 29.6451C114.509 29.7127 114.286 29.7465 114.011 29.7465C113.736 29.7465 113.476 29.6995 113.228 29.6056C112.985 29.508 112.793 29.3897 112.652 29.2507L112.516 29.4648C112.665 29.6225 112.875 29.7521 113.146 29.8535Z"/>
<path d="M105.001 29.7127V28.0958H107.196V27.8423H105.001V26.2873H107.455V26.0282H104.701V29.9718H107.544V29.7127H105.001Z"/>
<path d="M87.103 26.0282V29.9718H87.4031V26.5482L90.2103 29.9718H90.4575V26.0282H90.1573V29.4515L87.356 26.0282H87.103Z"/>
<path d="M79.1701 28.0958V29.7127H81.7125V29.9718H78.87V26.0282H81.6242V26.2873H79.1701V27.8423H81.3653V28.0958H79.1701Z"/>
<path fill-rule="evenodd" clip-rule="evenodd" d="M69.7117 26.0282V29.9718H71.3419C71.7774 29.9718 72.1599 29.8873 72.4895 29.7183C72.819 29.5493 73.0741 29.3164 73.2545 29.0197C73.439 28.723 73.5311 28.3831 73.5311 28C73.5311 27.6169 73.439 27.277 73.2545 26.9803C73.0741 26.6836 72.819 26.4507 72.4895 26.2817C72.1599 26.1127 71.7774 26.0282 71.3419 26.0282H69.7117ZM71.3183 29.7127H70.0118V26.2873H71.3183C71.7067 26.2873 72.0442 26.3606 72.3306 26.507C72.617 26.6535 72.8387 26.8563 72.9956 27.1155C73.1525 27.3709 73.231 27.6657 73.231 28C73.231 28.3343 73.1525 28.631 72.9956 28.8901C72.8387 29.1455 72.617 29.3465 72.3306 29.493C72.0442 29.6394 71.7067 29.7127 71.3183 29.7127Z"/>
<path d="M63.6799 26.0282V29.9718H63.98V26.0282H63.6799Z"/>
<path d="M47.8647 29.7127V28.0958H50.0598V27.8423H47.8647V26.2873H50.3188V26.0282H47.5645V29.9718H50.4071V29.7127H47.8647Z"/>
<path fill-rule="evenodd" clip-rule="evenodd" d="M39.0327 29.9718V26.0282H40.5099C40.8551 26.0282 41.1513 26.0808 41.3985 26.1859C41.6457 26.2911 41.836 26.4432 41.9694 26.6423C42.1028 26.8376 42.1695 27.0761 42.1695 27.3577C42.1695 27.6319 42.1028 27.8685 41.9694 28.0676C41.836 28.2629 41.6457 28.415 41.3985 28.5239C41.3363 28.5504 41.2709 28.5736 41.2024 28.5934L42.2342 29.9718H41.8929L40.9076 28.6555C40.7832 28.673 40.6506 28.6817 40.5099 28.6817H39.3328V29.9718H39.0327ZM40.5099 28.4282H39.3328V26.2873H40.5099C40.9532 26.2873 41.2887 26.3812 41.5162 26.569C41.7477 26.7531 41.8634 27.016 41.8634 27.3577C41.8634 27.6958 41.7477 27.9587 41.5162 28.1465C41.2887 28.3343 40.9532 28.4282 40.5099 28.4282Z"/>
<path d="M25.2922 29.7127V28.0958H27.4873V27.8423H25.2922V26.2873H27.7463V26.0282H24.992V29.9718H27.8346V29.7127H25.2922Z"/>
<path d="M16.4634 29.9718L18.0475 27.9375L16.5752 26.0282H16.9283L18.2407 27.7248L19.5531 26.0282H19.8885L18.415 27.9322L20.0004 29.9718H19.6472L18.2262 28.1473L16.8165 29.9718H16.4634Z"/>
<path d="M9.77081 30C9.26078 30 8.85862 29.8573 8.56436 29.5718C8.2701 29.2864 8.12298 28.862 8.12298 28.2986V26.0282H8.42312V28.2873C8.42312 28.7793 8.54083 29.1437 8.77622 29.3803C9.01164 29.6169 9.34512 29.7352 9.7767 29.7352C10.2044 29.7352 10.5359 29.6169 10.7713 29.3803C11.0067 29.1437 11.1244 28.7793 11.1244 28.2873V26.0282H11.4245V28.2986C11.4245 28.862 11.2774 29.2864 10.9831 29.5718C10.6889 29.8573 10.2848 30 9.77081 30Z"/>
<path d="M0.5 29.9718V26.0282H0.800147V29.7127H3.17184V29.9718H0.5Z"/>
</mask>
<path d="M56.8803 30C56.5743 30 56.284 29.9512 56.0094 29.8535C55.7386 29.7521 55.5287 29.6225 55.3796 29.4648L55.515 29.2507C55.6562 29.3897 55.8485 29.508 56.0917 29.6056C56.3389 29.6995 56.5998 29.7465 56.8745 29.7465C57.1491 29.7465 57.3727 29.7127 57.5454 29.6451C57.7219 29.5737 57.8514 29.4798 57.9338 29.3634C58.0201 29.2469 58.0633 29.1174 58.0633 28.9746C58.0633 28.8056 58.0162 28.6704 57.922 28.569C57.8279 28.4676 57.7043 28.3869 57.5513 28.3268C57.3982 28.2667 57.2315 28.216 57.051 28.1746C56.8705 28.1333 56.6881 28.0901 56.5037 28.0451C56.3193 27.9962 56.1506 27.9343 55.9976 27.8592C55.8446 27.784 55.721 27.6826 55.6268 27.5549C55.5366 27.4235 55.4915 27.2545 55.4915 27.0479C55.4915 26.8601 55.5425 26.6873 55.6445 26.5296C55.7465 26.3718 55.9054 26.2441 56.1212 26.1465C56.3369 26.0488 56.6136 26 56.951 26C57.1785 26 57.4021 26.0319 57.6219 26.0958C57.8455 26.1596 58.0358 26.246 58.1927 26.3549L58.0809 26.5859C57.9083 26.4732 57.7219 26.3906 57.5218 26.338C57.3257 26.2817 57.1354 26.2535 56.951 26.2535C56.6881 26.2535 56.4704 26.2892 56.2977 26.3606C56.1251 26.4319 55.9976 26.5277 55.9152 26.6479C55.8328 26.7643 55.7916 26.8958 55.7916 27.0423C55.7916 27.2113 55.8367 27.3465 55.927 27.4479C56.0211 27.5493 56.1447 27.63 56.2977 27.6901C56.4507 27.7502 56.6194 27.8009 56.8038 27.8423C56.9882 27.8836 57.1707 27.9286 57.3512 27.9775C57.5316 28.0225 57.6984 28.0826 57.8514 28.1577C58.0044 28.2329 58.128 28.3343 58.2222 28.462C58.3163 28.5897 58.3634 28.7549 58.3634 28.9577C58.3634 29.1418 58.3104 29.3146 58.2045 29.4761C58.0986 29.6338 57.9357 29.7615 57.716 29.8592C57.5003 29.953 57.2217 30 56.8803 30Z" fill="white"/>
<path d="M97.0809 29.8535C97.3438 29.9512 97.6282 30 97.9343 30C98.2246 30 98.4953 29.9549 98.7464 29.8648C99.0014 29.7709 99.2192 29.6319 99.3997 29.4479L99.2113 29.262C99.0348 29.431 98.8386 29.5531 98.6228 29.6282C98.411 29.6995 98.1854 29.7352 97.946 29.7352C97.6832 29.7352 97.438 29.692 97.2104 29.6056C96.9868 29.5193 96.7906 29.3972 96.6219 29.2394C96.4571 29.0817 96.3276 28.8977 96.2335 28.6873C96.1432 28.477 96.0981 28.2479 96.0981 28C96.0981 27.7521 96.1432 27.523 96.2335 27.3127C96.3276 27.1023 96.4571 26.9183 96.6219 26.7606C96.7906 26.6028 96.9868 26.4808 97.2104 26.3944C97.438 26.308 97.6832 26.2648 97.946 26.2648C98.1854 26.2648 98.411 26.3023 98.6228 26.3775C98.8386 26.4488 99.0348 26.5671 99.2113 26.7324L99.3997 26.5465C99.2192 26.3624 99.0014 26.2254 98.7464 26.1352C98.4953 26.0451 98.2246 26 97.9343 26C97.6282 26 97.3458 26.0507 97.0868 26.1521C96.8279 26.2498 96.6003 26.3887 96.4041 26.569C96.2119 26.7493 96.0628 26.9615 95.9569 27.2056C95.851 27.446 95.798 27.7108 95.798 28C95.798 28.2892 95.851 28.5559 95.9569 28.8C96.0628 29.0404 96.2119 29.2507 96.4041 29.431C96.5964 29.6113 96.822 29.7521 97.0809 29.8535Z" fill="white"/>
<path d="M113.146 29.8535C113.421 29.9512 113.711 30 114.017 30C114.358 30 114.637 29.953 114.853 29.8592C115.072 29.7615 115.235 29.6338 115.341 29.4761C115.447 29.3146 115.5 29.1418 115.5 28.9577C115.5 28.7549 115.453 28.5897 115.359 28.462C115.265 28.3343 115.141 28.2329 114.988 28.1577C114.835 28.0826 114.668 28.0225 114.488 27.9775C114.307 27.9286 114.125 27.8836 113.94 27.8423C113.756 27.8009 113.587 27.7502 113.434 27.6901C113.281 27.63 113.158 27.5493 113.064 27.4479C112.973 27.3465 112.928 27.2113 112.928 27.0423C112.928 26.8958 112.969 26.7643 113.052 26.6479C113.134 26.5277 113.262 26.4319 113.434 26.3606C113.607 26.2892 113.825 26.2535 114.088 26.2535C114.272 26.2535 114.462 26.2817 114.658 26.338C114.859 26.3906 115.045 26.4732 115.217 26.5859L115.329 26.3549C115.172 26.246 114.982 26.1596 114.758 26.0958C114.539 26.0319 114.315 26 114.088 26C113.75 26 113.474 26.0488 113.258 26.1465C113.042 26.2441 112.883 26.3718 112.781 26.5296C112.679 26.6873 112.628 26.8601 112.628 27.0479C112.628 27.2545 112.673 27.4235 112.763 27.5549C112.858 27.6826 112.981 27.784 113.134 27.8592C113.287 27.9343 113.456 27.9962 113.64 28.0451C113.825 28.0901 114.007 28.1333 114.188 28.1746C114.368 28.216 114.535 28.2667 114.688 28.3268C114.841 28.3869 114.964 28.4676 115.059 28.569C115.153 28.6704 115.2 28.8056 115.2 28.9746C115.2 29.1174 115.157 29.2469 115.07 29.3634C114.988 29.4798 114.859 29.5737 114.682 29.6451C114.509 29.7127 114.286 29.7465 114.011 29.7465C113.736 29.7465 113.476 29.6995 113.228 29.6056C112.985 29.508 112.793 29.3897 112.652 29.2507L112.516 29.4648C112.665 29.6225 112.875 29.7521 113.146 29.8535Z" fill="white"/>
<path d="M105.001 29.7127V28.0958H107.196V27.8423H105.001V26.2873H107.455V26.0282H104.701V29.9718H107.544V29.7127H105.001Z" fill="white"/>
<path d="M87.103 26.0282V29.9718H87.4031V26.5482L90.2103 29.9718H90.4575V26.0282H90.1573V29.4515L87.356 26.0282H87.103Z" fill="white"/>
<path d="M79.1701 28.0958V29.7127H81.7125V29.9718H78.87V26.0282H81.6242V26.2873H79.1701V27.8423H81.3653V28.0958H79.1701Z" fill="white"/>
<path fill-rule="evenodd" clip-rule="evenodd" d="M69.7117 26.0282V29.9718H71.3419C71.7774 29.9718 72.1599 29.8873 72.4895 29.7183C72.819 29.5493 73.0741 29.3164 73.2545 29.0197C73.439 28.723 73.5311 28.3831 73.5311 28C73.5311 27.6169 73.439 27.277 73.2545 26.9803C73.0741 26.6836 72.819 26.4507 72.4895 26.2817C72.1599 26.1127 71.7774 26.0282 71.3419 26.0282H69.7117ZM71.3183 29.7127H70.0118V26.2873H71.3183C71.7067 26.2873 72.0442 26.3606 72.3306 26.507C72.617 26.6535 72.8387 26.8563 72.9956 27.1155C73.1525 27.3709 73.231 27.6657 73.231 28C73.231 28.3343 73.1525 28.631 72.9956 28.8901C72.8387 29.1455 72.617 29.3465 72.3306 29.493C72.0442 29.6394 71.7067 29.7127 71.3183 29.7127Z" fill="white"/>
<path d="M63.6799 26.0282V29.9718H63.98V26.0282H63.6799Z" fill="white"/>
<path d="M47.8647 29.7127V28.0958H50.0598V27.8423H47.8647V26.2873H50.3188V26.0282H47.5645V29.9718H50.4071V29.7127H47.8647Z" fill="white"/>
<path fill-rule="evenodd" clip-rule="evenodd" d="M39.0327 29.9718V26.0282H40.5099C40.8551 26.0282 41.1513 26.0808 41.3985 26.1859C41.6457 26.2911 41.836 26.4432 41.9694 26.6423C42.1028 26.8376 42.1695 27.0761 42.1695 27.3577C42.1695 27.6319 42.1028 27.8685 41.9694 28.0676C41.836 28.2629 41.6457 28.415 41.3985 28.5239C41.3363 28.5504 41.2709 28.5736 41.2024 28.5934L42.2342 29.9718H41.8929L40.9076 28.6555C40.7832 28.673 40.6506 28.6817 40.5099 28.6817H39.3328V29.9718H39.0327ZM40.5099 28.4282H39.3328V26.2873H40.5099C40.9532 26.2873 41.2887 26.3812 41.5162 26.569C41.7477 26.7531 41.8634 27.016 41.8634 27.3577C41.8634 27.6958 41.7477 27.9587 41.5162 28.1465C41.2887 28.3343 40.9532 28.4282 40.5099 28.4282Z" fill="white"/>
<path d="M25.2922 29.7127V28.0958H27.4873V27.8423H25.2922V26.2873H27.7463V26.0282H24.992V29.9718H27.8346V29.7127H25.2922Z" fill="white"/>
<path d="M16.4634 29.9718L18.0475 27.9375L16.5752 26.0282H16.9283L18.2407 27.7248L19.5531 26.0282H19.8885L18.415 27.9322L20.0004 29.9718H19.6472L18.2262 28.1473L16.8165 29.9718H16.4634Z" fill="white"/>
<path d="M9.77081 30C9.26078 30 8.85862 29.8573 8.56436 29.5718C8.2701 29.2864 8.12298 28.862 8.12298 28.2986V26.0282H8.42312V28.2873C8.42312 28.7793 8.54083 29.1437 8.77622 29.3803C9.01164 29.6169 9.34512 29.7352 9.7767 29.7352C10.2044 29.7352 10.5359 29.6169 10.7713 29.3803C11.0067 29.1437 11.1244 28.7793 11.1244 28.2873V26.0282H11.4245V28.2986C11.4245 28.862 11.2774 29.2864 10.9831 29.5718C10.6889 29.8573 10.2848 30 9.77081 30Z" fill="white"/>
<path d="M0.5 29.9718V26.0282H0.800147V29.7127H3.17184V29.9718H0.5Z" fill="white"/>
<path d="M56.8803 30C56.5743 30 56.284 29.9512 56.0094 29.8535C55.7386 29.7521 55.5287 29.6225 55.3796 29.4648L55.515 29.2507C55.6562 29.3897 55.8485 29.508 56.0917 29.6056C56.3389 29.6995 56.5998 29.7465 56.8745 29.7465C57.1491 29.7465 57.3727 29.7127 57.5454 29.6451C57.7219 29.5737 57.8514 29.4798 57.9338 29.3634C58.0201 29.2469 58.0633 29.1174 58.0633 28.9746C58.0633 28.8056 58.0162 28.6704 57.922 28.569C57.8279 28.4676 57.7043 28.3869 57.5513 28.3268C57.3982 28.2667 57.2315 28.216 57.051 28.1746C56.8705 28.1333 56.6881 28.0901 56.5037 28.0451C56.3193 27.9962 56.1506 27.9343 55.9976 27.8592C55.8446 27.784 55.721 27.6826 55.6268 27.5549C55.5366 27.4235 55.4915 27.2545 55.4915 27.0479C55.4915 26.8601 55.5425 26.6873 55.6445 26.5296C55.7465 26.3718 55.9054 26.2441 56.1212 26.1465C56.3369 26.0488 56.6136 26 56.951 26C57.1785 26 57.4021 26.0319 57.6219 26.0958C57.8455 26.1596 58.0358 26.246 58.1927 26.3549L58.0809 26.5859C57.9083 26.4732 57.7219 26.3906 57.5218 26.338C57.3257 26.2817 57.1354 26.2535 56.951 26.2535C56.6881 26.2535 56.4704 26.2892 56.2977 26.3606C56.1251 26.4319 55.9976 26.5277 55.9152 26.6479C55.8328 26.7643 55.7916 26.8958 55.7916 27.0423C55.7916 27.2113 55.8367 27.3465 55.927 27.4479C56.0211 27.5493 56.1447 27.63 56.2977 27.6901C56.4507 27.7502 56.6194 27.8009 56.8038 27.8423C56.9882 27.8836 57.1707 27.9286 57.3512 27.9775C57.5316 28.0225 57.6984 28.0826 57.8514 28.1577C58.0044 28.2329 58.128 28.3343 58.2222 28.462C58.3163 28.5897 58.3634 28.7549 58.3634 28.9577C58.3634 29.1418 58.3104 29.3146 58.2045 29.4761C58.0986 29.6338 57.9357 29.7615 57.716 29.8592C57.5003 29.953 57.2217 30 56.8803 30Z" stroke="white" stroke-width="0.6" mask="url(#path-1-outside-1_29_268)"/>
<path d="M97.0809 29.8535C97.3438 29.9512 97.6282 30 97.9343 30C98.2246 30 98.4953 29.9549 98.7464 29.8648C99.0014 29.7709 99.2192 29.6319 99.3997 29.4479L99.2113 29.262C99.0348 29.431 98.8386 29.5531 98.6228 29.6282C98.411 29.6995 98.1854 29.7352 97.946 29.7352C97.6832 29.7352 97.438 29.692 97.2104 29.6056C96.9868 29.5193 96.7906 29.3972 96.6219 29.2394C96.4571 29.0817 96.3276 28.8977 96.2335 28.6873C96.1432 28.477 96.0981 28.2479 96.0981 28C96.0981 27.7521 96.1432 27.523 96.2335 27.3127C96.3276 27.1023 96.4571 26.9183 96.6219 26.7606C96.7906 26.6028 96.9868 26.4808 97.2104 26.3944C97.438 26.308 97.6832 26.2648 97.946 26.2648C98.1854 26.2648 98.411 26.3023 98.6228 26.3775C98.8386 26.4488 99.0348 26.5671 99.2113 26.7324L99.3997 26.5465C99.2192 26.3624 99.0014 26.2254 98.7464 26.1352C98.4953 26.0451 98.2246 26 97.9343 26C97.6282 26 97.3458 26.0507 97.0868 26.1521C96.8279 26.2498 96.6003 26.3887 96.4041 26.569C96.2119 26.7493 96.0628 26.9615 95.9569 27.2056C95.851 27.446 95.798 27.7108 95.798 28C95.798 28.2892 95.851 28.5559 95.9569 28.8C96.0628 29.0404 96.2119 29.2507 96.4041 29.431C96.5964 29.6113 96.822 29.7521 97.0809 29.8535Z" stroke="white" stroke-width="0.6" mask="url(#path-1-outside-1_29_268)"/>
<path d="M113.146 29.8535C113.421 29.9512 113.711 30 114.017 30C114.358 30 114.637 29.953 114.853 29.8592C115.072 29.7615 115.235 29.6338 115.341 29.4761C115.447 29.3146 115.5 29.1418 115.5 28.9577C115.5 28.7549 115.453 28.5897 115.359 28.462C115.265 28.3343 115.141 28.2329 114.988 28.1577C114.835 28.0826 114.668 28.0225 114.488 27.9775C114.307 27.9286 114.125 27.8836 113.94 27.8423C113.756 27.8009 113.587 27.7502 113.434 27.6901C113.281 27.63 113.158 27.5493 113.064 27.4479C112.973 27.3465 112.928 27.2113 112.928 27.0423C112.928 26.8958 112.969 26.7643 113.052 26.6479C113.134 26.5277 113.262 26.4319 113.434 26.3606C113.607 26.2892 113.825 26.2535 114.088 26.2535C114.272 26.2535 114.462 26.2817 114.658 26.338C114.859 26.3906 115.045 26.4732 115.217 26.5859L115.329 26.3549C115.172 26.246 114.982 26.1596 114.758 26.0958C114.539 26.0319 114.315 26 114.088 26C113.75 26 113.474 26.0488 113.258 26.1465C113.042 26.2441 112.883 26.3718 112.781 26.5296C112.679 26.6873 112.628 26.8601 112.628 27.0479C112.628 27.2545 112.673 27.4235 112.763 27.5549C112.858 27.6826 112.981 27.784 113.134 27.8592C113.287 27.9343 113.456 27.9962 113.64 28.0451C113.825 28.0901 114.007 28.1333 114.188 28.1746C114.368 28.216 114.535 28.2667 114.688 28.3268C114.841 28.3869 114.964 28.4676 115.059 28.569C115.153 28.6704 115.2 28.8056 115.2 28.9746C115.2 29.1174 115.157 29.2469 115.07 29.3634C114.988 29.4798 114.859 29.5737 114.682 29.6451C114.509 29.7127 114.286 29.7465 114.011 29.7465C113.736 29.7465 113.476 29.6995 113.228 29.6056C112.985 29.508 112.793 29.3897 112.652 29.2507L112.516 29.4648C112.665 29.6225 112.875 29.7521 113.146 29.8535Z" stroke="white" stroke-width="0.6" mask="url(#path-1-outside-1_29_268)"/>
<path d="M105.001 29.7127V28.0958H107.196V27.8423H105.001V26.2873H107.455V26.0282H104.701V29.9718H107.544V29.7127H105.001Z" stroke="white" stroke-width="0.6" mask="url(#path-1-outside-1_29_268)"/>
<path d="M87.103 26.0282V29.9718H87.4031V26.5482L90.2103 29.9718H90.4575V26.0282H90.1573V29.4515L87.356 26.0282H87.103Z" stroke="white" stroke-width="0.6" mask="url(#path-1-outside-1_29_268)"/>
<path d="M79.1701 28.0958V29.7127H81.7125V29.9718H78.87V26.0282H81.6242V26.2873H79.1701V27.8423H81.3653V28.0958H79.1701Z" stroke="white" stroke-width="0.6" mask="url(#path-1-outside-1_29_268)"/>
<path fill-rule="evenodd" clip-rule="evenodd" d="M69.7117 26.0282V29.9718H71.3419C71.7774 29.9718 72.1599 29.8873 72.4895 29.7183C72.819 29.5493 73.0741 29.3164 73.2545 29.0197C73.439 28.723 73.5311 28.3831 73.5311 28C73.5311 27.6169 73.439 27.277 73.2545 26.9803C73.0741 26.6836 72.819 26.4507 72.4895 26.2817C72.1599 26.1127 71.7774 26.0282 71.3419 26.0282H69.7117ZM71.3183 29.7127H70.0118V26.2873H71.3183C71.7067 26.2873 72.0442 26.3606 72.3306 26.507C72.617 26.6535 72.8387 26.8563 72.9956 27.1155C73.1525 27.3709 73.231 27.6657 73.231 28C73.231 28.3343 73.1525 28.631 72.9956 28.8901C72.8387 29.1455 72.617 29.3465 72.3306 29.493C72.0442 29.6394 71.7067 29.7127 71.3183 29.7127Z" stroke="white" stroke-width="0.6" mask="url(#path-1-outside-1_29_268)"/>
<path d="M63.6799 26.0282V29.9718H63.98V26.0282H63.6799Z" stroke="white" stroke-width="0.6" mask="url(#path-1-outside-1_29_268)"/>
<path d="M47.8647 29.7127V28.0958H50.0598V27.8423H47.8647V26.2873H50.3188V26.0282H47.5645V29.9718H50.4071V29.7127H47.8647Z" stroke="white" stroke-width="0.6" mask="url(#path-1-outside-1_29_268)"/>
<path fill-rule="evenodd" clip-rule="evenodd" d="M39.0327 29.9718V26.0282H40.5099C40.8551 26.0282 41.1513 26.0808 41.3985 26.1859C41.6457 26.2911 41.836 26.4432 41.9694 26.6423C42.1028 26.8376 42.1695 27.0761 42.1695 27.3577C42.1695 27.6319 42.1028 27.8685 41.9694 28.0676C41.836 28.2629 41.6457 28.415 41.3985 28.5239C41.3363 28.5504 41.2709 28.5736 41.2024 28.5934L42.2342 29.9718H41.8929L40.9076 28.6555C40.7832 28.673 40.6506 28.6817 40.5099 28.6817H39.3328V29.9718H39.0327ZM40.5099 28.4282H39.3328V26.2873H40.5099C40.9532 26.2873 41.2887 26.3812 41.5162 26.569C41.7477 26.7531 41.8634 27.016 41.8634 27.3577C41.8634 27.6958 41.7477 27.9587 41.5162 28.1465C41.2887 28.3343 40.9532 28.4282 40.5099 28.4282Z" stroke="white" stroke-width="0.6" mask="url(#path-1-outside-1_29_268)"/>
<path d="M25.2922 29.7127V28.0958H27.4873V27.8423H25.2922V26.2873H27.7463V26.0282H24.992V29.9718H27.8346V29.7127H25.2922Z" stroke="white" stroke-width="0.6" mask="url(#path-1-outside-1_29_268)"/>
<path d="M16.4634 29.9718L18.0475 27.9375L16.5752 26.0282H16.9283L18.2407 27.7248L19.5531 26.0282H19.8885L18.415 27.9322L20.0004 29.9718H19.6472L18.2262 28.1473L16.8165 29.9718H16.4634Z" stroke="white" stroke-width="0.6" mask="url(#path-1-outside-1_29_268)"/>
<path d="M9.77081 30C9.26078 30 8.85862 29.8573 8.56436 29.5718C8.2701 29.2864 8.12298 28.862 8.12298 28.2986V26.0282H8.42312V28.2873C8.42312 28.7793 8.54083 29.1437 8.77622 29.3803C9.01164 29.6169 9.34512 29.7352 9.7767 29.7352C10.2044 29.7352 10.5359 29.6169 10.7713 29.3803C11.0067 29.1437 11.1244 28.7793 11.1244 28.2873V26.0282H11.4245V28.2986C11.4245 28.862 11.2774 29.2864 10.9831 29.5718C10.6889 29.8573 10.2848 30 9.77081 30Z" stroke="white" stroke-width="0.6" mask="url(#path-1-outside-1_29_268)"/>
<path d="M0.5 29.9718V26.0282H0.800147V29.7127H3.17184V29.9718H0.5Z" stroke="white" stroke-width="0.6" mask="url(#path-1-outside-1_29_268)"/>
<path d="M91.0941 0H96.2431C96.7266 0 97.0772 0.460179 96.9483 0.925715L91.4106 20.9278C91.2352 21.5613 90.6582 22 90.0002 22H84.8673C84.384 22 84.0335 21.5402 84.162 21.0748L89.6834 1.07321C89.8584 0.439203 90.4358 0 91.0941 0Z" fill="white"/>
<path fill-rule="evenodd" clip-rule="evenodd" d="M1.23211 22C0.749464 22 0.399049 21.5414 0.52631 21.0764L5.97895 1.14946C6.15288 0.51389 6.73094 0.0730897 7.39058 0.0730897H25.8077C26.0485 0.0730897 26.2237 0.301535 26.1609 0.533799L23.6141 9.95579C23.4418 10.5935 22.8627 11.0365 22.2013 11.0365H11.0009C10.672 11.0365 10.3834 11.2558 10.2957 11.5725L7.70455 20.928C7.52909 21.5614 6.95206 22 6.29414 22H1.23211ZM13.0409 1.34234C13.1278 1.02447 13.4168 0.803987 13.7467 0.803987H18.3795C18.6208 0.803987 18.796 1.0332 18.7325 1.2657L16.4083 9.76729C16.3214 10.0852 16.0324 10.3056 15.7025 10.3056H11.0696C10.8284 10.3056 10.6532 10.0764 10.7167 9.84393L13.0409 1.34234Z" fill="white"/>
<path d="M22.5175 21.0742L28.0372 1.1451C28.2127 0.511681 28.7897 0.0730897 29.4476 0.0730897H44.973C45.2039 0.0730897 45.3771 0.28407 45.3318 0.510209C45.2976 0.681027 45.1474 0.803987 44.973 0.803987H35.8785C35.5496 0.803987 35.2611 1.0232 35.1733 1.33982L32.8161 9.84267C32.7516 10.0755 32.9268 10.3056 33.1687 10.3056H39.9386C40.1766 10.3056 40.3513 10.5291 40.2935 10.7597C40.2528 10.9224 40.1065 11.0365 39.9386 11.0365H33.0586C32.7311 11.0365 32.4434 11.254 32.3545 11.569L29.7459 20.8044C29.68 21.0376 29.8554 21.2691 30.098 21.2691H39.0972C39.3352 21.2691 39.5098 21.4925 39.4521 21.7232C39.4114 21.8859 39.265 22 39.0972 22H23.2227C22.7391 22 22.3885 21.5398 22.5175 21.0742Z" fill="white"/>
<path d="M47.1003 1.14946C47.2743 0.51389 47.8524 0.0730897 48.512 0.0730897H68.3407C68.5748 0.0730897 68.7487 0.289731 68.6978 0.518007C68.6605 0.685122 68.5121 0.803987 68.3407 0.803987H54.9778C54.6479 0.803987 54.3589 1.02442 54.272 1.34225L48.948 20.8073C48.8844 21.0398 49.0596 21.2691 49.3009 21.2691H55.3204C55.6515 21.2691 55.9414 21.0469 56.0271 20.7274L58.3358 12.12C58.5072 11.4809 59.087 11.0365 59.7494 11.0365H64.8944C65.3766 11.0365 65.7269 11.4942 65.6005 11.959L63.1636 20.9214C62.9904 21.5581 62.4118 22 61.7514 22H42.3535C41.8709 22 41.5204 21.5414 41.6477 21.0764L47.1003 1.14946Z" fill="white"/>
<path d="M65.0291 21.0742L70.5489 1.1451C70.7243 0.511681 71.3013 0.0730897 71.9593 0.0730897H87.4623C87.7003 0.0730897 87.875 0.296521 87.8173 0.52717C87.7765 0.689855 87.6302 0.803987 87.4623 0.803987H78.0731C77.9097 0.803987 77.766 0.912332 77.7213 1.0694L75.2223 9.84016C75.1557 10.0735 75.3312 10.3056 75.5741 10.3056H82.3842C82.6079 10.3056 82.7792 10.5044 82.746 10.7253C82.7191 10.9042 82.5653 11.0365 82.3842 11.0365H75.2616C75.0955 11.0365 74.9503 11.1483 74.9079 11.3086L72.394 20.8103C72.3326 21.0421 72.5077 21.2691 72.7477 21.2691H81.6579C81.9233 21.2691 82.1004 21.5427 81.9915 21.7845C81.9324 21.9157 81.8018 22 81.6579 22H65.7343C65.2507 22 64.9002 21.5398 65.0291 21.0742Z" fill="white"/>
<path fill-rule="evenodd" clip-rule="evenodd" d="M98.9217 1.07539C99.096 0.4403 99.6738 0 100.333 0H119.768C120.251 0 120.602 0.459773 120.473 0.925189L114.952 20.9268C114.777 21.5608 114.199 22 113.541 22H108.406C107.924 22 107.573 21.5419 107.7 21.077L110.313 11.4981C110.376 11.2656 110.201 11.0365 109.96 11.0365H103.666C103.501 11.0365 103.357 11.1467 103.313 11.3057L100.682 20.9236C100.508 21.5592 99.93 22 99.2703 22H94.1395C93.6567 22 93.3062 21.5411 93.4338 21.0759L98.9217 1.07539ZM103.729 9.84117C103.663 10.0743 103.839 10.3056 104.081 10.3056H110.373C110.537 10.3056 110.681 10.1966 110.725 10.0389L113.209 1.19508C113.275 0.962006 113.1 0.730897 112.857 0.730897H106.574C106.41 0.730897 106.266 0.839751 106.221 0.997319L103.729 9.84117Z" fill="white"/>
</svg>
