<svg width="121" height="31" viewBox="0 0 121 31" fill="none" xmlns="http://www.w3.org/2000/svg">
<mask id="path-1-outside-1_25_288" maskUnits="userSpaceOnUse" x="0" y="25" width="117" height="6" fill="black">
<rect fill="white" y="25" width="117" height="6"/>
<path d="M57.3803 30C57.0743 30 56.784 29.9512 56.5094 29.8535C56.2386 29.7521 56.0287 29.6225 55.8796 29.4648L56.015 29.2507C56.1562 29.3897 56.3485 29.508 56.5917 29.6056C56.8389 29.6995 57.0998 29.7465 57.3745 29.7465C57.6491 29.7465 57.8727 29.7127 58.0454 29.6451C58.2219 29.5737 58.3514 29.4798 58.4338 29.3634C58.5201 29.2469 58.5633 29.1174 58.5633 28.9746C58.5633 28.8056 58.5162 28.6704 58.422 28.569C58.3279 28.4676 58.2043 28.3869 58.0513 28.3268C57.8982 28.2667 57.7315 28.216 57.551 28.1746C57.3705 28.1333 57.1881 28.0901 57.0037 28.0451C56.8193 27.9962 56.6506 27.9343 56.4976 27.8592C56.3446 27.784 56.221 27.6826 56.1268 27.5549C56.0366 27.4235 55.9915 27.2545 55.9915 27.0479C55.9915 26.8601 56.0425 26.6873 56.1445 26.5296C56.2465 26.3718 56.4054 26.2441 56.6212 26.1465C56.8369 26.0488 57.1136 26 57.451 26C57.6785 26 57.9021 26.0319 58.1219 26.0958C58.3455 26.1596 58.5358 26.246 58.6927 26.3549L58.5809 26.5859C58.4083 26.4732 58.2219 26.3906 58.0218 26.338C57.8257 26.2817 57.6354 26.2535 57.451 26.2535C57.1881 26.2535 56.9704 26.2892 56.7977 26.3606C56.6251 26.4319 56.4976 26.5277 56.4152 26.6479C56.3328 26.7643 56.2916 26.8958 56.2916 27.0423C56.2916 27.2113 56.3367 27.3465 56.427 27.4479C56.5211 27.5493 56.6447 27.63 56.7977 27.6901C56.9507 27.7502 57.1194 27.8009 57.3038 27.8423C57.4882 27.8836 57.6707 27.9286 57.8512 27.9775C58.0316 28.0225 58.1984 28.0826 58.3514 28.1577C58.5044 28.2329 58.628 28.3343 58.7222 28.462C58.8163 28.5897 58.8634 28.7549 58.8634 28.9577C58.8634 29.1418 58.8104 29.3146 58.7045 29.4761C58.5986 29.6338 58.4357 29.7615 58.216 29.8592C58.0003 29.953 57.7217 30 57.3803 30Z"/>
<path d="M97.5809 29.8535C97.8438 29.9512 98.1282 30 98.4343 30C98.7246 30 98.9953 29.9549 99.2464 29.8648C99.5014 29.7709 99.7192 29.6319 99.8997 29.4479L99.7113 29.262C99.5348 29.431 99.3386 29.5531 99.1228 29.6282C98.911 29.6995 98.6854 29.7352 98.446 29.7352C98.1832 29.7352 97.938 29.692 97.7104 29.6056C97.4868 29.5193 97.2906 29.3972 97.1219 29.2394C96.9571 29.0817 96.8276 28.8977 96.7335 28.6873C96.6432 28.477 96.5981 28.2479 96.5981 28C96.5981 27.7521 96.6432 27.523 96.7335 27.3127C96.8276 27.1023 96.9571 26.9183 97.1219 26.7606C97.2906 26.6028 97.4868 26.4808 97.7104 26.3944C97.938 26.308 98.1832 26.2648 98.446 26.2648C98.6854 26.2648 98.911 26.3023 99.1228 26.3775C99.3386 26.4488 99.5348 26.5671 99.7113 26.7324L99.8997 26.5465C99.7192 26.3624 99.5014 26.2254 99.2464 26.1352C98.9953 26.0451 98.7246 26 98.4343 26C98.1282 26 97.8458 26.0507 97.5868 26.1521C97.3279 26.2498 97.1003 26.3887 96.9041 26.569C96.7119 26.7493 96.5628 26.9615 96.4569 27.2056C96.351 27.446 96.298 27.7108 96.298 28C96.298 28.2892 96.351 28.5559 96.4569 28.8C96.5628 29.0404 96.7119 29.2507 96.9041 29.431C97.0964 29.6113 97.322 29.7521 97.5809 29.8535Z"/>
<path d="M113.646 29.8535C113.921 29.9512 114.211 30 114.517 30C114.858 30 115.137 29.953 115.353 29.8592C115.572 29.7615 115.735 29.6338 115.841 29.4761C115.947 29.3146 116 29.1418 116 28.9577C116 28.7549 115.953 28.5897 115.859 28.462C115.765 28.3343 115.641 28.2329 115.488 28.1577C115.335 28.0826 115.168 28.0225 114.988 27.9775C114.807 27.9286 114.625 27.8836 114.44 27.8423C114.256 27.8009 114.087 27.7502 113.934 27.6901C113.781 27.63 113.658 27.5493 113.564 27.4479C113.473 27.3465 113.428 27.2113 113.428 27.0423C113.428 26.8958 113.469 26.7643 113.552 26.6479C113.634 26.5277 113.762 26.4319 113.934 26.3606C114.107 26.2892 114.325 26.2535 114.588 26.2535C114.772 26.2535 114.962 26.2817 115.158 26.338C115.359 26.3906 115.545 26.4732 115.717 26.5859L115.829 26.3549C115.672 26.246 115.482 26.1596 115.258 26.0958C115.039 26.0319 114.815 26 114.588 26C114.25 26 113.974 26.0488 113.758 26.1465C113.542 26.2441 113.383 26.3718 113.281 26.5296C113.179 26.6873 113.128 26.8601 113.128 27.0479C113.128 27.2545 113.173 27.4235 113.263 27.5549C113.358 27.6826 113.481 27.784 113.634 27.8592C113.787 27.9343 113.956 27.9962 114.14 28.0451C114.325 28.0901 114.507 28.1333 114.688 28.1746C114.868 28.216 115.035 28.2667 115.188 28.3268C115.341 28.3869 115.464 28.4676 115.559 28.569C115.653 28.6704 115.7 28.8056 115.7 28.9746C115.7 29.1174 115.657 29.2469 115.57 29.3634C115.488 29.4798 115.359 29.5737 115.182 29.6451C115.009 29.7127 114.786 29.7465 114.511 29.7465C114.236 29.7465 113.976 29.6995 113.728 29.6056C113.485 29.508 113.293 29.3897 113.152 29.2507L113.016 29.4648C113.165 29.6225 113.375 29.7521 113.646 29.8535Z"/>
<path d="M105.501 29.7127V28.0958H107.696V27.8423H105.501V26.2873H107.955V26.0282H105.201V29.9718H108.044V29.7127H105.501Z"/>
<path d="M87.603 26.0282V29.9718H87.9031V26.5482L90.7103 29.9718H90.9575V26.0282H90.6573V29.4515L87.856 26.0282H87.603Z"/>
<path d="M79.6701 28.0958V29.7127H82.2125V29.9718H79.37V26.0282H82.1242V26.2873H79.6701V27.8423H81.8653V28.0958H79.6701Z"/>
<path fill-rule="evenodd" clip-rule="evenodd" d="M70.2117 26.0282V29.9718H71.8419C72.2774 29.9718 72.6599 29.8873 72.9895 29.7183C73.319 29.5493 73.5741 29.3164 73.7545 29.0197C73.939 28.723 74.0311 28.3831 74.0311 28C74.0311 27.6169 73.939 27.277 73.7545 26.9803C73.5741 26.6836 73.319 26.4507 72.9895 26.2817C72.6599 26.1127 72.2774 26.0282 71.8419 26.0282H70.2117ZM71.8183 29.7127H70.5118V26.2873H71.8183C72.2067 26.2873 72.5442 26.3606 72.8306 26.507C73.117 26.6535 73.3387 26.8563 73.4956 27.1155C73.6525 27.3709 73.731 27.6657 73.731 28C73.731 28.3343 73.6525 28.631 73.4956 28.8901C73.3387 29.1455 73.117 29.3465 72.8306 29.493C72.5442 29.6394 72.2067 29.7127 71.8183 29.7127Z"/>
<path d="M64.1799 26.0282V29.9718H64.48V26.0282H64.1799Z"/>
<path d="M48.3647 29.7127V28.0958H50.5598V27.8423H48.3647V26.2873H50.8188V26.0282H48.0645V29.9718H50.9071V29.7127H48.3647Z"/>
<path fill-rule="evenodd" clip-rule="evenodd" d="M39.5327 29.9718V26.0282H41.0099C41.3551 26.0282 41.6513 26.0808 41.8985 26.1859C42.1457 26.2911 42.336 26.4432 42.4694 26.6423C42.6028 26.8376 42.6695 27.0761 42.6695 27.3577C42.6695 27.6319 42.6028 27.8685 42.4694 28.0676C42.336 28.2629 42.1457 28.415 41.8985 28.5239C41.8363 28.5504 41.7709 28.5736 41.7024 28.5934L42.7342 29.9718H42.3929L41.4076 28.6555C41.2832 28.673 41.1506 28.6817 41.0099 28.6817H39.8328V29.9718H39.5327ZM41.0099 28.4282H39.8328V26.2873H41.0099C41.4532 26.2873 41.7887 26.3812 42.0162 26.569C42.2477 26.7531 42.3634 27.016 42.3634 27.3577C42.3634 27.6958 42.2477 27.9587 42.0162 28.1465C41.7887 28.3343 41.4532 28.4282 41.0099 28.4282Z"/>
<path d="M25.7922 29.7127V28.0958H27.9873V27.8423H25.7922V26.2873H28.2463V26.0282H25.492V29.9718H28.3346V29.7127H25.7922Z"/>
<path d="M16.9634 29.9718L18.5475 27.9375L17.0752 26.0282H17.4283L18.7407 27.7248L20.0531 26.0282H20.3885L18.915 27.9322L20.5004 29.9718H20.1472L18.7262 28.1473L17.3165 29.9718H16.9634Z"/>
<path d="M10.2708 30C9.76078 30 9.35862 29.8573 9.06436 29.5718C8.7701 29.2864 8.62298 28.862 8.62298 28.2986V26.0282H8.92312V28.2873C8.92312 28.7793 9.04083 29.1437 9.27622 29.3803C9.51164 29.6169 9.84512 29.7352 10.2767 29.7352C10.7044 29.7352 11.0359 29.6169 11.2713 29.3803C11.5067 29.1437 11.6244 28.7793 11.6244 28.2873V26.0282H11.9245V28.2986C11.9245 28.862 11.7774 29.2864 11.4831 29.5718C11.1889 29.8573 10.7848 30 10.2708 30Z"/>
<path d="M1 29.9718V26.0282H1.30015V29.7127H3.67184V29.9718H1Z"/>
</mask>
<path d="M57.3803 30C57.0743 30 56.784 29.9512 56.5094 29.8535C56.2386 29.7521 56.0287 29.6225 55.8796 29.4648L56.015 29.2507C56.1562 29.3897 56.3485 29.508 56.5917 29.6056C56.8389 29.6995 57.0998 29.7465 57.3745 29.7465C57.6491 29.7465 57.8727 29.7127 58.0454 29.6451C58.2219 29.5737 58.3514 29.4798 58.4338 29.3634C58.5201 29.2469 58.5633 29.1174 58.5633 28.9746C58.5633 28.8056 58.5162 28.6704 58.422 28.569C58.3279 28.4676 58.2043 28.3869 58.0513 28.3268C57.8982 28.2667 57.7315 28.216 57.551 28.1746C57.3705 28.1333 57.1881 28.0901 57.0037 28.0451C56.8193 27.9962 56.6506 27.9343 56.4976 27.8592C56.3446 27.784 56.221 27.6826 56.1268 27.5549C56.0366 27.4235 55.9915 27.2545 55.9915 27.0479C55.9915 26.8601 56.0425 26.6873 56.1445 26.5296C56.2465 26.3718 56.4054 26.2441 56.6212 26.1465C56.8369 26.0488 57.1136 26 57.451 26C57.6785 26 57.9021 26.0319 58.1219 26.0958C58.3455 26.1596 58.5358 26.246 58.6927 26.3549L58.5809 26.5859C58.4083 26.4732 58.2219 26.3906 58.0218 26.338C57.8257 26.2817 57.6354 26.2535 57.451 26.2535C57.1881 26.2535 56.9704 26.2892 56.7977 26.3606C56.6251 26.4319 56.4976 26.5277 56.4152 26.6479C56.3328 26.7643 56.2916 26.8958 56.2916 27.0423C56.2916 27.2113 56.3367 27.3465 56.427 27.4479C56.5211 27.5493 56.6447 27.63 56.7977 27.6901C56.9507 27.7502 57.1194 27.8009 57.3038 27.8423C57.4882 27.8836 57.6707 27.9286 57.8512 27.9775C58.0316 28.0225 58.1984 28.0826 58.3514 28.1577C58.5044 28.2329 58.628 28.3343 58.7222 28.462C58.8163 28.5897 58.8634 28.7549 58.8634 28.9577C58.8634 29.1418 58.8104 29.3146 58.7045 29.4761C58.5986 29.6338 58.4357 29.7615 58.216 29.8592C58.0003 29.953 57.7217 30 57.3803 30Z" fill="white"/>
<path d="M97.5809 29.8535C97.8438 29.9512 98.1282 30 98.4343 30C98.7246 30 98.9953 29.9549 99.2464 29.8648C99.5014 29.7709 99.7192 29.6319 99.8997 29.4479L99.7113 29.262C99.5348 29.431 99.3386 29.5531 99.1228 29.6282C98.911 29.6995 98.6854 29.7352 98.446 29.7352C98.1832 29.7352 97.938 29.692 97.7104 29.6056C97.4868 29.5193 97.2906 29.3972 97.1219 29.2394C96.9571 29.0817 96.8276 28.8977 96.7335 28.6873C96.6432 28.477 96.5981 28.2479 96.5981 28C96.5981 27.7521 96.6432 27.523 96.7335 27.3127C96.8276 27.1023 96.9571 26.9183 97.1219 26.7606C97.2906 26.6028 97.4868 26.4808 97.7104 26.3944C97.938 26.308 98.1832 26.2648 98.446 26.2648C98.6854 26.2648 98.911 26.3023 99.1228 26.3775C99.3386 26.4488 99.5348 26.5671 99.7113 26.7324L99.8997 26.5465C99.7192 26.3624 99.5014 26.2254 99.2464 26.1352C98.9953 26.0451 98.7246 26 98.4343 26C98.1282 26 97.8458 26.0507 97.5868 26.1521C97.3279 26.2498 97.1003 26.3887 96.9041 26.569C96.7119 26.7493 96.5628 26.9615 96.4569 27.2056C96.351 27.446 96.298 27.7108 96.298 28C96.298 28.2892 96.351 28.5559 96.4569 28.8C96.5628 29.0404 96.7119 29.2507 96.9041 29.431C97.0964 29.6113 97.322 29.7521 97.5809 29.8535Z" fill="white"/>
<path d="M113.646 29.8535C113.921 29.9512 114.211 30 114.517 30C114.858 30 115.137 29.953 115.353 29.8592C115.572 29.7615 115.735 29.6338 115.841 29.4761C115.947 29.3146 116 29.1418 116 28.9577C116 28.7549 115.953 28.5897 115.859 28.462C115.765 28.3343 115.641 28.2329 115.488 28.1577C115.335 28.0826 115.168 28.0225 114.988 27.9775C114.807 27.9286 114.625 27.8836 114.44 27.8423C114.256 27.8009 114.087 27.7502 113.934 27.6901C113.781 27.63 113.658 27.5493 113.564 27.4479C113.473 27.3465 113.428 27.2113 113.428 27.0423C113.428 26.8958 113.469 26.7643 113.552 26.6479C113.634 26.5277 113.762 26.4319 113.934 26.3606C114.107 26.2892 114.325 26.2535 114.588 26.2535C114.772 26.2535 114.962 26.2817 115.158 26.338C115.359 26.3906 115.545 26.4732 115.717 26.5859L115.829 26.3549C115.672 26.246 115.482 26.1596 115.258 26.0958C115.039 26.0319 114.815 26 114.588 26C114.25 26 113.974 26.0488 113.758 26.1465C113.542 26.2441 113.383 26.3718 113.281 26.5296C113.179 26.6873 113.128 26.8601 113.128 27.0479C113.128 27.2545 113.173 27.4235 113.263 27.5549C113.358 27.6826 113.481 27.784 113.634 27.8592C113.787 27.9343 113.956 27.9962 114.14 28.0451C114.325 28.0901 114.507 28.1333 114.688 28.1746C114.868 28.216 115.035 28.2667 115.188 28.3268C115.341 28.3869 115.464 28.4676 115.559 28.569C115.653 28.6704 115.7 28.8056 115.7 28.9746C115.7 29.1174 115.657 29.2469 115.57 29.3634C115.488 29.4798 115.359 29.5737 115.182 29.6451C115.009 29.7127 114.786 29.7465 114.511 29.7465C114.236 29.7465 113.976 29.6995 113.728 29.6056C113.485 29.508 113.293 29.3897 113.152 29.2507L113.016 29.4648C113.165 29.6225 113.375 29.7521 113.646 29.8535Z" fill="white"/>
<path d="M105.501 29.7127V28.0958H107.696V27.8423H105.501V26.2873H107.955V26.0282H105.201V29.9718H108.044V29.7127H105.501Z" fill="white"/>
<path d="M87.603 26.0282V29.9718H87.9031V26.5482L90.7103 29.9718H90.9575V26.0282H90.6573V29.4515L87.856 26.0282H87.603Z" fill="white"/>
<path d="M79.6701 28.0958V29.7127H82.2125V29.9718H79.37V26.0282H82.1242V26.2873H79.6701V27.8423H81.8653V28.0958H79.6701Z" fill="white"/>
<path fill-rule="evenodd" clip-rule="evenodd" d="M70.2117 26.0282V29.9718H71.8419C72.2774 29.9718 72.6599 29.8873 72.9895 29.7183C73.319 29.5493 73.5741 29.3164 73.7545 29.0197C73.939 28.723 74.0311 28.3831 74.0311 28C74.0311 27.6169 73.939 27.277 73.7545 26.9803C73.5741 26.6836 73.319 26.4507 72.9895 26.2817C72.6599 26.1127 72.2774 26.0282 71.8419 26.0282H70.2117ZM71.8183 29.7127H70.5118V26.2873H71.8183C72.2067 26.2873 72.5442 26.3606 72.8306 26.507C73.117 26.6535 73.3387 26.8563 73.4956 27.1155C73.6525 27.3709 73.731 27.6657 73.731 28C73.731 28.3343 73.6525 28.631 73.4956 28.8901C73.3387 29.1455 73.117 29.3465 72.8306 29.493C72.5442 29.6394 72.2067 29.7127 71.8183 29.7127Z" fill="white"/>
<path d="M64.1799 26.0282V29.9718H64.48V26.0282H64.1799Z" fill="white"/>
<path d="M48.3647 29.7127V28.0958H50.5598V27.8423H48.3647V26.2873H50.8188V26.0282H48.0645V29.9718H50.9071V29.7127H48.3647Z" fill="white"/>
<path fill-rule="evenodd" clip-rule="evenodd" d="M39.5327 29.9718V26.0282H41.0099C41.3551 26.0282 41.6513 26.0808 41.8985 26.1859C42.1457 26.2911 42.336 26.4432 42.4694 26.6423C42.6028 26.8376 42.6695 27.0761 42.6695 27.3577C42.6695 27.6319 42.6028 27.8685 42.4694 28.0676C42.336 28.2629 42.1457 28.415 41.8985 28.5239C41.8363 28.5504 41.7709 28.5736 41.7024 28.5934L42.7342 29.9718H42.3929L41.4076 28.6555C41.2832 28.673 41.1506 28.6817 41.0099 28.6817H39.8328V29.9718H39.5327ZM41.0099 28.4282H39.8328V26.2873H41.0099C41.4532 26.2873 41.7887 26.3812 42.0162 26.569C42.2477 26.7531 42.3634 27.016 42.3634 27.3577C42.3634 27.6958 42.2477 27.9587 42.0162 28.1465C41.7887 28.3343 41.4532 28.4282 41.0099 28.4282Z" fill="white"/>
<path d="M25.7922 29.7127V28.0958H27.9873V27.8423H25.7922V26.2873H28.2463V26.0282H25.492V29.9718H28.3346V29.7127H25.7922Z" fill="white"/>
<path d="M16.9634 29.9718L18.5475 27.9375L17.0752 26.0282H17.4283L18.7407 27.7248L20.0531 26.0282H20.3885L18.915 27.9322L20.5004 29.9718H20.1472L18.7262 28.1473L17.3165 29.9718H16.9634Z" fill="white"/>
<path d="M10.2708 30C9.76078 30 9.35862 29.8573 9.06436 29.5718C8.7701 29.2864 8.62298 28.862 8.62298 28.2986V26.0282H8.92312V28.2873C8.92312 28.7793 9.04083 29.1437 9.27622 29.3803C9.51164 29.6169 9.84512 29.7352 10.2767 29.7352C10.7044 29.7352 11.0359 29.6169 11.2713 29.3803C11.5067 29.1437 11.6244 28.7793 11.6244 28.2873V26.0282H11.9245V28.2986C11.9245 28.862 11.7774 29.2864 11.4831 29.5718C11.1889 29.8573 10.7848 30 10.2708 30Z" fill="white"/>
<path d="M1 29.9718V26.0282H1.30015V29.7127H3.67184V29.9718H1Z" fill="white"/>
<path d="M57.3803 30C57.0743 30 56.784 29.9512 56.5094 29.8535C56.2386 29.7521 56.0287 29.6225 55.8796 29.4648L56.015 29.2507C56.1562 29.3897 56.3485 29.508 56.5917 29.6056C56.8389 29.6995 57.0998 29.7465 57.3745 29.7465C57.6491 29.7465 57.8727 29.7127 58.0454 29.6451C58.2219 29.5737 58.3514 29.4798 58.4338 29.3634C58.5201 29.2469 58.5633 29.1174 58.5633 28.9746C58.5633 28.8056 58.5162 28.6704 58.422 28.569C58.3279 28.4676 58.2043 28.3869 58.0513 28.3268C57.8982 28.2667 57.7315 28.216 57.551 28.1746C57.3705 28.1333 57.1881 28.0901 57.0037 28.0451C56.8193 27.9962 56.6506 27.9343 56.4976 27.8592C56.3446 27.784 56.221 27.6826 56.1268 27.5549C56.0366 27.4235 55.9915 27.2545 55.9915 27.0479C55.9915 26.8601 56.0425 26.6873 56.1445 26.5296C56.2465 26.3718 56.4054 26.2441 56.6212 26.1465C56.8369 26.0488 57.1136 26 57.451 26C57.6785 26 57.9021 26.0319 58.1219 26.0958C58.3455 26.1596 58.5358 26.246 58.6927 26.3549L58.5809 26.5859C58.4083 26.4732 58.2219 26.3906 58.0218 26.338C57.8257 26.2817 57.6354 26.2535 57.451 26.2535C57.1881 26.2535 56.9704 26.2892 56.7977 26.3606C56.6251 26.4319 56.4976 26.5277 56.4152 26.6479C56.3328 26.7643 56.2916 26.8958 56.2916 27.0423C56.2916 27.2113 56.3367 27.3465 56.427 27.4479C56.5211 27.5493 56.6447 27.63 56.7977 27.6901C56.9507 27.7502 57.1194 27.8009 57.3038 27.8423C57.4882 27.8836 57.6707 27.9286 57.8512 27.9775C58.0316 28.0225 58.1984 28.0826 58.3514 28.1577C58.5044 28.2329 58.628 28.3343 58.7222 28.462C58.8163 28.5897 58.8634 28.7549 58.8634 28.9577C58.8634 29.1418 58.8104 29.3146 58.7045 29.4761C58.5986 29.6338 58.4357 29.7615 58.216 29.8592C58.0003 29.953 57.7217 30 57.3803 30Z" stroke="white" stroke-width="0.6" mask="url(#path-1-outside-1_25_288)"/>
<path d="M97.5809 29.8535C97.8438 29.9512 98.1282 30 98.4343 30C98.7246 30 98.9953 29.9549 99.2464 29.8648C99.5014 29.7709 99.7192 29.6319 99.8997 29.4479L99.7113 29.262C99.5348 29.431 99.3386 29.5531 99.1228 29.6282C98.911 29.6995 98.6854 29.7352 98.446 29.7352C98.1832 29.7352 97.938 29.692 97.7104 29.6056C97.4868 29.5193 97.2906 29.3972 97.1219 29.2394C96.9571 29.0817 96.8276 28.8977 96.7335 28.6873C96.6432 28.477 96.5981 28.2479 96.5981 28C96.5981 27.7521 96.6432 27.523 96.7335 27.3127C96.8276 27.1023 96.9571 26.9183 97.1219 26.7606C97.2906 26.6028 97.4868 26.4808 97.7104 26.3944C97.938 26.308 98.1832 26.2648 98.446 26.2648C98.6854 26.2648 98.911 26.3023 99.1228 26.3775C99.3386 26.4488 99.5348 26.5671 99.7113 26.7324L99.8997 26.5465C99.7192 26.3624 99.5014 26.2254 99.2464 26.1352C98.9953 26.0451 98.7246 26 98.4343 26C98.1282 26 97.8458 26.0507 97.5868 26.1521C97.3279 26.2498 97.1003 26.3887 96.9041 26.569C96.7119 26.7493 96.5628 26.9615 96.4569 27.2056C96.351 27.446 96.298 27.7108 96.298 28C96.298 28.2892 96.351 28.5559 96.4569 28.8C96.5628 29.0404 96.7119 29.2507 96.9041 29.431C97.0964 29.6113 97.322 29.7521 97.5809 29.8535Z" stroke="white" stroke-width="0.6" mask="url(#path-1-outside-1_25_288)"/>
<path d="M113.646 29.8535C113.921 29.9512 114.211 30 114.517 30C114.858 30 115.137 29.953 115.353 29.8592C115.572 29.7615 115.735 29.6338 115.841 29.4761C115.947 29.3146 116 29.1418 116 28.9577C116 28.7549 115.953 28.5897 115.859 28.462C115.765 28.3343 115.641 28.2329 115.488 28.1577C115.335 28.0826 115.168 28.0225 114.988 27.9775C114.807 27.9286 114.625 27.8836 114.44 27.8423C114.256 27.8009 114.087 27.7502 113.934 27.6901C113.781 27.63 113.658 27.5493 113.564 27.4479C113.473 27.3465 113.428 27.2113 113.428 27.0423C113.428 26.8958 113.469 26.7643 113.552 26.6479C113.634 26.5277 113.762 26.4319 113.934 26.3606C114.107 26.2892 114.325 26.2535 114.588 26.2535C114.772 26.2535 114.962 26.2817 115.158 26.338C115.359 26.3906 115.545 26.4732 115.717 26.5859L115.829 26.3549C115.672 26.246 115.482 26.1596 115.258 26.0958C115.039 26.0319 114.815 26 114.588 26C114.25 26 113.974 26.0488 113.758 26.1465C113.542 26.2441 113.383 26.3718 113.281 26.5296C113.179 26.6873 113.128 26.8601 113.128 27.0479C113.128 27.2545 113.173 27.4235 113.263 27.5549C113.358 27.6826 113.481 27.784 113.634 27.8592C113.787 27.9343 113.956 27.9962 114.14 28.0451C114.325 28.0901 114.507 28.1333 114.688 28.1746C114.868 28.216 115.035 28.2667 115.188 28.3268C115.341 28.3869 115.464 28.4676 115.559 28.569C115.653 28.6704 115.7 28.8056 115.7 28.9746C115.7 29.1174 115.657 29.2469 115.57 29.3634C115.488 29.4798 115.359 29.5737 115.182 29.6451C115.009 29.7127 114.786 29.7465 114.511 29.7465C114.236 29.7465 113.976 29.6995 113.728 29.6056C113.485 29.508 113.293 29.3897 113.152 29.2507L113.016 29.4648C113.165 29.6225 113.375 29.7521 113.646 29.8535Z" stroke="white" stroke-width="0.6" mask="url(#path-1-outside-1_25_288)"/>
<path d="M105.501 29.7127V28.0958H107.696V27.8423H105.501V26.2873H107.955V26.0282H105.201V29.9718H108.044V29.7127H105.501Z" stroke="white" stroke-width="0.6" mask="url(#path-1-outside-1_25_288)"/>
<path d="M87.603 26.0282V29.9718H87.9031V26.5482L90.7103 29.9718H90.9575V26.0282H90.6573V29.4515L87.856 26.0282H87.603Z" stroke="white" stroke-width="0.6" mask="url(#path-1-outside-1_25_288)"/>
<path d="M79.6701 28.0958V29.7127H82.2125V29.9718H79.37V26.0282H82.1242V26.2873H79.6701V27.8423H81.8653V28.0958H79.6701Z" stroke="white" stroke-width="0.6" mask="url(#path-1-outside-1_25_288)"/>
<path fill-rule="evenodd" clip-rule="evenodd" d="M70.2117 26.0282V29.9718H71.8419C72.2774 29.9718 72.6599 29.8873 72.9895 29.7183C73.319 29.5493 73.5741 29.3164 73.7545 29.0197C73.939 28.723 74.0311 28.3831 74.0311 28C74.0311 27.6169 73.939 27.277 73.7545 26.9803C73.5741 26.6836 73.319 26.4507 72.9895 26.2817C72.6599 26.1127 72.2774 26.0282 71.8419 26.0282H70.2117ZM71.8183 29.7127H70.5118V26.2873H71.8183C72.2067 26.2873 72.5442 26.3606 72.8306 26.507C73.117 26.6535 73.3387 26.8563 73.4956 27.1155C73.6525 27.3709 73.731 27.6657 73.731 28C73.731 28.3343 73.6525 28.631 73.4956 28.8901C73.3387 29.1455 73.117 29.3465 72.8306 29.493C72.5442 29.6394 72.2067 29.7127 71.8183 29.7127Z" stroke="white" stroke-width="0.6" mask="url(#path-1-outside-1_25_288)"/>
<path d="M64.1799 26.0282V29.9718H64.48V26.0282H64.1799Z" stroke="white" stroke-width="0.6" mask="url(#path-1-outside-1_25_288)"/>
<path d="M48.3647 29.7127V28.0958H50.5598V27.8423H48.3647V26.2873H50.8188V26.0282H48.0645V29.9718H50.9071V29.7127H48.3647Z" stroke="white" stroke-width="0.6" mask="url(#path-1-outside-1_25_288)"/>
<path fill-rule="evenodd" clip-rule="evenodd" d="M39.5327 29.9718V26.0282H41.0099C41.3551 26.0282 41.6513 26.0808 41.8985 26.1859C42.1457 26.2911 42.336 26.4432 42.4694 26.6423C42.6028 26.8376 42.6695 27.0761 42.6695 27.3577C42.6695 27.6319 42.6028 27.8685 42.4694 28.0676C42.336 28.2629 42.1457 28.415 41.8985 28.5239C41.8363 28.5504 41.7709 28.5736 41.7024 28.5934L42.7342 29.9718H42.3929L41.4076 28.6555C41.2832 28.673 41.1506 28.6817 41.0099 28.6817H39.8328V29.9718H39.5327ZM41.0099 28.4282H39.8328V26.2873H41.0099C41.4532 26.2873 41.7887 26.3812 42.0162 26.569C42.2477 26.7531 42.3634 27.016 42.3634 27.3577C42.3634 27.6958 42.2477 27.9587 42.0162 28.1465C41.7887 28.3343 41.4532 28.4282 41.0099 28.4282Z" stroke="white" stroke-width="0.6" mask="url(#path-1-outside-1_25_288)"/>
<path d="M25.7922 29.7127V28.0958H27.9873V27.8423H25.7922V26.2873H28.2463V26.0282H25.492V29.9718H28.3346V29.7127H25.7922Z" stroke="white" stroke-width="0.6" mask="url(#path-1-outside-1_25_288)"/>
<path d="M16.9634 29.9718L18.5475 27.9375L17.0752 26.0282H17.4283L18.7407 27.7248L20.0531 26.0282H20.3885L18.915 27.9322L20.5004 29.9718H20.1472L18.7262 28.1473L17.3165 29.9718H16.9634Z" stroke="white" stroke-width="0.6" mask="url(#path-1-outside-1_25_288)"/>
<path d="M10.2708 30C9.76078 30 9.35862 29.8573 9.06436 29.5718C8.7701 29.2864 8.62298 28.862 8.62298 28.2986V26.0282H8.92312V28.2873C8.92312 28.7793 9.04083 29.1437 9.27622 29.3803C9.51164 29.6169 9.84512 29.7352 10.2767 29.7352C10.7044 29.7352 11.0359 29.6169 11.2713 29.3803C11.5067 29.1437 11.6244 28.7793 11.6244 28.2873V26.0282H11.9245V28.2986C11.9245 28.862 11.7774 29.2864 11.4831 29.5718C11.1889 29.8573 10.7848 30 10.2708 30Z" stroke="white" stroke-width="0.6" mask="url(#path-1-outside-1_25_288)"/>
<path d="M1 29.9718V26.0282H1.30015V29.7127H3.67184V29.9718H1Z" stroke="white" stroke-width="0.6" mask="url(#path-1-outside-1_25_288)"/>
<path d="M91.5941 0H96.7431C97.2266 0 97.5772 0.460179 97.4483 0.925715L91.9106 20.9278C91.7352 21.5613 91.1582 22 90.5002 22H85.3673C84.884 22 84.5335 21.5402 84.662 21.0748L90.1834 1.07321C90.3584 0.439203 90.9358 0 91.5941 0Z" fill="white"/>
<path fill-rule="evenodd" clip-rule="evenodd" d="M1.73211 22C1.24946 22 0.899049 21.5414 1.02631 21.0764L6.47895 1.14946C6.65288 0.51389 7.23094 0.0730897 7.89058 0.0730897H26.3077C26.5485 0.0730897 26.7237 0.301535 26.6609 0.533799L24.1141 9.95579C23.9418 10.5935 23.3627 11.0365 22.7013 11.0365H11.5009C11.172 11.0365 10.8834 11.2558 10.7957 11.5725L8.20455 20.928C8.02909 21.5614 7.45206 22 6.79414 22H1.73211ZM13.5409 1.34234C13.6278 1.02447 13.9168 0.803987 14.2467 0.803987H18.8795C19.1208 0.803987 19.296 1.0332 19.2325 1.2657L16.9083 9.76729C16.8214 10.0852 16.5324 10.3056 16.2025 10.3056H11.5696C11.3284 10.3056 11.1532 10.0764 11.2167 9.84393L13.5409 1.34234Z" fill="white"/>
<path d="M23.0175 21.0742L28.5372 1.1451C28.7127 0.511681 29.2897 0.0730897 29.9476 0.0730897H45.473C45.7039 0.0730897 45.8771 0.28407 45.8318 0.510209C45.7976 0.681027 45.6474 0.803987 45.473 0.803987H36.3785C36.0496 0.803987 35.7611 1.0232 35.6733 1.33982L33.3161 9.84267C33.2516 10.0755 33.4268 10.3056 33.6687 10.3056H40.4386C40.6766 10.3056 40.8513 10.5291 40.7935 10.7597C40.7528 10.9224 40.6065 11.0365 40.4386 11.0365H33.5586C33.2311 11.0365 32.9434 11.254 32.8545 11.569L30.2459 20.8044C30.18 21.0376 30.3554 21.2691 30.598 21.2691H39.5972C39.8352 21.2691 40.0098 21.4925 39.9521 21.7232C39.9114 21.8859 39.765 22 39.5972 22H23.7227C23.2391 22 22.8885 21.5398 23.0175 21.0742Z" fill="white"/>
<path d="M47.6003 1.14946C47.7743 0.51389 48.3524 0.0730897 49.012 0.0730897H68.8407C69.0748 0.0730897 69.2487 0.289731 69.1978 0.518007C69.1605 0.685122 69.0121 0.803987 68.8407 0.803987H55.4778C55.1479 0.803987 54.8589 1.02442 54.772 1.34225L49.448 20.8073C49.3844 21.0398 49.5596 21.2691 49.8009 21.2691H55.8204C56.1515 21.2691 56.4414 21.0469 56.5271 20.7274L58.8358 12.12C59.0072 11.4809 59.587 11.0365 60.2494 11.0365H65.3944C65.8766 11.0365 66.2269 11.4942 66.1005 11.959L63.6636 20.9214C63.4904 21.5581 62.9118 22 62.2514 22H42.8535C42.3709 22 42.0204 21.5414 42.1477 21.0764L47.6003 1.14946Z" fill="white"/>
<path d="M65.5291 21.0742L71.0489 1.1451C71.2243 0.511681 71.8013 0.0730897 72.4593 0.0730897H87.9623C88.2003 0.0730897 88.375 0.296521 88.3173 0.52717C88.2765 0.689855 88.1302 0.803987 87.9623 0.803987H78.5731C78.4097 0.803987 78.266 0.912332 78.2213 1.0694L75.7223 9.84016C75.6557 10.0735 75.8312 10.3056 76.0741 10.3056H82.8842C83.1079 10.3056 83.2792 10.5044 83.246 10.7253C83.2191 10.9042 83.0653 11.0365 82.8842 11.0365H75.7616C75.5955 11.0365 75.4503 11.1483 75.4079 11.3086L72.894 20.8103C72.8326 21.0421 73.0077 21.2691 73.2477 21.2691H82.1579C82.4233 21.2691 82.6004 21.5427 82.4915 21.7845C82.4324 21.9157 82.3018 22 82.1579 22H66.2343C65.7507 22 65.4002 21.5398 65.5291 21.0742Z" fill="white"/>
<path fill-rule="evenodd" clip-rule="evenodd" d="M99.4217 1.07539C99.596 0.4403 100.174 0 100.833 0H120.268C120.751 0 121.102 0.459773 120.973 0.925189L115.452 20.9268C115.277 21.5608 114.699 22 114.041 22H108.906C108.424 22 108.073 21.5419 108.2 21.077L110.813 11.4981C110.876 11.2656 110.701 11.0365 110.46 11.0365H104.166C104.001 11.0365 103.857 11.1467 103.813 11.3057L101.182 20.9236C101.008 21.5592 100.43 22 99.7703 22H94.6395C94.1567 22 93.8062 21.5411 93.9338 21.0759L99.4217 1.07539ZM104.229 9.84117C104.163 10.0743 104.339 10.3056 104.581 10.3056H110.873C111.037 10.3056 111.181 10.1966 111.225 10.0389L113.709 1.19508C113.775 0.962006 113.6 0.730897 113.357 0.730897H107.074C106.91 0.730897 106.766 0.839751 106.721 0.997319L104.229 9.84117Z" fill="white"/>
</svg>
