<svg width="40" height="40" viewBox="0 0 40 40" fill="none" xmlns="http://www.w3.org/2000/svg">
<path fill-rule="evenodd" clip-rule="evenodd" d="M6.47674 8C5.28944 8 4.15076 8.46731 3.31121 9.29912C2.47166 10.1309 2 11.2591 2 12.4355V28.5645C2 29.7409 2.47166 30.8691 3.31121 31.7009C4.15076 32.5327 5.28944 33 6.47674 33H32.5233C33.7106 33 34.8492 32.5327 35.6888 31.7009C36.5283 30.8691 37 29.7409 37 28.5645V12.4355C37 11.2591 36.5283 10.1309 35.6888 9.29912C34.8492 8.46731 33.7106 8 32.5233 8H6.47674ZM12.0605 14.671C11.7951 14.4994 11.4728 14.4368 11.1616 14.4963C10.8505 14.5559 10.5749 14.7329 10.3932 14.9901C10.2114 15.2473 10.1376 15.5644 10.1875 15.8744C10.2374 16.1845 10.407 16.4632 10.6605 16.6516L18.8 22.2968C19.0052 22.439 19.2496 22.5153 19.5 22.5153C19.7504 22.5153 19.9948 22.439 20.2 22.2968L28.3395 16.6516C28.4766 16.563 28.5943 16.4479 28.6856 16.3133C28.777 16.1787 28.84 16.0273 28.8711 15.868C28.9021 15.7088 28.9005 15.545 28.8664 15.3863C28.8323 15.2277 28.7663 15.0775 28.6724 14.9446C28.5785 14.8118 28.4586 14.699 28.3198 14.613C28.181 14.527 28.0262 14.4695 27.8645 14.444C27.7028 14.4184 27.5376 14.4254 27.3787 14.4644C27.2198 14.5034 27.0705 14.5736 26.9395 14.671L19.5 19.8306L12.0605 14.671Z" fill="#242424"/>
</svg>
