<svg width="40" height="40" viewBox="0 0 40 40" fill="none" xmlns="http://www.w3.org/2000/svg">
<path d="M37.979 28.6835C37.6581 30.9871 36.4602 33.1015 34.6092 34.632C32.7582 36.1624 30.3806 37.0041 27.9205 37C13.6282 37 2.00002 26.0179 2.00002 12.5197C1.99561 10.1963 2.88687 7.95082 4.50734 6.20265C6.12781 4.45448 8.36667 3.32318 10.8058 3.02006C11.4226 2.94893 12.0472 3.0681 12.5863 3.35978C13.1255 3.65147 13.5503 4.10002 13.7974 4.63847L17.5991 12.654V12.6744C17.7882 13.0866 17.8664 13.5366 17.8265 13.9843C17.7866 14.4319 17.6299 14.8633 17.3705 15.2398C17.3381 15.2857 17.3039 15.3282 17.2679 15.3707L13.5202 19.5663C14.8684 22.1537 17.7341 24.8364 20.5097 26.1131L24.891 22.5923C24.934 22.5582 24.9791 22.5264 25.026 22.4971C25.4243 22.2462 25.8826 22.0931 26.3594 22.0515C26.8362 22.0099 27.3164 22.0813 27.7567 22.2591L27.7801 22.2693L36.26 25.8581C36.8311 26.0906 37.3072 26.4915 37.6171 27.0008C37.927 27.5101 38.0539 28.1004 37.979 28.6835Z" fill="#242424"/>
</svg>
