<svg width="40" height="40" viewBox="0 0 40 40" fill="none" xmlns="http://www.w3.org/2000/svg">
<path d="M34.9309 4.27368C34.9309 4.27368 38.2611 2.93182 37.9836 6.19062C37.8911 7.53249 37.0585 12.229 36.411 17.3089L34.1908 32.3569C34.1908 32.3569 34.0058 34.5614 32.3406 34.9448C30.6755 35.3281 28.1778 33.6029 27.7152 33.2195C27.3452 32.932 20.7773 28.6189 18.4645 26.5102C17.817 25.9351 17.0769 24.785 18.557 23.4431L28.2703 13.8584C29.3804 12.7082 30.4905 10.0245 25.8651 13.2833L12.9141 22.3888C12.9141 22.3888 11.434 23.3473 8.65881 22.4847L2.64579 20.5677C2.64579 20.5677 0.425608 19.13 4.21842 17.6922C13.4692 13.1874 24.8476 8.58676 34.9309 4.27368Z" fill="#242424"/>
</svg>
