<svg width="37" height="36" viewBox="0 0 37 36" fill="none" xmlns="http://www.w3.org/2000/svg">
<path d="M19.8552 15.187V11.813H15.7416V8H11.9932V11.813H7.85522V15.187H11.9932V19H15.7416V15.187H19.8552Z" fill="#242424"/>
<path fill-rule="evenodd" clip-rule="evenodd" d="M4.08348 3.95348C2.79552 5.2243 1.77166 6.73734 1.07086 8.40547C0.370049 10.0736 0.00613858 11.8639 7.69942e-05 13.6733C-0.0059846 15.4826 0.345923 17.2753 1.03554 18.9481C1.72515 20.6209 2.73885 22.1408 4.01827 23.4202C5.29768 24.6996 6.81754 25.7133 8.49034 26.4029C10.1631 27.0925 11.9558 27.4444 13.7652 27.4384C15.5745 27.4323 17.3648 27.0684 19.033 26.3676C19.543 26.1533 20.0386 25.9088 20.5172 25.6358C20.616 25.7643 20.7232 25.8865 20.8383 26.0016L29.6585 34.8193C30.0036 35.1767 30.4165 35.4617 30.873 35.6578C31.3295 35.8539 31.8205 35.9571 32.3173 35.9614C32.8141 35.9657 33.3068 35.8711 33.7666 35.6829C34.2264 35.4948 34.6442 35.217 34.9955 34.8657C35.3468 34.5144 35.6246 34.0966 35.8128 33.6368C36.0009 33.1769 36.0956 32.6842 36.0912 32.1874C36.0869 31.6906 35.9837 31.1997 35.7876 30.7432C35.5915 30.2867 35.3065 29.8738 34.9491 29.5287L26.1314 20.7085C26.0045 20.5815 25.8688 20.4642 25.7257 20.3572C26.8469 18.3291 27.4463 16.0313 27.4384 13.6733C27.4262 10.0506 25.9818 6.57986 23.4202 4.01827C20.8586 1.45667 17.3878 0.0122133 13.7652 7.70945e-05C10.1426 -0.0120592 6.66218 1.40911 4.08348 3.95348ZM19.9579 19.8279C19.1471 20.6386 18.1846 21.2817 17.1254 21.7205C16.0661 22.1592 14.9308 22.3851 13.7842 22.3851C12.6377 22.3851 11.5023 22.1592 10.4431 21.7205C9.38379 21.2817 8.4213 20.6386 7.61057 19.8279C6.79983 19.0171 6.15672 18.0547 5.71796 16.9954C5.27919 15.9361 5.05336 14.8008 5.05336 13.6542C5.05336 12.5077 5.27919 11.3723 5.71796 10.3131C6.15672 9.25379 6.79983 8.29131 7.61057 7.48057C9.24792 5.84322 11.4686 4.92336 13.7842 4.92336C16.0998 4.92336 18.3205 5.84322 19.9579 7.48057C21.5952 9.11792 22.5151 11.3387 22.5151 13.6542C22.5151 15.9698 21.5952 18.1905 19.9579 19.8279Z" fill="#242424"/>
</svg>
