<svg width="41" height="41" viewBox="0 0 41 41" fill="none" xmlns="http://www.w3.org/2000/svg">
<g filter="url(#filter0_d_640_17)">
<circle cx="20.5" cy="18.5" r="16.5" fill="#225047"/>
</g>
<path d="M16.3076 10.5283C15.8975 10.1787 15.8975 9.61183 16.3076 9.26221C16.7176 8.9126 17.3825 8.9126 17.7925 9.26221L27.6924 17.7027C28.1025 18.0523 28.1025 18.6191 27.6924 18.9688C27.2824 19.3184 26.6175 19.3184 26.2075 18.9688L16.3076 10.5283Z" fill="#F9F9F9"/>
<path d="M16.3076 26.4717C15.8975 26.8213 15.8975 27.3882 16.3076 27.7378C16.7176 28.0874 17.3825 28.0874 17.7925 27.7378L27.6924 19.2973C28.1025 18.9477 28.1025 18.3809 27.6924 18.0312C27.2824 17.6816 26.6175 17.6816 26.2075 18.0312L16.3076 26.4717Z" fill="#F9F9F9"/>
<defs>
<filter id="filter0_d_640_17" x="0" y="0" width="41" height="41" filterUnits="userSpaceOnUse" color-interpolation-filters="sRGB">
<feFlood flood-opacity="0" result="BackgroundImageFix"/>
<feColorMatrix in="SourceAlpha" type="matrix" values="0 0 0 0 0 0 0 0 0 0 0 0 0 0 0 0 0 0 127 0" result="hardAlpha"/>
<feOffset dy="2"/>
<feGaussianBlur stdDeviation="2"/>
<feComposite in2="hardAlpha" operator="out"/>
<feColorMatrix type="matrix" values="0 0 0 0 0.0858333 0 0 0 0 0.1 0 0 0 0 0.0932 0 0 0 0.46 0"/>
<feBlend mode="normal" in2="BackgroundImageFix" result="effect1_dropShadow_640_17"/>
<feBlend mode="normal" in="SourceGraphic" in2="effect1_dropShadow_640_17" result="shape"/>
</filter>
</defs>
</svg>
