<svg width="43" height="178" viewBox="0 0 43 178" fill="none" xmlns="http://www.w3.org/2000/svg">
<g opacity="0.2">
<path d="M18.9839 175.796C18.9839 174.578 20.1032 173.591 21.4839 173.591C22.8646 173.591 23.9839 174.578 23.9839 175.796C23.9839 177.013 22.8646 178 21.4839 178C20.1032 178 18.9839 177.013 18.9839 175.796Z" fill="#00C8A0"/>
<path d="M18.9839 60.0681C18.9839 58.8507 20.1032 57.8638 21.4839 57.8638C22.8646 57.8638 23.9839 58.8507 23.9839 60.0681C23.9839 61.2855 22.8646 62.2725 21.4839 62.2725C20.1032 62.2725 18.9839 61.2855 18.9839 60.0681Z" fill="#00C8A0"/>
<path d="M18.9839 2.20435C18.9839 0.986923 20.1032 1.49195e-05 21.4839 1.50402e-05C22.8646 1.51609e-05 23.9839 0.986923 23.9839 2.20435C23.9839 3.42177 22.8646 4.40868 21.4839 4.40868C20.1032 4.40868 18.9839 3.42177 18.9839 2.20435Z" fill="#00C8A0"/>
</g>
<path opacity="0.2" d="M23.2339 137.701C22.4604 138.148 21.5074 138.148 20.7339 137.701L5.54735 128.933C4.77385 128.486 4.29735 127.661 4.29735 126.768L4.29735 109.232C4.29735 108.339 4.77385 107.514 5.54735 107.067L20.7339 98.299C21.5074 97.8525 22.4604 97.8525 23.2339 98.299L38.4204 107.067C39.1939 107.514 39.6704 108.339 39.6704 109.232L39.6704 126.768C39.6704 127.661 39.1939 128.486 38.4204 128.933L23.2339 137.701Z" stroke="#3AFFD8"/>
</svg>
