<svg width="277" height="242" viewBox="0 0 277 242" fill="none" xmlns="http://www.w3.org/2000/svg">
<path d="M253 47.5L65.5 47.5L65.5 24C65.5 11.0213 76.0213 0.500002 89 0.500003L253 0.500017C265.979 0.500018 276.5 11.0213 276.5 24C276.5 36.9787 265.979 47.5 253 47.5Z" fill="white" stroke="#FC8267"/>
<path d="M2.5 240.5V96L65 47.5" stroke="#FC8267"/>
<circle cx="2.5" cy="239.5" r="2.5" fill="#FC8267"/>
<path d="M122.9 32C122.767 32 122.647 31.9533 122.54 31.86C122.447 31.7533 122.4 31.6333 122.4 31.5V18.5C122.4 18.3533 122.447 18.2333 122.54 18.14C122.647 18.0467 122.767 18 122.9 18H129C130.68 18 131.927 18.3467 132.74 19.04C133.567 19.72 133.98 20.6933 133.98 21.96C133.98 22.6267 133.807 23.1933 133.46 23.66C133.127 24.1133 132.747 24.4467 132.32 24.66C132.867 24.9133 133.327 25.32 133.7 25.88C134.073 26.44 134.26 27.0667 134.26 27.76C134.26 29.0933 133.82 30.1333 132.94 30.88C132.06 31.6267 130.807 32 129.18 32H122.9ZM128.6 23.56C129.133 23.56 129.54 23.4267 129.82 23.16C130.1 22.88 130.24 22.5133 130.24 22.06C130.24 21.62 130.1 21.2667 129.82 21C129.54 20.7333 129.133 20.6 128.6 20.6H126V23.56H128.6ZM128.78 29.4C129.327 29.4 129.753 29.24 130.06 28.92C130.367 28.6 130.52 28.2133 130.52 27.76C130.52 27.28 130.367 26.8867 130.06 26.58C129.753 26.26 129.327 26.1 128.78 26.1H126V29.4H128.78ZM139.382 32.2C138.675 32.2 138.029 32.0667 137.442 31.8C136.869 31.52 136.415 31.1467 136.082 30.68C135.762 30.2 135.602 29.6733 135.602 29.1C135.602 28.18 135.975 27.44 136.722 26.88C137.482 26.32 138.522 25.9333 139.842 25.72L142.342 25.34V25.06C142.342 24.5533 142.235 24.18 142.022 23.94C141.809 23.7 141.449 23.58 140.942 23.58C140.635 23.58 140.382 23.6333 140.182 23.74C139.982 23.8467 139.775 23.9933 139.562 24.18C139.375 24.34 139.235 24.4467 139.142 24.5C139.102 24.6067 139.029 24.66 138.922 24.66H136.742C136.609 24.66 136.495 24.62 136.402 24.54C136.322 24.4467 136.289 24.34 136.302 24.22C136.315 23.86 136.489 23.46 136.822 23.02C137.169 22.58 137.689 22.2 138.382 21.88C139.089 21.56 139.955 21.4 140.982 21.4C142.622 21.4 143.835 21.7667 144.622 22.5C145.409 23.22 145.802 24.1933 145.802 25.42V31.5C145.802 31.6333 145.755 31.7533 145.662 31.86C145.569 31.9533 145.449 32 145.302 32H142.982C142.849 32 142.729 31.9533 142.622 31.86C142.529 31.7533 142.482 31.6333 142.482 31.5V30.8C142.189 31.2133 141.775 31.5533 141.242 31.82C140.722 32.0733 140.102 32.2 139.382 32.2ZM140.322 29.92C140.935 29.92 141.429 29.72 141.802 29.32C142.189 28.92 142.382 28.3333 142.382 27.56V27.28L140.682 27.58C139.482 27.7933 138.882 28.2133 138.882 28.84C138.882 29.1733 139.022 29.44 139.302 29.64C139.582 29.8267 139.922 29.92 140.322 29.92ZM153.301 32C150.541 32 149.161 30.6867 149.161 28.06V24.22H147.601C147.454 24.22 147.327 24.1733 147.221 24.08C147.127 23.9867 147.081 23.8667 147.081 23.72V22.1C147.081 21.9533 147.127 21.8333 147.221 21.74C147.327 21.6467 147.454 21.6 147.601 21.6H149.161V18.3C149.161 18.1533 149.207 18.0333 149.301 17.94C149.407 17.8467 149.527 17.8 149.661 17.8H151.981C152.127 17.8 152.247 17.8467 152.341 17.94C152.434 18.0333 152.481 18.1533 152.481 18.3V21.6H154.981C155.127 21.6 155.247 21.6467 155.341 21.74C155.447 21.8333 155.501 21.9533 155.501 22.1V23.72C155.501 23.8667 155.447 23.9867 155.341 24.08C155.247 24.1733 155.127 24.22 154.981 24.22H152.481V27.78C152.481 28.7667 152.861 29.26 153.621 29.26H155.161C155.307 29.26 155.427 29.3067 155.521 29.4C155.614 29.4933 155.661 29.6133 155.661 29.76V31.5C155.661 31.6333 155.614 31.7533 155.521 31.86C155.427 31.9533 155.307 32 155.161 32H153.301ZM157.817 32C157.683 32 157.563 31.9533 157.457 31.86C157.363 31.7533 157.317 31.6333 157.317 31.5V18.3C157.317 18.1533 157.363 18.0333 157.457 17.94C157.563 17.8467 157.683 17.8 157.817 17.8H160.377C160.523 17.8 160.643 17.8467 160.737 17.94C160.83 18.0333 160.877 18.1533 160.877 18.3V22.76C161.677 21.8533 162.73 21.4 164.037 21.4C164.81 21.4 165.497 21.5733 166.097 21.92C166.71 22.2667 167.19 22.78 167.537 23.46C167.883 24.14 168.057 24.96 168.057 25.92V31.5C168.057 31.6333 168.01 31.7533 167.917 31.86C167.823 31.9533 167.703 32 167.557 32H164.977C164.843 32 164.723 31.9533 164.617 31.86C164.523 31.7533 164.477 31.6333 164.477 31.5V26.04C164.477 25.4133 164.323 24.9333 164.017 24.6C163.723 24.2533 163.29 24.08 162.717 24.08C162.143 24.08 161.69 24.2533 161.357 24.6C161.037 24.9333 160.877 25.4133 160.877 26.04V31.5C160.877 31.6467 160.83 31.7667 160.737 31.86C160.643 31.9533 160.523 32 160.377 32H157.817ZM170.825 32C170.678 32 170.558 31.9533 170.465 31.86C170.371 31.7667 170.325 31.6467 170.325 31.5V22.1C170.325 21.9533 170.371 21.8333 170.465 21.74C170.558 21.6467 170.678 21.6 170.825 21.6H173.125C173.271 21.6 173.391 21.6533 173.485 21.76C173.591 21.8533 173.645 21.9667 173.645 22.1V22.9C174.378 22.0333 175.365 21.6 176.605 21.6H177.485C177.631 21.6 177.751 21.6467 177.845 21.74C177.938 21.8333 177.985 21.9533 177.985 22.1V24.16C177.985 24.2933 177.938 24.4133 177.845 24.52C177.751 24.6133 177.631 24.66 177.485 24.66H175.545C174.998 24.66 174.571 24.8133 174.265 25.12C173.971 25.4133 173.825 25.8333 173.825 26.38V31.5C173.825 31.6467 173.771 31.7667 173.665 31.86C173.571 31.9533 173.451 32 173.305 32H170.825ZM184.229 32.2C182.576 32.2 181.302 31.8067 180.409 31.02C179.516 30.2333 179.029 29.1267 178.949 27.7C178.936 27.5267 178.929 27.2267 178.929 26.8C178.929 26.3733 178.936 26.0733 178.949 25.9C179.029 24.4867 179.529 23.3867 180.449 22.6C181.369 21.8 182.629 21.4 184.229 21.4C185.842 21.4 187.109 21.8 188.029 22.6C188.949 23.3867 189.449 24.4867 189.529 25.9C189.542 26.0733 189.549 26.3733 189.549 26.8C189.549 27.2267 189.542 27.5267 189.529 27.7C189.449 29.1267 188.962 30.2333 188.069 31.02C187.176 31.8067 185.896 32.2 184.229 32.2ZM184.229 29.76C184.816 29.76 185.249 29.5867 185.529 29.24C185.809 28.88 185.969 28.3333 186.009 27.6C186.022 27.4667 186.029 27.2 186.029 26.8C186.029 26.4 186.022 26.1333 186.009 26C185.969 25.28 185.802 24.74 185.509 24.38C185.229 24.02 184.802 23.84 184.229 23.84C183.122 23.84 182.536 24.56 182.469 26L182.449 26.8L182.469 27.6C182.496 28.3333 182.649 28.88 182.929 29.24C183.222 29.5867 183.656 29.76 184.229 29.76ZM196.455 32.2C194.802 32.2 193.529 31.8067 192.635 31.02C191.742 30.2333 191.255 29.1267 191.175 27.7C191.162 27.5267 191.155 27.2267 191.155 26.8C191.155 26.3733 191.162 26.0733 191.175 25.9C191.255 24.4867 191.755 23.3867 192.675 22.6C193.595 21.8 194.855 21.4 196.455 21.4C198.069 21.4 199.335 21.8 200.255 22.6C201.175 23.3867 201.675 24.4867 201.755 25.9C201.769 26.0733 201.775 26.3733 201.775 26.8C201.775 27.2267 201.769 27.5267 201.755 27.7C201.675 29.1267 201.189 30.2333 200.295 31.02C199.402 31.8067 198.122 32.2 196.455 32.2ZM196.455 29.76C197.042 29.76 197.475 29.5867 197.755 29.24C198.035 28.88 198.195 28.3333 198.235 27.6C198.249 27.4667 198.255 27.2 198.255 26.8C198.255 26.4 198.249 26.1333 198.235 26C198.195 25.28 198.029 24.74 197.735 24.38C197.455 24.02 197.029 23.84 196.455 23.84C195.349 23.84 194.762 24.56 194.695 26L194.675 26.8L194.695 27.6C194.722 28.3333 194.875 28.88 195.155 29.24C195.449 29.5867 195.882 29.76 196.455 29.76ZM204.262 32C204.115 32 203.995 31.9533 203.902 31.86C203.809 31.7667 203.762 31.6467 203.762 31.5V22.1C203.762 21.9533 203.809 21.8333 203.902 21.74C203.995 21.6467 204.115 21.6 204.262 21.6H206.442C206.589 21.6 206.709 21.6467 206.802 21.74C206.895 21.8333 206.942 21.9533 206.942 22.1V22.78C207.249 22.38 207.655 22.0533 208.162 21.8C208.682 21.5333 209.262 21.4 209.902 21.4C211.369 21.4 212.382 21.9733 212.942 23.12C213.262 22.6133 213.709 22.2 214.282 21.88C214.855 21.56 215.469 21.4 216.122 21.4C217.215 21.4 218.102 21.7733 218.782 22.52C219.475 23.2533 219.822 24.3533 219.822 25.82V31.5C219.822 31.6333 219.775 31.7533 219.682 31.86C219.589 31.9533 219.469 32 219.322 32H217.002C216.855 32 216.729 31.9533 216.622 31.86C216.529 31.7667 216.482 31.6467 216.482 31.5V25.96C216.482 25.2933 216.342 24.8133 216.062 24.52C215.795 24.2267 215.429 24.08 214.962 24.08C214.535 24.08 214.182 24.2333 213.902 24.54C213.622 24.8333 213.482 25.3067 213.482 25.96V31.5C213.482 31.6333 213.435 31.7533 213.342 31.86C213.249 31.9533 213.129 32 212.982 32H210.662C210.515 32 210.395 31.9533 210.302 31.86C210.209 31.7667 210.162 31.6467 210.162 31.5V25.96C210.162 25.3067 210.015 24.8333 209.722 24.54C209.442 24.2333 209.082 24.08 208.642 24.08C208.215 24.08 207.855 24.2333 207.562 24.54C207.282 24.8333 207.142 25.3 207.142 25.94V31.5C207.142 31.6333 207.095 31.7533 207.002 31.86C206.909 31.9533 206.789 32 206.642 32H204.262Z" fill="#FC8267"/>
</svg>
