<svg width="33" height="23" viewBox="0 0 33 23" fill="none" xmlns="http://www.w3.org/2000/svg">
<path fill-rule="evenodd" clip-rule="evenodd" d="M1.26923 0C0.93261 0 0.609776 0.133722 0.371749 0.371749C0.133722 0.609776 0 0.93261 0 1.26923C0 1.60585 0.133722 1.92869 0.371749 2.16671C0.609776 2.40474 0.93261 2.53846 1.26923 2.53846H31.7308C32.0674 2.53846 32.3902 2.40474 32.6283 2.16671C32.8663 1.92869 33 1.60585 33 1.26923C33 0.93261 32.8663 0.609776 32.6283 0.371749C32.3902 0.133722 32.0674 0 31.7308 0H1.26923ZM0 11.4231C0 11.0865 0.133722 10.7636 0.371749 10.5256C0.609776 10.2876 0.93261 10.1538 1.26923 10.1538H31.7308C32.0674 10.1538 32.3902 10.2876 32.6283 10.5256C32.8663 10.7636 33 11.0865 33 11.4231C33 11.7597 32.8663 12.0825 32.6283 12.3206C32.3902 12.5586 32.0674 12.6923 31.7308 12.6923H1.26923C0.93261 12.6923 0.609776 12.5586 0.371749 12.3206C0.133722 12.0825 0 11.7597 0 11.4231ZM0 21.5769C0 21.2403 0.133722 20.9175 0.371749 20.6794C0.609776 20.4414 0.93261 20.3077 1.26923 20.3077H31.7308C32.0674 20.3077 32.3902 20.4414 32.6283 20.6794C32.8663 20.9175 33 21.2403 33 21.5769C33 21.9135 32.8663 22.2364 32.6283 22.4744C32.3902 22.7124 32.0674 22.8462 31.7308 22.8462H1.26923C0.93261 22.8462 0.609776 22.7124 0.371749 22.4744C0.133722 22.2364 0 21.9135 0 21.5769Z" fill="#292929"/>
</svg>
