<svg width="41" height="26" viewBox="0 0 41 26" fill="none" xmlns="http://www.w3.org/2000/svg">
<rect width="39" height="24" rx="3" fill="#C8C8C8"/>
<rect y="4" width="39" height="5" fill="#6A6A6A"/>
<rect x="3" y="12" width="33" height="8" rx="1" fill="white"/>
<path d="M5.6575 15.92C5.6575 16.109 5.637 16.2725 5.596 16.4105C5.556 16.5485 5.5005 16.663 5.4295 16.754C5.3585 16.845 5.275 16.9125 5.179 16.9565C5.083 17.0005 4.9795 17.0225 4.8685 17.0225C4.7575 17.0225 4.654 17.0005 4.558 16.9565C4.462 16.9125 4.3785 16.845 4.3075 16.754C4.2375 16.663 4.1825 16.5485 4.1425 16.4105C4.1025 16.2725 4.0825 16.109 4.0825 15.92C4.0825 15.731 4.1025 15.5675 4.1425 15.4295C4.1825 15.2905 4.2375 15.176 4.3075 15.086C4.3785 14.995 4.462 14.9275 4.558 14.8835C4.654 14.8385 4.7575 14.816 4.8685 14.816C4.9795 14.816 5.083 14.8385 5.179 14.8835C5.275 14.9275 5.3585 14.995 5.4295 15.086C5.5005 15.176 5.556 15.2905 5.596 15.4295C5.637 15.5675 5.6575 15.731 5.6575 15.92ZM5.3245 15.92C5.3245 15.76 5.3115 15.627 5.2855 15.521C5.2605 15.414 5.227 15.3285 5.185 15.2645C5.143 15.2005 5.0945 15.155 5.0395 15.128C4.9845 15.101 4.9275 15.0875 4.8685 15.0875C4.8085 15.0875 4.751 15.101 4.696 15.128C4.642 15.155 4.594 15.2005 4.552 15.2645C4.51 15.3285 4.4765 15.414 4.4515 15.521C4.4265 15.627 4.414 15.76 4.414 15.92C4.414 16.08 4.4265 16.2135 4.4515 16.3205C4.4765 16.4265 4.51 16.5115 4.552 16.5755C4.594 16.6395 4.642 16.685 4.696 16.712C4.751 16.739 4.8085 16.7525 4.8685 16.7525C4.9275 16.7525 4.9845 16.739 5.0395 16.712C5.0945 16.685 5.143 16.6395 5.185 16.5755C5.227 16.5115 5.2605 16.4265 5.2855 16.3205C5.3115 16.2135 5.3245 16.08 5.3245 15.92ZM7.39773 15.92C7.39773 16.109 7.37723 16.2725 7.33623 16.4105C7.29623 16.5485 7.24073 16.663 7.16973 16.754C7.09873 16.845 7.01523 16.9125 6.91923 16.9565C6.82323 17.0005 6.71973 17.0225 6.60873 17.0225C6.49773 17.0225 6.39423 17.0005 6.29823 16.9565C6.20223 16.9125 6.11873 16.845 6.04773 16.754C5.97773 16.663 5.92273 16.5485 5.88273 16.4105C5.84273 16.2725 5.82273 16.109 5.82273 15.92C5.82273 15.731 5.84273 15.5675 5.88273 15.4295C5.92273 15.2905 5.97773 15.176 6.04773 15.086C6.11873 14.995 6.20223 14.9275 6.29823 14.8835C6.39423 14.8385 6.49773 14.816 6.60873 14.816C6.71973 14.816 6.82323 14.8385 6.91923 14.8835C7.01523 14.9275 7.09873 14.995 7.16973 15.086C7.24073 15.176 7.29623 15.2905 7.33623 15.4295C7.37723 15.5675 7.39773 15.731 7.39773 15.92ZM7.06473 15.92C7.06473 15.76 7.05173 15.627 7.02573 15.521C7.00073 15.414 6.96723 15.3285 6.92523 15.2645C6.88323 15.2005 6.83473 15.155 6.77973 15.128C6.72473 15.101 6.66773 15.0875 6.60873 15.0875C6.54873 15.0875 6.49123 15.101 6.43623 15.128C6.38223 15.155 6.33423 15.2005 6.29223 15.2645C6.25023 15.3285 6.21673 15.414 6.19173 15.521C6.16673 15.627 6.15423 15.76 6.15423 15.92C6.15423 16.08 6.16673 16.2135 6.19173 16.3205C6.21673 16.4265 6.25023 16.5115 6.29223 16.5755C6.33423 16.6395 6.38223 16.685 6.43623 16.712C6.49123 16.739 6.54873 16.7525 6.60873 16.7525C6.66773 16.7525 6.72473 16.739 6.77973 16.712C6.83473 16.685 6.88323 16.6395 6.92523 16.5755C6.96723 16.5115 7.00073 16.4265 7.02573 16.3205C7.05173 16.2135 7.06473 16.08 7.06473 15.92ZM9.13797 15.92C9.13797 16.109 9.11747 16.2725 9.07647 16.4105C9.03647 16.5485 8.98097 16.663 8.90997 16.754C8.83897 16.845 8.75547 16.9125 8.65947 16.9565C8.56347 17.0005 8.45997 17.0225 8.34897 17.0225C8.23797 17.0225 8.13447 17.0005 8.03847 16.9565C7.94247 16.9125 7.85897 16.845 7.78797 16.754C7.71797 16.663 7.66297 16.5485 7.62297 16.4105C7.58297 16.2725 7.56297 16.109 7.56297 15.92C7.56297 15.731 7.58297 15.5675 7.62297 15.4295C7.66297 15.2905 7.71797 15.176 7.78797 15.086C7.85897 14.995 7.94247 14.9275 8.03847 14.8835C8.13447 14.8385 8.23797 14.816 8.34897 14.816C8.45997 14.816 8.56347 14.8385 8.65947 14.8835C8.75547 14.9275 8.83897 14.995 8.90997 15.086C8.98097 15.176 9.03647 15.2905 9.07647 15.4295C9.11747 15.5675 9.13797 15.731 9.13797 15.92ZM8.80497 15.92C8.80497 15.76 8.79197 15.627 8.76597 15.521C8.74097 15.414 8.70747 15.3285 8.66547 15.2645C8.62347 15.2005 8.57497 15.155 8.51997 15.128C8.46497 15.101 8.40797 15.0875 8.34897 15.0875C8.28897 15.0875 8.23147 15.101 8.17647 15.128C8.12247 15.155 8.07447 15.2005 8.03247 15.2645C7.99047 15.3285 7.95697 15.414 7.93197 15.521C7.90697 15.627 7.89447 15.76 7.89447 15.92C7.89447 16.08 7.90697 16.2135 7.93197 16.3205C7.95697 16.4265 7.99047 16.5115 8.03247 16.5755C8.07447 16.6395 8.12247 16.685 8.17647 16.712C8.23147 16.739 8.28897 16.7525 8.34897 16.7525C8.40797 16.7525 8.46497 16.739 8.51997 16.712C8.57497 16.685 8.62347 16.6395 8.66547 16.5755C8.70747 16.5115 8.74097 16.4265 8.76597 16.3205C8.79197 16.2135 8.80497 16.08 8.80497 15.92ZM10.8782 15.92C10.8782 16.109 10.8577 16.2725 10.8167 16.4105C10.7767 16.5485 10.7212 16.663 10.6502 16.754C10.5792 16.845 10.4957 16.9125 10.3997 16.9565C10.3037 17.0005 10.2002 17.0225 10.0892 17.0225C9.9782 17.0225 9.8747 17.0005 9.7787 16.9565C9.6827 16.9125 9.5992 16.845 9.5282 16.754C9.4582 16.663 9.4032 16.5485 9.3632 16.4105C9.3232 16.2725 9.3032 16.109 9.3032 15.92C9.3032 15.731 9.3232 15.5675 9.3632 15.4295C9.4032 15.2905 9.4582 15.176 9.5282 15.086C9.5992 14.995 9.6827 14.9275 9.7787 14.8835C9.8747 14.8385 9.9782 14.816 10.0892 14.816C10.2002 14.816 10.3037 14.8385 10.3997 14.8835C10.4957 14.9275 10.5792 14.995 10.6502 15.086C10.7212 15.176 10.7767 15.2905 10.8167 15.4295C10.8577 15.5675 10.8782 15.731 10.8782 15.92ZM10.5452 15.92C10.5452 15.76 10.5322 15.627 10.5062 15.521C10.4812 15.414 10.4477 15.3285 10.4057 15.2645C10.3637 15.2005 10.3152 15.155 10.2602 15.128C10.2052 15.101 10.1482 15.0875 10.0892 15.0875C10.0292 15.0875 9.9717 15.101 9.9167 15.128C9.8627 15.155 9.8147 15.2005 9.7727 15.2645C9.7307 15.3285 9.6972 15.414 9.6722 15.521C9.6472 15.627 9.6347 15.76 9.6347 15.92C9.6347 16.08 9.6472 16.2135 9.6722 16.3205C9.6972 16.4265 9.7307 16.5115 9.7727 16.5755C9.8147 16.6395 9.8627 16.685 9.9167 16.712C9.9717 16.739 10.0292 16.7525 10.0892 16.7525C10.1482 16.7525 10.2052 16.739 10.2602 16.712C10.3152 16.685 10.3637 16.6395 10.4057 16.5755C10.4477 16.5115 10.4812 16.4265 10.5062 16.3205C10.5322 16.2135 10.5452 16.08 10.5452 15.92ZM13.3655 15.92C13.3655 16.109 13.345 16.2725 13.304 16.4105C13.264 16.5485 13.2085 16.663 13.1375 16.754C13.0665 16.845 12.983 16.9125 12.887 16.9565C12.791 17.0005 12.6875 17.0225 12.5765 17.0225C12.4655 17.0225 12.362 17.0005 12.266 16.9565C12.17 16.9125 12.0865 16.845 12.0155 16.754C11.9455 16.663 11.8905 16.5485 11.8505 16.4105C11.8105 16.2725 11.7905 16.109 11.7905 15.92C11.7905 15.731 11.8105 15.5675 11.8505 15.4295C11.8905 15.2905 11.9455 15.176 12.0155 15.086C12.0865 14.995 12.17 14.9275 12.266 14.8835C12.362 14.8385 12.4655 14.816 12.5765 14.816C12.6875 14.816 12.791 14.8385 12.887 14.8835C12.983 14.9275 13.0665 14.995 13.1375 15.086C13.2085 15.176 13.264 15.2905 13.304 15.4295C13.345 15.5675 13.3655 15.731 13.3655 15.92ZM13.0325 15.92C13.0325 15.76 13.0195 15.627 12.9935 15.521C12.9685 15.414 12.935 15.3285 12.893 15.2645C12.851 15.2005 12.8025 15.155 12.7475 15.128C12.6925 15.101 12.6355 15.0875 12.5765 15.0875C12.5165 15.0875 12.459 15.101 12.404 15.128C12.35 15.155 12.302 15.2005 12.26 15.2645C12.218 15.3285 12.1845 15.414 12.1595 15.521C12.1345 15.627 12.122 15.76 12.122 15.92C12.122 16.08 12.1345 16.2135 12.1595 16.3205C12.1845 16.4265 12.218 16.5115 12.26 16.5755C12.302 16.6395 12.35 16.685 12.404 16.712C12.459 16.739 12.5165 16.7525 12.5765 16.7525C12.6355 16.7525 12.6925 16.739 12.7475 16.712C12.8025 16.685 12.851 16.6395 12.893 16.5755C12.935 16.5115 12.9685 16.4265 12.9935 16.3205C13.0195 16.2135 13.0325 16.08 13.0325 15.92ZM15.1057 15.92C15.1057 16.109 15.0852 16.2725 15.0442 16.4105C15.0042 16.5485 14.9487 16.663 14.8777 16.754C14.8067 16.845 14.7232 16.9125 14.6272 16.9565C14.5312 17.0005 14.4277 17.0225 14.3167 17.0225C14.2057 17.0225 14.1022 17.0005 14.0062 16.9565C13.9102 16.9125 13.8267 16.845 13.7557 16.754C13.6857 16.663 13.6307 16.5485 13.5907 16.4105C13.5507 16.2725 13.5307 16.109 13.5307 15.92C13.5307 15.731 13.5507 15.5675 13.5907 15.4295C13.6307 15.2905 13.6857 15.176 13.7557 15.086C13.8267 14.995 13.9102 14.9275 14.0062 14.8835C14.1022 14.8385 14.2057 14.816 14.3167 14.816C14.4277 14.816 14.5312 14.8385 14.6272 14.8835C14.7232 14.9275 14.8067 14.995 14.8777 15.086C14.9487 15.176 15.0042 15.2905 15.0442 15.4295C15.0852 15.5675 15.1057 15.731 15.1057 15.92ZM14.7727 15.92C14.7727 15.76 14.7597 15.627 14.7337 15.521C14.7087 15.414 14.6752 15.3285 14.6332 15.2645C14.5912 15.2005 14.5427 15.155 14.4877 15.128C14.4327 15.101 14.3757 15.0875 14.3167 15.0875C14.2567 15.0875 14.1992 15.101 14.1442 15.128C14.0902 15.155 14.0422 15.2005 14.0002 15.2645C13.9582 15.3285 13.9247 15.414 13.8997 15.521C13.8747 15.627 13.8622 15.76 13.8622 15.92C13.8622 16.08 13.8747 16.2135 13.8997 16.3205C13.9247 16.4265 13.9582 16.5115 14.0002 16.5755C14.0422 16.6395 14.0902 16.685 14.1442 16.712C14.1992 16.739 14.2567 16.7525 14.3167 16.7525C14.3757 16.7525 14.4327 16.739 14.4877 16.712C14.5427 16.685 14.5912 16.6395 14.6332 16.5755C14.6752 16.5115 14.7087 16.4265 14.7337 16.3205C14.7597 16.2135 14.7727 16.08 14.7727 15.92ZM16.846 15.92C16.846 16.109 16.8255 16.2725 16.7845 16.4105C16.7445 16.5485 16.689 16.663 16.618 16.754C16.547 16.845 16.4635 16.9125 16.3675 16.9565C16.2715 17.0005 16.168 17.0225 16.057 17.0225C15.946 17.0225 15.8425 17.0005 15.7465 16.9565C15.6505 16.9125 15.567 16.845 15.496 16.754C15.426 16.663 15.371 16.5485 15.331 16.4105C15.291 16.2725 15.271 16.109 15.271 15.92C15.271 15.731 15.291 15.5675 15.331 15.4295C15.371 15.2905 15.426 15.176 15.496 15.086C15.567 14.995 15.6505 14.9275 15.7465 14.8835C15.8425 14.8385 15.946 14.816 16.057 14.816C16.168 14.816 16.2715 14.8385 16.3675 14.8835C16.4635 14.9275 16.547 14.995 16.618 15.086C16.689 15.176 16.7445 15.2905 16.7845 15.4295C16.8255 15.5675 16.846 15.731 16.846 15.92ZM16.513 15.92C16.513 15.76 16.5 15.627 16.474 15.521C16.449 15.414 16.4155 15.3285 16.3735 15.2645C16.3315 15.2005 16.283 15.155 16.228 15.128C16.173 15.101 16.116 15.0875 16.057 15.0875C15.997 15.0875 15.9395 15.101 15.8845 15.128C15.8305 15.155 15.7825 15.2005 15.7405 15.2645C15.6985 15.3285 15.665 15.414 15.64 15.521C15.615 15.627 15.6025 15.76 15.6025 15.92C15.6025 16.08 15.615 16.2135 15.64 16.3205C15.665 16.4265 15.6985 16.5115 15.7405 16.5755C15.7825 16.6395 15.8305 16.685 15.8845 16.712C15.9395 16.739 15.997 16.7525 16.057 16.7525C16.116 16.7525 16.173 16.739 16.228 16.712C16.283 16.685 16.3315 16.6395 16.3735 16.5755C16.4155 16.5115 16.449 16.4265 16.474 16.3205C16.5 16.2135 16.513 16.08 16.513 15.92ZM18.5862 15.92C18.5862 16.109 18.5657 16.2725 18.5247 16.4105C18.4847 16.5485 18.4292 16.663 18.3582 16.754C18.2872 16.845 18.2037 16.9125 18.1077 16.9565C18.0117 17.0005 17.9082 17.0225 17.7972 17.0225C17.6862 17.0225 17.5827 17.0005 17.4867 16.9565C17.3907 16.9125 17.3072 16.845 17.2362 16.754C17.1662 16.663 17.1112 16.5485 17.0712 16.4105C17.0312 16.2725 17.0112 16.109 17.0112 15.92C17.0112 15.731 17.0312 15.5675 17.0712 15.4295C17.1112 15.2905 17.1662 15.176 17.2362 15.086C17.3072 14.995 17.3907 14.9275 17.4867 14.8835C17.5827 14.8385 17.6862 14.816 17.7972 14.816C17.9082 14.816 18.0117 14.8385 18.1077 14.8835C18.2037 14.9275 18.2872 14.995 18.3582 15.086C18.4292 15.176 18.4847 15.2905 18.5247 15.4295C18.5657 15.5675 18.5862 15.731 18.5862 15.92ZM18.2532 15.92C18.2532 15.76 18.2402 15.627 18.2142 15.521C18.1892 15.414 18.1557 15.3285 18.1137 15.2645C18.0717 15.2005 18.0232 15.155 17.9682 15.128C17.9132 15.101 17.8562 15.0875 17.7972 15.0875C17.7372 15.0875 17.6797 15.101 17.6247 15.128C17.5707 15.155 17.5227 15.2005 17.4807 15.2645C17.4387 15.3285 17.4052 15.414 17.3802 15.521C17.3552 15.627 17.3427 15.76 17.3427 15.92C17.3427 16.08 17.3552 16.2135 17.3802 16.3205C17.4052 16.4265 17.4387 16.5115 17.4807 16.5755C17.5227 16.6395 17.5707 16.685 17.6247 16.712C17.6797 16.739 17.7372 16.7525 17.7972 16.7525C17.8562 16.7525 17.9132 16.739 17.9682 16.712C18.0232 16.685 18.0717 16.6395 18.1137 16.5755C18.1557 16.5115 18.1892 16.4265 18.2142 16.3205C18.2402 16.2135 18.2532 16.08 18.2532 15.92ZM21.0735 15.92C21.0735 16.109 21.053 16.2725 21.012 16.4105C20.972 16.5485 20.9165 16.663 20.8455 16.754C20.7745 16.845 20.691 16.9125 20.595 16.9565C20.499 17.0005 20.3955 17.0225 20.2845 17.0225C20.1735 17.0225 20.07 17.0005 19.974 16.9565C19.878 16.9125 19.7945 16.845 19.7235 16.754C19.6535 16.663 19.5985 16.5485 19.5585 16.4105C19.5185 16.2725 19.4985 16.109 19.4985 15.92C19.4985 15.731 19.5185 15.5675 19.5585 15.4295C19.5985 15.2905 19.6535 15.176 19.7235 15.086C19.7945 14.995 19.878 14.9275 19.974 14.8835C20.07 14.8385 20.1735 14.816 20.2845 14.816C20.3955 14.816 20.499 14.8385 20.595 14.8835C20.691 14.9275 20.7745 14.995 20.8455 15.086C20.9165 15.176 20.972 15.2905 21.012 15.4295C21.053 15.5675 21.0735 15.731 21.0735 15.92ZM20.7405 15.92C20.7405 15.76 20.7275 15.627 20.7015 15.521C20.6765 15.414 20.643 15.3285 20.601 15.2645C20.559 15.2005 20.5105 15.155 20.4555 15.128C20.4005 15.101 20.3435 15.0875 20.2845 15.0875C20.2245 15.0875 20.167 15.101 20.112 15.128C20.058 15.155 20.01 15.2005 19.968 15.2645C19.926 15.3285 19.8925 15.414 19.8675 15.521C19.8425 15.627 19.83 15.76 19.83 15.92C19.83 16.08 19.8425 16.2135 19.8675 16.3205C19.8925 16.4265 19.926 16.5115 19.968 16.5755C20.01 16.6395 20.058 16.685 20.112 16.712C20.167 16.739 20.2245 16.7525 20.2845 16.7525C20.3435 16.7525 20.4005 16.739 20.4555 16.712C20.5105 16.685 20.559 16.6395 20.601 16.5755C20.643 16.5115 20.6765 16.4265 20.7015 16.3205C20.7275 16.2135 20.7405 16.08 20.7405 15.92ZM22.8138 15.92C22.8138 16.109 22.7933 16.2725 22.7523 16.4105C22.7123 16.5485 22.6568 16.663 22.5858 16.754C22.5148 16.845 22.4313 16.9125 22.3353 16.9565C22.2393 17.0005 22.1358 17.0225 22.0248 17.0225C21.9138 17.0225 21.8103 17.0005 21.7143 16.9565C21.6183 16.9125 21.5348 16.845 21.4638 16.754C21.3938 16.663 21.3388 16.5485 21.2988 16.4105C21.2588 16.2725 21.2388 16.109 21.2388 15.92C21.2388 15.731 21.2588 15.5675 21.2988 15.4295C21.3388 15.2905 21.3938 15.176 21.4638 15.086C21.5348 14.995 21.6183 14.9275 21.7143 14.8835C21.8103 14.8385 21.9138 14.816 22.0248 14.816C22.1358 14.816 22.2393 14.8385 22.3353 14.8835C22.4313 14.9275 22.5148 14.995 22.5858 15.086C22.6568 15.176 22.7123 15.2905 22.7523 15.4295C22.7933 15.5675 22.8138 15.731 22.8138 15.92ZM22.4808 15.92C22.4808 15.76 22.4678 15.627 22.4418 15.521C22.4168 15.414 22.3833 15.3285 22.3413 15.2645C22.2993 15.2005 22.2508 15.155 22.1958 15.128C22.1408 15.101 22.0838 15.0875 22.0248 15.0875C21.9648 15.0875 21.9073 15.101 21.8523 15.128C21.7983 15.155 21.7503 15.2005 21.7083 15.2645C21.6663 15.3285 21.6328 15.414 21.6078 15.521C21.5828 15.627 21.5703 15.76 21.5703 15.92C21.5703 16.08 21.5828 16.2135 21.6078 16.3205C21.6328 16.4265 21.6663 16.5115 21.7083 16.5755C21.7503 16.6395 21.7983 16.685 21.8523 16.712C21.9073 16.739 21.9648 16.7525 22.0248 16.7525C22.0838 16.7525 22.1408 16.739 22.1958 16.712C22.2508 16.685 22.2993 16.6395 22.3413 16.5755C22.3833 16.5115 22.4168 16.4265 22.4418 16.3205C22.4678 16.2135 22.4808 16.08 22.4808 15.92ZM24.554 15.92C24.554 16.109 24.5335 16.2725 24.4925 16.4105C24.4525 16.5485 24.397 16.663 24.326 16.754C24.255 16.845 24.1715 16.9125 24.0755 16.9565C23.9795 17.0005 23.876 17.0225 23.765 17.0225C23.654 17.0225 23.5505 17.0005 23.4545 16.9565C23.3585 16.9125 23.275 16.845 23.204 16.754C23.134 16.663 23.079 16.5485 23.039 16.4105C22.999 16.2725 22.979 16.109 22.979 15.92C22.979 15.731 22.999 15.5675 23.039 15.4295C23.079 15.2905 23.134 15.176 23.204 15.086C23.275 14.995 23.3585 14.9275 23.4545 14.8835C23.5505 14.8385 23.654 14.816 23.765 14.816C23.876 14.816 23.9795 14.8385 24.0755 14.8835C24.1715 14.9275 24.255 14.995 24.326 15.086C24.397 15.176 24.4525 15.2905 24.4925 15.4295C24.5335 15.5675 24.554 15.731 24.554 15.92ZM24.221 15.92C24.221 15.76 24.208 15.627 24.182 15.521C24.157 15.414 24.1235 15.3285 24.0815 15.2645C24.0395 15.2005 23.991 15.155 23.936 15.128C23.881 15.101 23.824 15.0875 23.765 15.0875C23.705 15.0875 23.6475 15.101 23.5925 15.128C23.5385 15.155 23.4905 15.2005 23.4485 15.2645C23.4065 15.3285 23.373 15.414 23.348 15.521C23.323 15.627 23.3105 15.76 23.3105 15.92C23.3105 16.08 23.323 16.2135 23.348 16.3205C23.373 16.4265 23.4065 16.5115 23.4485 16.5755C23.4905 16.6395 23.5385 16.685 23.5925 16.712C23.6475 16.739 23.705 16.7525 23.765 16.7525C23.824 16.7525 23.881 16.739 23.936 16.712C23.991 16.685 24.0395 16.6395 24.0815 16.5755C24.1235 16.5115 24.157 16.4265 24.182 16.3205C24.208 16.2135 24.221 16.08 24.221 15.92ZM26.2942 15.92C26.2942 16.109 26.2737 16.2725 26.2327 16.4105C26.1927 16.5485 26.1372 16.663 26.0662 16.754C25.9952 16.845 25.9117 16.9125 25.8157 16.9565C25.7197 17.0005 25.6162 17.0225 25.5052 17.0225C25.3942 17.0225 25.2907 17.0005 25.1947 16.9565C25.0987 16.9125 25.0152 16.845 24.9442 16.754C24.8742 16.663 24.8192 16.5485 24.7792 16.4105C24.7392 16.2725 24.7192 16.109 24.7192 15.92C24.7192 15.731 24.7392 15.5675 24.7792 15.4295C24.8192 15.2905 24.8742 15.176 24.9442 15.086C25.0152 14.995 25.0987 14.9275 25.1947 14.8835C25.2907 14.8385 25.3942 14.816 25.5052 14.816C25.6162 14.816 25.7197 14.8385 25.8157 14.8835C25.9117 14.9275 25.9952 14.995 26.0662 15.086C26.1372 15.176 26.1927 15.2905 26.2327 15.4295C26.2737 15.5675 26.2942 15.731 26.2942 15.92ZM25.9612 15.92C25.9612 15.76 25.9482 15.627 25.9222 15.521C25.8972 15.414 25.8637 15.3285 25.8217 15.2645C25.7797 15.2005 25.7312 15.155 25.6762 15.128C25.6212 15.101 25.5642 15.0875 25.5052 15.0875C25.4452 15.0875 25.3877 15.101 25.3327 15.128C25.2787 15.155 25.2307 15.2005 25.1887 15.2645C25.1467 15.3285 25.1132 15.414 25.0882 15.521C25.0632 15.627 25.0507 15.76 25.0507 15.92C25.0507 16.08 25.0632 16.2135 25.0882 16.3205C25.1132 16.4265 25.1467 16.5115 25.1887 16.5755C25.2307 16.6395 25.2787 16.685 25.3327 16.712C25.3877 16.739 25.4452 16.7525 25.5052 16.7525C25.5642 16.7525 25.6212 16.739 25.6762 16.712C25.7312 16.685 25.7797 16.6395 25.8217 16.5755C25.8637 16.5115 25.8972 16.4265 25.9222 16.3205C25.9482 16.2135 25.9612 16.08 25.9612 15.92ZM28.7815 15.92C28.7815 16.109 28.761 16.2725 28.72 16.4105C28.68 16.5485 28.6245 16.663 28.5535 16.754C28.4825 16.845 28.399 16.9125 28.303 16.9565C28.207 17.0005 28.1035 17.0225 27.9925 17.0225C27.8815 17.0225 27.778 17.0005 27.682 16.9565C27.586 16.9125 27.5025 16.845 27.4315 16.754C27.3615 16.663 27.3065 16.5485 27.2665 16.4105C27.2265 16.2725 27.2065 16.109 27.2065 15.92C27.2065 15.731 27.2265 15.5675 27.2665 15.4295C27.3065 15.2905 27.3615 15.176 27.4315 15.086C27.5025 14.995 27.586 14.9275 27.682 14.8835C27.778 14.8385 27.8815 14.816 27.9925 14.816C28.1035 14.816 28.207 14.8385 28.303 14.8835C28.399 14.9275 28.4825 14.995 28.5535 15.086C28.6245 15.176 28.68 15.2905 28.72 15.4295C28.761 15.5675 28.7815 15.731 28.7815 15.92ZM28.4485 15.92C28.4485 15.76 28.4355 15.627 28.4095 15.521C28.3845 15.414 28.351 15.3285 28.309 15.2645C28.267 15.2005 28.2185 15.155 28.1635 15.128C28.1085 15.101 28.0515 15.0875 27.9925 15.0875C27.9325 15.0875 27.875 15.101 27.82 15.128C27.766 15.155 27.718 15.2005 27.676 15.2645C27.634 15.3285 27.6005 15.414 27.5755 15.521C27.5505 15.627 27.538 15.76 27.538 15.92C27.538 16.08 27.5505 16.2135 27.5755 16.3205C27.6005 16.4265 27.634 16.5115 27.676 16.5755C27.718 16.6395 27.766 16.685 27.82 16.712C27.875 16.739 27.9325 16.7525 27.9925 16.7525C28.0515 16.7525 28.1085 16.739 28.1635 16.712C28.2185 16.685 28.267 16.6395 28.309 16.5755C28.351 16.5115 28.3845 16.4265 28.4095 16.3205C28.4355 16.2135 28.4485 16.08 28.4485 15.92ZM30.5218 15.92C30.5218 16.109 30.5013 16.2725 30.4603 16.4105C30.4203 16.5485 30.3648 16.663 30.2938 16.754C30.2228 16.845 30.1393 16.9125 30.0433 16.9565C29.9473 17.0005 29.8438 17.0225 29.7328 17.0225C29.6218 17.0225 29.5183 17.0005 29.4223 16.9565C29.3263 16.9125 29.2428 16.845 29.1718 16.754C29.1018 16.663 29.0468 16.5485 29.0068 16.4105C28.9668 16.2725 28.9468 16.109 28.9468 15.92C28.9468 15.731 28.9668 15.5675 29.0068 15.4295C29.0468 15.2905 29.1018 15.176 29.1718 15.086C29.2428 14.995 29.3263 14.9275 29.4223 14.8835C29.5183 14.8385 29.6218 14.816 29.7328 14.816C29.8438 14.816 29.9473 14.8385 30.0433 14.8835C30.1393 14.9275 30.2228 14.995 30.2938 15.086C30.3648 15.176 30.4203 15.2905 30.4603 15.4295C30.5013 15.5675 30.5218 15.731 30.5218 15.92ZM30.1888 15.92C30.1888 15.76 30.1758 15.627 30.1498 15.521C30.1248 15.414 30.0913 15.3285 30.0493 15.2645C30.0073 15.2005 29.9588 15.155 29.9038 15.128C29.8488 15.101 29.7918 15.0875 29.7328 15.0875C29.6728 15.0875 29.6153 15.101 29.5603 15.128C29.5063 15.155 29.4583 15.2005 29.4163 15.2645C29.3743 15.3285 29.3408 15.414 29.3158 15.521C29.2908 15.627 29.2783 15.76 29.2783 15.92C29.2783 16.08 29.2908 16.2135 29.3158 16.3205C29.3408 16.4265 29.3743 16.5115 29.4163 16.5755C29.4583 16.6395 29.5063 16.685 29.5603 16.712C29.6153 16.739 29.6728 16.7525 29.7328 16.7525C29.7918 16.7525 29.8488 16.739 29.9038 16.712C29.9588 16.685 30.0073 16.6395 30.0493 16.5755C30.0913 16.5115 30.1248 16.4265 30.1498 16.3205C30.1758 16.2135 30.1888 16.08 30.1888 15.92ZM32.262 15.92C32.262 16.109 32.2415 16.2725 32.2005 16.4105C32.1605 16.5485 32.105 16.663 32.034 16.754C31.963 16.845 31.8795 16.9125 31.7835 16.9565C31.6875 17.0005 31.584 17.0225 31.473 17.0225C31.362 17.0225 31.2585 17.0005 31.1625 16.9565C31.0665 16.9125 30.983 16.845 30.912 16.754C30.842 16.663 30.787 16.5485 30.747 16.4105C30.707 16.2725 30.687 16.109 30.687 15.92C30.687 15.731 30.707 15.5675 30.747 15.4295C30.787 15.2905 30.842 15.176 30.912 15.086C30.983 14.995 31.0665 14.9275 31.1625 14.8835C31.2585 14.8385 31.362 14.816 31.473 14.816C31.584 14.816 31.6875 14.8385 31.7835 14.8835C31.8795 14.9275 31.963 14.995 32.034 15.086C32.105 15.176 32.1605 15.2905 32.2005 15.4295C32.2415 15.5675 32.262 15.731 32.262 15.92ZM31.929 15.92C31.929 15.76 31.916 15.627 31.89 15.521C31.865 15.414 31.8315 15.3285 31.7895 15.2645C31.7475 15.2005 31.699 15.155 31.644 15.128C31.589 15.101 31.532 15.0875 31.473 15.0875C31.413 15.0875 31.3555 15.101 31.3005 15.128C31.2465 15.155 31.1985 15.2005 31.1565 15.2645C31.1145 15.3285 31.081 15.414 31.056 15.521C31.031 15.627 31.0185 15.76 31.0185 15.92C31.0185 16.08 31.031 16.2135 31.056 16.3205C31.081 16.4265 31.1145 16.5115 31.1565 16.5755C31.1985 16.6395 31.2465 16.685 31.3005 16.712C31.3555 16.739 31.413 16.7525 31.473 16.7525C31.532 16.7525 31.589 16.739 31.644 16.712C31.699 16.685 31.7475 16.6395 31.7895 16.5755C31.8315 16.5115 31.865 16.4265 31.89 16.3205C31.916 16.2135 31.929 16.08 31.929 15.92ZM34.0022 15.92C34.0022 16.109 33.9817 16.2725 33.9407 16.4105C33.9007 16.5485 33.8452 16.663 33.7742 16.754C33.7032 16.845 33.6197 16.9125 33.5237 16.9565C33.4277 17.0005 33.3242 17.0225 33.2132 17.0225C33.1022 17.0225 32.9987 17.0005 32.9027 16.9565C32.8067 16.9125 32.7232 16.845 32.6522 16.754C32.5822 16.663 32.5272 16.5485 32.4872 16.4105C32.4472 16.2725 32.4272 16.109 32.4272 15.92C32.4272 15.731 32.4472 15.5675 32.4872 15.4295C32.5272 15.2905 32.5822 15.176 32.6522 15.086C32.7232 14.995 32.8067 14.9275 32.9027 14.8835C32.9987 14.8385 33.1022 14.816 33.2132 14.816C33.3242 14.816 33.4277 14.8385 33.5237 14.8835C33.6197 14.9275 33.7032 14.995 33.7742 15.086C33.8452 15.176 33.9007 15.2905 33.9407 15.4295C33.9817 15.5675 34.0022 15.731 34.0022 15.92ZM33.6692 15.92C33.6692 15.76 33.6562 15.627 33.6302 15.521C33.6052 15.414 33.5717 15.3285 33.5297 15.2645C33.4877 15.2005 33.4392 15.155 33.3842 15.128C33.3292 15.101 33.2722 15.0875 33.2132 15.0875C33.1532 15.0875 33.0957 15.101 33.0407 15.128C32.9867 15.155 32.9387 15.2005 32.8967 15.2645C32.8547 15.3285 32.8212 15.414 32.7962 15.521C32.7712 15.627 32.7587 15.76 32.7587 15.92C32.7587 16.08 32.7712 16.2135 32.7962 16.3205C32.8212 16.4265 32.8547 16.5115 32.8967 16.5755C32.9387 16.6395 32.9867 16.685 33.0407 16.712C33.0957 16.739 33.1532 16.7525 33.2132 16.7525C33.2722 16.7525 33.3292 16.739 33.3842 16.712C33.4392 16.685 33.4877 16.6395 33.5297 16.5755C33.5717 16.5115 33.6052 16.4265 33.6302 16.3205C33.6562 16.2135 33.6692 16.08 33.6692 15.92Z" fill="#BDBDBD"/>
<circle cx="31.5" cy="16.5" r="9" fill="white" stroke="#FF0000"/>
<path d="M29.081 18.511V19H26.726V18.511H27.626V15.805C27.626 15.709 27.629 15.611 27.635 15.511L26.942 16.096C26.912 16.12 26.881 16.136 26.849 16.144C26.819 16.15 26.79 16.15 26.762 16.144C26.736 16.138 26.712 16.129 26.69 16.117C26.67 16.103 26.654 16.088 26.642 16.072L26.441 15.79L27.743 14.671H28.268V18.511H29.081ZM32.4325 18.391C32.5025 18.391 32.5575 18.412 32.5975 18.454C32.6375 18.494 32.6575 18.546 32.6575 18.61V19H29.7355V18.781C29.7355 18.737 29.7445 18.691 29.7625 18.643C29.7805 18.595 29.8095 18.551 29.8495 18.511L31.1935 17.164C31.3075 17.05 31.4085 16.941 31.4965 16.837C31.5865 16.733 31.6625 16.629 31.7245 16.525C31.7885 16.421 31.8365 16.316 31.8685 16.21C31.9025 16.102 31.9195 15.989 31.9195 15.871C31.9195 15.757 31.9015 15.657 31.8655 15.571C31.8315 15.483 31.7835 15.411 31.7215 15.355C31.6615 15.297 31.5885 15.254 31.5025 15.226C31.4185 15.196 31.3255 15.181 31.2235 15.181C31.1255 15.181 31.0345 15.195 30.9505 15.223C30.8685 15.251 30.7945 15.29 30.7285 15.34C30.6645 15.39 30.6105 15.45 30.5665 15.52C30.5245 15.588 30.4935 15.663 30.4735 15.745C30.4435 15.827 30.4045 15.882 30.3565 15.91C30.3105 15.938 30.2425 15.944 30.1525 15.928L29.8135 15.868C29.8435 15.664 29.8995 15.485 29.9815 15.331C30.0655 15.177 30.1705 15.049 30.2965 14.947C30.4225 14.843 30.5665 14.765 30.7285 14.713C30.8925 14.659 31.0695 14.632 31.2595 14.632C31.4515 14.632 31.6275 14.661 31.7875 14.719C31.9495 14.775 32.0885 14.856 32.2045 14.962C32.3225 15.066 32.4145 15.193 32.4805 15.343C32.5465 15.493 32.5795 15.662 32.5795 15.85C32.5795 16.01 32.5555 16.158 32.5075 16.294C32.4615 16.43 32.3985 16.56 32.3185 16.684C32.2385 16.808 32.1445 16.929 32.0365 17.047C31.9305 17.163 31.8185 17.281 31.7005 17.401L30.6565 18.469C30.7425 18.445 30.8285 18.426 30.9145 18.412C31.0025 18.398 31.0855 18.391 31.1635 18.391H32.4325ZM33.3149 15.868C33.3449 15.664 33.4009 15.485 33.4829 15.331C33.5669 15.177 33.6719 15.049 33.7979 14.947C33.9239 14.843 34.0679 14.765 34.2299 14.713C34.3939 14.659 34.5709 14.632 34.7609 14.632C34.9529 14.632 35.1269 14.66 35.2829 14.716C35.4409 14.77 35.5759 14.846 35.6879 14.944C35.8019 15.042 35.8889 15.159 35.9489 15.295C36.0109 15.431 36.0419 15.58 36.0419 15.742C36.0419 15.88 36.0249 16.002 35.9909 16.108C35.9589 16.212 35.9119 16.304 35.8499 16.384C35.7899 16.464 35.7159 16.531 35.6279 16.585C35.5399 16.639 35.4409 16.684 35.3309 16.72C35.5989 16.798 35.7999 16.923 35.9339 17.095C36.0679 17.265 36.1349 17.479 36.1349 17.737C36.1349 17.945 36.0959 18.13 36.0179 18.292C35.9399 18.454 35.8339 18.591 35.6999 18.703C35.5679 18.815 35.4129 18.901 35.2349 18.961C35.0589 19.019 34.8719 19.048 34.6739 19.048C34.4519 19.048 34.2599 19.022 34.0979 18.97C33.9359 18.916 33.7959 18.84 33.6779 18.742C33.5619 18.642 33.4649 18.522 33.3869 18.382C33.3089 18.242 33.2429 18.085 33.1889 17.911L33.4679 17.794C33.5419 17.762 33.6119 17.753 33.6779 17.767C33.7459 17.781 33.7949 17.818 33.8249 17.878C33.8569 17.942 33.8929 18.011 33.9329 18.085C33.9729 18.157 34.0239 18.224 34.0859 18.286C34.1499 18.346 34.2279 18.397 34.3199 18.439C34.4139 18.479 34.5289 18.499 34.6649 18.499C34.8029 18.499 34.9229 18.477 35.0249 18.433C35.1289 18.387 35.2149 18.329 35.2829 18.259C35.3529 18.187 35.4049 18.107 35.4389 18.019C35.4729 17.931 35.4899 17.844 35.4899 17.758C35.4899 17.65 35.4769 17.551 35.4509 17.461C35.4249 17.369 35.3739 17.291 35.2979 17.227C35.2239 17.163 35.1179 17.113 34.9799 17.077C34.8439 17.039 34.6649 17.02 34.4429 17.02V16.555C34.6249 16.553 34.7779 16.535 34.9019 16.501C35.0279 16.465 35.1279 16.417 35.2019 16.357C35.2779 16.295 35.3319 16.221 35.3639 16.135C35.3979 16.049 35.4149 15.955 35.4149 15.853C35.4149 15.743 35.3979 15.646 35.3639 15.562C35.3299 15.478 35.2819 15.408 35.2199 15.352C35.1599 15.294 35.0879 15.251 35.0039 15.223C34.9199 15.195 34.8269 15.181 34.7249 15.181C34.6269 15.181 34.5359 15.195 34.4519 15.223C34.3699 15.251 34.2959 15.29 34.2299 15.34C34.1659 15.39 34.1119 15.45 34.0679 15.52C34.0239 15.588 33.9919 15.663 33.9719 15.745C33.9439 15.827 33.9059 15.882 33.8579 15.91C33.8119 15.938 33.7439 15.944 33.6539 15.928L33.3149 15.868Z" fill="#A3A3A3"/>
</svg>
