<svg width="27" height="28" viewBox="0 0 27 28" fill="none" xmlns="http://www.w3.org/2000/svg">
<path d="M2.20835 13.3085L11.4949 4.02189C12.3699 3.14605 13.5487 2.64089 14.7863 2.61134C16.024 2.58179 17.2255 3.03011 18.1413 3.8632C19.0571 4.69628 19.6168 5.85011 19.7041 7.08504C19.7915 8.31998 19.3998 9.54111 18.6105 10.4948C19.5703 10.5193 20.5211 10.6875 21.4311 10.9938C22.2832 9.42273 22.5416 7.59752 22.1591 5.85163C21.7767 4.10574 20.7789 2.55571 19.348 1.4847C17.9172 0.413689 16.1488 -0.106819 14.3659 0.0182632C12.583 0.143345 10.9046 0.905668 9.63728 2.16597L0.352435 11.4508C0.12048 11.6997 -0.00579776 12.029 0.000204584 12.3692C0.00620693 12.7094 0.144021 13.034 0.384612 13.2746C0.625204 13.5151 0.949789 13.653 1.28998 13.659C1.63018 13.665 1.95942 13.5387 2.20835 13.3067V13.3085ZM7.16155 21.9753L8.72508 20.41C8.75558 21.4714 8.96207 22.5205 9.33613 23.5143L9.01747 23.8312C8.11245 24.7242 6.89098 25.2229 5.61959 25.2187C4.3482 25.2144 3.1301 24.7075 2.23109 23.8085C1.33207 22.9094 0.825128 21.6913 0.820869 20.4199C0.816609 19.1486 1.31538 17.9271 2.20835 17.0221L12.113 7.11742C12.2332 6.9884 12.3782 6.88493 12.5393 6.81315C12.7003 6.74138 12.8742 6.70279 13.0506 6.69968C13.2269 6.69657 13.402 6.729 13.5655 6.79505C13.729 6.86109 13.8776 6.95939 14.0023 7.08409C14.1269 7.20878 14.2252 7.35731 14.2913 7.52082C14.3573 7.68433 14.3898 7.85947 14.3867 8.03579C14.3836 8.21211 14.345 8.38599 14.2732 8.54707C14.2014 8.70815 14.0979 8.85312 13.9689 8.97334L4.06602 18.8797C3.65553 19.2902 3.42492 19.847 3.42492 20.4275C3.42492 21.008 3.65553 21.5648 4.06602 21.9753C4.47651 22.3858 5.03326 22.6164 5.61379 22.6164C6.19431 22.6164 6.75106 22.3858 7.16155 21.9753ZM26.2302 20.1211C26.2302 22.2107 25.4001 24.2147 23.9226 25.6923C22.445 27.1699 20.441 28 18.3513 28C16.2617 28 14.2577 27.1699 12.7801 25.6923C11.3025 24.2147 10.4724 22.2107 10.4724 20.1211C10.4724 18.0315 11.3025 16.0275 12.7801 14.5499C14.2577 13.0723 16.2617 12.2422 18.3513 12.2422C20.441 12.2422 22.445 13.0723 23.9226 14.5499C25.4001 16.0275 26.2302 18.0315 26.2302 20.1211ZM22.4711 20.7409L22.4764 20.7357C22.6368 20.5733 22.7273 20.3546 22.7285 20.1264V20.1159C22.7271 19.8859 22.6352 19.6658 22.4729 19.503L18.9711 16.0013C18.807 15.8369 18.5843 15.7445 18.352 15.7443C18.1196 15.7442 17.8968 15.8363 17.7324 16.0004C17.568 16.1646 17.4756 16.3873 17.4754 16.6196C17.4753 16.8519 17.5674 17.0748 17.7315 17.2392L19.7398 19.2457H14.8496C14.6174 19.2457 14.3948 19.3379 14.2306 19.5021C14.0664 19.6663 13.9742 19.8889 13.9742 20.1211C13.9742 20.3533 14.0664 20.576 14.2306 20.7401C14.3948 20.9043 14.6174 20.9965 14.8496 20.9965H19.7398L17.7315 23.003C17.5671 23.1674 17.4748 23.3904 17.4748 23.6228C17.4748 23.8553 17.5671 24.0783 17.7315 24.2426C17.8959 24.407 18.1189 24.4994 18.3513 24.4994C18.5838 24.4994 18.8068 24.407 18.9711 24.2426L22.4729 20.7409H22.4711Z" fill="white"/>
</svg>
