<svg width="8" height="8" viewBox="0 0 8 8" fill="none" xmlns="http://www.w3.org/2000/svg">
<path d="M1.01786 0.405493C0.923557 0.314414 0.797256 0.264016 0.666158 0.265156C0.53506 0.266295 0.409654 0.318879 0.31695 0.411583C0.224246 0.504288 0.171661 0.629694 0.170522 0.760792C0.169383 0.89189 0.21978 1.01819 0.310859 1.11249L3.19836 3.99999L0.310359 6.88749C0.262604 6.93362 0.224513 6.98879 0.198308 7.04979C0.172104 7.11079 0.158311 7.1764 0.157734 7.24279C0.157157 7.30918 0.169808 7.37502 0.194948 7.43647C0.220088 7.49792 0.257215 7.55374 0.304161 7.60069C0.351108 7.64764 0.406934 7.68476 0.468382 7.7099C0.52983 7.73504 0.59567 7.74769 0.662059 7.74712C0.728449 7.74654 0.794059 7.73275 0.855061 7.70654C0.916063 7.68034 0.971235 7.64225 1.01736 7.59449L3.90536 4.70699L6.79286 7.59449C6.88716 7.68557 7.01346 7.73597 7.14456 7.73483C7.27566 7.73369 7.40106 7.68111 7.49377 7.5884C7.58647 7.4957 7.63905 7.37029 7.64019 7.23919C7.64133 7.10809 7.59093 6.98179 7.49986 6.88749L4.61236 3.99999L7.49986 1.11249C7.59093 1.01819 7.64133 0.89189 7.64019 0.760792C7.63905 0.629694 7.58647 0.504288 7.49377 0.411583C7.40106 0.318879 7.27566 0.266295 7.14456 0.265156C7.01346 0.264016 6.88716 0.314414 6.79286 0.405493L3.90536 3.29299L1.01786 0.404993V0.405493Z" fill="#E60023"/>
</svg>
