<svg width="31" height="24" viewBox="0 0 31 24" fill="none" xmlns="http://www.w3.org/2000/svg">
<path fill-rule="evenodd" clip-rule="evenodd" d="M25.7666 1.01617C26.274 0.513277 26.9588 0.230253 27.6731 0.228282C28.3875 0.226311 29.0739 0.505552 29.584 1.00563C30.094 1.50572 30.3868 2.18646 30.399 2.90069C30.4112 3.61492 30.1418 4.30524 29.649 4.82242L15.178 22.9112C14.9293 23.179 14.6291 23.394 14.2954 23.5432C13.9618 23.6925 13.6014 23.7729 13.2359 23.7796C12.8705 23.7864 12.5074 23.7194 12.1684 23.5826C11.8294 23.4459 11.5215 23.2422 11.263 22.9837L1.67489 13.3919C1.40777 13.143 1.19353 12.8429 1.04493 12.5094C0.896337 12.1759 0.816434 11.8159 0.809993 11.4508C0.803553 11.0858 0.870705 10.7232 1.00744 10.3846C1.14418 10.0461 1.34771 9.73857 1.60587 9.4804C1.86404 9.22224 2.17157 9.01871 2.5101 8.88197C2.84863 8.74523 3.21124 8.67808 3.57628 8.68452C3.94133 8.69096 4.30134 8.77087 4.63484 8.91946C4.96834 9.06806 5.26849 9.2823 5.51739 9.54942L13.1081 17.1365L25.6978 1.09592C25.7202 1.06784 25.7444 1.0412 25.7703 1.01617H25.7666Z" fill="#5A8A4A"/>
</svg>
