<svg width="163" height="55" viewBox="0 0 163 55" fill="none" xmlns="http://www.w3.org/2000/svg">
<g clip-path="url(#clip0)">
<path d="M79.63 52.5545C78.0359 53.3316 76.2825 53.7342 74.5058 53.731C71.3392 53.731 68.6516 52.6477 66.4429 50.481C64.2343 48.3144 63.1301 45.6423 63.1304 42.4647C63.1304 39.2869 64.2346 36.6144 66.4429 34.4474C68.6513 32.2803 71.3389 31.1971 74.5058 31.1975C77.6714 31.1975 80.3582 32.2808 82.5664 34.4474C84.7746 36.614 85.8789 39.2864 85.8793 42.4647C85.9146 45.0453 85.0296 47.5554 83.3801 49.553L85.567 51.8424L81.9727 55.0001L79.63 52.5545ZM69.9596 37.8231C68.7401 39.0189 68.1303 40.5665 68.1302 42.4657C68.13 44.365 68.7398 45.9125 69.9596 47.1085C70.5546 47.6977 71.2645 48.1608 72.0461 48.4693C72.8277 48.7779 73.6648 48.9255 74.5058 48.9031C75.02 48.8979 75.5325 48.8464 76.0372 48.7491L72.8808 45.4378L76.4749 42.2805L79.974 45.9638C80.5774 44.8957 80.8898 43.6905 80.8805 42.4666C80.8805 40.5672 80.2712 39.0196 79.0528 37.8239C78.4576 37.2347 77.7478 36.7716 76.9663 36.4628C76.1847 36.1541 75.3478 36.0062 74.5067 36.028C73.6655 36.0055 72.8285 36.153 72.0467 36.4614C71.265 36.7699 70.5548 37.233 69.9596 37.8222V37.8231ZM111.379 50.482C109.169 48.3151 108.065 45.643 108.066 42.4657C108.067 39.2884 109.172 36.6159 111.379 34.4482C113.586 32.2824 116.273 31.1991 119.44 31.1984C122.607 31.1976 125.294 32.2809 127.502 34.4482C129.71 36.6151 130.814 39.2877 130.814 42.4657C130.814 45.6437 129.71 48.3158 127.502 50.482C125.294 52.6489 122.606 53.7322 119.44 53.7319C116.273 53.7316 113.586 52.648 111.379 50.481V50.482ZM114.894 37.8231C113.674 39.0189 113.065 40.5665 113.066 42.4657C113.066 44.365 113.671 45.9125 114.878 47.1085C115.477 47.697 116.19 48.1594 116.974 48.4678C117.758 48.7763 118.597 48.9244 119.44 48.9031C120.281 48.9253 121.118 48.7776 121.9 48.469C122.681 48.1605 123.391 47.6976 123.986 47.1085C125.206 45.9113 125.815 44.3638 125.814 42.4657C125.813 40.5676 125.204 39.0201 123.986 37.8231C123.391 37.2338 122.681 36.7706 121.9 36.4619C121.118 36.1531 120.281 36.0052 119.44 36.0272C118.599 36.0051 117.762 36.1528 116.98 36.4614C116.199 36.77 115.489 37.233 114.894 37.8222V37.8231ZM90.9107 51.719C89.3274 50.3779 88.5359 48.5726 88.5359 46.3031V31.6306H93.5354V45.8698C93.5354 47.8915 94.6812 48.9024 96.9727 48.9024C99.2642 48.9024 100.41 47.8915 100.41 45.8698V31.6306H105.41V46.3031C105.41 48.5721 104.618 50.3775 103.035 51.719C101.451 53.0605 99.4305 53.7312 96.9721 53.731C94.5142 53.7315 92.4938 53.0608 90.9109 51.719H90.9107ZM149.25 53.2976V31.6306H162.843V36.3985H154.25V39.9882H162.063V44.6934H154.25V48.5315H163V53.2978L149.25 53.2976ZM136.439 53.2976V36.3985H130.814V31.6306H147.064V36.3985H141.438V53.2976H136.439ZM89.997 22.8015C87.3927 20.2093 86.0901 17.0573 86.0893 13.3454C86.0886 9.63353 87.3912 6.48163 89.997 3.88963C92.6028 1.29749 95.7912 0.00126977 99.5621 0.000976612C103.333 0.00068345 106.521 1.29691 109.127 3.88963C111.731 6.48294 113.033 9.63485 113.033 13.3454C113.033 17.056 111.731 20.2144 109.127 22.8206C106.522 25.4004 103.334 26.6904 99.5621 26.6904C95.79 26.6904 92.6017 25.3937 89.997 22.8005V22.8015ZM91.8208 5.65934C89.7378 7.76029 88.6959 10.3223 88.6952 13.3454C88.6945 16.3685 89.7363 18.9369 91.8208 21.0508C93.9056 23.1397 96.486 24.1843 99.5621 24.1843C102.638 24.1843 105.218 23.1334 107.302 21.0317C109.388 18.9304 110.43 16.3683 110.429 13.3454C110.429 10.3225 109.387 7.76043 107.302 5.65934C105.219 3.5584 102.639 2.50785 99.5621 2.50771C96.4853 2.50756 93.9049 3.55783 91.8208 5.65848V5.65934ZM147.275 26.2481V0.442974H162.346V2.8767H149.879V12.0188H161.415V14.4523H149.879V23.8157H162.533V26.2481H147.275ZM138.714 26.2481V4.35096L129.596 19.4659H129.224L120.105 4.35096V26.2481H117.501V0.442974H120.738L129.41 14.8212L138.082 0.442974H141.32V26.2477L138.714 26.2481ZM79.0179 26.2481V14.1944H64.8762V26.2481H62.2714V0.442974H64.8762V11.7608H79.0179V0.442974H81.6237V26.2477L79.0179 26.2481Z" fill="#C4C4C4"/>
<path d="M36.4013 18.9414H19.0885V36.0914H36.4013V18.9414Z" fill="#7095FA"/>
<path d="M54.8239 0.0322266H37.5111V17.1822H54.8239V0.0322266Z" fill="#E2E2E2"/>
<path d="M36.4013 37.8501H19.0885V55.0001H36.4013V37.8501Z" fill="#7095FA"/>
<path d="M55.4898 18.9414H19.0885V55.0003H55.4898V18.9414Z" fill="#C4C4C4"/>
<path d="M17.3128 37.8501H0V55.0001H17.3128V37.8501Z" fill="#E2E2E2"/>
</g>
<defs>
<clipPath id="clip0">
<rect width="163" height="55" fill="white"/>
</clipPath>
</defs>
</svg>
