<svg width="277" height="242" viewBox="0 0 277 242" fill="none" xmlns="http://www.w3.org/2000/svg">
<path d="M253 47.5L65.5 47.5L65.5 24C65.5 11.0213 76.0213 0.500002 89 0.500003L253 0.500017C265.979 0.500018 276.5 11.0213 276.5 24C276.5 36.9787 265.979 47.5 253 47.5Z" fill="white" stroke="#FC8267"/>
<path d="M2.5 240.5V96L65 47.5" stroke="#FC8267"/>
<circle cx="2.5" cy="239.5" r="2.5" fill="#FC8267"/>
<path d="M144.9 32C144.753 32 144.633 31.9533 144.54 31.86C144.447 31.7667 144.4 31.6467 144.4 31.5V18.5C144.4 18.3533 144.447 18.2333 144.54 18.14C144.647 18.0467 144.767 18 144.9 18H147.48C147.627 18 147.747 18.0467 147.84 18.14C147.947 18.2333 148 18.3533 148 18.5V23.32H152.92V18.5C152.92 18.3533 152.967 18.2333 153.06 18.14C153.153 18.0467 153.273 18 153.42 18H156C156.147 18 156.267 18.0467 156.36 18.14C156.453 18.2333 156.5 18.3533 156.5 18.5V31.5C156.5 31.6467 156.453 31.7667 156.36 31.86C156.267 31.9533 156.147 32 156 32H153.42C153.273 32 153.153 31.9533 153.06 31.86C152.967 31.7667 152.92 31.6467 152.92 31.5V26.52H148V31.5C148 31.6467 147.947 31.7667 147.84 31.86C147.747 31.9533 147.627 32 147.48 32H144.9ZM163.302 32C162.876 32 162.602 31.8 162.482 31.4L158.402 18.6L158.362 18.42C158.362 18.3133 158.402 18.22 158.482 18.14C158.576 18.0467 158.682 18 158.802 18H161.282C161.469 18 161.622 18.0533 161.742 18.16C161.876 18.2667 161.962 18.3867 162.002 18.52L164.842 27.76L167.662 18.52C167.702 18.3867 167.782 18.2667 167.902 18.16C168.036 18.0533 168.196 18 168.382 18H170.882C170.989 18 171.082 18.0467 171.162 18.14C171.256 18.22 171.302 18.3133 171.302 18.42L171.262 18.6L167.182 31.4C167.062 31.8 166.789 32 166.362 32H163.302ZM171.276 32C171.169 32 171.069 31.96 170.976 31.88C170.896 31.7867 170.856 31.6867 170.856 31.58C170.856 31.5 170.862 31.44 170.876 31.4L175.576 18.56C175.616 18.4 175.702 18.2667 175.836 18.16C175.969 18.0533 176.142 18 176.356 18H179.316C179.529 18 179.702 18.0533 179.836 18.16C179.969 18.2667 180.056 18.4 180.096 18.56L184.776 31.4L184.816 31.58C184.816 31.6867 184.769 31.7867 184.676 31.88C184.596 31.96 184.496 32 184.376 32H181.916C181.596 32 181.382 31.86 181.276 31.58L180.496 29.54H175.156L174.396 31.58C174.289 31.86 174.069 32 173.736 32H171.276ZM179.696 26.66L177.836 21.38L175.976 26.66H179.696ZM191.839 32.2C189.933 32.2 188.439 31.74 187.359 30.82C186.293 29.8867 185.726 28.54 185.659 26.78C185.646 26.42 185.639 25.8333 185.639 25.02C185.639 24.1933 185.646 23.5933 185.659 23.22C185.726 21.4867 186.306 20.1533 187.399 19.22C188.493 18.2733 189.973 17.8 191.839 17.8C193.013 17.8 194.066 18 194.999 18.4C195.933 18.7867 196.666 19.3467 197.199 20.08C197.746 20.8 198.026 21.6467 198.039 22.62V22.66C198.039 22.7667 197.993 22.86 197.899 22.94C197.819 23.0067 197.726 23.04 197.619 23.04H194.919C194.746 23.04 194.613 23.0067 194.519 22.94C194.426 22.86 194.346 22.72 194.279 22.52C194.093 21.84 193.799 21.3667 193.399 21.1C192.999 20.82 192.473 20.68 191.819 20.68C190.246 20.68 189.433 21.56 189.379 23.32C189.366 23.68 189.359 24.2333 189.359 24.98C189.359 25.7267 189.366 26.2933 189.379 26.68C189.433 28.44 190.246 29.32 191.819 29.32C192.473 29.32 193.006 29.18 193.419 28.9C193.833 28.6067 194.119 28.1333 194.279 27.48C194.333 27.28 194.406 27.1467 194.499 27.08C194.593 27 194.733 26.96 194.919 26.96H197.619C197.739 26.96 197.839 27 197.919 27.08C198.013 27.16 198.053 27.26 198.039 27.38C198.026 28.3533 197.746 29.2067 197.199 29.94C196.666 30.66 195.933 31.22 194.999 31.62C194.066 32.0067 193.013 32.2 191.839 32.2Z" fill="#FC8267"/>
</svg>
