<svg width="12" height="13" viewBox="0 0 12 13" fill="none" xmlns="http://www.w3.org/2000/svg">
<path d="M6.65695e-05 4.68677C-0.00158714 4.79044 0.0276047 4.89218 0.0837716 4.9785C0.139938 5.06481 0.220427 5.13163 0.314566 5.17008L5.11506 7.13452L7.03555 12.0454C7.07265 12.1404 7.13674 12.2218 7.21954 12.2791C7.30234 12.3365 7.40005 12.3671 7.50005 12.3671H7.50805C7.60932 12.3654 7.70771 12.3324 7.79021 12.2723C7.87271 12.2122 7.93543 12.1279 7.97005 12.0305L11.97 0.778859C12.0028 0.687324 12.0093 0.588125 11.9887 0.492943C11.9682 0.397762 11.9215 0.310562 11.8542 0.241613C11.7868 0.172665 11.7016 0.124839 11.6086 0.103768C11.5155 0.0826975 11.4186 0.0892596 11.329 0.122681L0.329066 4.2142C0.233849 4.24971 0.151415 4.31395 0.0926679 4.39843C0.0339211 4.4829 0.00163016 4.58363 6.65695e-05 4.68728V4.68677Z" fill="#444444"/>
</svg>
