<svg width="163" height="55" viewBox="0 0 163 55" fill="none" xmlns="http://www.w3.org/2000/svg">
<g clip-path="url(#clip0)">
<path d="M79.63 52.5542C78.0359 53.3313 76.2825 53.7339 74.5058 53.7307C71.3392 53.7307 68.6516 52.6474 66.4429 50.4807C64.2343 48.3141 63.1301 45.642 63.1304 42.4644C63.1304 39.2866 64.2346 36.6141 66.4429 34.4471C68.6513 32.28 71.3389 31.1968 74.5058 31.1972C77.6714 31.1972 80.3582 32.2805 82.5664 34.4471C84.7746 36.6137 85.8789 39.2861 85.8793 42.4644C85.9146 45.045 85.0296 47.5551 83.3801 49.5527L85.567 51.8421L81.9727 54.9998L79.63 52.5542ZM69.9596 37.8228C68.7401 39.0186 68.1303 40.5662 68.1302 42.4654C68.13 44.3647 68.7398 45.9122 69.9596 47.1082C70.5546 47.6974 71.2645 48.1605 72.0461 48.469C72.8277 48.7776 73.6648 48.9251 74.5058 48.9028C75.02 48.8976 75.5325 48.8461 76.0372 48.7488L72.8808 45.4375L76.4749 42.2802L79.974 45.9635C80.5774 44.8954 80.8898 43.6902 80.8805 42.4663C80.8805 40.5669 80.2712 39.0193 79.0528 37.8236C78.4576 37.2344 77.7478 36.7713 76.9663 36.4625C76.1847 36.1538 75.3478 36.0059 74.5067 36.0277C73.6655 36.0052 72.8285 36.1527 72.0467 36.4611C71.265 36.7696 70.5548 37.2326 69.9596 37.8219V37.8228ZM111.379 50.4817C109.169 48.3148 108.065 45.6427 108.066 42.4654C108.067 39.2881 109.172 36.6156 111.379 34.4479C113.586 32.2821 116.273 31.1988 119.44 31.1981C122.607 31.1973 125.294 32.2806 127.502 34.4479C129.71 36.6148 130.814 39.2874 130.814 42.4654C130.814 45.6434 129.71 48.3155 127.502 50.4817C125.294 52.6486 122.606 53.7319 119.44 53.7316C116.273 53.7313 113.586 52.6476 111.379 50.4807V50.4817ZM114.894 37.8228C113.674 39.0186 113.065 40.5662 113.066 42.4654C113.066 44.3647 113.671 45.9122 114.878 47.1082C115.477 47.6967 116.19 48.1591 116.974 48.4675C117.758 48.776 118.597 48.924 119.44 48.9028C120.281 48.925 121.118 48.7772 121.9 48.4687C122.681 48.1602 123.391 47.6973 123.986 47.1082C125.206 45.911 125.815 44.3635 125.814 42.4654C125.813 40.5673 125.204 39.0198 123.986 37.8228C123.391 37.2335 122.681 36.7703 121.9 36.4616C121.118 36.1528 120.281 36.0049 119.44 36.0269C118.599 36.0048 117.762 36.1525 116.98 36.4611C116.199 36.7697 115.489 37.2327 114.894 37.8219V37.8228ZM90.9107 51.7187C89.3274 50.3776 88.5359 48.5723 88.5359 46.3027V31.6303H93.5354V45.8694C93.5354 47.8912 94.6812 48.9021 96.9727 48.9021C99.2642 48.9021 100.41 47.8912 100.41 45.8694V31.6303H105.41V46.3027C105.41 48.5718 104.618 50.3772 103.035 51.7187C101.451 53.0602 99.4305 53.7309 96.9721 53.7307C94.5142 53.7312 92.4938 53.0605 90.9109 51.7187H90.9107ZM149.25 53.2973V31.6303H162.843V36.3982H154.25V39.9879H162.063V44.6931H154.25V48.5312H163V53.2975L149.25 53.2973ZM136.439 53.2973V36.3982H130.814V31.6303H147.064V36.3982H141.438V53.2973H136.439ZM89.997 22.8012C87.3927 20.209 86.0901 17.057 86.0893 13.3451C86.0886 9.63322 87.3912 6.48132 89.997 3.88933C92.6028 1.29719 95.7912 0.000964599 99.5621 0.000671436C103.333 0.000378274 106.521 1.2966 109.127 3.88933C111.731 6.48264 113.033 9.63454 113.033 13.3451C113.033 17.0556 111.731 20.2141 109.127 22.8203C106.522 25.4001 103.334 26.6901 99.5621 26.6901C95.79 26.6901 92.6017 25.3934 89.997 22.8002V22.8012ZM91.8208 5.65904C89.7378 7.75998 88.6959 10.322 88.6952 13.3451C88.6945 16.3682 89.7363 18.9366 91.8208 21.0505C93.9056 23.1394 96.486 24.184 99.5621 24.184C102.638 24.184 105.218 23.133 107.302 21.0314C109.388 18.9301 110.43 16.368 110.429 13.3451C110.429 10.3222 109.387 7.76013 107.302 5.65904C105.219 3.55809 102.639 2.50755 99.5621 2.5074C96.4853 2.50725 93.9049 3.55752 91.8208 5.65818V5.65904ZM147.275 26.2478V0.442669H162.346V2.87639H149.879V12.0185H161.415V14.452H149.879V23.8154H162.533V26.2478H147.275ZM138.714 26.2478V4.35065L129.596 19.4656H129.224L120.105 4.35065V26.2478H117.501V0.442669H120.738L129.41 14.8209L138.082 0.442669H141.32V26.2474L138.714 26.2478ZM79.0179 26.2478V14.1941H64.8762V26.2478H62.2714V0.442669H64.8762V11.7605H79.0179V0.442669H81.6237V26.2474L79.0179 26.2478Z" fill="black"/>
<path d="M36.4013 18.941H19.0885V36.091H36.4013V18.941Z" fill="#7095FA"/>
<path d="M54.8239 0.0321045H37.5111V17.1821H54.8239V0.0321045Z" fill="#E2E2E2"/>
<path d="M36.4013 37.85H19.0885V55H36.4013V37.85Z" fill="#7095FA"/>
<path d="M55.4898 18.941H19.0885V55H55.4898V18.941Z" fill="#99D14C"/>
<path d="M17.3128 37.85H0V55H17.3128V37.85Z" fill="#E2E2E2"/>
</g>
<defs>
<clipPath id="clip0">
<rect width="163" height="55" fill="white"/>
</clipPath>
</defs>
</svg>
