<svg width="20" height="16" viewBox="0 0 20 16" fill="none" xmlns="http://www.w3.org/2000/svg">
<path d="M10 3.41667C12.3 3.41667 14.1667 5.28334 14.1667 7.58334C14.1667 8.00834 14.0833 8.41667 13.9667 8.8L16.5167 11.35C17.675 10.325 18.5917 9.04167 19.1667 7.575C17.725 3.925 14.1667 1.33334 10 1.33334C8.94167 1.33334 7.925 1.5 6.96667 1.80834L8.775 3.61667C9.16667 3.5 9.575 3.41667 10 3.41667ZM2.25834 0.633337C1.93334 0.958337 1.93334 1.48334 2.25834 1.80834L3.9 3.45C2.55 4.525 1.475 5.94167 0.833336 7.58334C2.275 11.2417 5.83334 13.8333 10 13.8333C11.2667 13.8333 12.475 13.5833 13.5917 13.15L15.8583 15.4167C16.1833 15.7417 16.7083 15.7417 17.0333 15.4167C17.3583 15.0917 17.3583 14.5667 17.0333 14.2417L3.44167 0.633337C3.11667 0.308337 2.58334 0.308337 2.25834 0.633337ZM10 11.75C7.7 11.75 5.83334 9.88334 5.83334 7.58334C5.83334 6.94167 5.98334 6.33334 6.24167 5.8L7.55 7.10834C7.525 7.25834 7.5 7.41667 7.5 7.58334C7.5 8.96667 8.61667 10.0833 10 10.0833C10.1667 10.0833 10.3167 10.0583 10.475 10.025L11.7833 11.3333C11.2417 11.6 10.6417 11.75 10 11.75ZM12.475 7.30834C12.35 6.14167 11.4333 5.23334 10.275 5.10834L12.475 7.30834Z" fill="#323232"/>
</svg>
