<svg width="48" height="46" viewBox="0 0 48 46" fill="none" xmlns="http://www.w3.org/2000/svg">
<g clip-path="url(#clip0)">
<path d="M39.9081 0.445312H8.00576C4.0265 0.445312 0.789062 3.60558 0.789062 7.49018V38.6329C0.789062 42.5175 4.0265 45.6778 8.00576 45.6778H39.908C43.8874 45.6778 47.1248 42.5175 47.1248 38.6329V7.49018C47.1248 3.60558 43.8873 0.445312 39.9081 0.445312ZM45.7673 38.6329C45.7673 41.7868 43.1388 44.3526 39.9081 44.3526H8.00576C4.77502 44.3526 2.14655 41.7868 2.14655 38.6329V7.49018C2.14655 4.33628 4.77502 1.77048 8.00576 1.77048H39.908C43.1388 1.77048 45.7673 4.33628 45.7673 7.49018V38.6329Z" fill="#444444"/>
<path d="M39.9081 3.59082H8.00582C5.80352 3.59082 4.01172 5.33987 4.01172 7.48983V9.49755C4.01172 9.86347 4.31562 10.1601 4.69046 10.1601C5.06531 10.1601 5.36921 9.86347 5.36921 9.49755V7.48983C5.36921 6.07066 6.55195 4.91599 8.00582 4.91599H39.9081C41.3618 4.91599 42.5447 6.07057 42.5447 7.48983V38.6325C42.5447 40.0518 41.3619 41.2063 39.9081 41.2063H8.00582C6.55204 41.2063 5.36921 40.0518 5.36921 38.6325V12.5951C5.36921 12.2292 5.06531 11.9325 4.69046 11.9325C4.31562 11.9325 4.01172 12.2292 4.01172 12.5951V38.6325C4.01172 40.7824 5.80343 42.5315 8.00582 42.5315H39.9081C42.1105 42.5315 43.9022 40.7824 43.9022 38.6325V7.48983C43.9022 5.33987 42.1105 3.59082 39.9081 3.59082Z" fill="#444444"/>
<path d="M34.8737 22.1925C32.9765 20.8855 29.7844 20.3874 27.228 20.9567C26.9644 20.5626 26.6284 20.2192 26.2381 19.9442C26.7469 18.9189 27.6333 18.1635 29.1666 17.4215C29.9733 17.031 30.9773 16.545 30.9773 15.2566C30.9773 11.7377 27.349 9.55957 23.9875 9.55957C20.1334 9.55957 16.9979 12.1152 16.9979 15.2566C16.9979 16.8167 17.7809 18.8969 18.9927 20.5559C19.3819 21.0886 19.7955 21.5576 20.2257 21.957C20.1415 22.2362 20.0884 22.5284 20.0723 22.8301C18.9991 22.7538 17.9875 22.2817 16.7358 21.2949L16.719 21.2817C16.0262 20.7352 15.1639 20.0548 13.9644 20.5935C10.6894 22.0635 10.178 26.1914 11.5824 29.1728C13.067 32.3247 16.6614 34.403 19.8046 32.9918C22.021 31.997 24.2054 29.2604 24.8631 26.7298C25.0593 26.6843 25.2497 26.6247 25.4333 26.5513C26.0747 27.4857 26.3722 28.5988 26.0454 30.6499C25.9071 31.5184 25.735 32.5993 26.8135 33.3424C29.6762 35.3145 33.6015 33.833 35.6117 31.0522C36.6178 29.6605 37.1528 27.9453 37.0797 26.3467C36.9995 24.5926 36.2161 23.1172 34.8737 22.1925ZM20.0979 19.7864C19.0557 18.3595 18.3555 16.5391 18.3555 15.2565C18.3555 12.8458 20.882 10.8847 23.9876 10.8847C27.4665 10.8847 29.6199 13.154 29.6199 15.2565C29.6199 15.668 29.4074 15.8257 28.5637 16.2341C26.753 17.1104 25.6552 18.0714 25.0148 19.3677C24.6801 19.276 24.3278 19.2259 23.9635 19.2259C22.7066 19.2259 21.5874 19.8104 20.8744 20.715C20.608 20.4387 20.3482 20.129 20.0979 19.7864ZM19.2376 31.7878C16.7988 32.8828 13.9805 31.0917 12.8158 28.6191C11.3624 25.5335 12.5748 22.6757 14.5317 21.7973C14.915 21.6253 15.1469 21.7451 15.8658 22.3122L15.8828 22.3256C17.4516 23.5624 18.789 24.1318 20.2446 24.1654C20.6894 25.55 21.9251 26.5955 23.4326 26.7969C22.7166 28.9797 20.7719 31.0991 19.2376 31.7878ZM23.9635 25.5081C22.5634 25.5081 21.4245 24.3963 21.4245 23.0296C21.4245 21.6629 22.5634 20.5511 23.9635 20.5511C25.3634 20.5511 26.5024 21.6629 26.5024 23.0296C26.5024 24.4097 25.3466 25.5081 23.9635 25.5081ZM34.5027 30.288C32.9033 32.5006 29.8011 33.7786 27.5964 32.2596C27.2518 32.0223 27.2423 31.762 27.387 30.8534C27.728 28.713 27.495 27.209 26.5802 25.8456C27.616 24.9275 28.0729 23.5461 27.7659 22.2016C29.8912 21.8064 32.5895 22.2409 34.0911 23.2753C35.0828 23.9584 35.6626 25.0702 35.7238 26.4058C35.7837 27.7166 35.3387 29.1316 34.5027 30.288Z" fill="#444444"/>
<path d="M35.873 37.8591C35.873 39.2961 37.0706 40.4653 38.5428 40.4653C40.0149 40.4653 41.2125 39.2961 41.2125 37.8591C41.2125 36.4221 40.0149 35.2529 38.5428 35.2529C37.0706 35.2529 35.873 36.4221 35.873 37.8591ZM39.855 37.8591C39.855 38.5654 39.2663 39.1401 38.5428 39.1401C37.8192 39.1401 37.2305 38.5654 37.2305 37.8591C37.2305 37.1528 37.8192 36.5781 38.5428 36.5781C39.2663 36.5781 39.855 37.1528 39.855 37.8591Z" fill="#444444"/>
<path d="M36.0246 12.9258C35.7325 13.1553 35.6865 13.5724 35.9215 13.8574C38.1362 16.543 39.3068 19.7887 39.3068 23.2438C39.3068 31.5036 32.4232 38.2235 23.9618 38.2235C20.4226 38.2235 17.0976 37.0806 14.3465 34.9187C14.0547 34.6892 13.6273 34.7343 13.3922 35.0193C13.1572 35.3044 13.2033 35.7215 13.4953 35.9509C16.4475 38.2709 20.1646 39.5486 23.9618 39.5486C33.1716 39.5486 40.6643 32.2343 40.6643 23.2438C40.6643 19.5369 39.3554 15.9083 36.9788 13.0264C36.7439 12.7413 36.3166 12.6963 36.0246 12.9258Z" fill="#444444"/>
<path d="M34.6621 10.7228C31.6685 8.28246 27.8685 6.93848 23.9622 6.93848C14.7525 6.93848 7.25977 14.2528 7.25977 23.2434C7.25977 27.0567 8.63653 30.7661 11.1364 33.6884C11.2706 33.8453 11.4635 33.9262 11.6578 33.9262C11.8112 33.9262 11.9655 33.8757 12.0925 33.7722C12.3802 33.5377 12.4187 33.1198 12.1784 32.8389C9.88199 30.1545 8.61726 26.7468 8.61726 23.2434C8.61726 14.9835 15.501 8.26365 23.9622 8.26365C27.5511 8.26365 31.042 9.49826 33.7919 11.74C34.0797 11.9747 34.5077 11.9369 34.748 11.6562C34.9882 11.3752 34.9497 10.9575 34.6621 10.7228Z" fill="#444444"/>
</g>
<defs>
<clipPath id="clip0">
<rect width="46.3357" height="45.2325" fill="white" transform="translate(0.789062 0.445312)"/>
</clipPath>
</defs>
</svg>
