<svg width="47" height="47" viewBox="0 0 47 47" fill="none" xmlns="http://www.w3.org/2000/svg">
<g clip-path="url(#clip0)">
<path d="M44.7367 42.0632H44.2669V26.273C44.2669 25.9087 43.9717 25.6135 43.6074 25.6135C43.2431 25.6135 42.9479 25.9087 42.9479 26.273V42.0632H40.6927V4.679C40.6927 4.3304 40.4221 4.04578 40.0796 4.02188C40.0725 4.02134 40.0653 4.02107 40.0582 4.0208C40.0499 4.02053 40.0417 4.01953 40.0333 4.01953H7.06182C7.05386 4.01953 7.04607 4.02044 7.03811 4.02071C7.02888 4.02107 7.01965 4.02134 7.01042 4.02207C6.99132 4.02351 6.97259 4.02596 6.95404 4.02903C6.94815 4.03003 6.94227 4.03057 6.93648 4.03175C6.91087 4.03664 6.8858 4.04297 6.86136 4.05075C6.85974 4.0513 6.8582 4.05202 6.85657 4.05247C6.83385 4.05989 6.81186 4.06867 6.79032 4.07845C6.78453 4.08107 6.77892 4.08388 6.77322 4.08668C6.75503 4.09555 6.73729 4.10523 6.72 4.11573C6.71648 4.11781 6.71276 4.11935 6.70933 4.12161C6.70743 4.12288 6.70571 4.12433 6.7038 4.1256C6.68218 4.13962 6.66127 4.15447 6.64154 4.17076C6.64082 4.17139 6.64018 4.17202 6.63955 4.17257C6.62109 4.18804 6.60362 4.2046 6.58697 4.22198C6.58172 4.22741 6.57674 4.2332 6.57168 4.23881C6.55946 4.25239 6.54787 4.26641 6.53683 4.28098C6.5324 4.28687 6.52787 4.29257 6.52371 4.29854C6.51023 4.31755 6.49765 4.33718 6.48624 4.35764C6.48552 4.3589 6.48471 4.36008 6.48398 4.36135C6.47158 4.38388 6.46072 4.40732 6.45095 4.43139C6.44914 4.43592 6.44769 4.44053 6.44597 4.44506C6.43873 4.46416 6.43231 4.48361 6.42679 4.50361C6.42489 4.5104 6.42317 4.51728 6.42154 4.52416C6.41701 4.5428 6.41348 4.56171 6.41059 4.5809C6.40959 4.58778 6.40823 4.59456 6.40742 4.60144C6.40443 4.62687 6.40244 4.65267 6.40244 4.67891V42.0631H4.1472V26.2757C4.1472 25.9114 3.85199 25.6162 3.48773 25.6162C3.12347 25.6162 2.82826 25.9114 2.82826 26.2757V42.0632H2.35838C1.54805 42.0632 0.888672 42.7226 0.888672 43.5329V45.3114C0.888672 46.1218 1.54805 46.7812 2.35838 46.7812H44.7367C45.547 46.7812 46.2064 46.1218 46.2064 45.3114V43.5329C46.2066 42.7226 45.5472 42.0632 44.7367 42.0632ZM39.3715 5.72183V42.0632H38.4852L30.1908 38.9626V10.0777L39.3715 5.72183ZM37.1025 5.33847L29.5589 8.91763C29.1351 9.11872 28.8718 9.51936 28.8718 9.96317V39.0863C28.8718 39.5669 29.182 39.9935 29.6621 40.1732L34.7185 42.0632H12.3742L17.4308 40.1731C17.9108 39.9936 18.2209 39.5671 18.2209 39.0863V9.96326C18.2209 9.51955 17.9578 9.1189 17.534 8.91772L9.9902 5.33847H37.1025ZM7.7212 5.72183L16.9019 10.0777V38.9628L8.60746 42.0633H7.7212V5.72183ZM44.7368 45.4623H2.35847C2.2753 45.4623 2.20761 45.3946 2.20761 45.3114V43.5329C2.20761 43.4498 2.2753 43.3821 2.35847 43.3821H3.48773H7.06182H8.72674H38.3659H40.0309H40.0333H43.6075H44.7367C44.8199 43.3821 44.8876 43.4498 44.8876 43.5329V45.3114C44.8877 45.3946 44.82 45.4623 44.7368 45.4623Z" fill="#444444"/>
<path d="M42.5603 0.445312H4.5344C3.59348 0.445312 2.82812 1.21076 2.82812 2.15168V23.1003C2.82812 23.4646 3.12333 23.7598 3.48759 23.7598C3.85186 23.7598 4.14706 23.4646 4.14706 23.1003V2.15168C4.14706 1.93801 4.32091 1.76416 4.53458 1.76416H42.5605C42.7741 1.76416 42.948 1.93801 42.948 2.15168V23.1351C42.948 23.4993 43.2432 23.7945 43.6074 23.7945C43.9717 23.7945 44.2669 23.4993 44.2669 23.1351V2.15168C44.2667 1.21076 43.5013 0.445312 42.5603 0.445312Z" fill="#444444"/>
<path d="M37.2234 8.86426C37.0992 8.86426 36.9754 8.8934 36.8654 8.94833L32.2604 11.2518C31.9986 11.3827 31.8359 11.643 31.8359 11.931V22.9824C31.8358 23.4081 32.1953 23.7569 32.6369 23.7597L37.2364 23.7894C37.2378 23.7894 37.2406 23.7894 37.242 23.7894C37.6802 23.7894 38.0366 23.4434 38.0366 23.0178V9.65242C38.0366 9.21784 37.6719 8.86426 37.2234 8.86426ZM36.7176 22.4672L33.1546 22.4443V12.279L36.7176 10.4969V22.4672Z" fill="#444444"/>
<path d="M37.2343 24.7217L32.6343 24.7679C32.1941 24.7726 31.8359 25.1217 31.8359 25.5459V37.1626C31.8358 37.474 32.0262 37.751 32.3216 37.8688L36.926 39.698C37.0206 39.7355 37.1204 39.7546 37.223 39.7546C37.6716 39.7546 38.0366 39.4007 38.0366 38.9658V25.4927C38.0366 25.0676 37.6805 24.7217 37.2343 24.7217ZM36.7177 38.1961L33.1547 36.7806V26.0816L36.7177 26.0457V38.1961Z" fill="#444444"/>
<path d="M14.4566 24.7679L9.84864 24.7217C9.4108 24.7217 9.05469 25.0676 9.05469 25.4927V38.9658C9.0546 39.4007 9.41958 39.7546 9.86819 39.7546C9.97081 39.7546 10.0706 39.7355 10.165 39.698L14.77 37.8687C15.0648 37.7514 15.2553 37.4742 15.2553 37.1627V25.5459C15.2553 25.1217 14.8971 24.7726 14.4566 24.7679ZM13.9364 36.7808L10.3734 38.1961V26.0459L13.9364 26.0817V36.7808Z" fill="#444444"/>
<path d="M14.8312 11.2518L10.2258 8.94833C10.1159 8.8934 9.99208 8.86426 9.86792 8.86426C9.41949 8.86426 9.05469 9.21784 9.05469 9.65242V23.0179C9.05469 23.4434 9.41116 23.7895 9.84918 23.7895C9.85063 23.7895 9.85325 23.7895 9.8547 23.7895L14.4542 23.7598C14.896 23.757 15.2553 23.4082 15.2553 22.9824V11.931C15.2553 11.6432 15.093 11.383 14.8312 11.2518ZM13.9365 22.4443L10.3735 22.4672V10.4969L13.9365 12.279V22.4443Z" fill="#444444"/>
</g>
<defs>
<clipPath id="clip0">
<rect width="46.3357" height="46.3357" fill="white" transform="translate(0.378906 0.445312)"/>
</clipPath>
</defs>
</svg>
