<svg width="47" height="47" viewBox="0 0 47 47" fill="none" xmlns="http://www.w3.org/2000/svg">
<g clip-path="url(#clip0)">
<path d="M46.1338 13.7794L43.3116 12.1723C43.1296 12.0686 42.9995 11.9013 42.945 11.7011C42.8906 11.5008 42.9185 11.2917 43.0236 11.1122L44.6531 8.32856C44.8063 8.06676 44.8063 7.74158 44.653 7.47987C44.4997 7.21816 44.2142 7.05562 43.9078 7.05562H40.649C40.4389 7.05562 40.2413 6.97493 40.0926 6.82819C39.944 6.68171 39.8622 6.48686 39.8622 6.27951V3.06526C39.8622 2.76303 39.6973 2.48142 39.432 2.3303C39.1666 2.17918 38.8368 2.17918 38.5714 2.3303L35.7493 3.93742C35.5673 4.04105 35.3555 4.06872 35.1521 4.0149C34.9492 3.96125 34.7795 3.8329 34.6744 3.65331L33.0449 0.869475C32.8916 0.607855 32.6059 0.445312 32.2996 0.445312C31.9933 0.445312 31.7077 0.607855 31.5543 0.869653L29.925 3.65322C29.8199 3.83272 29.6502 3.96116 29.4472 4.01481C29.2443 4.06854 29.0322 4.04087 28.8502 3.93733L26.028 2.33021C25.7626 2.17909 25.4329 2.17909 25.1674 2.33021C24.9021 2.48133 24.7372 2.76303 24.7372 3.06518V6.27942C24.7372 6.48668 24.6554 6.68162 24.5067 6.82819C24.3581 6.97475 24.1605 7.05544 23.9504 7.05544H20.6916C20.3852 7.05544 20.0996 7.21799 19.9464 7.47969C19.7932 7.7414 19.7932 8.06667 19.9464 8.32856L21.5759 11.1121C21.6809 11.2916 21.7089 11.5008 21.6544 11.7011C21.6 11.9013 21.4699 12.0685 21.2878 12.1723L18.4658 13.7793C18.2002 13.9304 18.0354 14.2121 18.0354 14.5143C18.0354 14.7328 18.1224 14.9397 18.2703 15.0951H10.021C9.57582 15.0951 9.17029 15.3539 8.98803 15.7544L6.95903 20.2117C6.95885 20.2121 6.95876 20.2123 6.95858 20.2127L0.699545 33.9624C0.541532 34.3095 0.572302 34.7072 0.781899 35.0266C0.991496 35.3459 1.3468 35.5366 1.73251 35.5366H10.7962C10.797 35.5366 10.7978 35.5368 10.7987 35.5368C10.7994 35.5368 10.8001 35.5366 10.8008 35.5366H17.792V37.9255C17.792 38.2956 18.0962 38.5956 18.4714 38.5956C18.8466 38.5956 19.1508 38.2956 19.1508 37.9255V35.5366H24.9433V44.8062H19.1508V42.6159C19.1508 42.2458 18.8466 41.9458 18.4714 41.9458C18.0962 41.9458 17.792 42.2458 17.792 42.6159V44.8062H14.0679C13.6926 44.8062 13.3885 45.1062 13.3885 45.4762C13.3885 45.8463 13.6926 46.1463 14.0679 46.1463H18.4714H25.6226H30.0261C30.4013 46.1463 30.7055 45.8463 30.7055 45.4762C30.7055 45.1062 30.4014 44.8062 30.0261 44.8062H26.3019V35.5366H33.2932C33.2939 35.5366 33.2946 35.5368 33.2954 35.5368C33.2962 35.5368 33.297 35.5366 33.2978 35.5366H42.3614C42.7471 35.5366 43.1024 35.346 43.312 35.0266C43.5216 34.7073 43.5524 34.3094 43.3944 33.9624L39.836 26.1453C39.8526 26.0874 39.8621 26.0265 39.8621 25.9634V22.7493C39.8621 22.542 39.9439 22.3471 40.0926 22.2004C40.2411 22.0538 40.4388 21.9732 40.6489 21.9732H43.9077C44.2141 21.9732 44.4997 21.8106 44.6529 21.5489C44.8062 21.2872 44.8062 20.962 44.653 20.7L43.0235 17.9165C42.9185 17.7369 42.8905 17.5278 42.9449 17.3276C42.9993 17.1274 43.1295 16.9601 43.3115 16.8563L46.1337 15.2493C46.3991 15.0982 46.564 14.8165 46.564 14.5143C46.564 14.212 46.3992 13.9304 46.1338 13.7794ZM10.1674 16.4352H15.585L14.5809 19.8033H8.63427L10.1674 16.4352ZM8.0243 21.1433H14.1814L12.6795 26.1815H5.73086L8.0243 21.1433ZM10.29 34.1965H2.08238L5.1209 27.5215H12.2799L10.29 34.1965ZM21.3676 34.1966H18.4715H11.7063L13.6962 27.5216H21.3676V34.1966ZM21.3676 26.1815H14.0956L15.5976 21.1433H21.3676V26.1815ZM21.3677 19.8032H15.9971L17.0012 16.4351H21.3677V19.8032ZM25.6226 34.1966H22.7264V27.5216H30.3979L32.3878 34.1966H25.6226ZM28.4965 21.1433L29.9984 26.1815H22.7264V21.1433H28.4965ZM22.7264 19.8033V16.4352H27.0928L28.0969 19.8033H22.7264ZM29.5131 19.8032L28.509 16.4351H33.9266L35.4598 19.8032H29.5131ZM36.0697 21.1433L38.3632 26.1815H31.4146L29.9126 21.1433H36.0697ZM42.0117 34.1966H33.8041L31.8142 27.5216H38.9732L42.0117 34.1966ZM42.6321 15.696C42.1359 15.9786 41.781 16.4349 41.6326 16.9809C41.4843 17.5268 41.5603 18.0971 41.8469 18.5866L43.045 20.6331H40.649C40.0759 20.6331 39.5371 20.8532 39.132 21.2528C38.7266 21.6525 38.5034 22.1839 38.5034 22.7493V23.2177L37.3468 20.6767C39.2336 19.1753 40.3484 16.895 40.3484 14.4935C40.3484 10.1163 36.7378 6.55514 32.2997 6.55514C32.0271 6.55514 31.7524 6.56871 31.483 6.59558C31.1097 6.63271 30.8378 6.96136 30.8754 7.32956C30.9132 7.69776 31.2469 7.96634 31.6196 7.92885C31.8437 7.90653 32.0725 7.8952 32.2997 7.8952C35.9885 7.8952 38.9896 10.8551 38.9896 14.4935C38.9896 16.3707 38.1697 18.1589 36.7672 19.4035L35.1061 15.7543C34.9238 15.3537 34.5183 15.0949 34.0731 15.0949H27.6142C27.6121 15.0949 27.6101 15.0949 27.608 15.0949H25.6377C25.6195 14.8955 25.6097 14.6941 25.6097 14.4934C25.6097 12.6754 26.3435 10.982 27.6757 9.72484C27.9469 9.46903 27.9564 9.04486 27.697 8.77744C27.4378 8.51002 27.0076 8.50065 26.7365 8.75647C25.1338 10.2689 24.251 12.3062 24.251 14.4934C24.251 14.6938 24.2596 14.8949 24.2748 15.0949H20.9063C20.8909 15.0844 20.8753 15.074 20.8588 15.0646L19.8922 14.5142L21.9671 13.3325C22.4634 13.0499 22.8184 12.5936 22.9668 12.0477C23.1152 11.5016 23.0391 10.9314 22.7525 10.4419L21.5544 8.39541H23.9504C24.5235 8.39541 25.0623 8.1753 25.4674 7.77568C25.8728 7.37606 26.096 6.84461 26.096 6.27924V3.91627L28.171 5.09789C28.6672 5.38048 29.2455 5.45546 29.7989 5.30926C30.3525 5.16296 30.8151 4.81279 31.1018 4.32329L32.2998 2.27674L33.4978 4.32329C33.7844 4.81279 34.2471 5.16296 34.8006 5.30926C35.3541 5.45564 35.9322 5.38048 36.4286 5.09789L38.5036 3.91627V6.27942C38.5036 6.84479 38.7268 7.37615 39.132 7.77568C39.5373 8.17547 40.076 8.39559 40.6492 8.39559H43.0451L41.8471 10.442C41.5605 10.9315 41.4844 11.5019 41.6328 12.0478C41.7811 12.5938 42.1362 13.0501 42.6324 13.3327L44.7074 14.5143L42.6321 15.696Z" fill="#444444"/>
</g>
<defs>
<clipPath id="clip0">
<rect width="46.3357" height="45.701" fill="white" transform="translate(0.414062 0.445312)"/>
</clipPath>
</defs>
</svg>
