<svg width="44" height="47" viewBox="0 0 44 47" fill="none" xmlns="http://www.w3.org/2000/svg">
<path d="M41.2773 28.2429L40.2307 37.6546C40.0768 39.0361 39.4818 40.301 38.5659 41.2068C38.3684 41.4016 38.1556 41.5787 37.9298 41.7381C38.2376 42.5022 38.3991 43.2435 38.4069 43.8786C38.4171 44.7818 38.1196 45.5078 37.504 45.8899C36.7319 46.4161 35.6647 46.0418 34.967 45.5788C33.9076 44.8729 33.0815 43.7445 32.5353 42.6186H11.5007C10.9518 43.7546 10.136 44.8678 9.06896 45.5788C8.34813 46.057 7.3939 46.3834 6.58076 45.9204C5.9317 45.5484 5.61875 44.8046 5.62898 43.8787C5.63667 43.2436 5.79831 42.5023 6.10872 41.7382C5.88301 41.5788 5.67007 41.4017 5.4726 41.2068C4.55421 40.3011 3.96171 39.0361 3.80777 37.6547L3.58713 35.6888C3.54858 35.322 3.818 34.9931 4.18986 34.9551C4.56181 34.9146 4.8953 35.1802 4.93386 35.5471L5.15449 37.5129C5.2725 38.5881 5.72907 39.5673 6.43189 40.258C7.09887 40.9184 7.95817 41.2801 8.90732 41.2801H11.0621H35.1313C36.0778 41.2801 36.9372 40.9184 37.6067 40.258C38.307 39.5673 38.7635 38.5882 38.8841 37.5129L39.9076 28.3212H33.0483V35.3117C33.0483 36.005 32.761 36.6324 32.2994 37.0878C31.8375 37.5432 31.2015 37.824 30.4986 37.824H23.8882C23.1852 37.824 22.5492 37.5432 22.0875 37.0878C21.6258 36.6324 21.341 36.005 21.341 35.3117V33.3003C21.341 32.9309 21.6437 32.6324 22.0182 32.6324C22.3926 32.6324 22.698 32.9309 22.698 33.3003V35.3117C22.698 35.633 22.8314 35.9265 23.0469 36.1415C23.2623 36.354 23.5599 36.4855 23.8882 36.4855H30.4987C30.8271 36.4855 31.1247 36.354 31.3401 36.1415C31.5556 35.9264 31.6889 35.6329 31.6889 35.3117V27.6508V24.9209H22.698V27.6508V30.2694C22.698 30.6388 22.3927 30.9373 22.0182 30.9373C21.6436 30.9373 21.341 30.6388 21.341 30.2694V28.3212H4.12841L4.59783 32.5337C4.63892 32.9006 4.36959 33.2295 3.99755 33.2675C3.62569 33.308 3.2921 33.0423 3.25111 32.6755L2.75861 28.2429C2.34313 28.134 1.97117 27.9164 1.67615 27.6255C1.24003 27.1954 0.970703 26.6033 0.970703 25.9506C0.970703 25.2978 1.24003 24.7058 1.67615 24.2783C2.11217 23.8481 2.71246 23.5825 3.37428 23.5825H5.51622C5.64446 22.659 6.07804 21.8343 6.71416 21.2068C7.47852 20.4528 8.53284 19.9873 9.70001 19.9873C10.095 19.9873 10.5029 20.043 10.8826 20.1542C11.1544 19.3927 11.629 18.7273 12.2395 18.2137C13.045 17.5382 14.0838 17.1283 15.2203 17.1283C16.4131 17.1283 17.5007 17.5786 18.319 18.3124C18.914 18.8488 19.3655 19.5369 19.6118 20.3162C19.8042 20.2353 20.0017 20.167 20.2044 20.1114C20.6995 19.9697 21.2229 19.8938 21.7614 19.8938C22.3849 19.8938 22.9876 19.9975 23.5545 20.1847C23.7777 20.258 23.9958 20.3466 24.2086 20.4478C24.2856 20.1189 24.3959 19.8051 24.5369 19.5066C24.8398 18.8665 25.2835 18.2998 25.8298 17.8393C26.1146 17.6014 26.5404 17.6343 26.7816 17.9151C27.0226 18.196 26.9893 18.616 26.7046 18.8538C26.3121 19.1827 25.9914 19.5977 25.7657 20.0734C25.5477 20.5388 25.4323 21.0423 25.4272 21.5585C25.4272 21.6976 25.3836 21.8368 25.2912 21.9583C25.0655 22.2517 24.6421 22.3073 24.3445 22.0847C23.9805 21.814 23.5699 21.5964 23.1236 21.4497C22.7003 21.3106 22.2412 21.2321 21.7614 21.2321C21.3485 21.2321 20.9509 21.2903 20.5763 21.3966C20.1864 21.5079 19.8196 21.6699 19.4887 21.8773C19.399 21.933 19.2963 21.9658 19.1886 21.9759C18.8167 22.0089 18.4883 21.738 18.455 21.3713C18.378 20.5541 17.9882 19.8255 17.4059 19.3017C16.8287 18.783 16.0617 18.4668 15.2204 18.4668C14.4123 18.4668 13.6787 18.7552 13.1144 19.2283C12.5269 19.7217 12.1345 20.4048 12.0114 21.1588C12.0011 21.227 11.9781 21.2954 11.9421 21.3612C11.7703 21.6875 11.3624 21.8141 11.0314 21.6445C10.6159 21.4295 10.167 21.3258 9.7001 21.3258C8.91004 21.3258 8.19184 21.642 7.67355 22.1531C7.28358 22.5376 7.00665 23.031 6.89109 23.5826H38.0915V23.5598C38.0915 22.7401 37.7554 21.9963 37.2089 21.4573C36.6652 20.921 35.911 20.587 35.0799 20.587C34.7952 20.587 34.5258 20.6249 34.277 20.6907C34.0257 20.759 33.7872 20.8601 33.564 20.9867C33.5075 21.0246 33.4434 21.055 33.3741 21.0727C33.0124 21.1739 32.6405 20.9665 32.5379 20.6122C32.325 19.8582 31.8684 19.2081 31.2554 18.7426C30.6576 18.2897 29.9136 18.0165 29.1056 18.0063C28.731 18.0012 28.4336 17.6975 28.4387 17.3308C28.4412 16.9613 28.7491 16.6678 29.121 16.6704C30.2369 16.6881 31.2605 17.0626 32.0838 17.6875C32.7148 18.1657 33.2279 18.7932 33.5691 19.5167C33.6844 19.4762 33.7999 19.4383 33.9205 19.4054C34.0796 19.3624 34.2386 19.327 34.4001 19.3016V4.83493C34.4001 3.99758 34.0513 3.23343 33.4921 2.68189C32.9303 2.12777 32.1583 1.78376 31.3066 1.78376H25.7888C24.9398 1.78376 24.1676 2.12777 23.606 2.68189C23.1878 3.09436 22.8876 3.62564 22.7621 4.21511C23.9241 4.37712 24.9655 4.91089 25.758 5.69263C26.7149 6.63637 27.3049 7.93929 27.3049 9.38146C27.3049 9.75082 27.0022 10.0494 26.6277 10.0494H17.4083C17.0337 10.0494 16.7311 9.75082 16.7311 9.38146C16.7311 7.93938 17.3211 6.63637 18.2804 5.69263C19.0962 4.88804 20.1788 4.34418 21.3869 4.20243C21.528 3.2461 21.9821 2.38841 22.6465 1.73315C23.4519 0.938651 24.5652 0.445312 25.7887 0.445312H31.3065C32.5327 0.445312 33.646 0.938651 34.4514 1.73315C35.2569 2.53015 35.7571 3.62814 35.7571 4.83493V19.3017C36.6935 19.4459 37.5297 19.8811 38.1685 20.5111C38.9996 21.3308 39.4536 22.4237 39.4484 23.5826H40.6618C41.3236 23.5826 41.9264 23.8482 42.3599 24.2784C42.7959 24.7059 43.0653 25.2979 43.0653 25.9507C43.0653 26.6034 42.7959 27.1955 42.3599 27.6256C42.0649 27.9165 41.6928 28.134 41.2773 28.2429ZM19.894 15.494C19.894 15.8634 19.5887 16.1644 19.2142 16.1644C18.8396 16.1644 18.537 15.8633 18.537 15.494V12.1467C18.537 11.7748 18.8397 11.4763 19.2142 11.4763C19.5887 11.4763 19.894 11.7748 19.894 12.1467V15.494ZM25.5015 15.494C25.5015 15.8634 25.1962 16.1644 24.8217 16.1644C24.4471 16.1644 24.1444 15.8633 24.1444 15.494V12.1467C24.1444 11.7748 24.4471 11.4763 24.8217 11.4763C25.1962 11.4763 25.5015 11.7748 25.5015 12.1467V15.494ZM22.6978 16.6907C22.6978 17.0626 22.3926 17.3611 22.018 17.3611C21.6434 17.3611 21.3409 17.0626 21.3409 16.6907V12.1467C21.3409 11.7748 21.6435 11.4763 22.018 11.4763C22.3925 11.4763 22.6978 11.7748 22.6978 12.1467V16.6907ZM33.0482 26.983H40.6618C40.9491 26.983 41.2106 26.8666 41.4004 26.6794C41.5903 26.4921 41.7083 26.2341 41.7083 25.9507C41.7083 25.6699 41.5902 25.4118 41.4004 25.2245C41.2106 25.0374 40.9491 24.921 40.6618 24.921H33.0482V26.983ZM21.3409 24.921H6.15487H3.37419C3.08694 24.921 2.82531 25.0374 2.63544 25.2245C2.44566 25.4118 2.32765 25.6699 2.32765 25.9507C2.32765 26.2341 2.44575 26.4921 2.63544 26.6794C2.82531 26.8666 3.08694 26.983 3.37419 26.983H21.3408V24.921H21.3409ZM24.7987 6.63887C24.0856 5.93809 23.1031 5.50286 22.018 5.50286C20.933 5.50286 19.9504 5.93809 19.2399 6.63887C18.6806 7.1904 18.2881 7.90895 18.1471 8.71094H25.8914C25.7477 7.90895 25.3579 7.1904 24.7987 6.63887ZM36.7217 42.3554C36.2779 42.5099 35.8033 42.5983 35.3006 42.616C34.8926 42.6287 34.4745 42.6185 34.0642 42.6185C34.5566 43.4433 35.1543 44.0884 35.7263 44.4705C36.1727 44.7665 36.5575 44.888 36.7781 44.764C37.0346 44.6224 37.0576 44.1391 37.0551 43.8887C37.0499 43.4433 36.9371 42.9171 36.7217 42.3554ZM9.97196 42.6186C9.56408 42.6186 9.14597 42.6287 8.73809 42.6161C8.23265 42.5984 7.75816 42.5099 7.31444 42.358C7.09896 42.9172 6.98602 43.4434 6.98086 43.8887C6.97064 44.9437 7.45798 45.0373 8.30967 44.4706C8.88678 44.086 9.48453 43.4408 9.97196 42.6186Z" fill="#444444"/>
</svg>
