<svg width="47" height="47" viewBox="0 0 47 47" fill="none" xmlns="http://www.w3.org/2000/svg">
<g clip-path="url(#clip0)">
<path d="M22.8249 3.43237C22.7531 3.0415 22.3781 2.7833 21.9873 2.85471C19.3135 3.34612 17.7503 4.94932 16.4942 6.23758C15.1871 7.57825 14.3238 8.46388 12.4278 8.46388C10.5319 8.46388 9.66846 7.57834 8.36128 6.23758C6.90912 4.74814 4.92012 2.70801 1.20385 2.70801C0.806463 2.70801 0.484375 3.03019 0.484375 3.42748V12.6772C0.484375 13.0746 0.806554 13.3966 1.20385 13.3966C1.60114 13.3966 1.92332 13.0745 1.92332 12.6772V4.17781C4.56898 4.40958 6.03001 5.9078 7.33121 7.24249C8.52201 8.46379 9.5747 9.54191 11.4208 9.82816V30.329C11.4208 30.7263 11.743 31.0484 12.1403 31.0484C12.5376 31.0484 12.8597 30.7262 12.8597 30.329V9.88988C15.0736 9.75567 16.2153 8.58514 17.5246 7.24222C18.6962 6.04057 20.0241 4.67864 22.2474 4.27012C22.6381 4.19827 22.8968 3.82323 22.8249 3.43237Z" fill="#444444"/>
<path d="M46.1007 2.70801C42.3845 2.70801 40.3954 4.74805 38.9429 6.23777C37.6358 7.57834 36.7722 8.46397 34.8763 8.46397C32.9803 8.46397 32.1168 7.57834 30.8095 6.23758C29.5537 4.94959 27.9907 3.34657 25.3175 2.85498C24.9266 2.78348 24.5517 3.04177 24.4797 3.43246C24.4079 3.82333 24.6664 4.19836 25.0572 4.27021C27.2801 4.67891 28.6078 6.04066 29.7793 7.24213C31.0889 8.58524 32.2307 9.75567 34.4449 9.88979V18.8169C34.4449 19.2142 34.7671 19.5363 35.1644 19.5363C35.5617 19.5363 35.8839 19.2141 35.8839 18.8169V9.82798C37.7298 9.54164 38.7825 8.46351 39.9734 7.24204C41.2746 5.90762 42.7356 4.4094 45.3813 4.17763V34.4732C42.1225 34.7162 40.2988 36.5855 38.9433 37.9757L38.9431 37.9759C37.8924 39.0534 37.128 39.8367 35.8839 40.1026V22.6543C35.8839 22.2569 35.5618 21.9348 35.1645 21.9348C34.7672 21.9348 34.445 22.257 34.445 22.6543V40.1852C32.8414 40.0584 32.0133 39.2103 30.8097 37.9759C29.3573 36.4864 27.3682 34.4463 23.652 34.4463C19.9358 34.4463 17.9468 36.4865 16.4945 37.976C15.2912 39.2102 14.4631 40.0583 12.8599 40.1852V34.1663C12.8599 33.7689 12.5378 33.4468 12.1405 33.4468C11.7431 33.4468 11.421 33.769 11.421 34.1663V40.1027C10.1769 39.8368 9.41244 39.0536 8.36155 37.9758C7.00596 36.5856 5.1823 34.7162 1.9235 34.4733V17.282C1.9235 16.8846 1.60132 16.5625 1.20403 16.5625C0.806735 16.5625 0.484375 16.8847 0.484375 17.282V38.0436C0.484375 38.441 0.806554 38.7631 1.20385 38.7631C3.09972 38.7631 3.96318 39.6486 5.27036 40.9894C6.7227 42.4789 8.7117 44.519 12.4279 44.519C16.1441 44.519 18.1331 42.4789 19.5854 40.9894C20.8925 39.6487 21.7559 38.7631 23.6518 38.7631C25.5478 38.7631 26.4113 39.6487 27.7186 40.9894C29.171 42.479 31.16 44.519 34.8762 44.519C38.5925 44.519 40.5816 42.479 42.0339 40.9894C43.3411 39.6488 44.2047 38.7631 46.1006 38.7631C46.498 38.7631 46.8201 38.4409 46.8201 38.0436V3.42748C46.8202 3.03019 46.498 2.70801 46.1007 2.70801ZM45.3812 37.3608C43.3532 37.575 42.2553 38.7013 41.0036 39.985C39.589 41.4358 37.9857 43.0802 34.8762 43.0802C31.7668 43.0802 30.1635 41.4358 28.7487 39.9848C27.3567 38.5571 26.1544 37.3242 23.6517 37.3242C21.1492 37.3242 19.9469 38.5573 18.555 39.9849C17.1405 41.4358 15.5372 43.0802 12.4278 43.0802C9.31832 43.0802 7.71502 41.4358 6.30042 39.9847C5.049 38.7013 3.95069 37.5751 1.92323 37.3609V35.916C4.5689 36.1478 6.02983 37.646 7.33113 38.9807C8.7231 40.4083 9.9253 41.6412 12.4278 41.6412C14.9304 41.6412 16.1327 40.4082 17.5246 38.9805C18.9391 37.5296 20.5424 35.8853 23.6517 35.8853C26.7612 35.8853 28.3646 37.5296 29.7791 38.9804C31.1712 40.4083 32.3735 41.6412 34.8761 41.6412C37.3788 41.6412 38.5811 40.4082 39.9731 38.9806L39.9733 38.9805C41.2744 37.6461 42.7354 36.1479 45.3812 35.9161V37.3608Z" fill="#444444"/>
</g>
<defs>
<clipPath id="clip0">
<rect width="46.3357" height="46.3357" fill="white" transform="translate(0.484375 0.445312)"/>
</clipPath>
</defs>
</svg>
