<svg width="37" height="56" viewBox="0 0 37 56" fill="none" xmlns="http://www.w3.org/2000/svg">
<path d="M35.5498 42.8438L13.957 30.2616L15.5884 29.2743L35.5498 40.9151V42.8438Z" fill="#AEB5B9"/>
<path d="M35.5488 42.8438L13.956 30.2616L11.4863 31.754L32.8978 44.4051L35.5488 42.8438Z" fill="#E1E5E5"/>
<path d="M36.9994 40.5018L16.6755 28.6543L15.5879 29.2742L35.5493 40.915L36.9994 40.5018Z" fill="#FBFFFF"/>
<path d="M16.6755 28.6544L15.5879 29.2743V5.92372L16.6755 4.86755V28.6544Z" fill="#D4DBDF"/>
<path d="M13.957 30.2616L15.5884 29.2744V5.9238L13.957 4.95947V30.2616Z" fill="#AEB5B9"/>
<path d="M13.9568 30.2616L11.4871 31.7541L11.2832 6.52077L13.9568 4.95947V30.2616Z" fill="#D4DBDF"/>
<path d="M14.3185 30.032L11.8262 31.4785V6.68148L14.3185 5.23499V30.032Z" fill="#414E52"/>
<path d="M35.5034 42.3847L33.0111 43.8542L11.8262 31.4786L14.3185 30.0321L35.5034 42.3847Z" fill="#5B686C"/>
<path opacity="0.59" d="M14.2516 5.28088L13.8438 5.51049V30.3305L14.2516 30.0779V5.28088Z" fill="#34A8D9"/>
<path opacity="0.84" d="M35.4365 42.4305L35.0287 42.683L13.8438 30.3304L14.2516 30.0779L35.4365 42.4305Z" fill="#34A8D9"/>
<path opacity="0.84" d="M35.4371 17.6334L35.0293 17.863V42.683L35.4371 42.4305V17.6334Z" fill="#34A8D9"/>
<path opacity="0.59" d="M35.4365 17.6335L35.0287 17.8631L13.8438 5.51049L14.2516 5.28088L35.4365 17.6335Z" fill="#34A8D9"/>
<path opacity="0.2" d="M35.0287 17.8631L13.8438 5.5105V30.3305L35.0287 42.6831V17.8631Z" fill="#34A8D9"/>
<path d="M33.0117 43.8541V44.3363L33.8047 43.9V43.6934L34.711 43.1653V43.349L35.5041 42.8898V42.3846L33.0117 43.8541Z" fill="#414E52"/>
<path d="M11.827 6.68148L11.3965 6.42892L12.1668 5.99267L12.3254 6.08451L13.2544 5.53347L13.0958 5.44163L13.8888 4.98242L14.3193 5.23498L11.827 6.68148Z" fill="#5B686C"/>
<path d="M11.3965 31.5014L11.827 31.731V6.6814L11.3965 6.42883V31.5014Z" fill="#283539"/>
<path d="M34.7107 42.1091L33.8044 42.6372L13.2539 30.652L14.1376 30.1469L34.7107 42.1091Z" fill="#889AA5"/>
<path d="M33.647 42.9587L33.8056 42.6372L13.2551 30.652L12.8926 30.8586L33.647 42.9587Z" fill="#62747F"/>
<path d="M33.6463 42.9587V43.2572L12.6426 31.0194L12.8918 30.8586L33.6463 42.9587Z" fill="#495B66"/>
<path d="M34.8927 42.5224L33.6465 43.2571V42.9587L33.8051 42.6372L34.7114 42.1091L34.8927 42.2239V42.5224Z" fill="#6F818C"/>
<path d="M13.8888 5.69421L12.6426 6.42894L12.8918 6.58966H13.2543L14.138 6.06158V5.85494L13.8888 5.69421Z" fill="#889AA5"/>
<path d="M12.8926 30.8586L13.2551 30.6519V6.5896H12.8926V30.8586Z" fill="#62747F"/>
<path d="M12.8918 30.8586L12.6426 31.0194V6.42896L12.8918 6.58968V30.8586Z" fill="#495B66"/>
<path d="M14.1376 30.1469L13.2539 30.6521V6.58973L14.1376 6.06165V30.1469Z" fill="#6F818C"/>
<path d="M11.3965 31.2489V31.7311L33.0119 44.3362V43.8541L11.3965 31.2489Z" fill="#283539"/>
<path opacity="0.59" d="M12.3707 6.35999L11.9629 6.61255V31.4096L12.3707 31.157V6.35999Z" fill="#34A8D9"/>
<path opacity="0.84" d="M33.5783 43.5096L33.1705 43.7622L11.9629 31.4095L12.3707 31.157L33.5783 43.5096Z" fill="#34A8D9"/>
<path opacity="0.84" d="M33.5778 18.7125L33.1699 18.9651V43.7621L33.5778 43.5096V18.7125Z" fill="#34A8D9"/>
<path opacity="0.59" d="M33.5783 18.7126L33.1705 18.9651L11.9629 6.61255L12.3707 6.35999L33.5783 18.7126Z" fill="#34A8D9"/>
<path opacity="0.2" d="M33.1705 18.9652L11.9629 6.61255V31.4096L33.1705 43.7622V18.9652Z" fill="#34A8D9"/>
<mask id="mask0" mask-type="alpha" maskUnits="userSpaceOnUse" x="11" y="6" width="23" height="38">
<path d="M33.1705 18.9652L11.9629 6.61255V31.4096L33.1705 43.7622V18.9652Z" fill="url(#paint0_linear)"/>
</mask>
<g mask="url(#mask0)">
<path opacity="0.3" d="M33.1705 18.9652L11.9629 6.61255V31.4096L33.1705 43.7622V18.9652Z" fill="url(#paint1_linear)"/>
</g>
<path d="M10.7388 2.06641H9.44727V4.98236H10.7388V2.06641Z" fill="#969DA1"/>
<path opacity="0.5" d="M10.7388 2.06641H9.44727V4.98236H10.7388V2.06641Z" fill="url(#paint2_linear)"/>
<path d="M9.31173 2.13525H9.17578V2.8011H9.31173V2.13525Z" fill="#414E52"/>
<path d="M9.53908 2.1582H9.3125V4.68383H9.53908V2.1582Z" fill="#2E383B"/>
<path d="M9.67501 2.20422L9.53906 2.2731V4.75281H9.67501V2.20422Z" fill="#414E52"/>
<path d="M10.1278 1.30872L9.69727 1.56128L10.0145 2.13528L10.1278 2.20416V1.30872Z" fill="#D4DBDF"/>
<path d="M5.4375 6.15341L8.06579 4.91355V2.66345L5.4375 4.20179V6.15341Z" fill="#D4DBDF"/>
<path d="M7.16016 1.30872V2.43377L7.568 2.68633L7.83989 2.54857L8.36102 2.02048L7.16016 1.30872Z" fill="#969DA1"/>
<path d="M31.9926 50.9258L31.7887 51.1783C31.766 51.2013 31.766 51.2013 31.7434 51.2243L31.6074 51.2931L34.1677 52.7856V49.663L33.9638 49.7778V49.9614L33.8052 50.0533V49.8696L32.3551 50.7191V50.9028L32.1965 50.9947V50.811L31.9926 50.9258Z" fill="#969DA1"/>
<path d="M31.0402 55.1504V54.8519L30.791 55.0127L31.0402 55.1504Z" fill="#969DA1"/>
<path d="M30.7016 55.0586L30.543 55.1504L31.0414 55.4489L30.9508 55.2193L30.7016 55.0586Z" fill="#969DA1"/>
<path d="M31.1543 49.9385C30.8598 49.9844 30.8145 49.617 30.8145 49.4333L30.3613 49.8007V50.5354L31.1543 50.9946V49.9385Z" fill="#969DA1"/>
<path d="M31.4497 52.8774V51.362C31.427 51.362 31.4044 51.362 31.3817 51.362L31.1778 51.2013L30.3848 51.6605V52.2115L31.4497 52.8774Z" fill="#969DA1"/>
<path d="M30.3613 53.704V53.727L31.4489 54.3699V53.0612L30.3613 53.704Z" fill="#969DA1"/>
<path d="M34.9379 52.579L34.7793 52.6938L35.2778 52.9923L35.1871 52.7397L34.9379 52.579Z" fill="#969DA1"/>
<path d="M35.2785 52.3953L35.0293 52.533L35.2785 52.6937V52.3953Z" fill="#969DA1"/>
<path d="M35.277 50.834L34.3027 51.408V51.5458L35.277 52.1198V50.834Z" fill="#969DA1"/>
<path d="M34.3027 49.5711V50.0762L35.277 50.6502V49.2267L34.6653 49.5711C34.5973 49.617 34.552 49.5711 34.552 49.5022V49.4104L34.3027 49.5711Z" fill="#969DA1"/>
<path d="M35.277 50.6503L34.3027 50.0763V51.2013L35.277 50.6503Z" fill="#EEF5F9"/>
<path opacity="0.5" d="M35.2782 49.2267L34.6664 49.5711C34.5985 49.617 34.5531 49.5711 34.5531 49.5022V49.4104L34.2812 49.5711V50.0762V51.2242L35.2555 50.6502V49.2267H35.2782Z" fill="url(#paint3_linear)"/>
<path d="M35.277 52.1198L34.3027 51.5458V52.6938L35.277 52.1198Z" fill="#EEF5F9"/>
<path opacity="0.5" d="M35.277 50.834L34.3027 51.408V51.5458V52.6938L35.277 52.1198V50.834Z" fill="url(#paint4_linear)"/>
<path d="M35.2774 52.6937L35.0281 52.533L34.9375 52.5789L35.1867 52.7396L35.2774 52.6937Z" fill="#EEF5F9"/>
<path d="M31.1543 51.0177L30.3613 50.5585V51.4769L31.1543 51.0177Z" fill="#EEF5F9"/>
<path opacity="0.5" d="M30.8145 49.4563L30.3613 49.8237V50.5584V51.4768L31.1543 51.0176V49.9614C30.8598 49.9844 30.8145 49.617 30.8145 49.4563Z" fill="url(#paint5_linear)"/>
<path d="M30.3613 52.2115L31.4489 52.8774L30.3613 53.5203V52.2115Z" fill="#EEF5F9"/>
<path opacity="0.5" d="M31.3817 51.362L31.1778 51.2013L30.3848 51.6605V52.2115V53.5203L31.4723 52.8774V51.362C31.427 51.385 31.4044 51.385 31.3817 51.362Z" fill="url(#paint6_linear)"/>
<path d="M30.3613 53.7269L31.4489 54.3698L30.3613 55.0127V53.7269Z" fill="#EEF5F9"/>
<path opacity="0.5" d="M30.3613 53.704V53.727V55.0128L31.4489 54.3699V53.0612L30.3613 53.704Z" fill="url(#paint7_linear)"/>
<path d="M30.7918 55.0127L31.041 55.1505L30.9504 55.2193L30.7012 55.0586L30.7918 55.0127Z" fill="#EEF5F9"/>
<path d="M30.452 55.5179L30.3613 55.449V55.5638L30.452 55.5179Z" fill="#EEF5F9"/>
<path d="M31.3582 54.9668L31.2676 54.9209V55.0357L31.3582 54.9668Z" fill="#EEF5F9"/>
<path d="M34.1677 52.7855L31.6074 51.2931V54.2779L34.1677 52.7855Z" fill="#EEF5F9"/>
<path d="M34.2586 53.2906L33.9867 53.1299L33.8281 53.2447L34.3493 53.5432L34.2586 53.2906Z" fill="#969DA1"/>
<path d="M34.2582 53.2908L33.9863 53.13L34.077 53.0841L34.3489 53.2448L34.2582 53.2908Z" fill="#EEF5F9"/>
<path d="M34.3481 53.2448V52.9463L34.0762 53.084L34.3481 53.2448Z" fill="#969DA1"/>
<path d="M31.3809 47.2981V50.3288L31.97 50.6732L34.5756 49.1579L31.3809 47.2981Z" fill="#EEF5F9"/>
<path d="M31.6981 50.9718L31.3809 50.7881V50.9488L31.5168 51.0636L31.6981 50.9718Z" fill="#EEF5F9"/>
<path d="M31.6981 50.9717L31.3809 50.7881V50.3289L31.97 50.6733L31.6981 50.9717Z" fill="#D5DCE0"/>
<path opacity="0.5" d="M31.3809 47.2981V50.3288V50.788V50.9488L31.5168 51.0636L31.6981 50.9717L31.97 50.6732L34.5756 49.1579L31.3809 47.2981Z" fill="url(#paint8_linear)"/>
<path d="M34.0091 52.7856L31.7887 54.0943C31.7434 54.1173 31.7207 54.0943 31.7207 54.0484V51.408C31.7207 51.3621 31.7434 51.3162 31.7887 51.2932C31.834 51.2702 31.8567 51.2932 31.8567 51.3391V53.9107L33.9412 52.6938V50.1222C33.9412 50.0763 33.9638 50.0304 34.0091 50.0074C34.0544 49.9845 34.0771 50.0074 34.0771 50.0533V52.6938C34.0771 52.7167 34.0318 52.7626 34.0091 52.7856Z" fill="#0080FF"/>
<path d="M34.0091 52.7856L31.7887 54.0943C31.7434 54.1173 31.7207 54.0943 31.7207 54.0484V51.408C31.7207 51.3621 31.7434 51.3162 31.7887 51.2932C31.834 51.2702 31.8567 51.2932 31.8567 51.3391V53.9107L33.9412 52.6938V50.1222C33.9412 50.0763 33.9638 50.0304 34.0091 50.0074C34.0544 49.9845 34.0771 50.0074 34.0771 50.0533V52.6938C34.0771 52.7167 34.0318 52.7626 34.0091 52.7856Z" fill="#96D150"/>
<path d="M31.7215 51.408C31.7215 51.362 31.7441 51.3161 31.7895 51.2932C31.8348 51.2702 31.8574 51.2932 31.8574 51.3391V53.9106L33.9419 52.6937V50.1222C33.9419 50.0763 33.9646 50.0303 34.0099 50.0074C34.0326 50.0074 34.0326 50.0074 34.0552 50.0074L33.9646 49.9615V49.9844L33.806 50.0763V49.8926L32.3559 50.7421V50.9258L32.1973 51.0176V50.8339L32.016 50.9487L31.8121 51.2013C31.7895 51.2243 31.7895 51.2243 31.7668 51.2472L31.6309 51.3161V53.8647L31.7441 53.9336V51.408H31.7215Z" fill="url(#paint9_linear)"/>
<path d="M31.7215 54.0483V51.4079C31.7215 51.362 31.7441 51.3161 31.7895 51.2931C31.8121 51.2931 31.8121 51.2931 31.8348 51.2931L31.7441 51.2242L31.6309 51.2931V54.0254L31.7441 54.0943C31.7215 54.0713 31.7215 54.0713 31.7215 54.0483Z" fill="#447120"/>
<path opacity="0.5" d="M33.9646 49.7778V49.9614L33.806 50.0533V49.8696L32.3559 50.7191V50.9028L32.1973 50.9947V50.811L32.016 50.9258L31.8121 51.1783C31.7895 51.2013 31.7895 51.2013 31.7668 51.2243L31.6309 51.2931V54.278L34.1912 52.7856V49.663L33.9646 49.7778Z" fill="url(#paint10_linear)"/>
<path d="M8.58636 2.70926V2.13525L8.08789 2.43374L8.58636 2.70926Z" fill="#D4DBDF"/>
<path d="M7.15905 2.43377V1.30872L6.16211 1.88272L7.15905 2.43377Z" fill="#D4DBDF"/>
<path opacity="0.5" d="M7.15905 1.30872L6.16211 1.88272L7.15905 2.43377L7.56688 2.68633L7.83878 2.54857L8.3599 2.02048L7.15905 1.30872Z" fill="url(#paint11_linear)"/>
<path d="M5.8903 1.69904V0.551025L4.91602 1.12503L5.8903 1.69904Z" fill="#D4DBDF"/>
<path d="M6.97819 1.21687L5.89062 0.551025V1.69904L6.00391 1.79088L6.97819 1.21687Z" fill="#969DA1"/>
<path opacity="0.5" d="M5.8903 0.551025L4.91602 1.12503L5.8903 1.69904L6.00358 1.79088L6.97787 1.21687L5.8903 0.551025Z" fill="url(#paint12_linear)"/>
<path d="M5.93679 5.83194C5.80085 5.7401 5.5063 5.53346 5.68756 5.28089L4.78125 4.75281V5.67122L5.41567 6.03858L5.93679 5.83194Z" fill="#969DA1"/>
<path d="M4.62274 4.63798L4.57742 4.36246C4.57742 4.3395 4.57742 4.31654 4.60008 4.29358L3.30859 3.53589V4.82166L3.80706 5.12014L4.62274 4.63798Z" fill="#969DA1"/>
<path d="M3.14929 3.44403L2.03906 2.80115V4.08692H2.06172L3.14929 3.44403Z" fill="#969DA1"/>
<path d="M2.03874 2.80115L0.951172 3.44403L2.03874 4.08692V2.80115Z" fill="#D4DBDF"/>
<path opacity="0.5" d="M2.03874 2.80115L0.951172 3.44403L2.03874 4.08692H2.0614L3.14897 3.44403L2.03874 2.80115Z" fill="url(#paint13_linear)"/>
<path d="M3.3071 3.53589L2.24219 4.17878L3.3071 4.82166V3.53589Z" fill="#D4DBDF"/>
<path opacity="0.5" d="M4.62124 4.63798L4.57593 4.36246C4.57593 4.3395 4.57593 4.31654 4.59859 4.29358L3.3071 3.53589L2.24219 4.17878L3.3071 4.82166L3.80557 5.12014L4.62124 4.63798Z" fill="url(#paint14_linear)"/>
<path d="M4.75864 4.75281L3.98828 5.21201L4.75864 5.67122V4.75281Z" fill="#D4DBDF"/>
<path opacity="0.5" d="M5.68761 5.28089L4.7813 4.75281L3.98828 5.21201L4.7813 5.67122L5.41572 6.03858L5.9595 5.83194C5.8009 5.7401 5.50635 5.53346 5.68761 5.28089Z" fill="url(#paint15_linear)"/>
<path d="M7.2275 2.89289L7.43142 2.77809L4.75781 1.2168V4.20163L4.89376 4.13275C4.91642 4.13275 4.93907 4.10979 4.96173 4.10979L5.27894 4.04091L5.4602 3.9261L5.3016 3.83426L5.4602 3.74242L5.6188 3.83426L7.0689 2.98473L6.91029 2.89289L7.0689 2.80105L7.2275 2.89289Z" fill="#969DA1"/>
<path d="M9.04102 4.33946L9.38088 4.52314V2.34192L9.26759 2.4108L9.1543 2.47968L9.04102 2.5256V4.10986L9.1543 4.17874L9.04102 4.24762V4.33946Z" fill="#D4DBDF"/>
<path d="M8.42893 4.10995V2.89305L8.06641 2.66345V2.68641V4.31659L8.42893 4.10995Z" fill="#969DA1"/>
<path d="M8.58789 4.06391L8.81447 4.20168L8.99573 4.08687L9.04105 4.10983V2.52558L8.85978 2.43374L8.88244 2.31894L8.58789 2.13525V2.70926L8.65586 2.75518L8.58789 2.8011V4.06391Z" fill="#969DA1"/>
<path d="M8.54102 4.04102L8.65431 4.1099V2.75525L8.42773 2.89301V4.1099L8.54102 4.04102Z" fill="#D4DBDF"/>
<path d="M2.19727 2.70921L4.75758 1.2168V4.20163L2.19727 2.70921Z" fill="#D4DBDF"/>
<path d="M5.43674 4.20166C5.41409 4.20166 5.41408 4.20166 5.39143 4.22462L5.07422 4.2935V4.68382L5.43674 4.89047V4.20166Z" fill="#C7CED2"/>
<path d="M4.89453 4.38542L5.07579 4.29358V4.66094L4.93985 4.59206L4.89453 4.38542Z" fill="#D4DBDF"/>
<path opacity="0.5" d="M9.26747 2.41091L9.15418 2.47979L9.04089 2.52571L8.85963 2.41091L8.88229 2.29611L8.58774 2.11243L8.08927 2.38795L8.58774 2.66347L8.65571 2.70939L8.58774 2.75531L8.42913 2.84715L8.06661 2.64051L5.43832 4.20181C5.41566 4.20181 5.41566 4.20181 5.393 4.22477L5.07579 4.29365L4.89453 4.40845L4.91719 4.61509L5.07579 4.70693L5.43832 4.91357V6.17639L8.06661 4.93653V4.33957L8.42913 4.13293L8.54242 4.06405L8.65571 4.13293L8.81431 4.22477L8.99557 4.10997L9.04089 4.13293L9.15418 4.20181L9.04089 4.27069V4.36253L9.38076 4.54621V2.36499L9.26747 2.41091Z" fill="url(#paint16_linear)"/>
<path d="M13.6388 4.43139L11.0332 2.91602V3.23746L11.8036 3.69666L11.2824 3.99515L11.3278 4.08699L11.0332 4.27067V5.85493L11.3051 5.80901L13.6388 4.43139Z" fill="#969DA1"/>
<path d="M11.3516 2.91602L13.64 4.24771V3.35226L12.8696 2.91602H11.3516Z" fill="#969DA1"/>
<path d="M11.0332 3.48999V3.88031L11.3504 3.69663L11.0332 3.48999Z" fill="#969DA1"/>
<path d="M11.3051 5.80889L11.8036 5.5104V3.67358L11.2825 3.99503L11.3505 4.08687L10.9426 4.33943L10.8293 4.27055L10.6481 4.36239L10.7614 4.43127L10.3535 4.68383V5.67112L10.8293 5.94665L10.92 5.90073C10.9426 5.90073 10.9653 5.87777 10.9879 5.87777L11.3051 5.80889Z" fill="#D4DBDF"/>
<path d="M11.3508 3.69659L10.6711 3.2833L10.4899 3.3981L10.3313 3.30626L10.5125 3.19146L10.3086 3.07666V4.29355L11.3508 3.69659Z" fill="#969DA1"/>
<path d="M5.32384 0.642942V0.344459L5.14258 0.137817V0.734783L5.32384 0.642942Z" fill="#969DA1"/>
<path d="M4.37345 1.19397V0.895485L4.21484 0.688843V1.28581L4.37345 1.19397Z" fill="#969DA1"/>
<path d="M1.08751 3.0996V2.80111L0.90625 2.61743V3.2144L1.08751 3.0996Z" fill="#969DA1"/>
<path d="M4.46289 0.826538V1.12502L4.71213 0.98726L4.46289 0.826538Z" fill="#969DA1"/>
<path d="M1.17773 2.75525V3.05373L1.42697 2.91597L1.17773 2.75525Z" fill="#969DA1"/>
<path d="M5.39258 0.275513V0.573996L5.66447 0.436234L5.39258 0.275513Z" fill="#969DA1"/>
<path d="M5.39219 0.275513L5.32422 0.344393V0.619916L5.39219 0.573996V0.275513Z" fill="#D4DBDF"/>
<path d="M4.46368 0.826538L4.37305 0.895419V1.1939L4.46368 1.12502V0.826538Z" fill="#D4DBDF"/>
<path d="M1.17852 2.75525V3.05373L1.08789 3.09965V2.80117L1.17852 2.75525Z" fill="#D4DBDF"/>
<path d="M0.567193 3.12256V3.2144L0.476562 3.16848L0.567193 3.12256Z" fill="#D4DBDF"/>
<path d="M1.49493 2.57153V2.68633L1.4043 2.61745L1.49493 2.57153Z" fill="#D4DBDF"/>
<path d="M4.78009 0.642822V0.757623L4.68945 0.711703L4.78009 0.642822Z" fill="#D4DBDF"/>
<path d="M7.09131 2.7323L7.06865 2.75526C7.02334 2.77822 6.97802 2.77822 6.93271 2.75526L4.73491 1.46948L2.65041 2.68637L4.8482 3.97215C4.89352 3.99511 4.89352 4.01807 4.8482 4.04103C4.80289 4.06399 4.75757 4.06399 4.71225 4.04103L2.44649 2.70933C2.42383 2.70933 2.42383 2.68637 2.42383 2.66341V2.82414L4.75757 4.20175L4.89352 4.13287C4.91617 4.13287 4.93883 4.10991 4.96149 4.10991L5.2787 4.04103L5.45996 3.92623L5.30135 3.83439L5.45996 3.74255L5.61856 3.83439L7.06865 2.98486L6.91005 2.89302L7.06865 2.80118H7.09131V2.7323Z" fill="url(#paint17_linear)"/>
<path d="M4.87086 4.15586V4.04105C4.87086 4.06401 4.87086 4.06401 4.8482 4.06401C4.80289 4.08697 4.75757 4.08697 4.71226 4.06401L2.44649 2.73232C2.42383 2.73232 2.42383 2.70936 2.42383 2.6864V2.84712L4.75757 4.20178L4.87086 4.15586Z" fill="#447120"/>
<path d="M2.67305 2.6864L2.65039 2.70936L3.66999 3.30633L2.67305 2.6864Z" fill="#447120"/>
<path opacity="0.5" d="M4.75758 1.2168L2.19727 2.70921L4.75758 4.20163L4.89353 4.13275C4.91619 4.13275 4.93885 4.10979 4.9615 4.10979L5.27871 4.04091L5.45997 3.9261L5.30137 3.83426L5.45997 3.74242L5.61858 3.83426L7.06867 2.98473L6.91006 2.89289L7.06867 2.80105L7.20461 2.89289L7.40853 2.77809L4.75758 1.2168Z" fill="url(#paint18_linear)"/>
<path d="M4.66655 1.35468L2.4461 2.66341C2.40078 2.68637 2.40078 2.70933 2.4461 2.73229L4.71186 4.06399C4.75718 4.08695 4.80249 4.08695 4.84781 4.06399C4.89313 4.04103 4.89313 4.01807 4.84781 3.99511L2.65001 2.70933L4.73452 1.49244L6.93232 2.77822C6.97763 2.80118 7.02295 2.80118 7.06826 2.77822C7.11358 2.75525 7.11358 2.73229 7.06826 2.70933L4.80249 1.37764C4.77984 1.33172 4.71186 1.33172 4.66655 1.35468Z" fill="#96D150"/>
<path d="M10.127 2.20416L10.9653 2.68633L11.7356 2.25009L10.127 1.30872V2.20416Z" fill="#969DA1"/>
<path opacity="0.5" d="M10.1278 1.30872L9.69727 1.56128L10.0145 2.13528L10.1278 2.20416L10.9661 2.68633L11.7365 2.25009L10.1278 1.30872Z" fill="url(#paint19_linear)"/>
<path d="M11.8945 3.23737L13.7978 4.33946L13.8657 4.3165L13.7298 4.22466L14.4095 3.83433V3.81137L11.8945 2.34192V3.23737Z" fill="#969DA1"/>
<path d="M15.0907 4.29362L14.9547 4.20178V4.10994L14.6602 3.94922V4.52322H14.6828L15.0907 4.29362Z" fill="#969DA1"/>
<path d="M16.2684 4.89051L15.3848 4.36243V5.5334L15.5207 5.62524L16.2684 4.89051Z" fill="#969DA1"/>
<path d="M11.125 2.77816L11.8954 3.23737V2.34192L11.125 2.77816Z" fill="#D4DBDF"/>
<path opacity="0.5" d="M14.4104 3.81137L11.8954 2.34192L11.125 2.77816L11.8954 3.23737L13.7986 4.33946L13.8666 4.3165L13.7306 4.22466L14.4104 3.83433V3.81137Z" fill="url(#paint20_linear)"/>
<path d="M14.1836 4.22474L14.6594 3.94922V4.52322L14.1836 4.22474Z" fill="#D4DBDF"/>
<g opacity="0.5">
<path opacity="0.5" d="M14.954 4.20178V4.10994L14.6594 3.94922L14.1836 4.22474L14.6594 4.52322H14.6821L15.0899 4.29362L14.954 4.20178Z" fill="url(#paint21_linear)"/>
</g>
<path d="M14.3867 4.95939L15.3837 4.36243V5.5334L14.3867 4.95939Z" fill="#D4DBDF"/>
<path opacity="0.5" d="M15.3837 4.36243L14.3867 4.95939L15.3837 5.5334L15.5196 5.62524L16.2673 4.89051L15.3837 4.36243Z" fill="url(#paint22_linear)"/>
<path d="M10.6715 3.28333L10.4902 3.39813V4.20174L10.6715 4.08693V3.28333Z" fill="#D4DBDF"/>
<path d="M11.5094 7.82951L12.0079 7.62287C11.8719 7.55398 11.5547 7.32438 11.804 7.09478L10.7617 6.47485V7.3703L11.5094 7.82951Z" fill="#969DA1"/>
<path d="M10.672 6.35999L10.5814 6.15335C10.5587 6.13039 10.5814 6.08447 10.6267 6.06151H10.6494L8.51953 4.82166V6.08447L9.85634 6.86512L10.672 6.35999Z" fill="#969DA1"/>
<path d="M7.43164 5.41863L8.49655 4.79871V6.06152L7.43164 5.41863Z" fill="#D4DBDF"/>
<path opacity="0.5" d="M10.5811 6.1304C10.5584 6.10744 10.5811 6.06152 10.6264 6.03856H10.649L8.51921 4.79871L7.43164 5.41863L8.51921 6.03856L9.85601 6.81921L10.6717 6.33704L10.5811 6.1304Z" fill="url(#paint23_linear)"/>
<path d="M9.99219 6.93406L10.7626 6.47485V7.3703L9.99219 6.93406Z" fill="#D4DBDF"/>
<path opacity="0.5" d="M11.8048 7.09478L10.7626 6.47485L9.99219 6.93406L10.7626 7.39326L11.5103 7.82951L12.0087 7.62287C11.8728 7.53102 11.5556 7.32438 11.8048 7.09478Z" fill="url(#paint24_linear)"/>
<path d="M10.3324 5.67115V4.68386L10.1738 4.63794V5.57931L10.3324 5.67115Z" fill="#969DA1"/>
<path d="M8.6543 4.70686L9.65124 5.28087V4.95943L8.54102 4.29358V4.61502L8.6543 4.70686Z" fill="#969DA1"/>
<path d="M8.26953 4.4543L8.54142 4.61502V4.29358L8.26953 4.4543Z" fill="#D4DBDF"/>
<path d="M9.65234 4.95938V5.28083L10.1735 5.57931V4.63794L9.65234 4.95938Z" fill="#D4DBDF"/>
<path d="M8.22424 4.70679L7.81641 4.45422V4.93639L8.22424 4.70679Z" fill="#969DA1"/>
<path d="M10.8746 5.90081C10.8746 5.90081 10.8973 5.90081 10.9199 5.87785V4.33951L10.8066 4.27063V5.94673L10.8746 5.90081Z" fill="#969DA1"/>
<path d="M11.4188 5.99256L11.1016 6.03849V6.40585L11.4867 6.17625V5.9696C11.4641 5.9696 11.4414 5.9696 11.4188 5.99256Z" fill="#969DA1"/>
<path d="M14.0938 4.45422V4.66087L14.275 4.54606L14.0938 4.45422Z" fill="#969DA1"/>
<path d="M11.4863 5.9696L14.092 4.45422V4.66087L11.4863 6.17624V5.9696Z" fill="#D4DBDF"/>
<path d="M11.1024 6.03845V6.40582L10.9891 6.33694L10.8984 6.15325L11.1024 6.03845Z" fill="#D4DBDF"/>
<path opacity="0.5" d="M11.4864 5.96961C11.4637 5.96961 11.4637 5.99257 11.441 5.99257L11.1012 6.03849L10.9199 6.13033L10.9879 6.31401L11.1012 6.38289L11.4864 6.15329L14.092 4.63792V4.43127L11.4864 5.96961Z" fill="url(#paint25_linear)"/>
<path d="M16.6764 4.86756L10.1283 1.0332L8.90483 1.74497L10.7174 2.80114L10.287 3.0537L10.5135 3.19146L10.3323 3.30627L10.4909 3.39811L10.6721 3.28331L11.3519 3.67363L9.62988 4.68388L8.95015 4.29356L9.13141 4.17876L8.97281 4.08691L8.79155 4.20171L8.51965 4.04099L7.79461 4.45428L8.20245 4.68388L7.18285 5.28085L6.82033 5.05124L6.59375 5.18901L11.4652 8.03607L12.9152 7.43911L12.734 7.27839L12.6887 7.32431L11.2839 6.49774L13.9348 4.93644L15.5662 5.90077L16.6764 4.86756ZM9.9924 6.93398L10.7628 6.47478L11.805 7.0947C11.5331 7.32431 11.873 7.55391 12.0089 7.62279L11.5105 7.82943L9.9924 6.93398ZM10.6495 6.03853C10.5815 6.06149 10.5815 6.10741 10.5815 6.13037L10.6721 6.33702L9.85646 6.81918L7.45474 5.41861L8.54231 4.79868L10.6495 6.03853ZM10.8987 6.15333L11.08 6.06149L11.4198 5.99261C11.4425 5.99261 11.4652 5.96965 11.4878 5.96965L14.0708 4.45428H14.0934L14.2747 4.54612L11.1026 6.4059L10.9893 6.33702L10.8987 6.15333ZM13.6403 4.43132L11.2839 5.80893L10.944 5.87781C10.9214 5.87781 10.8987 5.90077 10.8761 5.90077L10.7854 5.94669L8.6556 4.70684L8.24776 4.47724L8.51965 4.31652L9.62988 4.9594L10.151 4.66092L10.3096 4.68388L10.7174 4.43132L10.6495 4.36244L10.8081 4.2706L10.9214 4.33948L11.3292 4.08691L11.2612 3.99507L11.7824 3.67363L10.7174 3.0537L10.9893 2.89298L13.6403 4.43132ZM11.737 2.2501L10.9667 2.7093L10.0151 2.15825C10.0604 2.11233 10.1283 2.02049 10.1283 1.95161C10.1283 1.85977 9.81114 1.65313 9.6752 1.58425L10.1283 1.33169L11.737 2.2501ZM14.4333 3.81139L13.7309 4.22468L13.8669 4.29356L13.7989 4.33948L11.1253 2.77818L11.8956 2.31898L14.4333 3.81139ZM14.9544 4.10987V4.20171L15.0904 4.2706L14.6825 4.52316L14.3427 4.31652L14.2294 4.24764L14.2067 4.22468L14.6825 3.94915L14.9544 4.10987ZM16.2686 4.89052L15.5209 5.62525L14.388 4.9594L15.3849 4.3854L16.2686 4.89052Z" fill="#FBFFFF"/>
<path d="M9.81101 2.06641C9.72038 2.13529 9.58443 2.04345 9.58443 2.04345L9.4938 2.08937L9.67507 2.18121L9.53912 2.27305L9.31254 2.13529L9.1766 2.22713L8.63281 1.90569L8.9047 1.74497L9.19925 1.90569L9.28989 1.85977C9.28989 1.85977 9.15394 1.79089 9.26723 1.72201C9.35786 1.65313 9.60709 1.69905 9.74304 1.79089C9.85633 1.85977 9.9243 1.99753 9.81101 2.06641Z" fill="#5B686C"/>
<path d="M11.306 5.80891L13.3452 4.61498V4.38538C13.3452 4.38538 13.3452 4.40834 13.3226 4.40834L10.8982 5.83187C10.8529 5.85483 10.8076 5.85483 10.7623 5.83187L8.47383 4.50018C8.45117 4.50018 8.45117 4.47722 8.45117 4.45426V4.56906L8.67775 4.70682L10.8076 5.94667L10.8982 5.90075C10.9209 5.90075 10.9435 5.87779 10.9662 5.87779L11.306 5.80891Z" fill="url(#paint26_linear)"/>
<path d="M11.804 5.14311L13.1181 4.36247L10.8977 3.05373C10.875 3.05373 10.875 3.03077 10.875 3.00781V3.09965L11.804 3.6507V5.14311Z" fill="#447120"/>
<path opacity="0.5" d="M11.0345 2.91602V3.23746L11.8049 3.69666L11.2838 4.01811L11.3518 4.10995L11.0345 4.29363L10.9213 4.36251L10.808 4.29363L10.6494 4.36251L10.7627 4.43139L10.3548 4.68395L10.1962 4.66099L9.67509 4.95948L8.56486 4.31659L8.29297 4.47731L8.56486 4.63803L8.70081 4.70691L9.67509 5.28092L10.1962 5.5794L10.3548 5.67124L10.8306 5.94677L10.9213 5.90085C10.9439 5.90085 10.9666 5.87789 10.9892 5.87789L11.0572 5.85493L11.3291 5.80901L13.6855 4.43139L11.0345 2.91602Z" fill="url(#paint27_linear)"/>
<path d="M10.8978 3.00782C10.8525 3.03078 10.8525 3.05374 10.8978 3.0767L13.1183 4.38543L10.8298 5.74009L8.60939 4.43135C8.56407 4.40839 8.51876 4.40839 8.47344 4.43135C8.42812 4.45431 8.42812 4.47728 8.47344 4.50024L10.7619 5.83193C10.8072 5.85489 10.8525 5.85489 10.8978 5.83193L13.3222 4.40839C13.3675 4.38543 13.3675 4.36247 13.3222 4.33951L11.0338 3.00782C10.9884 2.98486 10.9431 2.98486 10.8978 3.00782Z" fill="#96D150"/>
<path d="M33.5113 44.7494L33.3301 44.9561L34.6895 45.7597L34.9841 45.576L35.0521 45.6678L35.5732 45.3694V46.2878L35.8451 46.4485V43.3718L33.5113 44.7494Z" fill="#969DA1"/>
<path d="M35.5723 46.2878V46.6093L35.8442 46.4486L35.5723 46.2878Z" fill="#EEF5F9"/>
<path d="M35.6396 46.4715V43.854L33.3965 45.1627L35.6623 46.4944C35.6396 46.4944 35.6396 46.4715 35.6396 46.4715Z" fill="#447120"/>
<path d="M35.5502 40.9151V42.8438L32.8993 44.4051V42.7749L32.9673 42.729L32.922 42.4994L31.6758 43.4867V49.2038L31.9024 49.066V48.6298L32.922 48.0328V48.492L33.647 48.0787V47.7573L33.8283 47.6425V47.4588L33.647 47.5736V46.7929L35.369 45.7827V46.5633L35.1877 46.6781V46.8618L35.369 46.747V46.9996L35.7995 46.747V48.8594L37.023 48.1476V40.5018L35.5502 40.9151ZM31.9024 43.5555L32.3102 43.2341C32.3102 43.3948 32.3329 43.7851 32.6727 43.6703V44.8872L31.9024 45.3464V43.5555ZM32.9899 47.7113L31.9024 48.3313V45.5072L32.718 45.025L32.854 45.2087C32.8766 45.2316 32.8993 45.2316 32.9446 45.2087H32.9673V47.7113H32.9899ZM32.8993 44.7724V44.6347L36.0714 42.7749V42.9815V43.0045L33.4884 44.5199C33.4657 44.5199 33.4431 44.5428 33.4431 44.5658L33.2165 44.8413L33.0352 44.9332L32.8993 44.7724ZM35.8448 46.4485L35.5729 46.6093V45.3694L35.0518 45.6908L35.0065 45.599L34.5986 45.8516V45.9893L34.44 46.0812V45.9204L33.9869 46.15L33.9415 46.3108L33.4204 46.6093V47.895L33.1485 48.0557V47.5965V45.0939L33.2392 45.048C33.2618 45.048 33.2845 45.025 33.2845 45.002L33.5111 44.7265L35.8675 43.3489L35.8448 46.4485ZM36.7738 48.0098L36.3206 48.2624C36.3206 48.1246 36.3206 47.7343 36.23 47.6884C36.162 47.6425 36.0714 47.6654 36.0034 47.6884V46.5863L36.7738 46.1271V48.0098ZM36.7738 45.9664L36.0034 46.4256V43.303L36.0714 43.2571V43.4178L36.7738 43.0045V45.9664ZM36.7738 42.729L36.2979 43.0045V42.9815V42.8438V42.4305L36.7058 42.1779V42.3386L36.7738 42.3846V42.729ZM36.7738 41.8794L35.7768 42.4535V41.1218L36.7738 40.8233V41.8794Z" fill="#D4DBDF"/>
<path d="M35.3458 46.9996V46.724L35.1645 46.8388V46.6552L35.3458 46.5404V46.4944L34.7341 46.1271L33.6465 46.77V47.5506L33.8277 47.4358V47.6195L33.7371 47.6654L35.7763 48.8593V46.747L35.3458 46.9996Z" fill="#B0B7BB"/>
<path d="M32.8984 44.6577L33.193 44.8184L33.4196 44.5429L33.2383 44.4281L32.8984 44.6347V44.6577Z" fill="#BDC4C8"/>
<path d="M33.1484 47.6194V47.7572L33.4203 47.9179V46.6322L33.1484 46.4714V47.6194Z" fill="#969DA1"/>
<path d="M35.1637 46.8389V46.6552L35.345 46.5404V45.7598L34.3027 46.3797L35.345 46.9996V46.7241L35.1637 46.8389Z" fill="#969DA1"/>
<path d="M34.4173 45.9204L33.1484 45.1857V45.6678L33.9868 46.15L34.4173 45.9204Z" fill="#EEF5F9"/>
<path d="M33.9872 46.15L34.395 45.8974V46.0352L34.5083 45.9663L34.5536 45.9434V45.8056L34.9614 45.553L35.0068 45.6449L35.5279 45.3234L33.9645 44.405L33.466 44.7035L33.2395 44.979C33.2168 45.002 33.2168 45.025 33.1941 45.025L33.1035 45.0709V46.4255L33.3754 46.5863L33.8965 46.2878L33.9872 46.15Z" fill="#EEF5F9"/>
<path d="M33.5336 44.7266L33.511 44.7495L33.2844 45.025L33.2617 45.048L34.5985 45.8287L35.0064 45.5761L33.5336 44.7266Z" fill="#EEF5F9"/>
<path d="M33.1484 45.6678V45.8515L33.9415 46.3107L33.9868 46.15L33.1484 45.6678Z" fill="#B0B7BB"/>
<path d="M33.2383 45.048L33.2156 45.0709L33.125 45.1169L34.5524 45.9434V45.8057L33.2383 45.048Z" fill="#969DA1"/>
<path d="M32.5137 48.2395L32.9215 48.4691V48.0099L32.5137 48.2395Z" fill="#969DA1"/>
<path d="M31.9023 44.4281L32.6727 44.8873V43.6704C32.3328 43.7852 32.3102 43.3949 32.3102 43.2341L31.9023 43.5556V44.4281Z" fill="#969DA1"/>
<path d="M32.9661 45.2087C32.9208 45.2317 32.8981 45.2317 32.8755 45.2087L32.7395 45.025L32.7168 45.048L31.9238 45.5072V47.0685L33.0114 47.6884L32.9661 45.2087Z" fill="#969DA1"/>
<path d="M32.9899 47.7114L31.9023 47.0685V48.3313L32.9899 47.7114Z" fill="#EEF5F9"/>
<path d="M31.9023 44.4281V45.3236L32.6727 44.8643L31.9023 44.4281Z" fill="#EEF5F9"/>
<path d="M36.0699 43.2341L36.002 43.2801V46.4026L36.7723 45.9664V42.9816L36.0699 43.3949V43.2341Z" fill="#969DA1"/>
<path d="M36.2969 42.4305V42.8438V42.9816V43.0046L36.7727 42.729V42.3846L36.7047 42.3387V42.178L36.2969 42.4305Z" fill="#969DA1"/>
<path d="M36.252 47.7113C36.2746 47.7343 36.2973 47.8032 36.3199 47.872L36.6825 48.0787L36.7957 48.0098V46.15L36.0254 46.6092V47.7113C36.0707 47.6884 36.184 47.6654 36.252 47.7113Z" fill="#969DA1"/>
<path d="M35.7754 42.4534L36.7723 41.8794V40.8232L35.7754 41.1217V42.4534Z" fill="#969DA1"/>
<path d="M32.0383 45.2545L31.9023 45.1857V45.3234L32.0383 45.2545Z" fill="#EEF5F9"/>
<path d="M36.7723 48.0099L36.002 47.5507V47.6884C36.0699 47.6655 36.1606 47.6655 36.2285 47.6884C36.3192 47.7343 36.3192 48.1247 36.3192 48.2624L36.7723 48.0099Z" fill="#EEF5F9"/>
<path d="M36.002 45.5072V46.4027L36.7723 45.9664L36.002 45.5072Z" fill="#EEF5F9"/>
<path d="M36.7727 42.7289L36.2969 42.4304V42.8437V42.9815V43.0044L36.7727 42.7289Z" fill="#EEF5F9"/>
<path d="M36.7723 41.8794L35.7754 41.3054V42.4534L36.7723 41.8794Z" fill="#EEF5F9"/>
<path opacity="0.5" d="M36.7723 48.0098L36.3192 48.2624C36.3192 48.1246 36.3192 47.7343 36.2285 47.6884C36.1606 47.6425 36.0699 47.6654 36.002 47.6884V46.5863L36.7723 46.1271V48.0098Z" fill="url(#paint28_linear)"/>
<path opacity="0.5" d="M32.9899 47.7114L31.9023 48.3313V45.5072L32.718 45.025L32.854 45.2087C32.8766 45.2317 32.8993 45.2317 32.9446 45.2087H32.9673V47.7114H32.9899Z" fill="url(#paint29_linear)"/>
<path opacity="0.5" d="M36.7723 45.9664L36.002 46.4256V43.303L36.0699 43.2571V43.4178L36.7723 43.0045V45.9664Z" fill="url(#paint30_linear)"/>
<path d="M35.3454 46.5403L34.6656 46.15L34.4844 46.2648L35.1641 46.6551L35.3454 46.5403Z" fill="#EEF5F9"/>
<path d="M33.1484 47.7573V48.0788L33.4203 47.918L33.1484 47.7573Z" fill="#EEF5F9"/>
<path d="M36.0699 42.9815V42.9586V42.7749L35.8887 42.8667L36.0699 42.9815Z" fill="#969DA1"/>
<path d="M35.8892 42.8668L33.2383 44.4281L33.4195 44.5429L36.0705 42.9816L35.8892 42.8668Z" fill="#EEF5F9"/>
<path d="M33.193 44.8183L33.0117 44.9102L32.8984 44.7724V44.6576L33.193 44.8183Z" fill="#EEF5F9"/>
<path opacity="0.5" d="M31.9023 43.5556L32.3102 43.2341C32.3102 43.3949 32.3328 43.7852 32.6727 43.6704V44.8873L31.9023 45.3465V43.5556Z" fill="url(#paint31_linear)"/>
<path opacity="0.5" d="M36.7723 41.8794L35.7754 42.4534V41.1217L36.7723 40.8232V41.8794Z" fill="url(#paint32_linear)"/>
<path opacity="0.5" d="M35.8447 46.4485L35.5728 46.6092V45.3694L35.0517 45.6908L35.0064 45.599L34.5985 45.8515V45.9893L34.4399 46.0811V45.9204L33.9868 46.15L33.9415 46.3107L33.4203 46.6092V47.895L33.1484 48.0557V47.5965V45.0939L33.2391 45.0479C33.2617 45.0479 33.2844 45.025 33.2844 45.002L33.511 44.7265L35.8674 43.3489L35.8447 46.4485Z" fill="url(#paint33_linear)"/>
<path opacity="0.5" d="M36.7727 42.729L36.2969 43.0046V42.9816V42.8438V42.4305L36.7047 42.178V42.3387L36.7727 42.3846V42.729Z" fill="url(#paint34_linear)"/>
<path opacity="0.5" d="M32.8984 44.7724V44.6347L36.0705 42.7749V42.9815V43.0045L33.4875 44.5199C33.4649 44.5199 33.4422 44.5428 33.4422 44.5658L33.2156 44.8413L33.0344 44.9332L32.8984 44.7724Z" fill="url(#paint35_linear)"/>
<path d="M35.9571 47.918C35.8664 47.9869 35.8664 48.1246 35.8664 48.1246L35.7758 48.1705V47.9869L35.6399 48.0787V48.3313L35.5039 48.4231V49.066L35.7758 48.9053V48.5609L35.8664 48.5149C35.8664 48.5149 35.8664 48.6757 35.9571 48.6068C36.0477 48.5379 36.1383 48.3313 36.1383 48.1705C36.161 47.9639 36.0704 47.8491 35.9571 47.918Z" fill="#414E52"/>
<path d="M35.7091 46.4945C35.6638 46.5175 35.6412 46.4945 35.6412 46.4486V43.8541L33.3527 45.2087V47.8032C33.3527 47.8492 33.3301 47.8951 33.2848 47.918C33.2395 47.941 33.2168 47.918 33.2168 47.8721V45.1858C33.2168 45.1399 33.2395 45.0939 33.2848 45.071L35.7091 43.6474C35.7545 43.6245 35.7771 43.6474 35.7771 43.6934V46.3797C35.7771 46.4256 35.7545 46.4715 35.7091 46.4945Z" fill="#96D150"/>
<path d="M33.2164 47.918V47.895V45.2087C33.2164 45.1628 33.2391 45.1168 33.2844 45.0939L35.7088 43.6703C35.7314 43.6703 35.7314 43.6703 35.7541 43.6703L35.5501 43.5555L33.511 44.7495L33.2844 45.025C33.2617 45.048 33.2617 45.0709 33.2391 45.0709L33.1484 45.1168V47.6195V47.8721L33.2164 47.918Z" fill="url(#paint36_linear)"/>
<path d="M35.5502 40.9151V42.8438L32.8993 44.4051V42.7749L32.9673 42.729L32.922 42.4994L31.6758 43.4867V49.2038L31.9024 49.066V48.6298L32.922 48.0328V48.492L33.647 48.0787V47.7573L33.8283 47.6425V47.4588L33.647 47.5736V46.7929L35.369 45.7827V46.5633L35.1877 46.6781V46.8618L35.369 46.747V46.9996L35.7995 46.747V48.8594L37.023 48.1476V40.5018L35.5502 40.9151ZM31.9024 43.5555L32.3102 43.2341C32.3102 43.3948 32.3329 43.7851 32.6727 43.6703V44.8872L31.9024 45.3464V43.5555ZM32.9899 47.7113L31.9024 48.3313V45.5072L32.718 45.025L32.854 45.2087C32.8766 45.2316 32.8993 45.2316 32.9446 45.2087H32.9673V47.7113H32.9899ZM32.8993 44.7724V44.6347L36.0714 42.7749V42.9815V43.0045L33.4884 44.5199C33.4657 44.5199 33.4431 44.5428 33.4431 44.5658L33.2165 44.8413L33.0352 44.9332L32.8993 44.7724ZM35.8448 46.4485L35.5729 46.6093V45.3694L35.0518 45.6908L35.0065 45.599L34.5986 45.8516V45.9893L34.44 46.0812V45.9204L33.9869 46.15L33.9415 46.3108L33.4204 46.6093V47.895L33.1485 48.0557V47.5965V45.0939L33.2392 45.048C33.2618 45.048 33.2845 45.025 33.2845 45.002L33.5111 44.7265L35.8675 43.3489L35.8448 46.4485ZM36.7738 48.0098L36.3206 48.2624C36.3206 48.1246 36.3206 47.7343 36.23 47.6884C36.162 47.6425 36.0714 47.6654 36.0034 47.6884V46.5863L36.7738 46.1271V48.0098ZM36.7738 45.9664L36.0034 46.4256V43.303L36.0714 43.2571V43.4178L36.7738 43.0045V45.9664ZM36.7738 42.729L36.2979 43.0045V42.9815V42.8438V42.4305L36.7058 42.1779V42.3386L36.7738 42.3846V42.729ZM36.7738 41.8794L35.7768 42.4535V41.1218L36.7738 40.8233V41.8794Z" fill="#D4DBDF"/>
<path d="M33.6465 46.77V46.8848L35.6404 48.0558L35.7763 47.9869L33.6691 46.7471L33.6465 46.77Z" fill="#4E5B5F"/>
<path d="M33.6465 47.1373L35.6404 48.3083V48.0557L33.6465 46.8848V47.1373Z" fill="#2E383B"/>
<path d="M33.6465 47.2981L35.5044 48.4001L35.6404 48.3083L33.6465 47.1373V47.2981Z" fill="#4E5B5F"/>
<path d="M33.6465 47.2981V47.5507L33.8277 47.4359V47.6195L33.6465 47.7343V47.941L35.5044 49.0431V48.4002L33.6465 47.2981Z" fill="#2E383B"/>
<path d="M33.6465 47.5506L33.8277 47.4358L33.6465 47.344V47.5506Z" fill="#EEF5F9"/>
<path d="M33.6465 47.4818L33.7145 47.5047L33.8277 47.4358V47.5736L35.1645 48.3772L35.5044 48.1706L33.6465 47.0914V47.4818Z" fill="#EEF5F9"/>
<path d="M33.8277 47.6195L33.6465 47.7343V48.0099L35.2778 48.9742V48.4231L33.8277 47.5736V47.6195Z" fill="#969DA1"/>
<path d="M33.6465 48.0557L33.5332 48.1246L34.5755 48.7216L34.802 48.5838L33.6465 47.918V48.0557Z" fill="#EEF5F9"/>
<path d="M33.1699 48.3313L34.5747 49.1578V48.7216L33.5324 48.1246L33.1699 48.3313Z" fill="#969DA1"/>
<path opacity="0.5" d="M35.3458 46.9996V46.7241L35.1645 46.8389V46.6552L35.3458 46.5404V46.4945V45.7598L34.5075 46.2649L33.6465 46.77V47.5507L33.8277 47.4359V47.6195L33.7371 47.6655L35.7763 48.8594V46.7471L35.3458 46.9996Z" fill="url(#paint37_linear)"/>
<path d="M34.8027 49.2497L35.2785 48.9741L34.8027 48.6757V49.2497Z" fill="#EEF5F9"/>
<path d="M31.3809 51.362C31.4036 51.385 31.4263 51.385 31.4489 51.362V52.8774L30.3613 53.5203V51.6605L31.1544 51.2013L31.3809 51.362ZM30.8145 49.4563C30.8145 49.617 30.8598 49.9844 31.1544 49.9614V51.0176L30.3613 51.4768V49.8237L30.8145 49.4563ZM30.3613 55.0127V53.7269L31.4489 53.084V54.3698L30.3613 55.0127ZM34.5757 49.4104V49.5022C34.5757 49.5711 34.621 49.5941 34.689 49.5711L35.3007 49.2267V50.6502L34.3264 51.2242V49.5711L34.5757 49.4104ZM34.1678 52.7855L31.6075 54.278V51.2931L31.7435 51.2242C31.7661 51.2242 31.7888 51.2013 31.7888 51.1783L31.9927 50.9258L32.174 50.811V50.9946L32.3326 50.9028V50.7191L33.7827 49.8696V50.0533L33.9413 49.9614V49.7777L34.1452 49.6629V52.7855H34.1678ZM34.3038 52.6937V51.4079L35.2781 50.8339V52.1197L34.3038 52.6937ZM35.3913 48.2394L35.2781 48.3083L35.1648 48.3772V48.5838L35.2781 48.6297V48.9741L34.7796 49.2497V48.5838L34.553 48.7216V49.1578L31.9474 50.6732C31.9247 50.6732 31.9021 50.6962 31.9021 50.7191L31.6981 50.9717L31.5169 51.0865L31.3583 50.9717V48.7445L30.1348 49.7548V56.0229L30.3613 55.8852L30.452 55.5408L30.3613 55.5637V55.2652L31.0411 54.852V55.1504L30.9504 55.1964L31.0411 55.4489L31.2676 55.3112L31.3583 54.9668L31.2676 55.0127V54.7142L34.3264 52.9233V53.2218L34.2358 53.2677L34.3264 53.5203L34.553 53.3825L34.6436 53.0381L34.553 53.084V52.8085L35.2781 52.3952V52.6937L35.1874 52.7396L35.2781 52.9922L35.5046 52.8544V48.1705L35.3913 48.2394Z" fill="#D4DBDF"/>
<path d="M12.8921 7.48513L12.5976 7.32441L12.5296 7.34737C12.5296 7.34737 12.6655 7.41625 12.5522 7.48513C12.4616 7.55401 12.2124 7.50809 12.0764 7.41625C11.9405 7.34737 11.8725 7.20961 11.9631 7.14072C12.0538 7.07184 12.1897 7.16368 12.1897 7.16368L12.2804 7.11776L12.0991 7.02592L12.235 6.93408L12.4616 7.07184L12.5976 6.98L13.1867 7.32441L12.8921 7.48513Z" fill="#5B686C"/>
<path d="M31.6742 49.1578L6.88672 34.7159V29.0217L31.6742 43.4637V49.1578Z" fill="#C7CED2"/>
<path d="M32.9205 42.4764L12.9364 30.8815L11.4863 31.6851L31.6743 43.4637L32.9205 42.4764Z" fill="#FBFFFF"/>
<path d="M32.9207 42.4764L8.08789 28.0573L8.38244 27.8507L33.1699 42.3157L32.9207 42.4764Z" fill="#414E52"/>
<path d="M11.4866 31.7541L6.61523 28.884V5.21204L11.4866 8.0591V31.7541Z" fill="#C7CED2"/>
<path d="M11.4863 31.754L12.9364 30.8815V7.46204L11.4863 8.059V31.754Z" fill="#D4DBDF"/>
<path d="M13.2094 31.0193L12.9375 30.8815V7.46209L13.2094 7.34729V31.0193Z" fill="#414E52"/>
<path d="M30.1355 56L0.0234375 38.3666L5.34799 35.267L30.1355 49.7319V56Z" fill="#C7CED2"/>
<path d="M0 3.14563L0.0226577 38.3666L5.34721 35.267V6.26822L0 3.14563Z" fill="#C7CED2"/>
<path d="M31.3813 48.7215L6.59383 34.2795L5.34766 35.2668L30.1352 49.7318L31.3813 48.7215Z" fill="#FBFFFF"/>
<path d="M31.3813 48.7216L6.59375 34.2796L6.86564 34.073L31.6532 48.515L31.3813 48.7216Z" fill="#414E52"/>
<path d="M6.82041 34.4173L5.34766 35.2669V6.2681L6.82041 5.69409V34.4173Z" fill="#D4DBDF"/>
<path d="M6.82031 34.1648L7.13752 34.5552V5.5564L6.82031 5.69416V34.1648Z" fill="#414E52"/>
<path d="M32.8762 42.4994V42.8438L32.7856 42.8897C32.7856 42.8897 32.7856 42.729 32.6949 42.7979C32.6043 42.8667 32.5137 43.0734 32.5137 43.2341C32.5137 43.3948 32.6043 43.5326 32.6949 43.4637C32.7856 43.3948 32.7856 43.2571 32.7856 43.2571L32.8762 43.2111V43.4178L33.0121 43.3259V43.0734L33.1481 42.9815V42.2927L32.8762 42.4994Z" fill="#283539"/>
<path d="M31.3801 48.7215V49.0659L31.2895 49.1119C31.2895 49.1119 31.2895 48.9511 31.1988 49.02C31.1082 49.0889 31.0176 49.2955 31.0176 49.4563C31.0176 49.617 31.1082 49.7548 31.1988 49.6859C31.2895 49.617 31.2895 49.4792 31.2895 49.4792L31.3801 49.4333V49.6399L31.5161 49.5481V49.2955L31.652 49.2037V48.5149L31.3801 48.7215Z" fill="#283539"/>
<path d="M9.38028 2.34194L5.36987 0L5.14329 0.137761L5.3019 0.344403L5.39253 0.298483L5.66442 0.436244L4.93937 0.849529L4.69014 0.688807L4.78077 0.642886L4.44091 0.551046L4.21433 0.688807L4.37293 0.895449L4.46356 0.849529L4.7128 0.98729L1.65401 2.77819L1.40478 2.61747L1.49541 2.57155L1.13288 2.4797L0.906307 2.61747L1.06491 2.82411L1.1782 2.75523L1.42743 2.89299L0.747703 3.30627L0.498469 3.16851L0.5891 3.12259L0.226577 3.00779L0 3.14555L5.34721 6.26814L6.81996 5.69414L4.93937 4.59205L4.91672 4.40836L5.09798 4.29356L5.41518 4.22468C5.43784 4.22468 5.4605 4.20172 5.48316 4.20172L8.08879 2.68635L8.45131 2.89299L8.67789 2.75523L8.11145 2.43378L8.60992 2.15826L8.90447 2.34194L8.88181 2.45674L9.06307 2.57155L9.17636 2.50267L9.28965 2.43378L9.38028 2.34194ZM4.62217 4.63797L3.82915 5.12013L2.24311 4.17876L3.33068 3.53588L4.62217 4.29356C4.59951 4.31652 4.59951 4.33948 4.59951 4.36244L4.62217 4.63797ZM5.39253 6.03854L3.98775 5.21197L4.78077 4.75277L5.68708 5.28085C5.50582 5.51046 5.80037 5.74006 5.93631 5.8319L5.39253 6.03854ZM2.03919 2.80115L3.14942 3.44403L2.06185 4.08692L0.951622 3.44403L2.03919 2.80115ZM7.56766 2.68635L6.16289 1.85978L7.13717 1.28577L8.33803 1.99754L7.72627 2.34194C7.65829 2.38786 7.65829 2.43378 7.72627 2.4797L7.8169 2.52563L7.56766 2.68635ZM7.43172 2.77819L7.2278 2.89299L7.09185 2.80115L6.93325 2.89299L7.09185 2.98483L5.64176 3.83436L5.48316 3.74252L5.32455 3.83436L5.48316 3.9262L5.3019 4.041L4.98469 4.10988C4.96203 4.10988 4.93937 4.13284 4.91672 4.13284L4.75811 4.20172L2.19779 2.70931L4.75811 1.21689L7.43172 2.77819ZM5.891 0.551046L7.00122 1.19393L6.02694 1.76794L4.91672 1.12505L5.891 0.551046Z" fill="#FBFFFF"/>
<path d="M6.8425 5.6941L6.54795 5.53338L6.45732 5.5793C6.45732 5.5793 6.59327 5.64818 6.47998 5.71706C6.38935 5.78594 6.14011 5.74002 6.00416 5.64818C5.86822 5.5793 5.80025 5.44154 5.89088 5.37266C5.98151 5.30378 6.11745 5.39562 6.11745 5.39562L6.20808 5.3497L6.02682 5.25786L6.16277 5.16602L6.38935 5.30378L6.52529 5.21194L7.11439 5.55634L6.8425 5.6941Z" fill="#5B686C"/>
<defs>
<linearGradient id="paint0_linear" x1="19.5907" y1="18.8488" x2="24.9007" y2="29.8731" gradientUnits="userSpaceOnUse">
<stop/>
<stop offset="0.5374" stop-color="white"/>
<stop offset="1"/>
</linearGradient>
<linearGradient id="paint1_linear" x1="19.5907" y1="18.8488" x2="24.9007" y2="29.8731" gradientUnits="userSpaceOnUse">
<stop stop-color="white"/>
<stop offset="0.5374" stop-color="white"/>
<stop offset="1" stop-color="white"/>
</linearGradient>
<linearGradient id="paint2_linear" x1="10.0901" y1="2.09508" x2="10.0901" y2="6.02429" gradientUnits="userSpaceOnUse">
<stop stop-color="white"/>
<stop offset="1"/>
</linearGradient>
<linearGradient id="paint3_linear" x1="35.0995" y1="50.7497" x2="34.3834" y2="49.5258" gradientUnits="userSpaceOnUse">
<stop stop-color="white"/>
<stop offset="1"/>
</linearGradient>
<linearGradient id="paint4_linear" x1="35.0721" y1="52.2474" x2="34.5075" y2="51.2824" gradientUnits="userSpaceOnUse">
<stop stop-color="white"/>
<stop offset="1"/>
</linearGradient>
<linearGradient id="paint5_linear" x1="30.9826" y1="51.108" x2="30.2157" y2="49.7972" gradientUnits="userSpaceOnUse">
<stop stop-color="white"/>
<stop offset="1"/>
</linearGradient>
<linearGradient id="paint6_linear" x1="31.229" y1="53.0146" x2="30.4169" y2="51.6265" gradientUnits="userSpaceOnUse">
<stop stop-color="white"/>
<stop offset="1"/>
</linearGradient>
<linearGradient id="paint7_linear" x1="31.1823" y1="54.5238" x2="30.6177" y2="53.5587" gradientUnits="userSpaceOnUse">
<stop stop-color="white"/>
<stop offset="1"/>
</linearGradient>
<linearGradient id="paint8_linear" x1="33.0448" y1="50.1815" x2="31.3575" y2="47.2975" gradientUnits="userSpaceOnUse">
<stop stop-color="white"/>
<stop offset="1"/>
</linearGradient>
<linearGradient id="paint9_linear" x1="32.7388" y1="52.0305" x2="32.7839" y2="51.9534" gradientUnits="userSpaceOnUse">
<stop stop-color="#66A120"/>
<stop offset="1" stop-color="#447120"/>
</linearGradient>
<linearGradient id="paint10_linear" x1="33.5476" y1="53.1403" x2="32.1855" y2="50.8121" gradientUnits="userSpaceOnUse">
<stop stop-color="white"/>
<stop offset="1"/>
</linearGradient>
<linearGradient id="paint11_linear" x1="7.26545" y1="1.4021" x2="7.26545" y2="2.85176" gradientUnits="userSpaceOnUse">
<stop stop-color="white"/>
<stop offset="1"/>
</linearGradient>
<linearGradient id="paint12_linear" x1="5.94733" y1="0.456475" x2="5.94733" y2="2.05097" gradientUnits="userSpaceOnUse">
<stop stop-color="white"/>
<stop offset="1"/>
</linearGradient>
<linearGradient id="paint13_linear" x1="2.05623" y1="2.70263" x2="2.05623" y2="5.06943" gradientUnits="userSpaceOnUse">
<stop stop-color="white"/>
<stop offset="1"/>
</linearGradient>
<linearGradient id="paint14_linear" x1="3.4331" y1="3.68017" x2="3.4331" y2="5.53111" gradientUnits="userSpaceOnUse">
<stop stop-color="white"/>
<stop offset="1"/>
</linearGradient>
<linearGradient id="paint15_linear" x1="4.95644" y1="4.62584" x2="4.95644" y2="6.0597" gradientUnits="userSpaceOnUse">
<stop stop-color="white"/>
<stop offset="1"/>
</linearGradient>
<linearGradient id="paint16_linear" x1="7.34211" y1="3.57116" x2="6.55002" y2="6.92518" gradientUnits="userSpaceOnUse">
<stop stop-color="white"/>
<stop offset="1"/>
</linearGradient>
<linearGradient id="paint17_linear" x1="4.70065" y1="2.84269" x2="4.77096" y2="2.84269" gradientUnits="userSpaceOnUse">
<stop stop-color="#66A120"/>
<stop offset="1" stop-color="#447120"/>
</linearGradient>
<linearGradient id="paint18_linear" x1="5.18584" y1="2.13661" x2="3.87302" y2="4.23206" gradientUnits="userSpaceOnUse">
<stop stop-color="white"/>
<stop offset="1"/>
</linearGradient>
<linearGradient id="paint19_linear" x1="10.8266" y1="1.70551" x2="10.2889" y2="2.61894" gradientUnits="userSpaceOnUse">
<stop stop-color="white"/>
<stop offset="1"/>
</linearGradient>
<linearGradient id="paint20_linear" x1="13.052" y1="2.99904" x2="12.3329" y2="3.77788" gradientUnits="userSpaceOnUse">
<stop stop-color="white"/>
<stop offset="1"/>
</linearGradient>
<linearGradient id="paint21_linear" x1="15.1061" y1="3.83012" x2="14.2228" y2="4.60685" gradientUnits="userSpaceOnUse">
<stop stop-color="white"/>
<stop offset="1"/>
</linearGradient>
<linearGradient id="paint22_linear" x1="15.6415" y1="4.56328" x2="14.7641" y2="5.55905" gradientUnits="userSpaceOnUse">
<stop stop-color="white"/>
<stop offset="1"/>
</linearGradient>
<linearGradient id="paint23_linear" x1="9.41274" y1="5.05173" x2="8.55297" y2="6.95061" gradientUnits="userSpaceOnUse">
<stop stop-color="white"/>
<stop offset="1"/>
</linearGradient>
<linearGradient id="paint24_linear" x1="11.2674" y1="6.58401" x2="10.6321" y2="8.20166" gradientUnits="userSpaceOnUse">
<stop stop-color="white"/>
<stop offset="1"/>
</linearGradient>
<linearGradient id="paint25_linear" x1="12.522" y1="5.10591" x2="12.4138" y2="6.30258" gradientUnits="userSpaceOnUse">
<stop stop-color="white"/>
<stop offset="1"/>
</linearGradient>
<linearGradient id="paint26_linear" x1="10.9181" y1="5.13627" x2="10.7431" y2="5.1318" gradientUnits="userSpaceOnUse">
<stop stop-color="#66A120"/>
<stop offset="1" stop-color="#447120"/>
</linearGradient>
<linearGradient id="paint27_linear" x1="11.2798" y1="3.27195" x2="10.3219" y2="6.66013" gradientUnits="userSpaceOnUse">
<stop stop-color="white"/>
<stop offset="1"/>
</linearGradient>
<linearGradient id="paint28_linear" x1="36.9532" y1="47.9159" x2="36.1359" y2="46.519" gradientUnits="userSpaceOnUse">
<stop stop-color="white"/>
<stop offset="1"/>
</linearGradient>
<linearGradient id="paint29_linear" x1="32.8933" y1="47.5666" x2="31.663" y2="45.4637" gradientUnits="userSpaceOnUse">
<stop stop-color="white"/>
<stop offset="1"/>
</linearGradient>
<linearGradient id="paint30_linear" x1="37.0279" y1="45.8102" x2="35.6651" y2="43.4808" gradientUnits="userSpaceOnUse">
<stop stop-color="white"/>
<stop offset="1"/>
</linearGradient>
<linearGradient id="paint31_linear" x1="32.5015" y1="44.8681" x2="31.7892" y2="43.6506" gradientUnits="userSpaceOnUse">
<stop stop-color="white"/>
<stop offset="1"/>
</linearGradient>
<linearGradient id="paint32_linear" x1="36.4678" y1="41.9764" x2="35.9613" y2="41.1108" gradientUnits="userSpaceOnUse">
<stop stop-color="white"/>
<stop offset="1"/>
</linearGradient>
<linearGradient id="paint33_linear" x1="34.9017" y1="46.4396" x2="33.7647" y2="44.4962" gradientUnits="userSpaceOnUse">
<stop stop-color="white"/>
<stop offset="1"/>
</linearGradient>
<linearGradient id="paint34_linear" x1="36.6231" y1="42.8142" x2="36.3702" y2="42.382" gradientUnits="userSpaceOnUse">
<stop stop-color="white"/>
<stop offset="1"/>
</linearGradient>
<linearGradient id="paint35_linear" x1="34.611" y1="43.9915" x2="34.4501" y2="43.7164" gradientUnits="userSpaceOnUse">
<stop stop-color="white"/>
<stop offset="1"/>
</linearGradient>
<linearGradient id="paint36_linear" x1="33.8727" y1="45.4357" x2="33.7813" y2="45.5993" gradientUnits="userSpaceOnUse">
<stop stop-color="#66A120"/>
<stop offset="1" stop-color="#447120"/>
</linearGradient>
<linearGradient id="paint37_linear" x1="35.3678" y1="48.1872" x2="33.9041" y2="45.6854" gradientUnits="userSpaceOnUse">
<stop stop-color="white"/>
<stop offset="1"/>
</linearGradient>
</defs>
</svg>
