<svg width="277" height="242" viewBox="0 0 277 242" fill="none" xmlns="http://www.w3.org/2000/svg">
<path d="M253 47.5L65.5 47.5L65.5 24C65.5 11.0213 76.0213 0.500002 89 0.500003L253 0.500017C265.979 0.500018 276.5 11.0213 276.5 24C276.5 36.9787 265.979 47.5 253 47.5Z" fill="white" stroke="#FC8267"/>
<path d="M2.5 240.5V96L65 47.5" stroke="#FC8267"/>
<circle cx="2.5" cy="239.5" r="2.5" fill="#FC8267"/>
<path d="M133.9 32C133.767 32 133.647 31.9533 133.54 31.86C133.447 31.7533 133.4 31.6333 133.4 31.5V18.5C133.4 18.3533 133.447 18.2333 133.54 18.14C133.647 18.0467 133.767 18 133.9 18H139.34C141.087 18 142.447 18.4 143.42 19.2C144.407 19.9867 144.9 21.1067 144.9 22.56C144.9 23.4933 144.68 24.2867 144.24 24.94C143.8 25.5933 143.193 26.0933 142.42 26.44L145.16 31.36C145.2 31.44 145.22 31.5133 145.22 31.58C145.22 31.6867 145.173 31.7867 145.08 31.88C145 31.96 144.907 32 144.8 32H142.14C141.753 32 141.48 31.82 141.32 31.46L139.04 27.06H137V31.5C137 31.6467 136.947 31.7667 136.84 31.86C136.747 31.9533 136.627 32 136.48 32H133.9ZM139.3 24.22C139.913 24.22 140.38 24.0733 140.7 23.78C141.02 23.4733 141.18 23.0533 141.18 22.52C141.18 21.9867 141.02 21.5667 140.7 21.26C140.393 20.94 139.927 20.78 139.3 20.78H137V24.22H139.3ZM151.791 32.2C150.138 32.2 148.865 31.8067 147.971 31.02C147.078 30.2333 146.591 29.1267 146.511 27.7C146.498 27.5267 146.491 27.2267 146.491 26.8C146.491 26.3733 146.498 26.0733 146.511 25.9C146.591 24.4867 147.091 23.3867 148.011 22.6C148.931 21.8 150.191 21.4 151.791 21.4C153.405 21.4 154.671 21.8 155.591 22.6C156.511 23.3867 157.011 24.4867 157.091 25.9C157.105 26.0733 157.111 26.3733 157.111 26.8C157.111 27.2267 157.105 27.5267 157.091 27.7C157.011 29.1267 156.525 30.2333 155.631 31.02C154.738 31.8067 153.458 32.2 151.791 32.2ZM151.791 29.76C152.378 29.76 152.811 29.5867 153.091 29.24C153.371 28.88 153.531 28.3333 153.571 27.6C153.585 27.4667 153.591 27.2 153.591 26.8C153.591 26.4 153.585 26.1333 153.571 26C153.531 25.28 153.365 24.74 153.071 24.38C152.791 24.02 152.365 23.84 151.791 23.84C150.685 23.84 150.098 24.56 150.031 26L150.011 26.8L150.031 27.6C150.058 28.3333 150.211 28.88 150.491 29.24C150.785 29.5867 151.218 29.76 151.791 29.76ZM164.018 32.2C162.365 32.2 161.091 31.8067 160.198 31.02C159.305 30.2333 158.818 29.1267 158.738 27.7C158.725 27.5267 158.718 27.2267 158.718 26.8C158.718 26.3733 158.725 26.0733 158.738 25.9C158.818 24.4867 159.318 23.3867 160.238 22.6C161.158 21.8 162.418 21.4 164.018 21.4C165.631 21.4 166.898 21.8 167.818 22.6C168.738 23.3867 169.238 24.4867 169.318 25.9C169.331 26.0733 169.338 26.3733 169.338 26.8C169.338 27.2267 169.331 27.5267 169.318 27.7C169.238 29.1267 168.751 30.2333 167.858 31.02C166.965 31.8067 165.685 32.2 164.018 32.2ZM164.018 29.76C164.605 29.76 165.038 29.5867 165.318 29.24C165.598 28.88 165.758 28.3333 165.798 27.6C165.811 27.4667 165.818 27.2 165.818 26.8C165.818 26.4 165.811 26.1333 165.798 26C165.758 25.28 165.591 24.74 165.298 24.38C165.018 24.02 164.591 23.84 164.018 23.84C162.911 23.84 162.325 24.56 162.258 26L162.238 26.8L162.258 27.6C162.285 28.3333 162.438 28.88 162.718 29.24C163.011 29.5867 163.445 29.76 164.018 29.76ZM172.907 32C172.774 32 172.654 31.9533 172.547 31.86C172.454 31.7533 172.407 31.6333 172.407 31.5V24.22H170.887C170.74 24.22 170.62 24.1733 170.527 24.08C170.434 23.9867 170.387 23.8667 170.387 23.72V22.1C170.387 21.9533 170.434 21.8333 170.527 21.74C170.62 21.6467 170.74 21.6 170.887 21.6H172.407V20.96C172.407 19.64 172.78 18.6867 173.527 18.1C174.287 17.5 175.374 17.2 176.787 17.2H181.907C182.054 17.2 182.174 17.2467 182.267 17.34C182.36 17.4333 182.407 17.5533 182.407 17.7V19.32C182.407 19.4533 182.36 19.5733 182.267 19.68C182.174 19.7733 182.054 19.82 181.907 19.82H176.947C176.507 19.82 176.194 19.9267 176.007 20.14C175.82 20.34 175.727 20.6467 175.727 21.06V21.6H181.907C182.054 21.6 182.174 21.6467 182.267 21.74C182.36 21.8333 182.407 21.9533 182.407 22.1V31.5C182.407 31.6333 182.36 31.7533 182.267 31.86C182.174 31.9533 182.054 32 181.907 32H179.587C179.454 32 179.334 31.9533 179.227 31.86C179.134 31.7533 179.087 31.6333 179.087 31.5V24.22H175.727V31.5C175.727 31.6333 175.68 31.7533 175.587 31.86C175.494 31.9533 175.374 32 175.227 32H172.907ZM185.243 32C185.096 32 184.976 31.9533 184.882 31.86C184.789 31.7667 184.743 31.6467 184.743 31.5V22.1C184.743 21.9533 184.789 21.8333 184.882 21.74C184.976 21.6467 185.096 21.6 185.243 21.6H187.543C187.689 21.6 187.809 21.6467 187.903 21.74C188.009 21.8333 188.063 21.9533 188.063 22.1V22.86C188.423 22.42 188.883 22.0667 189.442 21.8C190.016 21.5333 190.663 21.4 191.383 21.4C192.556 21.4 193.509 21.8 194.243 22.6C194.976 23.3867 195.343 24.4933 195.343 25.92V31.5C195.343 31.6333 195.296 31.7533 195.203 31.86C195.109 31.9533 194.989 32 194.843 32H192.323C192.189 32 192.069 31.9533 191.963 31.86C191.869 31.7533 191.823 31.6333 191.823 31.5V26.04C191.823 25.4133 191.669 24.9333 191.363 24.6C191.056 24.2533 190.616 24.08 190.043 24.08C189.483 24.08 189.043 24.2533 188.723 24.6C188.403 24.9333 188.243 25.4133 188.243 26.04V31.5C188.243 31.6333 188.196 31.7533 188.103 31.86C188.009 31.9533 187.889 32 187.743 32H185.243ZM202.694 36.4C201.427 36.4 200.401 36.1933 199.614 35.78C198.827 35.3667 198.261 34.8933 197.914 34.36C197.581 33.8267 197.414 33.38 197.414 33.02C197.414 32.9 197.467 32.7933 197.574 32.7C197.681 32.6067 197.801 32.56 197.934 32.56H200.474C200.607 32.56 200.707 32.5867 200.774 32.64C200.854 32.7067 200.927 32.8133 200.994 32.96C201.127 33.2667 201.307 33.5067 201.534 33.68C201.761 33.8667 202.114 33.96 202.594 33.96C203.207 33.96 203.661 33.8067 203.954 33.5C204.247 33.2067 204.394 32.7067 204.394 32V30.66C203.714 31.4067 202.741 31.78 201.474 31.78C200.127 31.78 199.094 31.3867 198.374 30.6C197.667 29.8 197.281 28.6467 197.214 27.14L197.194 26.6C197.194 24.9867 197.554 23.72 198.274 22.8C198.994 21.8667 200.061 21.4 201.474 21.4C202.154 21.4 202.754 21.5333 203.274 21.8C203.794 22.0533 204.234 22.4 204.594 22.84V22.1C204.594 21.9533 204.641 21.8333 204.734 21.74C204.841 21.6467 204.961 21.6 205.094 21.6H207.394C207.541 21.6 207.661 21.6533 207.754 21.76C207.861 21.8533 207.914 21.9667 207.914 22.1V31.72C207.914 33.24 207.461 34.4 206.554 35.2C205.647 36 204.361 36.4 202.694 36.4ZM202.554 29.18C203.154 29.18 203.601 29 203.894 28.64C204.187 28.2667 204.354 27.8 204.394 27.24C204.407 27.1467 204.414 26.94 204.414 26.62C204.414 26.3133 204.407 26.1133 204.394 26.02C204.367 25.46 204.201 25 203.894 24.64C203.601 24.2667 203.154 24.08 202.554 24.08C201.927 24.08 201.474 24.2667 201.194 24.64C200.914 25.0133 200.761 25.5267 200.734 26.18L200.714 26.62C200.714 27.4067 200.847 28.0333 201.114 28.5C201.381 28.9533 201.861 29.18 202.554 29.18Z" fill="#FC8267"/>
</svg>
