<svg width="26" height="26" viewBox="0 0 26 26" fill="none" xmlns="http://www.w3.org/2000/svg">
<path d="M10.94 21.08C5.32399 21.08 0.799988 16.556 0.799988 10.94C0.799988 5.32399 5.32399 0.799988 10.94 0.799988C16.556 0.799988 21.08 5.32399 21.08 10.94C21.08 16.556 16.556 21.08 10.94 21.08ZM10.94 2.35999C6.18199 2.35999 2.35999 6.18199 2.35999 10.94C2.35999 15.698 6.18199 19.52 10.94 19.52C15.698 19.52 19.52 15.698 19.52 10.94C19.52 6.18199 15.698 2.35999 10.94 2.35999Z" fill="#FC7D36"/>
<path d="M18.492 17.3882L25.4964 24.3926L24.3934 25.4956L17.389 18.4912L18.492 17.3882Z" fill="#FC7D36"/>
</svg>
