<svg width="277" height="242" viewBox="0 0 277 242" fill="none" xmlns="http://www.w3.org/2000/svg">
<path d="M253 47.5L65.5 47.5L65.5 24C65.5 11.0213 76.0213 0.500002 89 0.500003L253 0.500017C265.979 0.500018 276.5 11.0213 276.5 24C276.5 36.9787 265.979 47.5 253 47.5Z" fill="white" stroke="#FC8267"/>
<path d="M2.5 240.5V96L65 47.5" stroke="#FC8267"/>
<circle cx="2.5" cy="239.5" r="2.5" fill="#FC8267"/>
<path d="M150.62 32.2C149.353 32.2 148.267 32.0133 147.36 31.64C146.453 31.2667 145.767 30.78 145.3 30.18C144.847 29.5667 144.607 28.9 144.58 28.18C144.58 28.0733 144.62 27.98 144.7 27.9C144.793 27.8067 144.9 27.76 145.02 27.76H147.54C147.7 27.76 147.827 27.7933 147.92 27.86C148.027 27.9133 148.133 28 148.24 28.12C148.413 28.4667 148.693 28.7533 149.08 28.98C149.467 29.2067 149.98 29.32 150.62 29.32C151.38 29.32 151.96 29.2 152.36 28.96C152.76 28.72 152.96 28.3933 152.96 27.98C152.96 27.6867 152.853 27.4467 152.64 27.26C152.44 27.0733 152.12 26.9067 151.68 26.76C151.24 26.6133 150.587 26.4467 149.72 26.26C148.12 25.9267 146.92 25.44 146.12 24.8C145.333 24.1467 144.94 23.22 144.94 22.02C144.94 21.2067 145.167 20.48 145.62 19.84C146.073 19.2 146.72 18.7 147.56 18.34C148.4 17.98 149.38 17.8 150.5 17.8C151.66 17.8 152.667 18 153.52 18.4C154.373 18.8 155.02 19.3067 155.46 19.92C155.913 20.52 156.153 21.1133 156.18 21.7C156.18 21.82 156.14 21.92 156.06 22C155.98 22.08 155.88 22.12 155.76 22.12H153.12C152.96 22.12 152.827 22.0933 152.72 22.04C152.627 21.9867 152.54 21.9 152.46 21.78C152.38 21.4733 152.16 21.2133 151.8 21C151.453 20.7867 151.02 20.68 150.5 20.68C149.9 20.68 149.44 20.7867 149.12 21C148.8 21.2133 148.64 21.5267 148.64 21.94C148.64 22.22 148.727 22.4533 148.9 22.64C149.087 22.8267 149.38 23 149.78 23.16C150.193 23.3067 150.78 23.46 151.54 23.62C152.78 23.8467 153.767 24.1333 154.5 24.48C155.247 24.8133 155.793 25.2533 156.14 25.8C156.487 26.3333 156.66 27.0067 156.66 27.82C156.66 28.7133 156.4 29.4933 155.88 30.16C155.373 30.8133 154.66 31.32 153.74 31.68C152.833 32.0267 151.793 32.2 150.62 32.2ZM163.362 32.2C161.708 32.2 160.435 31.8067 159.542 31.02C158.648 30.2333 158.162 29.1267 158.082 27.7C158.068 27.5267 158.062 27.2267 158.062 26.8C158.062 26.3733 158.068 26.0733 158.082 25.9C158.162 24.4867 158.662 23.3867 159.582 22.6C160.502 21.8 161.762 21.4 163.362 21.4C164.975 21.4 166.242 21.8 167.162 22.6C168.082 23.3867 168.582 24.4867 168.662 25.9C168.675 26.0733 168.682 26.3733 168.682 26.8C168.682 27.2267 168.675 27.5267 168.662 27.7C168.582 29.1267 168.095 30.2333 167.202 31.02C166.308 31.8067 165.028 32.2 163.362 32.2ZM163.362 29.76C163.948 29.76 164.382 29.5867 164.662 29.24C164.942 28.88 165.102 28.3333 165.142 27.6C165.155 27.4667 165.162 27.2 165.162 26.8C165.162 26.4 165.155 26.1333 165.142 26C165.102 25.28 164.935 24.74 164.642 24.38C164.362 24.02 163.935 23.84 163.362 23.84C162.255 23.84 161.668 24.56 161.602 26L161.582 26.8L161.602 27.6C161.628 28.3333 161.782 28.88 162.062 29.24C162.355 29.5867 162.788 29.76 163.362 29.76ZM171.168 32C171.035 32 170.915 31.9533 170.808 31.86C170.715 31.7533 170.668 31.6333 170.668 31.5V18.3C170.668 18.1533 170.715 18.0333 170.808 17.94C170.915 17.8467 171.035 17.8 171.168 17.8H173.528C173.675 17.8 173.795 17.8467 173.888 17.94C173.982 18.0333 174.028 18.1533 174.028 18.3V31.5C174.028 31.6467 173.982 31.7667 173.888 31.86C173.795 31.9533 173.675 32 173.528 32H171.168ZM179.511 32.2C178.804 32.2 178.158 32.0667 177.571 31.8C176.998 31.52 176.544 31.1467 176.211 30.68C175.891 30.2 175.731 29.6733 175.731 29.1C175.731 28.18 176.104 27.44 176.851 26.88C177.611 26.32 178.651 25.9333 179.971 25.72L182.471 25.34V25.06C182.471 24.5533 182.364 24.18 182.151 23.94C181.938 23.7 181.578 23.58 181.071 23.58C180.764 23.58 180.511 23.6333 180.311 23.74C180.111 23.8467 179.904 23.9933 179.691 24.18C179.504 24.34 179.364 24.4467 179.271 24.5C179.231 24.6067 179.158 24.66 179.051 24.66H176.871C176.738 24.66 176.624 24.62 176.531 24.54C176.451 24.4467 176.418 24.34 176.431 24.22C176.444 23.86 176.618 23.46 176.951 23.02C177.298 22.58 177.818 22.2 178.511 21.88C179.218 21.56 180.084 21.4 181.111 21.4C182.751 21.4 183.964 21.7667 184.751 22.5C185.538 23.22 185.931 24.1933 185.931 25.42V31.5C185.931 31.6333 185.884 31.7533 185.791 31.86C185.698 31.9533 185.578 32 185.431 32H183.111C182.978 32 182.858 31.9533 182.751 31.86C182.658 31.7533 182.611 31.6333 182.611 31.5V30.8C182.318 31.2133 181.904 31.5533 181.371 31.82C180.851 32.0733 180.231 32.2 179.511 32.2ZM180.451 29.92C181.064 29.92 181.558 29.72 181.931 29.32C182.318 28.92 182.511 28.3333 182.511 27.56V27.28L180.811 27.58C179.611 27.7933 179.011 28.2133 179.011 28.84C179.011 29.1733 179.151 29.44 179.431 29.64C179.711 29.8267 180.051 29.92 180.451 29.92ZM188.688 32C188.541 32 188.421 31.9533 188.328 31.86C188.234 31.7667 188.188 31.6467 188.188 31.5V22.1C188.188 21.9533 188.234 21.8333 188.328 21.74C188.421 21.6467 188.541 21.6 188.688 21.6H190.988C191.134 21.6 191.254 21.6533 191.348 21.76C191.454 21.8533 191.508 21.9667 191.508 22.1V22.9C192.241 22.0333 193.228 21.6 194.468 21.6H195.348C195.494 21.6 195.614 21.6467 195.708 21.74C195.801 21.8333 195.848 21.9533 195.848 22.1V24.16C195.848 24.2933 195.801 24.4133 195.708 24.52C195.614 24.6133 195.494 24.66 195.348 24.66H193.408C192.861 24.66 192.434 24.8133 192.128 25.12C191.834 25.4133 191.688 25.8333 191.688 26.38V31.5C191.688 31.6467 191.634 31.7667 191.528 31.86C191.434 31.9533 191.314 32 191.168 32H188.688Z" fill="#FC8267"/>
</svg>
