<svg width="109" height="19" viewBox="0 0 109 19" fill="none" xmlns="http://www.w3.org/2000/svg">
<path d="M18.3859 6.52696L12.6901 5.68696L10.1439 0.448913C10.0743 0.305498 9.95993 0.189401 9.8186 0.118832C9.46415 -0.0587294 9.03343 0.089238 8.85621 0.448913L6.31002 5.68696L0.614191 6.52696C0.457157 6.54972 0.313583 6.62484 0.20366 6.73866C0.0707685 6.87727 -0.00246073 7.06374 6.31408e-05 7.2571C0.00258702 7.45046 0.0806575 7.6349 0.21712 7.76988L4.33813 11.847L3.36452 17.604C3.34169 17.7379 3.35629 17.8757 3.40668 18.0016C3.45706 18.1275 3.54121 18.2366 3.64958 18.3165C3.75795 18.3964 3.8862 18.4438 4.0198 18.4535C4.1534 18.4631 4.28699 18.4346 4.40543 18.3712L9.50004 15.6531L14.5947 18.3712C14.7337 18.4463 14.8953 18.4713 15.0501 18.444C15.4404 18.3757 15.7029 18.0001 15.6356 17.604L14.662 11.847L18.783 7.76988C18.8951 7.65834 18.9692 7.51265 18.9916 7.3533C19.0522 6.95492 18.7785 6.58614 18.3859 6.52696Z" fill="#3D8D81"/>
<path d="M85.4182 6.52696L80.0222 5.68696L77.61 0.448913C77.5441 0.305498 77.4357 0.189401 77.3018 0.118832C76.966 -0.0587294 76.558 0.089238 76.3901 0.448913L73.9779 5.68696L68.5819 6.52696C68.4331 6.54972 68.2971 6.62484 68.1929 6.73866C68.067 6.87727 67.9977 7.06374 68.0001 7.2571C68.0025 7.45046 68.0764 7.6349 68.2057 7.76988L72.1098 11.847L71.1874 17.604C71.1658 17.7379 71.1796 17.8757 71.2274 18.0016C71.2751 18.1275 71.3548 18.2366 71.4575 18.3165C71.5602 18.3964 71.6817 18.4438 71.8082 18.4535C71.9348 18.4631 72.0614 18.4346 72.1736 18.3712L77 15.6531L81.8265 18.3712C81.9583 18.4463 82.1113 18.4713 82.258 18.444C82.6277 18.3757 82.8764 18.0001 82.8126 17.604L81.8903 11.847L85.7944 7.76988C85.9007 7.65834 85.9708 7.51265 85.992 7.3533C86.0494 6.95492 85.7901 6.58614 85.4182 6.52696Z" fill="#3D8D81"/>
<path d="M108.386 6.52696L102.69 5.68696L100.144 0.448913C100.074 0.305498 99.9599 0.189401 99.8186 0.118832C99.4642 -0.0587294 99.0334 0.089238 98.8562 0.448913L96.31 5.68696L90.6142 6.52696C90.4572 6.54972 90.3136 6.62484 90.2037 6.73866C90.0708 6.87727 89.9975 7.06374 90.0001 7.2571C90.0026 7.45046 90.0807 7.6349 90.2171 7.76988L94.3381 11.847L93.3645 17.604C93.3417 17.7379 93.3563 17.8757 93.4067 18.0016C93.4571 18.1275 93.5412 18.2366 93.6496 18.3165C93.7579 18.3964 93.8862 18.4438 94.0198 18.4535C94.1534 18.4631 94.287 18.4346 94.4054 18.3712L99.5 15.6531L104.595 18.3712C104.734 18.4463 104.895 18.4713 105.05 18.444C105.44 18.3757 105.703 18.0001 105.636 17.604L104.662 11.847L108.783 7.76988C108.895 7.65834 108.969 7.51265 108.992 7.3533C109.052 6.95492 108.778 6.58614 108.386 6.52696Z" fill="#3D8D81"/>
<path d="M40.4182 6.52696L35.0222 5.68696L32.61 0.448913C32.5441 0.305498 32.4357 0.189401 32.3018 0.118832C31.966 -0.0587294 31.558 0.089238 31.3901 0.448913L28.9779 5.68696L23.5819 6.52696C23.4331 6.54972 23.2971 6.62484 23.1929 6.73866C23.067 6.87727 22.9977 7.06374 23.0001 7.2571C23.0025 7.45046 23.0764 7.6349 23.2057 7.76988L27.1098 11.847L26.1874 17.604C26.1658 17.7379 26.1796 17.8757 26.2274 18.0016C26.2751 18.1275 26.3548 18.2366 26.4575 18.3165C26.5602 18.3964 26.6817 18.4438 26.8082 18.4535C26.9348 18.4631 27.0614 18.4346 27.1736 18.3712L32 15.6531L36.8265 18.3712C36.9583 18.4463 37.1113 18.4713 37.258 18.444C37.6277 18.3757 37.8764 18.0001 37.8126 17.604L36.8903 11.847L40.7944 7.76988C40.9007 7.65834 40.9708 7.51265 40.992 7.3533C41.0494 6.95492 40.7901 6.58614 40.4182 6.52696Z" fill="#3D8D81"/>
<path d="M63.3859 6.52696L57.6901 5.68696L55.1439 0.448913C55.0743 0.305498 54.9599 0.189401 54.8186 0.118832C54.4642 -0.0587294 54.0334 0.089238 53.8562 0.448913L51.31 5.68696L45.6142 6.52696C45.4572 6.54972 45.3136 6.62484 45.2037 6.73866C45.0708 6.87727 44.9975 7.06374 45.0001 7.2571C45.0026 7.45046 45.0807 7.6349 45.2171 7.76988L49.3381 11.847L48.3645 17.604C48.3417 17.7379 48.3563 17.8757 48.4067 18.0016C48.4571 18.1275 48.5412 18.2366 48.6496 18.3165C48.7579 18.3964 48.8862 18.4438 49.0198 18.4535C49.1534 18.4631 49.287 18.4346 49.4054 18.3712L54.5 15.6531L59.5947 18.3712C59.7337 18.4463 59.8953 18.4713 60.0501 18.444C60.4404 18.3757 60.7029 18.0001 60.6356 17.604L59.662 11.847L63.783 7.76988C63.8951 7.65834 63.9692 7.51265 63.9916 7.3533C64.0522 6.95492 63.7785 6.58614 63.3859 6.52696Z" fill="#3D8D81"/>
</svg>
