<svg width="277" height="242" viewBox="0 0 277 242" fill="none" xmlns="http://www.w3.org/2000/svg">
<path d="M253 47.5L65.5 47.5L65.5 24C65.5 11.0213 76.0213 0.500002 89 0.500003L253 0.500017C265.979 0.500018 276.5 11.0213 276.5 24C276.5 36.9787 265.979 47.5 253 47.5Z" fill="white" stroke="#FC8267"/>
<path d="M2.5 240.5V96L65 47.5" stroke="#FC8267"/>
<circle cx="2.5" cy="239.5" r="2.5" fill="#FC8267"/>
<path d="M130.64 32C130.413 32 130.233 31.94 130.1 31.82C129.967 31.6867 129.887 31.5267 129.86 31.34L127.68 18.56C127.667 18.52 127.66 18.4733 127.66 18.42C127.66 18.3133 127.7 18.22 127.78 18.14C127.873 18.0467 127.973 18 128.08 18H130.56C130.933 18 131.14 18.1467 131.18 18.44L132.48 26.24L133.92 21.64C134.067 21.28 134.287 21.1 134.58 21.1H136.02C136.353 21.1 136.573 21.28 136.68 21.64L138.12 26.24L139.42 18.44C139.46 18.1467 139.667 18 140.04 18H142.52C142.64 18 142.74 18.0467 142.82 18.14C142.913 18.22 142.96 18.3133 142.96 18.42L142.94 18.56L140.76 31.34C140.733 31.5267 140.647 31.6867 140.5 31.82C140.367 31.94 140.193 32 139.98 32H138.08C137.867 32 137.7 31.9467 137.58 31.84C137.46 31.7333 137.373 31.6133 137.32 31.48L135.3 25.76L133.28 31.48C133.16 31.8267 132.913 32 132.54 32H130.64ZM145.281 20.1C145.134 20.1 145.014 20.0533 144.921 19.96C144.828 19.8667 144.781 19.7467 144.781 19.6V17.8C144.781 17.6533 144.828 17.5333 144.921 17.44C145.014 17.3467 145.134 17.3 145.281 17.3H147.681C147.828 17.3 147.948 17.3467 148.041 17.44C148.134 17.5333 148.181 17.6533 148.181 17.8V19.6C148.181 19.7467 148.134 19.8667 148.041 19.96C147.948 20.0533 147.828 20.1 147.681 20.1H145.281ZM145.301 32C145.154 32 145.034 31.9533 144.941 31.86C144.848 31.7667 144.801 31.6467 144.801 31.5V22.1C144.801 21.9533 144.848 21.8333 144.941 21.74C145.034 21.6467 145.154 21.6 145.301 21.6H147.661C147.808 21.6 147.928 21.6467 148.021 21.74C148.114 21.8333 148.161 21.9533 148.161 22.1V31.5C148.161 31.6333 148.114 31.7533 148.021 31.86C147.928 31.9533 147.808 32 147.661 32H145.301ZM151.024 32C150.877 32 150.757 31.9533 150.664 31.86C150.57 31.7667 150.524 31.6467 150.524 31.5V22.1C150.524 21.9533 150.57 21.8333 150.664 21.74C150.757 21.6467 150.877 21.6 151.024 21.6H153.324C153.47 21.6 153.59 21.6467 153.684 21.74C153.79 21.8333 153.844 21.9533 153.844 22.1V22.86C154.204 22.42 154.664 22.0667 155.224 21.8C155.797 21.5333 156.444 21.4 157.164 21.4C158.337 21.4 159.29 21.8 160.024 22.6C160.757 23.3867 161.124 24.4933 161.124 25.92V31.5C161.124 31.6333 161.077 31.7533 160.984 31.86C160.89 31.9533 160.77 32 160.624 32H158.104C157.97 32 157.85 31.9533 157.744 31.86C157.65 31.7533 157.604 31.6333 157.604 31.5V26.04C157.604 25.4133 157.45 24.9333 157.144 24.6C156.837 24.2533 156.397 24.08 155.824 24.08C155.264 24.08 154.824 24.2533 154.504 24.6C154.184 24.9333 154.024 25.4133 154.024 26.04V31.5C154.024 31.6333 153.977 31.7533 153.884 31.86C153.79 31.9533 153.67 32 153.524 32H151.024ZM167.255 32.2C165.949 32.2 164.929 31.7933 164.195 30.98C163.475 30.1533 163.082 28.9933 163.015 27.5L162.995 26.8L163.015 26.08C163.069 24.64 163.462 23.5 164.195 22.66C164.942 21.82 165.962 21.4 167.255 21.4C168.469 21.4 169.449 21.7933 170.195 22.58V18.3C170.195 18.1533 170.242 18.0333 170.335 17.94C170.429 17.8467 170.549 17.8 170.695 17.8H173.135C173.282 17.8 173.402 17.8467 173.495 17.94C173.589 18.0333 173.635 18.1533 173.635 18.3V31.5C173.635 31.6333 173.589 31.7533 173.495 31.86C173.402 31.9533 173.282 32 173.135 32H170.875C170.742 32 170.622 31.9533 170.515 31.86C170.422 31.7533 170.375 31.6333 170.375 31.5V30.86C169.642 31.7533 168.602 32.2 167.255 32.2ZM168.355 29.52C168.955 29.52 169.402 29.3333 169.695 28.96C169.989 28.5733 170.155 28.08 170.195 27.48C170.209 27.3067 170.215 27.0533 170.215 26.72C170.215 26.4 170.209 26.1533 170.195 25.98C170.169 25.4333 170.002 24.98 169.695 24.62C169.389 24.26 168.942 24.08 168.355 24.08C167.729 24.08 167.275 24.2667 166.995 24.64C166.729 25.0133 166.575 25.5267 166.535 26.18C166.522 26.3133 166.515 26.52 166.515 26.8C166.515 27.08 166.522 27.2867 166.535 27.42C166.575 28.0733 166.729 28.5867 166.995 28.96C167.275 29.3333 167.729 29.52 168.355 29.52ZM180.913 32.2C179.259 32.2 177.986 31.8067 177.093 31.02C176.199 30.2333 175.713 29.1267 175.633 27.7C175.619 27.5267 175.613 27.2267 175.613 26.8C175.613 26.3733 175.619 26.0733 175.633 25.9C175.713 24.4867 176.213 23.3867 177.133 22.6C178.053 21.8 179.313 21.4 180.913 21.4C182.526 21.4 183.793 21.8 184.713 22.6C185.633 23.3867 186.133 24.4867 186.213 25.9C186.226 26.0733 186.233 26.3733 186.233 26.8C186.233 27.2267 186.226 27.5267 186.213 27.7C186.133 29.1267 185.646 30.2333 184.753 31.02C183.859 31.8067 182.579 32.2 180.913 32.2ZM180.913 29.76C181.499 29.76 181.933 29.5867 182.213 29.24C182.493 28.88 182.653 28.3333 182.693 27.6C182.706 27.4667 182.713 27.2 182.713 26.8C182.713 26.4 182.706 26.1333 182.693 26C182.653 25.28 182.486 24.74 182.193 24.38C181.913 24.02 181.486 23.84 180.913 23.84C179.806 23.84 179.219 24.56 179.153 26L179.133 26.8L179.153 27.6C179.179 28.3333 179.333 28.88 179.613 29.24C179.906 29.5867 180.339 29.76 180.913 29.76ZM190.807 32C190.62 32 190.473 31.96 190.367 31.88C190.273 31.7867 190.2 31.66 190.147 31.5L187.267 22.24L187.227 22.04C187.227 21.92 187.273 21.82 187.367 21.74C187.46 21.6467 187.567 21.6 187.687 21.6H189.747C189.907 21.6 190.04 21.6467 190.147 21.74C190.253 21.82 190.32 21.9133 190.347 22.02L192.027 27.74L193.827 22.04C193.853 21.9333 193.92 21.8333 194.027 21.74C194.133 21.6467 194.273 21.6 194.447 21.6H195.767C195.94 21.6 196.08 21.6467 196.187 21.74C196.293 21.8333 196.36 21.9333 196.387 22.04L198.187 27.74L199.867 22.02C199.893 21.9133 199.96 21.82 200.067 21.74C200.173 21.6467 200.307 21.6 200.467 21.6H202.527C202.647 21.6 202.753 21.6467 202.847 21.74C202.94 21.82 202.987 21.92 202.987 22.04L202.947 22.24L200.067 31.5C200.013 31.66 199.933 31.7867 199.827 31.88C199.733 31.96 199.593 32 199.407 32H197.607C197.26 32 197.04 31.8333 196.947 31.5L195.107 26.02L193.267 31.5C193.173 31.8333 192.953 32 192.607 32H190.807ZM208.671 32.2C207.591 32.2 206.684 32.0467 205.951 31.74C205.231 31.4333 204.698 31.0667 204.351 30.64C204.004 30.2133 203.831 29.8333 203.831 29.5C203.831 29.3667 203.878 29.26 203.971 29.18C204.078 29.0867 204.191 29.04 204.311 29.04H206.591C206.671 29.04 206.744 29.0733 206.811 29.14C206.971 29.2467 207.091 29.3333 207.171 29.4C207.464 29.6133 207.718 29.7733 207.931 29.88C208.158 29.9733 208.431 30.02 208.751 30.02C209.138 30.02 209.451 29.9467 209.691 29.8C209.944 29.64 210.071 29.42 210.071 29.14C210.071 28.9133 210.004 28.7333 209.871 28.6C209.751 28.4667 209.511 28.34 209.151 28.22C208.791 28.0867 208.244 27.9467 207.511 27.8C206.404 27.5733 205.551 27.2067 204.951 26.7C204.364 26.18 204.071 25.4867 204.071 24.62C204.071 24.0733 204.244 23.5533 204.591 23.06C204.938 22.5667 205.451 22.1667 206.131 21.86C206.824 21.5533 207.644 21.4 208.591 21.4C209.538 21.4 210.364 21.5467 211.071 21.84C211.778 22.1333 212.311 22.4933 212.671 22.92C213.044 23.3333 213.231 23.7133 213.231 24.06C213.231 24.18 213.184 24.2867 213.091 24.38C213.011 24.4733 212.911 24.52 212.791 24.52H210.711C210.604 24.52 210.504 24.4867 210.411 24.42C210.238 24.3267 210.084 24.2267 209.951 24.12C209.724 23.9467 209.511 23.8133 209.311 23.72C209.111 23.6267 208.864 23.58 208.571 23.58C208.224 23.58 207.944 23.66 207.731 23.82C207.531 23.98 207.431 24.1867 207.431 24.44C207.431 24.64 207.484 24.8067 207.591 24.94C207.711 25.0733 207.951 25.2067 208.311 25.34C208.684 25.46 209.231 25.5867 209.951 25.72C211.244 25.9467 212.184 26.3467 212.771 26.92C213.371 27.4933 213.671 28.1667 213.671 28.94C213.671 29.9267 213.231 30.72 212.351 31.32C211.471 31.9067 210.244 32.2 208.671 32.2Z" fill="#FC8267"/>
</svg>
