<svg width="179" height="5" viewBox="0 0 179 5" fill="none" xmlns="http://www.w3.org/2000/svg">
<path d="M176.778 5.00001C175.561 5.00001 174.574 3.88072 174.574 2.5C174.574 1.11929 175.561 -1.4957e-07 176.778 -9.63545e-08C177.996 -4.31394e-08 178.982 1.11929 178.982 2.5C178.982 3.88072 177.996 5.00001 176.778 5.00001Z" fill="#00C8A0" fill-opacity="0.2"/>
<path d="M118.914 5.00001C117.697 5 116.71 3.88072 116.71 2.5C116.71 1.11929 117.697 -2.67888e-06 118.914 -2.62566e-06C120.132 -2.57245e-06 121.119 1.11929 121.119 2.5C121.119 3.88072 120.132 5.00001 118.914 5.00001Z" fill="#00C8A0" fill-opacity="0.2"/>
<path d="M61.0505 5C59.8331 5 58.8462 3.88071 58.8462 2.5C58.8462 1.11928 59.8331 -5.20818e-06 61.0505 -5.15497e-06C62.268 -5.10175e-06 63.2549 1.11928 63.2549 2.5C63.2549 3.88071 62.268 5 61.0505 5Z" fill="#00C8A0" fill-opacity="0.2"/>
<path d="M3.18677 5C1.96934 5 0.982437 3.88071 0.982437 2.5C0.982437 1.11928 1.96935 -7.73749e-06 3.18677 -7.68427e-06C4.40419 -7.63106e-06 5.3911 1.11928 5.3911 2.5C5.3911 3.88071 4.40419 5 3.18677 5Z" fill="#00C8A0" fill-opacity="0.2"/>
</svg>
