<svg width="478" height="571" viewBox="0 0 478 571" fill="none" xmlns="http://www.w3.org/2000/svg">
<path d="M269.859 569.917C269.008 570.409 267.96 570.409 267.109 569.917L38.4473 437.899C37.5965 437.408 37.0723 436.5 37.0723 435.518L37.0724 171.482C37.0724 170.5 37.5965 169.592 38.4474 169.1L267.109 37.0826C267.96 36.5913 269.008 36.5913 269.859 37.0826L498.521 169.101C499.372 169.592 499.896 170.5 499.896 171.482L499.896 435.518C499.896 436.5 499.372 437.408 498.521 437.9L269.859 569.917Z" stroke="url(#paint0_linear_470_23)" stroke-opacity="0.4" stroke-width="0.5"/>
<path d="M293.859 533.917C293.008 534.409 291.96 534.409 291.109 533.917L62.4473 401.899C61.5965 401.408 61.0723 400.5 61.0723 399.518L61.0724 135.482C61.0724 134.5 61.5965 133.592 62.4474 133.1L291.109 1.08256C291.96 0.591346 293.008 0.591346 293.859 1.08256L522.521 133.101C523.372 133.592 523.896 134.5 523.896 135.482L523.896 399.518C523.896 400.5 523.372 401.408 522.521 401.9L293.859 533.917Z" stroke="url(#paint1_linear_470_23)" stroke-opacity="0.4" stroke-width="0.5"/>
<defs>
<linearGradient id="paint0_linear_470_23" x1="496.209" y1="273.778" x2="62.1774" y2="207.34" gradientUnits="userSpaceOnUse">
<stop stop-color="#3AFFD8"/>
<stop offset="1" stop-color="white" stop-opacity="0"/>
</linearGradient>
<linearGradient id="paint1_linear_470_23" x1="511.984" y1="156.916" x2="152.984" y2="156.916" gradientUnits="userSpaceOnUse">
<stop stop-color="#3AFFD8"/>
<stop offset="1" stop-color="white" stop-opacity="0"/>
</linearGradient>
</defs>
</svg>
