<svg width="597" height="566" viewBox="0 0 597 566" fill="none" xmlns="http://www.w3.org/2000/svg">
<mask id="mask0_496_4917" style="mask-type:alpha" maskUnits="userSpaceOnUse" x="0" y="0" width="597" height="566">
<path d="M0 38.4C0 24.9587 0 18.2381 2.61584 13.1042C4.9168 8.58834 8.58834 4.9168 13.1042 2.61584C18.2381 0 24.9587 0 38.4 0H558.6C572.041 0 578.762 0 583.896 2.61584C588.412 4.9168 592.083 8.58834 594.384 13.1042C597 18.2381 597 24.9587 597 38.4V412.4C597 466.165 597 493.048 586.537 513.583C577.333 531.647 562.647 546.333 544.583 555.537C524.048 566 497.165 566 443.4 566H38.4C24.9587 566 18.2381 566 13.1042 563.384C8.58834 561.083 4.9168 557.412 2.61584 552.896C0 547.762 0 541.041 0 527.6V38.4Z" fill="url(#paint0_linear_496_4917)"/>
</mask>
<g mask="url(#mask0_496_4917)">
<path opacity="0.7" d="M-464 170.524C-464 170.524 -262.777 321.281 -16.8383 321.281C229.101 321.281 273.817 148.154 398.244 148.154C522.672 148.154 667.514 269.732 961.085 269.732C1254.66 269.732 1382 -24 1382 -24V651H-464V170.524Z" fill="white" fill-opacity="0.2"/>
<path opacity="0.7" d="M-464 436.05C-464 436.05 -303.605 212.347 -110.159 212.347C83.287 212.347 198.966 383.529 383.663 383.529C568.36 383.529 682.095 61.5908 912.48 61.5908C1142.87 61.5908 1382.97 396.173 1382.97 396.173V651.973H-464V436.05Z" fill="white" fill-opacity="0.2"/>
<path opacity="0.7" d="M-464 477.873C-464 477.873 -336.656 391.31 -178.205 391.31C-19.7546 391.31 161.054 532.34 290.342 532.34C419.63 532.34 479.9 402.981 637.379 402.981C794.857 402.981 875.541 505.106 1036.91 505.106C1198.27 505.106 1246.88 277.513 1382 277.513V651.972H-464V477.873Z" fill="white" fill-opacity="0.2"/>
</g>
<defs>
<linearGradient id="paint0_linear_496_4917" x1="298.5" y1="0" x2="1000.13" y2="970.37" gradientUnits="userSpaceOnUse">
<stop stop-color="#911EEB"/>
<stop offset="1" stop-color="#FF3030"/>
</linearGradient>
</defs>
</svg>
