<svg width="100" height="40" viewBox="0 0 100 40" fill="none" xmlns="http://www.w3.org/2000/svg">
<path d="M26.9412 21.3542C27.4767 21.5156 28.6469 21.8682 28.8329 21.0153C29.0235 20.1432 27.8886 19.8526 27.3349 19.7108C27.273 19.695 27.2184 19.681 27.1736 19.6683L26.8133 21.3163C26.85 21.3267 26.8931 21.3397 26.9412 21.3542Z" fill="#F7931A"/>
<path d="M27.4461 18.946C27.8925 19.0819 28.8663 19.3784 29.0359 18.6032C29.2091 17.8102 28.2627 17.5712 27.8005 17.4545C27.7485 17.4413 27.7026 17.4298 27.6652 17.4191L27.3385 18.9139C27.3693 18.9226 27.4056 18.9337 27.4461 18.946Z" fill="#F7931A"/>
<path fill-rule="evenodd" clip-rule="evenodd" d="M25.8849 26.2075C29.338 27.1191 32.8351 24.8944 33.6959 21.2389C34.5567 17.5833 32.4556 13.8803 29.0027 12.9689C25.5505 12.0575 22.0535 14.2824 21.193 17.9383C20.3318 21.5935 22.4331 25.2961 25.8849 26.2075ZM29.0168 16.895C29.8453 17.2206 30.4512 17.7087 30.3322 18.6166C30.246 19.2813 29.9231 19.603 29.4943 19.7158C30.0831 20.0655 30.3826 20.6018 30.0973 21.5315C29.7431 22.6861 28.9017 22.7836 27.7827 22.542L27.5112 23.7837L26.855 23.5971L27.123 22.3721C26.9529 22.3239 26.7791 22.2727 26.6001 22.2173L26.3311 23.448L25.6757 23.2615L25.9472 22.0175C25.886 21.9996 25.8243 21.9812 25.7623 21.9627C25.669 21.935 25.5748 21.907 25.4794 21.8797L24.6255 21.6368L24.9513 20.7799C24.9513 20.7799 25.4348 20.9266 25.4282 20.9157C25.614 20.9681 25.6964 20.83 25.7289 20.7379L26.1581 18.775C26.1741 18.7795 26.1899 18.784 26.2051 18.7883C26.2127 18.7905 26.2201 18.7926 26.2274 18.7947C26.2012 18.7827 26.1775 18.775 26.1592 18.7697L26.4653 17.3686C26.4733 17.2095 26.4253 17.0088 26.1595 16.9332C26.1698 16.9253 25.683 16.798 25.683 16.798L25.8575 15.9983L26.7625 16.2561L26.7617 16.26C26.8978 16.2986 27.038 16.3352 27.1807 16.3723L27.4497 15.1429L28.1055 15.3294L27.842 16.5348C28.018 16.5807 28.1952 16.627 28.3677 16.676L28.6294 15.4785L29.2856 15.6651L29.0168 16.895Z" fill="#F7931A"/>
<path fill-rule="evenodd" clip-rule="evenodd" d="M39.242 16.8936C39.727 16.8936 40.146 16.9928 40.4981 17.1874C40.8519 17.384 41.1439 17.6489 41.378 17.982C41.609 18.3167 41.781 18.708 41.892 19.1564C42.0023 19.6061 42.0576 20.0895 42.0576 20.607C42.0576 21.402 41.9299 22.153 41.6722 22.8609C41.4145 23.5699 41.0648 24.1849 40.62 24.7094C40.1755 25.2333 39.6507 25.6464 39.0456 25.9515C38.4413 26.2568 37.7844 26.4095 37.0791 26.4095C36.9879 26.4095 36.8275 26.4065 36.601 26.4012C36.3745 26.3959 36.1141 26.3692 35.8226 26.3242C35.5291 26.2775 35.2189 26.2084 34.8913 26.1159C34.5638 26.0251 34.2528 25.8978 33.96 25.7361L36.5787 13.1819L38.9243 12.7672L37.9866 17.2222C38.1874 17.119 38.3896 17.039 38.5914 16.9808C38.7935 16.9235 39.0103 16.8936 39.242 16.8936ZM37.2746 24.2866C37.6278 24.2866 37.9606 24.1874 38.2733 23.9927C38.5869 23.7979 38.8576 23.5347 39.0843 23.207C39.311 22.8778 39.4904 22.5069 39.6212 22.0926C39.752 21.6783 39.8182 21.2461 39.8182 20.7964C39.8182 20.2439 39.7373 19.813 39.576 19.5014C39.4147 19.1912 39.1162 19.0351 38.6828 19.0351C38.5408 19.0351 38.3578 19.066 38.1309 19.1212C37.9033 19.1799 37.6996 19.3016 37.517 19.4848L36.5186 24.216C36.5787 24.2282 36.632 24.2397 36.6774 24.2505C36.7219 24.2623 36.7711 24.2706 36.82 24.2763C36.8718 24.283 36.931 24.2864 37.0026 24.2864L37.2746 24.2866Z" fill="white"/>
<path d="M44.4899 26.1687H42.2496L44.1416 17.0856H46.3972L44.4899 26.1687Z" fill="white"/>
<path d="M45.5801 15.9789C45.2674 15.9789 44.9839 15.8728 44.7323 15.6599C44.4787 15.4484 44.3531 15.1228 44.3531 14.684C44.3531 14.4426 44.3961 14.2162 44.4813 14.0025C44.5679 13.7893 44.6809 13.6057 44.8226 13.4496C44.9641 13.2948 45.128 13.1711 45.3141 13.0779C45.5014 12.9862 45.7006 12.9404 45.913 12.9404C46.2255 12.9404 46.5075 13.0466 46.76 13.2594C47.0115 13.4733 47.1381 13.7989 47.1381 14.2353C47.1381 14.4776 47.0953 14.7049 47.0093 14.9181C46.9239 15.1313 46.8108 15.3149 46.6691 15.471C46.5288 15.626 46.3634 15.7493 46.1776 15.8416C45.9901 15.9348 45.7917 15.9789 45.5801 15.9789Z" fill="white"/>
<path d="M50.7068 14.4089L48.3604 14.8236L46.8762 21.9726C46.7553 22.5599 46.6852 23.1175 46.6645 23.648C46.6445 24.1772 46.7161 24.647 46.8762 25.0545C47.0386 25.4634 47.31 25.7865 47.6939 26.023C48.0783 26.2577 48.6179 26.3756 49.3139 26.3756C49.798 26.3756 50.2168 26.3309 50.5706 26.2379C50.9238 26.1462 51.2516 26.0372 51.5544 25.9106L51.3873 23.9412C51.1552 24.0344 50.9259 24.1056 50.6996 24.1568C50.4719 24.2088 50.2364 24.235 49.9948 24.235C49.7013 24.235 49.4776 24.1883 49.3214 24.0956C49.1644 24.0043 49.0562 23.8753 48.996 23.7079C48.9355 23.5409 48.9098 23.3426 48.9209 23.1117C48.9306 22.8818 48.9653 22.6345 49.0267 22.3697L49.692 19.1925H52.1899L52.6436 17.0862H50.1306L50.7068 14.4089Z" fill="white"/>
<path d="M52.545 22.5422C52.545 21.7599 52.6561 21.0221 52.8779 20.3314C53.0994 19.6401 53.4184 19.0356 53.8324 18.5168C54.2449 18.0006 54.7474 17.5916 55.3389 17.2914C55.9277 16.9929 56.5868 16.8423 57.3133 16.8423C57.768 16.8423 58.1741 16.8914 58.5315 16.9897C58.8903 17.0888 59.215 17.217 59.5086 17.3777L58.736 19.3821C58.5341 19.2887 58.3246 19.2064 58.108 19.1318C57.8912 19.0557 57.6265 19.019 57.3135 19.019C56.5657 19.019 55.9746 19.313 55.5346 19.8992C55.0963 20.4858 54.8756 21.2754 54.8756 22.2659C54.8756 22.8529 54.9866 23.3276 55.2094 23.6907C55.4311 24.0538 55.8406 24.2344 56.4351 24.2344C56.7285 24.2344 57.0117 24.1995 57.2828 24.1312C57.5561 24.0621 57.7974 23.9751 58.0099 23.8724L58.1771 25.9271C57.8938 26.0524 57.5813 26.1657 57.2385 26.2648C56.895 26.3606 56.4861 26.4102 56.0119 26.4102C55.386 26.4102 54.8562 26.3058 54.4228 26.1C53.9892 25.891 53.6309 25.6136 53.3487 25.2622C53.065 24.9099 52.8613 24.4986 52.7353 24.0265C52.6093 23.5549 52.545 23.0593 52.545 22.5422Z" fill="white"/>
<path fill-rule="evenodd" clip-rule="evenodd" d="M61.1043 26.1333C61.4982 26.3173 61.9627 26.4102 62.4974 26.4102C63.2341 26.4102 63.883 26.2341 64.4426 25.8831C65.0029 25.5322 65.4694 25.0803 65.8424 24.5283C66.2162 23.9749 66.4994 23.3523 66.6902 22.6638C66.8808 21.9718 66.9769 21.2801 66.9769 20.5903C66.9769 20.0382 66.9119 19.5335 66.7801 19.0798C66.6493 18.6243 66.4547 18.2313 66.1987 17.8965C65.9398 17.5635 65.6124 17.3031 65.2148 17.1195C64.8154 16.9355 64.3534 16.8423 63.8285 16.8423C63.113 16.8423 62.4761 17.0184 61.9223 17.3686C61.368 17.721 60.8972 18.1731 60.5155 18.726C60.1309 19.2781 59.8403 19.8992 59.6444 20.5905C59.4476 21.2803 59.3502 21.972 59.3502 22.664C59.3502 23.2156 59.4138 23.719 59.5459 24.1737C59.6781 24.6285 59.8709 25.0232 60.1287 25.3562C60.386 25.691 60.7114 25.9492 61.1043 26.1333ZM62.74 19.3465C62.9913 19.1292 63.285 19.0192 63.6171 19.0192C64.0408 19.0192 64.3338 19.1808 64.4953 19.5022C64.657 19.8248 64.7381 20.2747 64.7381 20.8496C64.7381 21.2061 64.6949 21.5842 64.6102 21.9806C64.5237 22.378 64.3946 22.7441 64.223 23.0772C64.0509 23.4111 63.8387 23.6877 63.5879 23.9058C63.3351 24.1255 63.0429 24.2346 62.7097 24.2346C62.2856 24.2346 61.9939 24.073 61.8315 23.7517C61.6713 23.4286 61.5898 22.9798 61.5898 22.4034C61.5898 22.0462 61.6319 21.6703 61.7177 21.2726C61.8042 20.8758 61.9322 20.5108 62.1049 20.176C62.2757 19.8427 62.4877 19.5664 62.74 19.3465Z" fill="white"/>
<path d="M69.4177 26.1687H67.1755L69.0675 17.0856H71.3242L69.4177 26.1687Z" fill="white"/>
<path d="M70.5062 15.9789C70.1937 15.9789 69.9104 15.8728 69.6592 15.6599C69.4069 15.4484 69.2802 15.1228 69.2802 14.684C69.2802 14.4426 69.3237 14.2162 69.4091 14.0025C69.4945 13.7893 69.6083 13.6057 69.75 13.4496C69.8907 13.2948 70.0562 13.1711 70.2419 13.0779C70.4281 12.9862 70.6273 12.9404 70.8389 12.9404C71.1521 12.9404 71.4351 13.0466 71.687 13.2594C71.9391 13.4733 72.0664 13.7989 72.0664 14.2353C72.0664 14.4776 72.0212 14.7049 71.9365 14.9181C71.8519 15.1313 71.738 15.3149 71.5969 15.471C71.4549 15.626 71.2915 15.7493 71.1054 15.8416C70.9177 15.9348 70.7189 15.9789 70.5062 15.9789Z" fill="white"/>
<path d="M73.5048 17.3008C73.2985 17.3749 73.1087 17.4431 72.9387 17.4998L71.1062 26.1687H73.3622L74.8307 19.1408C75.134 19.0717 75.4312 19.0359 75.7233 19.0359C76.0262 19.0359 76.2496 19.1022 76.3974 19.2342C76.543 19.3683 76.6368 19.5415 76.6766 19.753C76.7183 19.9671 76.7204 20.2144 76.6847 20.4951C76.6494 20.7782 76.6015 21.068 76.5406 21.3678L75.5418 26.1689H77.7969L78.8274 21.2646C79.119 19.9068 79.0412 18.8355 78.5919 18.0527C78.1423 17.2699 77.3278 16.8774 76.1462 16.8774C75.7442 16.8774 75.3824 16.8974 75.0649 16.9386C74.7473 16.9789 74.4586 17.0309 74.2027 17.0951C73.9441 17.1573 73.7121 17.2266 73.5048 17.3008Z" fill="white"/>
</svg>
