<svg width="100" height="40" viewBox="0 0 100 40" fill="none" xmlns="http://www.w3.org/2000/svg">
<path fill-rule="evenodd" clip-rule="evenodd" d="M78.7454 22.4773C79.1194 22.946 79.7038 23.2273 80.3117 23.2038C80.4753 23.2038 80.6623 23.1804 80.826 23.157C80.9429 23.1335 81.0831 23.0866 81.2 23.0398C81.2935 22.9929 81.387 22.9226 81.4805 22.8523C81.5507 22.782 81.6208 22.7117 81.6675 22.6413C81.7143 22.5945 81.7611 22.5242 81.8078 22.4304L81.9481 23.1335H83.0001V16.1024L81.7844 16.1727V17.8133C81.7844 18.0946 81.8078 18.3992 81.8312 18.6805C81.5507 18.1649 81.0364 17.9071 80.3117 17.9071C79.7038 17.8836 79.1194 18.1649 78.7454 18.6336C78.348 19.1727 78.1609 19.8523 78.1843 20.532C78.1376 21.2117 78.348 21.9148 78.7454 22.4773ZM81.8312 20.6258C81.8078 21.7273 81.4104 22.2898 80.5922 22.2898C80.2415 22.2898 79.9142 22.1257 79.7038 21.8445C79.4701 21.4695 79.3532 21.0008 79.3766 20.5554C79.3532 20.1101 79.4701 19.6414 79.7038 19.2664C79.8909 18.9852 80.2182 18.8211 80.5688 18.8445C80.9429 18.8211 81.2935 18.9852 81.5039 19.2664C81.7143 19.5477 81.8312 19.993 81.8312 20.6258Z" fill="white"/>
<path d="M43.5625 23.2038C42.5807 23.2038 41.7858 22.8991 41.2014 22.2663C40.617 21.6335 40.3364 20.7898 40.3364 19.6882C40.3364 18.657 40.6403 17.8133 41.2481 17.1805C41.8793 16.5477 42.7443 16.1961 43.6326 16.243C44.334 16.2195 45.0353 16.407 45.6431 16.8055L45.2457 17.7664C44.7781 17.4617 44.2171 17.2976 43.656 17.2742C43.095 17.2508 42.5339 17.5086 42.1832 17.9539C41.8092 18.4695 41.6222 19.1023 41.6456 19.7351C41.6456 20.5085 41.8092 21.1179 42.1599 21.5632C42.5339 22.0085 43.0716 22.2428 43.656 22.2194C44.2404 22.2194 44.8249 22.0788 45.3392 21.7975L45.5028 22.7819C44.9184 23.0631 44.2404 23.2272 43.5625 23.2038Z" fill="white"/>
<path fill-rule="evenodd" clip-rule="evenodd" d="M48.6823 23.2036C48.0043 23.227 47.3497 22.9692 46.9056 22.477C46.4614 21.938 46.2276 21.2583 46.251 20.5552C46.251 19.7349 46.4614 19.0787 46.9056 18.6099C47.3264 18.1412 47.9342 17.9068 48.729 17.9068C49.407 17.8599 50.0615 18.1412 50.5057 18.6334C50.9499 19.1724 51.1836 19.8521 51.1603 20.5552C51.1836 21.2583 50.9499 21.938 50.5057 22.477C50.0381 22.9692 49.3602 23.2504 48.6823 23.2036ZM48.729 22.2895C49.103 22.313 49.4537 22.1489 49.6641 21.8442C49.8979 21.4458 49.9914 21.0005 49.968 20.5552C49.9914 20.1099 49.8745 19.6411 49.6407 19.2427C49.2199 18.7271 48.4719 18.6334 47.9576 19.0552C47.8874 19.1021 47.8173 19.1724 47.7705 19.2427C47.5368 19.6411 47.4433 20.0865 47.4666 20.5552C47.4433 21.0005 47.5601 21.4458 47.7939 21.8208C47.9809 22.1255 48.355 22.313 48.729 22.2895Z" fill="white"/>
<path d="M52.1653 16.243V17.2743H53.381V16.243H52.1653Z" fill="white"/>
<path d="M52.1653 18.0242V23.1101H53.381V18.0242H52.1653Z" fill="white"/>
<path d="M54.6435 18.0242H55.6254L55.7657 18.657C56.2098 18.1883 56.841 17.907 57.4956 17.8836C57.9865 17.8367 58.4774 18.0242 58.8281 18.3992C59.132 18.7508 59.2723 19.2429 59.2723 19.8757V23.0866H58.0566V20.0398C58.08 19.7117 58.0099 19.407 57.8463 19.1258C57.6826 18.9148 57.4255 18.7976 57.1449 18.8211C56.8878 18.8211 56.6306 18.8914 56.4202 19.032C56.2098 19.1492 56.0462 19.3367 55.9527 19.5476C55.8826 19.9226 55.8592 20.2976 55.8592 20.6726V23.1569H54.6435V18.0242Z" fill="white"/>
<path d="M60.2542 22.8289C60.8152 23.1101 61.423 23.2273 62.0542 23.2039C62.5919 23.2273 63.1062 23.0867 63.5504 22.8523C63.901 22.5711 64.088 22.1258 64.0647 21.6805C64.088 21.3289 63.9712 21.0008 63.7374 20.743C63.4335 20.4618 63.0828 20.2508 62.7088 20.1336L62.5451 20.0633L62.4282 20.0164C62.1711 19.9227 61.9139 19.8055 61.6568 19.6649C61.5165 19.5711 61.4464 19.4305 61.4464 19.2899C61.4464 19.1258 61.5165 18.9852 61.6568 18.9149C61.8204 18.8212 62.0308 18.7977 62.2179 18.7977C62.6854 18.7977 63.1763 18.9149 63.5971 19.1258L63.901 18.2821C63.3633 18.0243 62.7789 17.8837 62.1945 17.9071C61.7035 17.8837 61.2126 18.0009 60.7918 18.2821C60.4646 18.5399 60.2775 18.9383 60.3009 19.3602C60.2775 19.6883 60.3944 20.0164 60.6048 20.2743C60.8853 20.5555 61.236 20.7664 61.61 20.8836L61.8672 20.9774C62.1477 21.0711 62.4049 21.1883 62.662 21.3524C62.8023 21.4461 62.8724 21.6102 62.8724 21.7742C62.8724 21.9617 62.7789 22.1258 62.6386 22.2195C62.4516 22.3133 62.2178 22.3601 62.0075 22.3601C61.7035 22.3367 61.423 22.2898 61.1425 22.2195C60.8853 22.1492 60.6282 22.032 60.371 21.9148L60.2542 22.8289Z" fill="white"/>
<path fill-rule="evenodd" clip-rule="evenodd" d="M65.0698 23.1101V16.3133H67.3374C67.805 16.3133 68.2725 16.3836 68.7167 16.5243C69.0673 16.6414 69.3946 16.8758 69.605 17.2039C69.8388 17.5555 69.9557 17.9539 69.9323 18.3758C69.9323 18.6805 69.8855 18.9617 69.8154 19.243C69.7219 19.5008 69.5816 19.7351 69.3946 19.9226C69.1608 20.157 68.9037 20.2976 68.5998 20.3914C68.2024 20.5086 67.7816 20.5554 67.3374 20.5554C66.9166 20.5554 66.566 20.5554 66.3088 20.5086V23.1101H65.0698ZM67.1971 19.6179C67.4309 19.6179 67.6413 19.5945 67.8751 19.5476C68.0387 19.5008 68.179 19.4539 68.3193 19.3601C68.4128 19.2898 68.5063 19.1961 68.5764 19.0789C68.6465 18.9851 68.6699 18.868 68.6933 18.7508C68.7167 18.6336 68.7167 18.5164 68.7167 18.3993C68.74 18.0712 68.5998 17.7664 68.366 17.5555C68.0621 17.3446 67.7114 17.2508 67.3374 17.2742H66.3088V19.6414C66.3556 19.6179 66.6361 19.6179 67.1971 19.6179Z" fill="white"/>
<path fill-rule="evenodd" clip-rule="evenodd" d="M70.8438 22.8052C71.1711 23.0864 71.5686 23.2271 71.9893 23.2036C72.2932 23.2036 72.5972 23.1568 72.8777 23.0161C73.1582 22.8755 73.4154 22.688 73.6258 22.4771C73.6258 22.4771 73.6725 22.5943 73.7193 22.7818C73.766 22.9693 73.8128 23.0864 73.8128 23.0864H74.7011V19.7584C74.7011 19.0787 74.5375 18.61 74.2336 18.3053C73.9297 18.0006 73.4154 17.86 72.7374 17.86C72.0829 17.8366 71.4049 17.9772 70.7971 18.235L70.9374 18.6569C71.0542 18.9381 71.101 19.0787 71.101 19.0787C71.5686 18.8678 72.0829 18.7506 72.6205 18.7272C72.8543 18.7037 73.0881 18.774 73.2751 18.9381C73.4387 19.1256 73.5089 19.3834 73.4855 19.6178V19.899L73.1582 19.9225L72.7842 19.9693C72.7374 19.981 72.6848 19.9869 72.6322 19.9928C72.5796 19.9986 72.527 20.0045 72.4803 20.0162C71.9192 20.0396 71.3815 20.2037 70.914 20.5084C70.5633 20.7896 70.3763 21.2349 70.3997 21.6802C70.3763 22.1021 70.5399 22.524 70.8438 22.8052ZM73.0413 22.1255C72.8309 22.2662 72.5738 22.3365 72.3166 22.3365C72.1296 22.3599 71.9192 22.2896 71.7556 22.149C71.6153 22.0318 71.5686 21.8443 71.5686 21.6568C71.5686 21.399 71.6854 21.1177 71.9192 20.9771C72.2465 20.8131 72.6205 20.7193 72.9946 20.6959L73.2517 20.6724L73.4855 20.649V21.6334C73.392 21.8443 73.2283 22.0083 73.0413 22.1255Z" fill="white"/>
<path d="M75.9405 17.2743V16.243H77.1561V17.2743H75.9405Z" fill="white"/>
<path d="M75.9405 23.1101V18.0242H77.1561V23.1101H75.9405Z" fill="white"/>
<path fill-rule="evenodd" clip-rule="evenodd" d="M21.9051 18.7977H25.0861L26.2042 23.1335H21.9285C19.9648 23.1335 16.2478 21.9383 16.2478 17.4384C16.2478 12.9385 19.9648 11.7432 21.9285 11.7432H25.0377L26.1832 16.0556H21.9051C21.5077 16.079 20.5492 16.2196 20.5492 17.4384C20.5259 17.7899 20.6428 18.1415 20.8765 18.3993C21.1571 18.6336 21.5311 18.7743 21.9051 18.7977Z" fill="#001D6D"/>
<path d="M27.4456 27.7976H31.7938L31.2093 25.6648H32.3548C34.3185 25.6648 38.0122 24.4695 38.0122 19.9696C38.0122 15.4697 34.3185 14.2979 32.3548 14.2979H23.8455L25.0611 18.7978H32.2613C32.6821 18.7978 33.7575 18.6806 33.8276 19.9228C33.8744 21.0712 32.799 21.1415 32.3782 21.1649H25.6689L27.4456 27.7976Z" fill="#0C98FA"/>
</svg>
