<svg width="100" height="40" viewBox="0 0 100 40" fill="none" xmlns="http://www.w3.org/2000/svg">
<g clip-path="url(#clip0_1_93)">
<path d="M36.4311 35.9299V33.8062C36.4311 32.9938 35.9387 32.4618 35.0934 32.4618C34.6708 32.4618 34.2112 32.6021 33.8952 33.0639C33.649 32.6763 33.2962 32.4618 32.7668 32.4618C32.414 32.4618 32.0611 32.5691 31.782 32.9567V32.532H31.0435V35.9299H31.782V34.0536C31.782 33.4515 32.098 33.167 32.5904 33.167C33.0828 33.167 33.329 33.4845 33.329 34.0536V35.9299H34.0676V34.0536C34.0676 33.4515 34.4205 33.167 34.8759 33.167C35.3683 33.167 35.6145 33.4845 35.6145 34.0536V35.9299H36.4311ZM47.3868 32.532H46.1887V31.5051H45.4501V32.532H44.7812V33.2041H45.4501V34.7629C45.4501 35.5423 45.766 36 46.6113 36C46.9273 36 47.2801 35.8928 47.5263 35.7526L47.313 35.1134C47.0996 35.2536 46.8534 35.2907 46.677 35.2907C46.3241 35.2907 46.1846 35.0763 46.1846 34.7258V33.2041H47.3827V32.532H47.3868ZM53.6566 32.4577C53.234 32.4577 52.9509 32.6722 52.7744 32.9526V32.5278H52.0359V35.9258H52.7744V34.0124C52.7744 33.4474 53.0206 33.1258 53.4802 33.1258C53.6197 33.1258 53.7962 33.1629 53.9398 33.1959L54.1531 32.4866C54.0054 32.4577 53.7962 32.4577 53.6566 32.4577ZM44.1822 32.8124C43.8293 32.5649 43.3369 32.4577 42.8076 32.4577C41.9623 32.4577 41.4001 32.8825 41.4001 33.5546C41.4001 34.1196 41.8228 34.4412 42.5614 34.5443L42.9143 34.5814C43.3 34.6515 43.5133 34.7588 43.5133 34.9361C43.5133 35.1835 43.2302 35.3608 42.7378 35.3608C42.2454 35.3608 41.8556 35.1835 41.6094 35.0062L41.2565 35.5711C41.6422 35.8557 42.1716 35.9959 42.7009 35.9959C43.6857 35.9959 44.2519 35.534 44.2519 34.899C44.2519 34.2969 43.7924 33.9794 43.0907 33.8722L42.7378 33.835C42.4219 33.7979 42.1757 33.7278 42.1757 33.5175C42.1757 33.2701 42.4219 33.1299 42.8117 33.1299C43.2343 33.1299 43.6569 33.3072 43.8703 33.4144L44.1822 32.8124ZM63.8328 32.4577C63.4102 32.4577 63.127 32.6722 62.9506 32.9526V32.5278H62.212V35.9258H62.9506V34.0124C62.9506 33.4474 63.1968 33.1258 63.6563 33.1258C63.7959 33.1258 63.9723 33.1629 64.1159 33.1959L64.3293 32.4948C64.1857 32.4577 63.9764 32.4577 63.8328 32.4577ZM54.3952 34.2309C54.3952 35.2577 55.101 36 56.1925 36C56.6849 36 57.0378 35.8928 57.3906 35.6124L57.0378 35.0103C56.7546 35.2247 56.4756 35.3278 56.1555 35.3278C55.5565 35.3278 55.1338 34.9031 55.1338 34.2309C55.1338 33.5917 55.5565 33.167 56.1555 33.134C56.4715 33.134 56.7546 33.2412 57.0378 33.4515L57.3906 32.8495C57.0378 32.5649 56.6849 32.4618 56.1925 32.4618C55.101 32.4577 54.3952 33.2041 54.3952 34.2309ZM61.2272 34.2309V32.532H60.4886V32.9567C60.2424 32.6392 59.8895 32.4618 59.43 32.4618C58.478 32.4618 57.7394 33.2041 57.7394 34.2309C57.7394 35.2577 58.478 36 59.43 36C59.9224 36 60.2752 35.8227 60.4886 35.5051V35.9299H61.2272V34.2309ZM58.5149 34.2309C58.5149 33.6289 58.9006 33.134 59.5367 33.134C60.1357 33.134 60.5584 33.5959 60.5584 34.2309C60.5584 34.833 60.1357 35.3278 59.5367 35.3278C58.9047 35.2907 58.5149 34.8289 58.5149 34.2309ZM49.6765 32.4577C48.6917 32.4577 47.9859 33.167 47.9859 34.2268C47.9859 35.2907 48.6917 35.9959 49.7134 35.9959C50.2058 35.9959 50.6982 35.8557 51.088 35.534L50.7351 35.0021C50.452 35.2165 50.0991 35.3567 49.7503 35.3567C49.2908 35.3567 48.8353 35.1423 48.7286 34.5443H51.2275C51.2275 34.4371 51.2275 34.367 51.2275 34.2598C51.2603 33.167 50.6243 32.4577 49.6765 32.4577ZM49.6765 33.0969C50.136 33.0969 50.452 33.3814 50.5217 33.9093H48.7614C48.8312 33.4515 49.1471 33.0969 49.6765 33.0969ZM68.0263 34.2309V31.1876H67.2878V32.9567C67.0416 32.6392 66.6887 32.4618 66.2291 32.4618C65.2771 32.4618 64.5386 33.2041 64.5386 34.2309C64.5386 35.2577 65.2771 36 66.2291 36C66.7215 36 67.0744 35.8227 67.2878 35.5051V35.9299H68.0263V34.2309ZM65.3141 34.2309C65.3141 33.6289 65.6998 33.134 66.3358 33.134C66.9349 33.134 67.3575 33.5959 67.3575 34.2309C67.3575 34.833 66.9349 35.3278 66.3358 35.3278C65.6998 35.2907 65.3141 34.8289 65.3141 34.2309ZM40.5877 34.2309V32.532H39.8491V32.9567C39.6029 32.6392 39.25 32.4618 38.7905 32.4618C37.8385 32.4618 37.0999 33.2041 37.0999 34.2309C37.0999 35.2577 37.8385 36 38.7905 36C39.2828 36 39.6357 35.8227 39.8491 35.5051V35.9299H40.5877V34.2309ZM37.8426 34.2309C37.8426 33.6289 38.2283 33.134 38.8643 33.134C39.4634 33.134 39.886 33.5959 39.886 34.2309C39.886 34.833 39.4634 35.3278 38.8643 35.3278C38.2283 35.2907 37.8426 34.8289 37.8426 34.2309Z" fill="white"/>
<path d="M55.0313 6.72577H43.936V26.7588H55.0313V6.72577Z" fill="#FF5A00"/>
<path d="M44.6745 16.7423C44.6745 12.6722 46.5785 9.05979 49.5 6.72577C47.3499 5.0268 44.6376 4 41.6791 4C34.6707 4 29 9.69897 29 16.7423C29 23.7856 34.6707 29.4845 41.6791 29.4845C44.6376 29.4845 47.3499 28.4577 49.5 26.7588C46.5744 24.4577 44.6745 20.8124 44.6745 16.7423Z" fill="#EB001B"/>
<path d="M70 16.7423C70 23.7856 64.3293 29.4845 57.3209 29.4845C54.3624 29.4845 51.6501 28.4577 49.5 26.7588C52.4585 24.4206 54.3255 20.8124 54.3255 16.7423C54.3255 12.6722 52.4215 9.05979 49.5 6.72577C51.646 5.0268 54.3583 4 57.3168 4C64.3293 4 70 9.73608 70 16.7423Z" fill="#F79E1B"/>
</g>
<defs>
<clipPath id="clip0_1_93">
<rect width="41" height="32" fill="white" transform="translate(29 4)"/>
</clipPath>
</defs>
</svg>
