<svg width="100" height="40" viewBox="0 0 100 40" fill="none" xmlns="http://www.w3.org/2000/svg">
<path fill-rule="evenodd" clip-rule="evenodd" d="M79.0286 15.4906C78.2116 14.9422 77.0029 14.6624 75.4024 14.6624H71.2054L69.6497 23.1236H64.1544L64.5125 21.1986H67.8142L68.2059 19.0385H64.893L65.2512 17.1247H68.6648L69.1124 14.6512H62.1846L60.7072 22.6759H58.1666L59.6551 14.6512H56.0401L54.5628 22.6759H52.0893L53.5778 14.6512H49.9628L48.3959 23.1124H42.867L43.214 21.1874H46.538L46.9298 19.0385H43.6057L43.9527 17.1135H47.411L47.8587 14.6288H26.2916L25.0604 21.3665L22.6206 14.6624H18.86L16.8455 25.6083H20.4269L21.6469 18.714L24.0196 25.6083H36.8681L38.435 17.1471H40.4495L38.8827 25.6083H72.6939L73.6788 20.2696L75.2681 25.6083H78.8608L77.2155 21.2434L77.5849 21.165C78.4131 20.9859 79.0622 20.6054 79.5099 20.0346C79.9576 19.4638 80.1926 18.7139 80.1926 17.8298C80.1814 16.7889 79.8009 16.0279 79.0286 15.4906ZM33.7567 23.1236H28.2726L28.6307 21.1986H32.0779L32.4696 19.0385H29.056L29.3806 17.1359H34.8647L33.7567 23.1236ZM76.0627 19.4302C75.7046 19.6877 75.1786 19.7996 74.4623 19.7996H73.746L74.2944 16.8673H74.8204C75.4136 16.8673 75.8501 16.968 76.1411 17.1583C76.3761 17.3149 76.6447 17.6059 76.6447 18.1767C76.6671 18.8818 76.3425 19.2512 76.0627 19.4302Z" fill="#83BA3B"/>
<path fill-rule="evenodd" clip-rule="evenodd" d="M81.8044 24.9034L81.7148 23.1799L82.4759 23.1351C82.599 23.1239 82.7109 23.1351 82.8228 23.1687C82.9012 23.1911 82.9795 23.247 83.0243 23.3254C83.0803 23.4037 83.1026 23.4932 83.1138 23.5828C83.125 23.6947 83.0915 23.8066 83.0131 23.8962C82.9236 23.9969 82.7893 24.064 82.655 24.0752C82.7109 24.0976 82.7557 24.12 82.8005 24.1536C82.8788 24.2207 82.946 24.2879 83.0019 24.3774L83.3265 24.8251L83.0467 24.8363L82.8005 24.4893C82.7333 24.3886 82.6662 24.3103 82.6214 24.2655C82.5878 24.2207 82.543 24.1872 82.4983 24.1536C82.4647 24.1312 82.4311 24.12 82.3864 24.1088C82.3714 24.1088 82.3565 24.1076 82.3416 24.1063C82.3117 24.1038 82.2819 24.1013 82.2521 24.1088L81.9834 24.12L82.0282 24.8811L81.8044 24.9034ZM81.9834 23.9297L82.4759 23.9074C82.5542 23.9074 82.6438 23.8962 82.7221 23.8626C82.7781 23.8402 82.8228 23.8066 82.8452 23.7507C82.8676 23.7059 82.89 23.6499 82.8788 23.594C82.8788 23.5156 82.834 23.4485 82.7781 23.3925C82.6997 23.3366 82.599 23.3142 82.4983 23.3254L81.9499 23.3477L81.9834 23.9297Z" fill="#83BA3B"/>
<path fill-rule="evenodd" clip-rule="evenodd" d="M80.7858 24.0863C80.7411 23.2022 81.4238 22.4411 82.308 22.3963C83.1921 22.3516 83.9532 23.0231 83.9979 23.9185C84.0427 24.8026 83.36 25.5637 82.4758 25.6085C81.5917 25.6532 80.8306 24.9705 80.7858 24.0863ZM82.2856 22.6314C81.5581 22.6873 80.9985 23.3253 81.0544 24.064C81.088 24.7691 81.67 25.3287 82.3751 25.3175C83.1138 25.3175 83.7181 24.7243 83.7181 23.9856V23.8625C83.6622 23.135 83.0242 22.5754 82.2856 22.6314Z" fill="#83BA3B"/>
</svg>
