<svg width="100" height="40" viewBox="0 0 100 40" fill="none" xmlns="http://www.w3.org/2000/svg">
<g clip-path="url(#clip0_1_99)">
<path d="M50.3543 15.1839C49.2871 15.1839 48.5074 15.5419 47.9992 16.2754C47.9992 15.8044 47.6267 15.4225 47.1677 15.4225H45.1866V21.0654C45.1862 21.444 45.2587 21.8189 45.3998 22.1688C45.5409 22.5187 45.748 22.8368 46.0091 23.1047C46.2703 23.3727 46.5805 23.5854 46.9219 23.7307C47.2634 23.8759 47.6294 23.9509 47.9992 23.9513V19.4138C47.9992 18.4076 48.5069 17.8618 49.3881 17.8618C50.1507 17.8618 50.6589 18.3222 50.6589 19.209V21.0654C50.6585 21.444 50.731 21.819 50.8721 22.1689C51.0133 22.5189 51.2204 22.8369 51.4816 23.1049C51.7428 23.3729 52.0531 23.5856 52.3946 23.7308C52.7361 23.876 53.1022 23.951 53.472 23.9513V18.851C53.472 16.4801 52.1841 15.1839 50.3543 15.1839ZM58.6718 24.19C59.9426 24.19 61.0098 23.7635 61.8739 22.8937C62.7552 22.0238 63.1955 20.9493 63.1955 19.6869C63.1955 18.4246 62.7552 17.367 61.8745 16.4971C61.0098 15.6273 59.9426 15.1839 58.6718 15.1839C57.4181 15.1839 56.3509 15.6273 55.4702 16.4971C54.5884 17.367 54.1481 18.4246 54.1481 19.6869C54.1481 20.9493 54.5884 22.0238 55.4697 22.8937C56.3504 23.7635 57.4181 24.19 58.6718 24.19ZM58.6718 21.4611C57.7061 21.4611 56.9777 20.7276 56.9777 19.6869C56.9777 18.6463 57.7061 17.9127 58.6718 17.9127C59.6717 17.9127 60.383 18.6463 60.383 19.6869C60.383 20.7276 59.6717 21.4611 58.6718 21.4611ZM70.2313 16.2075C69.6552 15.5249 68.859 15.1839 67.8254 15.1839C66.6909 15.1839 65.7418 15.6103 64.9792 16.4801C64.2166 17.333 63.8441 18.4076 63.8441 19.6869C63.8441 20.9662 64.2171 22.0408 64.9787 22.9107C65.7418 23.7635 66.6904 24.19 67.8254 24.19C68.859 24.19 69.6552 23.8489 70.2313 23.1663C70.2313 23.6002 70.5738 23.9513 70.996 23.9513H73.0439V12.011C72.2971 12.012 71.5812 12.3166 71.0538 12.8579C70.5263 13.3992 70.2305 14.1328 70.2313 14.8974V16.2075ZM67.1644 21.0341C66.8432 20.6936 66.6733 20.2497 66.6733 19.6869C66.6733 19.1242 66.8427 18.6808 67.1649 18.3397C67.4866 17.9981 67.9275 17.8279 68.4523 17.8279C68.9776 17.8279 69.4185 17.9981 69.7402 18.3392C70.0619 18.6808 70.2313 19.1242 70.2313 19.6869C70.2313 20.2497 70.0619 20.6936 69.7402 21.0341C69.4185 21.3757 68.9776 21.5465 68.4523 21.5465C67.9275 21.5465 67.4866 21.3757 67.1649 21.0347L67.1644 21.0341ZM80.1869 16.2075C79.6108 15.5249 78.8146 15.1839 77.781 15.1839C76.646 15.1839 75.6974 15.6103 74.9348 16.4801C74.1722 17.333 73.7997 18.4076 73.7997 19.6869C73.7997 20.9662 74.1722 22.0408 74.9348 22.9107C75.6974 23.7635 76.646 24.19 77.781 24.19C78.8146 24.19 79.6108 23.8489 80.1869 23.1663C80.1869 23.6002 80.5294 23.9513 80.9516 23.9513H82.9995V15.4225H80.9516C80.5294 15.4225 80.1869 15.7737 80.1869 16.2075ZM77.1205 21.0341C76.7983 20.6936 76.6289 20.2497 76.6289 19.6869C76.6289 19.1242 76.7983 18.6808 77.1205 18.3397C77.4422 17.9981 77.8826 17.8279 78.4079 17.8279C78.9332 17.8279 79.3736 17.9981 79.6958 18.3392C80.0175 18.6808 80.1869 19.1242 80.1869 19.6869C80.1869 20.2497 80.0175 20.6936 79.6958 21.0341C79.3736 21.3757 78.9332 21.5465 78.4079 21.5465C77.8826 21.5465 77.4422 21.3757 77.1205 21.0347V21.0341Z" fill="white"/>
<path fill-rule="evenodd" clip-rule="evenodd" d="M26.1484 8.61221C21.4957 8.61221 17.7242 12.4825 17.7242 17.2571V17.2577V22.0594C17.7242 26.8345 21.4963 30.7048 26.1484 30.7048H30.8286C35.4813 30.7048 39.2528 26.8345 39.2528 22.0599V17.2571C39.2528 12.4825 35.4808 8.61221 30.8286 8.61221H26.1484ZM26.9851 15.8474C27.586 14.9823 28.5077 14.5601 29.7702 14.5601C31.9336 14.5601 33.4567 16.0893 33.4567 18.8844V24.8986C31.6202 24.8986 30.1302 23.37 30.1302 21.485V19.3066C30.1302 18.2612 29.5293 17.7181 28.6279 17.7181C27.5855 17.7181 26.9846 18.3615 26.9846 19.5485V24.8986C25.148 24.8986 23.6586 23.37 23.6586 21.485V14.8418H26.0049C26.1338 14.8419 26.2613 14.868 26.3803 14.9186C26.4993 14.9692 26.6074 15.0434 26.6984 15.1367C26.7894 15.2301 26.8616 15.3409 26.9108 15.4629C26.96 15.5848 26.9852 15.7155 26.9851 15.8474Z" fill="url(#paint0_linear_1_99)"/>
</g>
<defs>
<linearGradient id="paint0_linear_1_99" x1="28.4885" y1="8.61221" x2="28.4885" y2="30.7048" gradientUnits="userSpaceOnUse">
<stop stop-color="#6935D2"/>
<stop offset="1" stop-color="#EC6C71"/>
</linearGradient>
<clipPath id="clip0_1_99">
<rect width="65.2758" height="22.2767" fill="white" transform="translate(17.7242 8.61221)"/>
</clipPath>
</defs>
</svg>
