<svg width="100" height="40" viewBox="0 0 100 40" fill="none" xmlns="http://www.w3.org/2000/svg">
<path fill-rule="evenodd" clip-rule="evenodd" d="M44.7381 16.6591C44.4138 16.4752 43.9962 16.5864 43.8069 16.9086C43.6177 17.2307 43.7284 17.6416 44.0527 17.8256C44.377 18.0095 44.7946 17.8983 44.9839 17.5762C45.1732 17.2541 45.0625 16.8431 44.7381 16.6591ZM59.8927 25.2364C59.5462 25.2364 59.2209 25.0691 59.0182 24.7867L57.4096 22.5426H56.6107V24.5721C56.6107 24.939 56.3147 25.2364 55.949 25.2364C55.5837 25.2364 55.2877 24.939 55.2877 24.5721V17.3158C55.2877 16.9489 55.5837 16.6515 55.949 16.6515C56.3147 16.6515 56.6107 16.9489 56.6107 17.3158V21.3597H57.4214L58.8486 19.3527C59.045 19.0761 59.363 18.9119 59.7015 18.9119C60.1285 18.9119 60.3761 19.3971 60.1267 19.7451L58.5421 21.9571L60.3252 24.3737C60.5889 24.7306 60.335 25.2364 59.8927 25.2364ZM37.6963 17.038H39.3267C40.9479 17.038 42.1758 18.1975 42.1758 19.9202C42.1758 21.6311 40.9599 22.7906 39.3267 22.7906H37.61V24.5542C37.61 24.931 37.3058 25.2364 36.9305 25.2364C36.5552 25.2364 36.251 24.931 36.251 24.5542V18.4892C36.251 17.6877 36.8981 17.038 37.6963 17.038ZM37.61 21.514H39.267C40.1612 21.514 40.7811 20.8225 40.7811 19.9202C40.7811 19.0061 40.1612 18.3146 39.267 18.3146H37.61V21.514ZM44.4015 25.2364C44.036 25.2364 43.7398 24.939 43.7398 24.5721V19.5762C43.7398 19.2093 44.036 18.9119 44.4015 18.9119C44.7668 18.9119 45.0631 19.2093 45.0631 19.5762V24.5721C45.0631 24.939 44.7668 25.2364 44.4015 25.2364ZM50.2797 25.4004C51.8653 25.4004 53.141 24.4166 53.4865 22.9409C53.5168 22.7934 53.4046 22.6552 53.2545 22.6552H52.6005C52.4086 22.6552 52.2334 22.7664 52.1513 22.9409C51.8058 23.7139 51.1263 24.1589 50.2797 24.1589C49.1353 24.1589 48.2532 23.2454 48.2532 22.0742C48.2532 20.903 49.1234 20.0011 50.2797 20.0011C51.1141 20.0011 51.8295 20.4462 52.1634 21.1724C52.2655 21.3973 52.4894 21.5417 52.7356 21.5417H53.1706C53.3649 21.5417 53.5112 21.364 53.4746 21.1724C53.117 19.7201 51.8772 18.7597 50.2797 18.7597C48.3605 18.7597 46.9061 20.1885 46.9061 22.0742C46.9061 23.9598 48.3605 25.4004 50.2797 25.4004ZM64.5823 25.4004C66.1558 25.4004 67.1929 24.604 67.1929 23.3742C67.1929 21.82 65.8754 21.6066 64.792 21.4312L64.7847 21.43L64.7701 21.4276C64.0018 21.2998 63.3544 21.1922 63.3544 20.6336C63.3544 20.1768 63.8075 19.8606 64.5346 19.8606C65.3095 19.8606 65.7863 20.1885 65.81 20.7859C65.81 20.8863 65.8876 20.9695 65.9876 20.976L66.8025 21.0297C66.9428 21.039 67.0619 20.9271 67.0619 20.7859C67.0379 19.5678 66.0604 18.7597 64.5702 18.7597C63.0681 18.7597 62.0787 19.5444 62.0787 20.6804C62.0787 22.1445 63.3425 22.3787 64.4152 22.5661C65.2022 22.6949 65.8935 22.8237 65.8935 23.4328C65.8935 23.9598 65.345 24.2526 64.6301 24.2526C63.8548 24.2526 63.2826 23.9012 63.2471 23.2337C63.2471 23.1171 63.1569 23.0205 63.041 23.0131L62.2476 22.9623C62.0916 22.9523 61.9596 23.0767 61.9596 23.2337C61.9951 24.5454 63.0204 25.4004 64.5823 25.4004ZM71.9693 18.7597C73.9484 18.7597 75.2596 20.2588 75.2596 22.0976C75.2596 22.2382 75.2478 22.3787 75.2237 22.5192H70.0023C70.1691 23.5499 70.9203 24.1823 71.9693 24.1823C72.6219 24.1823 73.1641 23.9333 73.526 23.505C73.6538 23.3533 73.8293 23.2454 74.0275 23.2454H74.6672C74.8751 23.2454 75.0207 23.4606 74.9235 23.6449C74.3437 24.7422 73.2616 25.4004 71.9693 25.4004C70.0859 25.4004 68.6671 23.9715 68.6671 22.0742C68.6671 20.1885 70.0859 18.7597 71.9693 18.7597ZM73.9244 21.4651C73.6858 20.5048 72.9587 19.9426 71.9693 19.9426C70.9799 19.9426 70.2527 20.5282 70.0382 21.4651H73.9244ZM76.9382 24.5721C76.9382 24.939 77.2346 25.2364 77.5999 25.2364C77.9652 25.2364 78.2616 24.939 78.2616 24.5721V17.3158C78.2616 16.9489 77.9652 16.6515 77.5999 16.6515C77.2346 16.6515 76.9382 16.9489 76.9382 17.3158V24.5721ZM81.1591 25.2364C80.7938 25.2364 80.4974 24.939 80.4974 24.5721V17.3158C80.4974 16.9489 80.7938 16.6515 81.1591 16.6515C81.5244 16.6515 81.8208 16.9489 81.8208 17.3158V24.5721C81.8208 24.939 81.5244 25.2364 81.1591 25.2364Z" fill="white"/>
<path d="M22.0973 14.8797C22.666 13.912 23.9255 13.5804 24.9106 14.1391L30.5158 17.3186C31.5009 17.8773 31.8383 19.1147 31.2697 20.0824L28.0334 25.5893C27.4647 26.5571 26.2052 26.8886 25.2202 26.3299L19.6149 23.1505C18.6299 22.5918 18.2924 21.3544 18.8611 20.3867L22.0973 14.8797Z" fill="#2F2C5B"/>
</svg>
