<svg width="100" height="40" viewBox="0 0 100 40" fill="none" xmlns="http://www.w3.org/2000/svg">
<g clip-path="url(#clip0_1_107)">
<g clip-path="url(#clip1_1_107)">
<path fill-rule="evenodd" clip-rule="evenodd" d="M45.1702 29.7523C45.2697 29.7523 45.3652 29.7137 45.4362 29.6449C45.5072 29.5762 45.5479 29.4826 45.5497 29.3845V17.3398C45.5497 16.3766 45.9375 15.4528 46.6279 14.7717C47.3183 14.0906 48.2546 13.708 49.231 13.708H52.8257C53.7986 13.7132 54.7299 14.0981 55.4159 14.7787C56.102 15.4592 56.4871 16.38 56.4871 17.3398V19.9011C56.4853 20.8638 56.0969 21.7865 55.4069 22.4672C54.7169 23.148 53.7816 23.5312 52.8058 23.5329H47.7531C47.6543 23.5329 47.5594 23.5716 47.4895 23.6406C47.4196 23.7096 47.3803 23.8031 47.3803 23.9007C47.3803 23.9982 47.4196 24.0918 47.4895 24.1607C47.5594 24.2297 47.6543 24.2684 47.7531 24.2684H52.8324C54.0071 24.2684 55.1338 23.8085 55.965 22.9897C56.7963 22.1708 57.2642 21.06 57.2659 19.9011V17.3398C57.2659 16.1826 56.8005 15.0728 55.9717 14.2539C55.1429 13.4351 54.0186 12.9742 52.8457 12.9724H49.2509C48.0762 12.9724 46.9496 13.4324 46.1183 14.2512C45.287 15.0701 44.8192 16.1809 44.8174 17.3398V29.3582C44.8138 29.4071 44.8201 29.4561 44.836 29.5025C44.8518 29.5489 44.8769 29.5917 44.9098 29.6284C44.9427 29.6651 44.9826 29.695 45.0273 29.7163C45.0721 29.7375 45.1206 29.7498 45.1702 29.7523Z" fill="white"/>
<path fill-rule="evenodd" clip-rule="evenodd" d="M60.6982 24.3389C60.7934 24.3372 60.8842 24.297 60.9509 24.2269C61.0177 24.1569 61.0551 24.0626 61.0551 23.9644V14.9895C61.0559 14.7249 61.0061 14.4628 60.9085 14.2181C60.8108 13.9734 60.6673 13.751 60.4861 13.5636C60.3049 13.3762 60.0896 13.2276 59.8526 13.1261C59.6155 13.0247 59.3614 12.9724 59.1047 12.9724H57.5814C57.4941 12.9844 57.4141 13.0287 57.3561 13.097C57.2981 13.1652 57.2661 13.2529 57.2661 13.3437C57.2661 13.4344 57.2981 13.5221 57.3561 13.5904C57.4141 13.6586 57.4941 13.7029 57.5814 13.7149H59.0792C59.2413 13.7149 59.4018 13.7479 59.5515 13.812C59.7011 13.8762 59.837 13.9702 59.9513 14.0886C60.0656 14.207 60.1561 14.3476 60.2176 14.5022C60.279 14.6568 60.3102 14.8224 60.3094 14.9895V23.9644C60.3102 24.0156 60.3209 24.0661 60.3411 24.1129C60.3612 24.1597 60.3903 24.2018 60.4266 24.2368C60.4629 24.2717 60.5056 24.2988 60.5523 24.3163C60.599 24.3339 60.6486 24.3416 60.6982 24.3389Z" fill="white"/>
<path d="M60.7499 11.7594L60.1033 11.1144C60.0619 11.0752 60.029 11.028 60.0065 10.9757C59.984 10.9234 59.9724 10.8671 59.9724 10.8102C59.9724 10.7533 59.984 10.697 60.0065 10.6447C60.029 10.5924 60.0619 10.5452 60.1033 10.506L60.7499 9.86106C60.7883 9.81819 60.8353 9.78388 60.8879 9.76039C60.9404 9.7369 60.9974 9.72476 61.055 9.72476C61.1126 9.72476 61.1695 9.7369 61.2221 9.76039C61.2747 9.78388 61.3217 9.81819 61.36 9.86106L62.0067 10.506C62.048 10.5452 62.081 10.5924 62.1035 10.6447C62.126 10.697 62.1375 10.7533 62.1375 10.8102C62.1375 10.8671 62.126 10.9234 62.1035 10.9757C62.081 11.028 62.048 11.0752 62.0067 11.1144L61.36 11.7594C61.3207 11.8006 61.2734 11.8335 61.2209 11.8559C61.1685 11.8783 61.112 11.8899 61.055 11.8899C60.9979 11.8899 60.9415 11.8783 60.889 11.8559C60.8366 11.8335 60.7893 11.8006 60.7499 11.7594Z" fill="#32BCAD"/>
<path fill-rule="evenodd" clip-rule="evenodd" d="M72.5953 17.4272C72.4431 17.575 72.2389 17.6578 72.0262 17.6578C71.8136 17.6578 71.6094 17.575 71.4572 17.4272L67.9456 13.9252C67.6415 13.6228 67.2805 13.383 66.8832 13.2195C66.486 13.0561 66.0603 12.9721 65.6304 12.9724H64.1236C64.0276 12.9724 63.9355 13.0104 63.8675 13.078C63.7996 13.1456 63.7615 13.2373 63.7615 13.3329C63.7615 13.4292 63.7994 13.5215 63.8671 13.5902C63.9349 13.6588 64.027 13.6982 64.1236 13.6999H65.6304C65.9642 13.6997 66.2948 13.765 66.6033 13.892C66.9118 14.019 67.1921 14.2053 67.4282 14.4402L70.9463 17.9422C71.2334 18.226 71.6216 18.3853 72.0262 18.3853C72.4309 18.3853 72.8191 18.226 73.1062 17.9422L76.6113 14.4531C76.8482 14.2174 77.1296 14.0307 77.4392 13.9036C77.7489 13.7766 78.0807 13.7117 78.4156 13.7128H79.6379C79.7292 13.7115 79.8167 13.6766 79.8836 13.6147C79.9505 13.5529 79.992 13.4685 80 13.378C80 13.2824 79.9619 13.1907 79.8939 13.1231C79.826 13.0555 79.7339 13.0175 79.6379 13.0175H78.4156C77.5589 13.014 76.7349 13.3444 76.1198 13.9381L72.5953 17.4272Z" fill="white"/>
<path fill-rule="evenodd" clip-rule="evenodd" d="M63.7615 23.972C63.7615 24.0683 63.7994 24.1608 63.8671 24.2296C63.9349 24.2983 64.027 24.3378 64.1236 24.3394H65.6304C66.4993 24.3377 67.332 23.9923 67.9456 23.3789L71.4572 19.8785C71.5317 19.8037 71.6204 19.7443 71.718 19.7037C71.8157 19.6632 71.9204 19.6423 72.0262 19.6423C72.132 19.6423 72.2368 19.6632 72.3345 19.7037C72.4321 19.7443 72.5208 19.8037 72.5953 19.8785L76.1198 23.3596C76.7354 23.9739 77.5704 24.3194 78.4415 24.3201H79.6637C79.7525 24.3124 79.8355 24.2729 79.8974 24.2089C79.9592 24.1449 79.9956 24.0607 80 23.972C80 23.8763 79.9619 23.7844 79.8939 23.7167C79.826 23.649 79.7339 23.611 79.6379 23.611H78.4156C78.0803 23.6108 77.7483 23.5447 77.4387 23.4164C77.1291 23.288 76.8479 23.1001 76.6113 22.8632L73.1062 19.3757C72.9649 19.2334 72.7967 19.1205 72.6113 19.0434C72.426 18.9663 72.2271 18.9266 72.0262 18.9266C71.8254 18.9266 71.6265 18.9663 71.4412 19.0434C71.2558 19.1205 71.0876 19.2334 70.9463 19.3757L67.4282 22.8761C66.952 23.3529 66.3054 23.6218 65.6304 23.6239H64.1236C64.0298 23.6238 63.9396 23.6601 63.872 23.725C63.8045 23.79 63.7648 23.8785 63.7615 23.972Z" fill="white"/>
<path d="M35.8221 26.1636C35.4539 26.1649 35.0892 26.0906 34.7487 25.945C34.4082 25.7994 34.0986 25.5854 33.8377 25.3152L30.9735 22.3355C30.8736 22.2322 30.7385 22.1743 30.5978 22.1743C30.457 22.1743 30.322 22.2322 30.2221 22.3355L27.3579 25.3218C27.0974 25.5949 26.7871 25.8112 26.4453 25.9581C26.1034 26.1049 25.7369 26.1793 25.367 26.177H24.7891L28.4175 29.9517C28.6865 30.2317 29.0058 30.4538 29.3574 30.6053C29.7089 30.7569 30.0856 30.8349 30.4661 30.8349C30.8466 30.8349 31.2234 30.7569 31.5749 30.6053C31.9264 30.4538 32.2458 30.2317 32.5148 29.9517L36.156 26.1636H35.8221Z" fill="#32BCAD"/>
<path d="M25.3664 15.9872C25.7369 15.989 26.1035 16.0671 26.4448 16.217C26.7862 16.367 27.0955 16.5858 27.355 16.8608L30.2224 19.8483C30.3221 19.9513 30.457 20.0092 30.5976 20.0092C30.7382 20.0092 30.8732 19.9513 30.9729 19.8483L33.8275 16.8608C34.0869 16.589 34.3958 16.3736 34.7361 16.227C35.0764 16.0805 35.4413 16.0058 35.8096 16.0073H36.156L32.5189 12.2329C32.2506 11.9526 31.9318 11.7302 31.5806 11.5785C31.2294 11.4267 30.8529 11.3486 30.4725 11.3486C30.0922 11.3486 29.7157 11.4267 29.3645 11.5785C29.0133 11.7302 28.6945 11.9526 28.4262 12.2329L24.7891 15.9872H25.3664Z" fill="#32BCAD"/>
<path d="M39.6278 18.9823L37.3976 16.7615C37.3475 16.7817 37.2942 16.7928 37.2402 16.7942H36.2038C35.6723 16.797 35.1632 17.0088 34.787 17.3838L31.8615 20.2991C31.7324 20.4306 31.5783 20.5348 31.4082 20.6057C31.238 20.6766 31.0554 20.7127 30.871 20.7118C30.6873 20.7125 30.5052 20.6769 30.3353 20.6072C30.1653 20.5375 30.0108 20.435 29.8805 20.3056L26.9419 17.3511C26.5665 16.9748 26.0569 16.7628 25.5251 16.7615H24.2788C24.2269 16.7722 24.1733 16.7722 24.1214 16.7615L21.8649 18.9823C21.311 19.5384 21 20.2909 21 21.0754C21 21.8598 21.311 22.6123 21.8649 23.1684L24.1214 25.422C24.1712 25.4121 24.2224 25.4121 24.2722 25.422H25.5251C26.0568 25.42 26.5661 25.2081 26.9419 24.8324L29.8805 21.9041C30.1462 21.6525 30.4984 21.5123 30.8645 21.5123C31.2306 21.5123 31.5827 21.6525 31.8484 21.9041L34.7739 24.7931C35.1512 25.1658 35.6601 25.3752 36.1907 25.3762H37.214C37.268 25.3776 37.3213 25.3887 37.3714 25.4089L39.6147 23.1684C40.1704 22.6141 40.4838 21.8625 40.4862 21.0781C40.4887 20.2936 40.1801 19.5401 39.6278 18.9823Z" fill="#32BCAD"/>
<path d="M48.1038 28.2599C47.9389 28.2685 47.7752 28.3 47.6159 28.3536V29.1395C47.7367 29.1949 47.8647 29.2218 47.9935 29.2188C48.3188 29.2188 48.4756 29.0818 48.4756 28.7285C48.4756 28.3753 48.3478 28.2599 48.1038 28.2599ZM47.5229 29.7523V28.1662H47.6159V28.2311C47.7813 28.177 47.9505 28.1432 48.1213 28.1301C48.2418 28.1191 48.3615 28.1626 48.4582 28.2527C48.5103 28.3158 48.5504 28.3926 48.5755 28.4774C48.6007 28.5622 48.6102 28.653 48.6034 28.743C48.6094 28.8438 48.5931 28.9448 48.5563 29.035C48.5194 29.1253 48.4634 29.2013 48.3943 29.2548C48.2767 29.3254 48.1472 29.36 48.0167 29.3558C47.8848 29.356 47.7536 29.3317 47.6275 29.2837V29.7523H47.5229Z" fill="white"/>
<path d="M49.6878 28.2364C49.3887 28.2364 49.2552 28.3506 49.2552 28.6617C49.2552 28.9728 49.3887 29.0998 49.6878 29.0998C49.9868 29.0998 50.1203 28.9918 50.1203 28.6808C50.1203 28.3697 49.9868 28.2364 49.6878 28.2364ZM50.0722 29.0998C49.9576 29.1851 49.8224 29.223 49.6878 29.2077C49.5533 29.2199 49.419 29.1822 49.3033 29.0998C49.2495 29.0486 49.2071 28.9824 49.1801 28.9071C49.1531 28.8318 49.1422 28.7496 49.1484 28.6681C49.1436 28.5867 49.1551 28.505 49.182 28.43C49.209 28.3549 49.2505 28.2885 49.3033 28.2364C49.4227 28.1654 49.5543 28.1284 49.6878 28.1284C49.8212 28.1284 49.9528 28.1654 50.0722 28.2364C50.126 28.2875 50.1684 28.3537 50.1954 28.429C50.2224 28.5043 50.2333 28.5865 50.2271 28.6681C50.2343 28.7497 50.2239 28.8323 50.1968 28.9078C50.1697 28.9833 50.1268 29.0494 50.0722 29.0998Z" fill="white"/>
<path d="M52.3341 29.211L51.8717 28.31L51.3873 29.211H51.2625L50.7708 28.1284H50.9249L51.3873 29.0362L51.8276 28.1284H51.9524L52.3928 29.0362L52.7891 28.1284H52.9359L52.4515 29.211H52.3341Z" fill="white"/>
<path d="M53.4727 28.2376C53.1703 28.2376 53.0656 28.3834 53.0482 28.5926H53.8915C53.8624 28.3834 53.7751 28.2376 53.4727 28.2376ZM53.4727 29.2076C53.3352 29.2233 53.1971 29.1851 53.0831 29.0998C53.0312 29.044 52.9913 28.9765 52.9662 28.902C52.941 28.8274 52.9313 28.7478 52.9377 28.6687C52.9336 28.586 52.9472 28.5034 52.9775 28.4275C53.0078 28.3515 53.0539 28.2843 53.1122 28.2312C53.2224 28.1587 53.3499 28.1234 53.4785 28.1298C53.6092 28.1209 53.7393 28.1563 53.8507 28.2312C53.912 28.2881 53.959 28.361 53.9875 28.443C54.016 28.525 54.0249 28.6136 54.0136 28.7004H53.0424C53.0424 28.9096 53.1122 29.0998 53.4785 29.0998C53.6406 29.0944 53.8019 29.0753 53.9612 29.0427V29.1505C53.7979 29.1823 53.6327 29.2014 53.4669 29.2076H53.4727Z" fill="white"/>
<path d="M54.5596 29.211V28.1611H54.645V28.2198C54.7928 28.1663 54.946 28.1356 55.1009 28.1284V28.2458C54.9537 28.2506 54.808 28.2791 54.6678 28.3306V29.211H54.5596Z" fill="white"/>
<path d="M55.6371 28.2379C55.3351 28.2379 55.2363 28.3837 55.2131 28.5928H56.0554C56.0495 28.3837 55.9392 28.2379 55.6371 28.2379ZM55.6371 29.2076C55.4998 29.2233 55.3618 29.1851 55.248 29.0998C55.1961 29.0441 55.1563 28.9766 55.1312 28.9021C55.1061 28.8276 55.0963 28.7479 55.1027 28.6689C55.0999 28.5864 55.1141 28.5043 55.1443 28.4286C55.1745 28.3529 55.2198 28.2856 55.277 28.2316C55.3871 28.159 55.5145 28.1238 55.6429 28.1302C55.7736 28.12 55.9038 28.1555 56.0147 28.2316C56.0772 28.2872 56.1251 28.3599 56.1537 28.4422C56.1823 28.5246 56.1904 28.6137 56.1773 28.7006H55.2131C55.2131 28.9097 55.277 29.0998 55.6429 29.0998C55.8048 29.0948 55.966 29.0757 56.1251 29.0428V29.1505C55.962 29.1827 55.797 29.2018 55.6313 29.2076H55.6371Z" fill="white"/>
<path d="M57.7092 28.2076C57.5884 28.1566 57.4615 28.1304 57.3337 28.1301C57.0101 28.1301 56.8541 28.264 56.8541 28.6095C56.8541 28.955 56.9812 29.089 57.2239 29.089C57.3877 29.077 57.5501 29.0464 57.7092 28.9973V28.2076ZM57.7092 29.1806V29.1101C57.5428 29.1636 57.3725 29.1966 57.2008 29.2088C57.0834 29.2212 56.9664 29.1811 56.8715 29.096C56.8195 29.033 56.7795 28.9566 56.7546 28.8725C56.7296 28.7884 56.7202 28.6986 56.727 28.6095C56.7221 28.512 56.7388 28.4147 56.7754 28.3279C56.812 28.241 56.8672 28.1678 56.935 28.116C57.0505 28.0415 57.18 28.005 57.3105 28.0102C57.4415 28.0134 57.5716 28.0371 57.6976 28.0807V27.5872H57.8074V29.2018L57.7092 29.1806Z" fill="white"/>
<path d="M59.4761 28.1378C59.3129 28.1462 59.151 28.177 58.9933 28.2295V28.9989C59.1129 29.0527 59.2396 29.079 59.3669 29.0766C59.6887 29.0766 59.8439 28.9425 59.8439 28.5966C59.8439 28.2507 59.7175 28.1378 59.4761 28.1378ZM59.752 29.1119C59.6356 29.1809 59.5076 29.2148 59.3784 29.2107C59.2377 29.2101 59.0979 29.1815 58.9646 29.126V29.1825H58.8899V27.5872H59.0048V28.1307C59.1665 28.0778 59.3321 28.0447 59.4991 28.0319C59.6165 28.0221 59.7328 28.0647 59.8267 28.1519C59.8783 28.2137 59.9179 28.2888 59.9428 28.3719C59.9677 28.4549 59.9771 28.5438 59.9703 28.6319C59.972 28.7285 59.9526 28.8239 59.9142 28.9083C59.8758 28.9927 59.8198 29.063 59.752 29.1119Z" fill="white"/>
<path d="M60.5372 29.7523V29.6235H60.6784C60.742 29.6293 60.8054 29.6092 60.8586 29.5665C60.9119 29.5238 60.9519 29.4608 60.9726 29.3875L61.0138 29.2945L60.5137 28.1428H60.6431L61.0667 29.1228L61.4727 28.1284H61.5962L61.0667 29.4232C61.0374 29.5216 60.9825 29.6056 60.9102 29.6624C60.838 29.7193 60.7524 29.7458 60.6666 29.738L60.5372 29.7523Z" fill="white"/>
<path d="M63.4612 29.0683H63.0036V29.4863H63.4685C63.7858 29.4863 63.9039 29.4863 63.9039 29.2736C63.9039 29.061 63.7416 29.0683 63.4612 29.0683ZM63.38 28.3936H63.0036V28.819H63.38C63.6973 28.819 63.8227 28.819 63.8227 28.6063C63.8227 28.3936 63.6604 28.3936 63.38 28.3936ZM64.1179 29.6329C63.886 29.7338 63.6314 29.7717 63.38 29.7429H62.679V28.137H63.3652C63.5991 28.1105 63.8358 28.1459 64.0515 28.2396C64.1059 28.2733 64.1499 28.3212 64.1785 28.3782C64.2072 28.4351 64.2194 28.4989 64.2138 28.5623C64.22 28.6409 64.1982 28.7191 64.1524 28.7834C64.1066 28.8477 64.0395 28.894 63.9629 28.9143C64.1696 28.9656 64.3024 29.0683 64.3024 29.2956C64.3058 29.3659 64.288 29.4357 64.2512 29.4958C64.2143 29.5559 64.1602 29.6037 64.0958 29.6329H64.1179Z" fill="white"/>
<path d="M65.122 28.7533H64.7945C64.6081 28.7533 64.546 28.7913 64.546 28.8864C64.546 28.9816 64.5968 29.0259 64.7437 29.0259C64.871 29.0194 64.9976 29.0003 65.122 28.9689V28.7533ZM65.1785 29.1845V29.121C65.0165 29.1722 64.8497 29.202 64.6816 29.2098C64.5853 29.2169 64.4892 29.1927 64.4048 29.1401C64.3716 29.1109 64.3451 29.0732 64.3274 29.0302C64.3097 28.9872 64.3014 28.9401 64.3032 28.8928C64.3 28.8343 64.313 28.7762 64.3403 28.7263C64.3675 28.6764 64.4078 28.6371 64.4557 28.6138C64.5658 28.5684 64.683 28.5489 64.8001 28.5567C64.9092 28.5506 65.0186 28.5506 65.1277 28.5567C65.1277 28.3919 65.0373 28.3411 64.7776 28.3411H64.4444V28.1319C64.5743 28.1319 64.7154 28.1319 64.834 28.1319C64.9804 28.1171 65.1275 28.1501 65.2576 28.227C65.3038 28.2677 65.3397 28.3214 65.3615 28.3826C65.3833 28.4438 65.3903 28.5105 65.3818 28.5757V29.2098L65.1785 29.1845Z" fill="white"/>
<path d="M66.7699 29.2045V28.6285C66.7699 28.4344 66.6872 28.3696 66.5384 28.3696C66.4155 28.3763 66.2936 28.398 66.1746 28.4344V29.2045H65.9265V28.1625H66.1305V28.2273C66.2849 28.1741 66.4439 28.1416 66.6046 28.1302C66.7139 28.1195 66.8226 28.1589 66.9077 28.2402C66.9443 28.2816 66.9723 28.3323 66.9895 28.3884C67.0067 28.4445 67.0127 28.5045 67.007 28.5638V29.211L66.7699 29.2045Z" fill="white"/>
<path d="M68.1159 29.2088C67.9768 29.2206 67.8378 29.1847 67.7232 29.1073C67.6623 29.0517 67.6154 28.9833 67.5859 28.9074C67.5564 28.8316 67.5451 28.7502 67.553 28.6695C67.549 28.5849 67.5666 28.5007 67.6043 28.4243C67.642 28.3479 67.6986 28.2817 67.769 28.2317C67.9107 28.1553 68.072 28.12 68.2338 28.1301H68.6069V28.3839C68.4957 28.3778 68.3843 28.3778 68.2731 28.3839C67.9916 28.3839 67.8606 28.4664 67.8606 28.7012C67.8606 28.936 67.9588 29.0185 68.188 29.0185C68.3375 29.0126 68.4863 28.9957 68.6331 28.9677V29.1771C68.4621 29.2032 68.289 29.2138 68.1159 29.2088Z" fill="white"/>
<path d="M69.4478 28.3475C69.1237 28.3475 68.9805 28.4303 68.9805 28.6659C68.9805 28.9014 69.1237 29.0033 69.4478 29.0033C69.7719 29.0033 69.9076 28.9142 69.9076 28.685C69.9076 28.4558 69.7719 28.3475 69.4478 28.3475ZM70.0282 29.1115C69.8432 29.1772 69.6447 29.211 69.444 29.211C69.2434 29.211 69.0448 29.1772 68.8599 29.1115C68.7884 29.0561 68.7313 28.9887 68.6923 28.9136C68.6532 28.8385 68.6331 28.7574 68.6331 28.6754C68.6331 28.5934 68.6532 28.5123 68.6923 28.4372C68.7313 28.3622 68.7884 28.2947 68.8599 28.2393C69.0391 28.1554 69.2435 28.1178 69.4478 28.131C69.6496 28.1187 69.8513 28.1563 70.0282 28.2393C70.1066 28.2891 70.1686 28.355 70.2082 28.4308C70.2478 28.5066 70.2636 28.5897 70.2543 28.6722C70.2635 28.7556 70.2476 28.8396 70.2081 28.9164C70.1686 28.9932 70.1067 29.0604 70.0282 29.1115Z" fill="white"/>
<path d="M71.6302 29.2091C71.4267 29.2223 71.2248 29.167 71.0584 29.0527C70.9667 28.9701 70.8958 28.8681 70.8513 28.7547C70.8068 28.6412 70.7899 28.5193 70.8018 28.3985C70.7961 28.2704 70.8233 28.1429 70.8809 28.0275C70.9384 27.912 71.0246 27.8123 71.1317 27.7371C71.3378 27.6279 71.5719 27.5786 71.8062 27.5949C71.9942 27.5846 72.1826 27.5846 72.3706 27.5949V27.8722C72.1947 27.8722 71.9894 27.8722 71.8208 27.8722C71.3663 27.8722 71.1757 28.0429 71.1757 28.3985C71.1757 28.754 71.3516 28.9318 71.6889 28.9318C71.9358 28.9246 72.1814 28.8937 72.4219 28.8394V29.1167C72.1614 29.1702 71.8964 29.2011 71.6302 29.2091Z" fill="white"/>
<path d="M72.9688 28.3143C72.7691 28.3143 72.6881 28.3968 72.672 28.5553H73.2603C73.2549 28.3841 73.1685 28.3143 72.9688 28.3143ZM72.931 29.2085C72.8019 29.2215 72.6727 29.1836 72.564 29.1007C72.5146 29.0458 72.4763 28.9785 72.452 28.9039C72.4277 28.8292 72.418 28.7491 72.4237 28.6695C72.4203 28.5877 72.4332 28.5062 72.4613 28.4314C72.4894 28.3565 72.5319 28.2904 72.5856 28.2382C72.7008 28.1568 72.8347 28.1191 72.9688 28.1304C73.1003 28.1222 73.2312 28.1574 73.3466 28.2319C73.4065 28.2943 73.4519 28.3737 73.4783 28.4625C73.5048 28.5513 73.5115 28.6465 73.4978 28.7392H72.672C72.672 28.8978 72.7475 28.9992 72.9904 28.9992C73.1461 28.9938 73.3013 28.9747 73.4546 28.9422V29.1451C73.2818 29.1825 73.1067 29.2037 72.931 29.2085Z" fill="white"/>
<path d="M74.8889 29.2045V28.6283C74.8889 28.4341 74.8062 28.3694 74.6575 28.3694C74.5346 28.3756 74.4127 28.3973 74.2938 28.4341V29.2045H74.0459V28.1622H74.2497V28.2269C74.406 28.1739 74.5667 28.1413 74.7291 28.1298C74.8383 28.1204 74.9465 28.1597 75.0321 28.2399C75.0677 28.2819 75.0946 28.3329 75.1109 28.389C75.1271 28.4451 75.1322 28.5048 75.1258 28.5636V29.211L74.8889 29.2045Z" fill="white"/>
<path d="M76.4362 29.7422C76.3566 29.7501 76.2763 29.7381 76.203 29.7074C76.1297 29.6768 76.0657 29.6285 76.0174 29.5671C75.9497 29.457 75.9194 29.3293 75.9304 29.2017V28.7526H75.6697V28.5014H75.9304V28.1284H76.2465V28.5014H76.7522V28.7526H76.2465V29.1485C76.2287 29.2262 76.2287 29.3067 76.2465 29.3844C76.2692 29.4228 76.3029 29.4539 76.3436 29.4742C76.3842 29.4944 76.4301 29.5029 76.4757 29.4986C76.5597 29.507 76.6445 29.507 76.7285 29.4986V29.7498C76.631 29.7548 76.5333 29.7523 76.4362 29.7422Z" fill="white"/>
<path d="M76.7522 29.2045V28.1609H76.9119V28.2257C77.0267 28.1699 77.1461 28.1372 77.2669 28.1284H77.2935V28.3877H77.2225C77.1282 28.3866 77.0341 28.4041 76.943 28.4396V29.211L76.7522 29.2045Z" fill="white"/>
<path d="M78.6734 28.7098H78.3347C78.1453 28.7098 78.0821 28.7479 78.0821 28.8431C78.0821 28.9382 78.1395 28.9826 78.2831 28.9826C78.4144 28.9757 78.545 28.9566 78.6734 28.9255V28.7098ZM78.7251 29.1412V29.0778C78.5604 29.129 78.3909 29.1588 78.2199 29.1666C78.122 29.1737 78.0244 29.1494 77.9386 29.0968C77.9049 29.0676 77.8779 29.0299 77.8599 28.9869C77.8419 28.9439 77.8335 28.8967 77.8353 28.8494C77.8325 28.7902 77.8465 28.7315 77.8753 28.6815C77.9041 28.6314 77.9463 28.5926 77.996 28.5703C78.106 28.5248 78.2233 28.5053 78.3405 28.5132C78.4381 28.5132 78.5701 28.5132 78.6792 28.5132C78.6792 28.3482 78.5816 28.2975 78.3232 28.2975L77.9559 28.3419V28.1325C78.0879 28.1325 78.2314 28.1325 78.3519 28.1325C78.5008 28.1162 78.6507 28.1493 78.7825 28.2277C78.8305 28.2676 78.8681 28.321 78.8913 28.3823C78.9145 28.4437 78.9225 28.5107 78.9145 28.5766V29.211L78.7251 29.1412Z" fill="white"/>
<path d="M79.4587 27.5872H80V29.211H79.4587V27.5872Z" fill="white"/>
</g>
</g>
<defs>
<clipPath id="clip0_1_107">
<rect width="100" height="40" fill="white"/>
</clipPath>
<clipPath id="clip1_1_107">
<rect width="59" height="42.7615" fill="white" transform="translate(21 -1.10092)"/>
</clipPath>
</defs>
</svg>
