<svg width="100" height="40" viewBox="0 0 100 40" fill="none" xmlns="http://www.w3.org/2000/svg">
<path d="M46.5674 27.7454H42.6961L45.1156 12.2764H48.9873L46.5674 27.7454ZM39.4393 12.2764L35.7485 22.9161L35.3118 20.625L35.3122 20.6258L34.0095 13.6692C34.0095 13.6692 33.852 12.2764 32.1731 12.2764H26.0716L26 12.5383C26 12.5383 27.8659 12.9422 30.0495 14.3064L33.4129 27.7458H37.4465L43.6057 12.2764H39.4393ZM69.8892 27.7454H73.4439L70.3447 12.276H67.2326C65.7956 12.276 65.4455 13.4288 65.4455 13.4288L59.6718 27.7454H63.7074L64.5144 25.4477H69.4358L69.8892 27.7454ZM65.6293 22.2735L67.6634 16.4846L68.8077 22.2735H65.6293ZM59.9744 15.9964L60.5269 12.6745C60.5269 12.6745 58.8222 12 57.045 12C55.1238 12 50.5616 12.8735 50.5616 17.121C50.5616 21.1174 55.9162 21.167 55.9162 23.2662C55.9162 25.3653 51.1133 24.9892 49.5283 23.6655L48.9527 27.1388C48.9527 27.1388 50.6813 28.0123 53.3224 28.0123C55.9643 28.0123 59.9498 26.5893 59.9498 22.7163C59.9498 18.6943 54.5471 18.3198 54.5471 16.5711C54.5475 14.822 58.3178 15.0467 59.9744 15.9964Z" fill="#1534CC"/>
<path d="M35.3122 20.6254L34.0095 13.6688C34.0095 13.6688 33.852 12.276 32.1731 12.276H26.0716L26 12.538C26 12.538 28.9326 13.1702 31.7455 15.5392C34.4351 17.8034 35.3122 20.6254 35.3122 20.6254Z" fill="#FAA61A"/>
</svg>
