<svg width="100" height="40" viewBox="0 0 100 40" fill="none" xmlns="http://www.w3.org/2000/svg">
<g clip-path="url(#clip0_1_140)">
<path d="M25.1892 6.0676H28.5946L31.3819 13.9807L34.3535 6.0676H36.4336L39.4051 13.8676L42.1984 6.0676H45.6216L40.57 19.9325H38.3592L35.3876 12.0194L32.3447 19.9325H30.1874" fill="white"/>
<path d="M55.0731 11.6294C54.8308 10.8715 54.3257 10.214 53.64 9.76401C52.9173 9.27908 52.0508 9.02564 51.1663 9.04047C50.2006 9.02364 49.256 9.30972 48.4785 9.85445C47.8838 10.3411 47.4225 10.958 47.1347 11.652L55.0731 11.6294ZM58.7301 14.3709H46.9741C47.1065 15.2879 47.5916 16.1256 48.3358 16.7224C49.1375 17.3245 50.1396 17.6333 51.1604 17.5929C51.8121 17.6004 52.4589 17.4837 53.0625 17.2497C53.666 17.0157 54.2142 16.6692 54.6747 16.2306H58.2425C58.218 16.7228 58.0536 17.1995 57.7668 17.6099C57.0699 18.589 56.1197 19.3813 55.0077 19.9105C53.8096 20.4328 52.5018 20.688 51.1841 20.6566C50.154 20.6952 49.1264 20.5325 48.165 20.1786C47.2036 19.8247 46.3288 19.2871 45.5946 18.5991C44.8833 17.9244 44.3249 17.1185 43.9537 16.2309C43.5824 15.3434 43.4063 14.393 43.436 13.4382C43.4049 12.4678 43.5795 11.5013 43.9493 10.5962C44.3191 9.69117 44.8766 8.86606 45.5886 8.16996C46.2854 7.48388 47.1247 6.94312 48.0532 6.58208C48.9817 6.22104 49.9791 6.04761 50.982 6.07283C52.0183 6.03507 53.0517 6.20192 54.0168 6.56287C54.982 6.92383 55.8579 7.47103 56.5894 8.16996C57.3227 8.91013 57.8917 9.78306 58.2625 10.7367C58.6334 11.6904 58.7985 12.7053 58.7479 13.7209" fill="white"/>
<path d="M66.3464 9.19032C65.8043 9.17775 65.2654 9.27278 64.7645 9.46929C64.2637 9.66579 63.8119 9.95941 63.4385 10.3312C63.0472 10.7261 62.7432 11.1908 62.5443 11.6982C62.3454 12.2056 62.2556 12.7454 62.2801 13.286C62.2239 14.392 62.6315 15.4743 63.4143 16.2979C63.7881 16.6652 64.2364 16.9574 64.7325 17.157C65.2285 17.3566 65.7621 17.4595 66.3012 17.4595C66.8403 17.4595 67.3739 17.3566 67.8699 17.157C68.366 16.9574 68.8143 16.6652 69.1881 16.2979C69.9753 15.4842 70.3934 14.4109 70.3525 13.3088C70.3936 12.2218 69.982 11.1629 69.2062 10.3597C68.839 9.98651 68.3918 9.69169 67.8945 9.49495C67.3972 9.29821 66.8612 9.20408 66.3223 9.21884M62.443 1.68918V7.85552C63.0666 7.25371 63.8058 6.76973 64.621 6.42945C65.4116 6.10798 66.2641 5.94484 67.1247 5.95028C68.0546 5.94016 68.9758 6.11992 69.8254 6.47728C70.6751 6.83464 71.4331 7.36118 72.0478 8.02094C73.4287 9.47432 74.1559 11.3794 74.0749 13.3316C74.1331 15.2679 73.3808 17.1477 71.9814 18.5625C71.3596 19.222 70.5975 19.7499 69.7449 20.1116C68.8924 20.4733 67.9687 20.6608 67.0342 20.6617C66.2078 20.6718 65.3874 20.5263 64.621 20.2338C63.8096 19.8846 63.0718 19.3995 62.443 18.8021V20.2795H58.7567V1.68918" fill="white"/>
<path d="M37.4797 23.0195C36.9684 23.0105 36.4606 23.1028 35.9884 23.2905C35.5162 23.4782 35.0899 23.7573 34.7363 24.1101C34.3648 24.4912 34.0763 24.9388 33.8873 25.4271C33.6983 25.9154 33.6127 26.4346 33.6353 26.9547C33.6105 27.4827 33.6949 28.0102 33.8839 28.507C34.0728 29.0038 34.3624 29.4601 34.7363 29.8499C35.0883 30.2147 35.5177 30.5036 35.9958 30.6975C36.4739 30.8913 36.9899 30.9857 37.5092 30.9742C38.0212 30.9833 38.5293 30.8876 38.9995 30.6937C39.4696 30.4997 39.8909 30.2121 40.235 29.8499C40.9848 29.0706 41.3825 28.0404 41.3418 26.9828C41.3749 25.9463 40.9843 24.9382 40.2527 24.1719C39.9058 23.8085 39.4816 23.5201 39.0084 23.3262C38.5352 23.1322 38.024 23.0373 37.5092 23.0476M33.7884 20.2817V21.7602C34.3839 21.1839 35.0867 20.7187 35.8607 20.3885C36.6145 20.0826 37.4261 19.9276 38.2451 19.9332C39.1342 19.9198 40.0157 20.0908 40.8288 20.4344C41.642 20.778 42.3674 21.286 42.9549 21.9233C44.2706 23.3195 44.9635 25.151 44.886 27.0278C44.918 27.955 44.7582 28.8792 44.4158 29.7474C44.0733 30.6155 43.5549 31.4107 42.8902 32.0873C42.2992 32.7226 41.5738 33.2309 40.7619 33.5788C39.9501 33.9267 39.0702 34.1062 38.1803 34.1055C37.4051 34.1138 36.6361 33.9723 35.9196 33.6895C35.1428 33.3649 34.4345 32.9077 33.8296 32.3403V38.1757H30.2972V20.2536" fill="#F7A519"/>
<path d="M52.217 23.1689C51.6618 23.1564 51.1099 23.2527 50.5957 23.4519C50.0815 23.6512 49.6162 23.9489 49.2288 24.3266C48.8309 24.7064 48.5178 25.1585 48.3082 25.6559C48.0986 26.1532 47.9969 26.6855 48.0091 27.2211C47.9904 27.766 48.0888 28.3089 48.2986 28.8165C48.5083 29.3241 48.8248 29.7858 49.2288 30.1734C49.6155 30.5504 50.0798 30.8477 50.5929 31.0469C51.106 31.2461 51.6568 31.3428 52.2109 31.3312C52.7757 31.3475 53.338 31.2531 53.8627 31.0539C54.3873 30.8547 54.8631 30.5549 55.2602 30.1734C55.6659 29.781 55.9833 29.3143 56.193 28.8018C56.4027 28.2893 56.5003 27.7416 56.4799 27.1921C56.5007 26.6504 56.4031 26.1104 56.1932 25.6063C55.9832 25.1022 55.6656 24.6448 55.2602 24.263C54.8572 23.8912 54.3796 23.6002 53.8558 23.4073C53.3319 23.2144 52.7726 23.1234 52.2109 23.1399M56.2908 20.2918H59.4864V34.1735H56.2969V32.7089C55.6298 33.2971 54.8574 33.7676 54.0161 34.0982C53.2274 34.3905 52.3867 34.5359 51.5401 34.5266C50.5724 34.5346 49.6132 34.3543 48.7216 33.9968C47.8301 33.6394 47.0251 33.1124 46.3564 32.4484C45.6354 31.7684 45.069 30.9551 44.6924 30.059C44.3158 29.1628 44.137 28.2028 44.167 27.2384C44.1304 26.2724 44.2988 25.3091 44.6624 24.4061C45.0259 23.5031 45.5771 22.6788 46.2832 21.9821C47.2703 21.0254 48.5321 20.3654 49.9114 20.0844C51.2908 19.8034 52.7267 19.9138 54.0405 20.4018C54.8834 20.7528 55.6489 21.2517 56.2969 21.8721" fill="#F7A519"/>
<path d="M59.4865 19.9324H63.1952L66.9463 28.641L71.0899 19.9324H74.8108L65.7563 38.9054H62.0294L65.0013 32.7862" fill="#F7A519"/>
</g>
<defs>
<clipPath id="clip0_1_140">
<rect width="54" height="37.2162" fill="white" transform="translate(23 1.68918)"/>
</clipPath>
</defs>
</svg>
