<svg width="184" height="24" viewBox="0 0 184 24" fill="none" xmlns="http://www.w3.org/2000/svg">
<path d="M12.746 1.46403L15.856 7.76403L22.81 8.77603C22.9636 8.79818 23.1079 8.8629 23.2266 8.96285C23.3453 9.06281 23.4337 9.19401 23.4817 9.3416C23.5296 9.48918 23.5353 9.64726 23.4981 9.79791C23.4609 9.94857 23.3822 10.0858 23.271 10.194L18.238 15.094L19.426 22.02C19.4522 22.173 19.4351 22.3303 19.3766 22.474C19.3181 22.6178 19.2205 22.7423 19.095 22.8336C18.9694 22.9248 18.8208 22.9791 18.666 22.9903C18.5112 23.0015 18.3564 22.9692 18.219 22.897L12 19.632L5.77997 22.9C5.64245 22.9719 5.48759 23.0039 5.33285 22.9925C5.1781 22.9811 5.02963 22.9267 4.90415 22.8354C4.77867 22.7441 4.68118 22.6196 4.62267 22.4759C4.56415 22.3322 4.54694 22.175 4.57297 22.022L5.76097 15.1L0.727965 10.2C0.616754 10.0918 0.538074 9.95457 0.500838 9.80391C0.463602 9.65326 0.469297 9.49518 0.517278 9.3476C0.565259 9.20001 0.653609 9.06881 0.772321 8.96885C0.891033 8.8689 1.03536 8.80418 1.18897 8.78203L8.14296 7.76503L11.253 1.46503C11.3218 1.32586 11.4281 1.20868 11.5599 1.12671C11.6918 1.04475 11.8439 1.00126 11.9992 1.00116C12.1544 1.00106 12.3066 1.04434 12.4385 1.12613C12.5705 1.20791 12.677 1.32495 12.746 1.46403Z" fill="#EB1E1E"/>
<path d="M52.746 1.46403L55.856 7.76403L62.81 8.77603C62.9636 8.79818 63.1079 8.8629 63.2266 8.96285C63.3453 9.06281 63.4337 9.19401 63.4817 9.3416C63.5296 9.48918 63.5353 9.64726 63.4981 9.79791C63.4609 9.94857 63.3822 10.0858 63.271 10.194L58.238 15.094L59.426 22.02C59.4522 22.173 59.4351 22.3303 59.3766 22.474C59.3181 22.6178 59.2205 22.7423 59.095 22.8336C58.9694 22.9248 58.8208 22.9791 58.666 22.9903C58.5112 23.0015 58.3564 22.9692 58.219 22.897L52 19.632L45.78 22.9C45.6424 22.9719 45.4876 23.0039 45.3328 22.9925C45.1781 22.9811 45.0296 22.9267 44.9041 22.8354C44.7787 22.7441 44.6812 22.6196 44.6227 22.4759C44.5642 22.3322 44.5469 22.175 44.573 22.022L45.761 15.1L40.728 10.2C40.6168 10.0918 40.5381 9.95457 40.5008 9.80391C40.4636 9.65326 40.4693 9.49518 40.5173 9.3476C40.5653 9.20001 40.6536 9.06881 40.7723 8.96885C40.891 8.8689 41.0354 8.80418 41.189 8.78203L48.143 7.76503L51.253 1.46503C51.3218 1.32586 51.4281 1.20868 51.5599 1.12671C51.6918 1.04475 51.8439 1.00126 51.9992 1.00116C52.1544 1.00106 52.3066 1.04434 52.4385 1.12613C52.5705 1.20791 52.677 1.32495 52.746 1.46403Z" fill="#EB1E1E"/>
<path d="M92.746 1.46403L95.856 7.76403L102.81 8.77603C102.964 8.79818 103.108 8.8629 103.227 8.96285C103.345 9.06281 103.434 9.19401 103.482 9.3416C103.53 9.48918 103.535 9.64726 103.498 9.79791C103.461 9.94857 103.382 10.0858 103.271 10.194L98.238 15.094L99.426 22.02C99.4522 22.173 99.4351 22.3303 99.3766 22.474C99.3181 22.6178 99.2205 22.7423 99.095 22.8336C98.9694 22.9248 98.8208 22.9791 98.666 22.9903C98.5112 23.0015 98.3564 22.9692 98.219 22.897L92 19.632L85.78 22.9C85.6424 22.9719 85.4876 23.0039 85.3328 22.9925C85.1781 22.9811 85.0296 22.9267 84.9041 22.8354C84.7787 22.7441 84.6812 22.6196 84.6227 22.4759C84.5642 22.3322 84.5469 22.175 84.573 22.022L85.761 15.1L80.728 10.2C80.6168 10.0918 80.5381 9.95457 80.5008 9.80391C80.4636 9.65326 80.4693 9.49518 80.5173 9.3476C80.5653 9.20001 80.6536 9.06881 80.7723 8.96885C80.891 8.8689 81.0354 8.80418 81.189 8.78203L88.143 7.76503L91.253 1.46503C91.3218 1.32586 91.4281 1.20868 91.5599 1.12671C91.6918 1.04475 91.8439 1.00126 91.9992 1.00116C92.1544 1.00106 92.3066 1.04434 92.4385 1.12613C92.5705 1.20791 92.677 1.32495 92.746 1.46403Z" fill="#EB1E1E"/>
<path d="M132.746 1.46403L135.856 7.76403L142.81 8.77603C142.964 8.79818 143.108 8.8629 143.227 8.96285C143.345 9.06281 143.434 9.19401 143.482 9.3416C143.53 9.48918 143.535 9.64726 143.498 9.79791C143.461 9.94857 143.382 10.0858 143.271 10.194L138.238 15.094L139.426 22.02C139.452 22.173 139.435 22.3303 139.377 22.474C139.318 22.6178 139.221 22.7423 139.095 22.8336C138.969 22.9248 138.821 22.9791 138.666 22.9903C138.511 23.0015 138.356 22.9692 138.219 22.897L132 19.632L125.78 22.9C125.642 22.9719 125.488 23.0039 125.333 22.9925C125.178 22.9811 125.03 22.9267 124.904 22.8354C124.779 22.7441 124.681 22.6196 124.623 22.4759C124.564 22.3322 124.547 22.175 124.573 22.022L125.761 15.1L120.728 10.2C120.617 10.0918 120.538 9.95457 120.501 9.80391C120.464 9.65326 120.469 9.49518 120.517 9.3476C120.565 9.20001 120.654 9.06881 120.772 8.96885C120.891 8.8689 121.035 8.80418 121.189 8.78203L128.143 7.76503L131.253 1.46503C131.322 1.32586 131.428 1.20868 131.56 1.12671C131.692 1.04475 131.844 1.00126 131.999 1.00116C132.154 1.00106 132.307 1.04434 132.439 1.12613C132.571 1.20791 132.677 1.32495 132.746 1.46403Z" fill="#EB1E1E"/>
<path d="M172.746 1.46403L175.856 7.76403L182.81 8.77603C182.964 8.79818 183.108 8.8629 183.227 8.96285C183.345 9.06281 183.434 9.19401 183.482 9.3416C183.53 9.48918 183.535 9.64726 183.498 9.79791C183.461 9.94857 183.382 10.0858 183.271 10.194L178.238 15.094L179.426 22.02C179.452 22.173 179.435 22.3303 179.377 22.474C179.318 22.6178 179.221 22.7423 179.095 22.8336C178.969 22.9248 178.821 22.9791 178.666 22.9903C178.511 23.0015 178.356 22.9692 178.219 22.897L172 19.632L165.78 22.9C165.642 22.9719 165.488 23.0039 165.333 22.9925C165.178 22.9811 165.03 22.9267 164.904 22.8354C164.779 22.7441 164.681 22.6196 164.623 22.4759C164.564 22.3322 164.547 22.175 164.573 22.022L165.761 15.1L160.728 10.2C160.617 10.0918 160.538 9.95457 160.501 9.80391C160.464 9.65326 160.469 9.49518 160.517 9.3476C160.565 9.20001 160.654 9.06881 160.772 8.96885C160.891 8.8689 161.035 8.80418 161.189 8.78203L168.143 7.76503L171.253 1.46503C171.322 1.32586 171.428 1.20868 171.56 1.12671C171.692 1.04475 171.844 1.00126 171.999 1.00116C172.154 1.00106 172.307 1.04434 172.439 1.12613C172.571 1.20791 172.677 1.32495 172.746 1.46403Z" fill="white"/>
</svg>
