<svg width="184" height="24" viewBox="0 0 184 24" fill="none" xmlns="http://www.w3.org/2000/svg">
<path d="M12.746 0.464029L15.856 6.76403L22.81 7.77603C22.9636 7.79818 23.1079 7.8629 23.2266 7.96285C23.3453 8.06281 23.4337 8.19401 23.4817 8.3416C23.5296 8.48918 23.5353 8.64726 23.4981 8.79791C23.4609 8.94857 23.3822 9.08579 23.271 9.19403L18.238 14.094L19.426 21.02C19.4522 21.173 19.4351 21.3303 19.3766 21.474C19.3181 21.6178 19.2205 21.7423 19.095 21.8336C18.9694 21.9248 18.8208 21.9791 18.666 21.9903C18.5112 22.0015 18.3564 21.9692 18.219 21.897L12 18.632L5.77997 21.9C5.64245 21.9719 5.48759 22.0039 5.33285 21.9925C5.1781 21.9811 5.02963 21.9267 4.90415 21.8354C4.77867 21.7441 4.68118 21.6196 4.62267 21.4759C4.56415 21.3322 4.54694 21.175 4.57297 21.022L5.76097 14.1L0.727965 9.20003C0.616754 9.09179 0.538074 8.95457 0.500838 8.80391C0.463602 8.65326 0.469297 8.49518 0.517278 8.3476C0.565259 8.20001 0.653609 8.06881 0.772321 7.96885C0.891033 7.8689 1.03536 7.80418 1.18897 7.78203L8.14296 6.76503L11.253 0.46503C11.3218 0.325856 11.4281 0.208678 11.5599 0.126714C11.6918 0.0447507 11.8439 0.00126384 11.9992 0.00115985C12.1544 0.00105587 12.3066 0.044339 12.4385 0.126126C12.5705 0.207913 12.677 0.324949 12.746 0.464029Z" fill="#EB1E1E"/>
<path d="M52.746 0.464029L55.856 6.76403L62.81 7.77603C62.9636 7.79818 63.1079 7.8629 63.2266 7.96285C63.3453 8.06281 63.4337 8.19401 63.4817 8.3416C63.5296 8.48918 63.5353 8.64726 63.4981 8.79791C63.4609 8.94857 63.3822 9.08579 63.271 9.19403L58.238 14.094L59.426 21.02C59.4522 21.173 59.4351 21.3303 59.3766 21.474C59.3181 21.6178 59.2205 21.7423 59.095 21.8336C58.9694 21.9248 58.8208 21.9791 58.666 21.9903C58.5112 22.0015 58.3564 21.9692 58.219 21.897L52 18.632L45.78 21.9C45.6424 21.9719 45.4876 22.0039 45.3328 21.9925C45.1781 21.9811 45.0296 21.9267 44.9041 21.8354C44.7787 21.7441 44.6812 21.6196 44.6227 21.4759C44.5642 21.3322 44.5469 21.175 44.573 21.022L45.761 14.1L40.728 9.20003C40.6168 9.09179 40.5381 8.95457 40.5008 8.80391C40.4636 8.65326 40.4693 8.49518 40.5173 8.3476C40.5653 8.20001 40.6536 8.06881 40.7723 7.96885C40.891 7.8689 41.0354 7.80418 41.189 7.78203L48.143 6.76503L51.253 0.46503C51.3218 0.325856 51.4281 0.208678 51.5599 0.126714C51.6918 0.0447507 51.8439 0.00126384 51.9992 0.00115985C52.1544 0.00105587 52.3066 0.044339 52.4385 0.126126C52.5705 0.207913 52.677 0.324949 52.746 0.464029Z" fill="#EB1E1E"/>
<path d="M92.746 0.464029L95.856 6.76403L102.81 7.77603C102.964 7.79818 103.108 7.8629 103.227 7.96285C103.345 8.06281 103.434 8.19401 103.482 8.3416C103.53 8.48918 103.535 8.64726 103.498 8.79791C103.461 8.94857 103.382 9.08579 103.271 9.19403L98.238 14.094L99.426 21.02C99.4522 21.173 99.4351 21.3303 99.3766 21.474C99.3181 21.6178 99.2205 21.7423 99.095 21.8336C98.9694 21.9248 98.8208 21.9791 98.666 21.9903C98.5112 22.0015 98.3564 21.9692 98.219 21.897L92 18.632L85.78 21.9C85.6424 21.9719 85.4876 22.0039 85.3328 21.9925C85.1781 21.9811 85.0296 21.9267 84.9041 21.8354C84.7787 21.7441 84.6812 21.6196 84.6227 21.4759C84.5642 21.3322 84.5469 21.175 84.573 21.022L85.761 14.1L80.728 9.20003C80.6168 9.09179 80.5381 8.95457 80.5008 8.80391C80.4636 8.65326 80.4693 8.49518 80.5173 8.3476C80.5653 8.20001 80.6536 8.06881 80.7723 7.96885C80.891 7.8689 81.0354 7.80418 81.189 7.78203L88.143 6.76503L91.253 0.46503C91.3218 0.325856 91.4281 0.208678 91.5599 0.126714C91.6918 0.0447507 91.8439 0.00126384 91.9992 0.00115985C92.1544 0.00105587 92.3066 0.044339 92.4385 0.126126C92.5705 0.207913 92.677 0.324949 92.746 0.464029Z" fill="#EB1E1E"/>
<path d="M132.746 0.464029L135.856 6.76403L142.81 7.77603C142.964 7.79818 143.108 7.8629 143.227 7.96285C143.345 8.06281 143.434 8.19401 143.482 8.3416C143.53 8.48918 143.535 8.64726 143.498 8.79791C143.461 8.94857 143.382 9.08579 143.271 9.19403L138.238 14.094L139.426 21.02C139.452 21.173 139.435 21.3303 139.377 21.474C139.318 21.6178 139.221 21.7423 139.095 21.8336C138.969 21.9248 138.821 21.9791 138.666 21.9903C138.511 22.0015 138.356 21.9692 138.219 21.897L132 18.632L125.78 21.9C125.642 21.9719 125.488 22.0039 125.333 21.9925C125.178 21.9811 125.03 21.9267 124.904 21.8354C124.779 21.7441 124.681 21.6196 124.623 21.4759C124.564 21.3322 124.547 21.175 124.573 21.022L125.761 14.1L120.728 9.20003C120.617 9.09179 120.538 8.95457 120.501 8.80391C120.464 8.65326 120.469 8.49518 120.517 8.3476C120.565 8.20001 120.654 8.06881 120.772 7.96885C120.891 7.8689 121.035 7.80418 121.189 7.78203L128.143 6.76503L131.253 0.46503C131.322 0.325856 131.428 0.208678 131.56 0.126714C131.692 0.0447507 131.844 0.00126384 131.999 0.00115985C132.154 0.00105587 132.307 0.044339 132.439 0.126126C132.571 0.207913 132.677 0.324949 132.746 0.464029Z" fill="#EB1E1E"/>
<path d="M172.746 0.464029L175.856 6.76403L182.81 7.77603C182.964 7.79818 183.108 7.8629 183.227 7.96285C183.345 8.06281 183.434 8.19401 183.482 8.3416C183.53 8.48918 183.535 8.64726 183.498 8.79791C183.461 8.94857 183.382 9.08579 183.271 9.19403L178.238 14.094L179.426 21.02C179.452 21.173 179.435 21.3303 179.377 21.474C179.318 21.6178 179.221 21.7423 179.095 21.8336C178.969 21.9248 178.821 21.9791 178.666 21.9903C178.511 22.0015 178.356 21.9692 178.219 21.897L172 18.632L165.78 21.9C165.642 21.9719 165.488 22.0039 165.333 21.9925C165.178 21.9811 165.03 21.9267 164.904 21.8354C164.779 21.7441 164.681 21.6196 164.623 21.4759C164.564 21.3322 164.547 21.175 164.573 21.022L165.761 14.1L160.728 9.20003C160.617 9.09179 160.538 8.95457 160.501 8.80391C160.464 8.65326 160.469 8.49518 160.517 8.3476C160.565 8.20001 160.654 8.06881 160.772 7.96885C160.891 7.8689 161.035 7.80418 161.189 7.78203L168.143 6.76503L171.253 0.46503C171.322 0.325856 171.428 0.208678 171.56 0.126714C171.692 0.0447507 171.844 0.00126384 171.999 0.00115985C172.154 0.00105587 172.307 0.044339 172.439 0.126126C172.571 0.207913 172.677 0.324949 172.746 0.464029Z" fill="#EB1E1E"/>
</svg>
