<svg width="26" height="26" viewBox="0 0 26 26" fill="none" xmlns="http://www.w3.org/2000/svg">
<path opacity="0.2" fill-rule="evenodd" clip-rule="evenodd" d="M8.28003 0C3.86175 0 0.280029 3.58172 0.280029 7.99999V17.72C0.280029 22.1383 3.86175 25.72 8.28002 25.72H18C22.4183 25.72 26 22.1383 26 17.72V8C26 3.58172 22.4183 0 18 0H8.28003ZM10.7193 6.39237L10.5722 6.04905C8.81509 6.27586 7.90629 6.61222 6.45232 7.66757C4.79086 11.1844 4.18135 13.1596 4 16.6921C5.76172 18.4253 6.91622 19.0004 9.34605 19.1444L9.98365 18.3106C8.25693 17.6314 7.53499 17.0534 6.45232 15.8583C10.376 18.5068 16.0654 18.6049 19.5477 15.8583C18.5674 17.1504 17.7415 17.6315 16.0654 18.3106L16.752 19.1444C19.2486 18.8891 20.3697 18.3082 22 16.6921C21.7526 12.7189 21.1642 10.8045 19.6458 7.71662C18.262 6.677 17.3533 6.2953 15.4768 6L15.2807 6.39237C16.997 6.86309 17.8502 7.30593 19.1553 8.45232C14.3196 6.36224 11.6232 6.2985 6.84469 8.45232C8.22214 7.37629 9.04083 6.86595 10.7193 6.39237ZM10.327 15.0245C11.1125 15.0245 11.7493 14.2999 11.7493 13.406C11.7493 12.5121 11.1125 11.7875 10.327 11.7875C9.54143 11.7875 8.90463 12.5121 8.90463 13.406C8.90463 14.2999 9.54143 15.0245 10.327 15.0245ZM17.1444 13.406C17.1444 14.2999 16.5076 15.0245 15.7221 15.0245C14.9365 15.0245 14.2997 14.2999 14.2997 13.406C14.2997 12.5121 14.9365 11.7875 15.7221 11.7875C16.5076 11.7875 17.1444 12.5121 17.1444 13.406Z" fill="#87D9CE"/>
</svg>
