<svg width="27" height="26" viewBox="0 0 27 26" fill="none" xmlns="http://www.w3.org/2000/svg">
<path fill-rule="evenodd" clip-rule="evenodd" d="M8.64001 0C4.22174 0 0.640015 3.58172 0.640015 7.99999V17.72C0.640015 22.1383 4.22173 25.72 8.64001 25.72H18.36C22.7783 25.72 26.36 22.1383 26.36 17.72V8C26.36 3.58172 22.7783 0 18.36 0H8.64001ZM16.3167 6.93498C15.3067 6.93498 14.7578 7.48388 14.7578 8.64756V9.15255H17.7877V11.7873H14.8456V20.7015H11.4205V11.7873H9.59811V9.15255H11.4205V8.6256C11.4205 5.96891 13.0452 4.23438 15.9873 4.23438C16.9534 4.23438 17.9634 4.43198 18.6001 4.87111L17.6999 7.35215C17.3267 7.08867 16.8436 6.93498 16.3167 6.93498Z" fill="#6A7273"/>
</svg>
