<svg width="27" height="26" viewBox="0 0 27 26" fill="none" xmlns="http://www.w3.org/2000/svg">
<path opacity="0.2" fill-rule="evenodd" clip-rule="evenodd" d="M8.64014 0C4.22186 0 0.640137 3.58172 0.640137 7.99999V17.72C0.640137 22.1383 4.22185 25.72 8.64013 25.72H18.3601C22.7784 25.72 26.3601 22.1383 26.3601 17.72V8C26.3601 3.58172 22.7784 0 18.3602 0H8.64014ZM16.3168 6.93498C15.3068 6.93498 14.7579 7.48388 14.7579 8.64755V9.15254H17.7879V11.7873H14.8457V20.7015H11.4206V11.7873H9.59824V9.15254H11.4206V8.6256C11.4206 5.96891 13.0453 4.23438 15.9875 4.23438C16.9535 4.23438 17.9635 4.43198 18.6002 4.8711L17.7 7.35214C17.3268 7.08867 16.8438 6.93498 16.3168 6.93498Z" fill="#87D9CE"/>
</svg>
