<svg width="27" height="27" viewBox="0 0 27 27" fill="none" xmlns="http://www.w3.org/2000/svg">
<path fill-rule="evenodd" clip-rule="evenodd" d="M8 0C3.58172 0 0 3.58172 0 7.99999V18.72C0 23.1383 3.58172 26.72 7.99999 26.72H18.72C23.1383 26.72 26.72 23.1383 26.72 18.72V8C26.72 3.58172 23.1383 0 18.72 0H8ZM7.45239 12.4403C7.04918 12.4403 6.14597 12.3484 5.75888 11.9805C5.96458 13.2929 6.53397 14.7376 8.58141 15.4295C8.0169 15.736 7.29111 15.5828 7.12982 15.4295C7.34487 16.1959 8.30722 17.7748 10.4362 17.9587C7.9824 19.4678 6.69118 19.4422 5.57991 19.4201C5.44945 19.4175 5.32147 19.415 5.19437 19.415C7.37175 20.9223 14.3071 22.0209 18.0167 17.9587C21.7263 13.8966 21.0812 10.6775 21.0812 10.6775C21.8775 10.0726 22.2596 9.66241 22.8553 8.83803C22.0514 9.13701 21.5914 9.25059 20.7586 9.37454C21.6716 8.68269 22.0751 8.2753 22.2908 7.45842C21.4469 7.89178 20.9487 8.06569 20.0328 8.30152C19.4414 7.68836 17.7425 6.70731 15.678 7.68836C13.6136 8.66941 13.6351 10.652 13.9039 11.5206C11.2179 11.2054 8.47219 10.249 6.32338 7.84165C5.49575 9.60781 5.91636 11.1032 7.45239 12.4403Z" fill="white"/>
</svg>
