<svg width="27" height="27" viewBox="0 0 27 27" fill="none" xmlns="http://www.w3.org/2000/svg">
<path fill-rule="evenodd" clip-rule="evenodd" d="M8.22009 0C3.80181 0 0.220093 3.58172 0.220093 7.99999V18.72C0.220093 23.1383 3.80181 26.72 8.22009 26.72H18.9401C23.3584 26.72 26.9401 23.1383 26.9401 18.72V8C26.9401 3.58172 23.3584 0 18.9401 0H8.22009ZM16.5063 7.20461C15.457 7.20461 14.8868 7.77485 14.8868 8.98377V9.5084H18.0345V12.2456H14.978V21.5063H11.4197V12.2456H9.5265V9.5084H11.4197V8.96096C11.4197 6.20098 13.1076 4.39901 16.1641 4.39901C17.1678 4.39901 18.217 4.6043 18.8785 5.06049L17.9433 7.638C17.5555 7.36428 17.0537 7.20461 16.5063 7.20461Z" fill="white"/>
</svg>
