<svg width="28" height="27" viewBox="0 0 28 27" fill="none" xmlns="http://www.w3.org/2000/svg">
<path d="M10.8777 15.6086C11.6938 15.6086 12.3553 14.8558 12.3553 13.9271C12.3553 12.9985 11.6938 12.2457 10.8777 12.2457C10.0616 12.2457 9.40004 12.9985 9.40004 13.9271C9.40004 14.8558 10.0616 15.6086 10.8777 15.6086Z" fill="white"/>
<path d="M17.9602 13.9271C17.9602 14.8558 17.2987 15.6086 16.4826 15.6086C15.6665 15.6086 15.0049 14.8558 15.0049 13.9271C15.0049 12.9985 15.6665 12.2457 16.4826 12.2457C17.2987 12.2457 17.9602 12.9985 17.9602 13.9271Z" fill="white"/>
<path fill-rule="evenodd" clip-rule="evenodd" d="M8.44019 0C4.02191 0 0.440186 3.58172 0.440186 7.99999V18.72C0.440186 23.1383 4.0219 26.72 8.44018 26.72H19.1602C23.5785 26.72 27.1602 23.1383 27.1602 18.72V8C27.1602 3.58172 23.5785 0 19.1602 0H8.44019ZM11.2853 6.64067L11.1325 6.284C9.30705 6.51964 8.36292 6.86907 6.85241 7.96546C5.12636 11.619 4.49315 13.671 4.30475 17.3409C6.13497 19.1415 7.33436 19.7389 9.85865 19.8885L10.521 19.0223C8.72719 18.3166 7.97718 17.7162 6.85241 16.4747C10.9287 19.2261 16.8392 19.328 20.4569 16.4747C19.4385 17.817 18.5805 18.3168 16.8392 19.0223L17.5526 19.8885C20.1462 19.6233 21.3109 19.0198 23.0046 17.3409C22.7476 13.2132 22.1363 11.2244 20.5588 8.01641C19.1212 6.93637 18.1772 6.53982 16.2278 6.23305L16.024 6.64067C17.807 7.1297 18.6935 7.58975 20.0493 8.78071C15.0256 6.60937 12.2243 6.54315 7.26004 8.78071C8.69104 7.66284 9.54157 7.13266 11.2853 6.64067Z" fill="white"/>
</svg>
