<svg width="26" height="26" viewBox="0 0 26 26" fill="none" xmlns="http://www.w3.org/2000/svg">
<path fill-rule="evenodd" clip-rule="evenodd" d="M8 0C3.58172 0 0 3.58172 0 7.99999V17.72C0 22.1383 3.58172 25.72 7.99999 25.72H17.72C22.1383 25.72 25.72 22.1383 25.72 17.72V8C25.72 3.58172 22.1383 0 17.72 0H8ZM12.86 19.4469C16.4978 19.4469 19.4468 16.4978 19.4468 12.86C19.4468 9.22222 16.4978 6.2732 12.86 6.2732C9.2222 6.2732 6.27318 9.22222 6.27318 12.86C6.27318 16.4978 9.2222 19.4469 12.86 19.4469ZM21.9561 5.01855C21.9561 6.05792 21.1135 6.9005 20.0742 6.9005C19.0348 6.9005 18.1922 6.05792 18.1922 5.01855C18.1922 3.97918 19.0348 3.1366 20.0742 3.1366C21.1135 3.1366 21.9561 3.97918 21.9561 5.01855ZM12.86 15.683C14.4191 15.683 15.6829 14.4191 15.6829 12.86C15.6829 11.301 14.4191 10.0371 12.86 10.0371C11.3009 10.0371 10.0371 11.301 10.0371 12.86C10.0371 14.4191 11.3009 15.683 12.86 15.683Z" fill="#6A7273"/>
</svg>
