<svg width="26" height="26" viewBox="0 0 26 26" fill="none" xmlns="http://www.w3.org/2000/svg">
<path opacity="0.2" fill-rule="evenodd" clip-rule="evenodd" d="M8 0C3.58172 0 0 3.58172 0 7.99999V17.72C0 22.1383 3.58172 25.72 7.99999 25.72H17.72C22.1383 25.72 25.72 22.1383 25.72 17.72V8C25.72 3.58172 22.1383 0 17.72 0H8ZM7.17352 11.9747C6.78539 11.9747 5.91598 11.8862 5.54338 11.5321C5.74138 12.7954 6.28946 14.1861 8.26027 14.852C7.7169 15.1471 7.01826 14.9996 6.86301 14.852C7.07001 15.5898 7.99635 17.1096 10.0457 17.2866C7.68369 18.7392 6.4408 18.7145 5.37111 18.6933C5.24553 18.6908 5.12234 18.6884 5 18.6884C7.09589 20.1393 13.7717 21.1968 17.3425 17.2866C20.9132 13.3765 20.2922 10.2779 20.2922 10.2779C21.0588 9.69561 21.4265 9.30079 22 8.50726C21.2262 8.79506 20.7834 8.90438 19.9817 9.0237C20.8606 8.35774 21.2489 7.9656 21.4566 7.17929C20.6443 7.59643 20.1648 7.76383 19.2831 7.99083C18.7139 7.40062 17.0785 6.45628 15.0913 7.40062C13.1041 8.34496 13.1248 10.2533 13.3836 11.0894C10.7981 10.786 8.15515 9.86545 6.08676 7.54817C5.2901 9.24824 5.69497 10.6877 7.17352 11.9747Z" fill="#87D9CE"/>
</svg>
