<svg width="219" height="24" viewBox="0 0 219 24" fill="none" xmlns="http://www.w3.org/2000/svg">
<path fill-rule="evenodd" clip-rule="evenodd" d="M10.2015 13.8376L6 21.2719C9.82437 23.5277 14.1756 23.5277 18 21.2719L13.7985 13.8376C13.7707 13.8541 13.7443 13.8725 13.716 13.8882C13.614 13.9449 13.5087 13.9965 13.401 14.043C13.2933 14.0896 13.1822 14.1313 13.0695 14.1671C12.9568 14.203 12.8416 14.233 12.7245 14.2576C12.6074 14.2821 12.4885 14.3002 12.3675 14.3127C12.2465 14.3253 12.1242 14.3326 12 14.3326C11.8758 14.3326 11.7535 14.3253 11.6325 14.3127C11.5115 14.3002 11.3926 14.2821 11.2755 14.2576C11.1584 14.233 11.0432 14.203 10.9305 14.1671C10.8178 14.1313 10.7067 14.0896 10.599 14.043C10.4913 13.9965 10.386 13.9449 10.284 13.8882C10.2557 13.8725 10.2293 13.8541 10.2015 13.8376Z" fill="white"/>
<path fill-rule="evenodd" clip-rule="evenodd" d="M6 0.0358887C2.17563 2.29175 4.8e-07 6.14296 0 10.6547H8.4C8.4 10.5278 8.4057 10.4013 8.418 10.2777C8.4303 10.1541 8.44951 10.0326 8.4735 9.91295C8.49749 9.79327 8.52692 9.67562 8.562 9.56048C8.59708 9.44533 8.63794 9.33332 8.6835 9.22332C8.72906 9.11333 8.77956 9.00572 8.835 8.90149C8.89044 8.79727 8.95028 8.6959 9.015 8.59806C9.07972 8.50021 9.14861 8.40538 9.222 8.31454C9.29539 8.2237 9.37305 8.13723 9.4545 8.05401C9.53595 7.9708 9.62209 7.89145 9.711 7.81647C9.79991 7.7415 9.89123 7.6711 9.987 7.60499C10.0561 7.55729 10.1291 7.51447 10.2015 7.47166L6 0.0358887Z" fill="white"/>
<path fill-rule="evenodd" clip-rule="evenodd" d="M18.0001 0.0358887L13.7986 7.47166C13.871 7.51447 13.944 7.55729 14.0131 7.60499C14.1088 7.6711 14.2002 7.7415 14.2891 7.81647C14.378 7.89145 14.4641 7.9708 14.5456 8.05401C14.627 8.13723 14.7047 8.2237 14.7781 8.31454C14.8515 8.40538 14.9204 8.50021 14.9851 8.59806C15.0498 8.6959 15.1096 8.79727 15.1651 8.90149C15.2205 9.00572 15.271 9.11333 15.3166 9.22332C15.3621 9.33332 15.403 9.44533 15.4381 9.56048C15.4732 9.67562 15.5026 9.79327 15.5266 9.91295C15.5506 10.0326 15.5698 10.1541 15.5821 10.2777C15.5944 10.4013 15.6001 10.5278 15.6001 10.6547H24.0001C24.0001 6.14296 21.8245 2.29175 18.0001 0.0358887Z" fill="white"/>
<path fill-rule="evenodd" clip-rule="evenodd" d="M14.4001 10.6542C14.4001 12.0084 13.3256 13.1062 12.0001 13.1062C10.6746 13.1062 9.6001 12.0084 9.6001 10.6542C9.6001 9.29996 10.6746 8.20215 12.0001 8.20215C13.3256 8.20215 14.4001 9.29996 14.4001 10.6542Z" fill="white"/>
<path d="M49.64 17.192C51.736 17.192 53.016 16.424 54.184 15.208L52.92 13.928C51.96 14.824 51.08 15.384 49.704 15.384C47.56 15.384 46.008 13.592 46.008 11.4C46.008 9.176 47.56 7.416 49.704 7.416C50.984 7.416 51.944 7.976 52.84 8.808L54.104 7.352C53.032 6.328 51.784 5.608 49.72 5.608C46.328 5.608 43.944 8.216 43.944 11.4C43.944 14.648 46.376 17.192 49.64 17.192ZM56.8925 17H58.8605V12.28H64.2045V17H66.1725V5.8H64.2045V10.456H58.8605V5.8H56.8925V17ZM75.0328 17.192C78.4728 17.192 80.9048 14.552 80.9048 11.4C80.9048 8.216 78.5048 5.608 75.0648 5.608C71.6248 5.608 69.1928 8.248 69.1928 11.4C69.1928 14.584 71.5928 17.192 75.0328 17.192ZM75.0648 15.384C72.8408 15.384 71.2568 13.576 71.2568 11.4C71.2568 9.192 72.8088 7.416 75.0328 7.416C77.2568 7.416 78.8408 9.224 78.8408 11.4C78.8408 13.608 77.2888 15.384 75.0648 15.384ZM83.9225 17H85.8905V13.096H88.3225L91.1065 17H93.4265L90.4025 12.76C91.9705 12.312 93.0745 11.208 93.0745 9.368C93.0745 7.208 91.5385 5.8 88.9145 5.8H83.9225V17ZM85.8905 11.352V7.592H88.7545C90.2105 7.592 91.0745 8.248 91.0745 9.448C91.0745 10.616 90.1785 11.352 88.7705 11.352H85.8905ZM96.125 17H98.061V9.032L104.237 17H105.885V5.8H103.949V13.544L97.949 5.8H96.125V17ZM114.75 17.192C118.19 17.192 120.622 14.552 120.622 11.4C120.622 8.216 118.222 5.608 114.782 5.608C111.342 5.608 108.91 8.248 108.91 11.4C108.91 14.584 111.31 17.192 114.75 17.192ZM114.782 15.384C112.558 15.384 110.974 13.576 110.974 11.4C110.974 9.192 112.526 7.416 114.75 7.416C116.974 7.416 118.558 9.224 118.558 11.4C118.558 13.608 117.006 15.384 114.782 15.384ZM123.639 17H128.823C131.319 17 132.967 15.928 132.967 13.928C132.967 12.376 132.055 11.624 130.743 11.176C131.575 10.744 132.343 10.024 132.343 8.68C132.343 7.896 132.087 7.288 131.591 6.792C130.951 6.152 129.943 5.8 128.663 5.8H123.639V17ZM125.575 10.52V7.544H128.407C129.671 7.544 130.375 8.088 130.375 8.968C130.375 10.024 129.527 10.52 128.263 10.52H125.575ZM125.575 15.256V12.184H128.695C130.247 12.184 130.999 12.744 130.999 13.688C130.999 14.728 130.183 15.256 128.839 15.256H125.575ZM138.638 17H140.622V12.536L145.07 5.8H142.814L139.646 10.76L136.51 5.8H134.19L138.638 12.584V17ZM147.435 17H155.291V15.208H149.403V5.8H147.435V17ZM167.338 17.16C169.69 17.16 171.338 15.912 171.338 13.816C171.338 11.928 170.106 11.08 167.738 10.504C165.594 9.992 165.082 9.608 165.082 8.744C165.082 7.976 165.754 7.384 166.906 7.384C167.93 7.384 168.938 7.784 169.946 8.536L171.002 7.048C169.866 6.136 168.57 5.64 166.938 5.64C164.714 5.64 163.114 6.968 163.114 8.888C163.114 10.984 164.458 11.688 166.842 12.248C168.922 12.744 169.37 13.176 169.37 13.976C169.37 14.856 168.602 15.416 167.386 15.416C165.994 15.416 164.922 14.888 163.85 13.96L162.666 15.368C164.01 16.568 165.626 17.16 167.338 17.16ZM174.292 17H176.26V13.4H178.484C180.948 13.4 182.964 12.088 182.964 9.576C182.964 7.288 181.316 5.8 178.708 5.8H174.292V17ZM176.26 11.624V7.592H178.548C180.02 7.592 180.964 8.28 180.964 9.592C180.964 10.792 180.036 11.624 178.548 11.624H176.26ZM183.535 17H185.551L186.703 14.296H191.999L193.135 17H195.215L190.287 5.72H188.463L183.535 17ZM187.423 12.552L189.343 8.072L191.279 12.552H187.423ZM202.288 17.192C204.384 17.192 205.664 16.424 206.832 15.208L205.568 13.928C204.608 14.824 203.728 15.384 202.352 15.384C200.208 15.384 198.656 13.592 198.656 11.4C198.656 9.176 200.208 7.416 202.352 7.416C203.632 7.416 204.592 7.976 205.488 8.808L206.752 7.352C205.68 6.328 204.432 5.608 202.368 5.608C198.976 5.608 196.592 8.216 196.592 11.4C196.592 14.648 199.024 17.192 202.288 17.192ZM209.541 17H217.925V15.24H211.509V12.232H217.125V10.472H211.509V7.56H217.845V5.8H209.541V17Z" fill="white"/>
</svg>
