<svg width="24" height="23" viewBox="0 0 24 23" fill="none" xmlns="http://www.w3.org/2000/svg">
<path fill-rule="evenodd" clip-rule="evenodd" d="M10.2015 13.8376L6 21.2719C9.82437 23.5277 14.1756 23.5277 18 21.2719L13.7985 13.8376C13.7707 13.8541 13.7443 13.8725 13.716 13.8882C13.614 13.9449 13.5087 13.9965 13.401 14.043C13.2933 14.0896 13.1822 14.1313 13.0695 14.1671C12.9568 14.203 12.8416 14.233 12.7245 14.2576C12.6074 14.2821 12.4885 14.3002 12.3675 14.3127C12.2465 14.3253 12.1242 14.3326 12 14.3326C11.8758 14.3326 11.7535 14.3253 11.6325 14.3127C11.5115 14.3002 11.3926 14.2821 11.2755 14.2576C11.1584 14.233 11.0432 14.203 10.9305 14.1671C10.8178 14.1313 10.7067 14.0896 10.599 14.043C10.4913 13.9965 10.386 13.9449 10.284 13.8882C10.2557 13.8725 10.2293 13.8541 10.2015 13.8376Z" fill="white"/>
<path fill-rule="evenodd" clip-rule="evenodd" d="M6 0.0358887C2.17563 2.29175 4.8e-07 6.14296 0 10.6547H8.4C8.4 10.5278 8.4057 10.4013 8.418 10.2777C8.4303 10.1541 8.44951 10.0326 8.4735 9.91295C8.49749 9.79327 8.52692 9.67562 8.562 9.56048C8.59708 9.44533 8.63794 9.33332 8.6835 9.22332C8.72906 9.11333 8.77956 9.00572 8.835 8.90149C8.89044 8.79727 8.95028 8.6959 9.015 8.59806C9.07972 8.50021 9.14861 8.40538 9.222 8.31454C9.29539 8.2237 9.37305 8.13723 9.4545 8.05401C9.53595 7.9708 9.62209 7.89145 9.711 7.81647C9.79991 7.7415 9.89123 7.6711 9.987 7.60499C10.0561 7.55729 10.1291 7.51447 10.2015 7.47166L6 0.0358887Z" fill="white"/>
<path fill-rule="evenodd" clip-rule="evenodd" d="M18.0001 0.0358887L13.7986 7.47166C13.871 7.51447 13.944 7.55729 14.0131 7.60499C14.1088 7.6711 14.2002 7.7415 14.2891 7.81647C14.378 7.89145 14.4641 7.9708 14.5456 8.05401C14.627 8.13723 14.7047 8.2237 14.7781 8.31454C14.8515 8.40538 14.9204 8.50021 14.9851 8.59806C15.0498 8.6959 15.1096 8.79727 15.1651 8.90149C15.2205 9.00572 15.271 9.11333 15.3166 9.22332C15.3621 9.33332 15.403 9.44533 15.4381 9.56048C15.4732 9.67562 15.5026 9.79327 15.5266 9.91295C15.5506 10.0326 15.5698 10.1541 15.5821 10.2777C15.5944 10.4013 15.6001 10.5278 15.6001 10.6547H24.0001C24.0001 6.14296 21.8245 2.29175 18.0001 0.0358887Z" fill="white"/>
<path fill-rule="evenodd" clip-rule="evenodd" d="M14.4001 10.6542C14.4001 12.0084 13.3256 13.1062 12.0001 13.1062C10.6746 13.1062 9.6001 12.0084 9.6001 10.6542C9.6001 9.29996 10.6746 8.20215 12.0001 8.20215C13.3256 8.20215 14.4001 9.29996 14.4001 10.6542Z" fill="white"/>
</svg>
