<svg width="1120" height="81" viewBox="0 0 1120 81" fill="none" xmlns="http://www.w3.org/2000/svg">
<path d="M0 38.4015C0 24.9602 0 18.2396 2.61584 13.1057C4.9168 8.5898 8.58834 4.91827 13.1042 2.61731C18.2381 0.00146484 24.9587 0.00146484 38.4 0.00146484H1081.6C1095.04 0.00146484 1101.76 0.00146484 1106.9 2.61731C1111.41 4.91827 1115.08 8.5898 1117.38 13.1057C1120 18.2396 1120 24.9602 1120 38.4015V41.6015C1120 55.0427 1120 61.7634 1117.38 66.8972C1115.08 71.4131 1111.41 75.0847 1106.9 77.3856C1101.76 80.0015 1095.04 80.0015 1081.6 80.0015H38.4C24.9587 80.0015 18.2381 80.0015 13.1042 77.3856C8.58834 75.0847 4.9168 71.4131 2.61584 66.8972C0 61.7634 0 55.0427 0 41.6015V38.4015Z" fill="url(#paint0_linear_958_13)"/>
<mask id="mask0_958_13" style="mask-type:alpha" maskUnits="userSpaceOnUse" x="0" y="0" width="1120" height="81">
<path d="M0 38.4015C0 24.9602 0 18.2396 2.61584 13.1057C4.9168 8.5898 8.58834 4.91827 13.1042 2.61731C18.2381 0.00146484 24.9587 0.00146484 38.4 0.00146484H1081.6C1095.04 0.00146484 1101.76 0.00146484 1106.9 2.61731C1111.41 4.91827 1115.08 8.5898 1117.38 13.1057C1120 18.2396 1120 24.9602 1120 38.4015V41.6015C1120 55.0427 1120 61.7634 1117.38 66.8972C1115.08 71.4131 1111.41 75.0847 1106.9 77.3856C1101.76 80.0015 1095.04 80.0015 1081.6 80.0015H38.4C24.9587 80.0015 18.2381 80.0015 13.1042 77.3856C8.58834 75.0847 4.9168 71.4131 2.61584 66.8972C0 61.7634 0 55.0427 0 41.6015V38.4015Z" fill="url(#paint1_linear_958_13)"/>
</mask>
<g mask="url(#mask0_958_13)">
<path opacity="0.7" d="M-464 -36.4477C-464 -36.4477 -262.777 114.309 -16.8383 114.309C229.101 114.309 273.817 -58.818 398.244 -58.818C522.672 -58.818 667.514 62.7598 961.085 62.7598C1254.66 62.7598 1382 -230.972 1382 -230.972V444.028H-464V-36.4477Z" fill="white" fill-opacity="0.2"/>
<path opacity="0.7" d="M-464 229.078C-464 229.078 -303.605 5.37515 -110.159 5.37515C83.287 5.37515 198.966 176.557 383.663 176.557C568.36 176.557 682.095 -145.381 912.48 -145.381C1142.87 -145.381 1382.97 189.201 1382.97 189.201V445H-464V229.078Z" fill="white" fill-opacity="0.2"/>
<path opacity="0.7" d="M-464 270.901C-464 270.901 -336.656 184.338 -178.205 184.338C-19.7546 184.338 161.054 325.368 290.342 325.368C419.63 325.368 479.9 196.009 637.379 196.009C794.857 196.009 875.541 298.134 1036.91 298.134C1198.27 298.134 1246.88 70.5408 1382 70.5408V445H-464V270.901Z" fill="white" fill-opacity="0.2"/>
</g>
<defs>
<linearGradient id="paint0_linear_958_13" x1="6.7028e-05" y1="104.432" x2="2210" y2="104.432" gradientUnits="userSpaceOnUse">
<stop stop-color="#EB1E1E"/>
<stop offset="1" stop-color="#EB1E1E"/>
</linearGradient>
<linearGradient id="paint1_linear_958_13" x1="6.7028e-05" y1="104.432" x2="2210" y2="104.432" gradientUnits="userSpaceOnUse">
<stop stop-color="#911EEB"/>
<stop offset="1" stop-color="#FF3030"/>
</linearGradient>
</defs>
</svg>
