<svg width="797" height="1075" viewBox="0 0 797 1075" fill="none" xmlns="http://www.w3.org/2000/svg">
<path d="M107.5 2.5L102.5 0.113249V5.88675L107.5 3.5V2.5ZM151 220L146 217.113V222.887L151 220ZM113.246 11V212H114.246V11H113.246ZM121.746 220.5H146.5V219.5H121.746V220.5ZM113.246 212C113.246 216.694 117.052 220.5 121.746 220.5V219.5C117.604 219.5 114.246 216.142 114.246 212H113.246ZM105.746 3.5C109.888 3.5 113.246 6.85786 113.246 11H114.246C114.246 6.30558 110.441 2.5 105.746 2.5V3.5Z" fill="#E79B37"/>
<path d="M107 2.5L102 0.113249V5.88675L107 3.5V2.5ZM151 548L146 545.113V550.887L151 548ZM113.246 11V540H114.246V11H113.246ZM121.746 548.5H146.5V547.5H121.746V548.5ZM113.246 540C113.246 544.694 117.052 548.5 121.746 548.5V547.5C117.604 547.5 114.246 544.142 114.246 540H113.246ZM105.746 3.5C109.888 3.5 113.246 6.85786 113.246 11H114.246C114.246 6.30558 110.441 2.5 105.746 2.5V3.5Z" fill="#E79B37"/>
<path d="M52 136L49.1132 141H54.8868L52 136ZM51.5 140.5V697.516H52.5V140.5H51.5ZM60 706.016H602V705.016H60V706.016ZM609.5 713.516V908H610.5V713.516H609.5ZM602 915.5H578.5V916.5H602V915.5ZM609.5 908C609.5 912.142 606.142 915.5 602 915.5V916.5C606.694 916.5 610.5 912.694 610.5 908H609.5ZM602 706.016C606.142 706.016 609.5 709.374 609.5 713.516H610.5C610.5 708.822 606.694 705.016 602 705.016V706.016ZM51.5 697.516C51.5 702.211 55.3056 706.016 60 706.016V705.016C55.8579 705.016 52.5 701.658 52.5 697.516H51.5Z" fill="#E79B37"/>
<path d="M766.638 910.271L761.638 907.884V913.657L766.638 911.271V910.271ZM2.99994 135.5L0.113159 140.5H5.88672L2.99994 135.5ZM10.9999 1074.5H788V1073.5H10.9999V1074.5ZM796.5 1066V918.771H795.5V1066H796.5ZM788 910.271H766.138V911.271H788V910.271ZM3.49994 1066V140H2.49994V1066H3.49994ZM796.5 918.771C796.5 914.076 792.694 910.271 788 910.271V911.271C792.142 911.271 795.5 914.628 795.5 918.771H796.5ZM788 1074.5C792.694 1074.5 796.5 1070.69 796.5 1066H795.5C795.5 1070.14 792.142 1073.5 788 1073.5V1074.5ZM10.9999 1073.5C6.85779 1073.5 3.49994 1070.14 3.49994 1066H2.49994C2.49994 1070.69 6.30554 1074.5 10.9999 1074.5V1073.5Z" fill="#E79B37"/>
<g opacity="0.8" filter="url(#filter0_d_815_35724)">
<rect x="112.801" y="698" width="2" height="13" fill="#171723"/>
</g>
<path d="M108 2.5L103 0.113249V5.88675L108 3.5V2.5ZM151 916L146 913.113V918.887L151 916ZM113.246 11V908H114.246V11H113.246ZM121.746 916.5H146.5V915.5H121.746V916.5ZM113.246 908C113.246 912.694 117.052 916.5 121.746 916.5V915.5C117.604 915.5 114.246 912.142 114.246 908H113.246ZM105.746 3.5C109.888 3.5 113.246 6.85786 113.246 11H114.246C114.246 6.30558 110.441 2.5 105.746 2.5V3.5Z" fill="#E79B37"/>
<defs>
<filter id="filter0_d_815_35724" x="68.8008" y="654" width="90" height="101" filterUnits="userSpaceOnUse" color-interpolation-filters="sRGB">
<feFlood flood-opacity="0" result="BackgroundImageFix"/>
<feColorMatrix in="SourceAlpha" type="matrix" values="0 0 0 0 0 0 0 0 0 0 0 0 0 0 0 0 0 0 127 0" result="hardAlpha"/>
<feMorphology radius="20" operator="dilate" in="SourceAlpha" result="effect1_dropShadow_815_35724"/>
<feOffset/>
<feGaussianBlur stdDeviation="12"/>
<feComposite in2="hardAlpha" operator="out"/>
<feColorMatrix type="matrix" values="0 0 0 0 0.0901961 0 0 0 0 0.0901961 0 0 0 0 0.137255 0 0 0 1 0"/>
<feBlend mode="normal" in2="BackgroundImageFix" result="effect1_dropShadow_815_35724"/>
<feBlend mode="normal" in="SourceGraphic" in2="effect1_dropShadow_815_35724" result="shape"/>
</filter>
</defs>
</svg>
