<svg xmlns="http://www.w3.org/2000/svg" width="14" height="21.187" viewBox="0 0 14 21.187">
  <metadata><?xpacket begin="﻿" id="W5M0MpCehiHzreSzNTczkc9d"?>
<x:xmpmeta xmlns:x="adobe:ns:meta/" x:xmptk="Adobe XMP Core 5.6-c142 79.160924, 2017/07/13-01:06:39        ">
   <rdf:RDF xmlns:rdf="http://www.w3.org/1999/02/22-rdf-syntax-ns#">
      <rdf:Description rdf:about=""/>
   </rdf:RDF>
</x:xmpmeta>
                                                                                                    
                                                                                                    
                                                                                                    
                                                                                                    
                                                                                                    
                                                                                                    
                                                                                                    
                                                                                                    
                                                                                                    
                                                                                                    
                                                                                                    
                                                                                                    
                                                                                                    
                                                                                                    
                                                                                                    
                                                                                                    
                                                                                                    
                                                                                                    
                                                                                                    
                                                                                                    
                           
<?xpacket end="w"?></metadata>
<defs>
    <style>
      .cls-1 {
        fill: #0ac1ef;
        fill-rule: evenodd;
      }
    </style>
  </defs>
  <path id="Forme_7" data-name="Forme 7" class="cls-1" d="M621.622,144.552l-0.032-1.091a1.637,1.637,0,0,1,1.638-1.637H625.4v-0.489a1.11,1.11,0,0,1,1.064-1.149h4.3a1.111,1.111,0,0,1,1.064,1.149v0.489h2.115a1.637,1.637,0,0,1,1.637,1.637v1.091h-13.96Zm9.132-3.217a0.126,0.126,0,0,0-.026-0.084l-4.252.01a0.119,0.119,0,0,1,0,.074v0.489h4.279v-0.489Zm4.359,16.735a3.312,3.312,0,0,1-3.313,3.312h-6.343a3.311,3.311,0,0,1-3.312-3.312V145.023h12.968V158.07Zm-8.725-9.385a0.7,0.7,0,1,0-1.406,0v9.392a0.7,0.7,0,0,0,1.406,0v-9.392Zm3.044,0a0.7,0.7,0,1,0-1.406,0v9.392a0.7,0.7,0,0,0,1.406,0v-9.392Zm3.045,0a0.7,0.7,0,1,0-1.406,0v9.392a0.7,0.7,0,0,0,1.406,0v-9.392Z" transform="translate(-621.594 -140.188)"/>
</svg>
