<svg 
 xmlns="http://www.w3.org/2000/svg"
 xmlns:xlink="http://www.w3.org/1999/xlink"
 width="33px" height="20px">
<path fill-rule="evenodd"  fill="rgb(255, 255, 255)"
 d="M32.295,11.804 L23.923,4.645 C23.672,4.430 23.467,4.524 23.467,4.855 L23.467,6.449 C23.467,6.779 23.197,7.049 22.867,7.049 L19.652,7.049 L19.652,3.938 C19.652,3.052 18.931,2.331 18.045,2.331 L10.870,2.331 L10.870,1.443 C10.870,0.559 10.222,0.081 9.612,0.081 L9.611,0.081 C9.386,0.081 9.043,0.144 8.696,0.440 L1.224,6.831 C0.879,7.127 0.681,7.551 0.681,7.994 C0.681,8.437 0.879,8.860 1.223,9.156 L8.695,15.546 C9.043,15.844 9.385,15.906 9.612,15.906 C10.222,15.906 10.870,15.429 10.870,14.544 L10.870,13.657 L13.626,13.657 L13.626,16.740 C13.626,17.070 13.896,17.340 14.227,17.340 L22.867,17.340 C23.197,17.340 23.467,17.610 23.467,17.941 L23.467,19.536 C23.467,19.866 23.672,19.960 23.923,19.746 L32.295,12.584 C32.546,12.370 32.546,12.018 32.295,11.804 ZM10.335,12.586 C10.039,12.586 9.799,12.827 9.799,13.122 L9.799,14.544 C9.799,14.732 9.724,14.835 9.612,14.835 C9.549,14.835 9.473,14.802 9.391,14.732 L1.920,8.342 C1.696,8.150 1.696,7.837 1.920,7.646 L9.391,1.255 C9.473,1.186 9.549,1.153 9.612,1.153 C9.724,1.153 9.799,1.255 9.799,1.443 L9.799,2.866 C9.799,3.162 10.039,3.402 10.335,3.402 L18.045,3.402 C18.340,3.402 18.581,3.643 18.581,3.938 L18.581,7.049 L14.227,7.049 C13.896,7.049 13.626,7.319 13.626,7.649 L13.626,12.586 L10.335,12.586 Z"/>
</svg>