<svg 
 xmlns="http://www.w3.org/2000/svg"
 xmlns:xlink="http://www.w3.org/1999/xlink"
 width="19px" height="20px">
<path fill-rule="evenodd"  fill="rgb(255, 255, 255)"
 d="M17.774,11.948 L16.280,11.948 C16.136,12.456 15.937,12.941 15.685,13.393 L16.733,14.441 C17.217,14.924 17.217,15.709 16.733,16.193 L15.857,17.069 C15.373,17.552 14.589,17.552 14.105,17.069 L13.058,16.021 C12.605,16.273 12.121,16.472 11.612,16.615 L11.612,18.110 C11.612,18.790 11.061,19.342 10.380,19.342 L9.148,19.342 C8.467,19.342 7.915,18.790 7.915,18.110 L7.915,16.615 C7.389,16.466 6.888,16.257 6.422,15.992 L5.345,17.069 C4.862,17.552 4.077,17.552 3.594,17.069 L2.718,16.193 C2.234,15.709 2.234,14.924 2.718,14.441 L3.813,13.345 C3.574,12.907 3.387,12.438 3.248,11.948 L1.754,11.948 C1.073,11.948 0.521,11.396 0.521,10.716 L0.521,9.483 C0.521,8.803 1.073,8.251 1.754,8.251 L3.248,8.251 C3.392,7.743 3.590,7.258 3.842,6.806 L2.718,5.681 C2.234,5.197 2.234,4.413 2.718,3.929 L3.594,3.053 C4.077,2.569 4.862,2.569 5.345,3.053 L6.470,4.178 C6.922,3.926 7.407,3.727 7.915,3.583 L7.915,2.089 C7.915,1.409 8.467,0.857 9.148,0.857 L10.380,0.857 C11.061,0.857 11.612,1.409 11.612,2.089 L11.612,3.583 C12.102,3.722 12.572,3.909 13.009,4.149 L14.105,3.053 C14.589,2.569 15.373,2.569 15.857,3.053 L16.733,3.929 C17.217,4.413 17.217,5.197 16.733,5.681 L15.656,6.758 C15.921,7.224 16.131,7.724 16.280,8.251 L17.774,8.251 C18.455,8.251 19.006,8.803 19.006,9.483 L19.006,10.716 C19.006,11.396 18.455,11.948 17.774,11.948 ZM9.764,6.402 C7.722,6.402 6.067,8.058 6.067,10.100 C6.067,12.141 7.722,13.796 9.764,13.796 C11.806,13.796 13.461,12.141 13.461,10.100 C13.461,8.058 11.806,6.402 9.764,6.402 ZM9.764,11.948 C8.743,11.948 7.915,11.120 7.915,10.100 C7.915,9.079 8.743,8.251 9.764,8.251 C10.785,8.251 11.612,9.079 11.612,10.100 C11.612,11.120 10.785,11.948 9.764,11.948 Z"/>
</svg>