<svg 
 xmlns="http://www.w3.org/2000/svg"
 xmlns:xlink="http://www.w3.org/1999/xlink"
 width="18px" height="17px">
<path fill-rule="evenodd"  fill="rgb(255, 255, 255)"
 d="M12.588,4.508 C12.228,4.181 11.676,3.751 11.246,3.526 C10.437,3.105 9.561,2.891 8.641,2.891 C5.527,2.891 2.994,5.425 2.994,8.539 C2.994,11.653 5.527,14.186 8.641,14.186 C10.767,14.186 12.693,13.011 13.667,11.119 L16.062,12.352 C14.625,15.145 11.781,16.881 8.641,16.881 C4.042,16.881 0.299,13.138 0.299,8.539 C0.299,3.939 4.042,0.198 8.641,0.198 C9.979,0.198 11.311,0.522 12.491,1.137 C13.127,1.468 13.719,1.881 14.251,2.365 L15.471,0.387 L17.149,6.797 L11.132,6.757 L12.588,4.508 Z"/>
</svg>