<svg 
 xmlns="http://www.w3.org/2000/svg"
 xmlns:xlink="http://www.w3.org/1999/xlink"
 width="18px" height="21px">
<path fill-rule="evenodd"  fill="rgb(255, 255, 255)"
 d="M16.546,6.838 L16.546,16.766 C16.546,18.799 15.067,20.447 13.035,20.447 L5.673,20.447 C3.641,20.447 1.936,18.799 1.936,16.766 L1.936,6.838 C1.259,6.838 0.766,6.289 0.766,5.611 C0.766,4.934 1.315,4.272 1.993,4.272 L5.673,4.272 C5.673,2.239 7.321,0.704 9.354,0.704 C11.387,0.704 13.035,2.239 13.035,4.272 L16.546,4.272 C17.224,4.272 17.773,4.934 17.773,5.611 C17.773,6.289 17.224,6.838 16.546,6.838 ZM9.354,2.932 C8.676,2.932 8.127,3.594 8.127,4.272 L10.581,4.272 C10.581,3.594 10.032,2.932 9.354,2.932 ZM14.205,7.008 L4.334,7.008 L4.334,16.879 C4.334,17.557 4.883,18.106 5.560,18.106 L12.978,18.106 C13.656,18.106 14.205,17.557 14.205,16.879 L14.205,7.008 ZM12.142,15.427 C11.803,15.427 11.416,15.152 11.416,14.813 L11.416,9.906 C11.416,9.567 11.803,9.292 12.142,9.292 C12.481,9.292 13.038,9.567 13.038,9.906 L13.038,14.813 C13.038,15.152 12.481,15.427 12.142,15.427 ZM9.094,15.427 C8.755,15.427 8.368,15.152 8.368,14.813 L8.368,9.906 C8.368,9.567 8.755,9.292 9.094,9.292 C9.433,9.292 9.990,9.567 9.990,9.906 L9.990,14.813 C9.990,15.152 9.433,15.427 9.094,15.427 ZM6.216,15.427 C5.877,15.427 5.489,15.152 5.489,14.813 L5.489,9.906 C5.489,9.567 5.877,9.292 6.216,9.292 C6.554,9.292 7.111,9.567 7.111,9.906 L7.111,14.813 C7.111,15.152 6.554,15.427 6.216,15.427 Z"/>
</svg>