<svg 
 xmlns="http://www.w3.org/2000/svg"
 xmlns:xlink="http://www.w3.org/1999/xlink"
 width="30px" height="30px">
<path fill-rule="evenodd"  fill="rgb(255, 255, 255)"
 d="M26.433,29.379 L3.709,29.379 C2.140,29.379 0.869,28.107 0.869,26.538 L0.869,13.472 L2.622,13.472 C2.610,18.408 2.573,24.834 2.573,24.834 C2.573,26.402 4.413,27.674 5.982,27.674 L24.161,27.674 C25.729,27.674 27.569,26.402 27.569,24.834 C27.569,24.834 27.532,18.263 27.521,13.472 L29.274,13.472 L29.274,26.538 C29.274,28.107 28.002,29.379 26.433,29.379 ZM9.390,13.436 L12.799,13.436 L13.367,13.436 L16.775,13.436 L17.344,13.436 L20.752,13.436 L21.320,13.436 L24.729,13.436 L25.297,13.436 L25.297,25.970 L24.729,25.970 L21.320,25.970 L20.752,25.970 L17.344,25.970 L16.775,25.970 L13.367,25.970 L12.799,25.970 L9.390,25.970 L8.822,25.970 L5.414,25.970 L4.845,25.970 L4.845,13.436 L5.414,13.436 L8.822,13.436 L9.390,13.436 ZM21.320,25.402 L24.729,25.402 L24.729,21.993 L21.320,21.993 L21.320,25.402 ZM21.320,21.425 L24.729,21.425 L24.729,18.017 L21.320,18.017 L21.320,21.425 ZM21.320,17.449 L24.729,17.449 L24.729,14.004 L21.320,14.004 L21.320,17.449 ZM17.344,25.402 L20.752,25.402 L20.752,21.993 L17.344,21.993 L17.344,25.402 ZM17.344,21.425 L20.752,21.425 L20.752,18.017 L17.344,18.017 L17.344,21.425 ZM17.344,17.449 L20.752,17.449 L20.752,14.004 L17.344,14.004 L17.344,17.449 ZM13.367,25.402 L16.775,25.402 L16.775,21.993 L13.367,21.993 L13.367,25.402 ZM13.367,21.425 L16.775,21.425 L16.775,18.017 L13.367,18.017 L13.367,21.425 ZM13.367,17.449 L16.775,17.449 L16.775,14.004 L13.367,14.004 L13.367,17.449 ZM9.390,25.402 L12.799,25.402 L12.799,21.993 L9.390,21.993 L9.390,25.402 ZM9.390,21.425 L12.799,21.425 L12.799,18.017 L9.390,18.017 L9.390,21.425 ZM9.390,17.449 L12.799,17.449 L12.799,14.004 L9.390,14.004 L9.390,17.449 ZM5.414,25.402 L8.822,25.402 L8.822,21.993 L5.414,21.993 L5.414,25.402 ZM5.414,21.425 L8.822,21.425 L8.822,18.017 L5.414,18.017 L5.414,21.425 ZM5.414,17.449 L8.822,17.449 L8.822,14.004 L5.414,14.004 L5.414,17.449 ZM0.869,6.087 C0.869,4.518 2.140,3.246 3.709,3.246 L4.845,3.246 L4.845,8.927 C7.118,8.927 7.037,8.927 9.390,8.927 L9.390,3.246 L20.752,3.246 L20.752,8.927 C22.943,8.927 22.943,8.927 25.297,8.927 L25.297,3.246 L26.433,3.246 C28.002,3.246 29.274,4.518 29.274,6.087 L29.274,12.336 C17.116,12.336 14.503,12.336 0.869,12.336 L0.869,6.087 ZM21.320,2.678 C21.320,1.737 22.083,0.974 23.024,0.974 C23.966,0.974 24.729,1.737 24.729,2.678 L24.729,8.359 C24.729,8.359 23.430,8.359 21.320,8.359 C21.320,7.385 21.320,2.678 21.320,2.678 ZM5.414,2.678 C5.414,1.737 6.177,0.974 7.118,0.974 C8.059,0.974 8.822,1.737 8.822,2.678 L8.822,8.359 C8.822,8.359 6.955,8.359 5.414,8.359 C5.414,8.684 5.414,2.678 5.414,2.678 Z"/>
</svg>