<svg 
 xmlns="http://www.w3.org/2000/svg"
 xmlns:xlink="http://www.w3.org/1999/xlink"
 width="31px" height="31px">
<path fill-rule="evenodd"  fill="rgb(255, 255, 255)"
 d="M15.243,30.064 C7.054,30.064 0.416,23.426 0.416,15.238 C0.416,7.049 7.054,0.411 15.243,0.411 C23.431,0.411 30.069,7.049 30.069,15.238 C30.069,23.426 23.431,30.064 15.243,30.064 ZM15.253,2.270 C8.077,2.270 2.259,8.074 2.259,15.234 C2.259,22.394 8.077,28.199 15.253,28.199 C22.428,28.199 28.246,22.394 28.246,15.234 C28.246,8.074 22.428,2.270 15.253,2.270 ZM20.802,17.988 C19.876,17.988 15.222,17.997 14.325,17.997 C13.427,17.997 12.463,17.120 12.463,16.164 C12.463,15.208 12.463,6.898 12.463,5.971 C12.463,5.045 13.390,4.091 14.317,4.091 C15.243,4.091 15.213,4.089 16.140,4.089 C17.067,4.089 18.022,5.045 18.022,5.942 C18.022,6.500 18.022,12.427 18.022,12.427 C18.022,12.427 19.866,12.435 20.782,12.435 C21.698,12.435 22.660,13.416 22.660,14.301 C22.660,15.185 22.656,15.282 22.656,16.135 C22.656,16.988 21.729,17.988 20.802,17.988 ZM20.802,14.291 L16.169,14.291 L16.169,5.942 L14.316,5.942 L14.316,16.135 L20.802,16.135 L20.802,14.291 Z"/>
</svg>