<svg xmlns="http://www.w3.org/2000/svg" width="17" height="19.719" viewBox="0 0 17 19.719">
  <metadata><?xpacket begin="﻿" id="W5M0MpCehiHzreSzNTczkc9d"?>
<x:xmpmeta xmlns:x="adobe:ns:meta/" x:xmptk="Adobe XMP Core 5.6-c142 79.160924, 2017/07/13-01:06:39        ">
   <rdf:RDF xmlns:rdf="http://www.w3.org/1999/02/22-rdf-syntax-ns#">
      <rdf:Description rdf:about=""/>
   </rdf:RDF>
</x:xmpmeta>
                                                                                                    
                                                                                                    
                                                                                                    
                                                                                                    
                                                                                                    
                                                                                                    
                                                                                                    
                                                                                                    
                                                                                                    
                                                                                                    
                                                                                                    
                                                                                                    
                                                                                                    
                                                                                                    
                                                                                                    
                                                                                                    
                                                                                                    
                                                                                                    
                                                                                                    
                                                                                                    
                           
<?xpacket end="w"?></metadata>
<defs>
    <style>
      .cls-1 {
        fill: #fff;
        fill-rule: evenodd;
      }
    </style>
  </defs>
  <path id="bin_copy_19" data-name="bin copy 19" class="cls-1" d="M476.546,373.838v9.928a3.54,3.54,0,0,1-3.511,3.681h-7.362a3.73,3.73,0,0,1-3.737-3.681v-9.928a1.18,1.18,0,0,1-1.17-1.227,1.328,1.328,0,0,1,1.227-1.339h3.68a3.683,3.683,0,0,1,7.362,0h3.511a1.328,1.328,0,0,1,1.227,1.339A1.227,1.227,0,0,1,476.546,373.838Zm-7.192-3.906a1.328,1.328,0,0,0-1.227,1.34h2.454A1.328,1.328,0,0,0,469.354,369.932Zm-5.021,4.076v9.871a1.227,1.227,0,0,0,1.227,1.227h7.418a1.227,1.227,0,0,0,1.227-1.227v-9.871h-9.872Zm1.882,8.419a0.721,0.721,0,0,1-.726-0.614v-4.907a0.721,0.721,0,0,1,.726-0.614,0.92,0.92,0,0,1,.9.614v4.907A0.92,0.92,0,0,1,466.215,382.427Zm5.927,0a0.72,0.72,0,0,1-.726-0.614v-4.907a0.72,0.72,0,0,1,.726-0.614,0.92,0.92,0,0,1,.9.614v4.907A0.92,0.92,0,0,1,472.142,382.427Zm-3.048,0a0.72,0.72,0,0,1-.726-0.614v-4.907a0.72,0.72,0,0,1,.726-0.614,0.92,0.92,0,0,1,.9.614v4.907A0.92,0.92,0,0,1,469.094,382.427Z" transform="translate(-460.781 -367.719)"/>
</svg>
