<svg xmlns="http://www.w3.org/2000/svg" width="25.031" height="27.563" viewBox="0 0 25.031 27.563">
  <metadata><?xpacket begin="﻿" id="W5M0MpCehiHzreSzNTczkc9d"?>
<x:xmpmeta xmlns:x="adobe:ns:meta/" x:xmptk="Adobe XMP Core 5.6-c142 79.160924, 2017/07/13-01:06:39        ">
   <rdf:RDF xmlns:rdf="http://www.w3.org/1999/02/22-rdf-syntax-ns#">
      <rdf:Description rdf:about=""/>
   </rdf:RDF>
</x:xmpmeta>
                                                                                                    
                                                                                                    
                                                                                                    
                                                                                                    
                                                                                                    
                                                                                                    
                                                                                                    
                                                                                                    
                                                                                                    
                                                                                                    
                                                                                                    
                                                                                                    
                                                                                                    
                                                                                                    
                                                                                                    
                                                                                                    
                                                                                                    
                                                                                                    
                                                                                                    
                                                                                                    
                           
<?xpacket end="w"?></metadata>
<defs>
    <style>
      .cls-1 {
        fill: #fff;
        fill-rule: evenodd;
      }
    </style>
  </defs>
  <path id="Forme_31" data-name="Forme 31" class="cls-1" d="M625.112,71.662A11.249,11.249,0,0,0,624.9,73.6c0,1.284.417,1.874,1.249,1.908,1.77,0.035,3.782-2.5,3.782-7.285,0-5.308-2.983-9.228-8.812-9.228-5.864,0-11.1,5.1-11.1,13.01,0,6.627,3.989,10.3,9.541,10.3a11.713,11.713,0,0,0,5.551-1.319l0.624,1.977a14.2,14.2,0,0,1-6.834,1.492c-6.073,0-11.45-4.475-11.45-12.212,0-8.118,5.62-15.334,14.052-15.334,6.7,0,10.964,4.788,10.964,11,0,6.245-2.985,9.887-7.044,9.887-1.8,0-3.018-1.075-3.088-3.191h-0.1a5.633,5.633,0,0,1-4.926,3.191c-2.36,0-4.06-1.838-4.06-4.926,0-4.857,3.435-9.436,8.951-9.436a10.2,10.2,0,0,1,4.2.867Zm-2.29-5.343a3.5,3.5,0,0,0-1.318-.208c-2.6,0-4.823,2.949-4.823,6.453,0,1.526.659,2.463,1.908,2.463,1.562,0,3.122-2.116,3.469-4.337Z" transform="translate(-607.438 -56.906)"/>
</svg>
