<svg 
 xmlns="http://www.w3.org/2000/svg"
 xmlns:xlink="http://www.w3.org/1999/xlink"
 width="29px" height="28px">
<path fill-rule="evenodd"  fill="rgb(255, 255, 255)"
 d="M28.541,13.654 C28.541,13.654 23.816,12.725 20.098,12.725 C16.379,12.725 14.689,10.865 14.689,10.865 L14.689,24.577 L12.437,24.577 L12.437,0.055 L14.689,0.055 L14.689,1.570 C14.689,1.570 16.379,3.429 20.098,3.429 C23.818,3.429 28.541,4.359 28.541,4.359 L25.752,9.007 L28.541,13.654 ZM3.980,23.455 C3.980,24.985 8.880,26.225 13.608,26.225 C18.337,26.225 23.237,24.985 23.237,23.455 C23.237,22.362 20.730,21.420 17.576,20.969 L17.715,19.408 C22.977,19.967 26.781,21.566 26.781,23.455 C26.781,25.808 20.883,27.716 13.608,27.716 C6.333,27.716 0.436,25.808 0.436,23.455 C0.436,21.580 4.188,19.991 9.392,19.422 L9.531,20.985 C6.428,21.441 3.980,22.375 3.980,23.455 Z"/>
</svg>