<svg 
 xmlns="http://www.w3.org/2000/svg"
 xmlns:xlink="http://www.w3.org/1999/xlink"
 width="29px" height="30px">
<path fill-rule="evenodd"  fill="rgb(255, 255, 255)"
 d="M14.608,29.379 C6.765,29.379 0.406,23.020 0.406,15.176 C0.406,7.333 6.765,0.974 14.608,0.974 C22.452,0.974 28.811,7.333 28.811,15.176 C28.811,23.020 22.452,29.379 14.608,29.379 ZM20.853,12.688 L20.853,8.943 L19.141,8.943 L19.141,10.968 L14.649,6.386 L6.083,15.151 L8.378,15.151 L8.378,21.774 C8.378,22.513 8.977,23.113 9.716,23.113 C9.716,23.113 11.271,23.113 12.913,23.113 C12.913,21.323 12.913,20.148 12.913,19.094 C12.912,18.782 13.234,18.174 13.695,18.040 C14.561,18.040 14.647,18.038 15.504,18.038 C15.978,18.172 16.312,18.781 16.312,19.094 C16.312,19.281 16.312,21.745 16.312,23.113 C18.104,23.113 19.501,23.113 19.501,23.113 C20.240,23.113 20.839,22.513 20.839,21.774 L20.839,15.151 L23.192,15.151 L20.845,12.688 L20.853,12.688 Z"/>
</svg>