<svg xmlns="http://www.w3.org/2000/svg" width="15.438" height="29.625" viewBox="0 0 15.438 29.625">
  <metadata><?xpacket begin="﻿" id="W5M0MpCehiHzreSzNTczkc9d"?>
<x:xmpmeta xmlns:x="adobe:ns:meta/" x:xmptk="Adobe XMP Core 5.6-c142 79.160924, 2017/07/13-01:06:39        ">
   <rdf:RDF xmlns:rdf="http://www.w3.org/1999/02/22-rdf-syntax-ns#">
      <rdf:Description rdf:about=""/>
   </rdf:RDF>
</x:xmpmeta>
                                                                                                    
                                                                                                    
                                                                                                    
                                                                                                    
                                                                                                    
                                                                                                    
                                                                                                    
                                                                                                    
                                                                                                    
                                                                                                    
                                                                                                    
                                                                                                    
                                                                                                    
                                                                                                    
                                                                                                    
                                                                                                    
                                                                                                    
                                                                                                    
                                                                                                    
                                                                                                    
                           
<?xpacket end="w"?></metadata>
<defs>
    <style>
      .cls-1 {
        fill: #fff;
        fill-rule: evenodd;
      }
    </style>
  </defs>
  <path id="iPhone" class="cls-1" d="M774.966,56h-10.5A2.473,2.473,0,0,0,762,58.465V83.117a2.516,2.516,0,0,0,2.466,2.515h10.5a2.515,2.515,0,0,0,2.465-2.515V58.465A2.472,2.472,0,0,0,774.966,56m-6.555,1.923h2.957a0.493,0.493,0,0,1,0,.986h-2.957a0.493,0.493,0,0,1,0-.986M769.889,84.6a1.479,1.479,0,1,1,1.479-1.479,1.478,1.478,0,0,1-1.479,1.479m6.359-4.29H763.185V60.733h13.063V80.306Z" transform="translate(-762 -56)"/>
</svg>
