<svg 
 xmlns="http://www.w3.org/2000/svg"
 xmlns:xlink="http://www.w3.org/1999/xlink"
 width="11px" height="11px">
<path fill-rule="evenodd"  fill="rgb(255, 255, 255)"
 d="M10.271,1.931 L6.186,9.061 C5.690,9.927 4.813,10.349 4.260,9.953 C4.237,9.936 4.221,9.913 4.201,9.895 C3.851,9.714 3.485,9.413 3.175,9.040 L1.188,6.472 C0.806,5.979 0.898,5.286 1.336,4.928 C1.738,4.600 2.323,4.649 2.688,5.033 L4.535,6.972 C4.582,7.023 4.632,7.091 4.682,7.160 L8.838,1.023 C9.120,0.606 9.647,0.474 10.027,0.712 C10.410,0.951 10.524,1.489 10.271,1.931 Z"/>
</svg>