<svg 
 xmlns="http://www.w3.org/2000/svg"
 xmlns:xlink="http://www.w3.org/1999/xlink"
 width="29px" height="29px">
<path fill-rule="evenodd"  fill="rgb(255, 255, 255)"
 d="M27.491,28.154 L1.033,28.154 C0.652,28.154 0.346,27.846 0.346,27.466 L0.346,27.290 C0.346,26.910 0.652,26.602 1.033,26.602 L27.491,26.602 C27.872,26.602 28.179,26.910 28.179,27.290 L28.179,27.466 C28.179,27.846 27.872,28.154 27.491,28.154 ZM27.231,25.710 L22.616,25.710 C22.236,25.710 21.927,25.402 21.927,25.022 L21.927,0.942 C21.927,0.562 22.236,0.254 22.616,0.254 L27.231,0.254 C27.611,0.254 27.919,0.562 27.919,0.942 L27.919,25.022 C27.919,25.402 27.611,25.710 27.231,25.710 ZM20.281,25.710 L15.666,25.710 C15.285,25.710 14.979,25.402 14.979,25.022 L14.979,8.249 C14.979,7.870 15.285,7.562 15.666,7.562 L20.281,7.562 C20.662,7.562 20.969,7.870 20.969,8.249 L20.969,25.022 C20.969,25.402 20.662,25.710 20.281,25.710 ZM13.332,25.710 L8.717,25.710 C8.337,25.710 8.030,25.402 8.030,25.022 L8.030,11.006 C8.030,10.626 8.337,10.318 8.717,10.318 L13.332,10.318 C13.713,10.318 14.020,10.626 14.020,11.006 L14.020,25.022 C14.020,25.402 13.713,25.710 13.332,25.710 ZM6.383,25.710 L1.767,25.710 C1.387,25.710 1.080,25.402 1.080,25.022 L1.080,15.079 C1.080,14.699 1.387,14.391 1.767,14.391 L6.383,14.391 C6.763,14.391 7.071,14.699 7.071,15.079 L7.071,25.022 C7.071,25.402 6.763,25.710 6.383,25.710 Z"/>
</svg>