<svg 
 xmlns="http://www.w3.org/2000/svg"
 xmlns:xlink="http://www.w3.org/1999/xlink"
 width="40px" height="31px">
<path fill-rule="evenodd"  fill="rgb(255, 255, 255)"
 d="M35.300,20.332 L35.300,14.705 L20.922,14.705 L20.922,10.422 L25.208,10.422 L25.208,0.378 L15.164,0.378 L15.164,10.422 L19.248,10.422 L19.248,14.705 L4.478,14.705 L4.478,20.332 L0.590,20.332 L0.590,30.376 L10.634,30.376 L10.634,20.332 L6.152,20.332 L6.152,16.377 L19.248,16.377 L19.248,20.332 L15.164,20.332 L15.164,30.376 L25.208,30.376 L25.208,20.332 L20.922,20.332 L20.922,16.377 L33.627,16.377 L33.627,20.332 L29.739,20.332 L29.739,30.376 L39.782,30.376 L39.782,20.332 L35.300,20.332 Z"/>
</svg>