<svg 
 xmlns="http://www.w3.org/2000/svg"
 xmlns:xlink="http://www.w3.org/1999/xlink"
 width="30px" height="29px">
<path fill-rule="evenodd"  opacity="0.902" fill="rgb(255, 255, 255)"
 d="M28.892,5.223 C29.966,7.816 29.455,10.911 27.347,13.020 C25.025,15.341 21.516,15.703 18.790,14.165 L16.819,16.318 L18.225,17.730 L19.065,16.890 C19.495,16.460 20.191,16.460 20.621,16.890 L27.438,23.775 C27.868,24.205 27.868,24.901 27.438,25.331 L24.326,28.444 C23.897,28.873 23.200,28.873 22.770,28.444 L15.953,21.557 C15.524,21.128 15.524,20.431 15.953,20.001 L16.721,19.234 L15.380,17.890 L5.952,28.190 C5.093,29.050 3.699,29.050 2.840,28.190 L2.062,27.412 C1.202,26.553 1.202,25.160 2.062,24.300 L12.802,15.305 L5.668,8.153 L3.416,8.152 L0.811,3.960 L2.909,1.857 L7.197,4.481 L7.226,6.687 L14.442,13.931 L16.541,12.173 C14.489,9.375 14.703,5.436 17.232,2.906 C19.331,0.807 22.408,0.287 24.994,1.342 L20.369,5.901 L24.259,9.791 L28.892,5.223 ZM4.645,25.397 C4.215,24.968 3.518,24.968 3.089,25.397 C2.659,25.827 2.659,26.524 3.089,26.953 C3.518,27.383 4.215,27.383 4.645,26.953 C5.074,26.524 5.074,25.827 4.645,25.397 Z"/>
</svg>