<svg 
 xmlns="http://www.w3.org/2000/svg"
 xmlns:xlink="http://www.w3.org/1999/xlink"
 width="33px" height="30px">
<path fill-rule="evenodd"  fill="rgb(255, 255, 255)"
 d="M16.478,0.629 C7.487,0.629 0.199,6.095 0.199,12.837 C0.199,16.437 2.278,19.672 5.581,21.905 C5.581,21.905 6.368,25.584 1.765,29.115 C7.902,28.523 9.520,23.876 9.520,23.876 C11.630,24.625 13.989,25.046 16.478,25.046 C25.470,25.046 32.757,19.579 32.757,12.837 C32.757,6.095 25.470,0.629 16.478,0.629 ZM11.850,14.519 C11.021,14.519 10.349,13.847 10.349,13.018 C10.349,12.190 11.021,11.518 11.850,11.518 C12.679,11.518 13.351,12.190 13.351,13.018 C13.351,13.847 12.679,14.519 11.850,14.519 ZM16.826,14.519 C15.998,14.519 15.326,13.847 15.326,13.018 C15.326,12.190 15.998,11.518 16.826,11.518 C17.656,11.518 18.327,12.190 18.327,13.018 C18.327,13.847 17.656,14.519 16.826,14.519 ZM21.803,14.519 C20.973,14.519 20.302,13.847 20.302,13.018 C20.302,12.190 20.973,11.518 21.803,11.518 C22.632,11.518 23.304,12.190 23.304,13.018 C23.304,13.847 22.632,14.519 21.803,14.519 Z"/>
</svg>