<svg 
 xmlns="http://www.w3.org/2000/svg"
 xmlns:xlink="http://www.w3.org/1999/xlink"
 width="26px" height="31px">
<path fill-rule="evenodd"  fill="rgb(255, 255, 255)"
 d="M16.844,25.537 L16.405,24.287 C21.093,22.936 24.537,18.616 24.537,13.499 C24.537,7.305 19.497,2.266 13.304,2.266 C7.110,2.266 2.070,7.305 2.070,13.499 C2.070,18.616 5.514,22.936 10.202,24.287 L9.764,25.537 C4.560,24.004 0.749,19.191 0.749,13.499 C0.749,6.577 6.381,0.945 13.304,0.945 C20.226,0.945 25.858,6.577 25.858,13.499 C25.858,19.191 22.047,24.004 16.844,25.537 ZM3.392,13.499 C3.392,8.034 7.838,3.588 13.304,3.588 C18.769,3.588 23.215,8.034 23.215,13.499 C23.215,18.041 20.141,21.869 15.966,23.037 L15.528,21.786 C19.188,20.803 21.894,17.465 21.894,13.499 C21.894,8.762 18.041,4.909 13.304,4.909 C8.567,4.909 4.713,8.762 4.713,13.499 C4.713,17.465 7.419,20.803 11.079,21.786 L10.641,23.037 C6.466,21.869 3.392,18.041 3.392,13.499 ZM13.304,8.873 C15.858,8.873 17.929,10.945 17.929,13.499 C17.929,16.054 15.858,18.124 13.304,18.124 C10.749,18.124 8.678,16.054 8.678,13.499 C8.678,10.945 10.749,8.873 13.304,8.873 ZM13.304,10.826 C14.956,10.826 16.350,11.931 16.789,13.443 C16.790,13.404 16.791,13.364 16.791,13.324 C16.791,11.399 15.230,9.836 13.304,9.836 C11.377,9.836 9.815,11.399 9.815,13.324 C9.815,13.364 9.817,13.404 9.819,13.443 C10.257,11.931 11.651,10.826 13.304,10.826 ZM6.035,13.499 C6.035,9.491 9.296,6.230 13.304,6.230 C17.312,6.230 20.572,9.491 20.572,13.499 C20.572,16.890 18.235,19.737 15.090,20.536 L14.651,19.286 C17.282,18.672 19.250,16.314 19.250,13.499 C19.250,10.220 16.582,7.551 13.304,7.551 C10.025,7.551 7.357,10.220 7.357,13.499 C7.357,16.314 9.325,18.672 11.956,19.286 L11.518,20.536 C8.372,19.737 6.035,16.890 6.035,13.499 ZM17.448,31.012 L9.159,31.012 L13.304,19.192 L17.448,31.012 Z"/>
</svg>