<svg 
 xmlns="http://www.w3.org/2000/svg"
 xmlns:xlink="http://www.w3.org/1999/xlink"
 width="30px" height="31px">
<path fill-rule="evenodd"  fill="rgb(255, 255, 255)"
 d="M14.942,0.949 C6.726,0.949 0.067,7.608 0.067,15.822 C0.067,24.036 6.726,30.697 14.942,30.697 C23.157,30.697 29.817,24.036 29.817,15.822 C29.817,7.608 23.157,0.949 14.942,0.949 ZM14.369,23.780 C15.339,23.892 17.439,21.348 17.892,21.401 C18.054,21.420 18.257,21.642 18.222,21.932 C18.114,22.870 13.862,26.440 10.596,26.061 C9.432,25.924 8.685,25.282 8.828,24.052 C9.010,22.500 10.418,19.976 10.708,19.451 L13.636,14.021 C13.930,13.466 13.673,13.140 13.413,13.111 C12.215,12.972 10.335,15.605 9.755,15.537 C9.526,15.511 9.360,15.261 9.382,15.067 C9.450,14.485 11.031,13.293 11.501,12.921 C12.938,11.842 14.730,11.100 16.606,11.318 C17.998,11.479 19.388,12.493 17.858,15.497 L14.794,21.533 C14.545,21.995 14.094,22.764 14.034,23.281 C14.008,23.507 14.110,23.749 14.369,23.780 ZM21.055,8.031 C20.881,9.521 19.525,10.478 18.067,10.308 C16.742,10.154 15.970,9.178 16.123,7.852 C16.290,6.428 17.654,5.407 19.078,5.574 C20.372,5.723 21.209,6.706 21.055,8.031 Z"/>
</svg>