<svg 
 xmlns="http://www.w3.org/2000/svg"
 xmlns:xlink="http://www.w3.org/1999/xlink"
 width="35px" height="30px">
<path fill-rule="evenodd"  fill="rgb(255, 255, 255)"
 d="M31.847,29.550 L3.117,29.550 C1.702,29.550 0.556,28.404 0.556,26.991 C0.556,25.576 1.702,24.429 3.117,24.429 L31.847,24.429 C33.262,24.429 34.408,25.576 34.408,26.991 C34.408,28.404 33.262,29.550 31.847,29.550 ZM14.831,26.137 C14.303,26.137 13.876,26.564 13.876,27.091 C13.876,27.618 14.303,28.046 14.831,28.046 C15.358,28.046 15.785,27.618 15.785,27.091 C15.785,26.564 15.358,26.137 14.831,26.137 ZM17.483,26.137 C16.955,26.137 16.527,26.564 16.527,27.091 C16.527,27.618 16.955,28.046 17.483,28.046 C18.009,28.046 18.436,27.618 18.436,27.091 C18.436,26.564 18.009,26.137 17.483,26.137 ZM20.133,26.137 C19.606,26.137 19.179,26.564 19.179,27.091 C19.179,27.618 19.606,28.046 20.133,28.046 C20.661,28.046 21.088,27.618 21.088,27.091 C21.088,26.564 20.661,26.137 20.133,26.137 ZM26.926,22.915 L8.038,22.915 C4.400,22.915 1.440,19.955 1.440,16.318 L1.440,6.597 C1.440,2.957 4.400,-0.003 8.038,-0.003 L26.926,-0.003 C30.564,-0.003 33.524,2.957 33.524,6.597 L33.524,16.318 C33.524,19.955 30.564,22.915 26.926,22.915 ZM30.326,6.597 C30.326,4.721 28.800,3.196 26.926,3.196 L8.038,3.196 C6.164,3.196 4.638,4.721 4.638,6.597 L4.638,16.318 C4.638,18.192 6.164,19.716 8.038,19.716 L26.926,19.716 C28.800,19.716 30.326,18.192 30.326,16.318 L30.326,6.597 ZM23.880,14.354 L11.083,14.354 C10.862,14.354 10.683,14.176 10.683,13.955 C10.683,13.733 10.862,13.555 11.083,13.555 L23.880,13.555 C24.102,13.555 24.280,13.733 24.280,13.955 C24.280,14.176 24.102,14.354 23.880,14.354 ZM23.880,11.956 L11.083,11.956 C10.862,11.956 10.683,11.777 10.683,11.556 C10.683,11.335 10.862,11.156 11.083,11.156 L23.880,11.156 C24.102,11.156 24.280,11.335 24.280,11.556 C24.280,11.777 24.102,11.956 23.880,11.956 ZM23.880,9.556 L11.083,9.556 C10.862,9.556 10.683,9.378 10.683,9.157 C10.683,8.936 10.862,8.757 11.083,8.757 L23.880,8.757 C24.102,8.757 24.280,8.936 24.280,9.157 C24.280,9.378 24.102,9.556 23.880,9.556 Z"/>
</svg>