<svg 
 xmlns="http://www.w3.org/2000/svg"
 xmlns:xlink="http://www.w3.org/1999/xlink"
 width="25px" height="30px">
<path fill-rule="evenodd"  fill="rgb(255, 255, 255)"
 d="M20.519,29.600 L4.915,29.600 L4.915,25.279 L-0.011,25.279 L-0.011,-0.001 L19.764,-0.001 L19.764,4.400 L20.440,4.400 L24.630,4.400 L24.630,25.556 L20.519,29.600 ZM17.734,2.029 L2.020,2.029 L2.020,23.248 L14.667,23.248 L14.654,20.171 L17.734,20.171 L17.734,2.029 ZM15.452,20.965 L15.465,24.046 L18.532,20.965 L15.452,20.965 ZM22.606,6.424 L20.640,6.424 L19.764,6.424 L19.764,21.222 L15.641,25.279 L6.940,25.279 L6.940,27.576 L19.549,27.576 L19.536,24.510 L22.606,24.510 L22.606,6.424 ZM20.332,25.301 L20.345,28.373 L23.404,25.301 L20.332,25.301 ZM14.056,16.761 L5.690,16.761 C5.294,16.761 4.973,16.439 4.973,16.043 C4.973,15.648 5.294,15.326 5.690,15.326 L14.056,15.326 C14.452,15.326 14.773,15.648 14.773,16.043 C14.773,16.439 14.452,16.761 14.056,16.761 ZM14.056,12.698 L5.690,12.698 C5.294,12.698 4.973,12.377 4.973,11.981 C4.973,11.585 5.294,11.264 5.690,11.264 L14.056,11.264 C14.452,11.264 14.773,11.585 14.773,11.981 C14.773,12.377 14.452,12.698 14.056,12.698 ZM14.056,8.634 L5.690,8.634 C5.294,8.634 4.973,8.312 4.973,7.916 C4.973,7.521 5.294,7.199 5.690,7.199 L14.056,7.199 C14.452,7.199 14.773,7.521 14.773,7.916 C14.773,8.312 14.452,8.634 14.056,8.634 Z"/>
</svg>