<svg xmlns="http://www.w3.org/2000/svg" width="40.313" height="27.813" viewBox="0 0 40.313 27.813">
  <metadata><?xpacket begin="﻿" id="W5M0MpCehiHzreSzNTczkc9d"?>
<x:xmpmeta xmlns:x="adobe:ns:meta/" x:xmptk="Adobe XMP Core 5.6-c142 79.160924, 2017/07/13-01:06:39        ">
   <rdf:RDF xmlns:rdf="http://www.w3.org/1999/02/22-rdf-syntax-ns#">
      <rdf:Description rdf:about=""/>
   </rdf:RDF>
</x:xmpmeta>
                                                                                                    
                                                                                                    
                                                                                                    
                                                                                                    
                                                                                                    
                                                                                                    
                                                                                                    
                                                                                                    
                                                                                                    
                                                                                                    
                                                                                                    
                                                                                                    
                                                                                                    
                                                                                                    
                                                                                                    
                                                                                                    
                                                                                                    
                                                                                                    
                                                                                                    
                                                                                                    
                           
<?xpacket end="w"?></metadata>
<defs>
    <style>
      .cls-1 {
        fill: #fff;
        fill-rule: evenodd;
      }
    </style>
  </defs>
  <path id="Forme_59" data-name="Forme 59" class="cls-1" d="M359.161,76.041l1.909,4.683L356.291,77.5a13.354,13.354,0,0,1-4.349.709c-5.807,0-10.531-3.573-10.531-7.965s4.724-7.965,10.531-7.965,10.533,3.573,10.533,7.965A7.235,7.235,0,0,1,359.161,76.041ZM337.94,58.993c-7.4,0-13.424,4.383-13.424,9.77,0,2.7,1.571,5.3,4.309,7.157l0.882,0.6L328,79.733l3.523-2.381,0.565,0.2a17.412,17.412,0,0,0,5.848.982,17.141,17.141,0,0,0,7.138-1.511,12.614,12.614,0,0,0,2.762,1.189,18.845,18.845,0,0,1-9.9,2.694,19.9,19.9,0,0,1-6.067-.925L323.61,84.45l3.022-7.2a10.9,10.9,0,0,1-4.488-8.491c0-6.7,7.086-12.142,15.8-12.142a17.64,17.64,0,0,1,12.733,4.986,14.119,14.119,0,0,0-2.873.549A16,16,0,0,0,337.94,58.993Z" transform="translate(-322.156 -56.625)"/>
</svg>
