<svg 
 xmlns="http://www.w3.org/2000/svg"
 xmlns:xlink="http://www.w3.org/1999/xlink"
 width="18px" height="17px">
<path fill-rule="evenodd"  fill="rgb(8, 156, 213)"
 d="M12.785,4.874 C12.433,4.554 11.894,4.135 11.474,3.915 C10.684,3.504 9.828,3.295 8.930,3.295 C5.888,3.295 3.413,5.770 3.413,8.812 C3.413,11.853 5.888,14.327 8.930,14.327 C11.006,14.327 12.887,13.180 13.838,11.332 L16.178,12.536 C14.774,15.264 11.997,16.959 8.930,16.959 C4.437,16.959 0.781,13.304 0.781,8.812 C0.781,4.319 4.437,0.664 8.930,0.664 C10.236,0.664 11.537,0.981 12.689,1.582 C13.311,1.905 13.889,2.308 14.409,2.781 L15.600,0.849 L17.239,7.110 L11.362,7.071 L12.785,4.874 Z"/>
</svg>