<svg xmlns="http://www.w3.org/2000/svg" width="32.5" height="28.406" viewBox="0 0 32.5 28.406">
  <metadata><?xpacket begin="﻿" id="W5M0MpCehiHzreSzNTczkc9d"?>
<x:xmpmeta xmlns:x="adobe:ns:meta/" x:xmptk="Adobe XMP Core 5.6-c142 79.160924, 2017/07/13-01:06:39        ">
   <rdf:RDF xmlns:rdf="http://www.w3.org/1999/02/22-rdf-syntax-ns#">
      <rdf:Description rdf:about=""/>
   </rdf:RDF>
</x:xmpmeta>
                                                                                                    
                                                                                                    
                                                                                                    
                                                                                                    
                                                                                                    
                                                                                                    
                                                                                                    
                                                                                                    
                                                                                                    
                                                                                                    
                                                                                                    
                                                                                                    
                                                                                                    
                                                                                                    
                                                                                                    
                                                                                                    
                                                                                                    
                                                                                                    
                                                                                                    
                                                                                                    
                           
<?xpacket end="w"?></metadata>
<defs>
    <style>
      .cls-1 {
        fill: #fff;
        fill-rule: evenodd;
      }
    </style>
  </defs>
  <path id="Forme_24" data-name="Forme 24" class="cls-1" d="M553.588,76.805l0.242,0.1v0.373a7.4,7.4,0,0,1-.131,1.2l-0.051.261-0.261.049c-0.34.063-.746,0.118-1.213,0.165q-0.082.25-.186,0.49c0.321,0.348.589,0.659,0.8,0.929l0.163,0.21-0.136.229a7.427,7.427,0,0,1-.773,1.068l-0.174.2L551.615,82c-0.323-.114-0.7-0.269-1.134-0.463-0.13.116-.266,0.227-0.4,0.331,0.1,0.461.179,0.865,0.226,1.2l0.036,0.263-0.231.13a7.43,7.43,0,0,1-1.2.54l-0.251.087-0.173-.2c-0.221-.258-0.474-0.583-0.752-0.969q-0.258.053-.516,0.083c-0.145.463-.279,0.843-0.408,1.156l-0.1.242H546.33a7.4,7.4,0,0,1-1.2-.13l-0.261-.05-0.048-.26c-0.063-.332-0.119-0.739-0.167-1.214q-0.249-.082-0.489-0.185c-0.354.327-.661,0.589-0.93,0.8l-0.21.162-0.228-.135a7.4,7.4,0,0,1-1.069-.772l-0.2-.174,0.088-.25c0.113-.323.269-0.7,0.463-1.135-0.115-.13-0.226-0.265-0.33-0.4-0.472.106-.868,0.18-1.206,0.226l-0.262.035-0.13-.23a7.193,7.193,0,0,1-.54-1.2l-0.087-.251,0.2-.173c0.255-.218.573-0.466,0.969-0.751-0.035-.169-0.063-0.342-0.083-0.516-0.451-.14-0.839-0.277-1.156-0.407l-0.254-.1,0.013-.359a7.481,7.481,0,0,1,.132-1.215l0.051-.261,0.261-.049c0.333-.062.741-0.117,1.212-0.165,0.053-.163.116-0.327,0.186-0.49-0.321-.349-0.589-0.662-0.8-0.93l-0.162-.209,0.135-.228A7.437,7.437,0,0,1,541,72.3l0.175-.2,0.25,0.088c0.319,0.112.7,0.268,1.135,0.464,0.131-.117.266-0.227,0.4-0.331-0.1-.465-0.179-0.869-0.224-1.206l-0.036-.263,0.231-.13a7.454,7.454,0,0,1,1.2-.541l0.251-.087,0.174,0.2c0.222,0.26.47,0.579,0.75,0.969,0.17-.035.343-0.063,0.517-0.083,0.141-.454.278-0.842,0.407-1.156l0.1-.242h0.367a7.384,7.384,0,0,1,1.209.131l0.261,0.05,0.048,0.261c0.063,0.334.118,0.741,0.166,1.213q0.25,0.083.49,0.186c0.351-.323.663-0.591,0.93-0.8l0.21-.163,0.229,0.136a7.512,7.512,0,0,1,1.068.772l0.2,0.174-0.088.25c-0.114.324-.27,0.705-0.464,1.134q0.175,0.2.331,0.4c0.469-.105.866-0.179,1.205-0.226l0.262-.036,0.13,0.231a7.352,7.352,0,0,1,.542,1.2l0.086,0.251-0.2.173c-0.26.223-.585,0.476-0.969,0.752,0.035,0.171.063,0.343,0.083,0.516C552.885,76.54,553.273,76.677,553.588,76.805Zm-1.9-1.409c0.355-.25.663-0.48,0.917-0.686q-0.117-.3-0.264-0.586c-0.319.053-.7,0.131-1.123,0.23l-0.262.062-0.15-.224a5.1,5.1,0,0,0-.583-0.713l-0.189-.193,0.114-.245c0.183-.393.335-0.745,0.452-1.052q-0.25-.2-0.522-0.377c-0.25.206-.537,0.46-0.855,0.76l-0.2.185-0.242-.118a5.119,5.119,0,0,0-.862-0.327l-0.261-.072-0.024-.269c-0.038-.434-0.083-0.814-0.134-1.136q-0.319-.048-0.641-0.065c-0.114.3-.234,0.667-0.36,1.085l-0.077.259-0.27.019a5.244,5.244,0,0,0-.911.146l-0.26.066-0.155-.219c-0.251-.357-0.481-0.664-0.685-0.917-0.2.078-.395,0.167-0.587,0.265,0.053,0.321.13,0.7,0.23,1.121l0.062,0.262-0.223.151a5.143,5.143,0,0,0-.713.583l-0.193.188-0.244-.114c-0.4-.184-0.75-0.336-1.052-0.452a6.3,6.3,0,0,0-.377.522c0.206,0.251.46,0.538,0.758,0.855l0.184,0.2-0.116.242a5.128,5.128,0,0,0-.327.862l-0.072.261-0.27.024c-0.433.039-.814,0.084-1.135,0.134-0.032.211-.053,0.425-0.065,0.641,0.306,0.115.67,0.236,1.085,0.361l0.258,0.077,0.019,0.269a5.091,5.091,0,0,0,.146.91l0.066,0.26-0.219.155c-0.366.26-.668,0.486-0.916,0.687,0.078,0.2.167,0.4,0.263,0.588q0.478-.079,1.123-0.231l0.261-.062,0.15,0.223a5.145,5.145,0,0,0,.584.713l0.189,0.193-0.114.245c-0.183.394-.335,0.746-0.452,1.052,0.168,0.134.342,0.26,0.522,0.377,0.249-.2.536-0.459,0.856-0.76l0.2-.184,0.242,0.118a5.151,5.151,0,0,0,.861.327l0.26,0.073,0.024,0.268c0.039,0.435.084,0.816,0.135,1.135a6.441,6.441,0,0,0,.641.065c0.112-.3.231-0.657,0.36-1.086l0.078-.259,0.27-.018a5.194,5.194,0,0,0,.91-0.146l0.26-.066,0.155,0.219c0.251,0.357.481,0.664,0.686,0.917,0.2-.078.395-0.166,0.586-0.264-0.054-.324-0.132-0.7-0.231-1.122l-0.061-.262,0.223-.151a5.183,5.183,0,0,0,.713-0.583l0.192-.189,0.245,0.114c0.394,0.182.747,0.333,1.053,0.451,0.133-.167.26-0.342,0.377-0.522-0.208-.252-0.462-0.538-0.76-0.854l-0.185-.2,0.118-.242a5.055,5.055,0,0,0,.328-0.862l0.072-.259,0.269-.025c0.429-.039.811-0.084,1.136-0.135,0.032-.214.054-0.429,0.065-0.641-0.305-.114-0.67-0.235-1.087-0.361L551.7,76.99l-0.019-.268a5.184,5.184,0,0,0-.145-0.91l-0.067-.261Zm-5.162,4.727h-0.08a3.033,3.033,0,0,1,.077-6.065h0.08A3.033,3.033,0,0,1,546.524,80.124Zm0.043-4.754h0a1.722,1.722,0,0,0-.087,3.442l0.046,0.656V78.812A1.722,1.722,0,0,0,546.567,75.369Zm5.724-9.929a3.991,3.991,0,0,1-.264.7q0.448,0.474.713,0.819a5.141,5.141,0,0,1-.547.758c-0.274-.1-0.609-0.236-1-0.419a4.141,4.141,0,0,1-.576.469q0.15,0.634.209,1.067a5.286,5.286,0,0,1-.853.383q-0.284-.332-0.66-0.865a4.139,4.139,0,0,1-.733.118q-0.187.623-.352,1.027h-0.078a5.235,5.235,0,0,1-.853-0.093q-0.081-.427-0.14-1.077a4.181,4.181,0,0,1-.694-0.264c-0.317.3-.589,0.535-0.82,0.712a5.345,5.345,0,0,1-.758-0.547q0.145-.413.419-1a4.075,4.075,0,0,1-.469-0.575q-0.635.149-1.066,0.208A4.958,4.958,0,0,1,543.383,66c0.22-.189.509-0.409,0.863-0.66a4.215,4.215,0,0,1-.118-0.733q-0.623-.186-1.027-0.353c0-.026,0-0.051,0-0.077a5.211,5.211,0,0,1,.094-0.854q0.427-.08,1.076-0.139a4.038,4.038,0,0,1,.264-0.694q-0.445-.475-0.713-0.82a5.276,5.276,0,0,1,.547-0.758c0.276,0.1.609,0.237,1,.419a4.162,4.162,0,0,1,.575-0.469c-0.1-.423-0.17-0.779-0.208-1.067a5.289,5.289,0,0,1,.852-0.384c0.19,0.221.409,0.508,0.659,0.865a4.191,4.191,0,0,1,.734-0.119c0.125-.416.244-0.758,0.353-1.027l0.077,0a5.216,5.216,0,0,1,.854.093c0.053,0.286.1,0.644,0.139,1.077a4.155,4.155,0,0,1,.7.264q0.474-.446.818-0.713a5.192,5.192,0,0,1,.758.547q-0.144.411-.419,1a4.036,4.036,0,0,1,.47.575c0.423-.1.78-0.168,1.068-0.208a5.242,5.242,0,0,1,.382.852q-0.33.284-.862,0.66a4.415,4.415,0,0,1,.117.733c0.415,0.126.758,0.243,1.026,0.353v0.077a5.332,5.332,0,0,1-.093.854C553.084,65.355,552.724,65.4,552.291,65.441Zm-4.009-2.911a1.784,1.784,0,1,0,1.784,1.785A1.785,1.785,0,0,0,548.282,62.53Zm-7.657,6q1.145,0.727,1.862,1.286a10.842,10.842,0,0,1-.713,1.812q-0.909-.079-2.241-0.326a8.74,8.74,0,0,1-.919,1.245q0.63,1.2.97,2.045a10.672,10.672,0,0,1-1.522,1.214q-0.744-.521-1.777-1.4a8.764,8.764,0,0,1-1.419.617q-0.056,1.355-.182,2.254l-0.155.038a10.871,10.871,0,0,1-1.77.253q-0.384-.822-0.839-2.1a8.7,8.7,0,0,1-1.538-.174q-0.726,1.146-1.286,1.862a10.832,10.832,0,0,1-1.812-.712q0.079-.906.328-2.241a8.815,8.815,0,0,1-1.246-.919q-1.2.628-2.046,0.97a10.669,10.669,0,0,1-1.212-1.522q0.519-.744,1.4-1.777a8.643,8.643,0,0,1-.616-1.418q-1.356-.057-2.256-0.183c-0.012-.053-0.026-0.1-0.037-0.155a10.764,10.764,0,0,1-.254-1.771q0.825-.384,2.1-0.837a8.653,8.653,0,0,1,.175-1.538q-1.146-.728-1.863-1.286a10.782,10.782,0,0,1,.713-1.812q0.906,0.08,2.242.327a8.686,8.686,0,0,1,.918-1.245q-0.63-1.2-.97-2.045a10.738,10.738,0,0,1,1.521-1.214q0.744,0.521,1.778,1.4a8.527,8.527,0,0,1,1.418-.616q0.057-1.357.183-2.255l0.155-.038a10.865,10.865,0,0,1,1.77-.253q0.385,0.824.837,2.1a8.526,8.526,0,0,1,1.539.175q0.727-1.147,1.286-1.863a10.8,10.8,0,0,1,1.813.713q-0.08.905-.328,2.241a8.673,8.673,0,0,1,1.245.918q1.2-.63,2.047-0.97a10.889,10.889,0,0,1,1.214,1.521q-0.522.744-1.4,1.777a8.613,8.613,0,0,1,.617,1.42q1.357,0.057,2.255.182c0.014,0.052.026,0.1,0.039,0.155a10.962,10.962,0,0,1,.253,1.77q-0.823.383-2.1,0.837A8.736,8.736,0,0,1,540.625,68.527Zm-1.851-3.262a6.785,6.785,0,0,0-6.645-5.3,6.856,6.856,0,0,0-1.525.173,6.822,6.822,0,0,0,1.514,13.472A6.827,6.827,0,0,0,538.774,65.265Zm-5.391,7.029a5.642,5.642,0,0,1-6.768-4.249,5.648,5.648,0,0,1,4.249-6.767,5.69,5.69,0,0,1,1.265-.144A5.651,5.651,0,0,1,533.383,72.294Z" transform="translate(-521.344 -56)"/>
</svg>
