<svg 
 xmlns="http://www.w3.org/2000/svg"
 xmlns:xlink="http://www.w3.org/1999/xlink"
 width="20px" height="19px">
<path fill-rule="evenodd"  opacity="0.82" fill="rgb(255, 255, 255)"
 d="M19.028,16.221 L14.600,11.791 C14.548,11.740 14.491,11.701 14.437,11.658 C15.185,10.510 15.622,9.143 15.622,7.670 C15.622,3.623 12.342,0.343 8.295,0.343 C4.250,0.343 0.968,3.623 0.968,7.670 C0.968,11.717 4.250,14.996 8.295,14.996 C9.767,14.996 11.137,14.558 12.286,13.810 C12.328,13.866 12.367,13.921 12.417,13.972 L16.846,18.402 C17.148,18.704 17.542,18.854 17.937,18.854 C18.332,18.854 18.726,18.704 19.028,18.403 C19.629,17.800 19.629,16.823 19.028,16.221 M8.295,12.683 C5.532,12.683 3.282,10.434 3.282,7.670 C3.282,4.906 5.532,2.656 8.295,2.656 C11.058,2.656 13.308,4.906 13.308,7.670 C13.308,10.434 11.058,12.683 8.295,12.683 "/>
</svg>