<svg 
 xmlns="http://www.w3.org/2000/svg"
 xmlns:xlink="http://www.w3.org/1999/xlink"
 width="17px" height="16px">
<path fill-rule="evenodd"  fill="rgb(255, 255, 255)"
 d="M8.625,0.255 C12.903,0.255 16.371,3.723 16.371,8.001 C16.371,12.278 12.903,15.746 8.625,15.746 C4.347,15.746 0.879,12.278 0.879,8.001 C0.879,3.723 4.347,0.255 8.625,0.255 ZM4.603,9.210 L9.736,9.210 L8.074,10.870 C7.603,11.341 7.603,12.103 8.074,12.574 C8.309,12.809 8.618,12.927 8.927,12.927 C9.235,12.927 9.543,12.808 9.778,12.573 L13.498,8.853 C13.969,8.382 13.969,7.620 13.498,7.148 L9.778,3.429 C9.308,2.958 8.545,2.958 8.074,3.429 C7.603,3.900 7.603,4.661 8.074,5.132 L9.736,6.791 L4.603,6.791 C3.937,6.791 3.397,7.335 3.397,8.001 C3.397,8.666 3.937,9.210 4.603,9.210 Z"/>
</svg>