<svg xmlns="http://www.w3.org/2000/svg" width="16.84" height="21.531" viewBox="0 0 16.84 21.531">
  <metadata><?xpacket begin="﻿" id="W5M0MpCehiHzreSzNTczkc9d"?>
<x:xmpmeta xmlns:x="adobe:ns:meta/" x:xmptk="Adobe XMP Core 5.6-c142 79.160924, 2017/07/13-01:06:39        ">
   <rdf:RDF xmlns:rdf="http://www.w3.org/1999/02/22-rdf-syntax-ns#">
      <rdf:Description rdf:about=""/>
   </rdf:RDF>
</x:xmpmeta>
                                                                                                    
                                                                                                    
                                                                                                    
                                                                                                    
                                                                                                    
                                                                                                    
                                                                                                    
                                                                                                    
                                                                                                    
                                                                                                    
                                                                                                    
                                                                                                    
                                                                                                    
                                                                                                    
                                                                                                    
                                                                                                    
                                                                                                    
                                                                                                    
                                                                                                    
                                                                                                    
                           
<?xpacket end="w"?></metadata>
<defs>
    <style>
      .cls-1 {
        fill: #fff;
        fill-rule: evenodd;
      }
    </style>
  </defs>
  <path id="duplicate" class="cls-1" d="M1797.38,213.474v21.541h13.34l3.51-3.457V213.474h-16.85Zm1.73,1.73h13.39v15.428h-2.65l0.01,2.653h-10.75V215.2Zm11.43,18.73-0.01-2.626h2.62Zm-0.89-14.689a5.365,5.365,0,1,0-.09,7.588A5.338,5.338,0,0,0,1809.65,219.245Zm-1.01,6.647a4.059,4.059,0,0,1-6.89-2.947,4.051,4.051,0,0,1,4.06-4A4.051,4.051,0,0,1,1808.64,225.892Zm-2.08-3.7V219.44h-1.6V222.2h-2.64v1.53h2.64v2.793h1.6v-2.793h2.64V222.2h-2.64Z" transform="translate(-1797.38 -213.469)"/>
</svg>
