<svg xmlns="http://www.w3.org/2000/svg" width="19.063" height="22.125" viewBox="0 0 19.063 22.125">
  <metadata><?xpacket begin="﻿" id="W5M0MpCehiHzreSzNTczkc9d"?>
<x:xmpmeta xmlns:x="adobe:ns:meta/" x:xmptk="Adobe XMP Core 5.6-c142 79.160924, 2017/07/13-01:06:39        ">
   <rdf:RDF xmlns:rdf="http://www.w3.org/1999/02/22-rdf-syntax-ns#">
      <rdf:Description rdf:about=""/>
   </rdf:RDF>
</x:xmpmeta>
                                                                                                    
                                                                                                    
                                                                                                    
                                                                                                    
                                                                                                    
                                                                                                    
                                                                                                    
                                                                                                    
                                                                                                    
                                                                                                    
                                                                                                    
                                                                                                    
                                                                                                    
                                                                                                    
                                                                                                    
                                                                                                    
                                                                                                    
                                                                                                    
                                                                                                    
                                                                                                    
                           
<?xpacket end="w"?></metadata>
<defs>
    <style>
      .cls-1 {
        fill: #0ac1ef;
        fill-rule: evenodd;
      }
    </style>
  </defs>
  <path id="Forme_169" data-name="Forme 169" class="cls-1" d="M657.019,140.728v10.384h-1.66a0.374,0.374,0,0,0-.373.373v5.37a0.374,0.374,0,0,1-.373.373h-0.992c-0.2,0-.264.127-0.131,0.283l4.453,5.205a0.31,0.31,0,0,0,.485,0l1.929-2.256h8.879l3.218-3.167V140.728H657.019Zm5.729,16.5h-0.991a0.374,0.374,0,0,1-.373-0.373v-3.171h7.731v-0.31h-7.731v-1.889c0-.011-0.006-0.02-0.006-0.03h7.737v-0.31h-7.954a0.374,0.374,0,0,0-.15-0.033H658.6v-8.8h12.266v14.132h-2.432l0.011,2.43h-6.736l1.167-1.364C663.012,157.355,662.953,157.228,662.748,157.228Zm6.322,2.241-0.01-2.4h2.4Zm0.045-15.009h-8.6v0.31h8.6v-0.31Zm0,2.228h-8.6V147h8.6v-0.31Zm0,2.229h-8.6v0.31h8.6v-0.31Z" transform="translate(-653.406 -140.719)"/>
</svg>
