<svg 
 xmlns="http://www.w3.org/2000/svg"
 xmlns:xlink="http://www.w3.org/1999/xlink"
 width="20px" height="23px">
<path fill-rule="evenodd"  fill="rgb(255, 255, 255)"
 d="M16.443,19.685 L7.722,19.685 L5.827,21.901 C5.696,22.054 5.481,22.054 5.350,21.901 L0.977,16.789 C0.846,16.635 0.903,16.510 1.105,16.510 L2.080,16.510 C2.282,16.510 2.446,16.346 2.446,16.144 L2.446,10.869 C2.446,10.668 2.611,10.503 2.813,10.503 L4.443,10.503 L4.443,0.304 L19.604,0.304 L19.604,16.574 L16.443,19.685 ZM18.047,1.860 L5.999,1.860 L5.999,10.503 L8.364,10.503 C8.417,10.503 8.466,10.515 8.512,10.536 L16.324,10.536 L16.324,10.840 L8.724,10.840 C8.725,10.850 8.730,10.859 8.730,10.869 L8.730,12.725 L16.324,12.725 L16.324,13.029 L8.730,13.029 L8.730,16.144 C8.730,16.346 8.895,16.510 9.097,16.510 L10.070,16.510 C10.272,16.510 10.329,16.635 10.198,16.789 L9.053,18.128 L15.669,18.128 L15.658,15.741 L18.047,15.741 L18.047,1.860 ZM16.270,16.350 L16.280,18.712 L18.632,16.350 L16.270,16.350 ZM7.879,8.347 L16.324,8.347 L16.324,8.651 L7.879,8.651 L7.879,8.347 ZM7.879,6.158 L16.324,6.158 L16.324,6.462 L7.879,6.462 L7.879,6.158 ZM7.879,3.969 L16.324,3.969 L16.324,4.273 L7.879,4.273 L7.879,3.969 Z"/>
</svg>