<svg 
 xmlns="http://www.w3.org/2000/svg"
 xmlns:xlink="http://www.w3.org/1999/xlink"
 width="26px" height="15px">
<path fill-rule="evenodd"  fill="rgb(255, 255, 255)"
 d="M25.451,8.514 C25.229,8.777 19.932,14.950 13.213,14.950 C6.496,14.950 1.198,8.777 0.976,8.514 L0.507,7.960 L0.976,7.405 C1.198,7.142 6.496,0.969 13.213,0.969 C19.932,0.969 25.229,7.142 25.452,7.405 L25.920,7.960 L25.451,8.514 ZM9.745,3.311 C6.480,4.454 3.867,6.869 2.803,7.960 C3.867,9.050 6.480,11.465 9.745,12.608 C8.328,11.548 7.404,9.862 7.404,7.960 C7.404,6.058 8.328,4.371 9.745,3.311 ZM13.213,4.545 C11.330,4.545 9.799,6.077 9.799,7.960 C9.799,9.842 11.330,11.374 13.213,11.374 C15.096,11.374 16.628,9.842 16.628,7.960 C16.628,6.077 15.096,4.545 13.213,4.545 ZM16.682,3.311 C18.099,4.371 19.023,6.058 19.023,7.960 C19.023,9.862 18.099,11.548 16.682,12.608 C19.947,11.465 22.561,9.050 23.625,7.960 C22.561,6.869 19.947,4.454 16.682,3.311 ZM13.397,9.348 C13.397,9.685 13.552,9.982 13.790,10.184 C13.604,10.232 13.414,10.265 13.213,10.265 C11.940,10.265 10.908,9.233 10.908,7.960 C10.908,6.686 11.940,5.654 13.213,5.654 C14.487,5.654 15.519,6.686 15.519,7.960 C15.519,8.222 15.466,8.469 15.386,8.704 C15.186,8.429 14.864,8.248 14.498,8.248 C13.890,8.248 13.397,8.740 13.397,9.348 Z"/>
</svg>