<svg 
 xmlns="http://www.w3.org/2000/svg"
 xmlns:xlink="http://www.w3.org/1999/xlink"
 width="23px" height="23px">
<path fill-rule="evenodd"  fill="rgb(255, 255, 255)"
 d="M21.395,13.783 L19.287,14.205 C19.181,14.510 19.057,14.805 18.919,15.091 L20.112,16.880 C20.476,17.425 20.403,18.151 19.940,18.614 L18.617,19.936 C18.351,20.202 18.000,20.339 17.644,20.339 C17.380,20.339 17.115,20.263 16.882,20.108 L15.092,18.916 C14.806,19.054 14.511,19.178 14.206,19.284 L13.784,21.391 C13.656,22.034 13.091,22.496 12.436,22.496 L10.565,22.496 C9.910,22.496 9.345,22.034 9.217,21.391 L8.795,19.284 C8.491,19.178 8.195,19.055 7.909,18.916 L6.119,20.108 C5.887,20.263 5.620,20.339 5.357,20.339 C5.001,20.339 4.650,20.202 4.384,19.936 L3.061,18.614 C2.598,18.151 2.525,17.425 2.889,16.880 L4.082,15.091 C3.944,14.805 3.820,14.510 3.714,14.205 L1.606,13.783 C0.963,13.655 0.500,13.091 0.500,12.436 L0.500,10.566 C0.500,9.911 0.963,9.347 1.606,9.219 L3.714,8.797 C3.820,8.493 3.943,8.197 4.082,7.911 L2.889,6.122 C2.525,5.577 2.598,4.851 3.061,4.388 L4.384,3.066 C4.650,2.800 5.001,2.663 5.357,2.663 C5.620,2.663 5.886,2.739 6.119,2.894 L7.909,4.086 C8.195,3.948 8.490,3.824 8.795,3.718 L9.217,1.611 C9.345,0.968 9.910,0.506 10.565,0.506 L12.436,0.506 C13.091,0.506 13.656,0.968 13.784,1.611 L14.206,3.718 C14.510,3.824 14.805,3.947 15.092,4.086 L16.882,2.894 C17.115,2.739 17.380,2.663 17.644,2.663 C18.000,2.663 18.351,2.800 18.617,3.066 L19.940,4.388 C20.403,4.851 20.476,5.577 20.112,6.122 L18.919,7.911 C19.057,8.197 19.181,8.492 19.287,8.797 L21.395,9.219 C22.038,9.347 22.500,9.911 22.500,10.566 L22.500,12.436 C22.500,13.091 22.038,13.655 21.395,13.783 ZM21.125,10.566 L19.017,10.144 C18.540,10.049 18.149,9.708 17.989,9.248 C17.900,8.994 17.796,8.747 17.681,8.509 C17.469,8.071 17.505,7.554 17.775,7.148 L18.968,5.359 L17.645,4.037 L15.855,5.230 C15.625,5.383 15.360,5.461 15.092,5.461 C14.888,5.461 14.683,5.415 14.493,5.323 C14.254,5.207 14.007,5.104 13.754,5.016 C13.294,4.856 12.953,4.465 12.857,3.988 L12.436,1.881 L10.565,1.881 L10.143,3.988 C10.048,4.465 9.706,4.856 9.247,5.016 C8.992,5.104 8.746,5.208 8.507,5.324 C8.317,5.415 8.113,5.461 7.909,5.461 C7.641,5.461 7.375,5.383 7.146,5.230 L5.356,4.037 L4.033,5.359 L5.226,7.148 C5.497,7.554 5.532,8.072 5.320,8.510 C5.204,8.749 5.101,8.995 5.012,9.249 C4.852,9.709 4.461,10.050 3.984,10.145 L1.875,10.566 L1.876,12.436 L3.984,12.858 C4.461,12.953 4.852,13.294 5.012,13.754 C5.101,14.008 5.205,14.254 5.320,14.493 C5.532,14.931 5.496,15.448 5.226,15.854 L4.033,17.643 L5.356,18.965 L7.146,17.772 C7.375,17.619 7.641,17.541 7.909,17.541 C8.113,17.541 8.318,17.587 8.508,17.679 C8.747,17.795 8.993,17.898 9.247,17.986 C9.707,18.146 10.048,18.537 10.144,19.014 L10.565,21.122 L12.436,21.122 L12.858,19.014 C12.953,18.537 13.294,18.146 13.754,17.986 C14.009,17.898 14.255,17.794 14.494,17.678 C14.684,17.587 14.888,17.541 15.092,17.541 C15.360,17.541 15.625,17.619 15.855,17.772 L17.645,18.965 L18.968,17.643 L17.775,15.854 C17.504,15.448 17.468,14.930 17.681,14.492 C17.798,14.253 17.900,14.007 17.989,13.753 C18.149,13.294 18.540,12.953 19.017,12.857 L21.125,12.436 L21.125,10.566 ZM11.501,16.311 C8.843,16.311 6.688,14.157 6.688,11.501 C6.688,8.845 8.843,6.691 11.501,6.691 C14.158,6.691 16.313,8.845 16.313,11.501 C16.313,14.157 14.158,16.311 11.501,16.311 ZM11.501,7.292 C9.175,7.292 7.289,9.177 7.289,11.501 C7.289,13.825 9.175,15.710 11.501,15.710 C13.826,15.710 15.711,13.825 15.711,11.501 C15.711,9.177 13.826,7.292 11.501,7.292 ZM11.501,14.250 C9.981,14.250 8.750,13.020 8.750,11.501 C8.750,9.982 9.981,8.752 11.501,8.752 C13.020,8.752 14.250,9.982 14.250,11.501 C14.250,13.020 13.020,14.250 11.501,14.250 ZM11.501,9.440 C10.362,9.440 9.438,10.363 9.438,11.501 C9.438,12.639 10.362,13.563 11.501,13.563 C12.639,13.563 13.563,12.639 13.563,11.501 C13.563,10.363 12.639,9.440 11.501,9.440 Z"/>
</svg>