<svg xmlns="http://www.w3.org/2000/svg" width="29.407" height="28" viewBox="0 0 29.407 28">
  <metadata><?xpacket begin="﻿" id="W5M0MpCehiHzreSzNTczkc9d"?>
<x:xmpmeta xmlns:x="adobe:ns:meta/" x:xmptk="Adobe XMP Core 5.6-c142 79.160924, 2017/07/13-01:06:39        ">
   <rdf:RDF xmlns:rdf="http://www.w3.org/1999/02/22-rdf-syntax-ns#">
      <rdf:Description rdf:about=""/>
   </rdf:RDF>
</x:xmpmeta>
                                                                                                    
                                                                                                    
                                                                                                    
                                                                                                    
                                                                                                    
                                                                                                    
                                                                                                    
                                                                                                    
                                                                                                    
                                                                                                    
                                                                                                    
                                                                                                    
                                                                                                    
                                                                                                    
                                                                                                    
                                                                                                    
                                                                                                    
                                                                                                    
                                                                                                    
                                                                                                    
                           
<?xpacket end="w"?></metadata>
<defs>
    <style>
      .cls-1 {
        fill: #fff;
        fill-rule: evenodd;
      }
    </style>
  </defs>
  <path id="Forme_48" data-name="Forme 48" class="cls-1" d="M361.356,84.816H332.915V83.853a14.626,14.626,0,0,1,9.414-13.71,7.716,7.716,0,1,1,10.578,0,14.625,14.625,0,0,1,9.412,13.709v0.963h-0.963Zm-10.8-13.386-2.5-.588,2.268-1.2a5.79,5.79,0,1,0-5.41,0l2.267,1.2-2.5.588a12.712,12.712,0,0,0-9.805,11.458h25.479A12.712,12.712,0,0,0,350.553,71.431Zm-7.729-6.675c0-.03,0-0.061,0-0.092a4.811,4.811,0,0,1,9.6,0c0,0.031,0,.062,0,0.092A5.063,5.063,0,0,0,342.824,64.755Z" transform="translate(-332.906 -56.813)"/>
</svg>
