<svg width="14" height="14" viewBox="0 0 14 14" fill="none" xmlns="http://www.w3.org/2000/svg">
<path fill-rule="evenodd" clip-rule="evenodd" d="M5.88408 1.20145C6.21804 1.14659 6.56087 1.11807 6.91037 1.11807C10.3812 1.11807 13.1949 3.93174 13.1949 7.40259C13.1949 7.77896 13.1618 8.14761 13.0984 8.50579C13.3602 9.02007 13.5078 9.60224 13.5078 10.2189C13.5078 12.3072 11.8149 14 9.72667 14C9.11002 14 8.52785 13.8524 8.01357 13.5906C7.65539 13.654 7.28674 13.6871 6.91037 13.6871C3.43952 13.6871 0.625845 10.8734 0.625845 7.40259C0.625845 7.16749 0.638754 6.93541 0.663902 6.70701C0.244755 6.08679 0 5.33905 0 4.53413C0 2.38826 1.73958 0.648682 3.88545 0.648682C4.61636 0.648682 5.30013 0.850497 5.88408 1.20145ZM9.41896 4.82109C9.17123 4.36475 8.42804 3.46548 6.17239 3.60852C3.49952 3.77802 3.56827 5.7729 3.9689 6.4509C4.36953 7.1289 4.93374 7.32447 6.05505 7.65044C6.80259 7.76779 8.29766 8.17458 8.29766 8.86301C8.29766 9.72354 7.09812 10.0234 6.70697 9.98431L6.69694 9.98331C6.30388 9.94405 5.60842 9.87458 5.22059 9.24112C5.14447 9.1168 5.08267 9.00087 5.02684 8.89612C4.79572 8.46257 4.6667 8.22053 4.04713 8.36755C3.27786 8.55009 3.73421 9.71051 4.04713 10.0625C4.36005 10.4146 5.16843 11.0795 6.70697 11.0795C8.2455 11.0795 9.28858 10.4667 9.64062 9.74962C9.99265 9.03251 9.9405 7.93728 9.32769 7.41574C8.71489 6.89421 7.64574 6.65951 7.13724 6.55521C6.62874 6.4509 5.29882 6.13798 5.22059 5.55125C5.14236 4.96452 6.05505 4.56033 6.70697 4.61248C7.35889 4.66463 7.6327 4.79502 8.06297 5.42086C8.49323 6.04671 8.78008 6.13798 9.2625 5.83809C9.68429 5.5759 9.54461 5.18082 9.45345 4.92298C9.44035 4.88591 9.42825 4.85168 9.41896 4.82109Z" fill="#9E969A"/>
</svg>
