<svg width="12" height="10" viewBox="0 0 12 10" fill="none" xmlns="http://www.w3.org/2000/svg">
<path fill-rule="evenodd" clip-rule="evenodd" d="M4.47061 8.82585L4.6716 6.40465L9.40718 2.08301C9.47885 2.0176 9.48151 1.90533 9.41302 1.83657C9.35716 1.7805 9.27013 1.77055 9.20314 1.81258L3.5606 5.35275C3.28302 5.5269 2.94452 5.56831 2.63475 5.46213C1.97233 5.2351 0.833163 4.84003 0.149784 4.60274C-0.0446459 4.53523 -0.0517363 4.2628 0.139921 4.18772C2.13312 3.40693 8.88723 0.761323 10.645 0.0751095C11.0506 -0.0729498 11.8176 -0.102562 11.6406 0.963466C11.4636 2.02949 10.4606 6.73778 9.9813 8.95867C9.90755 9.32882 9.56095 9.95807 8.76449 9.5139C7.96804 9.06972 6.81023 8.07032 6.33088 7.62614L4.84677 9.00955C4.80528 9.04822 4.75075 9.06972 4.69414 9.06972C4.56291 9.06972 4.45971 8.95713 4.47061 8.82585Z" fill="white" fill-opacity="0.5"/>
</svg>
