<svg width="48" height="48" viewBox="0 0 48 48" fill="none" xmlns="http://www.w3.org/2000/svg">
<path fill-rule="evenodd" clip-rule="evenodd" d="M0 24C0 10.7452 10.7452 0 24 0C37.2548 0 48 10.7452 48 24C48 37.2548 37.2548 48 24 48C10.7452 48 0 37.2548 0 24ZM24.1916 10.0319C23.4233 10.0319 22.6696 10.0946 21.9354 10.2152C20.6517 9.44367 19.1485 9 17.5417 9C12.8242 9 9 12.8242 9 17.5417C9 19.3112 9.53807 20.955 10.4595 22.3185C10.4042 22.8206 10.3758 23.3308 10.3758 23.8477C10.3758 31.4779 16.5614 37.6634 24.1916 37.6634C25.019 37.6634 25.8295 37.5907 26.6169 37.4513C27.7475 38.0268 29.0273 38.3513 30.3829 38.3513C34.9737 38.3513 38.6953 34.6298 38.6953 30.039C38.6953 28.6833 38.3708 27.4035 37.7952 26.2729C37.9347 25.4855 38.0074 24.6751 38.0074 23.8477C38.0074 16.2174 31.8219 10.0319 24.1916 10.0319ZM22.5694 15.5066C27.5282 15.1921 29.162 17.1691 29.7066 18.1723C29.727 18.2395 29.7536 18.3148 29.7824 18.3963C29.9828 18.9631 30.2899 19.8316 29.3627 20.408C28.3021 21.0673 27.6715 20.8666 26.7256 19.4908C25.7797 18.115 25.1778 17.8283 23.7446 17.7137C22.3115 17.599 20.305 18.4876 20.477 19.7774C20.649 21.0673 23.5726 21.7552 24.6905 21.9845C25.8084 22.2138 28.1588 22.7298 29.506 23.8763C30.8532 25.0228 30.9678 27.4306 30.1939 29.0071C29.42 30.5835 27.1269 31.9307 23.7446 31.9307C20.3623 31.9307 18.5852 30.4689 17.8973 29.695C17.2094 28.9211 16.2061 26.37 17.8973 25.9687C19.2593 25.6455 19.543 26.1776 20.0511 27.1307L20.0511 27.1308C20.1738 27.3611 20.3097 27.6159 20.477 27.8892C21.3296 29.2818 22.8585 29.4345 23.7226 29.5208L23.7446 29.523C24.6045 29.609 27.2416 28.9497 27.2416 27.0579C27.2416 25.5445 23.9548 24.6502 22.3115 24.3923C19.8464 23.6757 18.6061 23.2457 17.7253 21.7552C16.8446 20.2647 16.6934 15.8792 22.5694 15.5066Z" fill="white"/>
</svg>
