<svg width="48" height="48" viewBox="0 0 48 48" fill="none" xmlns="http://www.w3.org/2000/svg">
<path fill-rule="evenodd" clip-rule="evenodd" d="M24 0C10.7452 0 0 10.7452 0 24C0 37.2548 10.7452 48 24 48C37.2548 48 48 37.2548 48 24C48 10.7452 37.2548 0 24 0ZM17.9295 33.182L18.4118 27.3712L29.7772 16.9992C29.9492 16.8422 29.9556 16.5728 29.7912 16.4078C29.6572 16.2732 29.4483 16.2493 29.2875 16.3502L15.7454 24.8466C15.0792 25.2646 14.2669 25.3639 13.5234 25.1091C11.9336 24.5642 9.19959 23.6161 7.55948 23.0466C7.09285 22.8845 7.07583 22.2307 7.53581 22.0505C12.3195 20.1766 28.5294 13.8272 32.748 12.1803C33.7215 11.8249 35.5622 11.7539 35.1374 14.3123C34.7126 16.8708 32.3056 28.1707 31.1551 33.5008C30.9781 34.3892 30.1463 35.8994 28.2348 34.8333C26.3233 33.7673 23.5446 31.3688 22.3941 30.3027L18.8322 33.6229C18.7327 33.7157 18.6018 33.7673 18.4659 33.7673C18.151 33.7673 17.9033 33.4971 17.9295 33.182Z" fill="white"/>
</svg>
