<svg width="47" height="46" viewBox="0 0 47 46" fill="none" xmlns="http://www.w3.org/2000/svg">
<path fill-rule="evenodd" clip-rule="evenodd" d="M3.99835 17C3.99835 7.61116 11.6095 0 20.9984 0H46.9984C46.9984 3.31371 44.3121 6 40.9984 6H20.9984C14.9232 6 9.99835 10.9249 9.99835 17V37C9.99835 40.3137 7.31206 43 3.99835 43V17Z" fill="#0044A9"/>
<path fill-rule="evenodd" clip-rule="evenodd" d="M-6.10352e-05 19.9966C-6.10352e-05 10.6077 7.6111 2.99658 16.9999 2.99658H42.9999V2.99658C42.9999 6.31029 40.3136 8.99658 36.9999 8.99658H16.9999C10.9248 8.99658 5.99994 13.9214 5.99994 19.9966V39.9966C5.99994 43.3103 3.31365 45.9966 -6.10352e-05 45.9966V45.9966V19.9966Z" fill="#0066FF"/>
</svg>
