<svg width="99" height="100" viewBox="0 0 99 100" fill="none" xmlns="http://www.w3.org/2000/svg">
<path d="M24.97 42.536L32.4186 50.0678L24.97 57.5995L17.5214 50.0678L24.97 42.536Z" fill="#0044A9"/>
<path d="M49.9033 42.536L57.3519 50.0678L49.9033 57.5995L42.4547 50.0678L49.9033 42.536Z" fill="#0044A9"/>
<path d="M74.8366 42.536L82.2852 50.0678L74.8366 57.5995L67.388 50.0678L74.8366 42.536Z" fill="#0044A9"/>
<path d="M50.0663 17.1753L30.0741 37.3905L37.3535 44.7511L49.8986 32.0661L62.4484 44.7559L69.897 37.2242L50.0663 17.1753Z" fill="#0044A9"/>
<path d="M49.9048 82.6431L69.897 62.4279L62.6176 55.0673L50.0726 67.7523L37.5228 55.0625L30.0741 62.5942L49.9048 82.6431Z" fill="#0044A9"/>
<path d="M23.3576 40.9062L30.8062 48.4379L23.3576 55.9696L15.909 48.4379L23.3576 40.9062Z" fill="#0066FF"/>
<path d="M48.2909 40.9062L55.7396 48.4379L48.2909 55.9696L40.8423 48.4379L48.2909 40.9062Z" fill="#0066FF"/>
<path d="M73.2242 40.9062L80.6729 48.4379L73.2242 55.9696L65.7756 48.4379L73.2242 40.9062Z" fill="#0066FF"/>
<path d="M48.4539 15.5454L28.4618 35.7606L35.7411 43.1212L48.2862 30.4362L60.836 43.126L68.2846 35.5943L48.4539 15.5454Z" fill="#0066FF"/>
<path d="M48.2925 81.0133L68.2846 60.798L61.0052 53.4374L48.4602 66.1225L35.9104 53.4326L28.4618 60.9644L48.2925 81.0133Z" fill="#0066FF"/>
<path d="M29.9665 9.02612V9.02612C18.1955 9.02612 8.6532 18.5684 8.6532 30.3394V30.571" stroke="white" stroke-width="6" stroke-linecap="round"/>
<path d="M89.5409 30.571L89.5409 30.3394C89.5409 18.5684 79.9986 9.02612 68.2276 9.02612V9.02612" stroke="white" stroke-width="6" stroke-linecap="round"/>
<path d="M68.2276 90.7927V90.7927C79.9986 90.7927 89.5409 81.2505 89.5409 69.4795L89.5409 69.2478" stroke="white" stroke-width="6" stroke-linecap="round"/>
<path d="M8.6532 69.2478L8.6532 69.4795C8.6532 81.2505 18.1955 90.7927 29.9665 90.7927V90.7927" stroke="white" stroke-width="6" stroke-linecap="round"/>
<path d="M26.6284 0.950195V0.950195C12.2889 0.950195 0.664429 12.5746 0.664429 26.9141V27.1964" stroke="white" stroke-linecap="round"/>
<path d="M97.5298 27.1964L97.5298 26.9141C97.5298 12.5746 85.9053 0.950195 71.5658 0.950194V0.950194" stroke="white" stroke-linecap="round"/>
<path d="M71.5658 98.8684V98.8684C85.9053 98.8684 97.5298 87.244 97.5298 72.9045L97.5298 72.6222" stroke="white" stroke-linecap="round"/>
<path d="M0.664428 72.6222L0.664428 72.9045C0.664428 87.244 12.2889 98.8684 26.6284 98.8684V98.8684" stroke="white" stroke-linecap="round"/>
</svg>
