<svg width="128" height="95" viewBox="0 0 128 95" fill="none" xmlns="http://www.w3.org/2000/svg">
<path d="M99.6043 69.0279H99.6088V63.5661C99.6088 53.564 83.4394 45.4558 63.4934 45.4558C43.5474 45.4558 27.378 53.564 27.378 63.5661V69.0279H27.3825C27.6887 78.8973 43.7389 86.8507 63.4934 86.8507C83.2479 86.8507 99.2981 78.8973 99.6043 69.0279Z" fill="#0044A9"/>
<path d="M103.173 73.7278H103.168C102.83 84.9077 85.0779 93.9171 63.2289 93.9171C41.3799 93.9171 23.628 84.9077 23.2893 73.7278H23.2843" stroke="white" stroke-linecap="round"/>
<path d="M99.6043 63.2789H99.6088V57.817C99.6088 47.815 83.4394 39.7068 63.4934 39.7068C43.5474 39.7068 27.378 47.815 27.378 57.817V63.2789H27.3825C27.6887 73.1483 43.7389 81.1017 63.4934 81.1017C83.2479 81.1017 99.2981 73.1483 99.6043 63.2789Z" fill="#0066FF"/>
<path d="M99.6043 55.8045H99.6088V50.3427C99.6088 40.3407 83.4394 32.2324 63.4934 32.2324C43.5474 32.2324 27.378 40.3407 27.378 50.3427V55.8045H27.3825C27.6887 65.6739 43.7389 73.6273 63.4934 73.6273C83.2479 73.6273 99.2981 65.6739 99.6043 55.8045Z" fill="#0044A9"/>
<path d="M99.6043 50.0552H99.6088V44.5934C99.6088 34.5914 83.4394 26.4832 63.4934 26.4832C43.5474 26.4832 27.378 34.5914 27.378 44.5934V50.0552H27.3825C27.6887 59.9247 43.7389 67.878 63.4934 67.878C83.2479 67.878 99.2981 59.9247 99.6043 50.0552Z" fill="#0066FF"/>
<path d="M99.6043 42.5814H99.6088V37.1195C99.6088 27.1175 83.4394 19.0093 63.4934 19.0093C43.5474 19.0093 27.378 27.1175 27.378 37.1195V42.5814H27.3825C27.6887 52.4508 43.7389 60.4041 63.4934 60.4041C83.2479 60.4041 99.2981 52.4508 99.6043 42.5814Z" fill="#0044A9"/>
<path d="M99.6043 36.8321H99.6088V31.3703C99.6088 21.3682 83.4394 13.26 63.4934 13.26C43.5474 13.26 27.378 21.3682 27.378 31.3703V36.8321H27.3825C27.6887 46.7015 43.7389 54.6549 63.4934 54.6549C83.2479 54.6549 99.2981 46.7015 99.6043 36.8321Z" fill="#0066FF"/>
<path d="M99.6043 29.358H99.6088V23.8961C99.6088 13.8941 83.4394 5.78589 63.4934 5.78589C43.5474 5.78589 27.378 13.8941 27.378 23.8961V29.358H27.3825C27.6887 39.2274 43.7389 47.1808 63.4934 47.1808C83.2479 47.1808 99.2981 39.2274 99.6043 29.358Z" fill="#0044A9"/>
<path d="M99.6043 23.6087H99.6088V18.1469C99.6088 8.14486 83.4394 0.0366211 63.4934 0.0366211C43.5474 0.0366211 27.378 8.14486 27.378 18.1469V23.6087H27.3825C27.6887 33.4781 43.7389 41.4315 63.4934 41.4315C83.2479 41.4315 99.2981 33.4781 99.6043 23.6087Z" fill="#0066FF"/>
<path d="M81.1245 14.7604L78.6027 14.7604C77.5083 11.9949 73.9873 9.81033 69.2292 9.81033C63.4242 9.81033 61.1879 12.204 59.8556 14.6907C59.6177 15.109 59.475 15.5273 59.3322 15.9688C58.8088 17.3865 58.2854 18.7111 56.4298 18.7111C54.6217 18.7111 54.0031 17.5259 54.0031 16.2477C54.0031 14.8301 55.0499 12.5991 56.2394 11.4139L48.9119 10.2519C48.0078 11.4371 47.2941 13.1104 47.0086 14.7604L44.7247 14.7604L44.7247 18.0604L47.199 18.0604C48.2933 20.8492 51.8144 22.9407 56.6201 22.9407C62.8057 22.9407 65.1372 19.9893 66.0412 17.2238C66.517 15.7132 67.2307 14.0399 68.8961 14.0399C70.5614 14.0399 71.4179 15.1555 71.4179 16.6893C71.4179 18.4555 70.5139 20.7562 69.5146 22.1041L76.4615 23.0337C77.6511 22.0344 78.5075 19.8499 78.8406 18.0604L81.1245 18.0604L81.1245 14.7604Z" fill="white"/>
<path d="M10.2996 71.7088C10.2996 72.8134 11.195 73.7088 12.2996 73.7088C13.4041 73.7088 14.2996 72.8134 14.2996 71.7088H10.2996ZM12.2996 15.6833L0.752556 35.6833H23.8466L12.2996 15.6833ZM14.2996 71.7088L14.2996 33.6833H10.2996L10.2996 71.7088H14.2996Z" fill="white"/>
<path d="M117.547 19.009C117.547 17.9045 116.651 17.009 115.547 17.009C114.442 17.009 113.547 17.9045 113.547 19.009L117.547 19.009ZM115.547 75.2419L127.094 55.2419L104 55.2419L115.547 75.2419ZM113.547 19.009L113.547 57.2419L117.547 57.2419L117.547 19.009L113.547 19.009Z" fill="white"/>
<line x1="5.80792" y1="69.1895" x2="5.80792" y2="53.0285" stroke="white" stroke-linecap="round"/>
<line x1="122.646" y1="38.9055" x2="122.646" y2="21.7351" stroke="white" stroke-linecap="round"/>
</svg>
