<svg width="102" height="106" viewBox="0 0 102 106" fill="none" xmlns="http://www.w3.org/2000/svg">
<path d="M6.90941 39.105H96.0906V82.9014C96.0906 91.7379 88.9271 98.9014 80.0906 98.9014H22.9094C14.0729 98.9014 6.90941 91.7379 6.90941 82.9014V39.105Z" fill="#0066FF"/>
<path d="M6.90941 39.105L51.9847 71.2597L96.0906 39.105H6.90941Z" fill="#0044A9"/>
<path d="M96.0906 39.105L51.0153 6.9503L6.9094 39.105L96.0906 39.105Z" fill="#0044A9"/>
<path fill-rule="evenodd" clip-rule="evenodd" d="M51.5 21.873C49.4449 21.873 47.7789 23.539 47.7789 25.5941V35.7298H37.6886C35.6282 35.7298 33.9579 37.4001 33.9579 39.4605C33.9579 41.5209 35.6282 43.1912 37.6886 43.1912H47.7789V53.3272C47.7789 55.3823 49.4449 57.0483 51.5 57.0483C53.5551 57.0483 55.2211 55.3823 55.2211 53.3272V43.1912H65.3114C67.3718 43.1912 69.0421 41.5209 69.0421 39.4605C69.0421 37.4001 67.3718 35.7298 65.3114 35.7298H55.2211V25.5941C55.2211 23.539 53.5551 21.873 51.5 21.873Z" fill="white"/>
<path d="M51.5 18.4258C48.3594 18.4258 45.8135 21.0845 45.8135 24.3642V34.1324L36.4649 34.1324C33.4467 34.1324 31 36.6875 31 39.8394M51.5 60.1553C54.6405 60.1553 57.1865 57.4966 57.1865 54.2169V45.5464H66.535C69.5533 45.5464 72 42.9913 72 39.8394" stroke="white" stroke-linecap="round"/>
<line x1="101.5" y1="70.45" x2="101.5" y2="50.45" stroke="white" stroke-linecap="round"/>
<path d="M37 10.9502L50.7705 0.950195L65 10.9502" stroke="white" stroke-linecap="round"/>
<line x1="0.5" y1="75.45" x2="0.500002" y2="39.45" stroke="white" stroke-linecap="round"/>
</svg>
