<svg width="149" height="116" viewBox="0 0 149 116" fill="none" xmlns="http://www.w3.org/2000/svg">
<path d="M122.795 41.3123C134.836 62.3943 127.69 89.3517 106.835 101.523" stroke="white" stroke-width="4" stroke-linecap="round"/>
<path d="M96.1441 108.275L112.848 107.997L104.555 93.4753L96.1441 108.275Z" fill="white"/>
<path d="M25.024 71.2597C13.4261 50.9532 20.3088 24.9873 40.397 13.2633" stroke="white" stroke-width="4" stroke-linecap="round"/>
<path d="M49.8409 7.34522L33.9876 7.60967L41.8588 21.3912L49.8409 7.34522Z" fill="white"/>
<path fill-rule="evenodd" clip-rule="evenodd" d="M81.6106 20.9924H68.1732V27.5692C53.4456 30.6981 42.388 43.9055 42.388 59.7236C42.388 75.2807 53.0835 88.3124 67.4468 91.715V97.8459H82.3369V91.715C86.0547 90.8343 89.5268 89.3084 92.6313 87.2607L97.8675 92.5538L107.369 82.9488L102.133 77.6557C104.192 74.4664 105.717 70.8933 106.581 67.0658H113.388V52.381H106.581C105.715 48.5471 104.186 44.9685 102.122 41.7753L107.369 36.4714L97.8675 26.8665L92.6151 32.176C89.3133 30.0009 85.5964 28.4159 81.6106 27.5692V20.9924ZM93.8164 59.7235C93.8164 70.2888 85.3436 78.8537 74.8919 78.8537C64.4402 78.8537 55.9674 70.2888 55.9674 59.7235C55.9674 49.1582 64.4402 40.5933 74.8919 40.5933C85.3436 40.5933 93.8164 49.1582 93.8164 59.7235Z" fill="#0044A9"/>
<path d="M58 10.9999C59 10.3333 62.2932 8.05851 67 8.99994C72 10 74 12.9999 74.5 14.9999H86V19.5485V23.2295C88.2066 23.7035 90.2643 24.5906 92.0922 25.8079L95 22.8362L98.2877 19.5485L107.5 28.7608" stroke="white" stroke-linecap="round"/>
<path d="M109.205 39.3267L106.732 41.9065C108.089 43.9865 109.056 46.2382 109.626 48.5393L113.83 48.7597" stroke="white" stroke-linecap="round"/>
<path d="M111.947 69.5806L108.45 69.5806C107.999 72.0523 107.157 74.3574 106 76.405L108.823 79.6623" stroke="white" stroke-linecap="round"/>
<path d="M94.6219 93.7891L92.149 91.2092C90.1552 92.6248 87.9968 93.6331 85.7911 94.2277L85.5833 97.7481" stroke="white" stroke-linecap="round"/>
<path d="M54.364 98.0076C50.6204 96.4573 47.7343 93.226 46.6242 89.2424C40.2888 87.4529 35.6415 81.5749 35.6415 74.5996C35.6415 72.3129 36.1409 70.1442 37.0356 68.1987C36.1409 66.2532 35.6415 64.0845 35.6415 61.7978C35.6415 61.1198 35.6854 60.4521 35.7705 59.7976C33.3539 57.1002 31.8818 53.522 31.8818 49.5963C31.8818 43.7022 35.2 38.5916 40.0511 36.0692C40.6759 28.7544 46.4251 22.921 53.6516 22.2555C55.1097 17.909 59.0758 14.7915 63.7399 14.7915C69.6412 14.7915 74.4252 19.7823 74.4252 25.9388V92.6563C74.4252 98.8128 69.6412 103.804 63.7399 103.804C59.6975 103.804 56.1793 101.462 54.364 98.0076Z" fill="#0066FF"/>
<path d="M31 76.8401C31 84.6882 36.2434 91.3018 43.3913 93.3152C44.6438 97.7974 47.9002 101.433 52.1239 103.177C54.1721 107.064 58.1414 109.699 62.7023 109.699C65.3016 109.799 68.463 109.603 71.5 107C75 104 75.5 102.5 75.5 102.5H80.5" stroke="white" stroke-linecap="round"/>
<path d="M62.297 41.4855C59.2078 43.3461 55.2577 42.242 53.4742 39.0192C51.6907 35.7965 52.7491 31.6756 55.8383 29.8149" stroke="white" stroke-linecap="round"/>
<path d="M55.2666 89.1855C54.1073 84.6717 56.6749 80.0321 61.0017 78.8227" stroke="white" stroke-linecap="round"/>
<path d="M57.0001 63.7661C52.4871 65.0276 47.8484 62.2337 46.6392 57.5256" stroke="white" stroke-linecap="round"/>
<path d="M50.2293 46.6356C48.4458 43.4129 49.5042 39.292 52.5934 37.4313" stroke="white" stroke-linecap="round"/>
<path d="M57.274 80.4262C54.7812 81.1231 52.2188 79.5797 51.5508 76.979" stroke="white" stroke-linecap="round"/>
<path d="M48.2424 61.5819C48.9391 64.2945 47.3961 67.0827 44.7959 67.8095" stroke="white" stroke-linecap="round"/>
</svg>
